0, 0, Header, 0, 1, 120
1, 0, Start_track
1, 0, MIDI_port, 0
1, 0, Title_t, "Wake_Me_Up_Avicii_Aloe_Bl_PR5499_F0"
1, 0, Copyright_t, "www.midiart.de"
1, 0, Time_signature, 4, 2, 24, 8
1, 0, Key_signature, 2, "major"
1, 0, Tempo, 483871
1, 0, Lyric_t, "All Right Reserved www.midiart.de "
1, 0, Lyric_t, "\015"
1, 30, System_exclusive, 5, 126, 127, 9, 1, 247
1, 30, System_exclusive, 10, 65, 16, 66, 18, 64, 0, 127, 0, 65, 247
1, 40, System_exclusive, 10, 65, 16, 66, 18, 64, 1, 48, 5, 10, 247
1, 270, Control_c, 0, 7, 100
1, 272, Control_c, 0, 10, 82
1, 272, Control_c, 0, 0, 0
1, 273, Control_c, 0, 32, 0
1, 274, Program_c, 0, 25
1, 276, Control_c, 0, 91, 30
1, 278, Control_c, 0, 93, 20
1, 279, Control_c, 0, 74, 64
1, 280, Control_c, 1, 7, 110
1, 282, Control_c, 1, 10, 64
1, 282, Control_c, 1, 0, 1
1, 283, Control_c, 1, 32, 0
1, 284, Program_c, 1, 38
1, 286, Control_c, 1, 91, 0
1, 288, Control_c, 1, 93, 30
1, 290, Control_c, 2, 7, 100
1, 292, Control_c, 2, 10, 64
1, 292, Control_c, 2, 0, 0
1, 293, Control_c, 2, 32, 0
1, 294, Program_c, 2, 62
1, 296, Control_c, 2, 91, 0
1, 298, Control_c, 2, 93, 30
1, 300, Control_c, 3, 7, 127
1, 302, Control_c, 3, 10, 64
1, 302, Control_c, 3, 0, 0
1, 303, Control_c, 3, 32, 0
1, 304, Program_c, 3, 26
1, 306, Control_c, 3, 91, 60
1, 308, Control_c, 3, 93, 10
1, 310, Control_c, 4, 7, 100
1, 312, Control_c, 4, 10, 44
1, 312, Control_c, 4, 0, 0
1, 313, Control_c, 4, 32, 0
1, 314, Program_c, 4, 24
1, 316, Control_c, 4, 91, 30
1, 318, Control_c, 4, 93, 20
1, 320, Control_c, 5, 7, 100
1, 322, Control_c, 5, 10, 64
1, 322, Control_c, 5, 0, 0
1, 323, Control_c, 5, 32, 0
1, 324, Program_c, 5, 27
1, 326, Control_c, 5, 91, 60
1, 328, Control_c, 5, 93, 50
1, 330, Control_c, 6, 7, 110
1, 332, Control_c, 6, 10, 64
1, 332, Control_c, 6, 0, 0
1, 333, Control_c, 6, 32, 0
1, 334, Program_c, 6, 81
1, 336, Control_c, 6, 91, 60
1, 338, Control_c, 6, 93, 40
1, 340, Control_c, 7, 7, 100
1, 342, Control_c, 7, 10, 64
1, 342, Control_c, 7, 0, 0
1, 343, Control_c, 7, 32, 0
1, 344, Program_c, 7, 0
1, 346, Control_c, 7, 91, 40
1, 348, Control_c, 7, 93, 0
1, 350, Control_c, 8, 7, 100
1, 352, Control_c, 8, 10, 64
1, 352, Control_c, 8, 0, 0
1, 353, Control_c, 8, 32, 0
1, 354, Program_c, 8, 95
1, 356, Control_c, 8, 91, 0
1, 358, Control_c, 8, 93, 20
1, 360, Control_c, 9, 7, 127
1, 362, Control_c, 9, 10, 64
1, 362, Control_c, 9, 0, 0
1, 363, Control_c, 9, 32, 0
1, 364, Program_c, 9, 0
1, 366, Control_c, 9, 91, 30
1, 368, Control_c, 9, 93, 0
1, 370, Control_c, 10, 7, 100
1, 372, Control_c, 10, 10, 64
1, 372, Control_c, 10, 0, 0
1, 373, Control_c, 10, 32, 0
1, 374, Program_c, 10, 119
1, 376, Control_c, 10, 91, 70
1, 378, Control_c, 10, 93, 0
1, 380, Control_c, 11, 7, 127
1, 382, Control_c, 11, 10, 64
1, 382, Control_c, 11, 0, 0
1, 383, Control_c, 11, 32, 0
1, 384, Program_c, 11, 121
1, 386, Control_c, 11, 91, 100
1, 388, Control_c, 11, 93, 50
1, 390, Control_c, 12, 7, 50
1, 392, Control_c, 12, 10, 64
1, 393, Control_c, 12, 71, 80
1, 393, Control_c, 12, 0, 3
1, 393, Control_c, 12, 32, 0
1, 394, Program_c, 12, 122
1, 395, Control_c, 12, 73, 0
1, 396, Control_c, 12, 91, 0
1, 397, Control_c, 12, 72, 0
1, 398, Control_c, 12, 93, 20
1, 399, Control_c, 12, 75, 127
1, 400, Control_c, 13, 7, 100
1, 402, Control_c, 13, 10, 64
1, 402, Control_c, 13, 0, 1
1, 403, Control_c, 13, 32, 0
1, 404, Program_c, 13, 80
1, 406, Control_c, 13, 91, 30
1, 408, Control_c, 13, 93, 0
1, 410, Control_c, 14, 7, 100
1, 412, Control_c, 14, 10, 64
1, 412, Control_c, 14, 0, 3
1, 413, Control_c, 14, 32, 0
1, 414, Program_c, 14, 127
1, 416, Control_c, 14, 91, 40
1, 418, Control_c, 14, 93, 0
1, 419, Control_c, 14, 74, 30
1, 473, Control_c, 13, 101, 0
1, 474, Control_c, 13, 100, 0
1, 475, Control_c, 13, 6, 24
1, 476, Control_c, 13, 38, 0
1, 480, Note_on_c, 9, 42, 120
1, 480, Lyric_t, "www.midiart.de "
1, 480, Lyric_t, "\015"
1, 509, Note_off_c, 9, 42, 64
1, 600, Note_on_c, 9, 42, 60
1, 629, Note_off_c, 9, 42, 64
1, 720, Note_on_c, 9, 42, 62
1, 749, Note_off_c, 9, 42, 64
1, 840, Note_on_c, 9, 42, 71
1, 869, Note_off_c, 9, 42, 64
1, 960, Note_on_c, 0, 59, 58
1, 960, Note_on_c, 0, 62, 91
1, 960, Note_on_c, 4, 47, 85
1, 960, Note_on_c, 4, 54, 120
1, 1019, Note_off_c, 4, 54, 64
1, 1019, Note_off_c, 0, 59, 64
1, 1019, Note_off_c, 0, 62, 64
1, 1019, Note_off_c, 4, 47, 64
1, 1020, Note_on_c, 0, 59, 79
1, 1020, Note_on_c, 0, 62, 95
1, 1020, Note_on_c, 0, 66, 74
1, 1020, Note_on_c, 4, 50, 92
1, 1020, Note_on_c, 4, 54, 87
1, 1020, Note_on_c, 4, 62, 95
1, 1109, Note_off_c, 4, 62, 64
1, 1109, Note_off_c, 0, 62, 64
1, 1109, Note_off_c, 0, 66, 64
1, 1109, Note_off_c, 0, 59, 64
1, 1109, Note_off_c, 4, 54, 64
1, 1109, Note_off_c, 4, 50, 64
1, 1110, Note_on_c, 0, 59, 71
1, 1110, Note_on_c, 0, 62, 91
1, 1110, Note_on_c, 0, 66, 60
1, 1110, Note_on_c, 4, 54, 109
1, 1110, Note_on_c, 4, 59, 95
1, 1139, Note_off_c, 4, 59, 64
1, 1139, Note_off_c, 0, 66, 64
1, 1139, Note_off_c, 0, 59, 64
1, 1139, Note_off_c, 0, 62, 64
1, 1139, Note_off_c, 4, 54, 64
1, 1140, Note_on_c, 0, 62, 80
1, 1140, Note_on_c, 0, 66, 62
1, 1140, Note_on_c, 0, 71, 91
1, 1140, Note_on_c, 4, 50, 103
1, 1140, Note_on_c, 4, 54, 115
1, 1169, Note_off_c, 4, 54, 64
1, 1169, Note_off_c, 0, 71, 64
1, 1169, Note_off_c, 0, 62, 64
1, 1169, Note_off_c, 0, 66, 64
1, 1169, Note_off_c, 4, 50, 64
1, 1170, Note_on_c, 0, 59, 51
1, 1170, Note_on_c, 0, 62, 85
1, 1170, Note_on_c, 0, 66, 59
1, 1170, Note_on_c, 4, 47, 92
1, 1170, Note_on_c, 4, 52, 98
1, 1199, Note_off_c, 4, 52, 64
1, 1199, Note_off_c, 0, 66, 64
1, 1199, Note_off_c, 0, 59, 64
1, 1199, Note_off_c, 0, 62, 64
1, 1199, Note_off_c, 4, 47, 64
1, 1200, Note_on_c, 0, 55, 74
1, 1200, Note_on_c, 0, 59, 94
1, 1200, Note_on_c, 0, 62, 91
1, 1200, Note_on_c, 4, 43, 98
1, 1200, Note_on_c, 4, 50, 116
1, 1259, Note_off_c, 4, 50, 64
1, 1259, Note_off_c, 0, 62, 64
1, 1259, Note_off_c, 0, 55, 64
1, 1259, Note_off_c, 0, 59, 64
1, 1259, Note_off_c, 4, 43, 64
1, 1260, Note_on_c, 0, 59, 70
1, 1260, Note_on_c, 0, 62, 94
1, 1260, Note_on_c, 0, 67, 101
1, 1260, Note_on_c, 4, 50, 79
1, 1260, Note_on_c, 4, 55, 111
1, 1260, Note_on_c, 4, 59, 100
1, 1349, Note_off_c, 4, 59, 64
1, 1349, Note_off_c, 0, 62, 64
1, 1349, Note_off_c, 0, 67, 64
1, 1349, Note_off_c, 0, 59, 64
1, 1349, Note_off_c, 4, 55, 64
1, 1349, Note_off_c, 4, 50, 64
1, 1350, Note_on_c, 0, 59, 52
1, 1350, Note_on_c, 0, 62, 85
1, 1350, Note_on_c, 0, 67, 94
1, 1350, Note_on_c, 4, 50, 82
1, 1350, Note_on_c, 4, 55, 98
1, 1350, Note_on_c, 4, 59, 85
1, 1379, Note_off_c, 4, 59, 64
1, 1379, Note_off_c, 0, 62, 64
1, 1379, Note_off_c, 0, 67, 64
1, 1379, Note_off_c, 0, 59, 64
1, 1379, Note_off_c, 4, 55, 64
1, 1379, Note_off_c, 4, 50, 64
1, 1380, Note_on_c, 0, 62, 78
1, 1380, Note_on_c, 0, 67, 100
1, 1380, Note_on_c, 0, 71, 46
1, 1380, Note_on_c, 4, 43, 109
1, 1380, Note_on_c, 4, 50, 109
1, 1409, Note_off_c, 4, 50, 64
1, 1409, Note_off_c, 0, 71, 64
1, 1409, Note_off_c, 0, 62, 64
1, 1409, Note_off_c, 0, 67, 64
1, 1409, Note_off_c, 4, 43, 64
1, 1410, Note_on_c, 0, 59, 45
1, 1410, Note_on_c, 0, 62, 73
1, 1410, Note_on_c, 0, 67, 86
1, 1410, Note_on_c, 4, 43, 101
1, 1410, Note_on_c, 4, 52, 116
1, 1439, Note_off_c, 4, 52, 64
1, 1439, Note_off_c, 0, 67, 64
1, 1439, Note_off_c, 0, 59, 64
1, 1439, Note_off_c, 0, 62, 64
1, 1439, Note_off_c, 4, 43, 64
1, 1440, Note_on_c, 0, 54, 35
1, 1440, Note_on_c, 0, 57, 85
1, 1440, Note_on_c, 0, 62, 79
1, 1440, Note_on_c, 4, 45, 90
1, 1440, Note_on_c, 4, 50, 105
1, 1499, Note_off_c, 4, 50, 64
1, 1499, Note_off_c, 0, 62, 64
1, 1499, Note_off_c, 0, 54, 64
1, 1499, Note_off_c, 0, 57, 64
1, 1499, Note_off_c, 4, 45, 64
1, 1500, Note_on_c, 0, 57, 69
1, 1500, Note_on_c, 0, 62, 98
1, 1500, Note_on_c, 0, 66, 74
1, 1500, Note_on_c, 4, 45, 100
1, 1500, Note_on_c, 4, 50, 111
1, 1500, Note_on_c, 4, 54, 89
1, 1589, Note_off_c, 4, 54, 64
1, 1589, Note_off_c, 0, 62, 64
1, 1589, Note_off_c, 0, 66, 64
1, 1589, Note_off_c, 0, 57, 64
1, 1589, Note_off_c, 4, 50, 64
1, 1589, Note_off_c, 4, 45, 64
1, 1590, Note_on_c, 0, 54, 44
1, 1590, Note_on_c, 0, 57, 78
1, 1590, Note_on_c, 0, 62, 58
1, 1590, Note_on_c, 4, 45, 85
1, 1590, Note_on_c, 4, 50, 105
1, 1590, Note_on_c, 4, 54, 81
1, 1619, Note_off_c, 4, 54, 64
1, 1619, Note_off_c, 0, 57, 64
1, 1619, Note_off_c, 0, 62, 64
1, 1619, Note_off_c, 0, 54, 64
1, 1619, Note_off_c, 4, 50, 64
1, 1619, Note_off_c, 4, 45, 64
1, 1620, Note_on_c, 0, 57, 57
1, 1620, Note_on_c, 0, 62, 91
1, 1620, Note_on_c, 0, 66, 77
1, 1620, Note_on_c, 4, 50, 109
1, 1620, Note_on_c, 4, 54, 89
1, 1620, Note_on_c, 4, 57, 109
1, 1649, Note_off_c, 4, 57, 64
1, 1649, Note_off_c, 0, 62, 64
1, 1649, Note_off_c, 0, 66, 64
1, 1649, Note_off_c, 0, 57, 64
1, 1649, Note_off_c, 4, 54, 64
1, 1649, Note_off_c, 4, 50, 64
1, 1650, Note_on_c, 0, 54, 35
1, 1650, Note_on_c, 0, 57, 79
1, 1650, Note_on_c, 0, 62, 56
1, 1650, Note_on_c, 4, 50, 111
1, 1650, Note_on_c, 4, 54, 100
1, 1650, Note_on_c, 4, 57, 100
1, 1679, Note_off_c, 4, 57, 64
1, 1679, Note_off_c, 0, 57, 64
1, 1679, Note_off_c, 0, 62, 64
1, 1679, Note_off_c, 0, 54, 64
1, 1679, Note_off_c, 4, 54, 64
1, 1679, Note_off_c, 4, 50, 64
1, 1680, Note_on_c, 0, 54, 49
1, 1680, Note_on_c, 0, 57, 85
1, 1680, Note_on_c, 0, 62, 75
1, 1680, Note_on_c, 4, 45, 105
1, 1680, Note_on_c, 4, 50, 116
1, 1739, Note_off_c, 4, 50, 64
1, 1739, Note_off_c, 0, 62, 64
1, 1739, Note_off_c, 0, 54, 64
1, 1739, Note_off_c, 0, 57, 64
1, 1739, Note_off_c, 4, 45, 64
1, 1740, Note_on_c, 0, 57, 56
1, 1740, Note_on_c, 0, 62, 84
1, 1740, Note_on_c, 0, 66, 49
1, 1740, Note_on_c, 4, 50, 105
1, 1740, Note_on_c, 4, 54, 115
1, 1769, Note_off_c, 4, 54, 64
1, 1769, Note_off_c, 0, 66, 64
1, 1769, Note_off_c, 0, 57, 64
1, 1769, Note_off_c, 0, 62, 64
1, 1769, Note_off_c, 4, 50, 64
1, 1770, Note_on_c, 0, 57, 84
1, 1770, Note_on_c, 0, 62, 94
1, 1770, Note_on_c, 0, 66, 76
1, 1770, Note_on_c, 4, 50, 100
1, 1770, Note_on_c, 4, 54, 92
1, 1799, Note_off_c, 4, 54, 64
1, 1799, Note_off_c, 0, 66, 64
1, 1799, Note_off_c, 0, 57, 64
1, 1799, Note_off_c, 0, 62, 64
1, 1799, Note_off_c, 4, 50, 64
1, 1800, Note_on_c, 0, 52, 47
1, 1800, Note_on_c, 0, 57, 89
1, 1800, Note_on_c, 0, 61, 52
1, 1800, Note_on_c, 4, 45, 101
1, 1800, Note_on_c, 4, 52, 101
1, 1859, Note_off_c, 4, 52, 64
1, 1859, Note_off_c, 0, 61, 64
1, 1859, Note_off_c, 0, 52, 64
1, 1859, Note_off_c, 0, 57, 64
1, 1859, Note_off_c, 4, 45, 64
1, 1860, Note_on_c, 0, 57, 51
1, 1860, Note_on_c, 0, 61, 52
1, 1860, Note_on_c, 0, 64, 78
1, 1860, Note_on_c, 4, 49, 89
1, 1860, Note_on_c, 4, 52, 101
1, 1860, Note_on_c, 4, 57, 89
1, 1889, Note_off_c, 4, 57, 64
1, 1889, Note_off_c, 0, 61, 64
1, 1889, Note_off_c, 0, 64, 64
1, 1889, Note_off_c, 0, 57, 64
1, 1889, Note_off_c, 4, 52, 64
1, 1889, Note_off_c, 4, 49, 64
1, 1890, Note_on_c, 0, 57, 73
1, 1890, Note_on_c, 0, 61, 52
1, 1890, Note_on_c, 0, 64, 83
1, 1890, Note_on_c, 4, 49, 119
1, 1890, Note_on_c, 4, 52, 118
1, 1890, Note_on_c, 4, 57, 105
1, 1919, Note_off_c, 4, 57, 64
1, 1919, Note_off_c, 0, 61, 64
1, 1919, Note_off_c, 0, 64, 64
1, 1919, Note_off_c, 0, 57, 64
1, 1919, Note_off_c, 4, 52, 64
1, 1919, Note_off_c, 4, 49, 64
1, 1920, Note_on_c, 0, 59, 58
1, 1920, Note_on_c, 0, 62, 91
1, 1920, Note_on_c, 4, 47, 85
1, 1920, Note_on_c, 4, 54, 120
1, 1979, Note_off_c, 4, 54, 64
1, 1979, Note_off_c, 0, 59, 64
1, 1979, Note_off_c, 0, 62, 64
1, 1979, Note_off_c, 4, 47, 64
1, 1980, Note_on_c, 0, 59, 79
1, 1980, Note_on_c, 0, 62, 95
1, 1980, Note_on_c, 0, 66, 74
1, 1980, Note_on_c, 4, 50, 92
1, 1980, Note_on_c, 4, 54, 87
1, 1980, Note_on_c, 4, 62, 95
1, 2069, Note_off_c, 4, 62, 64
1, 2069, Note_off_c, 0, 62, 64
1, 2069, Note_off_c, 0, 66, 64
1, 2069, Note_off_c, 0, 59, 64
1, 2069, Note_off_c, 4, 54, 64
1, 2069, Note_off_c, 4, 50, 64
1, 2070, Note_on_c, 0, 59, 71
1, 2070, Note_on_c, 0, 62, 91
1, 2070, Note_on_c, 0, 66, 60
1, 2070, Note_on_c, 4, 54, 109
1, 2070, Note_on_c, 4, 59, 95
1, 2099, Note_off_c, 4, 59, 64
1, 2099, Note_off_c, 0, 66, 64
1, 2099, Note_off_c, 0, 59, 64
1, 2099, Note_off_c, 0, 62, 64
1, 2099, Note_off_c, 4, 54, 64
1, 2100, Note_on_c, 0, 62, 80
1, 2100, Note_on_c, 0, 66, 62
1, 2100, Note_on_c, 0, 71, 91
1, 2100, Note_on_c, 4, 50, 103
1, 2100, Note_on_c, 4, 54, 115
1, 2129, Note_off_c, 4, 54, 64
1, 2129, Note_off_c, 0, 71, 64
1, 2129, Note_off_c, 0, 62, 64
1, 2129, Note_off_c, 0, 66, 64
1, 2129, Note_off_c, 4, 50, 64
1, 2130, Note_on_c, 0, 59, 51
1, 2130, Note_on_c, 0, 62, 85
1, 2130, Note_on_c, 0, 66, 59
1, 2130, Note_on_c, 4, 47, 92
1, 2130, Note_on_c, 4, 52, 98
1, 2159, Note_off_c, 4, 52, 64
1, 2159, Note_off_c, 0, 66, 64
1, 2159, Note_off_c, 0, 59, 64
1, 2159, Note_off_c, 0, 62, 64
1, 2159, Note_off_c, 4, 47, 64
1, 2160, Note_on_c, 0, 55, 74
1, 2160, Note_on_c, 0, 59, 94
1, 2160, Note_on_c, 0, 62, 91
1, 2160, Note_on_c, 4, 43, 98
1, 2160, Note_on_c, 4, 50, 116
1, 2219, Note_off_c, 4, 50, 64
1, 2219, Note_off_c, 0, 62, 64
1, 2219, Note_off_c, 0, 55, 64
1, 2219, Note_off_c, 0, 59, 64
1, 2219, Note_off_c, 4, 43, 64
1, 2220, Note_on_c, 0, 59, 70
1, 2220, Note_on_c, 0, 62, 94
1, 2220, Note_on_c, 0, 67, 101
1, 2220, Note_on_c, 4, 50, 79
1, 2220, Note_on_c, 4, 55, 111
1, 2220, Note_on_c, 4, 59, 100
1, 2309, Note_off_c, 4, 59, 64
1, 2309, Note_off_c, 0, 62, 64
1, 2309, Note_off_c, 0, 67, 64
1, 2309, Note_off_c, 0, 59, 64
1, 2309, Note_off_c, 4, 55, 64
1, 2309, Note_off_c, 4, 50, 64
1, 2310, Note_on_c, 0, 59, 52
1, 2310, Note_on_c, 0, 62, 85
1, 2310, Note_on_c, 0, 67, 94
1, 2310, Note_on_c, 4, 50, 82
1, 2310, Note_on_c, 4, 55, 98
1, 2310, Note_on_c, 4, 59, 85
1, 2339, Note_off_c, 4, 59, 64
1, 2339, Note_off_c, 0, 62, 64
1, 2339, Note_off_c, 0, 67, 64
1, 2339, Note_off_c, 0, 59, 64
1, 2339, Note_off_c, 4, 55, 64
1, 2339, Note_off_c, 4, 50, 64
1, 2340, Note_on_c, 0, 62, 78
1, 2340, Note_on_c, 0, 67, 100
1, 2340, Note_on_c, 0, 71, 46
1, 2340, Note_on_c, 4, 43, 109
1, 2340, Note_on_c, 4, 50, 109
1, 2369, Note_off_c, 4, 50, 64
1, 2369, Note_off_c, 0, 71, 64
1, 2369, Note_off_c, 0, 62, 64
1, 2369, Note_off_c, 0, 67, 64
1, 2369, Note_off_c, 4, 43, 64
1, 2370, Note_on_c, 0, 59, 45
1, 2370, Note_on_c, 0, 62, 73
1, 2370, Note_on_c, 0, 67, 86
1, 2370, Note_on_c, 4, 43, 101
1, 2370, Note_on_c, 4, 52, 116
1, 2399, Note_off_c, 4, 52, 64
1, 2399, Note_off_c, 0, 67, 64
1, 2399, Note_off_c, 0, 59, 64
1, 2399, Note_off_c, 0, 62, 64
1, 2399, Note_off_c, 4, 43, 64
1, 2400, Note_on_c, 0, 54, 35
1, 2400, Note_on_c, 0, 57, 85
1, 2400, Note_on_c, 0, 62, 79
1, 2400, Note_on_c, 4, 45, 90
1, 2400, Note_on_c, 4, 50, 105
1, 2415, Control_c, 0, 74, 62
1, 2415, Control_c, 4, 74, 62
1, 2430, Control_c, 0, 74, 61
1, 2430, Control_c, 4, 74, 61
1, 2445, Control_c, 0, 74, 60
1, 2445, Control_c, 4, 74, 60
1, 2459, Note_off_c, 4, 50, 64
1, 2459, Note_off_c, 0, 62, 64
1, 2459, Note_off_c, 0, 54, 64
1, 2459, Note_off_c, 0, 57, 64
1, 2459, Note_off_c, 4, 45, 64
1, 2460, Control_c, 0, 74, 59
1, 2460, Note_on_c, 0, 57, 69
1, 2460, Note_on_c, 0, 62, 98
1, 2460, Note_on_c, 0, 66, 74
1, 2460, Control_c, 4, 74, 59
1, 2460, Note_on_c, 4, 45, 100
1, 2460, Note_on_c, 4, 50, 111
1, 2460, Note_on_c, 4, 54, 89
1, 2475, Control_c, 0, 74, 58
1, 2475, Control_c, 4, 74, 58
1, 2490, Control_c, 0, 74, 57
1, 2490, Control_c, 4, 74, 57
1, 2505, Control_c, 0, 74, 56
1, 2505, Control_c, 4, 74, 56
1, 2520, Control_c, 0, 74, 55
1, 2520, Control_c, 4, 74, 55
1, 2535, Control_c, 0, 74, 54
1, 2535, Control_c, 4, 74, 54
1, 2549, Note_off_c, 4, 54, 64
1, 2549, Note_off_c, 0, 62, 64
1, 2549, Note_off_c, 0, 66, 64
1, 2549, Note_off_c, 0, 57, 64
1, 2549, Note_off_c, 4, 50, 64
1, 2549, Note_off_c, 4, 45, 64
1, 2550, Control_c, 0, 74, 53
1, 2550, Note_on_c, 0, 54, 44
1, 2550, Note_on_c, 0, 57, 78
1, 2550, Note_on_c, 0, 62, 58
1, 2550, Control_c, 4, 74, 53
1, 2550, Note_on_c, 4, 45, 85
1, 2550, Note_on_c, 4, 50, 105
1, 2550, Note_on_c, 4, 54, 81
1, 2565, Control_c, 0, 74, 52
1, 2565, Control_c, 4, 74, 52
1, 2579, Note_off_c, 4, 54, 64
1, 2579, Note_off_c, 0, 57, 64
1, 2579, Note_off_c, 0, 62, 64
1, 2579, Note_off_c, 0, 54, 64
1, 2579, Note_off_c, 4, 50, 64
1, 2579, Note_off_c, 4, 45, 64
1, 2580, Control_c, 0, 74, 51
1, 2580, Note_on_c, 0, 57, 57
1, 2580, Note_on_c, 0, 62, 91
1, 2580, Note_on_c, 0, 66, 77
1, 2580, Control_c, 4, 74, 51
1, 2580, Note_on_c, 4, 50, 109
1, 2580, Note_on_c, 4, 54, 89
1, 2580, Note_on_c, 4, 57, 109
1, 2595, Control_c, 0, 74, 50
1, 2595, Control_c, 4, 74, 50
1, 2609, Note_off_c, 4, 57, 64
1, 2609, Note_off_c, 0, 62, 64
1, 2609, Note_off_c, 0, 66, 64
1, 2609, Note_off_c, 0, 57, 64
1, 2609, Note_off_c, 4, 54, 64
1, 2609, Note_off_c, 4, 50, 64
1, 2610, Control_c, 0, 74, 49
1, 2610, Note_on_c, 0, 54, 35
1, 2610, Note_on_c, 0, 57, 79
1, 2610, Note_on_c, 0, 62, 56
1, 2610, Control_c, 4, 74, 49
1, 2610, Note_on_c, 4, 50, 111
1, 2610, Note_on_c, 4, 54, 100
1, 2610, Note_on_c, 4, 57, 100
1, 2625, Control_c, 0, 74, 48
1, 2625, Control_c, 4, 74, 48
1, 2639, Note_off_c, 4, 57, 64
1, 2639, Note_off_c, 0, 57, 64
1, 2639, Note_off_c, 0, 62, 64
1, 2639, Note_off_c, 0, 54, 64
1, 2639, Note_off_c, 4, 54, 64
1, 2639, Note_off_c, 4, 50, 64
1, 2640, Control_c, 0, 74, 47
1, 2640, Note_on_c, 0, 54, 49
1, 2640, Note_on_c, 0, 57, 85
1, 2640, Note_on_c, 0, 62, 75
1, 2640, Control_c, 4, 74, 47
1, 2640, Note_on_c, 4, 45, 105
1, 2640, Note_on_c, 4, 50, 116
1, 2655, Control_c, 0, 74, 46
1, 2655, Control_c, 4, 74, 46
1, 2670, Control_c, 0, 74, 45
1, 2670, Control_c, 4, 74, 45
1, 2685, Control_c, 0, 74, 44
1, 2685, Control_c, 4, 74, 44
1, 2699, Note_off_c, 4, 50, 64
1, 2699, Note_off_c, 0, 62, 64
1, 2699, Note_off_c, 0, 54, 64
1, 2699, Note_off_c, 0, 57, 64
1, 2699, Note_off_c, 4, 45, 64
1, 2700, Control_c, 0, 74, 43
1, 2700, Note_on_c, 0, 57, 56
1, 2700, Note_on_c, 0, 62, 84
1, 2700, Note_on_c, 0, 66, 49
1, 2700, Control_c, 4, 74, 43
1, 2700, Note_on_c, 4, 50, 105
1, 2700, Note_on_c, 4, 54, 115
1, 2715, Control_c, 0, 74, 42
1, 2715, Control_c, 4, 74, 42
1, 2729, Note_off_c, 4, 54, 64
1, 2729, Note_off_c, 0, 66, 64
1, 2729, Note_off_c, 0, 57, 64
1, 2729, Note_off_c, 0, 62, 64
1, 2729, Note_off_c, 4, 50, 64
1, 2730, Control_c, 0, 74, 41
1, 2730, Note_on_c, 0, 57, 84
1, 2730, Note_on_c, 0, 62, 94
1, 2730, Note_on_c, 0, 66, 76
1, 2730, Control_c, 4, 74, 41
1, 2730, Note_on_c, 4, 50, 100
1, 2730, Note_on_c, 4, 54, 92
1, 2745, Control_c, 0, 74, 40
1, 2745, Control_c, 4, 74, 40
1, 2759, Note_off_c, 4, 54, 64
1, 2759, Note_off_c, 0, 66, 64
1, 2759, Note_off_c, 0, 57, 64
1, 2759, Note_off_c, 0, 62, 64
1, 2759, Note_off_c, 4, 50, 64
1, 2760, Control_c, 0, 74, 39
1, 2760, Note_on_c, 0, 52, 47
1, 2760, Note_on_c, 0, 57, 89
1, 2760, Note_on_c, 0, 61, 52
1, 2760, Control_c, 4, 74, 39
1, 2760, Note_on_c, 4, 45, 101
1, 2760, Note_on_c, 4, 52, 101
1, 2775, Control_c, 0, 74, 38
1, 2775, Control_c, 4, 74, 38
1, 2790, Control_c, 0, 74, 37
1, 2790, Control_c, 4, 74, 37
1, 2805, Control_c, 0, 74, 36
1, 2805, Control_c, 4, 74, 36
1, 2819, Note_off_c, 4, 52, 64
1, 2819, Note_off_c, 0, 61, 64
1, 2819, Note_off_c, 0, 52, 64
1, 2819, Note_off_c, 0, 57, 64
1, 2819, Note_off_c, 4, 45, 64
1, 2820, Control_c, 0, 74, 35
1, 2820, Note_on_c, 0, 57, 51
1, 2820, Note_on_c, 0, 61, 52
1, 2820, Note_on_c, 0, 64, 78
1, 2820, Control_c, 4, 74, 35
1, 2820, Note_on_c, 4, 49, 89
1, 2820, Note_on_c, 4, 52, 101
1, 2820, Note_on_c, 4, 57, 89
1, 2835, Control_c, 0, 74, 34
1, 2835, Control_c, 4, 74, 34
1, 2849, Note_off_c, 4, 57, 64
1, 2849, Note_off_c, 0, 61, 64
1, 2849, Note_off_c, 0, 64, 64
1, 2849, Note_off_c, 0, 57, 64
1, 2849, Note_off_c, 4, 52, 64
1, 2849, Note_off_c, 4, 49, 64
1, 2850, Control_c, 0, 74, 33
1, 2850, Note_on_c, 0, 57, 73
1, 2850, Note_on_c, 0, 61, 52
1, 2850, Note_on_c, 0, 64, 83
1, 2850, Control_c, 4, 74, 33
1, 2850, Note_on_c, 4, 49, 119
1, 2850, Note_on_c, 4, 52, 118
1, 2850, Note_on_c, 4, 57, 105
1, 2879, Note_off_c, 4, 57, 64
1, 2879, Note_off_c, 0, 61, 64
1, 2879, Note_off_c, 0, 64, 64
1, 2879, Note_off_c, 0, 57, 64
1, 2879, Note_off_c, 4, 52, 64
1, 2879, Note_off_c, 4, 49, 64
1, 2880, Note_on_c, 0, 59, 58
1, 2880, Note_on_c, 0, 62, 91
1, 2880, Note_on_c, 4, 47, 85
1, 2880, Note_on_c, 4, 54, 120
1, 2939, Note_off_c, 4, 54, 64
1, 2939, Note_off_c, 0, 59, 64
1, 2939, Note_off_c, 0, 62, 64
1, 2939, Note_off_c, 4, 47, 64
1, 2940, Note_on_c, 0, 59, 79
1, 2940, Note_on_c, 0, 62, 95
1, 2940, Note_on_c, 0, 66, 74
1, 2940, Note_on_c, 4, 50, 92
1, 2940, Note_on_c, 4, 54, 87
1, 2940, Note_on_c, 4, 62, 95
1, 3000, Note_on_c, 3, 59, 120
1, 3000, Lyric_t, "Fee"
1, 3029, Note_off_c, 3, 59, 64
1, 3029, Note_off_c, 4, 54, 64
1, 3029, Note_off_c, 0, 62, 64
1, 3029, Note_off_c, 0, 66, 64
1, 3029, Note_off_c, 0, 59, 64
1, 3029, Note_off_c, 4, 62, 64
1, 3029, Note_off_c, 4, 50, 64
1, 3030, Note_on_c, 0, 59, 71
1, 3030, Note_on_c, 0, 62, 91
1, 3030, Note_on_c, 0, 66, 60
1, 3030, Note_on_c, 3, 59, 109
1, 3030, Note_on_c, 4, 54, 109
1, 3030, Note_on_c, 4, 59, 95
1, 3030, Lyric_t, "ling "
1, 3059, Note_off_c, 4, 59, 64
1, 3059, Note_off_c, 0, 62, 64
1, 3059, Note_off_c, 0, 66, 64
1, 3059, Note_off_c, 0, 59, 64
1, 3059, Note_off_c, 4, 54, 64
1, 3059, Note_off_c, 3, 59, 64
1, 3060, Note_on_c, 0, 62, 80
1, 3060, Note_on_c, 0, 66, 62
1, 3060, Note_on_c, 0, 71, 91
1, 3060, Note_on_c, 4, 50, 103
1, 3060, Note_on_c, 4, 54, 115
1, 3089, Note_off_c, 4, 54, 64
1, 3089, Note_off_c, 0, 71, 64
1, 3089, Note_off_c, 0, 62, 64
1, 3089, Note_off_c, 0, 66, 64
1, 3089, Note_off_c, 4, 50, 64
1, 3090, Note_on_c, 0, 59, 51
1, 3090, Note_on_c, 0, 62, 85
1, 3090, Note_on_c, 0, 66, 59
1, 3090, Note_on_c, 3, 59, 118
1, 3090, Note_on_c, 4, 47, 92
1, 3090, Note_on_c, 4, 52, 98
1, 3090, Lyric_t, "my "
1, 3119, Note_off_c, 4, 52, 64
1, 3119, Note_off_c, 0, 62, 64
1, 3119, Note_off_c, 0, 66, 64
1, 3119, Note_off_c, 0, 59, 64
1, 3119, Note_off_c, 4, 47, 64
1, 3119, Note_off_c, 3, 59, 64
1, 3120, Note_on_c, 0, 55, 74
1, 3120, Note_on_c, 0, 59, 94
1, 3120, Note_on_c, 0, 62, 91
1, 3120, Note_on_c, 3, 59, 120
1, 3120, Note_on_c, 4, 43, 98
1, 3120, Note_on_c, 4, 50, 116
1, 3120, Lyric_t, "way "
1, 3179, Note_off_c, 4, 50, 64
1, 3179, Note_off_c, 0, 59, 64
1, 3179, Note_off_c, 0, 62, 64
1, 3179, Note_off_c, 0, 55, 64
1, 3179, Note_off_c, 4, 43, 64
1, 3179, Note_off_c, 3, 59, 64
1, 3180, Note_on_c, 0, 59, 70
1, 3180, Note_on_c, 0, 62, 94
1, 3180, Note_on_c, 0, 67, 101
1, 3180, Note_on_c, 4, 50, 79
1, 3180, Note_on_c, 4, 55, 111
1, 3180, Note_on_c, 4, 59, 100
1, 3240, Note_on_c, 3, 57, 119
1, 3240, Lyric_t, "through "
1, 3269, Note_off_c, 4, 59, 64
1, 3269, Note_off_c, 4, 50, 64
1, 3269, Note_off_c, 0, 62, 64
1, 3269, Note_off_c, 0, 67, 64
1, 3269, Note_off_c, 0, 59, 64
1, 3269, Note_off_c, 4, 55, 64
1, 3270, Note_on_c, 0, 59, 52
1, 3270, Note_on_c, 0, 62, 85
1, 3270, Note_on_c, 0, 67, 94
1, 3270, Note_on_c, 4, 50, 82
1, 3270, Note_on_c, 4, 55, 98
1, 3270, Note_on_c, 4, 59, 85
1, 3299, Note_off_c, 4, 59, 64
1, 3299, Note_off_c, 4, 50, 64
1, 3299, Note_off_c, 0, 59, 64
1, 3299, Note_off_c, 0, 62, 64
1, 3299, Note_off_c, 0, 67, 64
1, 3299, Note_off_c, 4, 55, 64
1, 3300, Note_on_c, 0, 62, 78
1, 3300, Note_on_c, 0, 67, 100
1, 3300, Note_on_c, 0, 71, 46
1, 3300, Note_on_c, 4, 43, 109
1, 3300, Note_on_c, 4, 50, 109
1, 3329, Note_off_c, 4, 50, 64
1, 3329, Note_off_c, 0, 62, 64
1, 3329, Note_off_c, 0, 67, 64
1, 3329, Note_off_c, 3, 57, 64
1, 3329, Note_off_c, 4, 43, 64
1, 3329, Note_off_c, 0, 71, 64
1, 3330, Note_on_c, 0, 59, 45
1, 3330, Note_on_c, 0, 62, 73
1, 3330, Note_on_c, 0, 67, 86
1, 3330, Note_on_c, 3, 54, 115
1, 3330, Note_on_c, 4, 43, 101
1, 3330, Note_on_c, 4, 52, 116
1, 3330, Lyric_t, "the "
1, 3359, Note_off_c, 4, 52, 64
1, 3359, Note_off_c, 0, 62, 64
1, 3359, Note_off_c, 0, 67, 64
1, 3359, Note_off_c, 0, 59, 64
1, 3359, Note_off_c, 4, 43, 64
1, 3359, Note_off_c, 3, 54, 64
1, 3360, Note_on_c, 0, 54, 35
1, 3360, Note_on_c, 0, 57, 85
1, 3360, Note_on_c, 0, 62, 79
1, 3360, Note_on_c, 3, 57, 116
1, 3360, Note_on_c, 4, 45, 90
1, 3360, Note_on_c, 4, 50, 105
1, 3360, Lyric_t, "dark"
1, 3419, Note_off_c, 4, 50, 64
1, 3419, Note_off_c, 0, 57, 64
1, 3419, Note_off_c, 0, 54, 64
1, 3419, Note_off_c, 0, 62, 64
1, 3419, Note_off_c, 4, 45, 64
1, 3420, Note_on_c, 0, 57, 69
1, 3420, Note_on_c, 0, 62, 98
1, 3420, Note_on_c, 0, 66, 74
1, 3420, Note_on_c, 4, 45, 100
1, 3420, Note_on_c, 4, 50, 111
1, 3420, Note_on_c, 4, 54, 89
1, 3449, Note_off_c, 3, 57, 64
1, 3480, Note_on_c, 3, 50, 120
1, 3480, Lyric_t, "ness "
1, 3480, Lyric_t, "\015"
1, 3509, Note_off_c, 4, 50, 64
1, 3509, Note_off_c, 4, 45, 64
1, 3509, Note_off_c, 0, 62, 64
1, 3509, Note_off_c, 0, 66, 64
1, 3509, Note_off_c, 0, 57, 64
1, 3509, Note_off_c, 4, 54, 64
1, 3510, Note_on_c, 0, 54, 44
1, 3510, Note_on_c, 0, 57, 78
1, 3510, Note_on_c, 0, 62, 58
1, 3510, Note_on_c, 4, 45, 85
1, 3510, Note_on_c, 4, 50, 105
1, 3510, Note_on_c, 4, 54, 81
1, 3539, Note_off_c, 4, 54, 64
1, 3539, Note_off_c, 4, 45, 64
1, 3539, Note_off_c, 0, 54, 64
1, 3539, Note_off_c, 0, 57, 64
1, 3539, Note_off_c, 0, 62, 64
1, 3539, Note_off_c, 4, 50, 64
1, 3540, Note_on_c, 0, 57, 57
1, 3540, Note_on_c, 0, 62, 91
1, 3540, Note_on_c, 0, 66, 77
1, 3540, Note_on_c, 4, 50, 109
1, 3540, Note_on_c, 4, 54, 89
1, 3540, Note_on_c, 4, 57, 109
1, 3569, Note_off_c, 4, 57, 64
1, 3569, Note_off_c, 4, 50, 64
1, 3569, Note_off_c, 0, 57, 64
1, 3569, Note_off_c, 0, 62, 64
1, 3569, Note_off_c, 0, 66, 64
1, 3569, Note_off_c, 4, 54, 64
1, 3570, Note_on_c, 0, 54, 35
1, 3570, Note_on_c, 0, 57, 79
1, 3570, Note_on_c, 0, 62, 56
1, 3570, Note_on_c, 4, 50, 111
1, 3570, Note_on_c, 4, 54, 100
1, 3570, Note_on_c, 4, 57, 100
1, 3599, Note_off_c, 4, 57, 64
1, 3599, Note_off_c, 4, 50, 64
1, 3599, Note_off_c, 0, 54, 64
1, 3599, Note_off_c, 0, 57, 64
1, 3599, Note_off_c, 3, 50, 64
1, 3599, Note_off_c, 4, 54, 64
1, 3599, Note_off_c, 0, 62, 64
1, 3600, Note_on_c, 0, 54, 35
1, 3600, Note_on_c, 0, 57, 85
1, 3600, Note_on_c, 0, 62, 79
1, 3600, Note_on_c, 4, 45, 90
1, 3600, Note_on_c, 4, 50, 105
1, 3657, Control_c, 0, 74, 34
1, 3657, Control_c, 4, 74, 34
1, 3659, Note_off_c, 4, 50, 64
1, 3659, Note_off_c, 0, 62, 64
1, 3659, Note_off_c, 0, 54, 64
1, 3659, Note_off_c, 0, 57, 64
1, 3659, Note_off_c, 4, 45, 64
1, 3660, Note_on_c, 0, 57, 69
1, 3660, Note_on_c, 0, 62, 98
1, 3660, Note_on_c, 0, 66, 74
1, 3660, Note_on_c, 4, 45, 100
1, 3660, Note_on_c, 4, 50, 111
1, 3660, Note_on_c, 4, 54, 89
1, 3749, Note_off_c, 4, 54, 64
1, 3749, Note_off_c, 0, 62, 64
1, 3749, Note_off_c, 0, 66, 64
1, 3749, Note_off_c, 0, 57, 64
1, 3749, Note_off_c, 4, 50, 64
1, 3749, Note_off_c, 4, 45, 64
1, 3750, Note_on_c, 0, 54, 44
1, 3750, Note_on_c, 0, 57, 78
1, 3750, Note_on_c, 0, 62, 58
1, 3750, Note_on_c, 4, 45, 85
1, 3750, Note_on_c, 4, 50, 105
1, 3750, Note_on_c, 4, 54, 81
1, 3779, Note_off_c, 4, 54, 64
1, 3779, Note_off_c, 0, 57, 64
1, 3779, Note_off_c, 0, 62, 64
1, 3779, Note_off_c, 0, 54, 64
1, 3779, Note_off_c, 4, 50, 64
1, 3779, Note_off_c, 4, 45, 64
1, 3780, Note_on_c, 0, 57, 57
1, 3780, Note_on_c, 0, 62, 91
1, 3780, Note_on_c, 0, 66, 77
1, 3780, Note_on_c, 4, 50, 109
1, 3780, Note_on_c, 4, 54, 89
1, 3780, Note_on_c, 4, 57, 109
1, 3809, Note_off_c, 4, 57, 64
1, 3809, Note_off_c, 0, 62, 64
1, 3809, Note_off_c, 0, 66, 64
1, 3809, Note_off_c, 0, 57, 64
1, 3809, Note_off_c, 4, 54, 64
1, 3809, Note_off_c, 4, 50, 64
1, 3810, Note_on_c, 0, 54, 35
1, 3810, Note_on_c, 0, 57, 79
1, 3810, Note_on_c, 0, 62, 56
1, 3810, Note_on_c, 4, 50, 111
1, 3810, Note_on_c, 4, 54, 100
1, 3810, Note_on_c, 4, 57, 100
1, 3814, Control_c, 0, 74, 35
1, 3814, Control_c, 4, 74, 35
1, 3839, Note_off_c, 4, 57, 64
1, 3839, Note_off_c, 0, 57, 64
1, 3839, Note_off_c, 0, 62, 64
1, 3839, Note_off_c, 0, 54, 64
1, 3839, Note_off_c, 4, 54, 64
1, 3839, Note_off_c, 4, 50, 64
1, 3840, Note_on_c, 0, 59, 58
1, 3840, Note_on_c, 0, 62, 91
1, 3840, Note_on_c, 4, 47, 85
1, 3840, Note_on_c, 4, 54, 120
1, 3899, Note_off_c, 4, 54, 64
1, 3899, Note_off_c, 0, 59, 64
1, 3899, Note_off_c, 0, 62, 64
1, 3899, Note_off_c, 4, 47, 64
1, 3900, Note_on_c, 0, 59, 79
1, 3900, Note_on_c, 0, 62, 95
1, 3900, Note_on_c, 0, 66, 74
1, 3900, Note_on_c, 4, 50, 92
1, 3900, Note_on_c, 4, 54, 87
1, 3900, Note_on_c, 4, 62, 95
1, 3960, Note_on_c, 3, 59, 109
1, 3960, Lyric_t, "Gui"
1, 3970, Control_c, 0, 74, 36
1, 3970, Control_c, 4, 74, 36
1, 3989, Note_off_c, 3, 59, 64
1, 3989, Note_off_c, 4, 54, 64
1, 3989, Note_off_c, 0, 62, 64
1, 3989, Note_off_c, 0, 66, 64
1, 3989, Note_off_c, 0, 59, 64
1, 3989, Note_off_c, 4, 62, 64
1, 3989, Note_off_c, 4, 50, 64
1, 3990, Note_on_c, 0, 59, 71
1, 3990, Note_on_c, 0, 62, 91
1, 3990, Note_on_c, 0, 66, 60
1, 3990, Note_on_c, 4, 54, 109
1, 3990, Note_on_c, 4, 59, 95
1, 4019, Note_off_c, 4, 59, 64
1, 4019, Note_off_c, 0, 66, 64
1, 4019, Note_off_c, 0, 59, 64
1, 4019, Note_off_c, 0, 62, 64
1, 4019, Note_off_c, 4, 54, 64
1, 4020, Note_on_c, 0, 62, 80
1, 4020, Note_on_c, 0, 66, 62
1, 4020, Note_on_c, 0, 71, 91
1, 4020, Note_on_c, 3, 59, 105
1, 4020, Note_on_c, 4, 50, 103
1, 4020, Note_on_c, 4, 54, 115
1, 4020, Lyric_t, "ded "
1, 4049, Note_off_c, 4, 54, 64
1, 4049, Note_off_c, 0, 66, 64
1, 4049, Note_off_c, 0, 62, 64
1, 4049, Note_off_c, 0, 71, 64
1, 4049, Note_off_c, 4, 50, 64
1, 4050, Note_on_c, 0, 59, 51
1, 4050, Note_on_c, 0, 62, 85
1, 4050, Note_on_c, 0, 66, 59
1, 4050, Note_on_c, 4, 47, 92
1, 4050, Note_on_c, 4, 52, 98
1, 4079, Note_off_c, 4, 52, 64
1, 4079, Note_off_c, 0, 59, 64
1, 4079, Note_off_c, 0, 62, 64
1, 4079, Note_off_c, 3, 59, 64
1, 4079, Note_off_c, 4, 47, 64
1, 4079, Note_off_c, 0, 66, 64
1, 4080, Note_on_c, 0, 55, 74
1, 4080, Note_on_c, 0, 59, 94
1, 4080, Note_on_c, 0, 62, 91
1, 4080, Note_on_c, 3, 59, 111
1, 4080, Note_on_c, 4, 43, 98
1, 4080, Note_on_c, 4, 50, 116
1, 4080, Lyric_t, "by "
1, 4126, Control_c, 0, 74, 37
1, 4126, Control_c, 4, 74, 37
1, 4139, Note_off_c, 4, 50, 64
1, 4139, Note_off_c, 0, 59, 64
1, 4139, Note_off_c, 0, 62, 64
1, 4139, Note_off_c, 0, 55, 64
1, 4139, Note_off_c, 4, 43, 64
1, 4139, Note_off_c, 3, 59, 64
1, 4140, Note_on_c, 0, 59, 70
1, 4140, Note_on_c, 0, 62, 94
1, 4140, Note_on_c, 0, 67, 101
1, 4140, Note_on_c, 3, 57, 100
1, 4140, Note_on_c, 4, 50, 79
1, 4140, Note_on_c, 4, 55, 111
1, 4140, Note_on_c, 4, 59, 100
1, 4140, Lyric_t, "a "
1, 4199, Note_off_c, 3, 57, 64
1, 4200, Note_on_c, 3, 57, 109
1, 4200, Lyric_t, "bea"
1, 4229, Note_off_c, 4, 55, 64
1, 4229, Note_off_c, 4, 50, 64
1, 4229, Note_off_c, 0, 62, 64
1, 4229, Note_off_c, 0, 67, 64
1, 4229, Note_off_c, 0, 59, 64
1, 4229, Note_off_c, 4, 59, 64
1, 4230, Note_on_c, 0, 59, 52
1, 4230, Note_on_c, 0, 62, 85
1, 4230, Note_on_c, 0, 67, 94
1, 4230, Note_on_c, 4, 50, 82
1, 4230, Note_on_c, 4, 55, 98
1, 4230, Note_on_c, 4, 59, 85
1, 4259, Note_off_c, 4, 59, 64
1, 4259, Note_off_c, 4, 50, 64
1, 4259, Note_off_c, 0, 59, 64
1, 4259, Note_off_c, 0, 62, 64
1, 4259, Note_off_c, 3, 57, 64
1, 4259, Note_off_c, 4, 55, 64
1, 4259, Note_off_c, 0, 67, 64
1, 4260, Note_on_c, 0, 62, 78
1, 4260, Note_on_c, 0, 67, 100
1, 4260, Note_on_c, 0, 71, 46
1, 4260, Note_on_c, 3, 54, 89
1, 4260, Note_on_c, 4, 43, 109
1, 4260, Note_on_c, 4, 50, 109
1, 4260, Lyric_t, "ting "
1, 4282, Control_c, 0, 74, 38
1, 4282, Control_c, 4, 74, 38
1, 4289, Note_off_c, 4, 50, 64
1, 4289, Note_off_c, 0, 67, 64
1, 4289, Note_off_c, 0, 71, 64
1, 4289, Note_off_c, 0, 62, 64
1, 4289, Note_off_c, 4, 43, 64
1, 4289, Note_off_c, 3, 54, 64
1, 4290, Note_on_c, 0, 59, 45
1, 4290, Note_on_c, 0, 62, 73
1, 4290, Note_on_c, 0, 67, 86
1, 4290, Note_on_c, 4, 43, 101
1, 4290, Note_on_c, 4, 52, 116
1, 4319, Note_off_c, 4, 52, 64
1, 4319, Note_off_c, 0, 67, 64
1, 4319, Note_off_c, 0, 59, 64
1, 4319, Note_off_c, 0, 62, 64
1, 4319, Note_off_c, 4, 43, 64
1, 4320, Note_on_c, 0, 54, 35
1, 4320, Note_on_c, 0, 57, 85
1, 4320, Note_on_c, 0, 62, 79
1, 4320, Note_on_c, 3, 57, 107
1, 4320, Note_on_c, 4, 45, 90
1, 4320, Note_on_c, 4, 50, 105
1, 4320, Lyric_t, "heart "
1, 4320, Lyric_t, "\015"
1, 4379, Note_off_c, 4, 50, 64
1, 4379, Note_off_c, 0, 57, 64
1, 4379, Note_off_c, 0, 54, 64
1, 4379, Note_off_c, 0, 62, 64
1, 4379, Note_off_c, 4, 45, 64
1, 4380, Note_on_c, 0, 57, 69
1, 4380, Note_on_c, 0, 62, 98
1, 4380, Note_on_c, 0, 66, 74
1, 4380, Note_on_c, 4, 45, 100
1, 4380, Note_on_c, 4, 50, 111
1, 4380, Note_on_c, 4, 54, 89
1, 4409, Note_off_c, 3, 57, 64
1, 4439, Control_c, 0, 74, 39
1, 4439, Control_c, 4, 74, 39
1, 4469, Note_off_c, 4, 50, 64
1, 4469, Note_off_c, 0, 62, 64
1, 4469, Note_off_c, 0, 66, 64
1, 4469, Note_off_c, 0, 57, 64
1, 4469, Note_off_c, 4, 54, 64
1, 4469, Note_off_c, 4, 45, 64
1, 4470, Note_on_c, 0, 54, 44
1, 4470, Note_on_c, 0, 57, 78
1, 4470, Note_on_c, 0, 62, 58
1, 4470, Note_on_c, 4, 45, 85
1, 4470, Note_on_c, 4, 50, 105
1, 4470, Note_on_c, 4, 54, 81
1, 4499, Note_off_c, 4, 54, 64
1, 4499, Note_off_c, 0, 57, 64
1, 4499, Note_off_c, 0, 62, 64
1, 4499, Note_off_c, 0, 54, 64
1, 4499, Note_off_c, 4, 50, 64
1, 4499, Note_off_c, 4, 45, 64
1, 4500, Note_on_c, 0, 57, 57
1, 4500, Note_on_c, 0, 62, 91
1, 4500, Note_on_c, 0, 66, 77
1, 4500, Note_on_c, 4, 50, 109
1, 4500, Note_on_c, 4, 54, 89
1, 4500, Note_on_c, 4, 57, 109
1, 4529, Note_off_c, 4, 57, 64
1, 4529, Note_off_c, 0, 62, 64
1, 4529, Note_off_c, 0, 66, 64
1, 4529, Note_off_c, 0, 57, 64
1, 4529, Note_off_c, 4, 54, 64
1, 4529, Note_off_c, 4, 50, 64
1, 4530, Note_on_c, 0, 54, 35
1, 4530, Note_on_c, 0, 57, 79
1, 4530, Note_on_c, 0, 62, 56
1, 4530, Note_on_c, 4, 50, 111
1, 4530, Note_on_c, 4, 54, 100
1, 4530, Note_on_c, 4, 57, 100
1, 4559, Note_off_c, 4, 57, 64
1, 4559, Note_off_c, 0, 57, 64
1, 4559, Note_off_c, 0, 62, 64
1, 4559, Note_off_c, 0, 54, 64
1, 4559, Note_off_c, 4, 54, 64
1, 4559, Note_off_c, 4, 50, 64
1, 4560, Note_on_c, 0, 54, 35
1, 4560, Note_on_c, 0, 57, 85
1, 4560, Note_on_c, 0, 62, 79
1, 4560, Note_on_c, 4, 45, 90
1, 4560, Note_on_c, 4, 50, 105
1, 4595, Control_c, 0, 74, 40
1, 4595, Control_c, 4, 74, 40
1, 4619, Note_off_c, 4, 50, 64
1, 4619, Note_off_c, 0, 62, 64
1, 4619, Note_off_c, 0, 54, 64
1, 4619, Note_off_c, 0, 57, 64
1, 4619, Note_off_c, 4, 45, 64
1, 4620, Note_on_c, 0, 57, 69
1, 4620, Note_on_c, 0, 62, 98
1, 4620, Note_on_c, 0, 66, 74
1, 4620, Note_on_c, 4, 45, 100
1, 4620, Note_on_c, 4, 50, 111
1, 4620, Note_on_c, 4, 54, 89
1, 4709, Note_off_c, 4, 54, 64
1, 4709, Note_off_c, 0, 62, 64
1, 4709, Note_off_c, 0, 66, 64
1, 4709, Note_off_c, 0, 57, 64
1, 4709, Note_off_c, 4, 50, 64
1, 4709, Note_off_c, 4, 45, 64
1, 4710, Note_on_c, 0, 54, 44
1, 4710, Note_on_c, 0, 57, 78
1, 4710, Note_on_c, 0, 62, 58
1, 4710, Note_on_c, 4, 45, 85
1, 4710, Note_on_c, 4, 50, 105
1, 4710, Note_on_c, 4, 54, 81
1, 4739, Note_off_c, 4, 54, 64
1, 4739, Note_off_c, 0, 57, 64
1, 4739, Note_off_c, 0, 62, 64
1, 4739, Note_off_c, 0, 54, 64
1, 4739, Note_off_c, 4, 50, 64
1, 4739, Note_off_c, 4, 45, 64
1, 4740, Note_on_c, 0, 57, 57
1, 4740, Note_on_c, 0, 62, 91
1, 4740, Note_on_c, 0, 66, 77
1, 4740, Note_on_c, 4, 50, 109
1, 4740, Note_on_c, 4, 54, 89
1, 4740, Note_on_c, 4, 57, 109
1, 4751, Control_c, 0, 74, 41
1, 4751, Control_c, 4, 74, 41
1, 4769, Note_off_c, 4, 57, 64
1, 4769, Note_off_c, 0, 62, 64
1, 4769, Note_off_c, 0, 66, 64
1, 4769, Note_off_c, 0, 57, 64
1, 4769, Note_off_c, 4, 54, 64
1, 4769, Note_off_c, 4, 50, 64
1, 4770, Note_on_c, 0, 54, 35
1, 4770, Note_on_c, 0, 57, 79
1, 4770, Note_on_c, 0, 62, 56
1, 4770, Note_on_c, 4, 50, 111
1, 4770, Note_on_c, 4, 54, 100
1, 4770, Note_on_c, 4, 57, 100
1, 4799, Note_off_c, 4, 57, 64
1, 4799, Note_off_c, 0, 57, 64
1, 4799, Note_off_c, 0, 62, 64
1, 4799, Note_off_c, 0, 54, 64
1, 4799, Note_off_c, 4, 54, 64
1, 4799, Note_off_c, 4, 50, 64
1, 4800, Note_on_c, 0, 59, 58
1, 4800, Note_on_c, 0, 62, 91
1, 4800, Note_on_c, 4, 47, 85
1, 4800, Note_on_c, 4, 54, 120
1, 4859, Note_off_c, 4, 54, 64
1, 4859, Note_off_c, 0, 59, 64
1, 4859, Note_off_c, 0, 62, 64
1, 4859, Note_off_c, 4, 47, 64
1, 4860, Note_on_c, 0, 59, 79
1, 4860, Note_on_c, 0, 62, 95
1, 4860, Note_on_c, 0, 66, 74
1, 4860, Note_on_c, 4, 50, 92
1, 4860, Note_on_c, 4, 54, 87
1, 4860, Note_on_c, 4, 62, 95
1, 4907, Control_c, 0, 74, 42
1, 4907, Control_c, 4, 74, 42
1, 4920, Note_on_c, 3, 59, 107
1, 4920, Lyric_t, "I "
1, 4949, Note_off_c, 3, 59, 64
1, 4949, Note_off_c, 4, 54, 64
1, 4949, Note_off_c, 0, 62, 64
1, 4949, Note_off_c, 0, 66, 64
1, 4949, Note_off_c, 0, 59, 64
1, 4949, Note_off_c, 4, 62, 64
1, 4949, Note_off_c, 4, 50, 64
1, 4950, Note_on_c, 0, 59, 71
1, 4950, Note_on_c, 0, 62, 91
1, 4950, Note_on_c, 0, 66, 60
1, 4950, Note_on_c, 3, 59, 111
1, 4950, Note_on_c, 4, 54, 109
1, 4950, Note_on_c, 4, 59, 95
1, 4950, Lyric_t, "can't "
1, 4979, Note_off_c, 4, 59, 64
1, 4979, Note_off_c, 0, 62, 64
1, 4979, Note_off_c, 0, 59, 64
1, 4979, Note_off_c, 0, 66, 64
1, 4979, Note_off_c, 4, 54, 64
1, 4980, Note_on_c, 0, 62, 80
1, 4980, Note_on_c, 0, 66, 62
1, 4980, Note_on_c, 0, 71, 91
1, 4980, Note_on_c, 4, 50, 103
1, 4980, Note_on_c, 4, 54, 115
1, 5009, Note_off_c, 4, 54, 64
1, 5009, Note_off_c, 0, 62, 64
1, 5009, Note_off_c, 0, 66, 64
1, 5009, Note_off_c, 3, 59, 64
1, 5009, Note_off_c, 4, 50, 64
1, 5009, Note_off_c, 0, 71, 64
1, 5010, Note_on_c, 0, 59, 51
1, 5010, Note_on_c, 0, 62, 85
1, 5010, Note_on_c, 0, 66, 59
1, 5010, Note_on_c, 4, 47, 92
1, 5010, Note_on_c, 4, 52, 98
1, 5039, Note_off_c, 4, 52, 64
1, 5039, Note_off_c, 0, 66, 64
1, 5039, Note_off_c, 0, 59, 64
1, 5039, Note_off_c, 0, 62, 64
1, 5039, Note_off_c, 4, 47, 64
1, 5040, Note_on_c, 0, 55, 74
1, 5040, Note_on_c, 0, 59, 94
1, 5040, Note_on_c, 0, 62, 91
1, 5040, Note_on_c, 3, 59, 111
1, 5040, Note_on_c, 4, 43, 98
1, 5040, Note_on_c, 4, 50, 116
1, 5040, Lyric_t, "tell "
1, 5064, Control_c, 0, 74, 43
1, 5064, Control_c, 4, 74, 43
1, 5099, Note_off_c, 4, 50, 64
1, 5099, Note_off_c, 0, 59, 64
1, 5099, Note_off_c, 0, 55, 64
1, 5099, Note_off_c, 0, 62, 64
1, 5099, Note_off_c, 4, 43, 64
1, 5100, Note_on_c, 0, 59, 70
1, 5100, Note_on_c, 0, 62, 94
1, 5100, Note_on_c, 0, 67, 101
1, 5100, Note_on_c, 4, 50, 79
1, 5100, Note_on_c, 4, 55, 111
1, 5100, Note_on_c, 4, 59, 100
1, 5129, Note_off_c, 3, 59, 64
1, 5160, Note_on_c, 3, 57, 98
1, 5160, Lyric_t, "where "
1, 5160, Lyric_t, "\015"
1, 5189, Note_off_c, 4, 55, 64
1, 5189, Note_off_c, 4, 50, 64
1, 5189, Note_off_c, 0, 62, 64
1, 5189, Note_off_c, 0, 67, 64
1, 5189, Note_off_c, 0, 59, 64
1, 5189, Note_off_c, 4, 59, 64
1, 5190, Note_on_c, 0, 59, 52
1, 5190, Note_on_c, 0, 62, 85
1, 5190, Note_on_c, 0, 67, 94
1, 5190, Note_on_c, 4, 50, 82
1, 5190, Note_on_c, 4, 55, 98
1, 5190, Note_on_c, 4, 59, 85
1, 5219, Note_off_c, 4, 59, 64
1, 5219, Note_off_c, 4, 50, 64
1, 5219, Note_off_c, 0, 59, 64
1, 5219, Note_off_c, 0, 62, 64
1, 5219, Note_off_c, 3, 57, 64
1, 5219, Note_off_c, 4, 55, 64
1, 5219, Note_off_c, 0, 67, 64
1, 5220, Control_c, 0, 74, 44
1, 5220, Note_on_c, 0, 62, 78
1, 5220, Note_on_c, 0, 67, 100
1, 5220, Note_on_c, 0, 71, 46
1, 5220, Control_c, 4, 74, 44
1, 5220, Note_on_c, 4, 43, 109
1, 5220, Note_on_c, 4, 50, 109
1, 5249, Note_off_c, 4, 50, 64
1, 5249, Note_off_c, 0, 71, 64
1, 5249, Note_off_c, 0, 62, 64
1, 5249, Note_off_c, 0, 67, 64
1, 5249, Note_off_c, 4, 43, 64
1, 5250, Note_on_c, 0, 59, 45
1, 5250, Note_on_c, 0, 62, 73
1, 5250, Note_on_c, 0, 67, 86
1, 5250, Note_on_c, 3, 54, 109
1, 5250, Note_on_c, 4, 43, 101
1, 5250, Note_on_c, 4, 52, 116
1, 5250, Lyric_t, "the "
1, 5279, Note_off_c, 4, 52, 64
1, 5279, Note_off_c, 0, 62, 64
1, 5279, Note_off_c, 0, 67, 64
1, 5279, Note_off_c, 0, 59, 64
1, 5279, Note_off_c, 4, 43, 64
1, 5279, Note_off_c, 3, 54, 64
1, 5280, Note_on_c, 0, 54, 35
1, 5280, Note_on_c, 0, 57, 85
1, 5280, Note_on_c, 0, 62, 79
1, 5280, Note_on_c, 3, 57, 111
1, 5280, Note_on_c, 4, 45, 90
1, 5280, Note_on_c, 4, 50, 105
1, 5280, Lyric_t, "jour"
1, 5339, Note_off_c, 4, 50, 64
1, 5339, Note_off_c, 0, 57, 64
1, 5339, Note_off_c, 0, 54, 64
1, 5339, Note_off_c, 0, 62, 64
1, 5339, Note_off_c, 4, 45, 64
1, 5340, Note_on_c, 0, 57, 69
1, 5340, Note_on_c, 0, 62, 98
1, 5340, Note_on_c, 0, 66, 74
1, 5340, Note_on_c, 4, 45, 100
1, 5340, Note_on_c, 4, 50, 111
1, 5340, Note_on_c, 4, 54, 89
1, 5376, Control_c, 0, 74, 45
1, 5376, Control_c, 4, 74, 45
1, 5399, Note_off_c, 3, 57, 64
1, 5400, Note_on_c, 3, 54, 111
1, 5400, Lyric_t, "ney "
1, 5429, Note_off_c, 4, 50, 64
1, 5429, Note_off_c, 4, 45, 64
1, 5429, Note_off_c, 0, 62, 64
1, 5429, Note_off_c, 0, 66, 64
1, 5429, Note_off_c, 0, 57, 64
1, 5429, Note_off_c, 4, 54, 64
1, 5430, Note_on_c, 0, 54, 44
1, 5430, Note_on_c, 0, 57, 78
1, 5430, Note_on_c, 0, 62, 58
1, 5430, Note_on_c, 4, 45, 85
1, 5430, Note_on_c, 4, 50, 105
1, 5430, Note_on_c, 4, 54, 81
1, 5459, Note_off_c, 4, 54, 64
1, 5459, Note_off_c, 4, 45, 64
1, 5459, Note_off_c, 0, 54, 64
1, 5459, Note_off_c, 0, 57, 64
1, 5459, Note_off_c, 0, 62, 64
1, 5459, Note_off_c, 4, 50, 64
1, 5460, Note_on_c, 0, 57, 57
1, 5460, Note_on_c, 0, 62, 91
1, 5460, Note_on_c, 0, 66, 77
1, 5460, Note_on_c, 4, 50, 109
1, 5460, Note_on_c, 4, 54, 89
1, 5460, Note_on_c, 4, 57, 109
1, 5489, Note_off_c, 4, 57, 64
1, 5489, Note_off_c, 4, 50, 64
1, 5489, Note_off_c, 0, 57, 64
1, 5489, Note_off_c, 0, 62, 64
1, 5489, Note_off_c, 3, 54, 64
1, 5489, Note_off_c, 4, 54, 64
1, 5489, Note_off_c, 0, 66, 64
1, 5490, Note_on_c, 0, 54, 35
1, 5490, Note_on_c, 0, 57, 79
1, 5490, Note_on_c, 0, 62, 56
1, 5490, Note_on_c, 3, 52, 91
1, 5490, Note_on_c, 4, 50, 111
1, 5490, Note_on_c, 4, 54, 100
1, 5490, Note_on_c, 4, 57, 100
1, 5490, Lyric_t, "will "
1, 5519, Note_off_c, 4, 57, 64
1, 5519, Note_off_c, 4, 50, 64
1, 5519, Note_off_c, 0, 57, 64
1, 5519, Note_off_c, 0, 62, 64
1, 5519, Note_off_c, 0, 54, 64
1, 5519, Note_off_c, 4, 54, 64
1, 5519, Note_off_c, 3, 52, 64
1, 5520, Note_on_c, 0, 54, 35
1, 5520, Note_on_c, 0, 57, 85
1, 5520, Note_on_c, 0, 62, 79
1, 5520, Note_on_c, 3, 50, 116
1, 5520, Note_on_c, 4, 45, 90
1, 5520, Note_on_c, 4, 50, 105
1, 5520, Lyric_t, "end "
1, 5520, Lyric_t, "\015"
1, 5532, Control_c, 0, 74, 46
1, 5532, Control_c, 4, 74, 46
1, 5579, Note_off_c, 4, 50, 64
1, 5579, Note_off_c, 0, 57, 64
1, 5579, Note_off_c, 0, 54, 64
1, 5579, Note_off_c, 0, 62, 64
1, 5579, Note_off_c, 4, 45, 64
1, 5580, Note_on_c, 0, 57, 69
1, 5580, Note_on_c, 0, 62, 98
1, 5580, Note_on_c, 0, 66, 74
1, 5580, Note_on_c, 4, 45, 100
1, 5580, Note_on_c, 4, 50, 111
1, 5580, Note_on_c, 4, 54, 89
1, 5639, Note_off_c, 3, 50, 64
1, 5669, Note_off_c, 4, 50, 64
1, 5669, Note_off_c, 0, 62, 64
1, 5669, Note_off_c, 0, 66, 64
1, 5669, Note_off_c, 0, 57, 64
1, 5669, Note_off_c, 4, 54, 64
1, 5669, Note_off_c, 4, 45, 64
1, 5670, Note_on_c, 0, 54, 44
1, 5670, Note_on_c, 0, 57, 78
1, 5670, Note_on_c, 0, 62, 58
1, 5670, Note_on_c, 4, 45, 85
1, 5670, Note_on_c, 4, 50, 105
1, 5670, Note_on_c, 4, 54, 81
1, 5689, Control_c, 0, 74, 47
1, 5689, Control_c, 4, 74, 47
1, 5699, Note_off_c, 4, 54, 64
1, 5699, Note_off_c, 0, 57, 64
1, 5699, Note_off_c, 0, 62, 64
1, 5699, Note_off_c, 0, 54, 64
1, 5699, Note_off_c, 4, 50, 64
1, 5699, Note_off_c, 4, 45, 64
1, 5700, Note_on_c, 0, 57, 57
1, 5700, Note_on_c, 0, 62, 91
1, 5700, Note_on_c, 0, 66, 77
1, 5700, Note_on_c, 4, 50, 109
1, 5700, Note_on_c, 4, 54, 89
1, 5700, Note_on_c, 4, 57, 109
1, 5729, Note_off_c, 4, 57, 64
1, 5729, Note_off_c, 0, 62, 64
1, 5729, Note_off_c, 0, 66, 64
1, 5729, Note_off_c, 0, 57, 64
1, 5729, Note_off_c, 4, 54, 64
1, 5729, Note_off_c, 4, 50, 64
1, 5730, Note_on_c, 0, 54, 35
1, 5730, Note_on_c, 0, 57, 79
1, 5730, Note_on_c, 0, 62, 56
1, 5730, Note_on_c, 4, 50, 111
1, 5730, Note_on_c, 4, 54, 100
1, 5730, Note_on_c, 4, 57, 100
1, 5759, Note_off_c, 4, 57, 64
1, 5759, Note_off_c, 0, 57, 64
1, 5759, Note_off_c, 0, 62, 64
1, 5759, Note_off_c, 0, 54, 64
1, 5759, Note_off_c, 4, 54, 64
1, 5759, Note_off_c, 4, 50, 64
1, 5760, Note_on_c, 0, 59, 58
1, 5760, Note_on_c, 0, 62, 91
1, 5760, Note_on_c, 4, 47, 85
1, 5760, Note_on_c, 4, 54, 120
1, 5819, Note_off_c, 4, 54, 64
1, 5819, Note_off_c, 0, 59, 64
1, 5819, Note_off_c, 0, 62, 64
1, 5819, Note_off_c, 4, 47, 64
1, 5820, Note_on_c, 0, 59, 79
1, 5820, Note_on_c, 0, 62, 95
1, 5820, Note_on_c, 0, 66, 74
1, 5820, Note_on_c, 4, 50, 92
1, 5820, Note_on_c, 4, 54, 87
1, 5820, Note_on_c, 4, 62, 95
1, 5845, Control_c, 0, 74, 48
1, 5845, Control_c, 4, 74, 48
1, 5909, Note_off_c, 4, 62, 64
1, 5909, Note_off_c, 0, 62, 64
1, 5909, Note_off_c, 0, 66, 64
1, 5909, Note_off_c, 0, 59, 64
1, 5909, Note_off_c, 4, 54, 64
1, 5909, Note_off_c, 4, 50, 64
1, 5910, Note_on_c, 0, 59, 71
1, 5910, Note_on_c, 0, 62, 91
1, 5910, Note_on_c, 0, 66, 60
1, 5910, Note_on_c, 3, 52, 101
1, 5910, Note_on_c, 4, 54, 109
1, 5910, Note_on_c, 4, 59, 95
1, 5910, Lyric_t, "But "
1, 5939, Note_off_c, 4, 59, 64
1, 5939, Note_off_c, 0, 62, 64
1, 5939, Note_off_c, 0, 66, 64
1, 5939, Note_off_c, 0, 59, 64
1, 5939, Note_off_c, 4, 54, 64
1, 5939, Note_off_c, 3, 52, 64
1, 5940, Note_on_c, 0, 62, 80
1, 5940, Note_on_c, 0, 66, 62
1, 5940, Note_on_c, 0, 71, 91
1, 5940, Note_on_c, 3, 54, 120
1, 5940, Note_on_c, 4, 50, 103
1, 5940, Note_on_c, 4, 54, 115
1, 5940, Lyric_t, "I "
1, 5969, Note_off_c, 4, 54, 64
1, 5969, Note_off_c, 0, 66, 64
1, 5969, Note_off_c, 0, 62, 64
1, 5969, Note_off_c, 0, 71, 64
1, 5969, Note_off_c, 4, 50, 64
1, 5970, Note_on_c, 0, 59, 51
1, 5970, Note_on_c, 0, 62, 85
1, 5970, Note_on_c, 0, 66, 59
1, 5970, Note_on_c, 4, 47, 92
1, 5970, Note_on_c, 4, 52, 98
1, 5999, Note_off_c, 4, 52, 64
1, 5999, Note_off_c, 0, 59, 64
1, 5999, Note_off_c, 0, 62, 64
1, 5999, Note_off_c, 3, 54, 64
1, 5999, Note_off_c, 4, 47, 64
1, 5999, Note_off_c, 0, 66, 64
1, 6000, Note_on_c, 0, 55, 74
1, 6000, Note_on_c, 0, 59, 94
1, 6000, Note_on_c, 0, 62, 91
1, 6000, Note_on_c, 3, 55, 118
1, 6000, Note_on_c, 4, 43, 98
1, 6000, Note_on_c, 4, 50, 116
1, 6000, Lyric_t, "know "
1, 6001, Control_c, 0, 74, 49
1, 6001, Control_c, 4, 74, 49
1, 6059, Note_off_c, 4, 50, 64
1, 6059, Note_off_c, 0, 59, 64
1, 6059, Note_off_c, 0, 55, 64
1, 6059, Note_off_c, 0, 62, 64
1, 6059, Note_off_c, 4, 43, 64
1, 6060, Note_on_c, 0, 59, 70
1, 6060, Note_on_c, 0, 62, 94
1, 6060, Note_on_c, 0, 67, 101
1, 6060, Note_on_c, 4, 50, 79
1, 6060, Note_on_c, 4, 55, 111
1, 6060, Note_on_c, 4, 59, 100
1, 6119, Note_off_c, 3, 55, 64
1, 6120, Note_on_c, 3, 57, 101
1, 6120, Lyric_t, "where "
1, 6149, Note_off_c, 4, 55, 64
1, 6149, Note_off_c, 4, 50, 64
1, 6149, Note_off_c, 0, 62, 64
1, 6149, Note_off_c, 0, 67, 64
1, 6149, Note_off_c, 0, 59, 64
1, 6149, Note_off_c, 4, 59, 64
1, 6150, Note_on_c, 0, 59, 52
1, 6150, Note_on_c, 0, 62, 85
1, 6150, Note_on_c, 0, 67, 94
1, 6150, Note_on_c, 4, 50, 82
1, 6150, Note_on_c, 4, 55, 98
1, 6150, Note_on_c, 4, 59, 85
1, 6157, Control_c, 0, 74, 50
1, 6157, Control_c, 4, 74, 50
1, 6179, Note_off_c, 4, 59, 64
1, 6179, Note_off_c, 4, 50, 64
1, 6179, Note_off_c, 0, 59, 64
1, 6179, Note_off_c, 0, 62, 64
1, 6179, Note_off_c, 0, 67, 64
1, 6179, Note_off_c, 4, 55, 64
1, 6180, Note_on_c, 0, 62, 78
1, 6180, Note_on_c, 0, 67, 100
1, 6180, Note_on_c, 0, 71, 46
1, 6180, Note_on_c, 4, 43, 109
1, 6180, Note_on_c, 4, 50, 109
1, 6209, Note_off_c, 4, 50, 64
1, 6209, Note_off_c, 0, 62, 64
1, 6209, Note_off_c, 0, 67, 64
1, 6209, Note_off_c, 3, 57, 64
1, 6209, Note_off_c, 4, 43, 64
1, 6209, Note_off_c, 0, 71, 64
1, 6210, Note_on_c, 0, 59, 45
1, 6210, Note_on_c, 0, 62, 73
1, 6210, Note_on_c, 0, 67, 86
1, 6210, Note_on_c, 3, 57, 101
1, 6210, Note_on_c, 4, 43, 101
1, 6210, Note_on_c, 4, 52, 116
1, 6210, Lyric_t, "it "
1, 6239, Note_off_c, 4, 52, 64
1, 6239, Note_off_c, 0, 62, 64
1, 6239, Note_off_c, 0, 67, 64
1, 6239, Note_off_c, 0, 59, 64
1, 6239, Note_off_c, 4, 43, 64
1, 6239, Note_off_c, 3, 57, 64
1, 6240, Note_on_c, 0, 54, 35
1, 6240, Note_on_c, 0, 57, 85
1, 6240, Note_on_c, 0, 62, 79
1, 6240, Note_on_c, 3, 50, 113
1, 6240, Note_on_c, 4, 45, 90
1, 6240, Note_on_c, 4, 50, 105
1, 6240, Lyric_t, "starts "
1, 6240, Lyric_t, "\015"
1, 6299, Note_off_c, 4, 50, 64
1, 6299, Note_off_c, 0, 57, 64
1, 6299, Note_off_c, 0, 54, 64
1, 6299, Note_off_c, 0, 62, 64
1, 6299, Note_off_c, 4, 45, 64
1, 6300, Note_on_c, 0, 57, 69
1, 6300, Note_on_c, 0, 62, 98
1, 6300, Note_on_c, 0, 66, 74
1, 6300, Note_on_c, 4, 45, 100
1, 6300, Note_on_c, 4, 50, 111
1, 6300, Note_on_c, 4, 54, 89
1, 6314, Control_c, 0, 74, 51
1, 6314, Control_c, 4, 74, 51
1, 6359, Note_off_c, 3, 50, 64
1, 6389, Note_off_c, 4, 50, 64
1, 6389, Note_off_c, 0, 62, 64
1, 6389, Note_off_c, 0, 66, 64
1, 6389, Note_off_c, 0, 57, 64
1, 6389, Note_off_c, 4, 54, 64
1, 6389, Note_off_c, 4, 45, 64
1, 6390, Note_on_c, 0, 54, 44
1, 6390, Note_on_c, 0, 57, 78
1, 6390, Note_on_c, 0, 62, 58
1, 6390, Note_on_c, 4, 45, 85
1, 6390, Note_on_c, 4, 50, 105
1, 6390, Note_on_c, 4, 54, 81
1, 6419, Note_off_c, 4, 54, 64
1, 6419, Note_off_c, 0, 57, 64
1, 6419, Note_off_c, 0, 62, 64
1, 6419, Note_off_c, 0, 54, 64
1, 6419, Note_off_c, 4, 50, 64
1, 6419, Note_off_c, 4, 45, 64
1, 6420, Note_on_c, 0, 57, 57
1, 6420, Note_on_c, 0, 62, 91
1, 6420, Note_on_c, 0, 66, 77
1, 6420, Note_on_c, 4, 50, 109
1, 6420, Note_on_c, 4, 54, 89
1, 6420, Note_on_c, 4, 57, 109
1, 6449, Note_off_c, 4, 57, 64
1, 6449, Note_off_c, 0, 62, 64
1, 6449, Note_off_c, 0, 66, 64
1, 6449, Note_off_c, 0, 57, 64
1, 6449, Note_off_c, 4, 54, 64
1, 6449, Note_off_c, 4, 50, 64
1, 6450, Note_on_c, 0, 54, 35
1, 6450, Note_on_c, 0, 57, 79
1, 6450, Note_on_c, 0, 62, 56
1, 6450, Note_on_c, 4, 50, 111
1, 6450, Note_on_c, 4, 54, 100
1, 6450, Note_on_c, 4, 57, 100
1, 6470, Control_c, 0, 74, 52
1, 6470, Control_c, 4, 74, 52
1, 6479, Note_off_c, 4, 57, 64
1, 6479, Note_off_c, 0, 57, 64
1, 6479, Note_off_c, 0, 62, 64
1, 6479, Note_off_c, 0, 54, 64
1, 6479, Note_off_c, 4, 54, 64
1, 6479, Note_off_c, 4, 50, 64
1, 6480, Note_on_c, 0, 54, 35
1, 6480, Note_on_c, 0, 57, 85
1, 6480, Note_on_c, 0, 62, 79
1, 6480, Note_on_c, 4, 45, 90
1, 6480, Note_on_c, 4, 50, 105
1, 6539, Note_off_c, 4, 50, 64
1, 6539, Note_off_c, 0, 62, 64
1, 6539, Note_off_c, 0, 54, 64
1, 6539, Note_off_c, 0, 57, 64
1, 6539, Note_off_c, 4, 45, 64
1, 6540, Note_on_c, 0, 57, 69
1, 6540, Note_on_c, 0, 62, 98
1, 6540, Note_on_c, 0, 66, 74
1, 6540, Note_on_c, 4, 45, 100
1, 6540, Note_on_c, 4, 50, 111
1, 6540, Note_on_c, 4, 54, 89
1, 6626, Control_c, 0, 74, 53
1, 6626, Control_c, 4, 74, 53
1, 6629, Note_off_c, 4, 54, 64
1, 6629, Note_off_c, 0, 62, 64
1, 6629, Note_off_c, 0, 66, 64
1, 6629, Note_off_c, 0, 57, 64
1, 6629, Note_off_c, 4, 50, 64
1, 6629, Note_off_c, 4, 45, 64
1, 6630, Note_on_c, 0, 54, 44
1, 6630, Note_on_c, 0, 57, 78
1, 6630, Note_on_c, 0, 62, 58
1, 6630, Note_on_c, 4, 45, 85
1, 6630, Note_on_c, 4, 50, 105
1, 6630, Note_on_c, 4, 54, 81
1, 6659, Note_off_c, 4, 54, 64
1, 6659, Note_off_c, 0, 57, 64
1, 6659, Note_off_c, 0, 62, 64
1, 6659, Note_off_c, 0, 54, 64
1, 6659, Note_off_c, 4, 50, 64
1, 6659, Note_off_c, 4, 45, 64
1, 6660, Note_on_c, 0, 57, 57
1, 6660, Note_on_c, 0, 62, 91
1, 6660, Note_on_c, 0, 66, 77
1, 6660, Note_on_c, 4, 50, 109
1, 6660, Note_on_c, 4, 54, 89
1, 6660, Note_on_c, 4, 57, 109
1, 6689, Note_off_c, 4, 57, 64
1, 6689, Note_off_c, 0, 62, 64
1, 6689, Note_off_c, 0, 66, 64
1, 6689, Note_off_c, 0, 57, 64
1, 6689, Note_off_c, 4, 54, 64
1, 6689, Note_off_c, 4, 50, 64
1, 6690, Note_on_c, 0, 54, 35
1, 6690, Note_on_c, 0, 57, 79
1, 6690, Note_on_c, 0, 62, 56
1, 6690, Note_on_c, 4, 50, 111
1, 6690, Note_on_c, 4, 54, 100
1, 6690, Note_on_c, 4, 57, 100
1, 6719, Note_off_c, 4, 57, 64
1, 6719, Note_off_c, 0, 57, 64
1, 6719, Note_off_c, 0, 62, 64
1, 6719, Note_off_c, 0, 54, 64
1, 6719, Note_off_c, 4, 54, 64
1, 6719, Note_off_c, 4, 50, 64
1, 6720, Note_on_c, 0, 59, 58
1, 6720, Note_on_c, 0, 62, 91
1, 6720, Note_on_c, 4, 47, 85
1, 6720, Note_on_c, 4, 54, 120
1, 6779, Note_off_c, 4, 54, 64
1, 6779, Note_off_c, 0, 59, 64
1, 6779, Note_off_c, 0, 62, 64
1, 6779, Note_off_c, 4, 47, 64
1, 6780, Note_on_c, 0, 59, 79
1, 6780, Note_on_c, 0, 62, 95
1, 6780, Note_on_c, 0, 66, 74
1, 6780, Note_on_c, 4, 50, 92
1, 6780, Note_on_c, 4, 54, 87
1, 6780, Note_on_c, 4, 62, 95
1, 6782, Control_c, 0, 74, 54
1, 6782, Control_c, 4, 74, 54
1, 6810, Note_on_c, 3, 50, 100
1, 6810, Lyric_t, "They "
1, 6839, Note_off_c, 3, 50, 64
1, 6840, Note_on_c, 3, 59, 111
1, 6840, Lyric_t, "tell "
1, 6869, Note_off_c, 3, 59, 64
1, 6869, Note_off_c, 4, 62, 64
1, 6869, Note_off_c, 0, 62, 64
1, 6869, Note_off_c, 0, 66, 64
1, 6869, Note_off_c, 0, 59, 64
1, 6869, Note_off_c, 4, 54, 64
1, 6869, Note_off_c, 4, 50, 64
1, 6870, Note_on_c, 0, 59, 71
1, 6870, Note_on_c, 0, 62, 91
1, 6870, Note_on_c, 0, 66, 60
1, 6870, Note_on_c, 4, 54, 109
1, 6870, Note_on_c, 4, 59, 95
1, 6899, Note_off_c, 4, 59, 64
1, 6899, Note_off_c, 0, 66, 64
1, 6899, Note_off_c, 0, 59, 64
1, 6899, Note_off_c, 0, 62, 64
1, 6899, Note_off_c, 4, 54, 64
1, 6900, Note_on_c, 0, 62, 80
1, 6900, Note_on_c, 0, 66, 62
1, 6900, Note_on_c, 0, 71, 91
1, 6900, Note_on_c, 3, 59, 107
1, 6900, Note_on_c, 4, 50, 103
1, 6900, Note_on_c, 4, 54, 115
1, 6900, Lyric_t, "me "
1, 6900, Lyric_t, "\015"
1, 6929, Note_off_c, 4, 54, 64
1, 6929, Note_off_c, 0, 66, 64
1, 6929, Note_off_c, 0, 71, 64
1, 6929, Note_off_c, 0, 62, 64
1, 6929, Note_off_c, 4, 50, 64
1, 6929, Note_off_c, 3, 59, 64
1, 6930, Note_on_c, 0, 59, 51
1, 6930, Note_on_c, 0, 62, 85
1, 6930, Note_on_c, 0, 66, 59
1, 6930, Note_on_c, 3, 57, 116
1, 6930, Note_on_c, 4, 47, 92
1, 6930, Note_on_c, 4, 52, 98
1, 6930, Lyric_t, "I'm "
1, 6939, Control_c, 0, 74, 55
1, 6939, Control_c, 4, 74, 55
1, 6959, Note_off_c, 4, 52, 64
1, 6959, Note_off_c, 0, 62, 64
1, 6959, Note_off_c, 0, 59, 64
1, 6959, Note_off_c, 0, 66, 64
1, 6959, Note_off_c, 4, 47, 64
1, 6960, Note_on_c, 0, 55, 74
1, 6960, Note_on_c, 0, 59, 94
1, 6960, Note_on_c, 0, 62, 91
1, 6960, Note_on_c, 4, 43, 98
1, 6960, Note_on_c, 4, 50, 116
1, 7019, Note_off_c, 4, 50, 64
1, 7019, Note_off_c, 0, 55, 64
1, 7019, Note_off_c, 0, 59, 64
1, 7019, Note_off_c, 0, 62, 64
1, 7019, Note_off_c, 4, 43, 64
1, 7020, Note_on_c, 0, 59, 70
1, 7020, Note_on_c, 0, 62, 94
1, 7020, Note_on_c, 0, 67, 101
1, 7020, Note_on_c, 4, 50, 79
1, 7020, Note_on_c, 4, 55, 111
1, 7020, Note_on_c, 4, 59, 100
1, 7049, Note_off_c, 3, 57, 64
1, 7080, Note_on_c, 3, 57, 111
1, 7080, Lyric_t, "to"
1, 7095, Control_c, 0, 74, 56
1, 7095, Control_c, 4, 74, 56
1, 7109, Note_off_c, 4, 55, 64
1, 7109, Note_off_c, 4, 50, 64
1, 7109, Note_off_c, 0, 62, 64
1, 7109, Note_off_c, 0, 67, 64
1, 7109, Note_off_c, 0, 59, 64
1, 7109, Note_off_c, 4, 59, 64
1, 7110, Note_on_c, 0, 59, 52
1, 7110, Note_on_c, 0, 62, 85
1, 7110, Note_on_c, 0, 67, 94
1, 7110, Note_on_c, 4, 50, 82
1, 7110, Note_on_c, 4, 55, 98
1, 7110, Note_on_c, 4, 59, 85
1, 7139, Note_off_c, 4, 59, 64
1, 7139, Note_off_c, 4, 50, 64
1, 7139, Note_off_c, 0, 59, 64
1, 7139, Note_off_c, 0, 62, 64
1, 7139, Note_off_c, 3, 57, 64
1, 7139, Note_off_c, 4, 55, 64
1, 7139, Note_off_c, 0, 67, 64
1, 7140, Note_on_c, 0, 62, 78
1, 7140, Note_on_c, 0, 67, 100
1, 7140, Note_on_c, 0, 71, 46
1, 7140, Note_on_c, 3, 54, 87
1, 7140, Note_on_c, 4, 43, 109
1, 7140, Note_on_c, 4, 50, 109
1, 7140, Lyric_t, "o "
1, 7169, Note_off_c, 4, 50, 64
1, 7169, Note_off_c, 0, 67, 64
1, 7169, Note_off_c, 0, 71, 64
1, 7169, Note_off_c, 0, 62, 64
1, 7169, Note_off_c, 4, 43, 64
1, 7169, Note_off_c, 3, 54, 64
1, 7170, Note_on_c, 0, 59, 45
1, 7170, Note_on_c, 0, 62, 73
1, 7170, Note_on_c, 0, 67, 86
1, 7170, Note_on_c, 3, 57, 107
1, 7170, Note_on_c, 4, 43, 101
1, 7170, Note_on_c, 4, 52, 116
1, 7170, Lyric_t, "young "
1, 7199, Note_off_c, 4, 52, 64
1, 7199, Note_off_c, 0, 62, 64
1, 7199, Note_off_c, 0, 59, 64
1, 7199, Note_off_c, 0, 67, 64
1, 7199, Note_off_c, 4, 43, 64
1, 7200, Note_on_c, 0, 54, 35
1, 7200, Note_on_c, 0, 57, 85
1, 7200, Note_on_c, 0, 62, 79
1, 7200, Note_on_c, 4, 45, 90
1, 7200, Note_on_c, 4, 50, 105
1, 7229, Note_off_c, 3, 57, 64
1, 7251, Control_c, 0, 74, 57
1, 7251, Control_c, 4, 74, 57
1, 7259, Note_off_c, 0, 57, 64
1, 7259, Note_off_c, 0, 62, 64
1, 7259, Note_off_c, 0, 54, 64
1, 7259, Note_off_c, 4, 50, 64
1, 7259, Note_off_c, 4, 45, 64
1, 7260, Note_on_c, 0, 57, 69
1, 7260, Note_on_c, 0, 62, 98
1, 7260, Note_on_c, 0, 66, 74
1, 7260, Note_on_c, 3, 57, 111
1, 7260, Note_on_c, 4, 45, 100
1, 7260, Note_on_c, 4, 50, 111
1, 7260, Note_on_c, 4, 54, 89
1, 7260, Lyric_t, "to "
1, 7289, Note_off_c, 3, 57, 64
1, 7320, Note_on_c, 3, 54, 119
1, 7320, Lyric_t, "un"
1, 7349, Note_off_c, 3, 54, 64
1, 7349, Note_off_c, 4, 54, 64
1, 7349, Note_off_c, 0, 62, 64
1, 7349, Note_off_c, 0, 66, 64
1, 7349, Note_off_c, 0, 57, 64
1, 7349, Note_off_c, 4, 50, 64
1, 7349, Note_off_c, 4, 45, 64
1, 7350, Note_on_c, 0, 54, 44
1, 7350, Note_on_c, 0, 57, 78
1, 7350, Note_on_c, 0, 62, 58
1, 7350, Note_on_c, 4, 45, 85
1, 7350, Note_on_c, 4, 50, 105
1, 7350, Note_on_c, 4, 54, 81
1, 7379, Note_off_c, 4, 54, 64
1, 7379, Note_off_c, 0, 57, 64
1, 7379, Note_off_c, 0, 62, 64
1, 7379, Note_off_c, 0, 54, 64
1, 7379, Note_off_c, 4, 50, 64
1, 7379, Note_off_c, 4, 45, 64
1, 7380, Note_on_c, 0, 57, 57
1, 7380, Note_on_c, 0, 62, 91
1, 7380, Note_on_c, 0, 66, 77
1, 7380, Note_on_c, 3, 52, 86
1, 7380, Note_on_c, 4, 50, 109
1, 7380, Note_on_c, 4, 54, 89
1, 7380, Note_on_c, 4, 57, 109
1, 7380, Lyric_t, "der"
1, 7407, Control_c, 0, 74, 58
1, 7407, Control_c, 4, 74, 58
1, 7409, Note_off_c, 4, 57, 64
1, 7409, Note_off_c, 4, 50, 64
1, 7409, Note_off_c, 0, 62, 64
1, 7409, Note_off_c, 0, 66, 64
1, 7409, Note_off_c, 0, 57, 64
1, 7409, Note_off_c, 4, 54, 64
1, 7409, Note_off_c, 3, 52, 64
1, 7410, Note_on_c, 0, 54, 35
1, 7410, Note_on_c, 0, 57, 79
1, 7410, Note_on_c, 0, 62, 56
1, 7410, Note_on_c, 3, 50, 109
1, 7410, Note_on_c, 4, 50, 111
1, 7410, Note_on_c, 4, 54, 100
1, 7410, Note_on_c, 4, 57, 100
1, 7410, Lyric_t, "stand "
1, 7410, Lyric_t, "\015"
1, 7439, Note_off_c, 4, 57, 64
1, 7439, Note_off_c, 4, 50, 64
1, 7439, Note_off_c, 0, 57, 64
1, 7439, Note_off_c, 0, 54, 64
1, 7439, Note_off_c, 0, 62, 64
1, 7439, Note_off_c, 4, 54, 64
1, 7440, Note_on_c, 0, 54, 35
1, 7440, Note_on_c, 0, 57, 85
1, 7440, Note_on_c, 0, 62, 79
1, 7440, Note_on_c, 4, 45, 90
1, 7440, Note_on_c, 4, 50, 105
1, 7499, Note_off_c, 4, 50, 64
1, 7499, Note_off_c, 0, 54, 64
1, 7499, Note_off_c, 0, 57, 64
1, 7499, Note_off_c, 0, 62, 64
1, 7499, Note_off_c, 4, 45, 64
1, 7500, Note_on_c, 0, 57, 69
1, 7500, Note_on_c, 0, 62, 98
1, 7500, Note_on_c, 0, 66, 74
1, 7500, Note_on_c, 4, 45, 100
1, 7500, Note_on_c, 4, 50, 111
1, 7500, Note_on_c, 4, 54, 89
1, 7559, Note_off_c, 3, 50, 64
1, 7564, Control_c, 0, 74, 59
1, 7564, Control_c, 4, 74, 59
1, 7589, Note_off_c, 4, 50, 64
1, 7589, Note_off_c, 0, 62, 64
1, 7589, Note_off_c, 0, 66, 64
1, 7589, Note_off_c, 0, 57, 64
1, 7589, Note_off_c, 4, 54, 64
1, 7589, Note_off_c, 4, 45, 64
1, 7590, Note_on_c, 0, 54, 44
1, 7590, Note_on_c, 0, 57, 78
1, 7590, Note_on_c, 0, 62, 58
1, 7590, Note_on_c, 4, 45, 85
1, 7590, Note_on_c, 4, 50, 105
1, 7590, Note_on_c, 4, 54, 81
1, 7619, Note_off_c, 4, 54, 64
1, 7619, Note_off_c, 0, 57, 64
1, 7619, Note_off_c, 0, 62, 64
1, 7619, Note_off_c, 0, 54, 64
1, 7619, Note_off_c, 4, 50, 64
1, 7619, Note_off_c, 4, 45, 64
1, 7620, Note_on_c, 0, 57, 57
1, 7620, Note_on_c, 0, 62, 91
1, 7620, Note_on_c, 0, 66, 77
1, 7620, Note_on_c, 4, 50, 109
1, 7620, Note_on_c, 4, 54, 89
1, 7620, Note_on_c, 4, 57, 109
1, 7649, Note_off_c, 4, 57, 64
1, 7649, Note_off_c, 0, 62, 64
1, 7649, Note_off_c, 0, 66, 64
1, 7649, Note_off_c, 0, 57, 64
1, 7649, Note_off_c, 4, 54, 64
1, 7649, Note_off_c, 4, 50, 64
1, 7650, Note_on_c, 0, 54, 35
1, 7650, Note_on_c, 0, 57, 79
1, 7650, Note_on_c, 0, 62, 56
1, 7650, Note_on_c, 4, 50, 111
1, 7650, Note_on_c, 4, 54, 100
1, 7650, Note_on_c, 4, 57, 100
1, 7679, Note_off_c, 4, 57, 64
1, 7679, Note_off_c, 0, 57, 64
1, 7679, Note_off_c, 0, 62, 64
1, 7679, Note_off_c, 0, 54, 64
1, 7679, Note_off_c, 4, 54, 64
1, 7679, Note_off_c, 4, 50, 64
1, 7680, Note_on_c, 0, 59, 58
1, 7680, Note_on_c, 0, 62, 91
1, 7680, Note_on_c, 4, 47, 85
1, 7680, Note_on_c, 4, 54, 120
1, 7720, Control_c, 0, 74, 60
1, 7720, Control_c, 4, 74, 60
1, 7739, Note_off_c, 4, 54, 64
1, 7739, Note_off_c, 0, 59, 64
1, 7739, Note_off_c, 0, 62, 64
1, 7739, Note_off_c, 4, 47, 64
1, 7740, Note_on_c, 0, 59, 79
1, 7740, Note_on_c, 0, 62, 95
1, 7740, Note_on_c, 0, 66, 74
1, 7740, Note_on_c, 4, 50, 92
1, 7740, Note_on_c, 4, 54, 87
1, 7740, Note_on_c, 4, 62, 95
1, 7770, Note_on_c, 3, 50, 83
1, 7770, Lyric_t, "They "
1, 7799, Note_off_c, 3, 50, 64
1, 7800, Note_on_c, 3, 59, 107
1, 7800, Lyric_t, "say "
1, 7829, Note_off_c, 3, 59, 64
1, 7829, Note_off_c, 4, 62, 64
1, 7829, Note_off_c, 0, 62, 64
1, 7829, Note_off_c, 0, 66, 64
1, 7829, Note_off_c, 0, 59, 64
1, 7829, Note_off_c, 4, 54, 64
1, 7829, Note_off_c, 4, 50, 64
1, 7830, Note_on_c, 0, 59, 71
1, 7830, Note_on_c, 0, 62, 91
1, 7830, Note_on_c, 0, 66, 60
1, 7830, Note_on_c, 3, 59, 111
1, 7830, Note_on_c, 4, 54, 109
1, 7830, Note_on_c, 4, 59, 95
1, 7830, Lyric_t, "I'm "
1, 7859, Note_off_c, 4, 59, 64
1, 7859, Note_off_c, 0, 62, 64
1, 7859, Note_off_c, 0, 66, 64
1, 7859, Note_off_c, 0, 59, 64
1, 7859, Note_off_c, 4, 54, 64
1, 7859, Note_off_c, 3, 59, 64
1, 7860, Note_on_c, 0, 62, 80
1, 7860, Note_on_c, 0, 66, 62
1, 7860, Note_on_c, 0, 71, 91
1, 7860, Note_on_c, 4, 50, 103
1, 7860, Note_on_c, 4, 54, 115
1, 7876, Control_c, 0, 74, 61
1, 7876, Control_c, 4, 74, 61
1, 7889, Note_off_c, 4, 54, 64
1, 7889, Note_off_c, 0, 71, 64
1, 7889, Note_off_c, 0, 62, 64
1, 7889, Note_off_c, 0, 66, 64
1, 7889, Note_off_c, 4, 50, 64
1, 7890, Note_on_c, 0, 59, 51
1, 7890, Note_on_c, 0, 62, 85
1, 7890, Note_on_c, 0, 66, 59
1, 7890, Note_on_c, 3, 59, 91
1, 7890, Note_on_c, 4, 47, 92
1, 7890, Note_on_c, 4, 52, 98
1, 7890, Lyric_t, "caught "
1, 7919, Note_off_c, 4, 52, 64
1, 7919, Note_off_c, 0, 62, 64
1, 7919, Note_off_c, 0, 66, 64
1, 7919, Note_off_c, 0, 59, 64
1, 7919, Note_off_c, 4, 47, 64
1, 7919, Note_off_c, 3, 59, 64
1, 7920, Note_on_c, 0, 55, 74
1, 7920, Note_on_c, 0, 59, 94
1, 7920, Note_on_c, 0, 62, 91
1, 7920, Note_on_c, 4, 43, 98
1, 7920, Note_on_c, 4, 50, 116
1, 7950, Note_on_c, 3, 57, 116
1, 7950, Lyric_t, "up "
1, 7979, Note_off_c, 3, 57, 64
1, 7979, Note_off_c, 0, 59, 64
1, 7979, Note_off_c, 0, 62, 64
1, 7979, Note_off_c, 0, 55, 64
1, 7979, Note_off_c, 4, 50, 64
1, 7979, Note_off_c, 4, 43, 64
1, 7980, Note_on_c, 0, 59, 70
1, 7980, Note_on_c, 0, 62, 94
1, 7980, Note_on_c, 0, 67, 101
1, 7980, Note_on_c, 4, 50, 79
1, 7980, Note_on_c, 4, 55, 111
1, 7980, Note_on_c, 4, 59, 100
1, 8010, Note_on_c, 3, 57, 113
1, 8010, Lyric_t, "in "
1, 8032, Control_c, 0, 74, 62
1, 8032, Control_c, 4, 74, 62
1, 8039, Note_off_c, 3, 57, 64
1, 8069, Note_off_c, 4, 55, 64
1, 8069, Note_off_c, 0, 62, 64
1, 8069, Note_off_c, 0, 67, 64
1, 8069, Note_off_c, 0, 59, 64
1, 8069, Note_off_c, 4, 59, 64
1, 8069, Note_off_c, 4, 50, 64
1, 8070, Note_on_c, 0, 59, 52
1, 8070, Note_on_c, 0, 62, 85
1, 8070, Note_on_c, 0, 67, 94
1, 8070, Note_on_c, 3, 54, 115
1, 8070, Note_on_c, 4, 50, 82
1, 8070, Note_on_c, 4, 55, 98
1, 8070, Note_on_c, 4, 59, 85
1, 8070, Lyric_t, "a "
1, 8099, Note_off_c, 4, 59, 64
1, 8099, Note_off_c, 4, 50, 64
1, 8099, Note_off_c, 0, 62, 64
1, 8099, Note_off_c, 0, 67, 64
1, 8099, Note_off_c, 0, 59, 64
1, 8099, Note_off_c, 4, 55, 64
1, 8099, Note_off_c, 3, 54, 64
1, 8100, Note_on_c, 0, 62, 78
1, 8100, Note_on_c, 0, 67, 100
1, 8100, Note_on_c, 0, 71, 46
1, 8100, Note_on_c, 4, 43, 109
1, 8100, Note_on_c, 4, 50, 109
1, 8129, Note_off_c, 4, 50, 64
1, 8129, Note_off_c, 0, 71, 64
1, 8129, Note_off_c, 0, 62, 64
1, 8129, Note_off_c, 0, 67, 64
1, 8129, Note_off_c, 4, 43, 64
1, 8130, Note_on_c, 0, 59, 45
1, 8130, Note_on_c, 0, 62, 73
1, 8130, Note_on_c, 0, 67, 86
1, 8130, Note_on_c, 3, 57, 111
1, 8130, Note_on_c, 4, 43, 101
1, 8130, Note_on_c, 4, 52, 116
1, 8130, Lyric_t, "dream "
1, 8130, Lyric_t, "\015"
1, 8159, Note_off_c, 4, 52, 64
1, 8159, Note_off_c, 0, 62, 64
1, 8159, Note_off_c, 0, 59, 64
1, 8159, Note_off_c, 0, 67, 64
1, 8159, Note_off_c, 4, 43, 64
1, 8160, Note_on_c, 0, 54, 35
1, 8160, Note_on_c, 0, 57, 85
1, 8160, Note_on_c, 0, 62, 79
1, 8160, Note_on_c, 4, 45, 90
1, 8160, Note_on_c, 4, 50, 105
1, 8189, Control_c, 0, 74, 63
1, 8189, Control_c, 4, 74, 63
1, 8219, Note_off_c, 4, 50, 64
1, 8219, Note_off_c, 0, 54, 64
1, 8219, Note_off_c, 0, 57, 64
1, 8219, Note_off_c, 0, 62, 64
1, 8219, Note_off_c, 4, 45, 64
1, 8220, Note_on_c, 0, 57, 69
1, 8220, Note_on_c, 0, 62, 98
1, 8220, Note_on_c, 0, 66, 74
1, 8220, Note_on_c, 4, 45, 100
1, 8220, Note_on_c, 4, 50, 111
1, 8220, Note_on_c, 4, 54, 89
1, 8309, Note_off_c, 4, 54, 64
1, 8309, Note_off_c, 4, 45, 64
1, 8309, Note_off_c, 0, 57, 64
1, 8309, Note_off_c, 0, 62, 64
1, 8309, Note_off_c, 3, 57, 64
1, 8309, Note_off_c, 4, 50, 64
1, 8309, Note_off_c, 0, 66, 64
1, 8310, Note_on_c, 0, 54, 44
1, 8310, Note_on_c, 0, 57, 78
1, 8310, Note_on_c, 0, 62, 58
1, 8310, Note_on_c, 4, 45, 85
1, 8310, Note_on_c, 4, 50, 105
1, 8310, Note_on_c, 4, 54, 81
1, 8339, Note_off_c, 4, 54, 64
1, 8339, Note_off_c, 0, 57, 64
1, 8339, Note_off_c, 0, 62, 64
1, 8339, Note_off_c, 0, 54, 64
1, 8339, Note_off_c, 4, 50, 64
1, 8339, Note_off_c, 4, 45, 64
1, 8340, Note_on_c, 0, 57, 57
1, 8340, Note_on_c, 0, 62, 91
1, 8340, Note_on_c, 0, 66, 77
1, 8340, Note_on_c, 4, 50, 109
1, 8340, Note_on_c, 4, 54, 89
1, 8340, Note_on_c, 4, 57, 109
1, 8369, Note_off_c, 4, 57, 64
1, 8369, Note_off_c, 0, 62, 64
1, 8369, Note_off_c, 0, 66, 64
1, 8369, Note_off_c, 0, 57, 64
1, 8369, Note_off_c, 4, 54, 64
1, 8369, Note_off_c, 4, 50, 64
1, 8370, Note_on_c, 0, 54, 35
1, 8370, Note_on_c, 0, 57, 79
1, 8370, Note_on_c, 0, 62, 56
1, 8370, Note_on_c, 4, 50, 111
1, 8370, Note_on_c, 4, 54, 100
1, 8370, Note_on_c, 4, 57, 100
1, 8399, Note_off_c, 4, 57, 64
1, 8399, Note_off_c, 0, 57, 64
1, 8399, Note_off_c, 0, 62, 64
1, 8399, Note_off_c, 0, 54, 64
1, 8399, Note_off_c, 4, 54, 64
1, 8399, Note_off_c, 4, 50, 64
1, 8400, Note_on_c, 0, 54, 35
1, 8400, Note_on_c, 0, 57, 85
1, 8400, Note_on_c, 0, 62, 79
1, 8400, Note_on_c, 4, 45, 90
1, 8400, Note_on_c, 4, 50, 105
1, 8459, Note_off_c, 4, 50, 64
1, 8459, Note_off_c, 0, 62, 64
1, 8459, Note_off_c, 0, 54, 64
1, 8459, Note_off_c, 0, 57, 64
1, 8459, Note_off_c, 4, 45, 64
1, 8460, Note_on_c, 0, 57, 69
1, 8460, Note_on_c, 0, 62, 98
1, 8460, Note_on_c, 0, 66, 74
1, 8460, Note_on_c, 4, 45, 100
1, 8460, Note_on_c, 4, 50, 111
1, 8460, Note_on_c, 4, 54, 89
1, 8549, Note_off_c, 4, 54, 64
1, 8549, Note_off_c, 0, 62, 64
1, 8549, Note_off_c, 0, 66, 64
1, 8549, Note_off_c, 0, 57, 64
1, 8549, Note_off_c, 4, 50, 64
1, 8549, Note_off_c, 4, 45, 64
1, 8550, Note_on_c, 0, 54, 44
1, 8550, Note_on_c, 0, 57, 78
1, 8550, Note_on_c, 0, 62, 58
1, 8550, Note_on_c, 4, 45, 85
1, 8550, Note_on_c, 4, 50, 105
1, 8550, Note_on_c, 4, 54, 81
1, 8579, Note_off_c, 4, 54, 64
1, 8579, Note_off_c, 0, 57, 64
1, 8579, Note_off_c, 0, 62, 64
1, 8579, Note_off_c, 0, 54, 64
1, 8579, Note_off_c, 4, 50, 64
1, 8579, Note_off_c, 4, 45, 64
1, 8580, Note_on_c, 0, 57, 57
1, 8580, Note_on_c, 0, 62, 91
1, 8580, Note_on_c, 0, 66, 77
1, 8580, Note_on_c, 4, 50, 109
1, 8580, Note_on_c, 4, 54, 89
1, 8580, Note_on_c, 4, 57, 109
1, 8609, Note_off_c, 4, 57, 64
1, 8609, Note_off_c, 0, 62, 64
1, 8609, Note_off_c, 0, 66, 64
1, 8609, Note_off_c, 0, 57, 64
1, 8609, Note_off_c, 4, 54, 64
1, 8609, Note_off_c, 4, 50, 64
1, 8610, Note_on_c, 0, 54, 35
1, 8610, Note_on_c, 0, 57, 79
1, 8610, Note_on_c, 0, 62, 56
1, 8610, Note_on_c, 4, 50, 111
1, 8610, Note_on_c, 4, 54, 100
1, 8610, Note_on_c, 4, 57, 100
1, 8639, Note_off_c, 4, 57, 64
1, 8639, Note_off_c, 0, 57, 64
1, 8639, Note_off_c, 0, 62, 64
1, 8639, Note_off_c, 0, 54, 64
1, 8639, Note_off_c, 4, 54, 64
1, 8639, Note_off_c, 4, 50, 64
1, 8640, Note_on_c, 0, 59, 58
1, 8640, Note_on_c, 0, 62, 91
1, 8640, Note_on_c, 4, 47, 85
1, 8640, Note_on_c, 4, 54, 120
1, 8699, Note_off_c, 4, 54, 64
1, 8699, Note_off_c, 0, 59, 64
1, 8699, Note_off_c, 0, 62, 64
1, 8699, Note_off_c, 4, 47, 64
1, 8700, Note_on_c, 0, 59, 79
1, 8700, Note_on_c, 0, 62, 95
1, 8700, Note_on_c, 0, 66, 74
1, 8700, Note_on_c, 4, 50, 92
1, 8700, Note_on_c, 4, 54, 87
1, 8700, Note_on_c, 4, 62, 95
1, 8730, Note_on_c, 3, 54, 102
1, 8730, Lyric_t, "Well "
1, 8759, Note_off_c, 3, 54, 64
1, 8760, Note_on_c, 3, 59, 116
1, 8760, Lyric_t, "life "
1, 8789, Note_off_c, 4, 54, 64
1, 8789, Note_off_c, 4, 50, 64
1, 8789, Note_off_c, 0, 62, 64
1, 8789, Note_off_c, 0, 66, 64
1, 8789, Note_off_c, 0, 59, 64
1, 8789, Note_off_c, 4, 62, 64
1, 8790, Note_on_c, 0, 59, 71
1, 8790, Note_on_c, 0, 62, 91
1, 8790, Note_on_c, 0, 66, 60
1, 8790, Note_on_c, 4, 54, 109
1, 8790, Note_on_c, 4, 59, 95
1, 8819, Note_off_c, 4, 59, 64
1, 8819, Note_off_c, 0, 59, 64
1, 8819, Note_off_c, 0, 62, 64
1, 8819, Note_off_c, 3, 59, 64
1, 8819, Note_off_c, 4, 54, 64
1, 8819, Note_off_c, 0, 66, 64
1, 8820, Note_on_c, 0, 62, 80
1, 8820, Note_on_c, 0, 66, 62
1, 8820, Note_on_c, 0, 71, 91
1, 8820, Note_on_c, 3, 61, 96
1, 8820, Note_on_c, 4, 50, 103
1, 8820, Note_on_c, 4, 54, 115
1, 8820, Lyric_t, "will "
1, 8849, Note_off_c, 4, 54, 64
1, 8849, Note_off_c, 0, 66, 64
1, 8849, Note_off_c, 0, 71, 64
1, 8849, Note_off_c, 0, 62, 64
1, 8849, Note_off_c, 4, 50, 64
1, 8849, Note_off_c, 3, 61, 64
1, 8850, Note_on_c, 0, 59, 51
1, 8850, Note_on_c, 0, 62, 85
1, 8850, Note_on_c, 0, 66, 59
1, 8850, Note_on_c, 3, 62, 118
1, 8850, Note_on_c, 4, 47, 92
1, 8850, Note_on_c, 4, 52, 98
1, 8850, Lyric_t, "pass "
1, 8879, Note_off_c, 4, 52, 64
1, 8879, Note_off_c, 0, 62, 64
1, 8879, Note_off_c, 0, 59, 64
1, 8879, Note_off_c, 0, 66, 64
1, 8879, Note_off_c, 4, 47, 64
1, 8880, Note_on_c, 0, 55, 74
1, 8880, Note_on_c, 0, 59, 94
1, 8880, Note_on_c, 0, 62, 91
1, 8880, Note_on_c, 4, 43, 98
1, 8880, Note_on_c, 4, 50, 116
1, 8909, Note_off_c, 3, 62, 64
1, 8910, Note_on_c, 3, 61, 96
1, 8910, Lyric_t, "me "
1, 8939, Note_off_c, 0, 59, 64
1, 8939, Note_off_c, 4, 43, 64
1, 8939, Note_off_c, 0, 62, 64
1, 8939, Note_off_c, 0, 55, 64
1, 8939, Note_off_c, 4, 50, 64
1, 8940, Note_on_c, 0, 59, 70
1, 8940, Note_on_c, 0, 62, 94
1, 8940, Note_on_c, 0, 67, 101
1, 8940, Note_on_c, 4, 50, 79
1, 8940, Note_on_c, 4, 55, 111
1, 8940, Note_on_c, 4, 59, 100
1, 8969, Note_off_c, 3, 61, 64
1, 8970, Note_on_c, 3, 59, 105
1, 8970, Lyric_t, "by "
1, 8970, Lyric_t, "\015"
1, 8999, Note_off_c, 3, 59, 64
1, 9029, Note_off_c, 4, 59, 64
1, 9029, Note_off_c, 0, 62, 64
1, 9029, Note_off_c, 0, 67, 64
1, 9029, Note_off_c, 0, 59, 64
1, 9029, Note_off_c, 4, 55, 64
1, 9029, Note_off_c, 4, 50, 64
1, 9030, Note_on_c, 0, 59, 52
1, 9030, Note_on_c, 0, 62, 85
1, 9030, Note_on_c, 0, 67, 94
1, 9030, Note_on_c, 3, 57, 111
1, 9030, Note_on_c, 4, 50, 82
1, 9030, Note_on_c, 4, 55, 98
1, 9030, Note_on_c, 4, 59, 85
1, 9030, Lyric_t, "if "
1, 9059, Note_off_c, 4, 59, 64
1, 9059, Note_off_c, 4, 50, 64
1, 9059, Note_off_c, 0, 62, 64
1, 9059, Note_off_c, 0, 67, 64
1, 9059, Note_off_c, 0, 59, 64
1, 9059, Note_off_c, 4, 55, 64
1, 9059, Note_off_c, 3, 57, 64
1, 9060, Note_on_c, 0, 62, 78
1, 9060, Note_on_c, 0, 67, 100
1, 9060, Note_on_c, 0, 71, 46
1, 9060, Note_on_c, 4, 43, 109
1, 9060, Note_on_c, 4, 50, 109
1, 9089, Note_off_c, 4, 50, 64
1, 9089, Note_off_c, 0, 71, 64
1, 9089, Note_off_c, 0, 62, 64
1, 9089, Note_off_c, 0, 67, 64
1, 9089, Note_off_c, 4, 43, 64
1, 9090, Note_on_c, 0, 59, 45
1, 9090, Note_on_c, 0, 62, 73
1, 9090, Note_on_c, 0, 67, 86
1, 9090, Note_on_c, 3, 57, 113
1, 9090, Note_on_c, 4, 43, 101
1, 9090, Note_on_c, 4, 52, 116
1, 9090, Lyric_t, "I "
1, 9119, Note_off_c, 4, 52, 64
1, 9119, Note_off_c, 0, 62, 64
1, 9119, Note_off_c, 0, 59, 64
1, 9119, Note_off_c, 0, 67, 64
1, 9119, Note_off_c, 4, 43, 64
1, 9120, Note_on_c, 0, 54, 35
1, 9120, Note_on_c, 0, 57, 85
1, 9120, Note_on_c, 0, 62, 79
1, 9120, Note_on_c, 4, 45, 90
1, 9120, Note_on_c, 4, 50, 105
1, 9149, Note_off_c, 3, 57, 64
1, 9150, Note_on_c, 3, 57, 105
1, 9150, Lyric_t, "don't "
1, 9179, Note_off_c, 0, 57, 64
1, 9179, Note_off_c, 4, 45, 64
1, 9179, Note_off_c, 0, 62, 64
1, 9179, Note_off_c, 0, 54, 64
1, 9179, Note_off_c, 4, 50, 64
1, 9180, Note_on_c, 0, 57, 69
1, 9180, Note_on_c, 0, 62, 98
1, 9180, Note_on_c, 0, 66, 74
1, 9180, Note_on_c, 4, 45, 100
1, 9180, Note_on_c, 4, 50, 111
1, 9180, Note_on_c, 4, 54, 89
1, 9209, Note_off_c, 3, 57, 64
1, 9210, Note_on_c, 3, 54, 109
1, 9210, Lyric_t, "o"
1, 9269, Note_off_c, 3, 54, 64
1, 9269, Note_off_c, 4, 54, 64
1, 9269, Note_off_c, 0, 62, 64
1, 9269, Note_off_c, 0, 66, 64
1, 9269, Note_off_c, 0, 57, 64
1, 9269, Note_off_c, 4, 50, 64
1, 9269, Note_off_c, 4, 45, 64
1, 9270, Note_on_c, 0, 54, 44
1, 9270, Note_on_c, 0, 57, 78
1, 9270, Note_on_c, 0, 62, 58
1, 9270, Note_on_c, 3, 52, 95
1, 9270, Note_on_c, 4, 45, 85
1, 9270, Note_on_c, 4, 50, 105
1, 9270, Note_on_c, 4, 54, 81
1, 9270, Lyric_t, "pen "
1, 9299, Note_off_c, 4, 54, 64
1, 9299, Note_off_c, 4, 45, 64
1, 9299, Note_off_c, 0, 57, 64
1, 9299, Note_off_c, 0, 54, 64
1, 9299, Note_off_c, 0, 62, 64
1, 9299, Note_off_c, 4, 50, 64
1, 9300, Note_on_c, 0, 57, 57
1, 9300, Note_on_c, 0, 62, 91
1, 9300, Note_on_c, 0, 66, 77
1, 9300, Note_on_c, 4, 50, 109
1, 9300, Note_on_c, 4, 54, 89
1, 9300, Note_on_c, 4, 57, 109
1, 9329, Note_off_c, 4, 57, 64
1, 9329, Note_off_c, 4, 50, 64
1, 9329, Note_off_c, 0, 57, 64
1, 9329, Note_off_c, 0, 62, 64
1, 9329, Note_off_c, 3, 52, 64
1, 9329, Note_off_c, 4, 54, 64
1, 9329, Note_off_c, 0, 66, 64
1, 9330, Note_on_c, 0, 54, 35
1, 9330, Note_on_c, 0, 57, 79
1, 9330, Note_on_c, 0, 62, 56
1, 9330, Note_on_c, 3, 50, 116
1, 9330, Note_on_c, 4, 50, 111
1, 9330, Note_on_c, 4, 54, 100
1, 9330, Note_on_c, 4, 57, 100
1, 9330, Lyric_t, "up "
1, 9359, Note_off_c, 4, 57, 64
1, 9359, Note_off_c, 4, 50, 64
1, 9359, Note_off_c, 0, 57, 64
1, 9359, Note_off_c, 0, 54, 64
1, 9359, Note_off_c, 0, 62, 64
1, 9359, Note_off_c, 4, 54, 64
1, 9360, Note_on_c, 0, 54, 35
1, 9360, Note_on_c, 0, 57, 85
1, 9360, Note_on_c, 0, 62, 79
1, 9360, Note_on_c, 4, 45, 90
1, 9360, Note_on_c, 4, 50, 105
1, 9389, Note_off_c, 3, 50, 64
1, 9390, Note_on_c, 3, 52, 111
1, 9390, Lyric_t, "my "
1, 9419, Note_off_c, 0, 57, 64
1, 9419, Note_off_c, 4, 45, 64
1, 9419, Note_off_c, 0, 62, 64
1, 9419, Note_off_c, 0, 54, 64
1, 9419, Note_off_c, 4, 50, 64
1, 9420, Note_on_c, 0, 57, 69
1, 9420, Note_on_c, 0, 62, 98
1, 9420, Note_on_c, 0, 66, 74
1, 9420, Note_on_c, 4, 45, 100
1, 9420, Note_on_c, 4, 50, 111
1, 9420, Note_on_c, 4, 54, 89
1, 9479, Note_off_c, 3, 52, 64
1, 9480, Note_on_c, 3, 54, 120
1, 9480, Lyric_t, "eyes "
1, 9480, Lyric_t, "\015"
1, 9509, Note_off_c, 4, 50, 64
1, 9509, Note_off_c, 4, 45, 64
1, 9509, Note_off_c, 0, 62, 64
1, 9509, Note_off_c, 0, 66, 64
1, 9509, Note_off_c, 0, 57, 64
1, 9509, Note_off_c, 4, 54, 64
1, 9510, Note_on_c, 0, 54, 44
1, 9510, Note_on_c, 0, 57, 78
1, 9510, Note_on_c, 0, 62, 58
1, 9510, Note_on_c, 4, 45, 85
1, 9510, Note_on_c, 4, 50, 105
1, 9510, Note_on_c, 4, 54, 81
1, 9539, Note_off_c, 4, 54, 64
1, 9539, Note_off_c, 4, 45, 64
1, 9539, Note_off_c, 0, 54, 64
1, 9539, Note_off_c, 0, 57, 64
1, 9539, Note_off_c, 0, 62, 64
1, 9539, Note_off_c, 4, 50, 64
1, 9540, Note_on_c, 0, 57, 57
1, 9540, Note_on_c, 0, 62, 91
1, 9540, Note_on_c, 0, 66, 77
1, 9540, Note_on_c, 4, 50, 109
1, 9540, Note_on_c, 4, 54, 89
1, 9540, Note_on_c, 4, 57, 109
1, 9569, Note_off_c, 4, 57, 64
1, 9569, Note_off_c, 4, 50, 64
1, 9569, Note_off_c, 0, 57, 64
1, 9569, Note_off_c, 0, 62, 64
1, 9569, Note_off_c, 0, 66, 64
1, 9569, Note_off_c, 4, 54, 64
1, 9570, Note_on_c, 0, 54, 35
1, 9570, Note_on_c, 0, 57, 79
1, 9570, Note_on_c, 0, 62, 56
1, 9570, Note_on_c, 4, 50, 111
1, 9570, Note_on_c, 4, 54, 100
1, 9570, Note_on_c, 4, 57, 100
1, 9599, Note_off_c, 4, 57, 64
1, 9599, Note_off_c, 4, 50, 64
1, 9599, Note_off_c, 0, 54, 64
1, 9599, Note_off_c, 0, 57, 64
1, 9599, Note_off_c, 3, 54, 64
1, 9599, Note_off_c, 4, 54, 64
1, 9599, Note_off_c, 0, 62, 64
1, 9600, Note_on_c, 0, 59, 58
1, 9600, Note_on_c, 0, 62, 91
1, 9600, Note_on_c, 4, 47, 85
1, 9600, Note_on_c, 4, 54, 120
1, 9659, Note_off_c, 4, 54, 64
1, 9659, Note_off_c, 0, 59, 64
1, 9659, Note_off_c, 0, 62, 64
1, 9659, Note_off_c, 4, 47, 64
1, 9660, Note_on_c, 0, 59, 79
1, 9660, Note_on_c, 0, 62, 95
1, 9660, Note_on_c, 0, 66, 74
1, 9660, Note_on_c, 4, 50, 92
1, 9660, Note_on_c, 4, 54, 87
1, 9660, Note_on_c, 4, 62, 95
1, 9749, Note_off_c, 4, 62, 64
1, 9749, Note_off_c, 0, 62, 64
1, 9749, Note_off_c, 0, 66, 64
1, 9749, Note_off_c, 0, 59, 64
1, 9749, Note_off_c, 4, 54, 64
1, 9749, Note_off_c, 4, 50, 64
1, 9750, Note_on_c, 0, 59, 71
1, 9750, Note_on_c, 0, 62, 91
1, 9750, Note_on_c, 0, 66, 60
1, 9750, Note_on_c, 3, 52, 101
1, 9750, Note_on_c, 4, 54, 109
1, 9750, Note_on_c, 4, 59, 95
1, 9750, Lyric_t, "Well "
1, 9779, Note_off_c, 4, 59, 64
1, 9779, Note_off_c, 0, 62, 64
1, 9779, Note_off_c, 0, 66, 64
1, 9779, Note_off_c, 0, 59, 64
1, 9779, Note_off_c, 4, 54, 64
1, 9779, Note_off_c, 3, 52, 64
1, 9780, Note_on_c, 0, 62, 80
1, 9780, Note_on_c, 0, 66, 62
1, 9780, Note_on_c, 0, 71, 91
1, 9780, Note_on_c, 3, 54, 119
1, 9780, Note_on_c, 4, 50, 103
1, 9780, Note_on_c, 4, 54, 115
1, 9780, Lyric_t, "that's "
1, 9809, Note_off_c, 4, 54, 64
1, 9809, Note_off_c, 0, 66, 64
1, 9809, Note_off_c, 0, 71, 64
1, 9809, Note_off_c, 0, 62, 64
1, 9809, Note_off_c, 4, 50, 64
1, 9809, Note_off_c, 3, 54, 64
1, 9810, Note_on_c, 0, 59, 51
1, 9810, Note_on_c, 0, 62, 85
1, 9810, Note_on_c, 0, 66, 59
1, 9810, Note_on_c, 4, 47, 92
1, 9810, Note_on_c, 4, 52, 98
1, 9839, Note_off_c, 4, 52, 64
1, 9839, Note_off_c, 0, 66, 64
1, 9839, Note_off_c, 0, 59, 64
1, 9839, Note_off_c, 0, 62, 64
1, 9839, Note_off_c, 4, 47, 64
1, 9840, Note_on_c, 0, 55, 74
1, 9840, Note_on_c, 0, 59, 94
1, 9840, Note_on_c, 0, 62, 91
1, 9840, Note_on_c, 3, 55, 111
1, 9840, Note_on_c, 4, 43, 98
1, 9840, Note_on_c, 4, 50, 116
1, 9840, Lyric_t, "fine "
1, 9899, Note_off_c, 4, 50, 64
1, 9899, Note_off_c, 0, 59, 64
1, 9899, Note_off_c, 0, 55, 64
1, 9899, Note_off_c, 0, 62, 64
1, 9899, Note_off_c, 4, 43, 64
1, 9900, Note_on_c, 0, 59, 70
1, 9900, Note_on_c, 0, 62, 94
1, 9900, Note_on_c, 0, 67, 101
1, 9900, Note_on_c, 4, 50, 79
1, 9900, Note_on_c, 4, 55, 111
1, 9900, Note_on_c, 4, 59, 100
1, 9929, Note_off_c, 3, 55, 64
1, 9960, Note_on_c, 3, 57, 109
1, 9960, Lyric_t, "by "
1, 9989, Note_off_c, 4, 55, 64
1, 9989, Note_off_c, 4, 50, 64
1, 9989, Note_off_c, 0, 62, 64
1, 9989, Note_off_c, 0, 67, 64
1, 9989, Note_off_c, 0, 59, 64
1, 9989, Note_off_c, 4, 59, 64
1, 9990, Note_on_c, 0, 59, 52
1, 9990, Note_on_c, 0, 62, 85
1, 9990, Note_on_c, 0, 67, 94
1, 9990, Note_on_c, 4, 50, 82
1, 9990, Note_on_c, 4, 55, 98
1, 9990, Note_on_c, 4, 59, 85
1, 10019, Note_off_c, 4, 59, 64
1, 10019, Note_off_c, 4, 50, 64
1, 10019, Note_off_c, 0, 59, 64
1, 10019, Note_off_c, 0, 62, 64
1, 10019, Note_off_c, 0, 67, 64
1, 10019, Note_off_c, 4, 55, 64
1, 10020, Note_on_c, 0, 62, 78
1, 10020, Note_on_c, 0, 67, 100
1, 10020, Note_on_c, 0, 71, 46
1, 10020, Note_on_c, 4, 43, 109
1, 10020, Note_on_c, 4, 50, 109
1, 10049, Note_off_c, 4, 50, 64
1, 10049, Note_off_c, 0, 62, 64
1, 10049, Note_off_c, 0, 67, 64
1, 10049, Note_off_c, 3, 57, 64
1, 10049, Note_off_c, 4, 43, 64
1, 10049, Note_off_c, 0, 71, 64
1, 10050, Note_on_c, 0, 59, 45
1, 10050, Note_on_c, 0, 62, 73
1, 10050, Note_on_c, 0, 67, 86
1, 10050, Note_on_c, 3, 50, 116
1, 10050, Note_on_c, 4, 43, 101
1, 10050, Note_on_c, 4, 52, 116
1, 10050, Lyric_t, "me "
1, 10050, Lyric_t, "\015"
1, 10079, Note_off_c, 4, 52, 64
1, 10079, Note_off_c, 0, 62, 64
1, 10079, Note_off_c, 0, 59, 64
1, 10079, Note_off_c, 0, 67, 64
1, 10079, Note_off_c, 4, 43, 64
1, 10080, Note_on_c, 0, 54, 35
1, 10080, Note_on_c, 0, 57, 85
1, 10080, Note_on_c, 0, 62, 79
1, 10080, Note_on_c, 4, 45, 90
1, 10080, Note_on_c, 4, 50, 105
1, 10139, Note_off_c, 4, 50, 64
1, 10139, Note_off_c, 0, 54, 64
1, 10139, Note_off_c, 0, 57, 64
1, 10139, Note_off_c, 0, 62, 64
1, 10139, Note_off_c, 4, 45, 64
1, 10140, Note_on_c, 0, 57, 69
1, 10140, Note_on_c, 0, 62, 98
1, 10140, Note_on_c, 0, 66, 74
1, 10140, Note_on_c, 4, 45, 100
1, 10140, Note_on_c, 4, 50, 111
1, 10140, Note_on_c, 4, 54, 89
1, 10199, Note_off_c, 3, 50, 64
1, 10229, Note_off_c, 4, 50, 64
1, 10229, Note_off_c, 0, 62, 64
1, 10229, Note_off_c, 0, 66, 64
1, 10229, Note_off_c, 0, 57, 64
1, 10229, Note_off_c, 4, 54, 64
1, 10229, Note_off_c, 4, 45, 64
1, 10230, Note_on_c, 0, 54, 44
1, 10230, Note_on_c, 0, 57, 78
1, 10230, Note_on_c, 0, 62, 58
1, 10230, Note_on_c, 4, 45, 85
1, 10230, Note_on_c, 4, 50, 105
1, 10230, Note_on_c, 4, 54, 81
1, 10259, Note_off_c, 4, 54, 64
1, 10259, Note_off_c, 0, 57, 64
1, 10259, Note_off_c, 0, 62, 64
1, 10259, Note_off_c, 0, 54, 64
1, 10259, Note_off_c, 4, 50, 64
1, 10259, Note_off_c, 4, 45, 64
1, 10260, Note_on_c, 0, 57, 57
1, 10260, Note_on_c, 0, 62, 91
1, 10260, Note_on_c, 0, 66, 77
1, 10260, Note_on_c, 4, 50, 109
1, 10260, Note_on_c, 4, 54, 89
1, 10260, Note_on_c, 4, 57, 109
1, 10289, Note_off_c, 4, 57, 64
1, 10289, Note_off_c, 0, 62, 64
1, 10289, Note_off_c, 0, 66, 64
1, 10289, Note_off_c, 0, 57, 64
1, 10289, Note_off_c, 4, 54, 64
1, 10289, Note_off_c, 4, 50, 64
1, 10290, Note_on_c, 0, 54, 35
1, 10290, Note_on_c, 0, 57, 79
1, 10290, Note_on_c, 0, 62, 56
1, 10290, Note_on_c, 4, 50, 111
1, 10290, Note_on_c, 4, 54, 100
1, 10290, Note_on_c, 4, 57, 100
1, 10319, Note_off_c, 4, 57, 64
1, 10319, Note_off_c, 0, 57, 64
1, 10319, Note_off_c, 0, 62, 64
1, 10319, Note_off_c, 0, 54, 64
1, 10319, Note_off_c, 4, 54, 64
1, 10319, Note_off_c, 4, 50, 64
1, 10320, Note_on_c, 0, 54, 35
1, 10320, Note_on_c, 0, 57, 85
1, 10320, Note_on_c, 0, 62, 79
1, 10320, Note_on_c, 4, 45, 90
1, 10320, Note_on_c, 4, 50, 105
1, 10379, Note_off_c, 4, 50, 64
1, 10379, Note_off_c, 0, 62, 64
1, 10379, Note_off_c, 0, 54, 64
1, 10379, Note_off_c, 0, 57, 64
1, 10379, Note_off_c, 4, 45, 64
1, 10380, Note_on_c, 0, 57, 69
1, 10380, Note_on_c, 0, 62, 98
1, 10380, Note_on_c, 0, 66, 74
1, 10380, Note_on_c, 3, 59, 116
1, 10380, Note_on_c, 4, 45, 100
1, 10380, Note_on_c, 4, 50, 111
1, 10380, Note_on_c, 4, 54, 89
1, 10380, Lyric_t, "So "
1, 10409, Note_off_c, 3, 59, 64
1, 10440, Note_on_c, 3, 59, 111
1, 10440, Lyric_t, "wake "
1, 10469, Note_off_c, 3, 59, 64
1, 10469, Note_off_c, 4, 54, 64
1, 10469, Note_off_c, 0, 62, 64
1, 10469, Note_off_c, 0, 66, 64
1, 10469, Note_off_c, 0, 57, 64
1, 10469, Note_off_c, 4, 50, 64
1, 10469, Note_off_c, 4, 45, 64
1, 10470, Note_on_c, 0, 54, 44
1, 10470, Note_on_c, 0, 57, 78
1, 10470, Note_on_c, 0, 62, 58
1, 10470, Note_on_c, 4, 45, 85
1, 10470, Note_on_c, 4, 50, 105
1, 10470, Note_on_c, 4, 54, 81
1, 10499, Note_off_c, 4, 54, 64
1, 10499, Note_off_c, 0, 57, 64
1, 10499, Note_off_c, 0, 62, 64
1, 10499, Note_off_c, 0, 54, 64
1, 10499, Note_off_c, 4, 50, 64
1, 10499, Note_off_c, 4, 45, 64
1, 10500, Note_on_c, 0, 57, 57
1, 10500, Note_on_c, 0, 62, 91
1, 10500, Note_on_c, 0, 66, 77
1, 10500, Note_on_c, 3, 61, 119
1, 10500, Note_on_c, 4, 50, 109
1, 10500, Note_on_c, 4, 54, 89
1, 10500, Note_on_c, 4, 57, 109
1, 10500, Lyric_t, "me "
1, 10529, Note_off_c, 4, 57, 64
1, 10529, Note_off_c, 4, 50, 64
1, 10529, Note_off_c, 0, 62, 64
1, 10529, Note_off_c, 0, 66, 64
1, 10529, Note_off_c, 0, 57, 64
1, 10529, Note_off_c, 4, 54, 64
1, 10529, Note_off_c, 3, 61, 64
1, 10530, Note_on_c, 0, 54, 35
1, 10530, Note_on_c, 0, 57, 79
1, 10530, Note_on_c, 0, 62, 56
1, 10530, Note_on_c, 4, 50, 111
1, 10530, Note_on_c, 4, 54, 100
1, 10530, Note_on_c, 4, 57, 100
1, 10559, Note_off_c, 4, 57, 64
1, 10559, Note_off_c, 0, 57, 64
1, 10559, Note_off_c, 0, 62, 64
1, 10559, Note_off_c, 0, 54, 64
1, 10559, Note_off_c, 4, 54, 64
1, 10559, Note_off_c, 4, 50, 64
1, 10560, Note_on_c, 0, 59, 58
1, 10560, Note_on_c, 0, 62, 91
1, 10560, Note_on_c, 1, 35, 100
1, 10560, Note_on_c, 3, 62, 120
1, 10560, Note_on_c, 4, 47, 85
1, 10560, Note_on_c, 4, 54, 120
1, 10560, Note_on_c, 9, 35, 120
1, 10560, Lyric_t, "up "
1, 10589, Note_off_c, 9, 35, 64
1, 10619, Note_off_c, 4, 47, 64
1, 10619, Note_off_c, 0, 62, 64
1, 10619, Note_off_c, 0, 59, 64
1, 10619, Note_off_c, 4, 54, 64
1, 10620, Note_on_c, 0, 59, 79
1, 10620, Note_on_c, 0, 62, 95
1, 10620, Note_on_c, 0, 66, 74
1, 10620, Note_on_c, 4, 50, 92
1, 10620, Note_on_c, 4, 54, 87
1, 10620, Note_on_c, 4, 62, 95
1, 10620, Note_on_c, 9, 39, 120
1, 10649, Note_off_c, 9, 39, 64
1, 10649, Note_off_c, 3, 62, 64
1, 10679, Note_off_c, 1, 35, 64
1, 10680, Note_on_c, 1, 35, 100
1, 10680, Note_on_c, 3, 62, 119
1, 10680, Note_on_c, 9, 35, 120
1, 10680, Lyric_t, "when "
1, 10709, Note_off_c, 9, 35, 64
1, 10709, Note_off_c, 4, 62, 64
1, 10709, Note_off_c, 4, 50, 64
1, 10709, Note_off_c, 0, 62, 64
1, 10709, Note_off_c, 0, 59, 64
1, 10709, Note_off_c, 0, 66, 64
1, 10709, Note_off_c, 4, 54, 64
1, 10710, Note_on_c, 0, 59, 71
1, 10710, Note_on_c, 0, 62, 91
1, 10710, Note_on_c, 0, 66, 60
1, 10710, Note_on_c, 4, 54, 109
1, 10710, Note_on_c, 4, 59, 95
1, 10739, Note_off_c, 4, 59, 64
1, 10739, Note_off_c, 0, 66, 64
1, 10739, Note_off_c, 0, 62, 64
1, 10739, Note_off_c, 0, 59, 64
1, 10739, Note_off_c, 4, 54, 64
1, 10740, Note_on_c, 0, 62, 80
1, 10740, Note_on_c, 0, 66, 62
1, 10740, Note_on_c, 0, 71, 91
1, 10740, Note_on_c, 4, 50, 103
1, 10740, Note_on_c, 4, 54, 115
1, 10740, Note_on_c, 9, 39, 120
1, 10769, Note_off_c, 9, 39, 64
1, 10769, Note_off_c, 4, 54, 64
1, 10769, Note_off_c, 0, 71, 64
1, 10769, Note_off_c, 3, 62, 64
1, 10769, Note_off_c, 0, 62, 64
1, 10769, Note_off_c, 0, 66, 64
1, 10769, Note_off_c, 4, 50, 64
1, 10770, Note_on_c, 0, 59, 51
1, 10770, Note_on_c, 0, 62, 85
1, 10770, Note_on_c, 0, 66, 59
1, 10770, Note_on_c, 4, 47, 92
1, 10770, Note_on_c, 4, 52, 98
1, 10799, Note_off_c, 4, 52, 64
1, 10799, Note_off_c, 0, 59, 64
1, 10799, Note_off_c, 0, 62, 64
1, 10799, Note_off_c, 1, 35, 64
1, 10799, Note_off_c, 4, 47, 64
1, 10799, Note_off_c, 0, 66, 64
1, 10800, Note_on_c, 0, 55, 74
1, 10800, Note_on_c, 0, 59, 94
1, 10800, Note_on_c, 0, 62, 91
1, 10800, Note_on_c, 1, 31, 100
1, 10800, Note_on_c, 3, 59, 103
1, 10800, Note_on_c, 4, 43, 98
1, 10800, Note_on_c, 4, 50, 116
1, 10800, Note_on_c, 9, 35, 120
1, 10800, Lyric_t, "it's "
1, 10829, Note_off_c, 9, 35, 64
1, 10859, Note_off_c, 4, 50, 64
1, 10859, Note_off_c, 0, 62, 64
1, 10859, Note_off_c, 0, 59, 64
1, 10859, Note_off_c, 0, 55, 64
1, 10859, Note_off_c, 4, 43, 64
1, 10860, Note_on_c, 0, 59, 70
1, 10860, Note_on_c, 0, 62, 94
1, 10860, Note_on_c, 0, 67, 101
1, 10860, Note_on_c, 4, 50, 79
1, 10860, Note_on_c, 4, 55, 111
1, 10860, Note_on_c, 4, 59, 100
1, 10860, Note_on_c, 9, 39, 120
1, 10889, Note_off_c, 9, 39, 64
1, 10889, Note_off_c, 3, 59, 64
1, 10919, Note_off_c, 1, 31, 64
1, 10920, Note_on_c, 1, 31, 100
1, 10920, Note_on_c, 3, 57, 113
1, 10920, Note_on_c, 9, 35, 120
1, 10920, Lyric_t, "all "
1, 10949, Note_off_c, 9, 35, 64
1, 10949, Note_off_c, 4, 59, 64
1, 10949, Note_off_c, 4, 50, 64
1, 10949, Note_off_c, 0, 62, 64
1, 10949, Note_off_c, 0, 59, 64
1, 10949, Note_off_c, 0, 67, 64
1, 10949, Note_off_c, 4, 55, 64
1, 10950, Note_on_c, 0, 59, 52
1, 10950, Note_on_c, 0, 62, 85
1, 10950, Note_on_c, 0, 67, 94
1, 10950, Note_on_c, 4, 50, 82
1, 10950, Note_on_c, 4, 55, 98
1, 10950, Note_on_c, 4, 59, 85
1, 10979, Note_off_c, 4, 59, 64
1, 10979, Note_off_c, 4, 55, 64
1, 10979, Note_off_c, 0, 67, 64
1, 10979, Note_off_c, 3, 57, 64
1, 10979, Note_off_c, 0, 59, 64
1, 10979, Note_off_c, 0, 62, 64
1, 10979, Note_off_c, 4, 50, 64
1, 10980, Note_on_c, 0, 62, 78
1, 10980, Note_on_c, 0, 67, 100
1, 10980, Note_on_c, 0, 71, 46
1, 10980, Note_on_c, 4, 43, 109
1, 10980, Note_on_c, 4, 50, 109
1, 10980, Note_on_c, 9, 39, 120
1, 11009, Note_off_c, 9, 39, 64
1, 11009, Note_off_c, 4, 43, 64
1, 11009, Note_off_c, 0, 62, 64
1, 11009, Note_off_c, 0, 67, 64
1, 11009, Note_off_c, 0, 71, 64
1, 11009, Note_off_c, 4, 50, 64
1, 11010, Note_on_c, 0, 59, 45
1, 11010, Note_on_c, 0, 62, 73
1, 11010, Note_on_c, 0, 67, 86
1, 11010, Note_on_c, 3, 57, 111
1, 11010, Note_on_c, 4, 43, 101
1, 11010, Note_on_c, 4, 52, 116
1, 11010, Lyric_t, "o"
1, 11039, Note_off_c, 4, 52, 64
1, 11039, Note_off_c, 0, 67, 64
1, 11039, Note_off_c, 0, 59, 64
1, 11039, Note_off_c, 0, 62, 64
1, 11039, Note_off_c, 1, 31, 64
1, 11039, Note_off_c, 4, 43, 64
1, 11040, Note_on_c, 0, 54, 35
1, 11040, Note_on_c, 0, 57, 85
1, 11040, Note_on_c, 0, 62, 79
1, 11040, Note_on_c, 1, 38, 100
1, 11040, Note_on_c, 4, 45, 90
1, 11040, Note_on_c, 4, 50, 105
1, 11040, Note_on_c, 9, 35, 120
1, 11069, Note_off_c, 9, 35, 64
1, 11069, Note_off_c, 3, 57, 64
1, 11099, Note_off_c, 4, 45, 64
1, 11099, Note_off_c, 0, 57, 64
1, 11099, Note_off_c, 0, 54, 64
1, 11099, Note_off_c, 0, 62, 64
1, 11099, Note_off_c, 4, 50, 64
1, 11100, Note_on_c, 0, 57, 69
1, 11100, Note_on_c, 0, 62, 98
1, 11100, Note_on_c, 0, 66, 74
1, 11100, Note_on_c, 3, 50, 120
1, 11100, Note_on_c, 4, 45, 100
1, 11100, Note_on_c, 4, 50, 111
1, 11100, Note_on_c, 4, 54, 89
1, 11100, Note_on_c, 9, 39, 119
1, 11100, Lyric_t, "ver "
1, 11100, Lyric_t, "\015"
1, 11129, Note_off_c, 9, 39, 64
1, 11129, Note_off_c, 3, 50, 64
1, 11159, Note_off_c, 1, 38, 64
1, 11160, Note_on_c, 1, 38, 100
1, 11160, Note_on_c, 9, 35, 120
1, 11189, Note_off_c, 9, 35, 64
1, 11189, Note_off_c, 4, 54, 64
1, 11189, Note_off_c, 4, 45, 64
1, 11189, Note_off_c, 0, 62, 64
1, 11189, Note_off_c, 0, 66, 64
1, 11189, Note_off_c, 0, 57, 64
1, 11189, Note_off_c, 4, 50, 64
1, 11190, Note_on_c, 0, 54, 44
1, 11190, Note_on_c, 0, 57, 78
1, 11190, Note_on_c, 0, 62, 58
1, 11190, Note_on_c, 4, 45, 85
1, 11190, Note_on_c, 4, 50, 105
1, 11190, Note_on_c, 4, 54, 81
1, 11219, Note_off_c, 4, 54, 64
1, 11219, Note_off_c, 4, 45, 64
1, 11219, Note_off_c, 0, 54, 64
1, 11219, Note_off_c, 0, 57, 64
1, 11219, Note_off_c, 0, 62, 64
1, 11219, Note_off_c, 4, 50, 64
1, 11220, Note_on_c, 0, 57, 57
1, 11220, Note_on_c, 0, 62, 91
1, 11220, Note_on_c, 0, 66, 77
1, 11220, Note_on_c, 4, 50, 109
1, 11220, Note_on_c, 4, 54, 89
1, 11220, Note_on_c, 4, 57, 109
1, 11220, Note_on_c, 9, 39, 120
1, 11249, Note_off_c, 9, 39, 64
1, 11249, Note_off_c, 4, 57, 64
1, 11249, Note_off_c, 4, 50, 64
1, 11249, Note_off_c, 0, 57, 64
1, 11249, Note_off_c, 0, 62, 64
1, 11249, Note_off_c, 0, 66, 64
1, 11249, Note_off_c, 4, 54, 64
1, 11250, Note_on_c, 0, 54, 35
1, 11250, Note_on_c, 0, 57, 79
1, 11250, Note_on_c, 0, 62, 56
1, 11250, Note_on_c, 4, 50, 111
1, 11250, Note_on_c, 4, 54, 100
1, 11250, Note_on_c, 4, 57, 100
1, 11279, Note_off_c, 4, 57, 64
1, 11279, Note_off_c, 4, 50, 64
1, 11279, Note_off_c, 0, 54, 64
1, 11279, Note_off_c, 0, 57, 64
1, 11279, Note_off_c, 1, 38, 64
1, 11279, Note_off_c, 4, 54, 64
1, 11279, Note_off_c, 0, 62, 64
1, 11280, Note_on_c, 0, 54, 49
1, 11280, Note_on_c, 0, 57, 85
1, 11280, Note_on_c, 0, 62, 75
1, 11280, Note_on_c, 1, 38, 100
1, 11280, Note_on_c, 4, 45, 105
1, 11280, Note_on_c, 4, 50, 116
1, 11280, Note_on_c, 9, 35, 120
1, 11309, Note_off_c, 9, 35, 64
1, 11339, Note_off_c, 4, 45, 64
1, 11339, Note_off_c, 0, 57, 64
1, 11339, Note_off_c, 0, 54, 64
1, 11339, Note_off_c, 0, 62, 64
1, 11339, Note_off_c, 4, 50, 64
1, 11340, Note_on_c, 0, 57, 56
1, 11340, Note_on_c, 0, 62, 84
1, 11340, Note_on_c, 0, 66, 49
1, 11340, Note_on_c, 4, 50, 105
1, 11340, Note_on_c, 4, 54, 115
1, 11340, Note_on_c, 9, 39, 115
1, 11369, Note_off_c, 9, 39, 64
1, 11369, Note_off_c, 4, 50, 64
1, 11369, Note_off_c, 0, 57, 64
1, 11369, Note_off_c, 0, 62, 64
1, 11369, Note_off_c, 0, 66, 64
1, 11369, Note_off_c, 4, 54, 64
1, 11370, Note_on_c, 0, 57, 84
1, 11370, Note_on_c, 0, 62, 94
1, 11370, Note_on_c, 0, 66, 76
1, 11370, Note_on_c, 4, 50, 100
1, 11370, Note_on_c, 4, 54, 92
1, 11399, Note_off_c, 4, 54, 64
1, 11399, Note_off_c, 0, 57, 64
1, 11399, Note_off_c, 0, 62, 64
1, 11399, Note_off_c, 1, 38, 64
1, 11399, Note_off_c, 4, 50, 64
1, 11399, Note_off_c, 0, 66, 64
1, 11400, Note_on_c, 0, 52, 47
1, 11400, Note_on_c, 0, 57, 89
1, 11400, Note_on_c, 0, 61, 52
1, 11400, Note_on_c, 1, 33, 100
1, 11400, Note_on_c, 3, 59, 118
1, 11400, Note_on_c, 4, 45, 101
1, 11400, Note_on_c, 4, 52, 101
1, 11400, Note_on_c, 9, 35, 120
1, 11400, Lyric_t, "When "
1, 11429, Note_off_c, 9, 35, 64
1, 11459, Note_off_c, 4, 52, 64
1, 11459, Note_off_c, 3, 59, 64
1, 11459, Note_off_c, 0, 57, 64
1, 11459, Note_off_c, 0, 52, 64
1, 11459, Note_off_c, 0, 61, 64
1, 11459, Note_off_c, 4, 45, 64
1, 11460, Note_on_c, 0, 57, 51
1, 11460, Note_on_c, 0, 61, 52
1, 11460, Note_on_c, 0, 64, 78
1, 11460, Note_on_c, 3, 61, 120
1, 11460, Note_on_c, 4, 49, 89
1, 11460, Note_on_c, 4, 52, 101
1, 11460, Note_on_c, 4, 57, 89
1, 11460, Note_on_c, 9, 39, 119
1, 11460, Lyric_t, "I'm "
1, 11489, Note_off_c, 9, 39, 64
1, 11489, Note_off_c, 0, 64, 64
1, 11489, Note_off_c, 4, 57, 64
1, 11489, Note_off_c, 3, 61, 64
1, 11489, Note_off_c, 0, 57, 64
1, 11489, Note_off_c, 0, 61, 64
1, 11489, Note_off_c, 4, 52, 64
1, 11489, Note_off_c, 4, 49, 64
1, 11490, Note_on_c, 0, 57, 73
1, 11490, Note_on_c, 0, 61, 52
1, 11490, Note_on_c, 0, 64, 83
1, 11490, Note_on_c, 4, 49, 119
1, 11490, Note_on_c, 4, 52, 118
1, 11490, Note_on_c, 4, 57, 105
1, 11519, Note_off_c, 4, 57, 64
1, 11519, Note_off_c, 4, 49, 64
1, 11519, Note_off_c, 0, 57, 64
1, 11519, Note_off_c, 0, 61, 64
1, 11519, Note_off_c, 1, 33, 64
1, 11519, Note_off_c, 4, 52, 64
1, 11519, Note_off_c, 0, 64, 64
1, 11520, Note_on_c, 0, 59, 58
1, 11520, Note_on_c, 0, 62, 91
1, 11520, Note_on_c, 1, 35, 100
1, 11520, Note_on_c, 3, 62, 116
1, 11520, Note_on_c, 4, 47, 85
1, 11520, Note_on_c, 4, 54, 120
1, 11520, Note_on_c, 9, 35, 120
1, 11520, Lyric_t, "wi"
1, 11549, Note_off_c, 9, 35, 64
1, 11579, Note_off_c, 4, 47, 64
1, 11579, Note_off_c, 0, 62, 64
1, 11579, Note_off_c, 0, 59, 64
1, 11579, Note_off_c, 4, 54, 64
1, 11580, Note_on_c, 0, 59, 79
1, 11580, Note_on_c, 0, 62, 95
1, 11580, Note_on_c, 0, 66, 74
1, 11580, Note_on_c, 4, 50, 92
1, 11580, Note_on_c, 4, 54, 87
1, 11580, Note_on_c, 4, 62, 95
1, 11580, Note_on_c, 9, 39, 119
1, 11609, Note_off_c, 9, 39, 64
1, 11609, Note_off_c, 3, 62, 64
1, 11639, Note_off_c, 1, 35, 64
1, 11640, Note_on_c, 1, 35, 100
1, 11640, Note_on_c, 3, 62, 120
1, 11640, Note_on_c, 9, 35, 120
1, 11640, Lyric_t, "ser "
1, 11669, Note_off_c, 9, 35, 64
1, 11669, Note_off_c, 4, 62, 64
1, 11669, Note_off_c, 4, 50, 64
1, 11669, Note_off_c, 0, 62, 64
1, 11669, Note_off_c, 0, 59, 64
1, 11669, Note_off_c, 0, 66, 64
1, 11669, Note_off_c, 4, 54, 64
1, 11670, Note_on_c, 0, 59, 71
1, 11670, Note_on_c, 0, 62, 91
1, 11670, Note_on_c, 0, 66, 60
1, 11670, Note_on_c, 4, 54, 109
1, 11670, Note_on_c, 4, 59, 95
1, 11699, Note_off_c, 4, 59, 64
1, 11699, Note_off_c, 0, 66, 64
1, 11699, Note_off_c, 0, 62, 64
1, 11699, Note_off_c, 0, 59, 64
1, 11699, Note_off_c, 4, 54, 64
1, 11700, Note_on_c, 0, 62, 80
1, 11700, Note_on_c, 0, 66, 62
1, 11700, Note_on_c, 0, 71, 91
1, 11700, Note_on_c, 4, 50, 103
1, 11700, Note_on_c, 4, 54, 115
1, 11700, Note_on_c, 9, 39, 120
1, 11729, Note_off_c, 9, 39, 64
1, 11729, Note_off_c, 4, 54, 64
1, 11729, Note_off_c, 0, 71, 64
1, 11729, Note_off_c, 0, 66, 64
1, 11729, Note_off_c, 0, 62, 64
1, 11729, Note_off_c, 4, 50, 64
1, 11730, Note_on_c, 0, 59, 51
1, 11730, Note_on_c, 0, 62, 85
1, 11730, Note_on_c, 0, 66, 59
1, 11730, Note_on_c, 4, 47, 92
1, 11730, Note_on_c, 4, 52, 98
1, 11759, Note_off_c, 4, 52, 64
1, 11759, Note_off_c, 0, 66, 64
1, 11759, Note_off_c, 3, 62, 64
1, 11759, Note_off_c, 0, 59, 64
1, 11759, Note_off_c, 1, 35, 64
1, 11759, Note_off_c, 4, 47, 64
1, 11759, Note_off_c, 0, 62, 64
1, 11760, Note_on_c, 0, 55, 74
1, 11760, Note_on_c, 0, 59, 94
1, 11760, Note_on_c, 0, 62, 91
1, 11760, Note_on_c, 1, 31, 100
1, 11760, Note_on_c, 3, 59, 116
1, 11760, Note_on_c, 4, 43, 98
1, 11760, Note_on_c, 4, 50, 116
1, 11760, Note_on_c, 9, 35, 120
1, 11760, Lyric_t, "and "
1, 11789, Note_off_c, 9, 35, 64
1, 11819, Note_off_c, 4, 50, 64
1, 11819, Note_off_c, 0, 62, 64
1, 11819, Note_off_c, 0, 59, 64
1, 11819, Note_off_c, 0, 55, 64
1, 11819, Note_off_c, 4, 43, 64
1, 11820, Note_on_c, 0, 59, 70
1, 11820, Note_on_c, 0, 62, 94
1, 11820, Note_on_c, 0, 67, 101
1, 11820, Note_on_c, 4, 50, 79
1, 11820, Note_on_c, 4, 55, 111
1, 11820, Note_on_c, 4, 59, 100
1, 11820, Note_on_c, 9, 39, 120
1, 11849, Note_off_c, 9, 39, 64
1, 11849, Note_off_c, 3, 59, 64
1, 11879, Note_off_c, 1, 31, 64
1, 11880, Note_on_c, 1, 31, 100
1, 11880, Note_on_c, 3, 57, 120
1, 11880, Note_on_c, 9, 35, 120
1, 11880, Lyric_t, "I'm "
1, 11909, Note_off_c, 9, 35, 64
1, 11909, Note_off_c, 4, 59, 64
1, 11909, Note_off_c, 4, 50, 64
1, 11909, Note_off_c, 0, 62, 64
1, 11909, Note_off_c, 0, 59, 64
1, 11909, Note_off_c, 0, 67, 64
1, 11909, Note_off_c, 4, 55, 64
1, 11910, Note_on_c, 0, 59, 52
1, 11910, Note_on_c, 0, 62, 85
1, 11910, Note_on_c, 0, 67, 94
1, 11910, Note_on_c, 4, 50, 82
1, 11910, Note_on_c, 4, 55, 98
1, 11910, Note_on_c, 4, 59, 85
1, 11939, Note_off_c, 4, 59, 64
1, 11939, Note_off_c, 4, 55, 64
1, 11939, Note_off_c, 0, 67, 64
1, 11939, Note_off_c, 3, 57, 64
1, 11939, Note_off_c, 0, 59, 64
1, 11939, Note_off_c, 0, 62, 64
1, 11939, Note_off_c, 4, 50, 64
1, 11940, Note_on_c, 0, 62, 78
1, 11940, Note_on_c, 0, 67, 100
1, 11940, Note_on_c, 0, 71, 46
1, 11940, Note_on_c, 4, 43, 109
1, 11940, Note_on_c, 4, 50, 109
1, 11940, Note_on_c, 9, 39, 120
1, 11969, Note_off_c, 9, 39, 64
1, 11969, Note_off_c, 4, 43, 64
1, 11969, Note_off_c, 0, 62, 64
1, 11969, Note_off_c, 0, 67, 64
1, 11969, Note_off_c, 0, 71, 64
1, 11969, Note_off_c, 4, 50, 64
1, 11970, Note_on_c, 0, 59, 45
1, 11970, Note_on_c, 0, 62, 73
1, 11970, Note_on_c, 0, 67, 86
1, 11970, Note_on_c, 3, 59, 120
1, 11970, Note_on_c, 4, 43, 101
1, 11970, Note_on_c, 4, 52, 116
1, 11970, Lyric_t, "ol"
1, 11999, Note_off_c, 4, 52, 64
1, 11999, Note_off_c, 0, 67, 64
1, 11999, Note_off_c, 0, 59, 64
1, 11999, Note_off_c, 0, 62, 64
1, 11999, Note_off_c, 1, 31, 64
1, 11999, Note_off_c, 4, 43, 64
1, 12000, Note_on_c, 0, 54, 35
1, 12000, Note_on_c, 0, 57, 85
1, 12000, Note_on_c, 0, 62, 79
1, 12000, Note_on_c, 1, 38, 100
1, 12000, Note_on_c, 4, 45, 90
1, 12000, Note_on_c, 4, 50, 105
1, 12000, Note_on_c, 9, 35, 120
1, 12029, Note_off_c, 9, 35, 64
1, 12059, Note_off_c, 3, 59, 64
1, 12059, Note_off_c, 0, 62, 64
1, 12059, Note_off_c, 0, 54, 64
1, 12059, Note_off_c, 4, 50, 64
1, 12059, Note_off_c, 0, 57, 64
1, 12059, Note_off_c, 4, 45, 64
1, 12060, Note_on_c, 0, 57, 69
1, 12060, Note_on_c, 0, 62, 98
1, 12060, Note_on_c, 0, 66, 74
1, 12060, Note_on_c, 3, 57, 120
1, 12060, Note_on_c, 4, 45, 100
1, 12060, Note_on_c, 4, 50, 111
1, 12060, Note_on_c, 4, 54, 89
1, 12060, Note_on_c, 9, 39, 120
1, 12060, Lyric_t, "der "
1, 12060, Lyric_t, "\015"
1, 12089, Note_off_c, 9, 39, 64
1, 12089, Note_off_c, 3, 57, 64
1, 12119, Note_off_c, 1, 38, 64
1, 12120, Note_on_c, 1, 38, 100
1, 12120, Note_on_c, 9, 35, 120
1, 12149, Note_off_c, 9, 35, 64
1, 12149, Note_off_c, 4, 54, 64
1, 12149, Note_off_c, 4, 45, 64
1, 12149, Note_off_c, 0, 62, 64
1, 12149, Note_off_c, 0, 66, 64
1, 12149, Note_off_c, 0, 57, 64
1, 12149, Note_off_c, 4, 50, 64
1, 12150, Note_on_c, 0, 54, 44
1, 12150, Note_on_c, 0, 57, 78
1, 12150, Note_on_c, 0, 62, 58
1, 12150, Note_on_c, 4, 45, 85
1, 12150, Note_on_c, 4, 50, 105
1, 12150, Note_on_c, 4, 54, 81
1, 12179, Note_off_c, 4, 54, 64
1, 12179, Note_off_c, 4, 45, 64
1, 12179, Note_off_c, 0, 54, 64
1, 12179, Note_off_c, 0, 57, 64
1, 12179, Note_off_c, 0, 62, 64
1, 12179, Note_off_c, 4, 50, 64
1, 12180, Note_on_c, 0, 57, 57
1, 12180, Note_on_c, 0, 62, 91
1, 12180, Note_on_c, 0, 66, 77
1, 12180, Note_on_c, 4, 50, 109
1, 12180, Note_on_c, 4, 54, 89
1, 12180, Note_on_c, 4, 57, 109
1, 12180, Note_on_c, 9, 39, 120
1, 12209, Note_off_c, 9, 39, 64
1, 12209, Note_off_c, 4, 57, 64
1, 12209, Note_off_c, 4, 50, 64
1, 12209, Note_off_c, 0, 57, 64
1, 12209, Note_off_c, 0, 62, 64
1, 12209, Note_off_c, 0, 66, 64
1, 12209, Note_off_c, 4, 54, 64
1, 12210, Note_on_c, 0, 54, 35
1, 12210, Note_on_c, 0, 57, 79
1, 12210, Note_on_c, 0, 62, 56
1, 12210, Note_on_c, 4, 50, 111
1, 12210, Note_on_c, 4, 54, 100
1, 12210, Note_on_c, 4, 57, 100
1, 12239, Note_off_c, 4, 57, 64
1, 12239, Note_off_c, 4, 50, 64
1, 12239, Note_off_c, 0, 54, 64
1, 12239, Note_off_c, 0, 57, 64
1, 12239, Note_off_c, 1, 38, 64
1, 12239, Note_off_c, 4, 54, 64
1, 12239, Note_off_c, 0, 62, 64
1, 12240, Note_on_c, 0, 54, 49
1, 12240, Note_on_c, 0, 57, 85
1, 12240, Note_on_c, 0, 62, 75
1, 12240, Note_on_c, 1, 38, 100
1, 12240, Note_on_c, 4, 45, 105
1, 12240, Note_on_c, 4, 50, 116
1, 12240, Note_on_c, 9, 35, 119
1, 12269, Note_off_c, 9, 35, 64
1, 12299, Note_off_c, 4, 45, 64
1, 12299, Note_off_c, 0, 57, 64
1, 12299, Note_off_c, 0, 54, 64
1, 12299, Note_off_c, 0, 62, 64
1, 12299, Note_off_c, 4, 50, 64
1, 12300, Note_on_c, 0, 57, 56
1, 12300, Note_on_c, 0, 62, 84
1, 12300, Note_on_c, 0, 66, 49
1, 12300, Note_on_c, 4, 50, 105
1, 12300, Note_on_c, 4, 54, 115
1, 12300, Note_on_c, 9, 39, 120
1, 12329, Note_off_c, 9, 39, 64
1, 12329, Note_off_c, 4, 50, 64
1, 12329, Note_off_c, 0, 57, 64
1, 12329, Note_off_c, 0, 62, 64
1, 12329, Note_off_c, 0, 66, 64
1, 12329, Note_off_c, 4, 54, 64
1, 12330, Note_on_c, 0, 57, 84
1, 12330, Note_on_c, 0, 62, 94
1, 12330, Note_on_c, 0, 66, 76
1, 12330, Note_on_c, 4, 50, 100
1, 12330, Note_on_c, 4, 54, 92
1, 12359, Note_off_c, 4, 54, 64
1, 12359, Note_off_c, 0, 57, 64
1, 12359, Note_off_c, 0, 62, 64
1, 12359, Note_off_c, 1, 38, 64
1, 12359, Note_off_c, 4, 50, 64
1, 12359, Note_off_c, 0, 66, 64
1, 12360, Note_on_c, 0, 52, 47
1, 12360, Note_on_c, 0, 57, 89
1, 12360, Note_on_c, 0, 61, 52
1, 12360, Note_on_c, 1, 30, 100
1, 12360, Note_on_c, 3, 59, 119
1, 12360, Note_on_c, 4, 45, 101
1, 12360, Note_on_c, 4, 52, 101
1, 12360, Note_on_c, 9, 35, 120
1, 12360, Lyric_t, "All "
1, 12389, Note_off_c, 9, 35, 64
1, 12389, Note_off_c, 3, 59, 64
1, 12419, Note_off_c, 4, 45, 64
1, 12419, Note_off_c, 0, 57, 64
1, 12419, Note_off_c, 0, 52, 64
1, 12419, Note_off_c, 0, 61, 64
1, 12419, Note_off_c, 4, 52, 64
1, 12420, Note_on_c, 0, 57, 51
1, 12420, Note_on_c, 0, 61, 52
1, 12420, Note_on_c, 0, 64, 78
1, 12420, Note_on_c, 3, 61, 120
1, 12420, Note_on_c, 4, 49, 89
1, 12420, Note_on_c, 4, 52, 101
1, 12420, Note_on_c, 4, 57, 89
1, 12420, Note_on_c, 9, 39, 120
1, 12420, Lyric_t, "this "
1, 12449, Note_off_c, 9, 39, 64
1, 12449, Note_off_c, 0, 64, 64
1, 12449, Note_off_c, 4, 57, 64
1, 12449, Note_off_c, 3, 61, 64
1, 12449, Note_off_c, 0, 57, 64
1, 12449, Note_off_c, 0, 61, 64
1, 12449, Note_off_c, 4, 52, 64
1, 12449, Note_off_c, 4, 49, 64
1, 12450, Note_on_c, 0, 57, 73
1, 12450, Note_on_c, 0, 61, 52
1, 12450, Note_on_c, 0, 64, 83
1, 12450, Note_on_c, 4, 49, 119
1, 12450, Note_on_c, 4, 52, 118
1, 12450, Note_on_c, 4, 57, 105
1, 12479, Note_off_c, 4, 57, 64
1, 12479, Note_off_c, 4, 49, 64
1, 12479, Note_off_c, 0, 57, 64
1, 12479, Note_off_c, 0, 61, 64
1, 12479, Note_off_c, 1, 30, 64
1, 12479, Note_off_c, 4, 52, 64
1, 12479, Note_off_c, 0, 64, 64
1, 12480, Note_on_c, 0, 59, 58
1, 12480, Note_on_c, 0, 62, 91
1, 12480, Note_on_c, 1, 35, 100
1, 12480, Note_on_c, 3, 62, 116
1, 12480, Note_on_c, 4, 47, 85
1, 12480, Note_on_c, 4, 54, 120
1, 12480, Note_on_c, 9, 35, 120
1, 12480, Lyric_t, "time "
1, 12509, Note_off_c, 9, 35, 64
1, 12539, Note_off_c, 4, 47, 64
1, 12539, Note_off_c, 0, 62, 64
1, 12539, Note_off_c, 0, 59, 64
1, 12539, Note_off_c, 4, 54, 64
1, 12540, Note_on_c, 0, 59, 79
1, 12540, Note_on_c, 0, 62, 95
1, 12540, Note_on_c, 0, 66, 74
1, 12540, Note_on_c, 4, 50, 92
1, 12540, Note_on_c, 4, 54, 87
1, 12540, Note_on_c, 4, 62, 95
1, 12540, Note_on_c, 9, 39, 120
1, 12569, Note_off_c, 9, 39, 64
1, 12569, Note_off_c, 3, 62, 64
1, 12599, Note_off_c, 1, 35, 64
1, 12600, Note_on_c, 1, 35, 100
1, 12600, Note_on_c, 3, 66, 120
1, 12600, Note_on_c, 9, 35, 120
1, 12600, Lyric_t, "I "
1, 12629, Note_off_c, 9, 35, 64
1, 12629, Note_off_c, 0, 62, 64
1, 12629, Note_off_c, 4, 62, 64
1, 12629, Note_off_c, 3, 66, 64
1, 12629, Note_off_c, 0, 59, 64
1, 12629, Note_off_c, 0, 66, 64
1, 12629, Note_off_c, 4, 50, 64
1, 12629, Note_off_c, 4, 54, 64
1, 12630, Note_on_c, 0, 59, 71
1, 12630, Note_on_c, 0, 62, 91
1, 12630, Note_on_c, 0, 66, 60
1, 12630, Note_on_c, 4, 54, 109
1, 12630, Note_on_c, 4, 59, 95
1, 12659, Note_off_c, 4, 59, 64
1, 12659, Note_off_c, 0, 59, 64
1, 12659, Note_off_c, 0, 62, 64
1, 12659, Note_off_c, 0, 66, 64
1, 12659, Note_off_c, 4, 54, 64
1, 12660, Note_on_c, 0, 62, 80
1, 12660, Note_on_c, 0, 66, 62
1, 12660, Note_on_c, 0, 71, 91
1, 12660, Note_on_c, 3, 66, 120
1, 12660, Note_on_c, 4, 50, 103
1, 12660, Note_on_c, 4, 54, 115
1, 12660, Note_on_c, 9, 39, 120
1, 12660, Lyric_t, "was "
1, 12689, Note_off_c, 9, 39, 64
1, 12689, Note_off_c, 4, 54, 64
1, 12689, Note_off_c, 3, 66, 64
1, 12689, Note_off_c, 0, 62, 64
1, 12689, Note_off_c, 0, 66, 64
1, 12689, Note_off_c, 0, 71, 64
1, 12689, Note_off_c, 4, 50, 64
1, 12690, Note_on_c, 0, 59, 51
1, 12690, Note_on_c, 0, 62, 85
1, 12690, Note_on_c, 0, 66, 59
1, 12690, Note_on_c, 4, 47, 92
1, 12690, Note_on_c, 4, 52, 98
1, 12719, Note_off_c, 4, 52, 64
1, 12719, Note_off_c, 0, 59, 64
1, 12719, Note_off_c, 0, 62, 64
1, 12719, Note_off_c, 1, 35, 64
1, 12719, Note_off_c, 4, 47, 64
1, 12719, Note_off_c, 0, 66, 64
1, 12720, Note_on_c, 0, 55, 74
1, 12720, Note_on_c, 0, 59, 94
1, 12720, Note_on_c, 0, 62, 91
1, 12720, Note_on_c, 1, 31, 100
1, 12720, Note_on_c, 3, 64, 116
1, 12720, Note_on_c, 4, 43, 98
1, 12720, Note_on_c, 4, 50, 116
1, 12720, Note_on_c, 9, 35, 120
1, 12720, Lyric_t, "fin"
1, 12749, Note_off_c, 9, 35, 64
1, 12779, Note_off_c, 4, 50, 64
1, 12779, Note_off_c, 3, 64, 64
1, 12779, Note_off_c, 0, 59, 64
1, 12779, Note_off_c, 0, 55, 64
1, 12779, Note_off_c, 0, 62, 64
1, 12779, Note_off_c, 4, 43, 64
1, 12780, Note_on_c, 0, 59, 70
1, 12780, Note_on_c, 0, 62, 94
1, 12780, Note_on_c, 0, 67, 101
1, 12780, Note_on_c, 4, 50, 79
1, 12780, Note_on_c, 4, 55, 111
1, 12780, Note_on_c, 4, 59, 100
1, 12780, Note_on_c, 9, 39, 120
1, 12809, Note_off_c, 9, 39, 64
1, 12810, Note_on_c, 3, 62, 120
1, 12810, Lyric_t, "ding "
1, 12839, Note_off_c, 3, 62, 64
1, 12839, Note_off_c, 1, 31, 64
1, 12840, Note_on_c, 1, 31, 100
1, 12840, Note_on_c, 9, 35, 120
1, 12869, Note_off_c, 9, 35, 64
1, 12869, Note_off_c, 0, 59, 64
1, 12869, Note_off_c, 4, 55, 64
1, 12869, Note_off_c, 0, 62, 64
1, 12869, Note_off_c, 0, 67, 64
1, 12869, Note_off_c, 4, 50, 64
1, 12869, Note_off_c, 4, 59, 64
1, 12870, Note_on_c, 0, 59, 52
1, 12870, Note_on_c, 0, 62, 85
1, 12870, Note_on_c, 0, 67, 94
1, 12870, Note_on_c, 3, 64, 120
1, 12870, Note_on_c, 4, 50, 82
1, 12870, Note_on_c, 4, 55, 98
1, 12870, Note_on_c, 4, 59, 85
1, 12870, Lyric_t, "my"
1, 12899, Note_off_c, 4, 59, 64
1, 12899, Note_off_c, 4, 55, 64
1, 12899, Note_off_c, 0, 67, 64
1, 12899, Note_off_c, 0, 59, 64
1, 12899, Note_off_c, 0, 62, 64
1, 12899, Note_off_c, 4, 50, 64
1, 12900, Note_on_c, 0, 62, 78
1, 12900, Note_on_c, 0, 67, 100
1, 12900, Note_on_c, 0, 71, 46
1, 12900, Note_on_c, 4, 43, 109
1, 12900, Note_on_c, 4, 50, 109
1, 12900, Note_on_c, 9, 39, 120
1, 12929, Note_off_c, 9, 39, 64
1, 12929, Note_off_c, 4, 50, 64
1, 12929, Note_off_c, 0, 71, 64
1, 12929, Note_off_c, 3, 64, 64
1, 12929, Note_off_c, 0, 62, 64
1, 12929, Note_off_c, 0, 67, 64
1, 12929, Note_off_c, 4, 43, 64
1, 12930, Note_on_c, 0, 59, 45
1, 12930, Note_on_c, 0, 62, 73
1, 12930, Note_on_c, 0, 67, 86
1, 12930, Note_on_c, 4, 43, 101
1, 12930, Note_on_c, 4, 52, 116
1, 12959, Note_off_c, 4, 52, 64
1, 12959, Note_off_c, 0, 59, 64
1, 12959, Note_off_c, 0, 62, 64
1, 12959, Note_off_c, 1, 31, 64
1, 12959, Note_off_c, 4, 43, 64
1, 12959, Note_off_c, 0, 67, 64
1, 12960, Note_on_c, 0, 54, 35
1, 12960, Note_on_c, 0, 57, 85
1, 12960, Note_on_c, 0, 62, 79
1, 12960, Note_on_c, 1, 38, 100
1, 12960, Note_on_c, 3, 62, 120
1, 12960, Note_on_c, 4, 45, 90
1, 12960, Note_on_c, 4, 50, 105
1, 12960, Note_on_c, 9, 35, 120
1, 12960, Lyric_t, "self "
1, 12960, Lyric_t, "\015"
1, 12989, Note_off_c, 9, 35, 64
1, 13019, Note_off_c, 4, 50, 64
1, 13019, Note_off_c, 0, 62, 64
1, 13019, Note_off_c, 0, 57, 64
1, 13019, Note_off_c, 0, 54, 64
1, 13019, Note_off_c, 4, 45, 64
1, 13020, Note_on_c, 0, 57, 69
1, 13020, Note_on_c, 0, 62, 98
1, 13020, Note_on_c, 0, 66, 74
1, 13020, Note_on_c, 4, 45, 100
1, 13020, Note_on_c, 4, 50, 111
1, 13020, Note_on_c, 4, 54, 89
1, 13020, Note_on_c, 9, 39, 119
1, 13049, Note_off_c, 9, 39, 64
1, 13079, Note_off_c, 1, 38, 64
1, 13079, Note_off_c, 3, 62, 64
1, 13080, Note_on_c, 1, 38, 100
1, 13080, Note_on_c, 9, 35, 120
1, 13109, Note_off_c, 9, 35, 64
1, 13109, Note_off_c, 4, 54, 64
1, 13109, Note_off_c, 4, 45, 64
1, 13109, Note_off_c, 0, 57, 64
1, 13109, Note_off_c, 0, 66, 64
1, 13109, Note_off_c, 0, 62, 64
1, 13109, Note_off_c, 4, 50, 64
1, 13110, Note_on_c, 0, 54, 44
1, 13110, Note_on_c, 0, 57, 78
1, 13110, Note_on_c, 0, 62, 58
1, 13110, Note_on_c, 4, 45, 85
1, 13110, Note_on_c, 4, 50, 105
1, 13110, Note_on_c, 4, 54, 81
1, 13139, Note_off_c, 4, 54, 64
1, 13139, Note_off_c, 4, 45, 64
1, 13139, Note_off_c, 0, 54, 64
1, 13139, Note_off_c, 0, 57, 64
1, 13139, Note_off_c, 0, 62, 64
1, 13139, Note_off_c, 4, 50, 64
1, 13140, Note_on_c, 0, 57, 57
1, 13140, Note_on_c, 0, 62, 91
1, 13140, Note_on_c, 0, 66, 77
1, 13140, Note_on_c, 3, 57, 120
1, 13140, Note_on_c, 4, 50, 109
1, 13140, Note_on_c, 4, 54, 89
1, 13140, Note_on_c, 4, 57, 109
1, 13140, Note_on_c, 9, 39, 120
1, 13140, Lyric_t, "And "
1, 13169, Note_off_c, 9, 39, 64
1, 13169, Note_off_c, 0, 66, 64
1, 13169, Note_off_c, 4, 57, 64
1, 13169, Note_off_c, 3, 57, 64
1, 13169, Note_off_c, 0, 57, 64
1, 13169, Note_off_c, 0, 62, 64
1, 13169, Note_off_c, 4, 54, 64
1, 13169, Note_off_c, 4, 50, 64
1, 13170, Note_on_c, 0, 54, 35
1, 13170, Note_on_c, 0, 57, 79
1, 13170, Note_on_c, 0, 62, 56
1, 13170, Note_on_c, 3, 57, 109
1, 13170, Note_on_c, 4, 50, 111
1, 13170, Note_on_c, 4, 54, 100
1, 13170, Note_on_c, 4, 57, 100
1, 13170, Lyric_t, "I "
1, 13199, Note_off_c, 4, 57, 64
1, 13199, Note_off_c, 1, 38, 64
1, 13199, Note_off_c, 0, 62, 64
1, 13199, Note_off_c, 0, 54, 64
1, 13199, Note_off_c, 4, 54, 64
1, 13199, Note_off_c, 0, 57, 64
1, 13199, Note_off_c, 4, 50, 64
1, 13200, Note_on_c, 0, 54, 49
1, 13200, Note_on_c, 0, 57, 85
1, 13200, Note_on_c, 0, 62, 75
1, 13200, Note_on_c, 1, 38, 100
1, 13200, Note_on_c, 4, 45, 105
1, 13200, Note_on_c, 4, 50, 116
1, 13200, Note_on_c, 9, 35, 120
1, 13229, Note_off_c, 9, 35, 64
1, 13259, Note_off_c, 4, 50, 64
1, 13259, Note_off_c, 0, 62, 64
1, 13259, Note_off_c, 0, 54, 64
1, 13259, Note_off_c, 0, 57, 64
1, 13259, Note_off_c, 4, 45, 64
1, 13260, Note_on_c, 0, 57, 56
1, 13260, Note_on_c, 0, 62, 84
1, 13260, Note_on_c, 0, 66, 49
1, 13260, Note_on_c, 4, 50, 105
1, 13260, Note_on_c, 4, 54, 115
1, 13260, Note_on_c, 9, 39, 115
1, 13289, Note_off_c, 9, 39, 64
1, 13289, Note_off_c, 4, 54, 64
1, 13289, Note_off_c, 0, 66, 64
1, 13289, Note_off_c, 0, 62, 64
1, 13289, Note_off_c, 0, 57, 64
1, 13289, Note_off_c, 4, 50, 64
1, 13290, Note_on_c, 0, 57, 84
1, 13290, Note_on_c, 0, 62, 94
1, 13290, Note_on_c, 0, 66, 76
1, 13290, Note_on_c, 4, 50, 100
1, 13290, Note_on_c, 4, 54, 92
1, 13319, Note_off_c, 4, 54, 64
1, 13319, Note_off_c, 0, 66, 64
1, 13319, Note_off_c, 1, 38, 64
1, 13319, Note_off_c, 0, 57, 64
1, 13319, Note_off_c, 0, 62, 64
1, 13319, Note_off_c, 4, 50, 64
1, 13320, Note_on_c, 0, 52, 47
1, 13320, Note_on_c, 0, 57, 89
1, 13320, Note_on_c, 0, 61, 52
1, 13320, Note_on_c, 1, 33, 100
1, 13320, Note_on_c, 4, 45, 101
1, 13320, Note_on_c, 4, 52, 101
1, 13320, Note_on_c, 9, 35, 120
1, 13349, Note_off_c, 9, 35, 64
1, 13379, Note_off_c, 4, 52, 64
1, 13379, Note_off_c, 0, 61, 64
1, 13379, Note_off_c, 0, 52, 64
1, 13379, Note_off_c, 0, 57, 64
1, 13379, Note_off_c, 4, 45, 64
1, 13380, Note_on_c, 0, 57, 51
1, 13380, Note_on_c, 0, 61, 52
1, 13380, Note_on_c, 0, 64, 78
1, 13380, Note_on_c, 4, 49, 89
1, 13380, Note_on_c, 4, 52, 101
1, 13380, Note_on_c, 4, 57, 89
1, 13380, Note_on_c, 9, 39, 119
1, 13409, Note_off_c, 9, 39, 64
1, 13409, Note_off_c, 0, 61, 64
1, 13409, Note_off_c, 4, 57, 64
1, 13409, Note_off_c, 0, 64, 64
1, 13409, Note_off_c, 3, 57, 64
1, 13409, Note_off_c, 0, 57, 64
1, 13409, Note_off_c, 4, 52, 64
1, 13409, Note_off_c, 4, 49, 64
1, 13410, Note_on_c, 0, 57, 73
1, 13410, Note_on_c, 0, 61, 52
1, 13410, Note_on_c, 0, 64, 83
1, 13410, Note_on_c, 4, 49, 119
1, 13410, Note_on_c, 4, 52, 118
1, 13410, Note_on_c, 4, 57, 105
1, 13439, Note_off_c, 4, 57, 64
1, 13439, Note_off_c, 4, 49, 64
1, 13439, Note_off_c, 0, 57, 64
1, 13439, Note_off_c, 0, 61, 64
1, 13439, Note_off_c, 1, 33, 64
1, 13439, Note_off_c, 4, 52, 64
1, 13439, Note_off_c, 0, 64, 64
1, 13440, Note_on_c, 0, 59, 58
1, 13440, Note_on_c, 0, 62, 91
1, 13440, Note_on_c, 1, 35, 100
1, 13440, Note_on_c, 4, 47, 85
1, 13440, Note_on_c, 4, 54, 120
1, 13440, Note_on_c, 9, 35, 120
1, 13469, Note_off_c, 9, 35, 64
1, 13499, Note_off_c, 4, 47, 64
1, 13499, Note_off_c, 0, 62, 64
1, 13499, Note_off_c, 0, 59, 64
1, 13499, Note_off_c, 4, 54, 64
1, 13500, Note_on_c, 0, 59, 79
1, 13500, Note_on_c, 0, 62, 95
1, 13500, Note_on_c, 0, 66, 74
1, 13500, Note_on_c, 4, 50, 92
1, 13500, Note_on_c, 4, 54, 87
1, 13500, Note_on_c, 4, 62, 95
1, 13500, Note_on_c, 9, 39, 119
1, 13529, Note_off_c, 9, 39, 64
1, 13559, Note_off_c, 1, 35, 64
1, 13560, Note_on_c, 1, 35, 100
1, 13560, Note_on_c, 3, 57, 111
1, 13560, Note_on_c, 9, 35, 120
1, 13560, Lyric_t, "did"
1, 13589, Note_off_c, 9, 35, 64
1, 13589, Note_off_c, 0, 59, 64
1, 13589, Note_off_c, 4, 50, 64
1, 13589, Note_off_c, 3, 57, 64
1, 13589, Note_off_c, 0, 62, 64
1, 13589, Note_off_c, 0, 66, 64
1, 13589, Note_off_c, 4, 54, 64
1, 13589, Note_off_c, 4, 62, 64
1, 13590, Note_on_c, 0, 59, 71
1, 13590, Note_on_c, 0, 62, 91
1, 13590, Note_on_c, 0, 66, 60
1, 13590, Note_on_c, 4, 54, 109
1, 13590, Note_on_c, 4, 59, 95
1, 13619, Note_off_c, 4, 59, 64
1, 13619, Note_off_c, 0, 59, 64
1, 13619, Note_off_c, 0, 62, 64
1, 13619, Note_off_c, 0, 66, 64
1, 13619, Note_off_c, 4, 54, 64
1, 13620, Note_on_c, 0, 62, 80
1, 13620, Note_on_c, 0, 66, 62
1, 13620, Note_on_c, 0, 71, 91
1, 13620, Note_on_c, 3, 57, 103
1, 13620, Note_on_c, 4, 50, 103
1, 13620, Note_on_c, 4, 54, 115
1, 13620, Note_on_c, 9, 39, 120
1, 13620, Lyric_t, "n't "
1, 13649, Note_off_c, 9, 39, 64
1, 13649, Note_off_c, 4, 54, 64
1, 13649, Note_off_c, 3, 57, 64
1, 13649, Note_off_c, 0, 62, 64
1, 13649, Note_off_c, 0, 66, 64
1, 13649, Note_off_c, 0, 71, 64
1, 13649, Note_off_c, 4, 50, 64
1, 13650, Note_on_c, 0, 59, 51
1, 13650, Note_on_c, 0, 62, 85
1, 13650, Note_on_c, 0, 66, 59
1, 13650, Note_on_c, 4, 47, 92
1, 13650, Note_on_c, 4, 52, 98
1, 13679, Note_off_c, 4, 52, 64
1, 13679, Note_off_c, 0, 59, 64
1, 13679, Note_off_c, 0, 62, 64
1, 13679, Note_off_c, 1, 35, 64
1, 13679, Note_off_c, 4, 47, 64
1, 13679, Note_off_c, 0, 66, 64
1, 13680, Note_on_c, 0, 55, 74
1, 13680, Note_on_c, 0, 59, 94
1, 13680, Note_on_c, 0, 62, 91
1, 13680, Note_on_c, 1, 31, 100
1, 13680, Note_on_c, 3, 55, 118
1, 13680, Note_on_c, 4, 43, 98
1, 13680, Note_on_c, 4, 50, 116
1, 13680, Note_on_c, 9, 35, 120
1, 13680, Lyric_t, "know "
1, 13709, Note_off_c, 9, 35, 64
1, 13739, Note_off_c, 4, 50, 64
1, 13739, Note_off_c, 3, 55, 64
1, 13739, Note_off_c, 0, 59, 64
1, 13739, Note_off_c, 0, 55, 64
1, 13739, Note_off_c, 0, 62, 64
1, 13739, Note_off_c, 4, 43, 64
1, 13740, Note_on_c, 0, 59, 70
1, 13740, Note_on_c, 0, 62, 94
1, 13740, Note_on_c, 0, 67, 101
1, 13740, Note_on_c, 4, 50, 79
1, 13740, Note_on_c, 4, 55, 111
1, 13740, Note_on_c, 4, 59, 100
1, 13740, Note_on_c, 9, 39, 120
1, 13769, Note_off_c, 9, 39, 64
1, 13770, Note_on_c, 3, 54, 115
1, 13770, Lyric_t, "I "
1, 13799, Note_off_c, 3, 54, 64
1, 13799, Note_off_c, 1, 31, 64
1, 13800, Note_on_c, 1, 31, 100
1, 13800, Note_on_c, 9, 35, 120
1, 13829, Note_off_c, 9, 35, 64
1, 13829, Note_off_c, 0, 59, 64
1, 13829, Note_off_c, 4, 55, 64
1, 13829, Note_off_c, 0, 62, 64
1, 13829, Note_off_c, 0, 67, 64
1, 13829, Note_off_c, 4, 50, 64
1, 13829, Note_off_c, 4, 59, 64
1, 13830, Note_on_c, 0, 59, 52
1, 13830, Note_on_c, 0, 62, 85
1, 13830, Note_on_c, 0, 67, 94
1, 13830, Note_on_c, 3, 52, 101
1, 13830, Note_on_c, 4, 50, 82
1, 13830, Note_on_c, 4, 55, 98
1, 13830, Note_on_c, 4, 59, 85
1, 13830, Lyric_t, "was "
1, 13859, Note_off_c, 4, 59, 64
1, 13859, Note_off_c, 4, 55, 64
1, 13859, Note_off_c, 0, 67, 64
1, 13859, Note_off_c, 0, 59, 64
1, 13859, Note_off_c, 0, 62, 64
1, 13859, Note_off_c, 4, 50, 64
1, 13860, Note_on_c, 0, 62, 78
1, 13860, Note_on_c, 0, 67, 100
1, 13860, Note_on_c, 0, 71, 46
1, 13860, Note_on_c, 4, 43, 109
1, 13860, Note_on_c, 4, 50, 109
1, 13860, Note_on_c, 9, 39, 120
1, 13889, Note_off_c, 9, 39, 64
1, 13889, Note_off_c, 4, 50, 64
1, 13889, Note_off_c, 0, 71, 64
1, 13889, Note_off_c, 3, 52, 64
1, 13889, Note_off_c, 0, 62, 64
1, 13889, Note_off_c, 0, 67, 64
1, 13889, Note_off_c, 4, 43, 64
1, 13890, Note_on_c, 0, 59, 45
1, 13890, Note_on_c, 0, 62, 73
1, 13890, Note_on_c, 0, 67, 86
1, 13890, Note_on_c, 4, 43, 101
1, 13890, Note_on_c, 4, 52, 116
1, 13919, Note_off_c, 4, 52, 64
1, 13919, Note_off_c, 0, 59, 64
1, 13919, Note_off_c, 0, 62, 64
1, 13919, Note_off_c, 1, 31, 64
1, 13919, Note_off_c, 4, 43, 64
1, 13919, Note_off_c, 0, 67, 64
1, 13920, Note_on_c, 0, 54, 35
1, 13920, Note_on_c, 0, 57, 85
1, 13920, Note_on_c, 0, 62, 79
1, 13920, Note_on_c, 1, 38, 100
1, 13920, Note_on_c, 3, 50, 119
1, 13920, Note_on_c, 4, 45, 90
1, 13920, Note_on_c, 4, 50, 105
1, 13920, Note_on_c, 9, 35, 120
1, 13920, Lyric_t, "lost "
1, 13920, Lyric_t, "\015"
1, 13949, Note_off_c, 9, 35, 64
1, 13979, Note_off_c, 4, 50, 64
1, 13979, Note_off_c, 0, 62, 64
1, 13979, Note_off_c, 0, 57, 64
1, 13979, Note_off_c, 0, 54, 64
1, 13979, Note_off_c, 4, 45, 64
1, 13980, Note_on_c, 0, 57, 69
1, 13980, Note_on_c, 0, 62, 98
1, 13980, Note_on_c, 0, 66, 74
1, 13980, Note_on_c, 4, 45, 100
1, 13980, Note_on_c, 4, 50, 111
1, 13980, Note_on_c, 4, 54, 89
1, 13980, Note_on_c, 9, 39, 120
1, 14009, Note_off_c, 9, 39, 64
1, 14039, Note_off_c, 1, 38, 64
1, 14040, Note_on_c, 1, 38, 100
1, 14040, Note_on_c, 9, 35, 120
1, 14069, Note_off_c, 9, 35, 64
1, 14069, Note_off_c, 0, 66, 64
1, 14069, Note_off_c, 4, 54, 64
1, 14069, Note_off_c, 4, 45, 64
1, 14069, Note_off_c, 0, 57, 64
1, 14069, Note_off_c, 0, 62, 64
1, 14069, Note_off_c, 4, 50, 64
1, 14070, Note_on_c, 0, 54, 44
1, 14070, Note_on_c, 0, 57, 78
1, 14070, Note_on_c, 0, 62, 58
1, 14070, Note_on_c, 4, 45, 85
1, 14070, Note_on_c, 4, 50, 105
1, 14070, Note_on_c, 4, 54, 81
1, 14099, Note_off_c, 4, 54, 64
1, 14099, Note_off_c, 4, 50, 64
1, 14099, Note_off_c, 0, 62, 64
1, 14099, Note_off_c, 0, 57, 64
1, 14099, Note_off_c, 0, 54, 64
1, 14099, Note_off_c, 4, 45, 64
1, 14100, Note_on_c, 0, 57, 57
1, 14100, Note_on_c, 0, 62, 91
1, 14100, Note_on_c, 0, 66, 77
1, 14100, Note_on_c, 4, 50, 109
1, 14100, Note_on_c, 4, 54, 89
1, 14100, Note_on_c, 4, 57, 109
1, 14100, Note_on_c, 9, 39, 120
1, 14129, Note_off_c, 9, 39, 64
1, 14129, Note_off_c, 0, 62, 64
1, 14129, Note_off_c, 4, 57, 64
1, 14129, Note_off_c, 0, 66, 64
1, 14129, Note_off_c, 3, 50, 64
1, 14129, Note_off_c, 0, 57, 64
1, 14129, Note_off_c, 4, 54, 64
1, 14129, Note_off_c, 4, 50, 64
1, 14130, Note_on_c, 0, 54, 35
1, 14130, Note_on_c, 0, 57, 79
1, 14130, Note_on_c, 0, 62, 56
1, 14130, Note_on_c, 4, 50, 111
1, 14130, Note_on_c, 4, 54, 100
1, 14130, Note_on_c, 4, 57, 100
1, 14159, Note_off_c, 4, 57, 64
1, 14159, Note_off_c, 4, 50, 64
1, 14159, Note_off_c, 0, 54, 64
1, 14159, Note_off_c, 0, 57, 64
1, 14159, Note_off_c, 1, 38, 64
1, 14159, Note_off_c, 4, 54, 64
1, 14159, Note_off_c, 0, 62, 64
1, 14160, Note_on_c, 0, 54, 49
1, 14160, Note_on_c, 0, 57, 85
1, 14160, Note_on_c, 0, 62, 75
1, 14160, Note_on_c, 1, 38, 100
1, 14160, Note_on_c, 4, 45, 105
1, 14160, Note_on_c, 4, 50, 116
1, 14160, Note_on_c, 9, 35, 119
1, 14189, Note_off_c, 9, 35, 64
1, 14219, Note_off_c, 4, 45, 64
1, 14219, Note_off_c, 0, 57, 64
1, 14219, Note_off_c, 0, 54, 64
1, 14219, Note_off_c, 0, 62, 64
1, 14219, Note_off_c, 4, 50, 64
1, 14220, Note_on_c, 0, 57, 56
1, 14220, Note_on_c, 0, 62, 84
1, 14220, Note_on_c, 0, 66, 49
1, 14220, Note_on_c, 3, 59, 111
1, 14220, Note_on_c, 4, 50, 105
1, 14220, Note_on_c, 4, 54, 115
1, 14220, Note_on_c, 9, 39, 120
1, 14220, Lyric_t, "So "
1, 14249, Note_off_c, 9, 39, 64
1, 14249, Note_off_c, 4, 54, 64
1, 14249, Note_off_c, 3, 59, 64
1, 14249, Note_off_c, 0, 57, 64
1, 14249, Note_off_c, 0, 62, 64
1, 14249, Note_off_c, 0, 66, 64
1, 14249, Note_off_c, 4, 50, 64
1, 14250, Note_on_c, 0, 57, 84
1, 14250, Note_on_c, 0, 62, 94
1, 14250, Note_on_c, 0, 66, 76
1, 14250, Note_on_c, 4, 50, 100
1, 14250, Note_on_c, 4, 54, 92
1, 14279, Note_off_c, 4, 54, 64
1, 14279, Note_off_c, 0, 57, 64
1, 14279, Note_off_c, 0, 62, 64
1, 14279, Note_off_c, 1, 38, 64
1, 14279, Note_off_c, 4, 50, 64
1, 14279, Note_off_c, 0, 66, 64
1, 14280, Note_on_c, 0, 52, 47
1, 14280, Note_on_c, 0, 57, 89
1, 14280, Note_on_c, 0, 61, 52
1, 14280, Note_on_c, 1, 30, 100
1, 14280, Note_on_c, 3, 59, 111
1, 14280, Note_on_c, 4, 45, 101
1, 14280, Note_on_c, 4, 52, 101
1, 14280, Note_on_c, 9, 35, 120
1, 14280, Lyric_t, "wake "
1, 14309, Note_off_c, 9, 35, 64
1, 14309, Note_off_c, 3, 59, 64
1, 14339, Note_off_c, 4, 45, 64
1, 14339, Note_off_c, 0, 57, 64
1, 14339, Note_off_c, 0, 52, 64
1, 14339, Note_off_c, 0, 61, 64
1, 14339, Note_off_c, 4, 52, 64
1, 14340, Note_on_c, 0, 57, 51
1, 14340, Note_on_c, 0, 61, 52
1, 14340, Note_on_c, 0, 64, 78
1, 14340, Note_on_c, 3, 61, 119
1, 14340, Note_on_c, 4, 49, 89
1, 14340, Note_on_c, 4, 52, 101
1, 14340, Note_on_c, 4, 57, 89
1, 14340, Note_on_c, 9, 39, 120
1, 14340, Lyric_t, "me "
1, 14369, Note_off_c, 9, 39, 64
1, 14369, Note_off_c, 0, 64, 64
1, 14369, Note_off_c, 4, 57, 64
1, 14369, Note_off_c, 3, 61, 64
1, 14369, Note_off_c, 0, 57, 64
1, 14369, Note_off_c, 0, 61, 64
1, 14369, Note_off_c, 4, 52, 64
1, 14369, Note_off_c, 4, 49, 64
1, 14370, Note_on_c, 0, 57, 73
1, 14370, Note_on_c, 0, 61, 52
1, 14370, Note_on_c, 0, 64, 83
1, 14370, Note_on_c, 4, 49, 119
1, 14370, Note_on_c, 4, 52, 118
1, 14370, Note_on_c, 4, 57, 105
1, 14399, Note_off_c, 4, 57, 64
1, 14399, Note_off_c, 4, 49, 64
1, 14399, Note_off_c, 0, 57, 64
1, 14399, Note_off_c, 0, 61, 64
1, 14399, Note_off_c, 1, 30, 64
1, 14399, Note_off_c, 4, 52, 64
1, 14399, Note_off_c, 0, 64, 64
1, 14400, Note_on_c, 0, 59, 58
1, 14400, Note_on_c, 0, 62, 91
1, 14400, Note_on_c, 1, 35, 100
1, 14400, Note_on_c, 2, 47, 120
1, 14400, Note_on_c, 3, 62, 120
1, 14400, Note_on_c, 4, 47, 85
1, 14400, Note_on_c, 4, 54, 120
1, 14400, Note_on_c, 9, 35, 120
1, 14400, Lyric_t, "up "
1, 14429, Note_off_c, 9, 35, 64
1, 14459, Note_off_c, 4, 54, 64
1, 14459, Note_off_c, 0, 62, 64
1, 14459, Note_off_c, 0, 59, 64
1, 14459, Note_off_c, 4, 47, 64
1, 14460, Note_on_c, 0, 59, 79
1, 14460, Note_on_c, 0, 62, 95
1, 14460, Note_on_c, 0, 66, 74
1, 14460, Note_on_c, 4, 50, 92
1, 14460, Note_on_c, 4, 54, 87
1, 14460, Note_on_c, 4, 62, 95
1, 14460, Note_on_c, 9, 39, 120
1, 14489, Note_off_c, 9, 39, 64
1, 14519, Note_off_c, 1, 35, 64
1, 14519, Note_off_c, 3, 62, 64
1, 14520, Note_on_c, 1, 35, 100
1, 14520, Note_on_c, 3, 61, 120
1, 14520, Note_on_c, 9, 35, 120
1, 14520, Lyric_t, "when "
1, 14549, Note_off_c, 9, 35, 64
1, 14549, Note_off_c, 4, 62, 64
1, 14549, Note_off_c, 0, 59, 64
1, 14549, Note_off_c, 4, 54, 64
1, 14549, Note_off_c, 4, 50, 64
1, 14549, Note_off_c, 0, 66, 64
1, 14549, Note_off_c, 0, 62, 64
1, 14550, Note_on_c, 0, 59, 71
1, 14550, Note_on_c, 0, 62, 91
1, 14550, Note_on_c, 0, 66, 60
1, 14550, Note_on_c, 4, 54, 109
1, 14550, Note_on_c, 4, 59, 95
1, 14579, Note_off_c, 4, 59, 64
1, 14579, Note_off_c, 4, 54, 64
1, 14579, Note_off_c, 0, 62, 64
1, 14579, Note_off_c, 0, 59, 64
1, 14579, Note_off_c, 0, 66, 64
1, 14580, Note_on_c, 0, 62, 80
1, 14580, Note_on_c, 0, 66, 62
1, 14580, Note_on_c, 0, 71, 91
1, 14580, Note_on_c, 4, 50, 103
1, 14580, Note_on_c, 4, 54, 115
1, 14580, Note_on_c, 9, 39, 120
1, 14609, Note_off_c, 9, 39, 64
1, 14609, Note_off_c, 0, 62, 64
1, 14609, Note_off_c, 4, 54, 64
1, 14609, Note_off_c, 0, 66, 64
1, 14609, Note_off_c, 4, 50, 64
1, 14609, Note_off_c, 3, 61, 64
1, 14609, Note_off_c, 0, 71, 64
1, 14610, Note_on_c, 0, 59, 51
1, 14610, Note_on_c, 0, 62, 85
1, 14610, Note_on_c, 0, 66, 59
1, 14610, Note_on_c, 4, 47, 92
1, 14610, Note_on_c, 4, 52, 98
1, 14639, Note_off_c, 4, 52, 64
1, 14639, Note_off_c, 0, 66, 64
1, 14639, Note_off_c, 2, 47, 64
1, 14639, Note_off_c, 0, 59, 64
1, 14639, Note_off_c, 1, 35, 64
1, 14639, Note_off_c, 4, 47, 64
1, 14639, Note_off_c, 0, 62, 64
1, 14640, Note_on_c, 0, 55, 74
1, 14640, Note_on_c, 0, 59, 94
1, 14640, Note_on_c, 0, 62, 91
1, 14640, Note_on_c, 1, 31, 100
1, 14640, Note_on_c, 2, 43, 120
1, 14640, Note_on_c, 3, 59, 118
1, 14640, Note_on_c, 4, 43, 98
1, 14640, Note_on_c, 4, 50, 116
1, 14640, Note_on_c, 9, 35, 120
1, 14640, Lyric_t, "it's "
1, 14669, Note_off_c, 9, 35, 64
1, 14699, Note_off_c, 0, 55, 64
1, 14699, Note_off_c, 4, 50, 64
1, 14699, Note_off_c, 0, 59, 64
1, 14699, Note_off_c, 4, 43, 64
1, 14699, Note_off_c, 0, 62, 64
1, 14700, Note_on_c, 0, 59, 70
1, 14700, Note_on_c, 0, 62, 94
1, 14700, Note_on_c, 0, 67, 101
1, 14700, Note_on_c, 4, 50, 79
1, 14700, Note_on_c, 4, 55, 111
1, 14700, Note_on_c, 4, 59, 100
1, 14700, Note_on_c, 9, 39, 120
1, 14729, Note_off_c, 9, 39, 64
1, 14729, Note_off_c, 3, 59, 64
1, 14759, Note_off_c, 1, 31, 64
1, 14760, Note_on_c, 1, 31, 100
1, 14760, Note_on_c, 3, 57, 116
1, 14760, Note_on_c, 9, 35, 120
1, 14760, Lyric_t, "all "
1, 14789, Note_off_c, 9, 35, 64
1, 14789, Note_off_c, 0, 62, 64
1, 14789, Note_off_c, 0, 59, 64
1, 14789, Note_off_c, 4, 59, 64
1, 14789, Note_off_c, 0, 67, 64
1, 14789, Note_off_c, 4, 55, 64
1, 14789, Note_off_c, 4, 50, 64
1, 14790, Note_on_c, 0, 59, 52
1, 14790, Note_on_c, 0, 62, 85
1, 14790, Note_on_c, 0, 67, 94
1, 14790, Note_on_c, 4, 50, 82
1, 14790, Note_on_c, 4, 55, 98
1, 14790, Note_on_c, 4, 59, 85
1, 14819, Note_off_c, 4, 59, 64
1, 14819, Note_off_c, 0, 59, 64
1, 14819, Note_off_c, 4, 55, 64
1, 14819, Note_off_c, 0, 62, 64
1, 14819, Note_off_c, 4, 50, 64
1, 14819, Note_off_c, 3, 57, 64
1, 14819, Note_off_c, 0, 67, 64
1, 14820, Note_on_c, 0, 62, 78
1, 14820, Note_on_c, 0, 67, 100
1, 14820, Note_on_c, 0, 71, 46
1, 14820, Note_on_c, 4, 43, 109
1, 14820, Note_on_c, 4, 50, 109
1, 14820, Note_on_c, 9, 39, 120
1, 14849, Note_off_c, 9, 39, 64
1, 14849, Note_off_c, 4, 50, 64
1, 14849, Note_off_c, 0, 71, 64
1, 14849, Note_off_c, 0, 67, 64
1, 14849, Note_off_c, 0, 62, 64
1, 14849, Note_off_c, 4, 43, 64
1, 14850, Note_on_c, 0, 59, 45
1, 14850, Note_on_c, 0, 62, 73
1, 14850, Note_on_c, 0, 67, 86
1, 14850, Note_on_c, 3, 57, 116
1, 14850, Note_on_c, 4, 43, 101
1, 14850, Note_on_c, 4, 52, 116
1, 14850, Lyric_t, "o"
1, 14879, Note_off_c, 4, 52, 64
1, 14879, Note_off_c, 2, 43, 64
1, 14879, Note_off_c, 1, 31, 64
1, 14879, Note_off_c, 4, 43, 64
1, 14879, Note_off_c, 0, 59, 64
1, 14879, Note_off_c, 0, 62, 64
1, 14879, Note_off_c, 0, 67, 64
1, 14880, Note_on_c, 0, 54, 35
1, 14880, Note_on_c, 0, 57, 85
1, 14880, Note_on_c, 0, 62, 79
1, 14880, Note_on_c, 1, 38, 100
1, 14880, Note_on_c, 2, 38, 120
1, 14880, Note_on_c, 4, 45, 90
1, 14880, Note_on_c, 4, 50, 105
1, 14880, Note_on_c, 9, 35, 120
1, 14909, Note_off_c, 9, 35, 64
1, 14909, Note_off_c, 3, 57, 64
1, 14939, Note_off_c, 0, 54, 64
1, 14939, Note_off_c, 0, 57, 64
1, 14939, Note_off_c, 0, 62, 64
1, 14939, Note_off_c, 4, 50, 64
1, 14939, Note_off_c, 4, 45, 64
1, 14940, Note_on_c, 0, 57, 69
1, 14940, Note_on_c, 0, 62, 98
1, 14940, Note_on_c, 0, 66, 74
1, 14940, Note_on_c, 3, 50, 120
1, 14940, Note_on_c, 4, 45, 100
1, 14940, Note_on_c, 4, 50, 111
1, 14940, Note_on_c, 4, 54, 89
1, 14940, Note_on_c, 9, 39, 119
1, 14940, Lyric_t, "ver "
1, 14940, Lyric_t, "\015"
1, 14969, Note_off_c, 9, 39, 64
1, 14969, Note_off_c, 3, 50, 64
1, 14999, Note_off_c, 1, 38, 64
1, 15000, Note_on_c, 1, 38, 100
1, 15000, Note_on_c, 9, 35, 120
1, 15029, Note_off_c, 9, 35, 64
1, 15029, Note_off_c, 0, 62, 64
1, 15029, Note_off_c, 4, 50, 64
1, 15029, Note_off_c, 4, 45, 64
1, 15029, Note_off_c, 0, 57, 64
1, 15029, Note_off_c, 4, 54, 64
1, 15029, Note_off_c, 0, 66, 64
1, 15030, Note_on_c, 0, 54, 44
1, 15030, Note_on_c, 0, 57, 78
1, 15030, Note_on_c, 0, 62, 58
1, 15030, Note_on_c, 4, 45, 85
1, 15030, Note_on_c, 4, 50, 105
1, 15030, Note_on_c, 4, 54, 81
1, 15059, Note_off_c, 4, 54, 64
1, 15059, Note_off_c, 4, 50, 64
1, 15059, Note_off_c, 0, 62, 64
1, 15059, Note_off_c, 0, 57, 64
1, 15059, Note_off_c, 0, 54, 64
1, 15059, Note_off_c, 4, 45, 64
1, 15060, Note_on_c, 0, 57, 57
1, 15060, Note_on_c, 0, 62, 91
1, 15060, Note_on_c, 0, 66, 77
1, 15060, Note_on_c, 4, 50, 109
1, 15060, Note_on_c, 4, 54, 89
1, 15060, Note_on_c, 4, 57, 109
1, 15060, Note_on_c, 9, 39, 120
1, 15089, Note_off_c, 9, 39, 64
1, 15089, Note_off_c, 0, 62, 64
1, 15089, Note_off_c, 4, 57, 64
1, 15089, Note_off_c, 0, 66, 64
1, 15089, Note_off_c, 4, 54, 64
1, 15089, Note_off_c, 0, 57, 64
1, 15089, Note_off_c, 4, 50, 64
1, 15090, Note_on_c, 0, 54, 35
1, 15090, Note_on_c, 0, 57, 79
1, 15090, Note_on_c, 0, 62, 56
1, 15090, Note_on_c, 4, 50, 111
1, 15090, Note_on_c, 4, 54, 100
1, 15090, Note_on_c, 4, 57, 100
1, 15119, Note_off_c, 4, 57, 64
1, 15119, Note_off_c, 4, 54, 64
1, 15119, Note_off_c, 0, 62, 64
1, 15119, Note_off_c, 1, 38, 64
1, 15119, Note_off_c, 0, 54, 64
1, 15119, Note_off_c, 0, 57, 64
1, 15119, Note_off_c, 4, 50, 64
1, 15120, Note_on_c, 0, 54, 49
1, 15120, Note_on_c, 0, 57, 85
1, 15120, Note_on_c, 0, 62, 75
1, 15120, Note_on_c, 1, 38, 100
1, 15120, Note_on_c, 4, 45, 105
1, 15120, Note_on_c, 4, 50, 116
1, 15120, Note_on_c, 9, 35, 120
1, 15149, Note_off_c, 9, 35, 64
1, 15179, Note_off_c, 4, 50, 64
1, 15179, Note_off_c, 0, 62, 64
1, 15179, Note_off_c, 0, 54, 64
1, 15179, Note_off_c, 0, 57, 64
1, 15179, Note_off_c, 4, 45, 64
1, 15180, Note_on_c, 0, 57, 56
1, 15180, Note_on_c, 0, 62, 84
1, 15180, Note_on_c, 0, 66, 49
1, 15180, Note_on_c, 4, 50, 105
1, 15180, Note_on_c, 4, 54, 115
1, 15180, Note_on_c, 9, 39, 115
1, 15209, Note_off_c, 9, 39, 64
1, 15209, Note_off_c, 4, 54, 64
1, 15209, Note_off_c, 0, 66, 64
1, 15209, Note_off_c, 0, 62, 64
1, 15209, Note_off_c, 0, 57, 64
1, 15209, Note_off_c, 4, 50, 64
1, 15210, Note_on_c, 0, 57, 84
1, 15210, Note_on_c, 0, 62, 94
1, 15210, Note_on_c, 0, 66, 76
1, 15210, Note_on_c, 4, 50, 100
1, 15210, Note_on_c, 4, 54, 92
1, 15239, Note_off_c, 4, 54, 64
1, 15239, Note_off_c, 0, 66, 64
1, 15239, Note_off_c, 1, 38, 64
1, 15239, Note_off_c, 0, 57, 64
1, 15239, Note_off_c, 2, 38, 64
1, 15239, Note_off_c, 4, 50, 64
1, 15239, Note_off_c, 0, 62, 64
1, 15240, Note_on_c, 0, 52, 47
1, 15240, Note_on_c, 0, 57, 89
1, 15240, Note_on_c, 0, 61, 52
1, 15240, Note_on_c, 1, 33, 100
1, 15240, Note_on_c, 2, 45, 120
1, 15240, Note_on_c, 3, 59, 119
1, 15240, Note_on_c, 4, 45, 101
1, 15240, Note_on_c, 4, 52, 101
1, 15240, Note_on_c, 9, 35, 120
1, 15240, Lyric_t, "When "
1, 15269, Note_off_c, 9, 35, 64
1, 15299, Note_off_c, 0, 52, 64
1, 15299, Note_off_c, 4, 52, 64
1, 15299, Note_off_c, 0, 61, 64
1, 15299, Note_off_c, 0, 57, 64
1, 15299, Note_off_c, 4, 45, 64
1, 15299, Note_off_c, 3, 59, 64
1, 15300, Note_on_c, 0, 57, 51
1, 15300, Note_on_c, 0, 61, 52
1, 15300, Note_on_c, 0, 64, 78
1, 15300, Note_on_c, 3, 61, 120
1, 15300, Note_on_c, 4, 49, 89
1, 15300, Note_on_c, 4, 52, 101
1, 15300, Note_on_c, 4, 57, 89
1, 15300, Note_on_c, 9, 39, 119
1, 15300, Lyric_t, "I'm "
1, 15329, Note_off_c, 9, 39, 64
1, 15329, Note_off_c, 0, 57, 64
1, 15329, Note_off_c, 0, 61, 64
1, 15329, Note_off_c, 4, 57, 64
1, 15329, Note_off_c, 0, 64, 64
1, 15329, Note_off_c, 4, 49, 64
1, 15329, Note_off_c, 4, 52, 64
1, 15329, Note_off_c, 3, 61, 64
1, 15330, Note_on_c, 0, 57, 73
1, 15330, Note_on_c, 0, 61, 52
1, 15330, Note_on_c, 0, 64, 83
1, 15330, Note_on_c, 4, 49, 119
1, 15330, Note_on_c, 4, 52, 118
1, 15330, Note_on_c, 4, 57, 105
1, 15359, Note_off_c, 4, 57, 64
1, 15359, Note_off_c, 1, 33, 64
1, 15359, Note_off_c, 0, 64, 64
1, 15359, Note_off_c, 2, 45, 64
1, 15359, Note_off_c, 0, 57, 64
1, 15359, Note_off_c, 0, 61, 64
1, 15359, Note_off_c, 4, 49, 64
1, 15359, Note_off_c, 4, 52, 64
1, 15360, Note_on_c, 0, 59, 58
1, 15360, Note_on_c, 0, 62, 91
1, 15360, Note_on_c, 1, 35, 100
1, 15360, Note_on_c, 2, 47, 120
1, 15360, Note_on_c, 3, 62, 119
1, 15360, Note_on_c, 4, 47, 85
1, 15360, Note_on_c, 4, 54, 120
1, 15360, Note_on_c, 9, 35, 120
1, 15360, Lyric_t, "wi"
1, 15389, Note_off_c, 9, 35, 64
1, 15419, Note_off_c, 4, 54, 64
1, 15419, Note_off_c, 0, 62, 64
1, 15419, Note_off_c, 0, 59, 64
1, 15419, Note_off_c, 4, 47, 64
1, 15420, Note_on_c, 0, 59, 79
1, 15420, Note_on_c, 0, 62, 95
1, 15420, Note_on_c, 0, 66, 74
1, 15420, Note_on_c, 4, 50, 92
1, 15420, Note_on_c, 4, 54, 87
1, 15420, Note_on_c, 4, 62, 95
1, 15420, Note_on_c, 9, 39, 119
1, 15449, Note_off_c, 9, 39, 64
1, 15449, Note_off_c, 3, 62, 64
1, 15479, Note_off_c, 1, 35, 64
1, 15480, Note_on_c, 1, 35, 100
1, 15480, Note_on_c, 3, 66, 120
1, 15480, Note_on_c, 9, 35, 120
1, 15480, Lyric_t, "ser "
1, 15509, Note_off_c, 9, 35, 64
1, 15509, Note_off_c, 4, 62, 64
1, 15509, Note_off_c, 0, 59, 64
1, 15509, Note_off_c, 4, 54, 64
1, 15509, Note_off_c, 4, 50, 64
1, 15509, Note_off_c, 0, 66, 64
1, 15509, Note_off_c, 0, 62, 64
1, 15510, Note_on_c, 0, 59, 71
1, 15510, Note_on_c, 0, 62, 91
1, 15510, Note_on_c, 0, 66, 60
1, 15510, Note_on_c, 4, 54, 109
1, 15510, Note_on_c, 4, 59, 95
1, 15539, Note_off_c, 4, 59, 64
1, 15539, Note_off_c, 4, 54, 64
1, 15539, Note_off_c, 0, 62, 64
1, 15539, Note_off_c, 0, 59, 64
1, 15539, Note_off_c, 0, 66, 64
1, 15540, Note_on_c, 0, 62, 80
1, 15540, Note_on_c, 0, 66, 62
1, 15540, Note_on_c, 0, 71, 91
1, 15540, Note_on_c, 4, 50, 103
1, 15540, Note_on_c, 4, 54, 115
1, 15540, Note_on_c, 9, 39, 120
1, 15569, Note_off_c, 9, 39, 64
1, 15569, Note_off_c, 0, 62, 64
1, 15569, Note_off_c, 4, 54, 64
1, 15569, Note_off_c, 0, 66, 64
1, 15569, Note_off_c, 4, 50, 64
1, 15569, Note_off_c, 3, 66, 64
1, 15569, Note_off_c, 0, 71, 64
1, 15570, Note_on_c, 0, 59, 51
1, 15570, Note_on_c, 0, 62, 85
1, 15570, Note_on_c, 0, 66, 59
1, 15570, Note_on_c, 4, 47, 92
1, 15570, Note_on_c, 4, 52, 98
1, 15599, Note_off_c, 4, 52, 64
1, 15599, Note_off_c, 0, 66, 64
1, 15599, Note_off_c, 2, 47, 64
1, 15599, Note_off_c, 0, 59, 64
1, 15599, Note_off_c, 1, 35, 64
1, 15599, Note_off_c, 4, 47, 64
1, 15599, Note_off_c, 0, 62, 64
1, 15600, Note_on_c, 0, 55, 74
1, 15600, Note_on_c, 0, 59, 94
1, 15600, Note_on_c, 0, 62, 91
1, 15600, Note_on_c, 1, 31, 100
1, 15600, Note_on_c, 2, 43, 120
1, 15600, Note_on_c, 3, 67, 120
1, 15600, Note_on_c, 4, 43, 98
1, 15600, Note_on_c, 4, 50, 116
1, 15600, Note_on_c, 9, 35, 120
1, 15600, Lyric_t, "and "
1, 15629, Note_off_c, 9, 35, 64
1, 15659, Note_off_c, 0, 55, 64
1, 15659, Note_off_c, 4, 50, 64
1, 15659, Note_off_c, 0, 59, 64
1, 15659, Note_off_c, 4, 43, 64
1, 15659, Note_off_c, 0, 62, 64
1, 15660, Note_on_c, 0, 59, 70
1, 15660, Note_on_c, 0, 62, 94
1, 15660, Note_on_c, 0, 67, 101
1, 15660, Note_on_c, 4, 50, 79
1, 15660, Note_on_c, 4, 55, 111
1, 15660, Note_on_c, 4, 59, 100
1, 15660, Note_on_c, 9, 39, 120
1, 15689, Note_off_c, 9, 39, 64
1, 15689, Note_off_c, 3, 67, 64
1, 15719, Note_off_c, 1, 31, 64
1, 15720, Note_on_c, 1, 31, 100
1, 15720, Note_on_c, 3, 69, 120
1, 15720, Note_on_c, 9, 35, 120
1, 15720, Lyric_t, "I'm "
1, 15749, Note_off_c, 9, 35, 64
1, 15749, Note_off_c, 0, 62, 64
1, 15749, Note_off_c, 0, 59, 64
1, 15749, Note_off_c, 4, 59, 64
1, 15749, Note_off_c, 0, 67, 64
1, 15749, Note_off_c, 4, 55, 64
1, 15749, Note_off_c, 4, 50, 64
1, 15750, Note_on_c, 0, 59, 52
1, 15750, Note_on_c, 0, 62, 85
1, 15750, Note_on_c, 0, 67, 94
1, 15750, Note_on_c, 4, 50, 82
1, 15750, Note_on_c, 4, 55, 98
1, 15750, Note_on_c, 4, 59, 85
1, 15779, Note_off_c, 4, 59, 64
1, 15779, Note_off_c, 0, 59, 64
1, 15779, Note_off_c, 4, 55, 64
1, 15779, Note_off_c, 0, 62, 64
1, 15779, Note_off_c, 4, 50, 64
1, 15779, Note_off_c, 3, 69, 64
1, 15779, Note_off_c, 0, 67, 64
1, 15780, Note_on_c, 0, 62, 78
1, 15780, Note_on_c, 0, 67, 100
1, 15780, Note_on_c, 0, 71, 46
1, 15780, Note_on_c, 4, 43, 109
1, 15780, Note_on_c, 4, 50, 109
1, 15780, Note_on_c, 9, 39, 120
1, 15809, Note_off_c, 9, 39, 64
1, 15809, Note_off_c, 4, 50, 64
1, 15809, Note_off_c, 0, 71, 64
1, 15809, Note_off_c, 0, 67, 64
1, 15809, Note_off_c, 0, 62, 64
1, 15809, Note_off_c, 4, 43, 64
1, 15810, Note_on_c, 0, 59, 45
1, 15810, Note_on_c, 0, 62, 73
1, 15810, Note_on_c, 0, 67, 86
1, 15810, Note_on_c, 3, 62, 119
1, 15810, Note_on_c, 4, 43, 101
1, 15810, Note_on_c, 4, 52, 116
1, 15810, Lyric_t, "ol"
1, 15839, Note_off_c, 4, 52, 64
1, 15839, Note_off_c, 2, 43, 64
1, 15839, Note_off_c, 1, 31, 64
1, 15839, Note_off_c, 4, 43, 64
1, 15839, Note_off_c, 0, 59, 64
1, 15839, Note_off_c, 0, 62, 64
1, 15839, Note_off_c, 0, 67, 64
1, 15840, Note_on_c, 0, 54, 35
1, 15840, Note_on_c, 0, 57, 85
1, 15840, Note_on_c, 0, 62, 79
1, 15840, Note_on_c, 1, 38, 100
1, 15840, Note_on_c, 2, 38, 120
1, 15840, Note_on_c, 4, 45, 90
1, 15840, Note_on_c, 4, 50, 105
1, 15840, Note_on_c, 9, 35, 120
1, 15869, Note_off_c, 9, 35, 64
1, 15869, Note_off_c, 3, 62, 64
1, 15899, Note_off_c, 0, 54, 64
1, 15899, Note_off_c, 0, 57, 64
1, 15899, Note_off_c, 0, 62, 64
1, 15899, Note_off_c, 4, 50, 64
1, 15899, Note_off_c, 4, 45, 64
1, 15900, Note_on_c, 0, 57, 69
1, 15900, Note_on_c, 0, 62, 98
1, 15900, Note_on_c, 0, 66, 74
1, 15900, Note_on_c, 3, 62, 120
1, 15900, Note_on_c, 4, 45, 100
1, 15900, Note_on_c, 4, 50, 111
1, 15900, Note_on_c, 4, 54, 89
1, 15900, Note_on_c, 9, 39, 120
1, 15900, Lyric_t, "der "
1, 15900, Lyric_t, "\015"
1, 15929, Note_off_c, 9, 39, 64
1, 15959, Note_off_c, 1, 38, 64
1, 15960, Note_on_c, 1, 38, 100
1, 15960, Note_on_c, 9, 35, 120
1, 15989, Note_off_c, 9, 35, 64
1, 15989, Note_off_c, 4, 54, 64
1, 15989, Note_off_c, 0, 66, 64
1, 15989, Note_off_c, 4, 50, 64
1, 15989, Note_off_c, 3, 62, 64
1, 15989, Note_off_c, 0, 57, 64
1, 15989, Note_off_c, 0, 62, 64
1, 15989, Note_off_c, 4, 45, 64
1, 15990, Note_on_c, 0, 54, 44
1, 15990, Note_on_c, 0, 57, 78
1, 15990, Note_on_c, 0, 62, 58
1, 15990, Note_on_c, 4, 45, 85
1, 15990, Note_on_c, 4, 50, 105
1, 15990, Note_on_c, 4, 54, 81
1, 16019, Note_off_c, 4, 54, 64
1, 16019, Note_off_c, 4, 50, 64
1, 16019, Note_off_c, 0, 62, 64
1, 16019, Note_off_c, 0, 57, 64
1, 16019, Note_off_c, 0, 54, 64
1, 16019, Note_off_c, 4, 45, 64
1, 16020, Note_on_c, 0, 57, 57
1, 16020, Note_on_c, 0, 62, 91
1, 16020, Note_on_c, 0, 66, 77
1, 16020, Note_on_c, 4, 50, 109
1, 16020, Note_on_c, 4, 54, 89
1, 16020, Note_on_c, 4, 57, 109
1, 16020, Note_on_c, 9, 39, 120
1, 16049, Note_off_c, 9, 39, 64
1, 16049, Note_off_c, 0, 62, 64
1, 16049, Note_off_c, 4, 57, 64
1, 16049, Note_off_c, 0, 66, 64
1, 16049, Note_off_c, 4, 54, 64
1, 16049, Note_off_c, 0, 57, 64
1, 16049, Note_off_c, 4, 50, 64
1, 16050, Note_on_c, 0, 54, 35
1, 16050, Note_on_c, 0, 57, 79
1, 16050, Note_on_c, 0, 62, 56
1, 16050, Note_on_c, 4, 50, 111
1, 16050, Note_on_c, 4, 54, 100
1, 16050, Note_on_c, 4, 57, 100
1, 16079, Note_off_c, 4, 57, 64
1, 16079, Note_off_c, 4, 54, 64
1, 16079, Note_off_c, 0, 62, 64
1, 16079, Note_off_c, 1, 38, 64
1, 16079, Note_off_c, 0, 54, 64
1, 16079, Note_off_c, 0, 57, 64
1, 16079, Note_off_c, 4, 50, 64
1, 16080, Note_on_c, 0, 54, 49
1, 16080, Note_on_c, 0, 57, 85
1, 16080, Note_on_c, 0, 62, 75
1, 16080, Note_on_c, 1, 38, 100
1, 16080, Note_on_c, 4, 45, 105
1, 16080, Note_on_c, 4, 50, 116
1, 16080, Note_on_c, 9, 35, 119
1, 16109, Note_off_c, 9, 35, 64
1, 16139, Note_off_c, 4, 50, 64
1, 16139, Note_off_c, 0, 62, 64
1, 16139, Note_off_c, 0, 54, 64
1, 16139, Note_off_c, 0, 57, 64
1, 16139, Note_off_c, 4, 45, 64
1, 16140, Note_on_c, 0, 57, 56
1, 16140, Note_on_c, 0, 62, 84
1, 16140, Note_on_c, 0, 66, 49
1, 16140, Note_on_c, 4, 50, 105
1, 16140, Note_on_c, 4, 54, 115
1, 16140, Note_on_c, 9, 39, 120
1, 16169, Note_off_c, 9, 39, 64
1, 16169, Note_off_c, 4, 54, 64
1, 16169, Note_off_c, 0, 66, 64
1, 16169, Note_off_c, 0, 62, 64
1, 16169, Note_off_c, 0, 57, 64
1, 16169, Note_off_c, 4, 50, 64
1, 16170, Note_on_c, 0, 57, 84
1, 16170, Note_on_c, 0, 62, 94
1, 16170, Note_on_c, 0, 66, 76
1, 16170, Note_on_c, 4, 50, 100
1, 16170, Note_on_c, 4, 54, 92
1, 16199, Note_off_c, 4, 54, 64
1, 16199, Note_off_c, 0, 66, 64
1, 16199, Note_off_c, 1, 38, 64
1, 16199, Note_off_c, 0, 57, 64
1, 16199, Note_off_c, 2, 38, 64
1, 16199, Note_off_c, 4, 50, 64
1, 16199, Note_off_c, 0, 62, 64
1, 16200, Note_on_c, 0, 52, 47
1, 16200, Note_on_c, 0, 57, 89
1, 16200, Note_on_c, 0, 61, 52
1, 16200, Note_on_c, 1, 30, 100
1, 16200, Note_on_c, 2, 42, 120
1, 16200, Note_on_c, 3, 59, 120
1, 16200, Note_on_c, 4, 45, 101
1, 16200, Note_on_c, 4, 52, 101
1, 16200, Note_on_c, 9, 35, 120
1, 16200, Lyric_t, "All "
1, 16229, Note_off_c, 9, 35, 64
1, 16259, Note_off_c, 0, 52, 64
1, 16259, Note_off_c, 4, 52, 64
1, 16259, Note_off_c, 0, 61, 64
1, 16259, Note_off_c, 0, 57, 64
1, 16259, Note_off_c, 4, 45, 64
1, 16259, Note_off_c, 3, 59, 64
1, 16260, Note_on_c, 0, 57, 51
1, 16260, Note_on_c, 0, 61, 52
1, 16260, Note_on_c, 0, 64, 78
1, 16260, Note_on_c, 3, 61, 120
1, 16260, Note_on_c, 4, 49, 89
1, 16260, Note_on_c, 4, 52, 101
1, 16260, Note_on_c, 4, 57, 89
1, 16260, Note_on_c, 9, 39, 120
1, 16260, Lyric_t, "this "
1, 16289, Note_off_c, 9, 39, 64
1, 16289, Note_off_c, 0, 57, 64
1, 16289, Note_off_c, 0, 61, 64
1, 16289, Note_off_c, 4, 57, 64
1, 16289, Note_off_c, 0, 64, 64
1, 16289, Note_off_c, 4, 49, 64
1, 16289, Note_off_c, 4, 52, 64
1, 16289, Note_off_c, 3, 61, 64
1, 16290, Note_on_c, 0, 57, 73
1, 16290, Note_on_c, 0, 61, 52
1, 16290, Note_on_c, 0, 64, 83
1, 16290, Note_on_c, 4, 49, 119
1, 16290, Note_on_c, 4, 52, 118
1, 16290, Note_on_c, 4, 57, 105
1, 16319, Note_off_c, 4, 57, 64
1, 16319, Note_off_c, 1, 30, 64
1, 16319, Note_off_c, 0, 64, 64
1, 16319, Note_off_c, 2, 42, 64
1, 16319, Note_off_c, 0, 57, 64
1, 16319, Note_off_c, 0, 61, 64
1, 16319, Note_off_c, 4, 49, 64
1, 16319, Note_off_c, 4, 52, 64
1, 16320, Note_on_c, 0, 59, 58
1, 16320, Note_on_c, 0, 62, 91
1, 16320, Note_on_c, 1, 35, 100
1, 16320, Note_on_c, 2, 47, 120
1, 16320, Note_on_c, 3, 62, 119
1, 16320, Note_on_c, 4, 47, 85
1, 16320, Note_on_c, 4, 54, 120
1, 16320, Note_on_c, 9, 35, 120
1, 16320, Lyric_t, "time "
1, 16349, Note_off_c, 9, 35, 64
1, 16379, Note_off_c, 4, 54, 64
1, 16379, Note_off_c, 0, 62, 64
1, 16379, Note_off_c, 0, 59, 64
1, 16379, Note_off_c, 4, 47, 64
1, 16380, Note_on_c, 0, 59, 79
1, 16380, Note_on_c, 0, 62, 95
1, 16380, Note_on_c, 0, 66, 74
1, 16380, Note_on_c, 4, 50, 92
1, 16380, Note_on_c, 4, 54, 87
1, 16380, Note_on_c, 4, 62, 95
1, 16380, Note_on_c, 9, 39, 120
1, 16409, Note_off_c, 9, 39, 64
1, 16409, Note_off_c, 3, 62, 64
1, 16439, Note_off_c, 1, 35, 64
1, 16440, Note_on_c, 1, 35, 100
1, 16440, Note_on_c, 3, 66, 120
1, 16440, Note_on_c, 9, 35, 120
1, 16440, Lyric_t, "I "
1, 16469, Note_off_c, 9, 35, 64
1, 16469, Note_off_c, 4, 62, 64
1, 16469, Note_off_c, 3, 66, 64
1, 16469, Note_off_c, 4, 54, 64
1, 16469, Note_off_c, 4, 50, 64
1, 16469, Note_off_c, 0, 66, 64
1, 16469, Note_off_c, 0, 59, 64
1, 16469, Note_off_c, 0, 62, 64
1, 16470, Note_on_c, 0, 59, 71
1, 16470, Note_on_c, 0, 62, 91
1, 16470, Note_on_c, 0, 66, 60
1, 16470, Note_on_c, 4, 54, 109
1, 16470, Note_on_c, 4, 59, 95
1, 16499, Note_off_c, 4, 59, 64
1, 16499, Note_off_c, 0, 66, 64
1, 16499, Note_off_c, 0, 62, 64
1, 16499, Note_off_c, 0, 59, 64
1, 16499, Note_off_c, 4, 54, 64
1, 16500, Note_on_c, 0, 62, 80
1, 16500, Note_on_c, 0, 66, 62
1, 16500, Note_on_c, 0, 71, 91
1, 16500, Note_on_c, 3, 66, 119
1, 16500, Note_on_c, 4, 50, 103
1, 16500, Note_on_c, 4, 54, 115
1, 16500, Note_on_c, 9, 39, 120
1, 16500, Lyric_t, "was "
1, 16529, Note_off_c, 9, 39, 64
1, 16529, Note_off_c, 0, 66, 64
1, 16529, Note_off_c, 4, 54, 64
1, 16529, Note_off_c, 4, 50, 64
1, 16529, Note_off_c, 0, 62, 64
1, 16529, Note_off_c, 0, 71, 64
1, 16530, Note_on_c, 0, 59, 51
1, 16530, Note_on_c, 0, 62, 85
1, 16530, Note_on_c, 0, 66, 59
1, 16530, Note_on_c, 4, 47, 92
1, 16530, Note_on_c, 4, 52, 98
1, 16559, Note_off_c, 4, 52, 64
1, 16559, Note_off_c, 2, 47, 64
1, 16559, Note_off_c, 0, 62, 64
1, 16559, Note_off_c, 3, 66, 64
1, 16559, Note_off_c, 1, 35, 64
1, 16559, Note_off_c, 0, 59, 64
1, 16559, Note_off_c, 0, 66, 64
1, 16559, Note_off_c, 4, 47, 64
1, 16560, Note_on_c, 0, 55, 74
1, 16560, Note_on_c, 0, 59, 94
1, 16560, Note_on_c, 0, 62, 91
1, 16560, Note_on_c, 1, 31, 100
1, 16560, Note_on_c, 2, 43, 120
1, 16560, Note_on_c, 3, 67, 120
1, 16560, Note_on_c, 4, 43, 98
1, 16560, Note_on_c, 4, 50, 116
1, 16560, Note_on_c, 9, 35, 120
1, 16560, Lyric_t, "fin"
1, 16589, Note_off_c, 9, 35, 64
1, 16619, Note_off_c, 0, 55, 64
1, 16619, Note_off_c, 4, 50, 64
1, 16619, Note_off_c, 0, 62, 64
1, 16619, Note_off_c, 0, 59, 64
1, 16619, Note_off_c, 4, 43, 64
1, 16619, Note_off_c, 3, 67, 64
1, 16620, Note_on_c, 0, 59, 70
1, 16620, Note_on_c, 0, 62, 94
1, 16620, Note_on_c, 0, 67, 101
1, 16620, Note_on_c, 4, 50, 79
1, 16620, Note_on_c, 4, 55, 111
1, 16620, Note_on_c, 4, 59, 100
1, 16620, Note_on_c, 9, 39, 120
1, 16649, Note_off_c, 9, 39, 64
1, 16650, Note_on_c, 3, 67, 120
1, 16650, Lyric_t, "ding "
1, 16679, Note_off_c, 3, 67, 64
1, 16679, Note_off_c, 1, 31, 64
1, 16680, Note_on_c, 1, 31, 100
1, 16680, Note_on_c, 9, 35, 120
1, 16709, Note_off_c, 9, 35, 64
1, 16709, Note_off_c, 4, 59, 64
1, 16709, Note_off_c, 0, 67, 64
1, 16709, Note_off_c, 4, 50, 64
1, 16709, Note_off_c, 0, 59, 64
1, 16709, Note_off_c, 0, 62, 64
1, 16709, Note_off_c, 4, 55, 64
1, 16710, Note_on_c, 0, 59, 52
1, 16710, Note_on_c, 0, 62, 85
1, 16710, Note_on_c, 0, 67, 94
1, 16710, Note_on_c, 3, 69, 120
1, 16710, Note_on_c, 4, 50, 82
1, 16710, Note_on_c, 4, 55, 98
1, 16710, Note_on_c, 4, 59, 85
1, 16710, Lyric_t, "my"
1, 16739, Note_off_c, 4, 59, 64
1, 16739, Note_off_c, 0, 62, 64
1, 16739, Note_off_c, 4, 55, 64
1, 16739, Note_off_c, 4, 50, 64
1, 16739, Note_off_c, 0, 59, 64
1, 16739, Note_off_c, 0, 67, 64
1, 16740, Note_on_c, 0, 62, 78
1, 16740, Note_on_c, 0, 67, 100
1, 16740, Note_on_c, 0, 71, 46
1, 16740, Note_on_c, 4, 43, 109
1, 16740, Note_on_c, 4, 50, 109
1, 16740, Note_on_c, 9, 39, 120
1, 16769, Note_off_c, 9, 39, 64
1, 16769, Note_off_c, 0, 62, 64
1, 16769, Note_off_c, 4, 50, 64
1, 16769, Note_off_c, 0, 67, 64
1, 16769, Note_off_c, 4, 43, 64
1, 16769, Note_off_c, 0, 71, 64
1, 16770, Note_on_c, 0, 59, 45
1, 16770, Note_on_c, 0, 62, 73
1, 16770, Note_on_c, 0, 67, 86
1, 16770, Note_on_c, 4, 43, 101
1, 16770, Note_on_c, 4, 52, 116
1, 16799, Note_off_c, 4, 52, 64
1, 16799, Note_off_c, 3, 69, 64
1, 16799, Note_off_c, 0, 62, 64
1, 16799, Note_off_c, 2, 43, 64
1, 16799, Note_off_c, 1, 31, 64
1, 16799, Note_off_c, 0, 59, 64
1, 16799, Note_off_c, 0, 67, 64
1, 16799, Note_off_c, 4, 43, 64
1, 16800, Note_on_c, 0, 54, 35
1, 16800, Note_on_c, 0, 57, 85
1, 16800, Note_on_c, 0, 62, 79
1, 16800, Note_on_c, 1, 38, 100
1, 16800, Note_on_c, 2, 38, 120
1, 16800, Note_on_c, 3, 62, 120
1, 16800, Note_on_c, 4, 45, 90
1, 16800, Note_on_c, 4, 50, 105
1, 16800, Note_on_c, 9, 35, 120
1, 16800, Lyric_t, "self "
1, 16800, Lyric_t, "\015"
1, 16829, Note_off_c, 9, 35, 64
1, 16859, Note_off_c, 0, 54, 64
1, 16859, Note_off_c, 4, 50, 64
1, 16859, Note_off_c, 0, 57, 64
1, 16859, Note_off_c, 4, 45, 64
1, 16859, Note_off_c, 0, 62, 64
1, 16860, Note_on_c, 0, 57, 69
1, 16860, Note_on_c, 0, 62, 98
1, 16860, Note_on_c, 0, 66, 74
1, 16860, Note_on_c, 4, 45, 100
1, 16860, Note_on_c, 4, 50, 111
1, 16860, Note_on_c, 4, 54, 89
1, 16860, Note_on_c, 9, 39, 119
1, 16889, Note_off_c, 9, 39, 64
1, 16919, Note_off_c, 1, 38, 64
1, 16920, Note_on_c, 1, 38, 100
1, 16920, Note_on_c, 9, 35, 120
1, 16949, Note_off_c, 9, 35, 64
1, 16949, Note_off_c, 4, 54, 64
1, 16949, Note_off_c, 0, 62, 64
1, 16949, Note_off_c, 4, 50, 64
1, 16949, Note_off_c, 0, 66, 64
1, 16949, Note_off_c, 3, 62, 64
1, 16949, Note_off_c, 0, 57, 64
1, 16949, Note_off_c, 4, 45, 64
1, 16950, Note_on_c, 0, 54, 44
1, 16950, Note_on_c, 0, 57, 78
1, 16950, Note_on_c, 0, 62, 58
1, 16950, Note_on_c, 4, 45, 85
1, 16950, Note_on_c, 4, 50, 105
1, 16950, Note_on_c, 4, 54, 81
1, 16979, Note_off_c, 4, 54, 64
1, 16979, Note_off_c, 4, 50, 64
1, 16979, Note_off_c, 0, 62, 64
1, 16979, Note_off_c, 0, 57, 64
1, 16979, Note_off_c, 0, 54, 64
1, 16979, Note_off_c, 4, 45, 64
1, 16980, Note_on_c, 0, 57, 57
1, 16980, Note_on_c, 0, 62, 91
1, 16980, Note_on_c, 0, 66, 77
1, 16980, Note_on_c, 4, 50, 109
1, 16980, Note_on_c, 4, 54, 89
1, 16980, Note_on_c, 4, 57, 109
1, 16980, Note_on_c, 9, 39, 120
1, 17009, Note_off_c, 9, 39, 64
1, 17009, Note_off_c, 0, 62, 64
1, 17009, Note_off_c, 4, 57, 64
1, 17009, Note_off_c, 0, 66, 64
1, 17009, Note_off_c, 4, 54, 64
1, 17009, Note_off_c, 0, 57, 64
1, 17009, Note_off_c, 4, 50, 64
1, 17010, Note_on_c, 0, 54, 35
1, 17010, Note_on_c, 0, 57, 79
1, 17010, Note_on_c, 0, 62, 56
1, 17010, Note_on_c, 3, 59, 119
1, 17010, Note_on_c, 4, 50, 111
1, 17010, Note_on_c, 4, 54, 100
1, 17010, Note_on_c, 4, 57, 100
1, 17010, Lyric_t, "And "
1, 17039, Note_off_c, 4, 57, 64
1, 17039, Note_off_c, 0, 57, 64
1, 17039, Note_off_c, 4, 54, 64
1, 17039, Note_off_c, 0, 62, 64
1, 17039, Note_off_c, 1, 38, 64
1, 17039, Note_off_c, 0, 54, 64
1, 17039, Note_off_c, 4, 50, 64
1, 17039, Note_off_c, 3, 59, 64
1, 17040, Note_on_c, 0, 54, 49
1, 17040, Note_on_c, 0, 57, 85
1, 17040, Note_on_c, 0, 62, 75
1, 17040, Note_on_c, 1, 38, 100
1, 17040, Note_on_c, 3, 57, 120
1, 17040, Note_on_c, 4, 45, 105
1, 17040, Note_on_c, 4, 50, 116
1, 17040, Note_on_c, 9, 35, 120
1, 17040, Lyric_t, "I "
1, 17069, Note_off_c, 9, 35, 64
1, 17099, Note_off_c, 0, 57, 64
1, 17099, Note_off_c, 4, 50, 64
1, 17099, Note_off_c, 0, 54, 64
1, 17099, Note_off_c, 4, 45, 64
1, 17099, Note_off_c, 0, 62, 64
1, 17100, Note_on_c, 0, 57, 56
1, 17100, Note_on_c, 0, 62, 84
1, 17100, Note_on_c, 0, 66, 49
1, 17100, Note_on_c, 4, 50, 105
1, 17100, Note_on_c, 4, 54, 115
1, 17100, Note_on_c, 9, 39, 115
1, 17129, Note_off_c, 9, 39, 64
1, 17129, Note_off_c, 0, 57, 64
1, 17129, Note_off_c, 4, 54, 64
1, 17129, Note_off_c, 0, 62, 64
1, 17129, Note_off_c, 4, 50, 64
1, 17129, Note_off_c, 0, 66, 64
1, 17130, Note_on_c, 0, 57, 84
1, 17130, Note_on_c, 0, 62, 94
1, 17130, Note_on_c, 0, 66, 76
1, 17130, Note_on_c, 4, 50, 100
1, 17130, Note_on_c, 4, 54, 92
1, 17159, Note_off_c, 4, 54, 64
1, 17159, Note_off_c, 4, 50, 64
1, 17159, Note_off_c, 0, 62, 64
1, 17159, Note_off_c, 2, 38, 64
1, 17159, Note_off_c, 1, 38, 64
1, 17159, Note_off_c, 0, 57, 64
1, 17159, Note_off_c, 0, 66, 64
1, 17160, Note_on_c, 0, 52, 47
1, 17160, Note_on_c, 0, 57, 89
1, 17160, Note_on_c, 0, 61, 52
1, 17160, Note_on_c, 1, 33, 100
1, 17160, Note_on_c, 2, 45, 120
1, 17160, Note_on_c, 4, 45, 101
1, 17160, Note_on_c, 4, 52, 101
1, 17160, Note_on_c, 9, 35, 120
1, 17189, Note_off_c, 9, 35, 64
1, 17219, Note_off_c, 0, 57, 64
1, 17219, Note_off_c, 4, 52, 64
1, 17219, Note_off_c, 0, 52, 64
1, 17219, Note_off_c, 4, 45, 64
1, 17219, Note_off_c, 0, 61, 64
1, 17220, Note_on_c, 0, 57, 51
1, 17220, Note_on_c, 0, 61, 52
1, 17220, Note_on_c, 0, 64, 78
1, 17220, Note_on_c, 4, 49, 89
1, 17220, Note_on_c, 4, 52, 101
1, 17220, Note_on_c, 4, 57, 89
1, 17220, Note_on_c, 9, 39, 119
1, 17249, Note_off_c, 9, 39, 64
1, 17249, Note_off_c, 4, 57, 64
1, 17249, Note_off_c, 4, 49, 64
1, 17249, Note_off_c, 0, 57, 64
1, 17249, Note_off_c, 0, 61, 64
1, 17249, Note_off_c, 4, 52, 64
1, 17249, Note_off_c, 0, 64, 64
1, 17250, Note_on_c, 0, 57, 73
1, 17250, Note_on_c, 0, 61, 52
1, 17250, Note_on_c, 0, 64, 83
1, 17250, Note_on_c, 4, 49, 119
1, 17250, Note_on_c, 4, 52, 118
1, 17250, Note_on_c, 4, 57, 105
1, 17279, Note_off_c, 4, 57, 64
1, 17279, Note_off_c, 0, 57, 64
1, 17279, Note_off_c, 1, 33, 64
1, 17279, Note_off_c, 0, 61, 64
1, 17279, Note_off_c, 2, 45, 64
1, 17279, Note_off_c, 3, 57, 64
1, 17279, Note_off_c, 4, 49, 64
1, 17279, Note_off_c, 0, 64, 64
1, 17279, Note_off_c, 4, 52, 64
1, 17280, Note_on_c, 0, 59, 58
1, 17280, Note_on_c, 0, 62, 91
1, 17280, Note_on_c, 1, 35, 100
1, 17280, Note_on_c, 2, 47, 120
1, 17280, Note_on_c, 4, 47, 85
1, 17280, Note_on_c, 4, 54, 120
1, 17280, Note_on_c, 9, 35, 120
1, 17280, Control_c, 12, 11, 4
1, 17280, Note_on_c, 12, 48, 120
1, 17295, Control_c, 12, 74, 19
1, 17295, Control_c, 12, 11, 5
1, 17309, Note_off_c, 9, 35, 64
1, 17310, Control_c, 12, 74, 21
1, 17310, Control_c, 12, 11, 7
1, 17325, Control_c, 12, 74, 23
1, 17325, Control_c, 12, 11, 9
1, 17339, Note_off_c, 0, 62, 64
1, 17339, Note_off_c, 4, 47, 64
1, 17339, Note_off_c, 0, 59, 64
1, 17339, Note_off_c, 4, 54, 64
1, 17340, Note_on_c, 0, 59, 79
1, 17340, Note_on_c, 0, 62, 95
1, 17340, Note_on_c, 0, 66, 74
1, 17340, Note_on_c, 4, 50, 92
1, 17340, Note_on_c, 4, 54, 87
1, 17340, Note_on_c, 4, 62, 95
1, 17340, Note_on_c, 9, 39, 119
1, 17340, Control_c, 12, 74, 25
1, 17340, Control_c, 12, 11, 11
1, 17355, Control_c, 12, 74, 27
1, 17355, Control_c, 12, 11, 13
1, 17369, Note_off_c, 9, 39, 64
1, 17370, Control_c, 12, 74, 29
1, 17370, Control_c, 12, 11, 15
1, 17385, Control_c, 12, 74, 31
1, 17385, Control_c, 12, 11, 17
1, 17399, Note_off_c, 1, 35, 64
1, 17400, Note_on_c, 1, 35, 100
1, 17400, Note_on_c, 3, 57, 116
1, 17400, Note_on_c, 9, 35, 120
1, 17400, Control_c, 12, 74, 34
1, 17400, Control_c, 12, 11, 19
1, 17400, Lyric_t, "did"
1, 17415, Control_c, 12, 74, 36
1, 17415, Control_c, 12, 11, 21
1, 17429, Note_off_c, 9, 35, 64
1, 17429, Note_off_c, 0, 59, 64
1, 17429, Note_off_c, 4, 62, 64
1, 17429, Note_off_c, 3, 57, 64
1, 17429, Note_off_c, 4, 54, 64
1, 17429, Note_off_c, 0, 66, 64
1, 17429, Note_off_c, 0, 62, 64
1, 17429, Note_off_c, 4, 50, 64
1, 17430, Note_on_c, 0, 59, 71
1, 17430, Note_on_c, 0, 62, 91
1, 17430, Note_on_c, 0, 66, 60
1, 17430, Note_on_c, 4, 54, 109
1, 17430, Note_on_c, 4, 59, 95
1, 17430, Control_c, 12, 74, 38
1, 17430, Control_c, 12, 11, 23
1, 17445, Control_c, 12, 74, 40
1, 17445, Control_c, 12, 11, 25
1, 17459, Note_off_c, 4, 59, 64
1, 17459, Note_off_c, 4, 54, 64
1, 17459, Note_off_c, 0, 62, 64
1, 17459, Note_off_c, 0, 59, 64
1, 17459, Note_off_c, 0, 66, 64
1, 17460, Note_on_c, 0, 62, 80
1, 17460, Note_on_c, 0, 66, 62
1, 17460, Note_on_c, 0, 71, 91
1, 17460, Note_on_c, 3, 54, 119
1, 17460, Note_on_c, 4, 50, 103
1, 17460, Note_on_c, 4, 54, 115
1, 17460, Note_on_c, 9, 39, 120
1, 17460, Control_c, 12, 74, 42
1, 17460, Control_c, 12, 11, 27
1, 17460, Lyric_t, "n't "
1, 17475, Control_c, 12, 74, 44
1, 17475, Control_c, 12, 11, 29
1, 17489, Note_off_c, 9, 39, 64
1, 17489, Note_off_c, 4, 54, 64
1, 17489, Note_off_c, 3, 54, 64
1, 17489, Note_off_c, 0, 62, 64
1, 17489, Note_off_c, 0, 66, 64
1, 17489, Note_off_c, 4, 50, 64
1, 17489, Note_off_c, 0, 71, 64
1, 17490, Note_on_c, 0, 59, 51
1, 17490, Note_on_c, 0, 62, 85
1, 17490, Note_on_c, 0, 66, 59
1, 17490, Note_on_c, 4, 47, 92
1, 17490, Note_on_c, 4, 52, 98
1, 17490, Control_c, 12, 74, 47
1, 17490, Control_c, 12, 11, 31
1, 17505, Control_c, 12, 74, 49
1, 17505, Control_c, 12, 11, 33
1, 17519, Note_off_c, 4, 52, 64
1, 17519, Note_off_c, 1, 35, 64
1, 17519, Note_off_c, 0, 62, 64
1, 17519, Note_off_c, 4, 47, 64
1, 17519, Note_off_c, 2, 47, 64
1, 17519, Note_off_c, 0, 59, 64
1, 17519, Note_off_c, 0, 66, 64
1, 17520, Note_on_c, 0, 55, 74
1, 17520, Note_on_c, 0, 59, 94
1, 17520, Note_on_c, 0, 62, 91
1, 17520, Note_on_c, 1, 31, 100
1, 17520, Note_on_c, 2, 43, 120
1, 17520, Note_on_c, 3, 55, 120
1, 17520, Note_on_c, 4, 43, 98
1, 17520, Note_on_c, 4, 50, 116
1, 17520, Note_on_c, 9, 35, 120
1, 17520, Control_c, 12, 74, 51
1, 17520, Control_c, 12, 11, 35
1, 17520, Lyric_t, "know "
1, 17535, Control_c, 12, 74, 53
1, 17535, Control_c, 12, 11, 37
1, 17549, Note_off_c, 9, 35, 64
1, 17550, Control_c, 12, 74, 55
1, 17550, Control_c, 12, 11, 39
1, 17565, Control_c, 12, 74, 57
1, 17565, Control_c, 12, 11, 41
1, 17579, Note_off_c, 4, 50, 64
1, 17579, Note_off_c, 0, 62, 64
1, 17579, Note_off_c, 0, 59, 64
1, 17579, Note_off_c, 4, 43, 64
1, 17579, Note_off_c, 0, 55, 64
1, 17580, Note_on_c, 0, 59, 70
1, 17580, Note_on_c, 0, 62, 94
1, 17580, Note_on_c, 0, 67, 101
1, 17580, Note_on_c, 4, 50, 79
1, 17580, Note_on_c, 4, 55, 111
1, 17580, Note_on_c, 4, 59, 100
1, 17580, Note_on_c, 9, 39, 120
1, 17580, Control_c, 12, 74, 60
1, 17580, Control_c, 12, 11, 43
1, 17595, Control_c, 12, 74, 62
1, 17595, Control_c, 12, 11, 45
1, 17609, Note_off_c, 9, 39, 64
1, 17609, Note_off_c, 3, 55, 64
1, 17610, Note_on_c, 3, 54, 120
1, 17610, Control_c, 12, 74, 64
1, 17610, Control_c, 12, 11, 46
1, 17610, Lyric_t, "I "
1, 17625, Control_c, 12, 74, 66
1, 17625, Control_c, 12, 11, 48
1, 17639, Note_off_c, 1, 31, 64
1, 17640, Note_on_c, 1, 31, 100
1, 17640, Note_on_c, 9, 35, 120
1, 17640, Control_c, 12, 74, 68
1, 17640, Control_c, 12, 11, 50
1, 17655, Control_c, 12, 74, 70
1, 17655, Control_c, 12, 11, 52
1, 17669, Note_off_c, 9, 35, 64
1, 17669, Note_off_c, 0, 59, 64
1, 17669, Note_off_c, 4, 59, 64
1, 17669, Note_off_c, 4, 55, 64
1, 17669, Note_off_c, 4, 50, 64
1, 17669, Note_off_c, 0, 62, 64
1, 17669, Note_off_c, 3, 54, 64
1, 17669, Note_off_c, 0, 67, 64
1, 17670, Note_on_c, 0, 59, 52
1, 17670, Note_on_c, 0, 62, 85
1, 17670, Note_on_c, 0, 67, 94
1, 17670, Note_on_c, 4, 50, 82
1, 17670, Note_on_c, 4, 55, 98
1, 17670, Note_on_c, 4, 59, 85
1, 17670, Control_c, 12, 74, 73
1, 17670, Control_c, 12, 11, 54
1, 17685, Control_c, 12, 74, 75
1, 17685, Control_c, 12, 11, 56
1, 17699, Note_off_c, 4, 59, 64
1, 17699, Note_off_c, 0, 59, 64
1, 17699, Note_off_c, 4, 55, 64
1, 17699, Note_off_c, 0, 62, 64
1, 17699, Note_off_c, 4, 50, 64
1, 17699, Note_off_c, 0, 67, 64
1, 17700, Note_on_c, 0, 62, 78
1, 17700, Note_on_c, 0, 67, 100
1, 17700, Note_on_c, 0, 71, 46
1, 17700, Note_on_c, 3, 52, 111
1, 17700, Note_on_c, 4, 43, 109
1, 17700, Note_on_c, 4, 50, 109
1, 17700, Note_on_c, 9, 39, 120
1, 17700, Control_c, 12, 74, 77
1, 17700, Control_c, 12, 11, 58
1, 17700, Lyric_t, "was "
1, 17715, Control_c, 12, 74, 79
1, 17715, Control_c, 12, 11, 60
1, 17729, Note_off_c, 9, 39, 64
1, 17729, Note_off_c, 4, 50, 64
1, 17729, Note_off_c, 3, 52, 64
1, 17729, Note_off_c, 0, 62, 64
1, 17729, Note_off_c, 0, 67, 64
1, 17729, Note_off_c, 4, 43, 64
1, 17729, Note_off_c, 0, 71, 64
1, 17730, Note_on_c, 0, 59, 45
1, 17730, Note_on_c, 0, 62, 73
1, 17730, Note_on_c, 0, 67, 86
1, 17730, Note_on_c, 4, 43, 101
1, 17730, Note_on_c, 4, 52, 116
1, 17730, Control_c, 12, 74, 81
1, 17730, Control_c, 12, 11, 62
1, 17745, Control_c, 12, 74, 83
1, 17745, Control_c, 12, 11, 64
1, 17759, Note_off_c, 4, 52, 64
1, 17759, Note_off_c, 1, 31, 64
1, 17759, Note_off_c, 0, 62, 64
1, 17759, Note_off_c, 4, 43, 64
1, 17759, Note_off_c, 2, 43, 64
1, 17759, Note_off_c, 0, 59, 64
1, 17759, Note_off_c, 0, 67, 64
1, 17760, Control_c, 0, 74, 64
1, 17760, Note_on_c, 0, 54, 35
1, 17760, Note_on_c, 0, 57, 85
1, 17760, Note_on_c, 0, 62, 79
1, 17760, Note_on_c, 2, 38, 120
1, 17760, Note_on_c, 3, 50, 119
1, 17760, Control_c, 4, 74, 64
1, 17760, Note_on_c, 4, 45, 90
1, 17760, Note_on_c, 4, 50, 105
1, 17760, Note_on_c, 8, 50, 120
1, 17760, Note_on_c, 8, 62, 120
1, 17760, Control_c, 12, 74, 85
1, 17760, Control_c, 12, 11, 66
1, 17760, Lyric_t, "lost "
1, 17760, Lyric_t, "\015"
1, 17775, Control_c, 0, 74, 67
1, 17775, Control_c, 4, 74, 67
1, 17775, Control_c, 12, 74, 88
1, 17775, Control_c, 12, 11, 68
1, 17790, Control_c, 0, 74, 70
1, 17790, Control_c, 4, 74, 70
1, 17790, Control_c, 12, 74, 90
1, 17790, Control_c, 12, 11, 70
1, 17805, Control_c, 0, 74, 73
1, 17805, Control_c, 4, 74, 73
1, 17805, Control_c, 12, 74, 92
1, 17805, Control_c, 12, 11, 72
1, 17819, Note_off_c, 4, 50, 64
1, 17819, Note_off_c, 4, 45, 64
1, 17819, Note_off_c, 0, 57, 64
1, 17819, Note_off_c, 0, 62, 64
1, 17819, Note_off_c, 0, 54, 64
1, 17820, Control_c, 0, 74, 76
1, 17820, Note_on_c, 0, 57, 69
1, 17820, Note_on_c, 0, 62, 98
1, 17820, Note_on_c, 0, 66, 74
1, 17820, Control_c, 4, 74, 76
1, 17820, Note_on_c, 4, 45, 100
1, 17820, Note_on_c, 4, 50, 111
1, 17820, Note_on_c, 4, 54, 89
1, 17820, Note_on_c, 9, 39, 120
1, 17820, Control_c, 12, 74, 94
1, 17820, Control_c, 12, 11, 74
1, 17835, Control_c, 0, 74, 79
1, 17835, Control_c, 4, 74, 79
1, 17835, Control_c, 12, 74, 96
1, 17835, Control_c, 12, 11, 76
1, 17849, Note_off_c, 9, 39, 64
1, 17850, Control_c, 0, 74, 82
1, 17850, Control_c, 4, 74, 82
1, 17850, Control_c, 12, 74, 98
1, 17850, Control_c, 12, 11, 78
1, 17865, Control_c, 0, 74, 85
1, 17865, Control_c, 4, 74, 85
1, 17865, Control_c, 12, 74, 101
1, 17865, Control_c, 12, 11, 80
1, 17880, Control_c, 0, 74, 88
1, 17880, Control_c, 4, 74, 88
1, 17880, Control_c, 12, 74, 103
1, 17880, Control_c, 12, 11, 82
1, 17895, Control_c, 0, 74, 91
1, 17895, Control_c, 4, 74, 91
1, 17895, Control_c, 12, 74, 105
1, 17895, Control_c, 12, 11, 84
1, 17909, Note_off_c, 4, 50, 64
1, 17909, Note_off_c, 0, 66, 64
1, 17909, Note_off_c, 0, 62, 64
1, 17909, Note_off_c, 4, 45, 64
1, 17909, Note_off_c, 4, 54, 64
1, 17909, Note_off_c, 0, 57, 64
1, 17910, Control_c, 0, 74, 94
1, 17910, Note_on_c, 0, 54, 44
1, 17910, Note_on_c, 0, 57, 78
1, 17910, Note_on_c, 0, 62, 58
1, 17910, Control_c, 4, 74, 94
1, 17910, Note_on_c, 4, 45, 85
1, 17910, Note_on_c, 4, 50, 105
1, 17910, Note_on_c, 4, 54, 81
1, 17910, Control_c, 12, 74, 107
1, 17910, Control_c, 12, 11, 86
1, 17925, Control_c, 0, 74, 97
1, 17925, Control_c, 4, 74, 97
1, 17925, Control_c, 12, 74, 109
1, 17925, Control_c, 12, 11, 87
1, 17939, Note_off_c, 4, 54, 64
1, 17939, Note_off_c, 0, 62, 64
1, 17939, Note_off_c, 4, 50, 64
1, 17939, Note_off_c, 0, 57, 64
1, 17939, Note_off_c, 4, 45, 64
1, 17939, Note_off_c, 0, 54, 64
1, 17940, Control_c, 0, 74, 100
1, 17940, Note_on_c, 0, 57, 57
1, 17940, Note_on_c, 0, 62, 91
1, 17940, Note_on_c, 0, 66, 77
1, 17940, Control_c, 4, 74, 100
1, 17940, Note_on_c, 4, 50, 109
1, 17940, Note_on_c, 4, 54, 89
1, 17940, Note_on_c, 4, 57, 109
1, 17940, Note_on_c, 9, 39, 120
1, 17940, Control_c, 12, 74, 111
1, 17940, Control_c, 12, 11, 89
1, 17955, Control_c, 0, 74, 103
1, 17955, Control_c, 4, 74, 103
1, 17955, Control_c, 12, 74, 114
1, 17955, Control_c, 12, 11, 91
1, 17969, Note_off_c, 9, 39, 64
1, 17969, Note_off_c, 4, 54, 64
1, 17969, Note_off_c, 0, 66, 64
1, 17969, Note_off_c, 0, 62, 64
1, 17969, Note_off_c, 4, 50, 64
1, 17969, Note_off_c, 4, 57, 64
1, 17969, Note_off_c, 0, 57, 64
1, 17970, Control_c, 0, 74, 106
1, 17970, Note_on_c, 0, 54, 35
1, 17970, Note_on_c, 0, 57, 79
1, 17970, Note_on_c, 0, 62, 56
1, 17970, Control_c, 4, 74, 106
1, 17970, Note_on_c, 4, 50, 111
1, 17970, Note_on_c, 4, 54, 100
1, 17970, Note_on_c, 4, 57, 100
1, 17970, Control_c, 12, 74, 116
1, 17970, Control_c, 12, 11, 93
1, 17985, Control_c, 0, 74, 109
1, 17985, Control_c, 4, 74, 109
1, 17985, Control_c, 12, 74, 118
1, 17985, Control_c, 12, 11, 95
1, 17999, Note_off_c, 4, 57, 64
1, 17999, Note_off_c, 0, 62, 64
1, 17999, Note_off_c, 4, 54, 64
1, 17999, Note_off_c, 0, 57, 64
1, 17999, Note_off_c, 4, 50, 64
1, 17999, Note_off_c, 0, 54, 64
1, 18000, Control_c, 0, 74, 112
1, 18000, Note_on_c, 0, 54, 49
1, 18000, Note_on_c, 0, 57, 85
1, 18000, Note_on_c, 0, 62, 75
1, 18000, Control_c, 4, 74, 112
1, 18000, Note_on_c, 4, 45, 105
1, 18000, Note_on_c, 4, 50, 116
1, 18000, Note_on_c, 10, 72, 120
1, 18000, Control_c, 12, 74, 120
1, 18000, Control_c, 12, 11, 97
1, 18015, Control_c, 0, 74, 115
1, 18015, Control_c, 4, 74, 115
1, 18015, Control_c, 12, 74, 122
1, 18015, Control_c, 12, 11, 99
1, 18030, Control_c, 0, 74, 118
1, 18030, Control_c, 4, 74, 118
1, 18030, Control_c, 12, 74, 124
1, 18030, Control_c, 12, 11, 101
1, 18045, Control_c, 0, 74, 121
1, 18045, Control_c, 4, 74, 121
1, 18045, Control_c, 12, 74, 127
1, 18045, Control_c, 12, 11, 103
1, 18059, Note_off_c, 4, 50, 64
1, 18059, Note_off_c, 4, 45, 64
1, 18059, Note_off_c, 0, 57, 64
1, 18059, Note_off_c, 0, 62, 64
1, 18059, Note_off_c, 0, 54, 64
1, 18059, Note_off_c, 3, 50, 64
1, 18060, Control_c, 0, 74, 124
1, 18060, Note_on_c, 0, 57, 56
1, 18060, Note_on_c, 0, 62, 84
1, 18060, Note_on_c, 0, 66, 49
1, 18060, Control_c, 4, 74, 124
1, 18060, Note_on_c, 4, 50, 105
1, 18060, Note_on_c, 4, 54, 115
1, 18060, Control_c, 12, 11, 105
1, 18075, Control_c, 0, 74, 127
1, 18075, Control_c, 4, 74, 127
1, 18075, Control_c, 12, 11, 107
1, 18089, Note_off_c, 4, 54, 64
1, 18089, Note_off_c, 4, 50, 64
1, 18089, Note_off_c, 0, 62, 64
1, 18089, Note_off_c, 0, 66, 64
1, 18089, Note_off_c, 0, 57, 64
1, 18090, Note_on_c, 0, 57, 84
1, 18090, Note_on_c, 0, 62, 94
1, 18090, Note_on_c, 0, 66, 76
1, 18090, Note_on_c, 4, 50, 100
1, 18090, Note_on_c, 4, 54, 92
1, 18090, Control_c, 12, 11, 109
1, 18105, Control_c, 12, 11, 111
1, 18119, Note_off_c, 4, 54, 64
1, 18119, Note_off_c, 4, 50, 64
1, 18119, Note_off_c, 0, 62, 64
1, 18119, Note_off_c, 0, 66, 64
1, 18119, Note_off_c, 2, 38, 64
1, 18119, Note_off_c, 0, 57, 64
1, 18120, Note_on_c, 0, 52, 47
1, 18120, Note_on_c, 0, 57, 89
1, 18120, Note_on_c, 0, 61, 52
1, 18120, Note_on_c, 4, 45, 101
1, 18120, Note_on_c, 4, 52, 101
1, 18120, Control_c, 12, 11, 113
1, 18135, Control_c, 12, 11, 115
1, 18150, Control_c, 12, 11, 117
1, 18165, Control_c, 12, 11, 119
1, 18179, Note_off_c, 4, 52, 64
1, 18179, Note_off_c, 4, 45, 64
1, 18179, Note_off_c, 0, 61, 64
1, 18179, Note_off_c, 0, 52, 64
1, 18179, Note_off_c, 0, 57, 64
1, 18180, Note_on_c, 0, 57, 51
1, 18180, Note_on_c, 0, 61, 52
1, 18180, Note_on_c, 0, 64, 78
1, 18180, Note_on_c, 4, 49, 89
1, 18180, Note_on_c, 4, 52, 101
1, 18180, Note_on_c, 4, 57, 89
1, 18180, Control_c, 12, 11, 121
1, 18195, Control_c, 12, 11, 123
1, 18209, Note_off_c, 4, 57, 64
1, 18209, Note_off_c, 4, 52, 64
1, 18209, Note_off_c, 0, 64, 64
1, 18209, Note_off_c, 4, 49, 64
1, 18209, Note_off_c, 0, 57, 64
1, 18209, Note_off_c, 0, 61, 64
1, 18210, Note_on_c, 0, 57, 73
1, 18210, Note_on_c, 0, 61, 52
1, 18210, Note_on_c, 0, 64, 83
1, 18210, Note_on_c, 4, 49, 119
1, 18210, Note_on_c, 4, 52, 118
1, 18210, Note_on_c, 4, 57, 105
1, 18210, Control_c, 12, 11, 125
1, 18225, Control_c, 12, 11, 127
1, 18239, Note_off_c, 4, 57, 64
1, 18239, Note_off_c, 10, 72, 64
1, 18239, Note_off_c, 8, 50, 64
1, 18239, Note_off_c, 12, 48, 64
1, 18239, Note_off_c, 0, 57, 64
1, 18239, Note_off_c, 8, 62, 64
1, 18239, Note_off_c, 4, 49, 64
1, 18239, Note_off_c, 0, 64, 64
1, 18239, Note_off_c, 0, 61, 64
1, 18239, Note_off_c, 4, 52, 64
1, 18240, Control_c, 0, 74, 12
1, 18240, Note_on_c, 0, 59, 58
1, 18240, Note_on_c, 0, 62, 91
1, 18240, Control_c, 4, 74, 12
1, 18240, Note_on_c, 4, 47, 85
1, 18240, Note_on_c, 4, 54, 120
1, 18240, Control_c, 4, 91, 127
1, 18240, Note_on_c, 5, 59, 120
1, 18240, Note_on_c, 5, 71, 120
1, 18240, Control_c, 5, 91, 127
1, 18240, Control_c, 5, 10, 115
1, 18240, Note_on_c, 9, 49, 120
1, 18240, Pitch_bend_c, 13, 8414
1, 18240, Note_on_c, 13, 47, 120
1, 18240, Note_on_c, 14, 36, 120
1, 18255, Pitch_bend_c, 13, 8192
1, 18269, Note_off_c, 9, 49, 64
1, 18270, Pitch_bend_c, 13, 7871
1, 18280, Control_c, 5, 10, 34
1, 18285, Pitch_bend_c, 13, 7599
1, 18299, Note_off_c, 4, 54, 64
1, 18299, Note_off_c, 0, 59, 64
1, 18299, Note_off_c, 5, 59, 64
1, 18299, Note_off_c, 0, 62, 64
1, 18299, Note_off_c, 4, 47, 64
1, 18299, Note_off_c, 5, 71, 64
1, 18300, Note_on_c, 0, 59, 79
1, 18300, Note_on_c, 0, 62, 95
1, 18300, Note_on_c, 0, 66, 74
1, 18300, Note_on_c, 4, 50, 92
1, 18300, Note_on_c, 4, 54, 87
1, 18300, Note_on_c, 4, 62, 95
1, 18300, Pitch_bend_c, 13, 7328
1, 18315, Pitch_bend_c, 13, 7057
1, 18320, Control_c, 5, 10, 94
1, 18330, Pitch_bend_c, 13, 6785
1, 18345, Pitch_bend_c, 13, 6514
1, 18360, Note_on_c, 5, 59, 120
1, 18360, Note_on_c, 5, 71, 120
1, 18360, Control_c, 5, 10, 12
1, 18360, Note_on_c, 9, 70, 111
1, 18360, Pitch_bend_c, 13, 6242
1, 18368, Control_c, 0, 74, 13
1, 18368, Control_c, 4, 74, 13
1, 18375, Pitch_bend_c, 13, 5971
1, 18389, Note_off_c, 9, 70, 64
1, 18389, Note_off_c, 0, 59, 64
1, 18389, Note_off_c, 4, 62, 64
1, 18389, Note_off_c, 0, 62, 64
1, 18389, Note_off_c, 4, 54, 64
1, 18389, Note_off_c, 0, 66, 64
1, 18389, Note_off_c, 4, 50, 64
1, 18390, Note_on_c, 0, 59, 71
1, 18390, Note_on_c, 0, 62, 91
1, 18390, Note_on_c, 0, 66, 60
1, 18390, Note_on_c, 4, 54, 109
1, 18390, Note_on_c, 4, 59, 95
1, 18390, Pitch_bend_c, 13, 5700
1, 18400, Control_c, 5, 10, 115
1, 18405, Pitch_bend_c, 13, 5428
1, 18419, Note_off_c, 4, 59, 64
1, 18419, Note_off_c, 5, 59, 64
1, 18419, Note_off_c, 4, 54, 64
1, 18419, Note_off_c, 0, 59, 64
1, 18419, Note_off_c, 0, 66, 64
1, 18419, Note_off_c, 5, 71, 64
1, 18419, Note_off_c, 0, 62, 64
1, 18420, Note_on_c, 0, 62, 80
1, 18420, Note_on_c, 0, 66, 62
1, 18420, Note_on_c, 0, 71, 91
1, 18420, Note_on_c, 4, 50, 103
1, 18420, Note_on_c, 4, 54, 115
1, 18420, Note_on_c, 9, 39, 76
1, 18420, Pitch_bend_c, 13, 5157
1, 18432, Control_c, 0, 74, 14
1, 18432, Control_c, 4, 74, 14
1, 18435, Pitch_bend_c, 13, 4885
1, 18440, Control_c, 5, 10, 34
1, 18449, Note_off_c, 9, 39, 64
1, 18449, Note_off_c, 4, 54, 64
1, 18449, Note_off_c, 0, 71, 64
1, 18449, Note_off_c, 0, 66, 64
1, 18449, Note_off_c, 0, 62, 64
1, 18449, Note_off_c, 4, 50, 64
1, 18450, Note_on_c, 0, 59, 51
1, 18450, Note_on_c, 0, 62, 85
1, 18450, Note_on_c, 0, 66, 59
1, 18450, Note_on_c, 4, 47, 92
1, 18450, Note_on_c, 4, 52, 98
1, 18450, Note_on_c, 5, 57, 98
1, 18450, Note_on_c, 5, 69, 98
1, 18450, Pitch_bend_c, 13, 4614
1, 18465, Pitch_bend_c, 13, 4343
1, 18479, Note_off_c, 5, 69, 64
1, 18479, Note_off_c, 0, 62, 64
1, 18479, Note_off_c, 5, 57, 64
1, 18479, Note_off_c, 0, 66, 64
1, 18479, Note_off_c, 4, 52, 64
1, 18479, Note_off_c, 0, 59, 64
1, 18479, Note_off_c, 4, 47, 64
1, 18480, Note_on_c, 0, 55, 74
1, 18480, Note_on_c, 0, 59, 94
1, 18480, Note_on_c, 0, 62, 91
1, 18480, Note_on_c, 4, 43, 98
1, 18480, Note_on_c, 4, 50, 116
1, 18480, Note_on_c, 5, 59, 98
1, 18480, Note_on_c, 5, 71, 98
1, 18480, Control_c, 5, 10, 94
1, 18480, Note_on_c, 9, 70, 80
1, 18480, Pitch_bend_c, 13, 4071
1, 18495, Pitch_bend_c, 13, 3800
1, 18496, Control_c, 0, 74, 15
1, 18496, Control_c, 4, 74, 15
1, 18509, Note_off_c, 9, 70, 64
1, 18509, Note_off_c, 5, 71, 64
1, 18509, Note_off_c, 5, 59, 64
1, 18510, Note_on_c, 5, 62, 54
1, 18510, Note_on_c, 5, 74, 54
1, 18510, Pitch_bend_c, 13, 3529
1, 18520, Control_c, 5, 10, 12
1, 18525, Pitch_bend_c, 13, 3257
1, 18539, Note_off_c, 5, 74, 64
1, 18539, Note_off_c, 4, 50, 64
1, 18539, Note_off_c, 5, 62, 64
1, 18539, Note_off_c, 0, 62, 64
1, 18539, Note_off_c, 0, 59, 64
1, 18539, Note_off_c, 0, 55, 64
1, 18539, Note_off_c, 4, 43, 64
1, 18540, Note_on_c, 0, 59, 70
1, 18540, Note_on_c, 0, 62, 94
1, 18540, Note_on_c, 0, 67, 101
1, 18540, Note_on_c, 4, 50, 79
1, 18540, Note_on_c, 4, 55, 111
1, 18540, Note_on_c, 4, 59, 100
1, 18540, Note_on_c, 5, 59, 116
1, 18540, Note_on_c, 5, 71, 116
1, 18540, Note_on_c, 9, 39, 80
1, 18540, Pitch_bend_c, 13, 2986
1, 18555, Pitch_bend_c, 13, 2714
1, 18560, Control_c, 0, 74, 16
1, 18560, Control_c, 4, 74, 16
1, 18560, Control_c, 5, 10, 115
1, 18569, Note_off_c, 9, 39, 64
1, 18570, Pitch_bend_c, 13, 2443
1, 18585, Pitch_bend_c, 13, 2172
1, 18599, Note_off_c, 5, 71, 64
1, 18599, Note_off_c, 5, 59, 64
1, 18600, Control_c, 5, 10, 34
1, 18600, Note_on_c, 9, 70, 80
1, 18600, Pitch_bend_c, 13, 1900
1, 18615, Pitch_bend_c, 13, 1629
1, 18624, Control_c, 0, 74, 17
1, 18624, Control_c, 4, 74, 17
1, 18629, Note_off_c, 9, 70, 64
1, 18629, Note_off_c, 4, 55, 64
1, 18629, Note_off_c, 0, 62, 64
1, 18629, Note_off_c, 0, 67, 64
1, 18629, Note_off_c, 0, 59, 64
1, 18629, Note_off_c, 4, 59, 64
1, 18629, Note_off_c, 4, 50, 64
1, 18630, Note_on_c, 0, 59, 52
1, 18630, Note_on_c, 0, 62, 85
1, 18630, Note_on_c, 0, 67, 94
1, 18630, Note_on_c, 4, 50, 82
1, 18630, Note_on_c, 4, 55, 98
1, 18630, Note_on_c, 4, 59, 85
1, 18630, Note_on_c, 5, 57, 83
1, 18630, Note_on_c, 5, 69, 83
1, 18630, Pitch_bend_c, 13, 1357
1, 18640, Control_c, 5, 10, 94
1, 18645, Pitch_bend_c, 13, 1086
1, 18659, Note_off_c, 5, 69, 64
1, 18659, Note_off_c, 0, 59, 64
1, 18659, Note_off_c, 0, 62, 64
1, 18659, Note_off_c, 5, 57, 64
1, 18659, Note_off_c, 0, 67, 64
1, 18659, Note_off_c, 4, 55, 64
1, 18659, Note_off_c, 4, 59, 64
1, 18659, Note_off_c, 4, 50, 64
1, 18660, Note_on_c, 0, 62, 78
1, 18660, Note_on_c, 0, 67, 100
1, 18660, Note_on_c, 0, 71, 46
1, 18660, Note_on_c, 4, 43, 109
1, 18660, Note_on_c, 4, 50, 109
1, 18660, Note_on_c, 5, 59, 98
1, 18660, Note_on_c, 5, 71, 98
1, 18660, Note_on_c, 9, 39, 80
1, 18660, Pitch_bend_c, 13, 815
1, 18675, Pitch_bend_c, 13, 543
1, 18680, Control_c, 5, 10, 12
1, 18688, Control_c, 0, 74, 18
1, 18688, Control_c, 4, 74, 18
1, 18689, Note_off_c, 9, 39, 64
1, 18689, Note_off_c, 0, 62, 64
1, 18689, Note_off_c, 0, 67, 64
1, 18689, Note_off_c, 5, 71, 64
1, 18689, Note_off_c, 0, 71, 64
1, 18689, Note_off_c, 4, 50, 64
1, 18689, Note_off_c, 5, 59, 64
1, 18689, Note_off_c, 4, 43, 64
1, 18690, Note_on_c, 0, 59, 45
1, 18690, Note_on_c, 0, 62, 73
1, 18690, Note_on_c, 0, 67, 86
1, 18690, Note_on_c, 4, 43, 101
1, 18690, Note_on_c, 4, 52, 116
1, 18690, Note_on_c, 5, 57, 94
1, 18690, Note_on_c, 5, 69, 94
1, 18690, Pitch_bend_c, 13, 272
1, 18704, Note_off_c, 13, 47, 64
1, 18705, Pitch_bend_c, 13, 1
1, 18719, Note_off_c, 0, 67, 64
1, 18719, Note_off_c, 5, 69, 64
1, 18719, Note_off_c, 4, 43, 64
1, 18719, Note_off_c, 0, 59, 64
1, 18719, Note_off_c, 0, 62, 64
1, 18719, Note_off_c, 5, 57, 64
1, 18719, Note_off_c, 4, 52, 64
1, 18720, Note_on_c, 0, 54, 35
1, 18720, Note_on_c, 0, 57, 85
1, 18720, Note_on_c, 0, 62, 79
1, 18720, Note_on_c, 4, 45, 90
1, 18720, Note_on_c, 4, 50, 105
1, 18720, Note_on_c, 5, 62, 120
1, 18720, Note_on_c, 5, 74, 120
1, 18720, Control_c, 5, 10, 115
1, 18720, Note_on_c, 9, 70, 96
1, 18740, Pitch_bend_c, 13, 1695
1, 18742, Pitch_bend_c, 13, 3955
1, 18745, Pitch_bend_c, 13, 6377
1, 18747, Pitch_bend_c, 13, 8152
1, 18749, Note_off_c, 9, 70, 64
1, 18749, Pitch_bend_c, 13, 8192
1, 18752, Control_c, 0, 74, 19
1, 18752, Control_c, 4, 74, 19
1, 18760, Control_c, 5, 10, 34
1, 18779, Note_off_c, 0, 62, 64
1, 18779, Note_off_c, 5, 74, 64
1, 18779, Note_off_c, 4, 45, 64
1, 18779, Note_off_c, 0, 54, 64
1, 18779, Note_off_c, 0, 57, 64
1, 18779, Note_off_c, 5, 62, 64
1, 18779, Note_off_c, 4, 50, 64
1, 18780, Note_on_c, 0, 57, 69
1, 18780, Note_on_c, 0, 62, 98
1, 18780, Note_on_c, 0, 66, 74
1, 18780, Note_on_c, 4, 45, 100
1, 18780, Note_on_c, 4, 50, 111
1, 18780, Note_on_c, 4, 54, 89
1, 18780, Note_on_c, 9, 39, 71
1, 18800, Control_c, 5, 10, 94
1, 18809, Note_off_c, 9, 39, 64
1, 18816, Control_c, 0, 74, 20
1, 18816, Control_c, 4, 74, 20
1, 18840, Note_on_c, 5, 62, 120
1, 18840, Note_on_c, 5, 74, 120
1, 18840, Control_c, 5, 10, 12
1, 18840, Note_on_c, 9, 70, 92
1, 18869, Note_off_c, 9, 70, 64
1, 18869, Note_off_c, 0, 62, 64
1, 18869, Note_off_c, 4, 54, 64
1, 18869, Note_off_c, 0, 66, 64
1, 18869, Note_off_c, 4, 45, 64
1, 18869, Note_off_c, 0, 57, 64
1, 18869, Note_off_c, 4, 50, 64
1, 18870, Note_on_c, 0, 54, 44
1, 18870, Note_on_c, 0, 57, 78
1, 18870, Note_on_c, 0, 62, 58
1, 18870, Note_on_c, 4, 45, 85
1, 18870, Note_on_c, 4, 50, 105
1, 18870, Note_on_c, 4, 54, 81
1, 18880, Control_c, 0, 74, 21
1, 18880, Control_c, 4, 74, 21
1, 18880, Control_c, 5, 10, 115
1, 18899, Note_off_c, 4, 54, 64
1, 18899, Note_off_c, 0, 54, 64
1, 18899, Note_off_c, 4, 50, 64
1, 18899, Note_off_c, 0, 57, 64
1, 18899, Note_off_c, 5, 62, 64
1, 18899, Note_off_c, 5, 74, 64
1, 18899, Note_off_c, 4, 45, 64
1, 18899, Note_off_c, 0, 62, 64
1, 18900, Note_on_c, 0, 57, 57
1, 18900, Note_on_c, 0, 62, 91
1, 18900, Note_on_c, 0, 66, 77
1, 18900, Note_on_c, 4, 50, 109
1, 18900, Note_on_c, 4, 54, 89
1, 18900, Note_on_c, 4, 57, 109
1, 18900, Note_on_c, 9, 39, 78
1, 18920, Control_c, 5, 10, 34
1, 18929, Note_off_c, 9, 39, 64
1, 18929, Note_off_c, 4, 57, 64
1, 18929, Note_off_c, 4, 50, 64
1, 18929, Note_off_c, 0, 57, 64
1, 18929, Note_off_c, 0, 62, 64
1, 18929, Note_off_c, 0, 66, 64
1, 18929, Note_off_c, 4, 54, 64
1, 18930, Note_on_c, 0, 54, 35
1, 18930, Note_on_c, 0, 57, 79
1, 18930, Note_on_c, 0, 62, 56
1, 18930, Note_on_c, 4, 50, 111
1, 18930, Note_on_c, 4, 54, 100
1, 18930, Note_on_c, 4, 57, 100
1, 18930, Note_on_c, 5, 62, 89
1, 18930, Note_on_c, 5, 74, 89
1, 18944, Control_c, 0, 74, 22
1, 18944, Control_c, 4, 74, 22
1, 18959, Note_off_c, 5, 74, 64
1, 18959, Note_off_c, 0, 62, 64
1, 18959, Note_off_c, 5, 62, 64
1, 18959, Note_off_c, 4, 50, 64
1, 18959, Note_off_c, 0, 54, 64
1, 18959, Note_off_c, 0, 57, 64
1, 18959, Note_off_c, 4, 57, 64
1, 18959, Note_off_c, 4, 54, 64
1, 18960, Note_on_c, 0, 54, 49
1, 18960, Note_on_c, 0, 57, 85
1, 18960, Note_on_c, 0, 62, 75
1, 18960, Note_on_c, 4, 45, 105
1, 18960, Note_on_c, 4, 50, 116
1, 18960, Note_on_c, 5, 64, 81
1, 18960, Note_on_c, 5, 76, 81
1, 18960, Control_c, 5, 10, 94
1, 18960, Note_on_c, 9, 70, 92
1, 18989, Note_off_c, 9, 70, 64
1, 18989, Note_off_c, 5, 76, 64
1, 18989, Note_off_c, 5, 64, 64
1, 18990, Note_on_c, 5, 62, 95
1, 18990, Note_on_c, 5, 74, 95
1, 19000, Control_c, 5, 10, 12
1, 19008, Control_c, 0, 74, 23
1, 19008, Control_c, 4, 74, 23
1, 19019, Note_off_c, 5, 74, 64
1, 19019, Note_off_c, 5, 62, 64
1, 19019, Note_off_c, 4, 50, 64
1, 19019, Note_off_c, 0, 54, 64
1, 19019, Note_off_c, 0, 57, 64
1, 19019, Note_off_c, 0, 62, 64
1, 19019, Note_off_c, 4, 45, 64
1, 19020, Note_on_c, 0, 57, 56
1, 19020, Note_on_c, 0, 62, 84
1, 19020, Note_on_c, 0, 66, 49
1, 19020, Note_on_c, 4, 50, 105
1, 19020, Note_on_c, 4, 54, 115
1, 19020, Note_on_c, 5, 64, 111
1, 19020, Note_on_c, 5, 76, 111
1, 19020, Note_on_c, 9, 39, 81
1, 19040, Control_c, 5, 10, 115
1, 19049, Note_off_c, 9, 39, 64
1, 19049, Note_off_c, 4, 54, 64
1, 19049, Note_off_c, 0, 66, 64
1, 19049, Note_off_c, 0, 62, 64
1, 19049, Note_off_c, 0, 57, 64
1, 19049, Note_off_c, 4, 50, 64
1, 19050, Note_on_c, 0, 57, 84
1, 19050, Note_on_c, 0, 62, 94
1, 19050, Note_on_c, 0, 66, 76
1, 19050, Note_on_c, 4, 50, 100
1, 19050, Note_on_c, 4, 54, 92
1, 19071, Pitch_bend_c, 5, 7749
1, 19072, Control_c, 0, 74, 24
1, 19072, Control_c, 4, 74, 24
1, 19073, Pitch_bend_c, 5, 6215
1, 19076, Pitch_bend_c, 5, 4197
1, 19078, Pitch_bend_c, 5, 2422
1, 19079, Note_off_c, 4, 54, 64
1, 19079, Note_off_c, 5, 64, 64
1, 19079, Note_off_c, 0, 62, 64
1, 19079, Note_off_c, 4, 50, 64
1, 19079, Note_off_c, 5, 76, 64
1, 19079, Note_off_c, 0, 57, 64
1, 19079, Note_off_c, 0, 66, 64
1, 19080, Note_on_c, 0, 52, 47
1, 19080, Note_on_c, 0, 57, 89
1, 19080, Note_on_c, 0, 61, 52
1, 19080, Note_on_c, 4, 45, 101
1, 19080, Note_on_c, 4, 52, 101
1, 19080, Note_on_c, 5, 66, 119
1, 19080, Note_on_c, 5, 78, 119
1, 19080, Control_c, 5, 10, 34
1, 19080, Note_on_c, 9, 70, 92
1, 19081, Pitch_bend_c, 5, 1211
1, 19083, Pitch_bend_c, 5, 646
1, 19086, Pitch_bend_c, 5, 565
1, 19088, Pitch_bend_c, 5, 646
1, 19091, Pitch_bend_c, 5, 1373
1, 19093, Pitch_bend_c, 5, 2260
1, 19096, Pitch_bend_c, 5, 3471
1, 19098, Pitch_bend_c, 5, 5085
1, 19101, Pitch_bend_c, 5, 6942
1, 19103, Pitch_bend_c, 5, 8071
1, 19106, Pitch_bend_c, 5, 8192
1, 19109, Note_off_c, 9, 70, 64
1, 19120, Control_c, 5, 10, 94
1, 19136, Control_c, 0, 74, 25
1, 19136, Control_c, 4, 74, 25
1, 19139, Note_off_c, 0, 61, 64
1, 19139, Note_off_c, 5, 78, 64
1, 19139, Note_off_c, 4, 45, 64
1, 19139, Note_off_c, 0, 52, 64
1, 19139, Note_off_c, 0, 57, 64
1, 19139, Note_off_c, 5, 66, 64
1, 19139, Note_off_c, 4, 52, 64
1, 19140, Note_on_c, 0, 57, 51
1, 19140, Note_on_c, 0, 61, 52
1, 19140, Note_on_c, 0, 64, 78
1, 19140, Note_on_c, 4, 49, 89
1, 19140, Note_on_c, 4, 52, 101
1, 19140, Note_on_c, 4, 57, 89
1, 19140, Note_on_c, 5, 62, 98
1, 19140, Note_on_c, 5, 74, 98
1, 19140, Note_on_c, 9, 39, 77
1, 19160, Control_c, 5, 10, 12
1, 19169, Note_off_c, 9, 39, 64
1, 19169, Note_off_c, 0, 61, 64
1, 19169, Note_off_c, 4, 57, 64
1, 19169, Note_off_c, 0, 64, 64
1, 19169, Note_off_c, 4, 49, 64
1, 19169, Note_off_c, 0, 57, 64
1, 19169, Note_off_c, 4, 52, 64
1, 19170, Note_on_c, 0, 57, 73
1, 19170, Note_on_c, 0, 61, 52
1, 19170, Note_on_c, 0, 64, 83
1, 19170, Note_on_c, 4, 49, 119
1, 19170, Note_on_c, 4, 52, 118
1, 19170, Note_on_c, 4, 57, 105
1, 19195, Note_off_c, 14, 36, 64
1, 19199, Note_off_c, 0, 61, 64
1, 19199, Note_off_c, 5, 62, 64
1, 19199, Note_off_c, 0, 64, 64
1, 19199, Note_off_c, 5, 74, 64
1, 19199, Note_off_c, 0, 57, 64
1, 19199, Note_off_c, 4, 52, 64
1, 19199, Note_off_c, 4, 49, 64
1, 19199, Note_off_c, 4, 57, 64
1, 19200, Control_c, 0, 74, 26
1, 19200, Note_on_c, 0, 59, 58
1, 19200, Note_on_c, 0, 62, 91
1, 19200, Control_c, 4, 74, 26
1, 19200, Note_on_c, 4, 47, 85
1, 19200, Note_on_c, 4, 54, 120
1, 19200, Note_on_c, 5, 59, 105
1, 19200, Note_on_c, 5, 71, 105
1, 19200, Control_c, 5, 10, 115
1, 19200, Note_on_c, 9, 70, 94
1, 19229, Note_off_c, 9, 70, 64
1, 19240, Control_c, 5, 10, 34
1, 19259, Note_off_c, 5, 59, 64
1, 19259, Note_off_c, 0, 62, 64
1, 19259, Note_off_c, 4, 47, 64
1, 19259, Note_off_c, 0, 59, 64
1, 19259, Note_off_c, 5, 71, 64
1, 19259, Note_off_c, 4, 54, 64
1, 19260, Note_on_c, 0, 59, 79
1, 19260, Note_on_c, 0, 62, 95
1, 19260, Note_on_c, 0, 66, 74
1, 19260, Note_on_c, 4, 50, 92
1, 19260, Note_on_c, 4, 54, 87
1, 19260, Note_on_c, 4, 62, 95
1, 19260, Note_on_c, 9, 39, 81
1, 19264, Control_c, 0, 74, 27
1, 19264, Control_c, 4, 74, 27
1, 19280, Control_c, 5, 10, 94
1, 19289, Note_off_c, 9, 39, 64
1, 19320, Note_on_c, 5, 59, 119
1, 19320, Note_on_c, 5, 71, 119
1, 19320, Control_c, 5, 10, 12
1, 19320, Note_on_c, 9, 70, 109
1, 19328, Control_c, 0, 74, 28
1, 19328, Control_c, 4, 74, 28
1, 19349, Note_off_c, 9, 70, 64
1, 19349, Note_off_c, 0, 59, 64
1, 19349, Note_off_c, 4, 54, 64
1, 19349, Note_off_c, 4, 50, 64
1, 19349, Note_off_c, 0, 62, 64
1, 19349, Note_off_c, 0, 66, 64
1, 19349, Note_off_c, 4, 62, 64
1, 19350, Note_on_c, 0, 59, 71
1, 19350, Note_on_c, 0, 62, 91
1, 19350, Note_on_c, 0, 66, 60
1, 19350, Note_on_c, 4, 54, 109
1, 19350, Note_on_c, 4, 59, 95
1, 19360, Control_c, 5, 10, 115
1, 19379, Note_off_c, 4, 59, 64
1, 19379, Note_off_c, 0, 66, 64
1, 19379, Note_off_c, 5, 71, 64
1, 19379, Note_off_c, 0, 59, 64
1, 19379, Note_off_c, 5, 59, 64
1, 19379, Note_off_c, 4, 54, 64
1, 19379, Note_off_c, 0, 62, 64
1, 19380, Note_on_c, 0, 62, 80
1, 19380, Note_on_c, 0, 66, 62
1, 19380, Note_on_c, 0, 71, 91
1, 19380, Note_on_c, 4, 50, 103
1, 19380, Note_on_c, 4, 54, 115
1, 19380, Note_on_c, 9, 39, 80
1, 19392, Control_c, 0, 74, 29
1, 19392, Control_c, 4, 74, 29
1, 19400, Control_c, 5, 10, 34
1, 19409, Note_off_c, 9, 39, 64
1, 19409, Note_off_c, 0, 66, 64
1, 19409, Note_off_c, 0, 71, 64
1, 19409, Note_off_c, 0, 62, 64
1, 19409, Note_off_c, 4, 54, 64
1, 19409, Note_off_c, 4, 50, 64
1, 19410, Note_on_c, 0, 59, 51
1, 19410, Note_on_c, 0, 62, 85
1, 19410, Note_on_c, 0, 66, 59
1, 19410, Note_on_c, 4, 47, 92
1, 19410, Note_on_c, 4, 52, 98
1, 19410, Note_on_c, 5, 57, 91
1, 19410, Note_on_c, 5, 69, 91
1, 19439, Note_off_c, 5, 69, 64
1, 19439, Note_off_c, 4, 52, 64
1, 19439, Note_off_c, 0, 62, 64
1, 19439, Note_off_c, 0, 66, 64
1, 19439, Note_off_c, 0, 59, 64
1, 19439, Note_off_c, 5, 57, 64
1, 19439, Note_off_c, 4, 47, 64
1, 19440, Note_on_c, 0, 55, 74
1, 19440, Note_on_c, 0, 59, 94
1, 19440, Note_on_c, 0, 62, 91
1, 19440, Note_on_c, 4, 43, 98
1, 19440, Note_on_c, 4, 50, 116
1, 19440, Note_on_c, 5, 59, 97
1, 19440, Note_on_c, 5, 71, 97
1, 19440, Control_c, 5, 10, 94
1, 19440, Note_on_c, 9, 70, 84
1, 19456, Control_c, 0, 74, 30
1, 19456, Control_c, 4, 74, 30
1, 19469, Note_off_c, 9, 70, 64
1, 19469, Note_off_c, 5, 71, 64
1, 19469, Note_off_c, 5, 59, 64
1, 19470, Note_on_c, 5, 62, 80
1, 19470, Note_on_c, 5, 74, 80
1, 19480, Control_c, 5, 10, 12
1, 19499, Note_off_c, 5, 74, 64
1, 19499, Note_off_c, 0, 59, 64
1, 19499, Note_off_c, 4, 50, 64
1, 19499, Note_off_c, 0, 62, 64
1, 19499, Note_off_c, 4, 43, 64
1, 19499, Note_off_c, 5, 62, 64
1, 19499, Note_off_c, 0, 55, 64
1, 19500, Note_on_c, 0, 59, 70
1, 19500, Note_on_c, 0, 62, 94
1, 19500, Note_on_c, 0, 67, 101
1, 19500, Note_on_c, 4, 50, 79
1, 19500, Note_on_c, 4, 55, 111
1, 19500, Note_on_c, 4, 59, 100
1, 19500, Note_on_c, 5, 59, 113
1, 19500, Note_on_c, 5, 71, 113
1, 19500, Note_on_c, 9, 39, 82
1, 19520, Control_c, 0, 74, 31
1, 19520, Control_c, 4, 74, 31
1, 19520, Control_c, 5, 10, 115
1, 19529, Note_off_c, 9, 39, 64
1, 19559, Note_off_c, 5, 71, 64
1, 19559, Note_off_c, 5, 59, 64
1, 19560, Control_c, 5, 10, 34
1, 19560, Note_on_c, 9, 70, 86
1, 19584, Control_c, 0, 74, 32
1, 19584, Control_c, 4, 74, 32
1, 19589, Note_off_c, 9, 70, 64
1, 19589, Note_off_c, 4, 59, 64
1, 19589, Note_off_c, 0, 62, 64
1, 19589, Note_off_c, 0, 67, 64
1, 19589, Note_off_c, 4, 50, 64
1, 19589, Note_off_c, 4, 55, 64
1, 19589, Note_off_c, 0, 59, 64
1, 19590, Note_on_c, 0, 59, 52
1, 19590, Note_on_c, 0, 62, 85
1, 19590, Note_on_c, 0, 67, 94
1, 19590, Note_on_c, 4, 50, 82
1, 19590, Note_on_c, 4, 55, 98
1, 19590, Note_on_c, 4, 59, 85
1, 19590, Note_on_c, 5, 57, 98
1, 19590, Note_on_c, 5, 69, 98
1, 19600, Control_c, 5, 10, 94
1, 19619, Note_off_c, 5, 69, 64
1, 19619, Note_off_c, 0, 59, 64
1, 19619, Note_off_c, 4, 55, 64
1, 19619, Note_off_c, 0, 62, 64
1, 19619, Note_off_c, 0, 67, 64
1, 19619, Note_off_c, 4, 50, 64
1, 19619, Note_off_c, 4, 59, 64
1, 19619, Note_off_c, 5, 57, 64
1, 19620, Note_on_c, 0, 62, 78
1, 19620, Note_on_c, 0, 67, 100
1, 19620, Note_on_c, 0, 71, 46
1, 19620, Note_on_c, 4, 43, 109
1, 19620, Note_on_c, 4, 50, 109
1, 19620, Note_on_c, 5, 59, 101
1, 19620, Note_on_c, 5, 71, 101
1, 19620, Note_on_c, 9, 39, 82
1, 19640, Control_c, 5, 10, 12
1, 19648, Control_c, 0, 74, 33
1, 19648, Control_c, 4, 74, 33
1, 19649, Note_off_c, 9, 39, 64
1, 19649, Note_off_c, 0, 62, 64
1, 19649, Note_off_c, 4, 50, 64
1, 19649, Note_off_c, 0, 67, 64
1, 19649, Note_off_c, 0, 71, 64
1, 19649, Note_off_c, 4, 43, 64
1, 19649, Note_off_c, 5, 59, 64
1, 19649, Note_off_c, 5, 71, 64
1, 19650, Note_on_c, 0, 59, 45
1, 19650, Note_on_c, 0, 62, 73
1, 19650, Note_on_c, 0, 67, 86
1, 19650, Note_on_c, 4, 43, 101
1, 19650, Note_on_c, 4, 52, 116
1, 19650, Note_on_c, 5, 57, 91
1, 19650, Note_on_c, 5, 69, 91
1, 19679, Note_off_c, 5, 69, 64
1, 19679, Note_off_c, 4, 52, 64
1, 19679, Note_off_c, 0, 62, 64
1, 19679, Note_off_c, 0, 67, 64
1, 19679, Note_off_c, 0, 59, 64
1, 19679, Note_off_c, 5, 57, 64
1, 19679, Note_off_c, 4, 43, 64
1, 19680, Note_on_c, 0, 54, 35
1, 19680, Note_on_c, 0, 57, 85
1, 19680, Note_on_c, 0, 62, 79
1, 19680, Note_on_c, 4, 45, 90
1, 19680, Note_on_c, 4, 50, 105
1, 19680, Note_on_c, 5, 62, 105
1, 19680, Note_on_c, 5, 74, 105
1, 19680, Control_c, 5, 10, 115
1, 19680, Note_on_c, 9, 70, 78
1, 19709, Note_off_c, 9, 70, 64
1, 19712, Control_c, 0, 74, 34
1, 19712, Control_c, 4, 74, 34
1, 19720, Control_c, 5, 10, 34
1, 19739, Note_off_c, 0, 54, 64
1, 19739, Note_off_c, 4, 50, 64
1, 19739, Note_off_c, 0, 57, 64
1, 19739, Note_off_c, 0, 62, 64
1, 19739, Note_off_c, 4, 45, 64
1, 19739, Note_off_c, 5, 62, 64
1, 19739, Note_off_c, 5, 74, 64
1, 19740, Note_on_c, 0, 57, 69
1, 19740, Note_on_c, 0, 62, 98
1, 19740, Note_on_c, 0, 66, 74
1, 19740, Note_on_c, 4, 45, 100
1, 19740, Note_on_c, 4, 50, 111
1, 19740, Note_on_c, 4, 54, 89
1, 19740, Note_on_c, 9, 39, 81
1, 19760, Control_c, 5, 10, 94
1, 19769, Note_off_c, 9, 39, 64
1, 19776, Control_c, 0, 74, 35
1, 19776, Control_c, 4, 74, 35
1, 19800, Note_on_c, 5, 62, 119
1, 19800, Note_on_c, 5, 74, 119
1, 19800, Control_c, 5, 10, 12
1, 19800, Note_on_c, 9, 70, 84
1, 19829, Note_off_c, 9, 70, 64
1, 19829, Note_off_c, 0, 57, 64
1, 19829, Note_off_c, 4, 50, 64
1, 19829, Note_off_c, 4, 45, 64
1, 19829, Note_off_c, 0, 62, 64
1, 19829, Note_off_c, 0, 66, 64
1, 19829, Note_off_c, 4, 54, 64
1, 19830, Note_on_c, 0, 54, 44
1, 19830, Note_on_c, 0, 57, 78
1, 19830, Note_on_c, 0, 62, 58
1, 19830, Note_on_c, 4, 45, 85
1, 19830, Note_on_c, 4, 50, 105
1, 19830, Note_on_c, 4, 54, 81
1, 19840, Control_c, 0, 74, 36
1, 19840, Control_c, 4, 74, 36
1, 19840, Control_c, 5, 10, 115
1, 19859, Note_off_c, 4, 54, 64
1, 19859, Note_off_c, 5, 62, 64
1, 19859, Note_off_c, 0, 62, 64
1, 19859, Note_off_c, 5, 74, 64
1, 19859, Note_off_c, 0, 54, 64
1, 19859, Note_off_c, 0, 57, 64
1, 19859, Note_off_c, 4, 45, 64
1, 19859, Note_off_c, 4, 50, 64
1, 19860, Note_on_c, 0, 57, 57
1, 19860, Note_on_c, 0, 62, 91
1, 19860, Note_on_c, 0, 66, 77
1, 19860, Note_on_c, 4, 50, 109
1, 19860, Note_on_c, 4, 54, 89
1, 19860, Note_on_c, 4, 57, 109
1, 19860, Note_on_c, 9, 39, 82
1, 19880, Control_c, 5, 10, 34
1, 19889, Note_off_c, 9, 39, 64
1, 19889, Note_off_c, 4, 54, 64
1, 19889, Note_off_c, 0, 62, 64
1, 19889, Note_off_c, 0, 66, 64
1, 19889, Note_off_c, 0, 57, 64
1, 19889, Note_off_c, 4, 57, 64
1, 19889, Note_off_c, 4, 50, 64
1, 19890, Note_on_c, 0, 54, 35
1, 19890, Note_on_c, 0, 57, 79
1, 19890, Note_on_c, 0, 62, 56
1, 19890, Note_on_c, 4, 50, 111
1, 19890, Note_on_c, 4, 54, 100
1, 19890, Note_on_c, 4, 57, 100
1, 19890, Note_on_c, 5, 62, 103
1, 19890, Note_on_c, 5, 74, 103
1, 19904, Control_c, 0, 74, 37
1, 19904, Control_c, 4, 74, 37
1, 19919, Note_off_c, 5, 74, 64
1, 19919, Note_off_c, 0, 54, 64
1, 19919, Note_off_c, 4, 54, 64
1, 19919, Note_off_c, 0, 57, 64
1, 19919, Note_off_c, 0, 62, 64
1, 19919, Note_off_c, 4, 50, 64
1, 19919, Note_off_c, 4, 57, 64
1, 19919, Note_off_c, 5, 62, 64
1, 19920, Note_on_c, 0, 54, 49
1, 19920, Note_on_c, 0, 57, 85
1, 19920, Note_on_c, 0, 62, 75
1, 19920, Note_on_c, 4, 45, 105
1, 19920, Note_on_c, 4, 50, 116
1, 19920, Note_on_c, 5, 64, 95
1, 19920, Note_on_c, 5, 76, 95
1, 19920, Control_c, 5, 10, 94
1, 19920, Note_on_c, 9, 70, 87
1, 19949, Note_off_c, 9, 70, 64
1, 19949, Note_off_c, 5, 76, 64
1, 19949, Note_off_c, 5, 64, 64
1, 19950, Note_on_c, 5, 62, 86
1, 19950, Note_on_c, 5, 74, 86
1, 19960, Control_c, 5, 10, 12
1, 19968, Control_c, 0, 74, 38
1, 19968, Control_c, 4, 74, 38
1, 19979, Note_off_c, 5, 74, 64
1, 19979, Note_off_c, 0, 57, 64
1, 19979, Note_off_c, 4, 50, 64
1, 19979, Note_off_c, 0, 62, 64
1, 19979, Note_off_c, 4, 45, 64
1, 19979, Note_off_c, 5, 62, 64
1, 19979, Note_off_c, 0, 54, 64
1, 19980, Note_on_c, 0, 57, 56
1, 19980, Note_on_c, 0, 62, 84
1, 19980, Note_on_c, 0, 66, 49
1, 19980, Note_on_c, 4, 50, 105
1, 19980, Note_on_c, 4, 54, 115
1, 19980, Note_on_c, 5, 64, 98
1, 19980, Note_on_c, 5, 76, 98
1, 19980, Note_on_c, 9, 39, 84
1, 20000, Control_c, 5, 10, 115
1, 20009, Note_off_c, 9, 39, 64
1, 20009, Note_off_c, 0, 57, 64
1, 20009, Note_off_c, 4, 54, 64
1, 20009, Note_off_c, 4, 50, 64
1, 20009, Note_off_c, 0, 66, 64
1, 20009, Note_off_c, 0, 62, 64
1, 20010, Note_on_c, 0, 57, 84
1, 20010, Note_on_c, 0, 62, 94
1, 20010, Note_on_c, 0, 66, 76
1, 20010, Note_on_c, 4, 50, 100
1, 20010, Note_on_c, 4, 54, 92
1, 20030, Pitch_bend_c, 5, 8071
1, 20032, Control_c, 0, 74, 39
1, 20032, Control_c, 4, 74, 39
1, 20035, Pitch_bend_c, 5, 6296
1, 20038, Pitch_bend_c, 5, 4197
1, 20039, Note_off_c, 4, 54, 64
1, 20039, Note_off_c, 0, 66, 64
1, 20039, Note_off_c, 5, 76, 64
1, 20039, Note_off_c, 0, 57, 64
1, 20039, Note_off_c, 5, 64, 64
1, 20039, Note_off_c, 4, 50, 64
1, 20039, Note_off_c, 0, 62, 64
1, 20040, Note_on_c, 0, 52, 47
1, 20040, Note_on_c, 0, 57, 89
1, 20040, Note_on_c, 0, 61, 52
1, 20040, Note_on_c, 4, 45, 101
1, 20040, Note_on_c, 4, 52, 101
1, 20040, Note_on_c, 5, 66, 119
1, 20040, Note_on_c, 5, 78, 119
1, 20040, Pitch_bend_c, 5, 1776
1, 20040, Control_c, 5, 10, 34
1, 20040, Note_on_c, 9, 70, 91
1, 20043, Pitch_bend_c, 5, 0
1, 20060, Pitch_bend_c, 5, 646
1, 20063, Pitch_bend_c, 5, 2422
1, 20065, Pitch_bend_c, 5, 4520
1, 20068, Pitch_bend_c, 5, 6942
1, 20069, Note_off_c, 9, 70, 64
1, 20070, Pitch_bend_c, 5, 8192
1, 20080, Control_c, 5, 10, 94
1, 20096, Control_c, 0, 74, 40
1, 20096, Control_c, 4, 74, 40
1, 20099, Note_off_c, 0, 52, 64
1, 20099, Note_off_c, 4, 52, 64
1, 20099, Note_off_c, 0, 57, 64
1, 20099, Note_off_c, 0, 61, 64
1, 20099, Note_off_c, 4, 45, 64
1, 20099, Note_off_c, 5, 66, 64
1, 20099, Note_off_c, 5, 78, 64
1, 20100, Note_on_c, 0, 57, 51
1, 20100, Note_on_c, 0, 61, 52
1, 20100, Note_on_c, 0, 64, 78
1, 20100, Note_on_c, 4, 49, 89
1, 20100, Note_on_c, 4, 52, 101
1, 20100, Note_on_c, 4, 57, 89
1, 20100, Note_on_c, 5, 62, 111
1, 20100, Note_on_c, 5, 74, 111
1, 20100, Note_on_c, 9, 39, 78
1, 20120, Control_c, 5, 10, 12
1, 20129, Note_off_c, 9, 39, 64
1, 20129, Note_off_c, 0, 57, 64
1, 20129, Note_off_c, 4, 57, 64
1, 20129, Note_off_c, 4, 49, 64
1, 20129, Note_off_c, 0, 61, 64
1, 20129, Note_off_c, 0, 64, 64
1, 20129, Note_off_c, 4, 52, 64
1, 20130, Note_on_c, 0, 57, 73
1, 20130, Note_on_c, 0, 61, 52
1, 20130, Note_on_c, 0, 64, 83
1, 20130, Note_on_c, 4, 49, 119
1, 20130, Note_on_c, 4, 52, 118
1, 20130, Note_on_c, 4, 57, 105
1, 20159, Note_off_c, 4, 57, 64
1, 20159, Note_off_c, 5, 62, 64
1, 20159, Note_off_c, 0, 64, 64
1, 20159, Note_off_c, 5, 74, 64
1, 20159, Note_off_c, 0, 57, 64
1, 20159, Note_off_c, 0, 61, 64
1, 20159, Note_off_c, 4, 49, 64
1, 20159, Note_off_c, 4, 52, 64
1, 20160, Control_c, 0, 74, 41
1, 20160, Note_on_c, 0, 59, 58
1, 20160, Note_on_c, 0, 62, 91
1, 20160, Control_c, 4, 74, 41
1, 20160, Note_on_c, 4, 47, 85
1, 20160, Note_on_c, 4, 54, 120
1, 20160, Note_on_c, 5, 59, 120
1, 20160, Note_on_c, 5, 71, 120
1, 20160, Control_c, 5, 10, 115
1, 20160, Note_on_c, 9, 70, 89
1, 20189, Note_off_c, 9, 70, 64
1, 20200, Control_c, 5, 10, 34
1, 20219, Note_off_c, 5, 59, 64
1, 20219, Note_off_c, 0, 62, 64
1, 20219, Note_off_c, 4, 47, 64
1, 20219, Note_off_c, 0, 59, 64
1, 20219, Note_off_c, 5, 71, 64
1, 20219, Note_off_c, 4, 54, 64
1, 20220, Note_on_c, 0, 59, 79
1, 20220, Note_on_c, 0, 62, 95
1, 20220, Note_on_c, 0, 66, 74
1, 20220, Note_on_c, 4, 50, 92
1, 20220, Note_on_c, 4, 54, 87
1, 20220, Note_on_c, 4, 62, 95
1, 20220, Note_on_c, 9, 39, 78
1, 20224, Control_c, 0, 74, 42
1, 20224, Control_c, 4, 74, 42
1, 20240, Control_c, 5, 10, 94
1, 20249, Note_off_c, 9, 39, 64
1, 20280, Note_on_c, 5, 59, 120
1, 20280, Note_on_c, 5, 71, 120
1, 20280, Control_c, 5, 10, 12
1, 20280, Note_on_c, 9, 70, 102
1, 20288, Control_c, 0, 74, 43
1, 20288, Control_c, 4, 74, 43
1, 20309, Note_off_c, 9, 70, 64
1, 20309, Note_off_c, 0, 59, 64
1, 20309, Note_off_c, 4, 54, 64
1, 20309, Note_off_c, 4, 50, 64
1, 20309, Note_off_c, 0, 62, 64
1, 20309, Note_off_c, 0, 66, 64
1, 20309, Note_off_c, 4, 62, 64
1, 20310, Note_on_c, 0, 59, 71
1, 20310, Note_on_c, 0, 62, 91
1, 20310, Note_on_c, 0, 66, 60
1, 20310, Note_on_c, 4, 54, 109
1, 20310, Note_on_c, 4, 59, 95
1, 20320, Control_c, 5, 10, 115
1, 20339, Note_off_c, 4, 59, 64
1, 20339, Note_off_c, 0, 66, 64
1, 20339, Note_off_c, 5, 71, 64
1, 20339, Note_off_c, 0, 59, 64
1, 20339, Note_off_c, 5, 59, 64
1, 20339, Note_off_c, 4, 54, 64
1, 20339, Note_off_c, 0, 62, 64
1, 20340, Note_on_c, 0, 62, 80
1, 20340, Note_on_c, 0, 66, 62
1, 20340, Note_on_c, 0, 71, 91
1, 20340, Note_on_c, 4, 50, 103
1, 20340, Note_on_c, 4, 54, 115
1, 20340, Note_on_c, 9, 39, 84
1, 20352, Control_c, 0, 74, 44
1, 20352, Control_c, 4, 74, 44
1, 20360, Control_c, 5, 10, 34
1, 20369, Note_off_c, 9, 39, 64
1, 20369, Note_off_c, 0, 66, 64
1, 20369, Note_off_c, 0, 71, 64
1, 20369, Note_off_c, 0, 62, 64
1, 20369, Note_off_c, 4, 54, 64
1, 20369, Note_off_c, 4, 50, 64
1, 20370, Note_on_c, 0, 59, 51
1, 20370, Note_on_c, 0, 62, 85
1, 20370, Note_on_c, 0, 66, 59
1, 20370, Note_on_c, 4, 47, 92
1, 20370, Note_on_c, 4, 52, 98
1, 20370, Note_on_c, 5, 57, 98
1, 20370, Note_on_c, 5, 69, 98
1, 20399, Note_off_c, 5, 69, 64
1, 20399, Note_off_c, 4, 52, 64
1, 20399, Note_off_c, 0, 62, 64
1, 20399, Note_off_c, 0, 66, 64
1, 20399, Note_off_c, 0, 59, 64
1, 20399, Note_off_c, 5, 57, 64
1, 20399, Note_off_c, 4, 47, 64
1, 20400, Note_on_c, 0, 55, 74
1, 20400, Note_on_c, 0, 59, 94
1, 20400, Note_on_c, 0, 62, 91
1, 20400, Note_on_c, 4, 43, 98
1, 20400, Note_on_c, 4, 50, 116
1, 20400, Note_on_c, 5, 59, 98
1, 20400, Note_on_c, 5, 71, 98
1, 20400, Control_c, 5, 10, 94
1, 20400, Note_on_c, 9, 70, 100
1, 20416, Control_c, 0, 74, 45
1, 20416, Control_c, 4, 74, 45
1, 20429, Note_off_c, 9, 70, 64
1, 20429, Note_off_c, 5, 71, 64
1, 20429, Note_off_c, 5, 59, 64
1, 20430, Note_on_c, 5, 62, 54
1, 20430, Note_on_c, 5, 74, 54
1, 20440, Control_c, 5, 10, 12
1, 20459, Note_off_c, 5, 74, 64
1, 20459, Note_off_c, 0, 59, 64
1, 20459, Note_off_c, 4, 50, 64
1, 20459, Note_off_c, 0, 62, 64
1, 20459, Note_off_c, 4, 43, 64
1, 20459, Note_off_c, 5, 62, 64
1, 20459, Note_off_c, 0, 55, 64
1, 20460, Note_on_c, 0, 59, 70
1, 20460, Note_on_c, 0, 62, 94
1, 20460, Note_on_c, 0, 67, 101
1, 20460, Note_on_c, 4, 50, 79
1, 20460, Note_on_c, 4, 55, 111
1, 20460, Note_on_c, 4, 59, 100
1, 20460, Note_on_c, 5, 59, 116
1, 20460, Note_on_c, 5, 71, 116
1, 20460, Note_on_c, 9, 39, 94
1, 20480, Control_c, 0, 74, 46
1, 20480, Control_c, 4, 74, 46
1, 20480, Control_c, 5, 10, 115
1, 20489, Note_off_c, 9, 39, 64
1, 20519, Note_off_c, 5, 71, 64
1, 20519, Note_off_c, 5, 59, 64
1, 20520, Control_c, 5, 10, 34
1, 20520, Note_on_c, 9, 70, 102
1, 20544, Control_c, 0, 74, 47
1, 20544, Control_c, 4, 74, 47
1, 20549, Note_off_c, 9, 70, 64
1, 20549, Note_off_c, 4, 59, 64
1, 20549, Note_off_c, 0, 62, 64
1, 20549, Note_off_c, 0, 67, 64
1, 20549, Note_off_c, 4, 50, 64
1, 20549, Note_off_c, 4, 55, 64
1, 20549, Note_off_c, 0, 59, 64
1, 20550, Note_on_c, 0, 59, 52
1, 20550, Note_on_c, 0, 62, 85
1, 20550, Note_on_c, 0, 67, 94
1, 20550, Note_on_c, 4, 50, 82
1, 20550, Note_on_c, 4, 55, 98
1, 20550, Note_on_c, 4, 59, 85
1, 20550, Note_on_c, 5, 57, 83
1, 20550, Note_on_c, 5, 69, 83
1, 20560, Control_c, 5, 10, 94
1, 20579, Note_off_c, 5, 69, 64
1, 20579, Note_off_c, 0, 59, 64
1, 20579, Note_off_c, 4, 55, 64
1, 20579, Note_off_c, 0, 62, 64
1, 20579, Note_off_c, 0, 67, 64
1, 20579, Note_off_c, 4, 50, 64
1, 20579, Note_off_c, 4, 59, 64
1, 20579, Note_off_c, 5, 57, 64
1, 20580, Note_on_c, 0, 62, 78
1, 20580, Note_on_c, 0, 67, 100
1, 20580, Note_on_c, 0, 71, 46
1, 20580, Note_on_c, 4, 43, 109
1, 20580, Note_on_c, 4, 50, 109
1, 20580, Note_on_c, 5, 59, 98
1, 20580, Note_on_c, 5, 71, 98
1, 20580, Note_on_c, 9, 39, 102
1, 20600, Control_c, 5, 10, 12
1, 20608, Control_c, 0, 74, 48
1, 20608, Control_c, 4, 74, 48
1, 20609, Note_off_c, 9, 39, 64
1, 20609, Note_off_c, 0, 62, 64
1, 20609, Note_off_c, 4, 50, 64
1, 20609, Note_off_c, 0, 67, 64
1, 20609, Note_off_c, 0, 71, 64
1, 20609, Note_off_c, 4, 43, 64
1, 20609, Note_off_c, 5, 59, 64
1, 20609, Note_off_c, 5, 71, 64
1, 20610, Note_on_c, 0, 59, 45
1, 20610, Note_on_c, 0, 62, 73
1, 20610, Note_on_c, 0, 67, 86
1, 20610, Note_on_c, 4, 43, 101
1, 20610, Note_on_c, 4, 52, 116
1, 20610, Note_on_c, 5, 57, 94
1, 20610, Note_on_c, 5, 69, 94
1, 20639, Note_off_c, 5, 69, 64
1, 20639, Note_off_c, 4, 52, 64
1, 20639, Note_off_c, 0, 62, 64
1, 20639, Note_off_c, 0, 67, 64
1, 20639, Note_off_c, 0, 59, 64
1, 20639, Note_off_c, 5, 57, 64
1, 20639, Note_off_c, 4, 43, 64
1, 20640, Note_on_c, 0, 54, 35
1, 20640, Note_on_c, 0, 57, 85
1, 20640, Note_on_c, 0, 62, 79
1, 20640, Note_on_c, 4, 45, 90
1, 20640, Note_on_c, 4, 50, 105
1, 20640, Note_on_c, 5, 62, 120
1, 20640, Note_on_c, 5, 74, 120
1, 20640, Control_c, 5, 10, 115
1, 20640, Note_on_c, 9, 70, 104
1, 20640, Control_c, 12, 11, 7
1, 20640, Control_c, 12, 74, 22
1, 20640, Note_on_c, 12, 48, 120
1, 20655, Control_c, 12, 11, 8
1, 20655, Control_c, 12, 74, 24
1, 20669, Note_off_c, 9, 70, 64
1, 20670, Control_c, 12, 11, 10
1, 20670, Control_c, 12, 74, 26
1, 20672, Control_c, 0, 74, 49
1, 20672, Control_c, 4, 74, 49
1, 20680, Control_c, 5, 10, 34
1, 20685, Control_c, 12, 11, 12
1, 20685, Control_c, 12, 74, 28
1, 20699, Note_off_c, 5, 74, 64
1, 20699, Note_off_c, 4, 45, 64
1, 20699, Note_off_c, 4, 50, 64
1, 20699, Note_off_c, 0, 57, 64
1, 20699, Note_off_c, 0, 62, 64
1, 20699, Note_off_c, 0, 54, 64
1, 20699, Note_off_c, 5, 62, 64
1, 20700, Note_on_c, 0, 57, 69
1, 20700, Note_on_c, 0, 62, 98
1, 20700, Note_on_c, 0, 66, 74
1, 20700, Note_on_c, 4, 45, 100
1, 20700, Note_on_c, 4, 50, 111
1, 20700, Note_on_c, 4, 54, 89
1, 20700, Note_on_c, 9, 39, 92
1, 20700, Control_c, 12, 11, 14
1, 20700, Control_c, 12, 74, 30
1, 20715, Control_c, 12, 11, 16
1, 20715, Control_c, 12, 74, 32
1, 20720, Control_c, 5, 10, 94
1, 20729, Note_off_c, 9, 39, 64
1, 20730, Control_c, 12, 11, 18
1, 20730, Control_c, 12, 74, 35
1, 20736, Control_c, 0, 74, 50
1, 20736, Control_c, 4, 74, 50
1, 20745, Control_c, 12, 11, 20
1, 20745, Control_c, 12, 74, 37
1, 20760, Note_on_c, 5, 62, 120
1, 20760, Note_on_c, 5, 74, 120
1, 20760, Control_c, 5, 10, 12
1, 20760, Note_on_c, 9, 70, 102
1, 20760, Control_c, 12, 11, 22
1, 20760, Control_c, 12, 74, 39
1, 20775, Control_c, 12, 11, 24
1, 20775, Control_c, 12, 74, 41
1, 20789, Note_off_c, 9, 70, 64
1, 20789, Note_off_c, 0, 62, 64
1, 20789, Note_off_c, 4, 54, 64
1, 20789, Note_off_c, 0, 66, 64
1, 20789, Note_off_c, 4, 45, 64
1, 20789, Note_off_c, 0, 57, 64
1, 20789, Note_off_c, 4, 50, 64
1, 20790, Note_on_c, 0, 54, 44
1, 20790, Note_on_c, 0, 57, 78
1, 20790, Note_on_c, 0, 62, 58
1, 20790, Note_on_c, 4, 45, 85
1, 20790, Note_on_c, 4, 50, 105
1, 20790, Note_on_c, 4, 54, 81
1, 20790, Control_c, 12, 11, 26
1, 20790, Control_c, 12, 74, 43
1, 20800, Control_c, 0, 74, 51
1, 20800, Control_c, 4, 74, 51
1, 20800, Control_c, 5, 10, 115
1, 20805, Control_c, 12, 11, 27
1, 20805, Control_c, 12, 74, 46
1, 20819, Note_off_c, 4, 54, 64
1, 20819, Note_off_c, 0, 54, 64
1, 20819, Note_off_c, 4, 50, 64
1, 20819, Note_off_c, 0, 57, 64
1, 20819, Note_off_c, 5, 62, 64
1, 20819, Note_off_c, 5, 74, 64
1, 20819, Note_off_c, 4, 45, 64
1, 20819, Note_off_c, 0, 62, 64
1, 20820, Note_on_c, 0, 57, 57
1, 20820, Note_on_c, 0, 62, 91
1, 20820, Note_on_c, 0, 66, 77
1, 20820, Note_on_c, 4, 50, 109
1, 20820, Note_on_c, 4, 54, 89
1, 20820, Note_on_c, 4, 57, 109
1, 20820, Note_on_c, 9, 39, 86
1, 20820, Control_c, 12, 11, 29
1, 20820, Control_c, 12, 74, 48
1, 20835, Control_c, 12, 11, 31
1, 20835, Control_c, 12, 74, 50
1, 20840, Control_c, 5, 10, 34
1, 20849, Note_off_c, 9, 39, 64
1, 20849, Note_off_c, 4, 57, 64
1, 20849, Note_off_c, 4, 50, 64
1, 20849, Note_off_c, 0, 57, 64
1, 20849, Note_off_c, 0, 62, 64
1, 20849, Note_off_c, 0, 66, 64
1, 20849, Note_off_c, 4, 54, 64
1, 20850, Note_on_c, 0, 54, 35
1, 20850, Note_on_c, 0, 57, 79
1, 20850, Note_on_c, 0, 62, 56
1, 20850, Note_on_c, 4, 50, 111
1, 20850, Note_on_c, 4, 54, 100
1, 20850, Note_on_c, 4, 57, 100
1, 20850, Note_on_c, 5, 62, 89
1, 20850, Note_on_c, 5, 74, 89
1, 20850, Control_c, 12, 11, 33
1, 20850, Control_c, 12, 74, 52
1, 20864, Control_c, 0, 74, 52
1, 20864, Control_c, 4, 74, 52
1, 20865, Control_c, 12, 11, 35
1, 20865, Control_c, 12, 74, 54
1, 20879, Note_off_c, 5, 74, 64
1, 20879, Note_off_c, 0, 62, 64
1, 20879, Note_off_c, 5, 62, 64
1, 20879, Note_off_c, 4, 50, 64
1, 20879, Note_off_c, 0, 54, 64
1, 20879, Note_off_c, 0, 57, 64
1, 20879, Note_off_c, 4, 57, 64
1, 20879, Note_off_c, 4, 54, 64
1, 20880, Note_on_c, 0, 54, 49
1, 20880, Note_on_c, 0, 57, 85
1, 20880, Note_on_c, 0, 62, 75
1, 20880, Note_on_c, 4, 45, 105
1, 20880, Note_on_c, 4, 50, 116
1, 20880, Note_on_c, 5, 64, 81
1, 20880, Note_on_c, 5, 76, 81
1, 20880, Control_c, 5, 10, 94
1, 20880, Note_on_c, 9, 70, 115
1, 20880, Control_c, 12, 11, 37
1, 20880, Control_c, 12, 74, 57
1, 20895, Control_c, 12, 11, 39
1, 20895, Control_c, 12, 74, 59
1, 20909, Note_off_c, 9, 70, 64
1, 20909, Note_off_c, 5, 76, 64
1, 20909, Note_off_c, 5, 64, 64
1, 20910, Note_on_c, 5, 62, 95
1, 20910, Note_on_c, 5, 74, 95
1, 20910, Control_c, 12, 11, 41
1, 20910, Control_c, 12, 74, 61
1, 20920, Control_c, 5, 10, 12
1, 20925, Control_c, 12, 11, 43
1, 20925, Control_c, 12, 74, 63
1, 20928, Control_c, 0, 74, 53
1, 20928, Control_c, 4, 74, 53
1, 20939, Note_off_c, 5, 74, 64
1, 20939, Note_off_c, 5, 62, 64
1, 20939, Note_off_c, 4, 50, 64
1, 20939, Note_off_c, 0, 54, 64
1, 20939, Note_off_c, 0, 57, 64
1, 20939, Note_off_c, 0, 62, 64
1, 20939, Note_off_c, 4, 45, 64
1, 20940, Note_on_c, 0, 57, 56
1, 20940, Note_on_c, 0, 62, 84
1, 20940, Note_on_c, 0, 66, 49
1, 20940, Note_on_c, 4, 50, 105
1, 20940, Note_on_c, 4, 54, 115
1, 20940, Note_on_c, 5, 64, 111
1, 20940, Note_on_c, 5, 76, 111
1, 20940, Note_on_c, 9, 39, 92
1, 20940, Control_c, 12, 11, 45
1, 20940, Control_c, 12, 74, 65
1, 20955, Control_c, 12, 11, 47
1, 20955, Control_c, 12, 74, 67
1, 20960, Control_c, 5, 10, 115
1, 20969, Note_off_c, 9, 39, 64
1, 20969, Note_off_c, 4, 54, 64
1, 20969, Note_off_c, 0, 66, 64
1, 20969, Note_off_c, 0, 62, 64
1, 20969, Note_off_c, 0, 57, 64
1, 20969, Note_off_c, 4, 50, 64
1, 20970, Note_on_c, 0, 57, 84
1, 20970, Note_on_c, 0, 62, 94
1, 20970, Note_on_c, 0, 66, 76
1, 20970, Note_on_c, 4, 50, 100
1, 20970, Note_on_c, 4, 54, 92
1, 20970, Control_c, 12, 11, 48
1, 20970, Control_c, 12, 74, 70
1, 20985, Control_c, 12, 11, 50
1, 20985, Control_c, 12, 74, 72
1, 20991, Pitch_bend_c, 5, 7749
1, 20992, Control_c, 0, 74, 54
1, 20992, Control_c, 4, 74, 54
1, 20993, Pitch_bend_c, 5, 6215
1, 20996, Pitch_bend_c, 5, 4197
1, 20998, Pitch_bend_c, 5, 2422
1, 20999, Note_off_c, 4, 54, 64
1, 20999, Note_off_c, 5, 64, 64
1, 20999, Note_off_c, 0, 62, 64
1, 20999, Note_off_c, 4, 50, 64
1, 20999, Note_off_c, 5, 76, 64
1, 20999, Note_off_c, 0, 57, 64
1, 20999, Note_off_c, 0, 66, 64
1, 21000, Note_on_c, 0, 52, 47
1, 21000, Note_on_c, 0, 57, 89
1, 21000, Note_on_c, 0, 61, 52
1, 21000, Note_on_c, 4, 45, 101
1, 21000, Note_on_c, 4, 52, 101
1, 21000, Note_on_c, 5, 66, 119
1, 21000, Note_on_c, 5, 78, 119
1, 21000, Control_c, 5, 10, 34
1, 21000, Note_on_c, 9, 70, 115
1, 21000, Control_c, 12, 11, 52
1, 21000, Control_c, 12, 74, 74
1, 21001, Pitch_bend_c, 5, 1211
1, 21003, Pitch_bend_c, 5, 646
1, 21006, Pitch_bend_c, 5, 565
1, 21008, Pitch_bend_c, 5, 646
1, 21011, Pitch_bend_c, 5, 1373
1, 21013, Pitch_bend_c, 5, 2260
1, 21015, Control_c, 12, 11, 54
1, 21015, Control_c, 12, 74, 76
1, 21016, Pitch_bend_c, 5, 3471
1, 21018, Pitch_bend_c, 5, 5085
1, 21021, Pitch_bend_c, 5, 6942
1, 21023, Pitch_bend_c, 5, 8071
1, 21026, Pitch_bend_c, 5, 8192
1, 21029, Note_off_c, 9, 70, 64
1, 21030, Control_c, 12, 11, 56
1, 21030, Control_c, 12, 74, 78
1, 21040, Control_c, 5, 10, 94
1, 21045, Control_c, 12, 11, 58
1, 21045, Control_c, 12, 74, 81
1, 21056, Control_c, 0, 74, 55
1, 21056, Control_c, 4, 74, 55
1, 21059, Note_off_c, 0, 61, 64
1, 21059, Note_off_c, 5, 78, 64
1, 21059, Note_off_c, 4, 45, 64
1, 21059, Note_off_c, 0, 52, 64
1, 21059, Note_off_c, 0, 57, 64
1, 21059, Note_off_c, 5, 66, 64
1, 21059, Note_off_c, 4, 52, 64
1, 21060, Note_on_c, 0, 57, 51
1, 21060, Note_on_c, 0, 61, 52
1, 21060, Note_on_c, 0, 64, 78
1, 21060, Note_on_c, 4, 49, 89
1, 21060, Note_on_c, 4, 52, 101
1, 21060, Note_on_c, 4, 57, 89
1, 21060, Note_on_c, 5, 62, 98
1, 21060, Note_on_c, 5, 74, 98
1, 21060, Note_on_c, 9, 39, 111
1, 21060, Control_c, 12, 11, 60
1, 21060, Control_c, 12, 74, 83
1, 21075, Control_c, 12, 11, 62
1, 21075, Control_c, 12, 74, 85
1, 21080, Control_c, 5, 10, 12
1, 21089, Note_off_c, 9, 39, 64
1, 21089, Note_off_c, 0, 61, 64
1, 21089, Note_off_c, 4, 57, 64
1, 21089, Note_off_c, 0, 64, 64
1, 21089, Note_off_c, 4, 49, 64
1, 21089, Note_off_c, 0, 57, 64
1, 21089, Note_off_c, 4, 52, 64
1, 21090, Note_on_c, 0, 57, 73
1, 21090, Note_on_c, 0, 61, 52
1, 21090, Note_on_c, 0, 64, 83
1, 21090, Note_on_c, 4, 49, 119
1, 21090, Note_on_c, 4, 52, 118
1, 21090, Note_on_c, 4, 57, 105
1, 21090, Control_c, 12, 11, 64
1, 21090, Control_c, 12, 74, 87
1, 21105, Control_c, 12, 11, 66
1, 21105, Control_c, 12, 74, 89
1, 21119, Note_off_c, 4, 57, 64
1, 21119, Note_off_c, 0, 57, 64
1, 21119, Note_off_c, 4, 52, 64
1, 21119, Note_off_c, 0, 61, 64
1, 21119, Note_off_c, 5, 62, 64
1, 21119, Note_off_c, 5, 74, 64
1, 21119, Note_off_c, 4, 49, 64
1, 21119, Note_off_c, 0, 64, 64
1, 21120, Control_c, 0, 74, 56
1, 21120, Note_on_c, 0, 59, 58
1, 21120, Note_on_c, 0, 62, 91
1, 21120, Control_c, 4, 74, 56
1, 21120, Note_on_c, 4, 47, 85
1, 21120, Note_on_c, 4, 54, 120
1, 21120, Note_on_c, 5, 59, 105
1, 21120, Note_on_c, 5, 71, 105
1, 21120, Control_c, 5, 10, 115
1, 21120, Note_on_c, 8, 50, 120
1, 21120, Note_on_c, 8, 62, 120
1, 21120, Note_on_c, 9, 70, 109
1, 21120, Control_c, 12, 11, 67
1, 21120, Control_c, 12, 74, 92
1, 21135, Control_c, 12, 11, 69
1, 21135, Control_c, 12, 74, 94
1, 21149, Note_off_c, 9, 70, 64
1, 21150, Control_c, 12, 11, 71
1, 21150, Control_c, 12, 74, 96
1, 21160, Control_c, 5, 10, 34
1, 21165, Control_c, 12, 11, 73
1, 21165, Control_c, 12, 74, 98
1, 21179, Note_off_c, 0, 62, 64
1, 21179, Note_off_c, 5, 71, 64
1, 21179, Note_off_c, 4, 47, 64
1, 21179, Note_off_c, 4, 54, 64
1, 21179, Note_off_c, 0, 59, 64
1, 21179, Note_off_c, 5, 59, 64
1, 21180, Note_on_c, 0, 59, 79
1, 21180, Note_on_c, 0, 62, 95
1, 21180, Note_on_c, 0, 66, 74
1, 21180, Note_on_c, 4, 50, 92
1, 21180, Note_on_c, 4, 54, 87
1, 21180, Note_on_c, 4, 62, 95
1, 21180, Note_on_c, 9, 39, 106
1, 21180, Control_c, 12, 11, 75
1, 21180, Control_c, 12, 74, 100
1, 21184, Control_c, 0, 74, 57
1, 21184, Control_c, 4, 74, 57
1, 21195, Control_c, 12, 11, 77
1, 21195, Control_c, 12, 74, 102
1, 21200, Control_c, 5, 10, 94
1, 21209, Note_off_c, 9, 39, 64
1, 21210, Control_c, 12, 11, 79
1, 21210, Control_c, 12, 74, 105
1, 21225, Control_c, 12, 11, 81
1, 21225, Control_c, 12, 74, 107
1, 21240, Note_on_c, 5, 59, 119
1, 21240, Note_on_c, 5, 71, 119
1, 21240, Control_c, 5, 10, 12
1, 21240, Note_on_c, 9, 70, 120
1, 21240, Control_c, 12, 11, 83
1, 21240, Control_c, 12, 74, 109
1, 21248, Control_c, 0, 74, 58
1, 21248, Control_c, 4, 74, 58
1, 21255, Control_c, 12, 11, 85
1, 21255, Control_c, 12, 74, 111
1, 21269, Note_off_c, 9, 70, 64
1, 21269, Note_off_c, 4, 50, 64
1, 21269, Note_off_c, 0, 59, 64
1, 21269, Note_off_c, 4, 54, 64
1, 21269, Note_off_c, 4, 62, 64
1, 21269, Note_off_c, 0, 66, 64
1, 21269, Note_off_c, 0, 62, 64
1, 21270, Note_on_c, 0, 59, 71
1, 21270, Note_on_c, 0, 62, 91
1, 21270, Note_on_c, 0, 66, 60
1, 21270, Note_on_c, 4, 54, 109
1, 21270, Note_on_c, 4, 59, 95
1, 21270, Control_c, 12, 11, 87
1, 21270, Control_c, 12, 74, 113
1, 21280, Control_c, 5, 10, 115
1, 21285, Control_c, 12, 11, 88
1, 21285, Control_c, 12, 74, 116
1, 21299, Note_off_c, 4, 59, 64
1, 21299, Note_off_c, 4, 54, 64
1, 21299, Note_off_c, 0, 62, 64
1, 21299, Note_off_c, 5, 71, 64
1, 21299, Note_off_c, 5, 59, 64
1, 21299, Note_off_c, 0, 66, 64
1, 21299, Note_off_c, 0, 59, 64
1, 21300, Note_on_c, 0, 62, 80
1, 21300, Note_on_c, 0, 66, 62
1, 21300, Note_on_c, 0, 71, 91
1, 21300, Note_on_c, 4, 50, 103
1, 21300, Note_on_c, 4, 54, 115
1, 21300, Note_on_c, 9, 39, 119
1, 21300, Control_c, 12, 11, 90
1, 21300, Control_c, 12, 74, 118
1, 21312, Control_c, 0, 74, 59
1, 21312, Control_c, 4, 74, 59
1, 21315, Control_c, 12, 11, 92
1, 21315, Control_c, 12, 74, 120
1, 21320, Control_c, 5, 10, 34
1, 21329, Note_off_c, 9, 39, 64
1, 21329, Note_off_c, 0, 62, 64
1, 21329, Note_off_c, 4, 54, 64
1, 21329, Note_off_c, 0, 66, 64
1, 21329, Note_off_c, 4, 50, 64
1, 21329, Note_off_c, 0, 71, 64
1, 21330, Note_on_c, 0, 59, 51
1, 21330, Note_on_c, 0, 62, 85
1, 21330, Note_on_c, 0, 66, 59
1, 21330, Note_on_c, 4, 47, 92
1, 21330, Note_on_c, 4, 52, 98
1, 21330, Note_on_c, 5, 57, 91
1, 21330, Note_on_c, 5, 69, 91
1, 21330, Control_c, 12, 11, 94
1, 21330, Control_c, 12, 74, 122
1, 21345, Control_c, 12, 11, 96
1, 21345, Control_c, 12, 74, 124
1, 21359, Note_off_c, 5, 69, 64
1, 21359, Note_off_c, 5, 57, 64
1, 21359, Note_off_c, 4, 47, 64
1, 21359, Note_off_c, 0, 59, 64
1, 21359, Note_off_c, 0, 62, 64
1, 21359, Note_off_c, 4, 52, 64
1, 21359, Note_off_c, 0, 66, 64
1, 21360, Note_on_c, 0, 55, 74
1, 21360, Note_on_c, 0, 59, 94
1, 21360, Note_on_c, 0, 62, 91
1, 21360, Note_on_c, 4, 43, 98
1, 21360, Note_on_c, 4, 50, 116
1, 21360, Note_on_c, 5, 59, 97
1, 21360, Note_on_c, 5, 71, 97
1, 21360, Control_c, 5, 10, 94
1, 21360, Note_on_c, 9, 70, 120
1, 21360, Control_c, 12, 11, 98
1, 21360, Control_c, 12, 74, 127
1, 21375, Control_c, 12, 11, 100
1, 21376, Control_c, 0, 74, 60
1, 21376, Control_c, 4, 74, 60
1, 21389, Note_off_c, 9, 70, 64
1, 21389, Note_off_c, 5, 71, 64
1, 21389, Note_off_c, 5, 59, 64
1, 21390, Note_on_c, 5, 62, 80
1, 21390, Note_on_c, 5, 74, 80
1, 21390, Control_c, 12, 11, 102
1, 21400, Control_c, 5, 10, 12
1, 21405, Control_c, 12, 11, 104
1, 21419, Note_off_c, 5, 74, 64
1, 21419, Note_off_c, 4, 50, 64
1, 21419, Note_off_c, 5, 62, 64
1, 21419, Note_off_c, 0, 55, 64
1, 21419, Note_off_c, 0, 59, 64
1, 21419, Note_off_c, 4, 43, 64
1, 21419, Note_off_c, 0, 62, 64
1, 21420, Note_on_c, 0, 59, 70
1, 21420, Note_on_c, 0, 62, 94
1, 21420, Note_on_c, 0, 67, 101
1, 21420, Note_on_c, 4, 50, 79
1, 21420, Note_on_c, 4, 55, 111
1, 21420, Note_on_c, 4, 59, 100
1, 21420, Note_on_c, 5, 59, 113
1, 21420, Note_on_c, 5, 71, 113
1, 21420, Note_on_c, 9, 39, 115
1, 21420, Control_c, 12, 11, 106
1, 21435, Control_c, 12, 11, 107
1, 21440, Control_c, 0, 74, 61
1, 21440, Control_c, 4, 74, 61
1, 21440, Control_c, 5, 10, 115
1, 21449, Note_off_c, 9, 39, 64
1, 21450, Control_c, 12, 11, 109
1, 21465, Control_c, 12, 11, 111
1, 21479, Note_off_c, 5, 59, 64
1, 21479, Note_off_c, 5, 71, 64
1, 21480, Control_c, 5, 10, 34
1, 21480, Note_on_c, 9, 70, 120
1, 21480, Control_c, 12, 11, 113
1, 21495, Control_c, 12, 11, 115
1, 21504, Control_c, 0, 74, 62
1, 21504, Control_c, 4, 74, 62
1, 21509, Note_off_c, 9, 70, 64
1, 21509, Note_off_c, 4, 59, 64
1, 21509, Note_off_c, 4, 50, 64
1, 21509, Note_off_c, 0, 59, 64
1, 21509, Note_off_c, 0, 62, 64
1, 21509, Note_off_c, 0, 67, 64
1, 21509, Note_off_c, 4, 55, 64
1, 21510, Note_on_c, 0, 59, 52
1, 21510, Note_on_c, 0, 62, 85
1, 21510, Note_on_c, 0, 67, 94
1, 21510, Note_on_c, 4, 50, 82
1, 21510, Note_on_c, 4, 55, 98
1, 21510, Note_on_c, 4, 59, 85
1, 21510, Note_on_c, 5, 57, 98
1, 21510, Note_on_c, 5, 69, 98
1, 21510, Control_c, 12, 11, 117
1, 21520, Control_c, 5, 10, 94
1, 21525, Control_c, 12, 11, 119
1, 21539, Note_off_c, 5, 69, 64
1, 21539, Note_off_c, 4, 55, 64
1, 21539, Note_off_c, 5, 57, 64
1, 21539, Note_off_c, 4, 50, 64
1, 21539, Note_off_c, 0, 59, 64
1, 21539, Note_off_c, 0, 62, 64
1, 21539, Note_off_c, 4, 59, 64
1, 21539, Note_off_c, 0, 67, 64
1, 21540, Note_on_c, 0, 62, 78
1, 21540, Note_on_c, 0, 67, 100
1, 21540, Note_on_c, 0, 71, 46
1, 21540, Note_on_c, 4, 43, 109
1, 21540, Note_on_c, 4, 50, 109
1, 21540, Note_on_c, 5, 59, 101
1, 21540, Note_on_c, 5, 71, 101
1, 21540, Note_on_c, 9, 39, 120
1, 21540, Control_c, 12, 11, 121
1, 21555, Control_c, 12, 11, 123
1, 21560, Control_c, 5, 10, 12
1, 21568, Control_c, 0, 74, 63
1, 21568, Control_c, 4, 74, 63
1, 21569, Note_off_c, 9, 39, 64
1, 21569, Note_off_c, 4, 50, 64
1, 21569, Note_off_c, 5, 71, 64
1, 21569, Note_off_c, 4, 43, 64
1, 21569, Note_off_c, 0, 62, 64
1, 21569, Note_off_c, 0, 67, 64
1, 21569, Note_off_c, 5, 59, 64
1, 21569, Note_off_c, 0, 71, 64
1, 21570, Note_on_c, 0, 59, 45
1, 21570, Note_on_c, 0, 62, 73
1, 21570, Note_on_c, 0, 67, 86
1, 21570, Note_on_c, 4, 43, 101
1, 21570, Note_on_c, 4, 52, 116
1, 21570, Note_on_c, 5, 57, 91
1, 21570, Note_on_c, 5, 69, 91
1, 21570, Control_c, 12, 11, 125
1, 21585, Control_c, 12, 11, 127
1, 21594, Control_c, 4, 91, 30
1, 21594, Control_c, 5, 91, 60
1, 21599, Note_off_c, 5, 69, 64
1, 21599, Note_off_c, 12, 48, 64
1, 21599, Note_off_c, 0, 59, 64
1, 21599, Note_off_c, 8, 50, 64
1, 21599, Note_off_c, 0, 62, 64
1, 21599, Note_off_c, 8, 62, 64
1, 21599, Note_off_c, 4, 52, 64
1, 21599, Note_off_c, 4, 43, 64
1, 21599, Note_off_c, 0, 67, 64
1, 21599, Note_off_c, 5, 57, 64
1, 21600, Note_on_c, 5, 62, 105
1, 21600, Note_on_c, 5, 74, 105
1, 21600, Control_c, 5, 10, 64
1, 21659, Note_off_c, 5, 74, 64
1, 21659, Note_off_c, 5, 62, 64
1, 21720, Note_on_c, 5, 62, 119
1, 21720, Note_on_c, 5, 74, 119
1, 21779, Note_off_c, 5, 74, 64
1, 21779, Note_off_c, 5, 62, 64
1, 21810, Note_on_c, 5, 62, 103
1, 21810, Note_on_c, 5, 74, 103
1, 21810, Note_on_c, 6, 62, 120
1, 21810, Note_on_c, 6, 74, 120
1, 21839, Note_off_c, 6, 74, 64
1, 21839, Note_off_c, 5, 62, 64
1, 21839, Note_off_c, 5, 74, 64
1, 21839, Note_off_c, 6, 62, 64
1, 21840, Note_on_c, 5, 64, 95
1, 21840, Note_on_c, 5, 76, 95
1, 21840, Note_on_c, 6, 64, 120
1, 21840, Note_on_c, 6, 76, 120
1, 21869, Note_off_c, 6, 76, 64
1, 21869, Note_off_c, 5, 64, 64
1, 21869, Note_off_c, 5, 76, 64
1, 21869, Note_off_c, 6, 64, 64
1, 21870, Note_on_c, 5, 62, 86
1, 21870, Note_on_c, 5, 74, 86
1, 21870, Note_on_c, 6, 62, 120
1, 21870, Note_on_c, 6, 74, 120
1, 21899, Note_off_c, 6, 74, 64
1, 21899, Note_off_c, 5, 62, 64
1, 21899, Note_off_c, 5, 74, 64
1, 21899, Note_off_c, 6, 62, 64
1, 21900, Note_on_c, 5, 64, 98
1, 21900, Note_on_c, 5, 76, 98
1, 21900, Note_on_c, 6, 64, 120
1, 21900, Note_on_c, 6, 76, 120
1, 21950, Pitch_bend_c, 5, 8071
1, 21950, Pitch_bend_c, 6, 8071
1, 21955, Pitch_bend_c, 5, 6296
1, 21955, Pitch_bend_c, 6, 6296
1, 21958, Pitch_bend_c, 5, 4197
1, 21958, Pitch_bend_c, 6, 4197
1, 21959, Note_off_c, 6, 76, 64
1, 21959, Note_off_c, 5, 64, 64
1, 21959, Note_off_c, 5, 76, 64
1, 21959, Note_off_c, 6, 64, 64
1, 21960, Note_on_c, 5, 66, 119
1, 21960, Note_on_c, 5, 78, 119
1, 21960, Pitch_bend_c, 5, 1776
1, 21960, Note_on_c, 6, 66, 120
1, 21960, Note_on_c, 6, 78, 120
1, 21960, Pitch_bend_c, 6, 1776
1, 21960, Note_on_c, 9, 55, 120
1, 21963, Pitch_bend_c, 5, 0
1, 21963, Pitch_bend_c, 6, 0
1, 21980, Pitch_bend_c, 5, 646
1, 21980, Pitch_bend_c, 6, 646
1, 21983, Pitch_bend_c, 5, 2422
1, 21983, Pitch_bend_c, 6, 2422
1, 21985, Pitch_bend_c, 5, 4520
1, 21985, Pitch_bend_c, 6, 4520
1, 21988, Pitch_bend_c, 5, 6942
1, 21988, Pitch_bend_c, 6, 6942
1, 21989, Note_off_c, 9, 55, 64
1, 21990, Pitch_bend_c, 5, 8192
1, 21990, Pitch_bend_c, 6, 8192
1, 22019, Note_off_c, 6, 66, 64
1, 22019, Note_off_c, 5, 66, 64
1, 22019, Note_off_c, 5, 78, 64
1, 22019, Note_off_c, 6, 78, 64
1, 22020, Note_on_c, 5, 62, 111
1, 22020, Note_on_c, 5, 74, 111
1, 22020, Note_on_c, 6, 62, 120
1, 22020, Note_on_c, 6, 74, 120
1, 22079, Note_off_c, 6, 74, 64
1, 22079, Note_off_c, 5, 62, 64
1, 22079, Note_off_c, 5, 74, 64
1, 22079, Note_off_c, 6, 62, 64
1, 22080, Note_on_c, 0, 59, 58
1, 22080, Note_on_c, 0, 62, 91
1, 22080, Control_c, 1, 11, 64
1, 22080, Note_on_c, 1, 35, 120
1, 22080, Control_c, 2, 11, 64
1, 22080, Note_on_c, 2, 59, 120
1, 22080, Note_on_c, 2, 62, 120
1, 22080, Note_on_c, 2, 66, 120
1, 22080, Note_on_c, 4, 47, 85
1, 22080, Note_on_c, 4, 54, 120
1, 22080, Note_on_c, 5, 59, 120
1, 22080, Note_on_c, 5, 71, 120
1, 22080, Note_on_c, 6, 71, 120
1, 22080, Note_on_c, 9, 35, 120
1, 22080, Note_on_c, 9, 42, 120
1, 22080, Note_on_c, 9, 49, 111
1, 22080, Note_on_c, 11, 71, 120
1, 22109, Note_off_c, 9, 42, 64
1, 22109, Note_off_c, 9, 35, 64
1, 22139, Note_off_c, 5, 71, 64
1, 22139, Note_off_c, 4, 47, 64
1, 22139, Note_off_c, 0, 59, 64
1, 22139, Note_off_c, 5, 59, 64
1, 22139, Note_off_c, 4, 54, 64
1, 22139, Note_off_c, 6, 71, 64
1, 22139, Note_off_c, 0, 62, 64
1, 22139, Note_off_c, 11, 71, 64
1, 22140, Note_on_c, 0, 59, 79
1, 22140, Note_on_c, 0, 62, 95
1, 22140, Note_on_c, 0, 66, 74
1, 22140, Control_c, 1, 11, 127
1, 22140, Control_c, 2, 11, 127
1, 22140, Note_on_c, 4, 50, 92
1, 22140, Note_on_c, 4, 54, 87
1, 22140, Note_on_c, 4, 62, 95
1, 22140, Note_on_c, 9, 46, 120
1, 22140, Note_on_c, 9, 73, 119
1, 22169, Note_off_c, 9, 73, 64
1, 22169, Note_off_c, 9, 46, 64
1, 22199, Note_off_c, 1, 35, 64
1, 22200, Control_c, 1, 11, 64
1, 22200, Note_on_c, 1, 35, 120
1, 22200, Control_c, 2, 11, 73
1, 22200, Note_on_c, 5, 59, 120
1, 22200, Note_on_c, 5, 71, 120
1, 22200, Note_on_c, 6, 71, 120
1, 22200, Note_on_c, 9, 35, 120
1, 22200, Note_on_c, 9, 42, 120
1, 22200, Note_on_c, 11, 71, 120
1, 22229, Note_off_c, 9, 42, 64
1, 22229, Note_off_c, 9, 35, 64
1, 22229, Note_off_c, 4, 62, 64
1, 22229, Note_off_c, 0, 59, 64
1, 22229, Note_off_c, 0, 66, 64
1, 22229, Note_off_c, 4, 54, 64
1, 22229, Note_off_c, 4, 50, 64
1, 22229, Note_off_c, 0, 62, 64
1, 22230, Note_on_c, 0, 59, 71
1, 22230, Note_on_c, 0, 62, 91
1, 22230, Note_on_c, 0, 66, 60
1, 22230, Note_on_c, 4, 54, 109
1, 22230, Note_on_c, 4, 59, 95
1, 22259, Note_off_c, 4, 59, 64
1, 22259, Note_off_c, 0, 59, 64
1, 22259, Note_off_c, 5, 71, 64
1, 22259, Note_off_c, 5, 59, 64
1, 22259, Note_off_c, 6, 71, 64
1, 22259, Note_off_c, 11, 71, 64
1, 22259, Note_off_c, 4, 54, 64
1, 22259, Note_off_c, 0, 62, 64
1, 22259, Note_off_c, 0, 66, 64
1, 22260, Note_on_c, 0, 62, 80
1, 22260, Note_on_c, 0, 66, 62
1, 22260, Note_on_c, 0, 71, 91
1, 22260, Control_c, 1, 11, 127
1, 22260, Control_c, 2, 11, 127
1, 22260, Note_on_c, 4, 50, 103
1, 22260, Note_on_c, 4, 54, 115
1, 22260, Note_on_c, 9, 46, 119
1, 22260, Note_on_c, 9, 73, 119
1, 22289, Note_off_c, 9, 73, 64
1, 22289, Note_off_c, 4, 54, 64
1, 22289, Note_off_c, 0, 71, 64
1, 22289, Note_off_c, 0, 66, 64
1, 22289, Note_off_c, 4, 50, 64
1, 22289, Note_off_c, 9, 46, 64
1, 22289, Note_off_c, 0, 62, 64
1, 22290, Note_on_c, 0, 59, 51
1, 22290, Note_on_c, 0, 62, 85
1, 22290, Note_on_c, 0, 66, 59
1, 22290, Note_on_c, 4, 47, 92
1, 22290, Note_on_c, 4, 52, 98
1, 22290, Note_on_c, 5, 57, 98
1, 22290, Note_on_c, 5, 69, 98
1, 22290, Note_on_c, 6, 69, 120
1, 22290, Note_on_c, 11, 69, 120
1, 22319, Note_off_c, 11, 69, 64
1, 22319, Note_off_c, 2, 66, 64
1, 22319, Note_off_c, 0, 59, 64
1, 22319, Note_off_c, 9, 49, 64
1, 22319, Note_off_c, 0, 66, 64
1, 22319, Note_off_c, 1, 35, 64
1, 22319, Note_off_c, 2, 59, 64
1, 22319, Note_off_c, 2, 62, 64
1, 22319, Note_off_c, 5, 69, 64
1, 22319, Note_off_c, 5, 57, 64
1, 22319, Note_off_c, 4, 47, 64
1, 22319, Note_off_c, 0, 62, 64
1, 22319, Note_off_c, 6, 69, 64
1, 22319, Note_off_c, 4, 52, 64
1, 22320, Note_on_c, 0, 55, 74
1, 22320, Note_on_c, 0, 59, 94
1, 22320, Note_on_c, 0, 62, 91
1, 22320, Control_c, 1, 11, 64
1, 22320, Note_on_c, 1, 31, 120
1, 22320, Control_c, 2, 11, 71
1, 22320, Note_on_c, 2, 59, 120
1, 22320, Note_on_c, 2, 62, 120
1, 22320, Note_on_c, 2, 67, 120
1, 22320, Note_on_c, 4, 43, 98
1, 22320, Note_on_c, 4, 50, 116
1, 22320, Note_on_c, 5, 59, 98
1, 22320, Note_on_c, 5, 71, 98
1, 22320, Note_on_c, 6, 71, 120
1, 22320, Note_on_c, 9, 35, 120
1, 22320, Note_on_c, 9, 42, 120
1, 22320, Note_on_c, 11, 71, 120
1, 22349, Note_off_c, 11, 71, 64
1, 22349, Note_off_c, 6, 71, 64
1, 22349, Note_off_c, 5, 59, 64
1, 22349, Note_off_c, 9, 42, 64
1, 22349, Note_off_c, 5, 71, 64
1, 22349, Note_off_c, 9, 35, 64
1, 22350, Note_on_c, 5, 62, 54
1, 22350, Note_on_c, 5, 74, 54
1, 22350, Note_on_c, 6, 74, 120
1, 22350, Note_on_c, 11, 74, 120
1, 22379, Note_off_c, 11, 74, 64
1, 22379, Note_off_c, 4, 43, 64
1, 22379, Note_off_c, 0, 59, 64
1, 22379, Note_off_c, 0, 55, 64
1, 22379, Note_off_c, 4, 50, 64
1, 22379, Note_off_c, 5, 62, 64
1, 22379, Note_off_c, 0, 62, 64
1, 22379, Note_off_c, 6, 74, 64
1, 22379, Note_off_c, 5, 74, 64
1, 22380, Note_on_c, 0, 59, 70
1, 22380, Note_on_c, 0, 62, 94
1, 22380, Note_on_c, 0, 67, 101
1, 22380, Control_c, 1, 11, 127
1, 22380, Control_c, 2, 11, 127
1, 22380, Note_on_c, 4, 50, 79
1, 22380, Note_on_c, 4, 55, 111
1, 22380, Note_on_c, 4, 59, 100
1, 22380, Note_on_c, 5, 59, 116
1, 22380, Note_on_c, 5, 71, 116
1, 22380, Note_on_c, 6, 71, 120
1, 22380, Note_on_c, 9, 46, 120
1, 22380, Note_on_c, 9, 73, 109
1, 22380, Note_on_c, 11, 71, 120
1, 22409, Note_off_c, 9, 73, 64
1, 22409, Note_off_c, 9, 46, 64
1, 22439, Note_off_c, 5, 71, 64
1, 22439, Note_off_c, 11, 71, 64
1, 22439, Note_off_c, 1, 31, 64
1, 22439, Note_off_c, 5, 59, 64
1, 22439, Note_off_c, 6, 71, 64
1, 22440, Control_c, 1, 11, 64
1, 22440, Note_on_c, 1, 31, 120
1, 22440, Control_c, 2, 11, 80
1, 22440, Note_on_c, 9, 35, 120
1, 22440, Note_on_c, 9, 42, 120
1, 22469, Note_off_c, 9, 42, 64
1, 22469, Note_off_c, 0, 67, 64
1, 22469, Note_off_c, 4, 59, 64
1, 22469, Note_off_c, 0, 62, 64
1, 22469, Note_off_c, 0, 59, 64
1, 22469, Note_off_c, 4, 50, 64
1, 22469, Note_off_c, 9, 35, 64
1, 22469, Note_off_c, 4, 55, 64
1, 22470, Note_on_c, 0, 59, 52
1, 22470, Note_on_c, 0, 62, 85
1, 22470, Note_on_c, 0, 67, 94
1, 22470, Note_on_c, 4, 50, 82
1, 22470, Note_on_c, 4, 55, 98
1, 22470, Note_on_c, 4, 59, 85
1, 22470, Note_on_c, 5, 57, 83
1, 22470, Note_on_c, 5, 69, 83
1, 22470, Note_on_c, 6, 69, 120
1, 22470, Note_on_c, 11, 69, 120
1, 22499, Note_off_c, 11, 69, 64
1, 22499, Note_off_c, 0, 59, 64
1, 22499, Note_off_c, 0, 62, 64
1, 22499, Note_off_c, 4, 59, 64
1, 22499, Note_off_c, 4, 50, 64
1, 22499, Note_off_c, 0, 67, 64
1, 22499, Note_off_c, 4, 55, 64
1, 22499, Note_off_c, 6, 69, 64
1, 22499, Note_off_c, 5, 69, 64
1, 22499, Note_off_c, 5, 57, 64
1, 22500, Note_on_c, 0, 62, 78
1, 22500, Note_on_c, 0, 67, 100
1, 22500, Note_on_c, 0, 71, 46
1, 22500, Control_c, 1, 11, 127
1, 22500, Control_c, 2, 11, 127
1, 22500, Note_on_c, 4, 43, 109
1, 22500, Note_on_c, 4, 50, 109
1, 22500, Note_on_c, 5, 59, 98
1, 22500, Note_on_c, 5, 71, 98
1, 22500, Note_on_c, 6, 71, 120
1, 22500, Note_on_c, 9, 46, 120
1, 22500, Note_on_c, 9, 73, 115
1, 22500, Note_on_c, 11, 71, 120
1, 22529, Note_off_c, 11, 71, 64
1, 22529, Note_off_c, 6, 71, 64
1, 22529, Note_off_c, 0, 62, 64
1, 22529, Note_off_c, 0, 67, 64
1, 22529, Note_off_c, 5, 59, 64
1, 22529, Note_off_c, 4, 43, 64
1, 22529, Note_off_c, 0, 71, 64
1, 22529, Note_off_c, 4, 50, 64
1, 22529, Note_off_c, 9, 73, 64
1, 22529, Note_off_c, 9, 46, 64
1, 22529, Note_off_c, 5, 71, 64
1, 22530, Note_on_c, 0, 59, 45
1, 22530, Note_on_c, 0, 62, 73
1, 22530, Note_on_c, 0, 67, 86
1, 22530, Note_on_c, 4, 43, 101
1, 22530, Note_on_c, 4, 52, 116
1, 22530, Note_on_c, 5, 57, 94
1, 22530, Note_on_c, 5, 69, 94
1, 22530, Note_on_c, 6, 69, 120
1, 22530, Note_on_c, 11, 69, 120
1, 22559, Note_off_c, 11, 69, 64
1, 22559, Note_off_c, 0, 62, 64
1, 22559, Note_off_c, 2, 62, 64
1, 22559, Note_off_c, 4, 43, 64
1, 22559, Note_off_c, 2, 59, 64
1, 22559, Note_off_c, 2, 67, 64
1, 22559, Note_off_c, 1, 31, 64
1, 22559, Note_off_c, 0, 59, 64
1, 22559, Note_off_c, 5, 69, 64
1, 22559, Note_off_c, 4, 52, 64
1, 22559, Note_off_c, 0, 67, 64
1, 22559, Note_off_c, 6, 69, 64
1, 22559, Note_off_c, 5, 57, 64
1, 22560, Note_on_c, 0, 54, 35
1, 22560, Note_on_c, 0, 57, 85
1, 22560, Note_on_c, 0, 62, 79
1, 22560, Control_c, 1, 11, 64
1, 22560, Note_on_c, 1, 38, 120
1, 22560, Control_c, 2, 11, 64
1, 22560, Note_on_c, 2, 57, 120
1, 22560, Note_on_c, 2, 62, 120
1, 22560, Note_on_c, 2, 66, 120
1, 22560, Note_on_c, 4, 45, 90
1, 22560, Note_on_c, 4, 50, 105
1, 22560, Note_on_c, 5, 62, 120
1, 22560, Note_on_c, 5, 74, 120
1, 22560, Note_on_c, 6, 74, 120
1, 22560, Note_on_c, 9, 35, 120
1, 22560, Note_on_c, 9, 42, 120
1, 22560, Note_on_c, 11, 74, 120
1, 22589, Note_off_c, 9, 42, 64
1, 22589, Note_off_c, 9, 35, 64
1, 22619, Note_off_c, 5, 62, 64
1, 22619, Note_off_c, 0, 57, 64
1, 22619, Note_off_c, 0, 62, 64
1, 22619, Note_off_c, 4, 45, 64
1, 22619, Note_off_c, 0, 54, 64
1, 22619, Note_off_c, 4, 50, 64
1, 22619, Note_off_c, 6, 74, 64
1, 22619, Note_off_c, 11, 74, 64
1, 22619, Note_off_c, 5, 74, 64
1, 22620, Note_on_c, 0, 57, 69
1, 22620, Note_on_c, 0, 62, 98
1, 22620, Note_on_c, 0, 66, 74
1, 22620, Control_c, 1, 11, 127
1, 22620, Control_c, 2, 11, 127
1, 22620, Note_on_c, 4, 45, 100
1, 22620, Note_on_c, 4, 50, 111
1, 22620, Note_on_c, 4, 54, 89
1, 22620, Note_on_c, 9, 46, 120
1, 22620, Note_on_c, 9, 73, 109
1, 22649, Note_off_c, 9, 73, 64
1, 22649, Note_off_c, 9, 46, 64
1, 22679, Note_off_c, 1, 38, 64
1, 22680, Control_c, 1, 11, 64
1, 22680, Note_on_c, 1, 38, 120
1, 22680, Control_c, 2, 11, 73
1, 22680, Note_on_c, 5, 62, 120
1, 22680, Note_on_c, 5, 74, 120
1, 22680, Note_on_c, 6, 74, 120
1, 22680, Note_on_c, 9, 35, 120
1, 22680, Note_on_c, 9, 42, 120
1, 22680, Note_on_c, 11, 74, 120
1, 22709, Note_off_c, 9, 42, 64
1, 22709, Note_off_c, 4, 45, 64
1, 22709, Note_off_c, 0, 66, 64
1, 22709, Note_off_c, 0, 62, 64
1, 22709, Note_off_c, 0, 57, 64
1, 22709, Note_off_c, 4, 54, 64
1, 22709, Note_off_c, 9, 35, 64
1, 22709, Note_off_c, 4, 50, 64
1, 22710, Note_on_c, 0, 54, 44
1, 22710, Note_on_c, 0, 57, 78
1, 22710, Note_on_c, 0, 62, 58
1, 22710, Note_on_c, 4, 45, 85
1, 22710, Note_on_c, 4, 50, 105
1, 22710, Note_on_c, 4, 54, 81
1, 22739, Note_off_c, 4, 54, 64
1, 22739, Note_off_c, 5, 62, 64
1, 22739, Note_off_c, 6, 74, 64
1, 22739, Note_off_c, 0, 57, 64
1, 22739, Note_off_c, 11, 74, 64
1, 22739, Note_off_c, 5, 74, 64
1, 22739, Note_off_c, 0, 54, 64
1, 22739, Note_off_c, 4, 50, 64
1, 22739, Note_off_c, 4, 45, 64
1, 22739, Note_off_c, 0, 62, 64
1, 22740, Note_on_c, 0, 57, 57
1, 22740, Note_on_c, 0, 62, 91
1, 22740, Note_on_c, 0, 66, 77
1, 22740, Control_c, 1, 11, 127
1, 22740, Control_c, 2, 11, 127
1, 22740, Note_on_c, 4, 50, 109
1, 22740, Note_on_c, 4, 54, 89
1, 22740, Note_on_c, 4, 57, 109
1, 22740, Note_on_c, 9, 46, 120
1, 22740, Note_on_c, 9, 73, 119
1, 22769, Note_off_c, 9, 73, 64
1, 22769, Note_off_c, 4, 57, 64
1, 22769, Note_off_c, 4, 50, 64
1, 22769, Note_off_c, 0, 66, 64
1, 22769, Note_off_c, 4, 54, 64
1, 22769, Note_off_c, 9, 46, 64
1, 22769, Note_off_c, 0, 57, 64
1, 22769, Note_off_c, 0, 62, 64
1, 22770, Note_on_c, 0, 54, 35
1, 22770, Note_on_c, 0, 57, 79
1, 22770, Note_on_c, 0, 62, 56
1, 22770, Note_on_c, 4, 50, 111
1, 22770, Note_on_c, 4, 54, 100
1, 22770, Note_on_c, 4, 57, 100
1, 22770, Note_on_c, 5, 62, 89
1, 22770, Note_on_c, 5, 74, 89
1, 22770, Note_on_c, 6, 74, 120
1, 22770, Note_on_c, 11, 74, 120
1, 22799, Note_off_c, 11, 74, 64
1, 22799, Note_off_c, 0, 54, 64
1, 22799, Note_off_c, 0, 57, 64
1, 22799, Note_off_c, 4, 57, 64
1, 22799, Note_off_c, 4, 50, 64
1, 22799, Note_off_c, 0, 62, 64
1, 22799, Note_off_c, 1, 38, 64
1, 22799, Note_off_c, 4, 54, 64
1, 22799, Note_off_c, 5, 74, 64
1, 22799, Note_off_c, 5, 62, 64
1, 22799, Note_off_c, 6, 74, 64
1, 22800, Note_on_c, 0, 54, 49
1, 22800, Note_on_c, 0, 57, 85
1, 22800, Note_on_c, 0, 62, 75
1, 22800, Control_c, 1, 11, 64
1, 22800, Note_on_c, 1, 38, 120
1, 22800, Control_c, 2, 11, 71
1, 22800, Note_on_c, 4, 45, 105
1, 22800, Note_on_c, 4, 50, 116
1, 22800, Note_on_c, 5, 64, 81
1, 22800, Note_on_c, 5, 76, 81
1, 22800, Note_on_c, 6, 76, 120
1, 22800, Note_on_c, 9, 35, 120
1, 22800, Note_on_c, 9, 42, 120
1, 22800, Note_on_c, 11, 76, 120
1, 22829, Note_off_c, 11, 76, 64
1, 22829, Note_off_c, 6, 76, 64
1, 22829, Note_off_c, 5, 64, 64
1, 22829, Note_off_c, 9, 42, 64
1, 22829, Note_off_c, 5, 76, 64
1, 22829, Note_off_c, 9, 35, 64
1, 22830, Note_on_c, 5, 62, 95
1, 22830, Note_on_c, 5, 74, 95
1, 22830, Note_on_c, 6, 74, 120
1, 22830, Note_on_c, 11, 74, 120
1, 22859, Note_off_c, 11, 74, 64
1, 22859, Note_off_c, 4, 45, 64
1, 22859, Note_off_c, 0, 57, 64
1, 22859, Note_off_c, 0, 54, 64
1, 22859, Note_off_c, 4, 50, 64
1, 22859, Note_off_c, 5, 62, 64
1, 22859, Note_off_c, 0, 62, 64
1, 22859, Note_off_c, 6, 74, 64
1, 22859, Note_off_c, 5, 74, 64
1, 22860, Note_on_c, 0, 57, 56
1, 22860, Note_on_c, 0, 62, 84
1, 22860, Note_on_c, 0, 66, 49
1, 22860, Control_c, 1, 11, 127
1, 22860, Control_c, 2, 11, 127
1, 22860, Note_on_c, 4, 50, 105
1, 22860, Note_on_c, 4, 54, 115
1, 22860, Note_on_c, 5, 64, 111
1, 22860, Note_on_c, 5, 76, 111
1, 22860, Note_on_c, 6, 76, 120
1, 22860, Note_on_c, 9, 46, 120
1, 22860, Note_on_c, 9, 73, 115
1, 22860, Note_on_c, 11, 76, 120
1, 22889, Note_off_c, 9, 73, 64
1, 22889, Note_off_c, 4, 50, 64
1, 22889, Note_off_c, 0, 57, 64
1, 22889, Note_off_c, 0, 66, 64
1, 22889, Note_off_c, 9, 46, 64
1, 22889, Note_off_c, 0, 62, 64
1, 22889, Note_off_c, 4, 54, 64
1, 22890, Note_on_c, 0, 57, 84
1, 22890, Note_on_c, 0, 62, 94
1, 22890, Note_on_c, 0, 66, 76
1, 22890, Note_on_c, 4, 50, 100
1, 22890, Note_on_c, 4, 54, 92
1, 22911, Pitch_bend_c, 5, 7749
1, 22913, Pitch_bend_c, 5, 6215
1, 22916, Pitch_bend_c, 5, 4197
1, 22918, Pitch_bend_c, 5, 2422
1, 22919, Note_off_c, 4, 54, 64
1, 22919, Note_off_c, 2, 66, 64
1, 22919, Note_off_c, 2, 62, 64
1, 22919, Note_off_c, 1, 38, 64
1, 22919, Note_off_c, 5, 76, 64
1, 22919, Note_off_c, 11, 76, 64
1, 22919, Note_off_c, 2, 57, 64
1, 22919, Note_off_c, 5, 64, 64
1, 22919, Note_off_c, 0, 66, 64
1, 22919, Note_off_c, 0, 57, 64
1, 22919, Note_off_c, 6, 76, 64
1, 22919, Note_off_c, 4, 50, 64
1, 22919, Note_off_c, 0, 62, 64
1, 22920, Note_on_c, 0, 52, 47
1, 22920, Note_on_c, 0, 57, 89
1, 22920, Note_on_c, 0, 61, 52
1, 22920, Control_c, 1, 11, 64
1, 22920, Note_on_c, 1, 33, 120
1, 22920, Control_c, 2, 11, 80
1, 22920, Note_on_c, 2, 57, 120
1, 22920, Note_on_c, 2, 61, 120
1, 22920, Note_on_c, 2, 64, 120
1, 22920, Note_on_c, 4, 45, 101
1, 22920, Note_on_c, 4, 52, 101
1, 22920, Note_on_c, 5, 66, 119
1, 22920, Note_on_c, 5, 78, 119
1, 22920, Note_on_c, 6, 78, 120
1, 22920, Note_on_c, 9, 35, 120
1, 22920, Note_on_c, 9, 42, 120
1, 22920, Note_on_c, 11, 78, 120
1, 22921, Pitch_bend_c, 5, 1211
1, 22923, Pitch_bend_c, 5, 646
1, 22926, Pitch_bend_c, 5, 565
1, 22928, Pitch_bend_c, 5, 646
1, 22931, Pitch_bend_c, 5, 1373
1, 22933, Pitch_bend_c, 5, 2260
1, 22936, Pitch_bend_c, 5, 3471
1, 22938, Pitch_bend_c, 5, 5085
1, 22941, Pitch_bend_c, 5, 6942
1, 22943, Pitch_bend_c, 5, 8071
1, 22946, Pitch_bend_c, 5, 8192
1, 22949, Note_off_c, 9, 42, 64
1, 22949, Note_off_c, 9, 35, 64
1, 22979, Note_off_c, 5, 66, 64
1, 22979, Note_off_c, 0, 57, 64
1, 22979, Note_off_c, 0, 61, 64
1, 22979, Note_off_c, 4, 45, 64
1, 22979, Note_off_c, 0, 52, 64
1, 22979, Note_off_c, 4, 52, 64
1, 22979, Note_off_c, 6, 78, 64
1, 22979, Note_off_c, 11, 78, 64
1, 22979, Note_off_c, 5, 78, 64
1, 22980, Note_on_c, 0, 57, 51
1, 22980, Note_on_c, 0, 61, 52
1, 22980, Note_on_c, 0, 64, 78
1, 22980, Control_c, 1, 11, 127
1, 22980, Control_c, 2, 11, 127
1, 22980, Note_on_c, 4, 49, 89
1, 22980, Note_on_c, 4, 52, 101
1, 22980, Note_on_c, 4, 57, 89
1, 22980, Note_on_c, 5, 62, 98
1, 22980, Note_on_c, 5, 74, 98
1, 22980, Note_on_c, 6, 74, 120
1, 22980, Note_on_c, 9, 46, 120
1, 22980, Note_on_c, 9, 73, 111
1, 22980, Note_on_c, 11, 74, 120
1, 23009, Note_off_c, 9, 73, 64
1, 23009, Note_off_c, 4, 52, 64
1, 23009, Note_off_c, 0, 61, 64
1, 23009, Note_off_c, 0, 57, 64
1, 23009, Note_off_c, 0, 64, 64
1, 23009, Note_off_c, 4, 49, 64
1, 23009, Note_off_c, 9, 46, 64
1, 23009, Note_off_c, 4, 57, 64
1, 23010, Note_on_c, 0, 57, 73
1, 23010, Note_on_c, 0, 61, 52
1, 23010, Note_on_c, 0, 64, 83
1, 23010, Note_on_c, 4, 49, 119
1, 23010, Note_on_c, 4, 52, 118
1, 23010, Note_on_c, 4, 57, 105
1, 23039, Note_off_c, 4, 57, 64
1, 23039, Note_off_c, 5, 62, 64
1, 23039, Note_off_c, 2, 64, 64
1, 23039, Note_off_c, 6, 74, 64
1, 23039, Note_off_c, 2, 57, 64
1, 23039, Note_off_c, 5, 74, 64
1, 23039, Note_off_c, 2, 61, 64
1, 23039, Note_off_c, 11, 74, 64
1, 23039, Note_off_c, 4, 49, 64
1, 23039, Note_off_c, 0, 64, 64
1, 23039, Note_off_c, 0, 57, 64
1, 23039, Note_off_c, 1, 33, 64
1, 23039, Note_off_c, 4, 52, 64
1, 23039, Note_off_c, 0, 61, 64
1, 23040, Note_on_c, 0, 59, 58
1, 23040, Note_on_c, 0, 62, 91
1, 23040, Control_c, 1, 11, 64
1, 23040, Note_on_c, 1, 35, 120
1, 23040, Control_c, 2, 11, 64
1, 23040, Note_on_c, 2, 59, 120
1, 23040, Note_on_c, 2, 62, 120
1, 23040, Note_on_c, 2, 66, 120
1, 23040, Note_on_c, 4, 47, 85
1, 23040, Note_on_c, 4, 54, 120
1, 23040, Note_on_c, 5, 59, 105
1, 23040, Note_on_c, 5, 71, 105
1, 23040, Note_on_c, 6, 71, 120
1, 23040, Note_on_c, 9, 35, 120
1, 23040, Note_on_c, 9, 42, 120
1, 23040, Note_on_c, 11, 71, 120
1, 23069, Note_off_c, 9, 42, 64
1, 23069, Note_off_c, 9, 35, 64
1, 23099, Note_off_c, 5, 71, 64
1, 23099, Note_off_c, 4, 47, 64
1, 23099, Note_off_c, 4, 54, 64
1, 23099, Note_off_c, 0, 59, 64
1, 23099, Note_off_c, 5, 59, 64
1, 23099, Note_off_c, 6, 71, 64
1, 23099, Note_off_c, 11, 71, 64
1, 23099, Note_off_c, 0, 62, 64
1, 23100, Note_on_c, 0, 59, 79
1, 23100, Note_on_c, 0, 62, 95
1, 23100, Note_on_c, 0, 66, 74
1, 23100, Control_c, 1, 11, 127
1, 23100, Control_c, 2, 11, 127
1, 23100, Note_on_c, 4, 50, 92
1, 23100, Note_on_c, 4, 54, 87
1, 23100, Note_on_c, 4, 62, 95
1, 23100, Note_on_c, 9, 46, 120
1, 23100, Note_on_c, 9, 73, 109
1, 23129, Note_off_c, 9, 73, 64
1, 23129, Note_off_c, 9, 46, 64
1, 23159, Note_off_c, 1, 35, 64
1, 23160, Control_c, 1, 11, 64
1, 23160, Note_on_c, 1, 35, 120
1, 23160, Control_c, 2, 11, 73
1, 23160, Note_on_c, 5, 59, 119
1, 23160, Note_on_c, 5, 71, 119
1, 23160, Note_on_c, 6, 71, 120
1, 23160, Note_on_c, 9, 35, 120
1, 23160, Note_on_c, 9, 42, 120
1, 23160, Note_on_c, 11, 71, 120
1, 23189, Note_off_c, 9, 42, 64
1, 23189, Note_off_c, 4, 50, 64
1, 23189, Note_off_c, 0, 66, 64
1, 23189, Note_off_c, 0, 62, 64
1, 23189, Note_off_c, 0, 59, 64
1, 23189, Note_off_c, 4, 62, 64
1, 23189, Note_off_c, 9, 35, 64
1, 23189, Note_off_c, 4, 54, 64
1, 23190, Note_on_c, 0, 59, 71
1, 23190, Note_on_c, 0, 62, 91
1, 23190, Note_on_c, 0, 66, 60
1, 23190, Note_on_c, 4, 54, 109
1, 23190, Note_on_c, 4, 59, 95
1, 23219, Note_off_c, 4, 59, 64
1, 23219, Note_off_c, 6, 71, 64
1, 23219, Note_off_c, 0, 62, 64
1, 23219, Note_off_c, 11, 71, 64
1, 23219, Note_off_c, 5, 71, 64
1, 23219, Note_off_c, 0, 59, 64
1, 23219, Note_off_c, 4, 54, 64
1, 23219, Note_off_c, 5, 59, 64
1, 23219, Note_off_c, 0, 66, 64
1, 23220, Note_on_c, 0, 62, 80
1, 23220, Note_on_c, 0, 66, 62
1, 23220, Note_on_c, 0, 71, 91
1, 23220, Control_c, 1, 11, 127
1, 23220, Control_c, 2, 11, 127
1, 23220, Note_on_c, 4, 50, 103
1, 23220, Note_on_c, 4, 54, 115
1, 23220, Note_on_c, 9, 46, 120
1, 23220, Note_on_c, 9, 73, 119
1, 23249, Note_off_c, 9, 73, 64
1, 23249, Note_off_c, 4, 50, 64
1, 23249, Note_off_c, 9, 46, 64
1, 23249, Note_off_c, 0, 71, 64
1, 23249, Note_off_c, 4, 54, 64
1, 23249, Note_off_c, 0, 62, 64
1, 23249, Note_off_c, 0, 66, 64
1, 23250, Note_on_c, 0, 59, 51
1, 23250, Note_on_c, 0, 62, 85
1, 23250, Note_on_c, 0, 66, 59
1, 23250, Note_on_c, 4, 47, 92
1, 23250, Note_on_c, 4, 52, 98
1, 23250, Note_on_c, 5, 57, 91
1, 23250, Note_on_c, 5, 69, 91
1, 23250, Note_on_c, 6, 69, 120
1, 23250, Note_on_c, 11, 69, 120
1, 23279, Note_off_c, 11, 69, 64
1, 23279, Note_off_c, 0, 62, 64
1, 23279, Note_off_c, 2, 66, 64
1, 23279, Note_off_c, 4, 47, 64
1, 23279, Note_off_c, 1, 35, 64
1, 23279, Note_off_c, 2, 62, 64
1, 23279, Note_off_c, 2, 59, 64
1, 23279, Note_off_c, 0, 59, 64
1, 23279, Note_off_c, 5, 69, 64
1, 23279, Note_off_c, 4, 52, 64
1, 23279, Note_off_c, 0, 66, 64
1, 23279, Note_off_c, 6, 69, 64
1, 23279, Note_off_c, 5, 57, 64
1, 23280, Note_on_c, 0, 55, 74
1, 23280, Note_on_c, 0, 59, 94
1, 23280, Note_on_c, 0, 62, 91
1, 23280, Control_c, 1, 11, 64
1, 23280, Note_on_c, 1, 31, 120
1, 23280, Control_c, 2, 11, 71
1, 23280, Note_on_c, 2, 59, 120
1, 23280, Note_on_c, 2, 62, 120
1, 23280, Note_on_c, 2, 67, 120
1, 23280, Note_on_c, 4, 43, 98
1, 23280, Note_on_c, 4, 50, 116
1, 23280, Note_on_c, 5, 59, 97
1, 23280, Note_on_c, 5, 71, 97
1, 23280, Note_on_c, 6, 71, 120
1, 23280, Note_on_c, 9, 35, 120
1, 23280, Note_on_c, 9, 42, 120
1, 23280, Note_on_c, 11, 71, 120
1, 23309, Note_off_c, 11, 71, 64
1, 23309, Note_off_c, 6, 71, 64
1, 23309, Note_off_c, 5, 59, 64
1, 23309, Note_off_c, 9, 42, 64
1, 23309, Note_off_c, 5, 71, 64
1, 23309, Note_off_c, 9, 35, 64
1, 23310, Note_on_c, 5, 62, 80
1, 23310, Note_on_c, 5, 74, 80
1, 23310, Note_on_c, 6, 74, 120
1, 23310, Note_on_c, 11, 74, 120
1, 23339, Note_off_c, 11, 74, 64
1, 23339, Note_off_c, 4, 43, 64
1, 23339, Note_off_c, 0, 59, 64
1, 23339, Note_off_c, 0, 55, 64
1, 23339, Note_off_c, 4, 50, 64
1, 23339, Note_off_c, 5, 62, 64
1, 23339, Note_off_c, 0, 62, 64
1, 23339, Note_off_c, 6, 74, 64
1, 23339, Note_off_c, 5, 74, 64
1, 23340, Note_on_c, 0, 59, 70
1, 23340, Note_on_c, 0, 62, 94
1, 23340, Note_on_c, 0, 67, 101
1, 23340, Control_c, 1, 11, 127
1, 23340, Control_c, 2, 11, 127
1, 23340, Note_on_c, 4, 50, 79
1, 23340, Note_on_c, 4, 55, 111
1, 23340, Note_on_c, 4, 59, 100
1, 23340, Note_on_c, 5, 59, 113
1, 23340, Note_on_c, 5, 71, 113
1, 23340, Note_on_c, 6, 71, 120
1, 23340, Note_on_c, 9, 46, 120
1, 23340, Note_on_c, 9, 73, 119
1, 23340, Note_on_c, 11, 71, 120
1, 23369, Note_off_c, 9, 73, 64
1, 23369, Note_off_c, 9, 46, 64
1, 23399, Note_off_c, 5, 71, 64
1, 23399, Note_off_c, 11, 71, 64
1, 23399, Note_off_c, 1, 31, 64
1, 23399, Note_off_c, 5, 59, 64
1, 23399, Note_off_c, 6, 71, 64
1, 23400, Control_c, 1, 11, 64
1, 23400, Note_on_c, 1, 31, 120
1, 23400, Control_c, 2, 11, 80
1, 23400, Note_on_c, 9, 35, 120
1, 23400, Note_on_c, 9, 42, 120
1, 23429, Note_off_c, 9, 42, 64
1, 23429, Note_off_c, 0, 67, 64
1, 23429, Note_off_c, 4, 59, 64
1, 23429, Note_off_c, 0, 62, 64
1, 23429, Note_off_c, 0, 59, 64
1, 23429, Note_off_c, 4, 50, 64
1, 23429, Note_off_c, 9, 35, 64
1, 23429, Note_off_c, 4, 55, 64
1, 23430, Note_on_c, 0, 59, 52
1, 23430, Note_on_c, 0, 62, 85
1, 23430, Note_on_c, 0, 67, 94
1, 23430, Note_on_c, 4, 50, 82
1, 23430, Note_on_c, 4, 55, 98
1, 23430, Note_on_c, 4, 59, 85
1, 23430, Note_on_c, 5, 57, 98
1, 23430, Note_on_c, 5, 69, 98
1, 23430, Note_on_c, 6, 69, 120
1, 23430, Note_on_c, 11, 69, 120
1, 23459, Note_off_c, 11, 69, 64
1, 23459, Note_off_c, 0, 59, 64
1, 23459, Note_off_c, 0, 62, 64
1, 23459, Note_off_c, 4, 59, 64
1, 23459, Note_off_c, 4, 50, 64
1, 23459, Note_off_c, 0, 67, 64
1, 23459, Note_off_c, 4, 55, 64
1, 23459, Note_off_c, 6, 69, 64
1, 23459, Note_off_c, 5, 69, 64
1, 23459, Note_off_c, 5, 57, 64
1, 23460, Note_on_c, 0, 62, 78
1, 23460, Note_on_c, 0, 67, 100
1, 23460, Note_on_c, 0, 71, 46
1, 23460, Control_c, 1, 11, 127
1, 23460, Control_c, 2, 11, 127
1, 23460, Note_on_c, 4, 43, 109
1, 23460, Note_on_c, 4, 50, 109
1, 23460, Note_on_c, 5, 59, 101
1, 23460, Note_on_c, 5, 71, 101
1, 23460, Note_on_c, 6, 71, 120
1, 23460, Note_on_c, 9, 46, 120
1, 23460, Note_on_c, 9, 73, 115
1, 23460, Note_on_c, 11, 71, 120
1, 23489, Note_off_c, 11, 71, 64
1, 23489, Note_off_c, 6, 71, 64
1, 23489, Note_off_c, 0, 62, 64
1, 23489, Note_off_c, 0, 67, 64
1, 23489, Note_off_c, 5, 59, 64
1, 23489, Note_off_c, 4, 43, 64
1, 23489, Note_off_c, 0, 71, 64
1, 23489, Note_off_c, 4, 50, 64
1, 23489, Note_off_c, 9, 73, 64
1, 23489, Note_off_c, 9, 46, 64
1, 23489, Note_off_c, 5, 71, 64
1, 23490, Note_on_c, 0, 59, 45
1, 23490, Note_on_c, 0, 62, 73
1, 23490, Note_on_c, 0, 67, 86
1, 23490, Note_on_c, 4, 43, 101
1, 23490, Note_on_c, 4, 52, 116
1, 23490, Note_on_c, 5, 57, 91
1, 23490, Note_on_c, 5, 69, 91
1, 23490, Note_on_c, 6, 69, 120
1, 23490, Note_on_c, 11, 69, 120
1, 23519, Note_off_c, 11, 69, 64
1, 23519, Note_off_c, 0, 62, 64
1, 23519, Note_off_c, 2, 62, 64
1, 23519, Note_off_c, 4, 43, 64
1, 23519, Note_off_c, 2, 59, 64
1, 23519, Note_off_c, 2, 67, 64
1, 23519, Note_off_c, 1, 31, 64
1, 23519, Note_off_c, 0, 59, 64
1, 23519, Note_off_c, 5, 69, 64
1, 23519, Note_off_c, 4, 52, 64
1, 23519, Note_off_c, 0, 67, 64
1, 23519, Note_off_c, 6, 69, 64
1, 23519, Note_off_c, 5, 57, 64
1, 23520, Note_on_c, 0, 54, 35
1, 23520, Note_on_c, 0, 57, 85
1, 23520, Note_on_c, 0, 62, 79
1, 23520, Control_c, 1, 11, 64
1, 23520, Note_on_c, 1, 38, 120
1, 23520, Control_c, 2, 11, 64
1, 23520, Note_on_c, 2, 57, 120
1, 23520, Note_on_c, 2, 62, 120
1, 23520, Note_on_c, 2, 66, 120
1, 23520, Note_on_c, 4, 45, 90
1, 23520, Note_on_c, 4, 50, 105
1, 23520, Note_on_c, 5, 62, 105
1, 23520, Note_on_c, 5, 74, 105
1, 23520, Note_on_c, 6, 74, 120
1, 23520, Note_on_c, 9, 35, 120
1, 23520, Note_on_c, 9, 42, 120
1, 23520, Note_on_c, 11, 74, 120
1, 23549, Note_off_c, 9, 42, 64
1, 23549, Note_off_c, 9, 35, 64
1, 23579, Note_off_c, 5, 62, 64
1, 23579, Note_off_c, 0, 57, 64
1, 23579, Note_off_c, 0, 62, 64
1, 23579, Note_off_c, 4, 45, 64
1, 23579, Note_off_c, 0, 54, 64
1, 23579, Note_off_c, 4, 50, 64
1, 23579, Note_off_c, 6, 74, 64
1, 23579, Note_off_c, 11, 74, 64
1, 23579, Note_off_c, 5, 74, 64
1, 23580, Note_on_c, 0, 57, 69
1, 23580, Note_on_c, 0, 62, 98
1, 23580, Note_on_c, 0, 66, 74
1, 23580, Control_c, 1, 11, 127
1, 23580, Control_c, 2, 11, 127
1, 23580, Note_on_c, 4, 45, 100
1, 23580, Note_on_c, 4, 50, 111
1, 23580, Note_on_c, 4, 54, 89
1, 23580, Note_on_c, 9, 46, 120
1, 23580, Note_on_c, 9, 73, 119
1, 23609, Note_off_c, 9, 73, 64
1, 23609, Note_off_c, 9, 46, 64
1, 23639, Note_off_c, 1, 38, 64
1, 23640, Control_c, 1, 11, 64
1, 23640, Note_on_c, 1, 38, 120
1, 23640, Control_c, 2, 11, 73
1, 23640, Note_on_c, 5, 62, 119
1, 23640, Note_on_c, 5, 74, 119
1, 23640, Note_on_c, 6, 74, 120
1, 23640, Note_on_c, 9, 35, 120
1, 23640, Note_on_c, 9, 42, 120
1, 23640, Note_on_c, 11, 74, 120
1, 23669, Note_off_c, 9, 42, 64
1, 23669, Note_off_c, 4, 45, 64
1, 23669, Note_off_c, 0, 66, 64
1, 23669, Note_off_c, 0, 62, 64
1, 23669, Note_off_c, 0, 57, 64
1, 23669, Note_off_c, 4, 54, 64
1, 23669, Note_off_c, 9, 35, 64
1, 23669, Note_off_c, 4, 50, 64
1, 23670, Note_on_c, 0, 54, 44
1, 23670, Note_on_c, 0, 57, 78
1, 23670, Note_on_c, 0, 62, 58
1, 23670, Note_on_c, 4, 45, 85
1, 23670, Note_on_c, 4, 50, 105
1, 23670, Note_on_c, 4, 54, 81
1, 23699, Note_off_c, 4, 54, 64
1, 23699, Note_off_c, 5, 62, 64
1, 23699, Note_off_c, 6, 74, 64
1, 23699, Note_off_c, 0, 57, 64
1, 23699, Note_off_c, 11, 74, 64
1, 23699, Note_off_c, 5, 74, 64
1, 23699, Note_off_c, 0, 54, 64
1, 23699, Note_off_c, 4, 50, 64
1, 23699, Note_off_c, 4, 45, 64
1, 23699, Note_off_c, 0, 62, 64
1, 23700, Note_on_c, 0, 57, 57
1, 23700, Note_on_c, 0, 62, 91
1, 23700, Note_on_c, 0, 66, 77
1, 23700, Control_c, 1, 11, 127
1, 23700, Control_c, 2, 11, 127
1, 23700, Note_on_c, 4, 50, 109
1, 23700, Note_on_c, 4, 54, 89
1, 23700, Note_on_c, 4, 57, 109
1, 23700, Note_on_c, 9, 46, 120
1, 23700, Note_on_c, 9, 73, 119
1, 23729, Note_off_c, 9, 73, 64
1, 23729, Note_off_c, 4, 57, 64
1, 23729, Note_off_c, 4, 50, 64
1, 23729, Note_off_c, 0, 66, 64
1, 23729, Note_off_c, 4, 54, 64
1, 23729, Note_off_c, 9, 46, 64
1, 23729, Note_off_c, 0, 57, 64
1, 23729, Note_off_c, 0, 62, 64
1, 23730, Note_on_c, 0, 54, 35
1, 23730, Note_on_c, 0, 57, 79
1, 23730, Note_on_c, 0, 62, 56
1, 23730, Note_on_c, 4, 50, 111
1, 23730, Note_on_c, 4, 54, 100
1, 23730, Note_on_c, 4, 57, 100
1, 23730, Note_on_c, 5, 62, 103
1, 23730, Note_on_c, 5, 74, 103
1, 23730, Note_on_c, 6, 74, 120
1, 23730, Note_on_c, 11, 74, 120
1, 23759, Note_off_c, 11, 74, 64
1, 23759, Note_off_c, 0, 54, 64
1, 23759, Note_off_c, 0, 57, 64
1, 23759, Note_off_c, 4, 57, 64
1, 23759, Note_off_c, 4, 50, 64
1, 23759, Note_off_c, 0, 62, 64
1, 23759, Note_off_c, 1, 38, 64
1, 23759, Note_off_c, 4, 54, 64
1, 23759, Note_off_c, 5, 74, 64
1, 23759, Note_off_c, 5, 62, 64
1, 23759, Note_off_c, 6, 74, 64
1, 23760, Note_on_c, 0, 54, 49
1, 23760, Note_on_c, 0, 57, 85
1, 23760, Note_on_c, 0, 62, 75
1, 23760, Control_c, 1, 11, 64
1, 23760, Note_on_c, 1, 38, 120
1, 23760, Control_c, 2, 11, 71
1, 23760, Note_on_c, 4, 45, 105
1, 23760, Note_on_c, 4, 50, 116
1, 23760, Note_on_c, 5, 64, 95
1, 23760, Note_on_c, 5, 76, 95
1, 23760, Note_on_c, 6, 76, 120
1, 23760, Note_on_c, 9, 35, 120
1, 23760, Note_on_c, 9, 42, 120
1, 23760, Note_on_c, 11, 76, 120
1, 23789, Note_off_c, 11, 76, 64
1, 23789, Note_off_c, 6, 76, 64
1, 23789, Note_off_c, 5, 64, 64
1, 23789, Note_off_c, 9, 42, 64
1, 23789, Note_off_c, 5, 76, 64
1, 23789, Note_off_c, 9, 35, 64
1, 23790, Note_on_c, 5, 62, 86
1, 23790, Note_on_c, 5, 74, 86
1, 23790, Note_on_c, 6, 74, 120
1, 23790, Note_on_c, 11, 74, 120
1, 23819, Note_off_c, 11, 74, 64
1, 23819, Note_off_c, 4, 45, 64
1, 23819, Note_off_c, 0, 57, 64
1, 23819, Note_off_c, 0, 54, 64
1, 23819, Note_off_c, 4, 50, 64
1, 23819, Note_off_c, 5, 62, 64
1, 23819, Note_off_c, 0, 62, 64
1, 23819, Note_off_c, 6, 74, 64
1, 23819, Note_off_c, 5, 74, 64
1, 23820, Note_on_c, 0, 57, 56
1, 23820, Note_on_c, 0, 62, 84
1, 23820, Note_on_c, 0, 66, 49
1, 23820, Control_c, 1, 11, 127
1, 23820, Control_c, 2, 11, 127
1, 23820, Note_on_c, 4, 50, 105
1, 23820, Note_on_c, 4, 54, 115
1, 23820, Note_on_c, 5, 64, 98
1, 23820, Note_on_c, 5, 76, 98
1, 23820, Note_on_c, 6, 76, 120
1, 23820, Note_on_c, 9, 46, 120
1, 23820, Note_on_c, 9, 73, 119
1, 23820, Note_on_c, 11, 76, 120
1, 23849, Note_off_c, 9, 73, 64
1, 23849, Note_off_c, 4, 50, 64
1, 23849, Note_off_c, 0, 57, 64
1, 23849, Note_off_c, 0, 66, 64
1, 23849, Note_off_c, 9, 46, 64
1, 23849, Note_off_c, 0, 62, 64
1, 23849, Note_off_c, 4, 54, 64
1, 23850, Note_on_c, 0, 57, 84
1, 23850, Note_on_c, 0, 62, 94
1, 23850, Note_on_c, 0, 66, 76
1, 23850, Note_on_c, 4, 50, 100
1, 23850, Note_on_c, 4, 54, 92
1, 23870, Pitch_bend_c, 5, 8071
1, 23875, Pitch_bend_c, 5, 6296
1, 23878, Pitch_bend_c, 5, 4197
1, 23879, Note_off_c, 4, 54, 64
1, 23879, Note_off_c, 2, 66, 64
1, 23879, Note_off_c, 2, 62, 64
1, 23879, Note_off_c, 1, 38, 64
1, 23879, Note_off_c, 5, 76, 64
1, 23879, Note_off_c, 11, 76, 64
1, 23879, Note_off_c, 2, 57, 64
1, 23879, Note_off_c, 5, 64, 64
1, 23879, Note_off_c, 0, 66, 64
1, 23879, Note_off_c, 0, 57, 64
1, 23879, Note_off_c, 6, 76, 64
1, 23879, Note_off_c, 4, 50, 64
1, 23879, Note_off_c, 0, 62, 64
1, 23880, Note_on_c, 0, 52, 47
1, 23880, Note_on_c, 0, 57, 89
1, 23880, Note_on_c, 0, 61, 52
1, 23880, Control_c, 1, 11, 64
1, 23880, Note_on_c, 1, 30, 120
1, 23880, Control_c, 2, 11, 80
1, 23880, Note_on_c, 2, 57, 120
1, 23880, Note_on_c, 2, 61, 120
1, 23880, Note_on_c, 2, 66, 120
1, 23880, Note_on_c, 4, 45, 101
1, 23880, Note_on_c, 4, 52, 101
1, 23880, Note_on_c, 5, 66, 119
1, 23880, Note_on_c, 5, 78, 119
1, 23880, Pitch_bend_c, 5, 1776
1, 23880, Note_on_c, 6, 78, 120
1, 23880, Note_on_c, 9, 35, 120
1, 23880, Note_on_c, 9, 42, 120
1, 23880, Note_on_c, 11, 78, 120
1, 23883, Pitch_bend_c, 5, 0
1, 23900, Pitch_bend_c, 5, 646
1, 23903, Pitch_bend_c, 5, 2422
1, 23905, Pitch_bend_c, 5, 4520
1, 23908, Pitch_bend_c, 5, 6942
1, 23909, Note_off_c, 9, 42, 64
1, 23909, Note_off_c, 9, 35, 64
1, 23910, Pitch_bend_c, 5, 8192
1, 23939, Note_off_c, 5, 66, 64
1, 23939, Note_off_c, 0, 57, 64
1, 23939, Note_off_c, 0, 61, 64
1, 23939, Note_off_c, 4, 45, 64
1, 23939, Note_off_c, 0, 52, 64
1, 23939, Note_off_c, 4, 52, 64
1, 23939, Note_off_c, 6, 78, 64
1, 23939, Note_off_c, 11, 78, 64
1, 23939, Note_off_c, 5, 78, 64
1, 23940, Note_on_c, 0, 57, 51
1, 23940, Note_on_c, 0, 61, 52
1, 23940, Note_on_c, 0, 64, 78
1, 23940, Control_c, 1, 11, 127
1, 23940, Control_c, 2, 11, 127
1, 23940, Note_on_c, 4, 49, 89
1, 23940, Note_on_c, 4, 52, 101
1, 23940, Note_on_c, 4, 57, 89
1, 23940, Note_on_c, 5, 62, 111
1, 23940, Note_on_c, 5, 74, 111
1, 23940, Note_on_c, 6, 74, 120
1, 23940, Note_on_c, 9, 46, 120
1, 23940, Note_on_c, 9, 73, 115
1, 23940, Note_on_c, 11, 74, 120
1, 23969, Note_off_c, 9, 73, 64
1, 23969, Note_off_c, 4, 52, 64
1, 23969, Note_off_c, 0, 61, 64
1, 23969, Note_off_c, 0, 57, 64
1, 23969, Note_off_c, 0, 64, 64
1, 23969, Note_off_c, 4, 49, 64
1, 23969, Note_off_c, 9, 46, 64
1, 23969, Note_off_c, 4, 57, 64
1, 23970, Note_on_c, 0, 57, 73
1, 23970, Note_on_c, 0, 61, 52
1, 23970, Note_on_c, 0, 64, 83
1, 23970, Note_on_c, 4, 49, 119
1, 23970, Note_on_c, 4, 52, 118
1, 23970, Note_on_c, 4, 57, 105
1, 23999, Note_off_c, 4, 57, 64
1, 23999, Note_off_c, 5, 62, 64
1, 23999, Note_off_c, 2, 66, 64
1, 23999, Note_off_c, 6, 74, 64
1, 23999, Note_off_c, 2, 57, 64
1, 23999, Note_off_c, 5, 74, 64
1, 23999, Note_off_c, 2, 61, 64
1, 23999, Note_off_c, 11, 74, 64
1, 23999, Note_off_c, 4, 49, 64
1, 23999, Note_off_c, 0, 64, 64
1, 23999, Note_off_c, 0, 57, 64
1, 23999, Note_off_c, 1, 30, 64
1, 23999, Note_off_c, 4, 52, 64
1, 23999, Note_off_c, 0, 61, 64
1, 24000, Note_on_c, 0, 59, 58
1, 24000, Note_on_c, 0, 62, 91
1, 24000, Control_c, 1, 11, 64
1, 24000, Note_on_c, 1, 35, 120
1, 24000, Control_c, 2, 11, 64
1, 24000, Note_on_c, 2, 59, 120
1, 24000, Note_on_c, 2, 62, 120
1, 24000, Note_on_c, 2, 66, 120
1, 24000, Note_on_c, 4, 47, 85
1, 24000, Note_on_c, 4, 54, 120
1, 24000, Note_on_c, 5, 59, 120
1, 24000, Note_on_c, 5, 71, 120
1, 24000, Note_on_c, 6, 71, 120
1, 24000, Note_on_c, 9, 35, 120
1, 24000, Note_on_c, 9, 42, 120
1, 24000, Note_on_c, 11, 71, 120
1, 24029, Note_off_c, 9, 42, 64
1, 24029, Note_off_c, 9, 35, 64
1, 24059, Note_off_c, 5, 71, 64
1, 24059, Note_off_c, 4, 47, 64
1, 24059, Note_off_c, 4, 54, 64
1, 24059, Note_off_c, 0, 59, 64
1, 24059, Note_off_c, 5, 59, 64
1, 24059, Note_off_c, 6, 71, 64
1, 24059, Note_off_c, 11, 71, 64
1, 24059, Note_off_c, 0, 62, 64
1, 24060, Note_on_c, 0, 59, 79
1, 24060, Note_on_c, 0, 62, 95
1, 24060, Note_on_c, 0, 66, 74
1, 24060, Control_c, 1, 11, 127
1, 24060, Control_c, 2, 11, 127
1, 24060, Note_on_c, 4, 50, 92
1, 24060, Note_on_c, 4, 54, 87
1, 24060, Note_on_c, 4, 62, 95
1, 24060, Note_on_c, 9, 46, 120
1, 24060, Note_on_c, 9, 73, 119
1, 24089, Note_off_c, 9, 73, 64
1, 24089, Note_off_c, 9, 46, 64
1, 24119, Note_off_c, 1, 35, 64
1, 24120, Control_c, 1, 11, 64
1, 24120, Note_on_c, 1, 35, 120
1, 24120, Control_c, 2, 11, 73
1, 24120, Note_on_c, 5, 59, 120
1, 24120, Note_on_c, 5, 71, 120
1, 24120, Note_on_c, 6, 71, 120
1, 24120, Note_on_c, 9, 35, 120
1, 24120, Note_on_c, 9, 42, 120
1, 24120, Note_on_c, 11, 71, 120
1, 24149, Note_off_c, 9, 42, 64
1, 24149, Note_off_c, 4, 50, 64
1, 24149, Note_off_c, 0, 66, 64
1, 24149, Note_off_c, 0, 62, 64
1, 24149, Note_off_c, 0, 59, 64
1, 24149, Note_off_c, 4, 62, 64
1, 24149, Note_off_c, 9, 35, 64
1, 24149, Note_off_c, 4, 54, 64
1, 24150, Note_on_c, 0, 59, 71
1, 24150, Note_on_c, 0, 62, 91
1, 24150, Note_on_c, 0, 66, 60
1, 24150, Note_on_c, 4, 54, 109
1, 24150, Note_on_c, 4, 59, 95
1, 24179, Note_off_c, 4, 59, 64
1, 24179, Note_off_c, 6, 71, 64
1, 24179, Note_off_c, 0, 62, 64
1, 24179, Note_off_c, 11, 71, 64
1, 24179, Note_off_c, 5, 71, 64
1, 24179, Note_off_c, 0, 59, 64
1, 24179, Note_off_c, 4, 54, 64
1, 24179, Note_off_c, 5, 59, 64
1, 24179, Note_off_c, 0, 66, 64
1, 24180, Note_on_c, 0, 62, 80
1, 24180, Note_on_c, 0, 66, 62
1, 24180, Note_on_c, 0, 71, 91
1, 24180, Control_c, 1, 11, 127
1, 24180, Control_c, 2, 11, 127
1, 24180, Note_on_c, 4, 50, 103
1, 24180, Note_on_c, 4, 54, 115
1, 24180, Note_on_c, 9, 46, 119
1, 24180, Note_on_c, 9, 73, 119
1, 24209, Note_off_c, 9, 73, 64
1, 24209, Note_off_c, 4, 50, 64
1, 24209, Note_off_c, 9, 46, 64
1, 24209, Note_off_c, 0, 71, 64
1, 24209, Note_off_c, 4, 54, 64
1, 24209, Note_off_c, 0, 62, 64
1, 24209, Note_off_c, 0, 66, 64
1, 24210, Note_on_c, 0, 59, 51
1, 24210, Note_on_c, 0, 62, 85
1, 24210, Note_on_c, 0, 66, 59
1, 24210, Note_on_c, 4, 47, 92
1, 24210, Note_on_c, 4, 52, 98
1, 24210, Note_on_c, 5, 57, 98
1, 24210, Note_on_c, 5, 69, 98
1, 24210, Note_on_c, 6, 69, 120
1, 24210, Note_on_c, 11, 69, 120
1, 24239, Note_off_c, 11, 69, 64
1, 24239, Note_off_c, 0, 62, 64
1, 24239, Note_off_c, 2, 66, 64
1, 24239, Note_off_c, 4, 47, 64
1, 24239, Note_off_c, 1, 35, 64
1, 24239, Note_off_c, 2, 62, 64
1, 24239, Note_off_c, 2, 59, 64
1, 24239, Note_off_c, 0, 59, 64
1, 24239, Note_off_c, 5, 69, 64
1, 24239, Note_off_c, 4, 52, 64
1, 24239, Note_off_c, 0, 66, 64
1, 24239, Note_off_c, 6, 69, 64
1, 24239, Note_off_c, 5, 57, 64
1, 24240, Note_on_c, 0, 55, 74
1, 24240, Note_on_c, 0, 59, 94
1, 24240, Note_on_c, 0, 62, 91
1, 24240, Control_c, 1, 11, 64
1, 24240, Note_on_c, 1, 31, 120
1, 24240, Control_c, 2, 11, 71
1, 24240, Note_on_c, 2, 59, 120
1, 24240, Note_on_c, 2, 62, 120
1, 24240, Note_on_c, 2, 67, 120
1, 24240, Note_on_c, 4, 43, 98
1, 24240, Note_on_c, 4, 50, 116
1, 24240, Note_on_c, 5, 59, 98
1, 24240, Note_on_c, 5, 71, 98
1, 24240, Note_on_c, 6, 71, 120
1, 24240, Note_on_c, 9, 35, 120
1, 24240, Note_on_c, 9, 42, 120
1, 24240, Note_on_c, 11, 71, 120
1, 24269, Note_off_c, 11, 71, 64
1, 24269, Note_off_c, 6, 71, 64
1, 24269, Note_off_c, 5, 59, 64
1, 24269, Note_off_c, 9, 42, 64
1, 24269, Note_off_c, 5, 71, 64
1, 24269, Note_off_c, 9, 35, 64
1, 24270, Note_on_c, 5, 62, 54
1, 24270, Note_on_c, 5, 74, 54
1, 24270, Note_on_c, 6, 74, 120
1, 24270, Note_on_c, 11, 74, 120
1, 24299, Note_off_c, 11, 74, 64
1, 24299, Note_off_c, 4, 43, 64
1, 24299, Note_off_c, 0, 59, 64
1, 24299, Note_off_c, 0, 55, 64
1, 24299, Note_off_c, 4, 50, 64
1, 24299, Note_off_c, 5, 62, 64
1, 24299, Note_off_c, 0, 62, 64
1, 24299, Note_off_c, 6, 74, 64
1, 24299, Note_off_c, 5, 74, 64
1, 24300, Note_on_c, 0, 59, 70
1, 24300, Note_on_c, 0, 62, 94
1, 24300, Note_on_c, 0, 67, 101
1, 24300, Control_c, 1, 11, 127
1, 24300, Control_c, 2, 11, 127
1, 24300, Note_on_c, 4, 50, 79
1, 24300, Note_on_c, 4, 55, 111
1, 24300, Note_on_c, 4, 59, 100
1, 24300, Note_on_c, 5, 59, 116
1, 24300, Note_on_c, 5, 71, 116
1, 24300, Note_on_c, 6, 71, 120
1, 24300, Note_on_c, 9, 46, 120
1, 24300, Note_on_c, 9, 73, 109
1, 24300, Note_on_c, 11, 71, 120
1, 24329, Note_off_c, 9, 73, 64
1, 24329, Note_off_c, 9, 46, 64
1, 24359, Note_off_c, 5, 71, 64
1, 24359, Note_off_c, 11, 71, 64
1, 24359, Note_off_c, 1, 31, 64
1, 24359, Note_off_c, 5, 59, 64
1, 24359, Note_off_c, 6, 71, 64
1, 24360, Control_c, 1, 11, 64
1, 24360, Note_on_c, 1, 31, 120
1, 24360, Control_c, 2, 11, 80
1, 24360, Note_on_c, 9, 35, 120
1, 24360, Note_on_c, 9, 42, 120
1, 24389, Note_off_c, 9, 42, 64
1, 24389, Note_off_c, 0, 67, 64
1, 24389, Note_off_c, 4, 59, 64
1, 24389, Note_off_c, 0, 62, 64
1, 24389, Note_off_c, 0, 59, 64
1, 24389, Note_off_c, 4, 50, 64
1, 24389, Note_off_c, 9, 35, 64
1, 24389, Note_off_c, 4, 55, 64
1, 24390, Note_on_c, 0, 59, 52
1, 24390, Note_on_c, 0, 62, 85
1, 24390, Note_on_c, 0, 67, 94
1, 24390, Note_on_c, 4, 50, 82
1, 24390, Note_on_c, 4, 55, 98
1, 24390, Note_on_c, 4, 59, 85
1, 24390, Note_on_c, 5, 57, 83
1, 24390, Note_on_c, 5, 69, 83
1, 24390, Note_on_c, 6, 69, 120
1, 24390, Note_on_c, 11, 69, 120
1, 24419, Note_off_c, 11, 69, 64
1, 24419, Note_off_c, 0, 59, 64
1, 24419, Note_off_c, 0, 62, 64
1, 24419, Note_off_c, 4, 59, 64
1, 24419, Note_off_c, 4, 50, 64
1, 24419, Note_off_c, 0, 67, 64
1, 24419, Note_off_c, 4, 55, 64
1, 24419, Note_off_c, 6, 69, 64
1, 24419, Note_off_c, 5, 69, 64
1, 24419, Note_off_c, 5, 57, 64
1, 24420, Note_on_c, 0, 62, 78
1, 24420, Note_on_c, 0, 67, 100
1, 24420, Note_on_c, 0, 71, 46
1, 24420, Control_c, 1, 11, 127
1, 24420, Control_c, 2, 11, 127
1, 24420, Note_on_c, 4, 43, 109
1, 24420, Note_on_c, 4, 50, 109
1, 24420, Note_on_c, 5, 59, 98
1, 24420, Note_on_c, 5, 71, 98
1, 24420, Note_on_c, 6, 71, 120
1, 24420, Note_on_c, 9, 46, 120
1, 24420, Note_on_c, 9, 73, 115
1, 24420, Note_on_c, 11, 71, 120
1, 24449, Note_off_c, 11, 71, 64
1, 24449, Note_off_c, 6, 71, 64
1, 24449, Note_off_c, 0, 62, 64
1, 24449, Note_off_c, 0, 67, 64
1, 24449, Note_off_c, 5, 59, 64
1, 24449, Note_off_c, 4, 43, 64
1, 24449, Note_off_c, 0, 71, 64
1, 24449, Note_off_c, 4, 50, 64
1, 24449, Note_off_c, 9, 73, 64
1, 24449, Note_off_c, 9, 46, 64
1, 24449, Note_off_c, 5, 71, 64
1, 24450, Note_on_c, 0, 59, 45
1, 24450, Note_on_c, 0, 62, 73
1, 24450, Note_on_c, 0, 67, 86
1, 24450, Note_on_c, 4, 43, 101
1, 24450, Note_on_c, 4, 52, 116
1, 24450, Note_on_c, 5, 57, 94
1, 24450, Note_on_c, 5, 69, 94
1, 24450, Note_on_c, 6, 69, 120
1, 24450, Note_on_c, 11, 69, 120
1, 24479, Note_off_c, 11, 69, 64
1, 24479, Note_off_c, 0, 62, 64
1, 24479, Note_off_c, 2, 62, 64
1, 24479, Note_off_c, 4, 43, 64
1, 24479, Note_off_c, 2, 59, 64
1, 24479, Note_off_c, 2, 67, 64
1, 24479, Note_off_c, 1, 31, 64
1, 24479, Note_off_c, 0, 59, 64
1, 24479, Note_off_c, 5, 69, 64
1, 24479, Note_off_c, 4, 52, 64
1, 24479, Note_off_c, 0, 67, 64
1, 24479, Note_off_c, 6, 69, 64
1, 24479, Note_off_c, 5, 57, 64
1, 24480, Note_on_c, 0, 54, 35
1, 24480, Note_on_c, 0, 57, 85
1, 24480, Note_on_c, 0, 62, 79
1, 24480, Control_c, 1, 11, 64
1, 24480, Note_on_c, 1, 38, 120
1, 24480, Control_c, 2, 11, 64
1, 24480, Note_on_c, 2, 57, 120
1, 24480, Note_on_c, 2, 62, 120
1, 24480, Note_on_c, 2, 66, 120
1, 24480, Note_on_c, 4, 45, 90
1, 24480, Note_on_c, 4, 50, 105
1, 24480, Note_on_c, 5, 62, 120
1, 24480, Note_on_c, 5, 74, 120
1, 24480, Note_on_c, 6, 74, 120
1, 24480, Note_on_c, 9, 35, 120
1, 24480, Note_on_c, 9, 42, 120
1, 24480, Note_on_c, 11, 74, 120
1, 24509, Note_off_c, 9, 42, 64
1, 24509, Note_off_c, 9, 35, 64
1, 24539, Note_off_c, 5, 62, 64
1, 24539, Note_off_c, 0, 57, 64
1, 24539, Note_off_c, 0, 62, 64
1, 24539, Note_off_c, 4, 45, 64
1, 24539, Note_off_c, 0, 54, 64
1, 24539, Note_off_c, 4, 50, 64
1, 24539, Note_off_c, 6, 74, 64
1, 24539, Note_off_c, 11, 74, 64
1, 24539, Note_off_c, 5, 74, 64
1, 24540, Note_on_c, 0, 57, 69
1, 24540, Note_on_c, 0, 62, 98
1, 24540, Note_on_c, 0, 66, 74
1, 24540, Control_c, 1, 11, 127
1, 24540, Control_c, 2, 11, 127
1, 24540, Note_on_c, 4, 45, 100
1, 24540, Note_on_c, 4, 50, 111
1, 24540, Note_on_c, 4, 54, 89
1, 24540, Note_on_c, 9, 46, 120
1, 24540, Note_on_c, 9, 73, 109
1, 24569, Note_off_c, 9, 73, 64
1, 24569, Note_off_c, 9, 46, 64
1, 24599, Note_off_c, 1, 38, 64
1, 24600, Control_c, 1, 11, 64
1, 24600, Note_on_c, 1, 38, 120
1, 24600, Control_c, 2, 11, 73
1, 24600, Note_on_c, 5, 62, 120
1, 24600, Note_on_c, 5, 74, 120
1, 24600, Note_on_c, 6, 74, 120
1, 24600, Note_on_c, 9, 35, 120
1, 24600, Note_on_c, 9, 42, 120
1, 24600, Note_on_c, 11, 74, 120
1, 24629, Note_off_c, 9, 42, 64
1, 24629, Note_off_c, 4, 45, 64
1, 24629, Note_off_c, 0, 66, 64
1, 24629, Note_off_c, 0, 62, 64
1, 24629, Note_off_c, 0, 57, 64
1, 24629, Note_off_c, 4, 54, 64
1, 24629, Note_off_c, 9, 35, 64
1, 24629, Note_off_c, 4, 50, 64
1, 24630, Note_on_c, 0, 54, 44
1, 24630, Note_on_c, 0, 57, 78
1, 24630, Note_on_c, 0, 62, 58
1, 24630, Note_on_c, 4, 45, 85
1, 24630, Note_on_c, 4, 50, 105
1, 24630, Note_on_c, 4, 54, 81
1, 24659, Note_off_c, 4, 54, 64
1, 24659, Note_off_c, 5, 62, 64
1, 24659, Note_off_c, 6, 74, 64
1, 24659, Note_off_c, 0, 57, 64
1, 24659, Note_off_c, 11, 74, 64
1, 24659, Note_off_c, 5, 74, 64
1, 24659, Note_off_c, 0, 54, 64
1, 24659, Note_off_c, 4, 50, 64
1, 24659, Note_off_c, 4, 45, 64
1, 24659, Note_off_c, 0, 62, 64
1, 24660, Note_on_c, 0, 57, 57
1, 24660, Note_on_c, 0, 62, 91
1, 24660, Note_on_c, 0, 66, 77
1, 24660, Control_c, 1, 11, 127
1, 24660, Control_c, 2, 11, 127
1, 24660, Note_on_c, 4, 50, 109
1, 24660, Note_on_c, 4, 54, 89
1, 24660, Note_on_c, 4, 57, 109
1, 24660, Note_on_c, 9, 46, 120
1, 24660, Note_on_c, 9, 73, 119
1, 24689, Note_off_c, 9, 73, 64
1, 24689, Note_off_c, 4, 57, 64
1, 24689, Note_off_c, 4, 50, 64
1, 24689, Note_off_c, 0, 66, 64
1, 24689, Note_off_c, 4, 54, 64
1, 24689, Note_off_c, 9, 46, 64
1, 24689, Note_off_c, 0, 57, 64
1, 24689, Note_off_c, 0, 62, 64
1, 24690, Note_on_c, 0, 54, 35
1, 24690, Note_on_c, 0, 57, 79
1, 24690, Note_on_c, 0, 62, 56
1, 24690, Note_on_c, 4, 50, 111
1, 24690, Note_on_c, 4, 54, 100
1, 24690, Note_on_c, 4, 57, 100
1, 24690, Note_on_c, 5, 62, 89
1, 24690, Note_on_c, 5, 74, 89
1, 24690, Note_on_c, 6, 74, 120
1, 24690, Note_on_c, 11, 74, 120
1, 24719, Note_off_c, 11, 74, 64
1, 24719, Note_off_c, 0, 54, 64
1, 24719, Note_off_c, 0, 57, 64
1, 24719, Note_off_c, 4, 57, 64
1, 24719, Note_off_c, 4, 50, 64
1, 24719, Note_off_c, 0, 62, 64
1, 24719, Note_off_c, 1, 38, 64
1, 24719, Note_off_c, 4, 54, 64
1, 24719, Note_off_c, 5, 74, 64
1, 24719, Note_off_c, 5, 62, 64
1, 24719, Note_off_c, 6, 74, 64
1, 24720, Note_on_c, 0, 54, 49
1, 24720, Note_on_c, 0, 57, 85
1, 24720, Note_on_c, 0, 62, 75
1, 24720, Control_c, 1, 11, 64
1, 24720, Note_on_c, 1, 38, 120
1, 24720, Control_c, 2, 11, 71
1, 24720, Note_on_c, 4, 45, 105
1, 24720, Note_on_c, 4, 50, 116
1, 24720, Note_on_c, 5, 64, 81
1, 24720, Note_on_c, 5, 76, 81
1, 24720, Note_on_c, 6, 76, 120
1, 24720, Note_on_c, 9, 35, 120
1, 24720, Note_on_c, 9, 42, 120
1, 24720, Note_on_c, 11, 76, 120
1, 24749, Note_off_c, 11, 76, 64
1, 24749, Note_off_c, 6, 76, 64
1, 24749, Note_off_c, 5, 64, 64
1, 24749, Note_off_c, 9, 42, 64
1, 24749, Note_off_c, 5, 76, 64
1, 24749, Note_off_c, 9, 35, 64
1, 24750, Note_on_c, 5, 62, 95
1, 24750, Note_on_c, 5, 74, 95
1, 24750, Note_on_c, 6, 74, 120
1, 24750, Note_on_c, 11, 74, 120
1, 24779, Note_off_c, 11, 74, 64
1, 24779, Note_off_c, 4, 45, 64
1, 24779, Note_off_c, 0, 57, 64
1, 24779, Note_off_c, 0, 54, 64
1, 24779, Note_off_c, 4, 50, 64
1, 24779, Note_off_c, 5, 62, 64
1, 24779, Note_off_c, 0, 62, 64
1, 24779, Note_off_c, 6, 74, 64
1, 24779, Note_off_c, 5, 74, 64
1, 24780, Note_on_c, 0, 57, 56
1, 24780, Note_on_c, 0, 62, 84
1, 24780, Note_on_c, 0, 66, 49
1, 24780, Control_c, 1, 11, 127
1, 24780, Control_c, 2, 11, 127
1, 24780, Note_on_c, 4, 50, 105
1, 24780, Note_on_c, 4, 54, 115
1, 24780, Note_on_c, 5, 64, 111
1, 24780, Note_on_c, 5, 76, 111
1, 24780, Note_on_c, 6, 76, 120
1, 24780, Note_on_c, 9, 46, 120
1, 24780, Note_on_c, 9, 73, 115
1, 24780, Note_on_c, 11, 76, 120
1, 24809, Note_off_c, 9, 73, 64
1, 24809, Note_off_c, 4, 50, 64
1, 24809, Note_off_c, 0, 57, 64
1, 24809, Note_off_c, 0, 66, 64
1, 24809, Note_off_c, 9, 46, 64
1, 24809, Note_off_c, 0, 62, 64
1, 24809, Note_off_c, 4, 54, 64
1, 24810, Note_on_c, 0, 57, 84
1, 24810, Note_on_c, 0, 62, 94
1, 24810, Note_on_c, 0, 66, 76
1, 24810, Note_on_c, 4, 50, 100
1, 24810, Note_on_c, 4, 54, 92
1, 24831, Pitch_bend_c, 5, 7749
1, 24833, Pitch_bend_c, 5, 6215
1, 24836, Pitch_bend_c, 5, 4197
1, 24838, Pitch_bend_c, 5, 2422
1, 24839, Note_off_c, 4, 54, 64
1, 24839, Note_off_c, 2, 66, 64
1, 24839, Note_off_c, 2, 62, 64
1, 24839, Note_off_c, 1, 38, 64
1, 24839, Note_off_c, 5, 76, 64
1, 24839, Note_off_c, 11, 76, 64
1, 24839, Note_off_c, 2, 57, 64
1, 24839, Note_off_c, 5, 64, 64
1, 24839, Note_off_c, 0, 66, 64
1, 24839, Note_off_c, 0, 57, 64
1, 24839, Note_off_c, 6, 76, 64
1, 24839, Note_off_c, 4, 50, 64
1, 24839, Note_off_c, 0, 62, 64
1, 24840, Note_on_c, 0, 52, 47
1, 24840, Note_on_c, 0, 57, 89
1, 24840, Note_on_c, 0, 61, 52
1, 24840, Control_c, 1, 11, 64
1, 24840, Note_on_c, 1, 33, 120
1, 24840, Control_c, 2, 11, 80
1, 24840, Note_on_c, 2, 57, 120
1, 24840, Note_on_c, 2, 61, 120
1, 24840, Note_on_c, 2, 64, 120
1, 24840, Note_on_c, 4, 45, 101
1, 24840, Note_on_c, 4, 52, 101
1, 24840, Note_on_c, 5, 66, 119
1, 24840, Note_on_c, 5, 78, 119
1, 24840, Note_on_c, 6, 78, 120
1, 24840, Note_on_c, 9, 35, 120
1, 24840, Note_on_c, 9, 42, 120
1, 24840, Note_on_c, 11, 78, 120
1, 24841, Pitch_bend_c, 5, 1211
1, 24843, Pitch_bend_c, 5, 646
1, 24846, Pitch_bend_c, 5, 565
1, 24848, Pitch_bend_c, 5, 646
1, 24851, Pitch_bend_c, 5, 1373
1, 24853, Pitch_bend_c, 5, 2260
1, 24856, Pitch_bend_c, 5, 3471
1, 24858, Pitch_bend_c, 5, 5085
1, 24861, Pitch_bend_c, 5, 6942
1, 24863, Pitch_bend_c, 5, 8071
1, 24866, Pitch_bend_c, 5, 8192
1, 24869, Note_off_c, 9, 42, 64
1, 24869, Note_off_c, 9, 35, 64
1, 24899, Note_off_c, 5, 66, 64
1, 24899, Note_off_c, 0, 57, 64
1, 24899, Note_off_c, 0, 61, 64
1, 24899, Note_off_c, 4, 45, 64
1, 24899, Note_off_c, 0, 52, 64
1, 24899, Note_off_c, 4, 52, 64
1, 24899, Note_off_c, 6, 78, 64
1, 24899, Note_off_c, 11, 78, 64
1, 24899, Note_off_c, 5, 78, 64
1, 24900, Note_on_c, 0, 57, 51
1, 24900, Note_on_c, 0, 61, 52
1, 24900, Note_on_c, 0, 64, 78
1, 24900, Control_c, 1, 11, 127
1, 24900, Control_c, 2, 11, 127
1, 24900, Note_on_c, 4, 49, 89
1, 24900, Note_on_c, 4, 52, 101
1, 24900, Note_on_c, 4, 57, 89
1, 24900, Note_on_c, 5, 62, 98
1, 24900, Note_on_c, 5, 74, 98
1, 24900, Note_on_c, 6, 74, 120
1, 24900, Note_on_c, 9, 46, 120
1, 24900, Note_on_c, 9, 73, 111
1, 24900, Note_on_c, 11, 74, 120
1, 24929, Note_off_c, 9, 73, 64
1, 24929, Note_off_c, 4, 52, 64
1, 24929, Note_off_c, 0, 61, 64
1, 24929, Note_off_c, 0, 57, 64
1, 24929, Note_off_c, 0, 64, 64
1, 24929, Note_off_c, 4, 49, 64
1, 24929, Note_off_c, 9, 46, 64
1, 24929, Note_off_c, 4, 57, 64
1, 24930, Note_on_c, 0, 57, 73
1, 24930, Note_on_c, 0, 61, 52
1, 24930, Note_on_c, 0, 64, 83
1, 24930, Note_on_c, 4, 49, 119
1, 24930, Note_on_c, 4, 52, 118
1, 24930, Note_on_c, 4, 57, 105
1, 24959, Note_off_c, 4, 57, 64
1, 24959, Note_off_c, 5, 62, 64
1, 24959, Note_off_c, 2, 64, 64
1, 24959, Note_off_c, 6, 74, 64
1, 24959, Note_off_c, 2, 57, 64
1, 24959, Note_off_c, 5, 74, 64
1, 24959, Note_off_c, 2, 61, 64
1, 24959, Note_off_c, 11, 74, 64
1, 24959, Note_off_c, 4, 49, 64
1, 24959, Note_off_c, 0, 64, 64
1, 24959, Note_off_c, 0, 57, 64
1, 24959, Note_off_c, 1, 33, 64
1, 24959, Note_off_c, 4, 52, 64
1, 24959, Note_off_c, 0, 61, 64
1, 24960, Note_on_c, 0, 59, 58
1, 24960, Note_on_c, 0, 62, 91
1, 24960, Control_c, 1, 11, 64
1, 24960, Note_on_c, 1, 35, 120
1, 24960, Control_c, 2, 11, 64
1, 24960, Note_on_c, 2, 59, 120
1, 24960, Note_on_c, 2, 62, 120
1, 24960, Note_on_c, 2, 66, 120
1, 24960, Note_on_c, 4, 47, 85
1, 24960, Note_on_c, 4, 54, 120
1, 24960, Note_on_c, 5, 59, 105
1, 24960, Note_on_c, 5, 71, 105
1, 24960, Note_on_c, 6, 71, 120
1, 24960, Note_on_c, 9, 35, 120
1, 24960, Note_on_c, 9, 42, 120
1, 24960, Note_on_c, 11, 71, 120
1, 24989, Note_off_c, 9, 42, 64
1, 24989, Note_off_c, 9, 35, 64
1, 25019, Note_off_c, 5, 71, 64
1, 25019, Note_off_c, 4, 47, 64
1, 25019, Note_off_c, 4, 54, 64
1, 25019, Note_off_c, 0, 59, 64
1, 25019, Note_off_c, 5, 59, 64
1, 25019, Note_off_c, 6, 71, 64
1, 25019, Note_off_c, 11, 71, 64
1, 25019, Note_off_c, 0, 62, 64
1, 25020, Note_on_c, 0, 59, 79
1, 25020, Note_on_c, 0, 62, 95
1, 25020, Note_on_c, 0, 66, 74
1, 25020, Control_c, 1, 11, 127
1, 25020, Control_c, 2, 11, 127
1, 25020, Note_on_c, 4, 50, 92
1, 25020, Note_on_c, 4, 54, 87
1, 25020, Note_on_c, 4, 62, 95
1, 25020, Note_on_c, 9, 46, 120
1, 25020, Note_on_c, 9, 73, 109
1, 25049, Note_off_c, 9, 73, 64
1, 25049, Note_off_c, 9, 46, 64
1, 25079, Note_off_c, 1, 35, 64
1, 25080, Control_c, 1, 11, 64
1, 25080, Note_on_c, 1, 35, 120
1, 25080, Control_c, 2, 11, 73
1, 25080, Note_on_c, 5, 59, 119
1, 25080, Note_on_c, 5, 71, 119
1, 25080, Note_on_c, 6, 71, 120
1, 25080, Note_on_c, 9, 35, 120
1, 25080, Note_on_c, 9, 42, 120
1, 25080, Note_on_c, 11, 71, 120
1, 25109, Note_off_c, 9, 42, 64
1, 25109, Note_off_c, 4, 50, 64
1, 25109, Note_off_c, 0, 66, 64
1, 25109, Note_off_c, 0, 62, 64
1, 25109, Note_off_c, 0, 59, 64
1, 25109, Note_off_c, 4, 62, 64
1, 25109, Note_off_c, 9, 35, 64
1, 25109, Note_off_c, 4, 54, 64
1, 25110, Note_on_c, 0, 59, 71
1, 25110, Note_on_c, 0, 62, 91
1, 25110, Note_on_c, 0, 66, 60
1, 25110, Note_on_c, 4, 54, 109
1, 25110, Note_on_c, 4, 59, 95
1, 25139, Note_off_c, 4, 59, 64
1, 25139, Note_off_c, 6, 71, 64
1, 25139, Note_off_c, 0, 62, 64
1, 25139, Note_off_c, 11, 71, 64
1, 25139, Note_off_c, 5, 71, 64
1, 25139, Note_off_c, 0, 59, 64
1, 25139, Note_off_c, 4, 54, 64
1, 25139, Note_off_c, 5, 59, 64
1, 25139, Note_off_c, 0, 66, 64
1, 25140, Note_on_c, 0, 62, 80
1, 25140, Note_on_c, 0, 66, 62
1, 25140, Note_on_c, 0, 71, 91
1, 25140, Control_c, 1, 11, 127
1, 25140, Control_c, 2, 11, 127
1, 25140, Note_on_c, 4, 50, 103
1, 25140, Note_on_c, 4, 54, 115
1, 25140, Note_on_c, 9, 46, 120
1, 25140, Note_on_c, 9, 73, 119
1, 25169, Note_off_c, 9, 73, 64
1, 25169, Note_off_c, 4, 50, 64
1, 25169, Note_off_c, 9, 46, 64
1, 25169, Note_off_c, 0, 71, 64
1, 25169, Note_off_c, 4, 54, 64
1, 25169, Note_off_c, 0, 62, 64
1, 25169, Note_off_c, 0, 66, 64
1, 25170, Note_on_c, 0, 59, 51
1, 25170, Note_on_c, 0, 62, 85
1, 25170, Note_on_c, 0, 66, 59
1, 25170, Note_on_c, 4, 47, 92
1, 25170, Note_on_c, 4, 52, 98
1, 25170, Note_on_c, 5, 57, 91
1, 25170, Note_on_c, 5, 69, 91
1, 25170, Note_on_c, 6, 69, 120
1, 25170, Note_on_c, 11, 69, 120
1, 25199, Note_off_c, 11, 69, 64
1, 25199, Note_off_c, 0, 62, 64
1, 25199, Note_off_c, 2, 66, 64
1, 25199, Note_off_c, 4, 47, 64
1, 25199, Note_off_c, 1, 35, 64
1, 25199, Note_off_c, 2, 62, 64
1, 25199, Note_off_c, 2, 59, 64
1, 25199, Note_off_c, 0, 59, 64
1, 25199, Note_off_c, 5, 69, 64
1, 25199, Note_off_c, 4, 52, 64
1, 25199, Note_off_c, 0, 66, 64
1, 25199, Note_off_c, 6, 69, 64
1, 25199, Note_off_c, 5, 57, 64
1, 25200, Note_on_c, 0, 55, 74
1, 25200, Note_on_c, 0, 59, 94
1, 25200, Note_on_c, 0, 62, 91
1, 25200, Control_c, 1, 11, 64
1, 25200, Note_on_c, 1, 31, 120
1, 25200, Control_c, 2, 11, 71
1, 25200, Note_on_c, 2, 59, 120
1, 25200, Note_on_c, 2, 62, 120
1, 25200, Note_on_c, 2, 67, 120
1, 25200, Note_on_c, 4, 43, 98
1, 25200, Note_on_c, 4, 50, 116
1, 25200, Note_on_c, 5, 59, 97
1, 25200, Note_on_c, 5, 71, 97
1, 25200, Note_on_c, 6, 71, 120
1, 25200, Note_on_c, 9, 35, 120
1, 25200, Note_on_c, 9, 42, 120
1, 25200, Note_on_c, 11, 71, 120
1, 25229, Note_off_c, 11, 71, 64
1, 25229, Note_off_c, 6, 71, 64
1, 25229, Note_off_c, 5, 59, 64
1, 25229, Note_off_c, 9, 42, 64
1, 25229, Note_off_c, 5, 71, 64
1, 25229, Note_off_c, 9, 35, 64
1, 25230, Note_on_c, 5, 62, 80
1, 25230, Note_on_c, 5, 74, 80
1, 25230, Note_on_c, 6, 74, 120
1, 25230, Note_on_c, 11, 74, 120
1, 25259, Note_off_c, 11, 74, 64
1, 25259, Note_off_c, 4, 43, 64
1, 25259, Note_off_c, 0, 59, 64
1, 25259, Note_off_c, 0, 55, 64
1, 25259, Note_off_c, 4, 50, 64
1, 25259, Note_off_c, 5, 62, 64
1, 25259, Note_off_c, 0, 62, 64
1, 25259, Note_off_c, 6, 74, 64
1, 25259, Note_off_c, 5, 74, 64
1, 25260, Note_on_c, 0, 59, 70
1, 25260, Note_on_c, 0, 62, 94
1, 25260, Note_on_c, 0, 67, 101
1, 25260, Control_c, 1, 11, 127
1, 25260, Control_c, 2, 11, 127
1, 25260, Note_on_c, 4, 50, 79
1, 25260, Note_on_c, 4, 55, 111
1, 25260, Note_on_c, 4, 59, 100
1, 25260, Note_on_c, 5, 59, 113
1, 25260, Note_on_c, 5, 71, 113
1, 25260, Note_on_c, 6, 71, 120
1, 25260, Note_on_c, 9, 46, 120
1, 25260, Note_on_c, 9, 73, 119
1, 25260, Note_on_c, 11, 71, 120
1, 25289, Note_off_c, 9, 73, 64
1, 25289, Note_off_c, 9, 46, 64
1, 25319, Note_off_c, 5, 71, 64
1, 25319, Note_off_c, 11, 71, 64
1, 25319, Note_off_c, 1, 31, 64
1, 25319, Note_off_c, 5, 59, 64
1, 25319, Note_off_c, 6, 71, 64
1, 25320, Control_c, 1, 11, 64
1, 25320, Note_on_c, 1, 31, 120
1, 25320, Control_c, 2, 11, 80
1, 25320, Note_on_c, 9, 35, 120
1, 25320, Note_on_c, 9, 42, 120
1, 25349, Note_off_c, 9, 42, 64
1, 25349, Note_off_c, 0, 67, 64
1, 25349, Note_off_c, 4, 59, 64
1, 25349, Note_off_c, 0, 62, 64
1, 25349, Note_off_c, 0, 59, 64
1, 25349, Note_off_c, 4, 50, 64
1, 25349, Note_off_c, 9, 35, 64
1, 25349, Note_off_c, 4, 55, 64
1, 25350, Note_on_c, 0, 59, 52
1, 25350, Note_on_c, 0, 62, 85
1, 25350, Note_on_c, 0, 67, 94
1, 25350, Note_on_c, 4, 50, 82
1, 25350, Note_on_c, 4, 55, 98
1, 25350, Note_on_c, 4, 59, 85
1, 25350, Note_on_c, 5, 57, 98
1, 25350, Note_on_c, 5, 69, 98
1, 25350, Note_on_c, 6, 69, 120
1, 25350, Note_on_c, 11, 69, 120
1, 25379, Note_off_c, 11, 69, 64
1, 25379, Note_off_c, 0, 59, 64
1, 25379, Note_off_c, 0, 62, 64
1, 25379, Note_off_c, 4, 59, 64
1, 25379, Note_off_c, 4, 50, 64
1, 25379, Note_off_c, 0, 67, 64
1, 25379, Note_off_c, 4, 55, 64
1, 25379, Note_off_c, 6, 69, 64
1, 25379, Note_off_c, 5, 69, 64
1, 25379, Note_off_c, 5, 57, 64
1, 25380, Note_on_c, 0, 62, 78
1, 25380, Note_on_c, 0, 67, 100
1, 25380, Note_on_c, 0, 71, 46
1, 25380, Control_c, 1, 11, 127
1, 25380, Control_c, 2, 11, 127
1, 25380, Note_on_c, 4, 43, 109
1, 25380, Note_on_c, 4, 50, 109
1, 25380, Note_on_c, 5, 59, 101
1, 25380, Note_on_c, 5, 71, 101
1, 25380, Note_on_c, 6, 71, 120
1, 25380, Note_on_c, 9, 46, 120
1, 25380, Note_on_c, 9, 73, 115
1, 25380, Note_on_c, 11, 71, 120
1, 25409, Note_off_c, 11, 71, 64
1, 25409, Note_off_c, 6, 71, 64
1, 25409, Note_off_c, 0, 62, 64
1, 25409, Note_off_c, 0, 67, 64
1, 25409, Note_off_c, 5, 59, 64
1, 25409, Note_off_c, 4, 43, 64
1, 25409, Note_off_c, 0, 71, 64
1, 25409, Note_off_c, 4, 50, 64
1, 25409, Note_off_c, 9, 73, 64
1, 25409, Note_off_c, 9, 46, 64
1, 25409, Note_off_c, 5, 71, 64
1, 25410, Note_on_c, 0, 59, 45
1, 25410, Note_on_c, 0, 62, 73
1, 25410, Note_on_c, 0, 67, 86
1, 25410, Note_on_c, 4, 43, 101
1, 25410, Note_on_c, 4, 52, 116
1, 25410, Note_on_c, 5, 57, 91
1, 25410, Note_on_c, 5, 69, 91
1, 25410, Note_on_c, 6, 69, 120
1, 25410, Note_on_c, 11, 69, 120
1, 25439, Note_off_c, 11, 69, 64
1, 25439, Note_off_c, 0, 62, 64
1, 25439, Note_off_c, 2, 62, 64
1, 25439, Note_off_c, 4, 43, 64
1, 25439, Note_off_c, 2, 59, 64
1, 25439, Note_off_c, 2, 67, 64
1, 25439, Note_off_c, 1, 31, 64
1, 25439, Note_off_c, 0, 59, 64
1, 25439, Note_off_c, 5, 69, 64
1, 25439, Note_off_c, 4, 52, 64
1, 25439, Note_off_c, 0, 67, 64
1, 25439, Note_off_c, 6, 69, 64
1, 25439, Note_off_c, 5, 57, 64
1, 25440, Note_on_c, 0, 54, 35
1, 25440, Note_on_c, 0, 57, 85
1, 25440, Note_on_c, 0, 62, 79
1, 25440, Control_c, 1, 11, 64
1, 25440, Control_c, 2, 74, 65
1, 25440, Control_c, 2, 11, 64
1, 25440, Note_on_c, 2, 57, 120
1, 25440, Note_on_c, 2, 62, 120
1, 25440, Note_on_c, 2, 66, 120
1, 25440, Note_on_c, 4, 45, 90
1, 25440, Note_on_c, 4, 50, 105
1, 25440, Note_on_c, 5, 62, 105
1, 25440, Note_on_c, 5, 74, 105
1, 25440, Note_on_c, 6, 74, 120
1, 25440, Note_on_c, 8, 50, 120
1, 25440, Note_on_c, 8, 62, 120
1, 25440, Note_on_c, 9, 42, 120
1, 25440, Note_on_c, 11, 74, 120
1, 25469, Note_off_c, 9, 42, 64
1, 25470, Control_c, 2, 74, 70
1, 25485, Control_c, 2, 74, 74
1, 25499, Note_off_c, 0, 62, 64
1, 25499, Note_off_c, 0, 57, 64
1, 25499, Note_off_c, 5, 74, 64
1, 25499, Note_off_c, 4, 45, 64
1, 25499, Note_off_c, 4, 50, 64
1, 25499, Note_off_c, 0, 54, 64
1, 25499, Note_off_c, 5, 62, 64
1, 25499, Note_off_c, 11, 74, 64
1, 25499, Note_off_c, 6, 74, 64
1, 25500, Note_on_c, 0, 57, 69
1, 25500, Note_on_c, 0, 62, 98
1, 25500, Note_on_c, 0, 66, 74
1, 25500, Control_c, 1, 11, 127
1, 25500, Control_c, 2, 74, 78
1, 25500, Control_c, 2, 11, 127
1, 25500, Note_on_c, 4, 45, 100
1, 25500, Note_on_c, 4, 50, 111
1, 25500, Note_on_c, 4, 54, 89
1, 25500, Note_on_c, 9, 46, 120
1, 25500, Note_on_c, 9, 73, 119
1, 25515, Control_c, 2, 74, 83
1, 25529, Note_off_c, 9, 73, 64
1, 25529, Note_off_c, 9, 46, 64
1, 25530, Control_c, 2, 74, 87
1, 25545, Control_c, 2, 74, 91
1, 25545, Control_c, 12, 11, 95
1, 25560, Control_c, 1, 11, 64
1, 25560, Control_c, 2, 74, 96
1, 25560, Control_c, 2, 11, 73
1, 25560, Note_on_c, 5, 62, 119
1, 25560, Note_on_c, 5, 74, 119
1, 25560, Note_on_c, 6, 74, 120
1, 25560, Note_on_c, 9, 42, 120
1, 25560, Note_on_c, 11, 74, 120
1, 25560, Note_on_c, 12, 72, 120
1, 25575, Control_c, 2, 74, 100
1, 25575, Control_c, 12, 74, 123
1, 25589, Note_off_c, 9, 42, 64
1, 25589, Note_off_c, 0, 62, 64
1, 25589, Note_off_c, 4, 45, 64
1, 25589, Note_off_c, 0, 66, 64
1, 25589, Note_off_c, 4, 50, 64
1, 25589, Note_off_c, 4, 54, 64
1, 25589, Note_off_c, 0, 57, 64
1, 25590, Note_on_c, 0, 54, 44
1, 25590, Note_on_c, 0, 57, 78
1, 25590, Note_on_c, 0, 62, 58
1, 25590, Control_c, 2, 74, 105
1, 25590, Note_on_c, 4, 45, 85
1, 25590, Note_on_c, 4, 50, 105
1, 25590, Note_on_c, 4, 54, 81
1, 25590, Control_c, 12, 74, 120
1, 25605, Control_c, 2, 74, 109
1, 25605, Control_c, 12, 74, 117
1, 25619, Note_off_c, 4, 54, 64
1, 25619, Note_off_c, 4, 50, 64
1, 25619, Note_off_c, 0, 57, 64
1, 25619, Note_off_c, 5, 74, 64
1, 25619, Note_off_c, 5, 62, 64
1, 25619, Note_off_c, 6, 74, 64
1, 25619, Note_off_c, 11, 74, 64
1, 25619, Note_off_c, 4, 45, 64
1, 25619, Note_off_c, 0, 54, 64
1, 25619, Note_off_c, 0, 62, 64
1, 25620, Note_on_c, 0, 57, 57
1, 25620, Note_on_c, 0, 62, 91
1, 25620, Note_on_c, 0, 66, 77
1, 25620, Control_c, 1, 11, 127
1, 25620, Control_c, 2, 74, 113
1, 25620, Control_c, 2, 11, 127
1, 25620, Note_on_c, 4, 50, 109
1, 25620, Note_on_c, 4, 54, 89
1, 25620, Note_on_c, 4, 57, 109
1, 25620, Note_on_c, 9, 46, 120
1, 25620, Note_on_c, 9, 73, 119
1, 25620, Control_c, 12, 74, 114
1, 25635, Control_c, 2, 74, 118
1, 25635, Control_c, 12, 74, 111
1, 25649, Note_off_c, 9, 73, 64
1, 25649, Note_off_c, 4, 50, 64
1, 25649, Note_off_c, 0, 57, 64
1, 25649, Note_off_c, 0, 66, 64
1, 25649, Note_off_c, 0, 62, 64
1, 25649, Note_off_c, 9, 46, 64
1, 25649, Note_off_c, 4, 54, 64
1, 25649, Note_off_c, 4, 57, 64
1, 25650, Note_on_c, 0, 54, 35
1, 25650, Note_on_c, 0, 57, 79
1, 25650, Note_on_c, 0, 62, 56
1, 25650, Control_c, 2, 74, 122
1, 25650, Note_on_c, 4, 50, 111
1, 25650, Note_on_c, 4, 54, 100
1, 25650, Note_on_c, 4, 57, 100
1, 25650, Note_on_c, 5, 62, 103
1, 25650, Note_on_c, 5, 74, 103
1, 25650, Note_on_c, 6, 74, 120
1, 25650, Note_on_c, 11, 74, 120
1, 25650, Control_c, 12, 74, 107
1, 25665, Control_c, 2, 74, 127
1, 25665, Control_c, 12, 74, 104
1, 25679, Note_off_c, 11, 74, 64
1, 25679, Note_off_c, 6, 74, 64
1, 25679, Note_off_c, 4, 57, 64
1, 25679, Note_off_c, 4, 50, 64
1, 25679, Note_off_c, 0, 54, 64
1, 25679, Note_off_c, 0, 62, 64
1, 25679, Note_off_c, 0, 57, 64
1, 25679, Note_off_c, 5, 74, 64
1, 25679, Note_off_c, 4, 54, 64
1, 25679, Note_off_c, 5, 62, 64
1, 25680, Note_on_c, 0, 54, 49
1, 25680, Note_on_c, 0, 57, 85
1, 25680, Note_on_c, 0, 62, 75
1, 25680, Control_c, 1, 11, 64
1, 25680, Control_c, 2, 11, 71
1, 25680, Note_on_c, 4, 45, 105
1, 25680, Note_on_c, 4, 50, 116
1, 25680, Note_on_c, 5, 64, 95
1, 25680, Note_on_c, 5, 76, 95
1, 25680, Note_on_c, 6, 76, 120
1, 25680, Note_on_c, 9, 42, 120
1, 25680, Note_on_c, 10, 72, 120
1, 25680, Note_on_c, 11, 76, 120
1, 25680, Control_c, 12, 74, 101
1, 25695, Control_c, 12, 74, 98
1, 25709, Note_off_c, 11, 76, 64
1, 25709, Note_off_c, 9, 42, 64
1, 25709, Note_off_c, 6, 76, 64
1, 25709, Note_off_c, 5, 76, 64
1, 25709, Note_off_c, 5, 64, 64
1, 25710, Note_on_c, 5, 62, 86
1, 25710, Note_on_c, 5, 74, 86
1, 25710, Note_on_c, 6, 74, 120
1, 25710, Note_on_c, 11, 74, 120
1, 25710, Control_c, 12, 74, 95
1, 25725, Control_c, 12, 74, 92
1, 25739, Note_off_c, 11, 74, 64
1, 25739, Note_off_c, 6, 74, 64
1, 25739, Note_off_c, 4, 45, 64
1, 25739, Note_off_c, 0, 54, 64
1, 25739, Note_off_c, 0, 62, 64
1, 25739, Note_off_c, 0, 57, 64
1, 25739, Note_off_c, 5, 74, 64
1, 25739, Note_off_c, 4, 50, 64
1, 25739, Note_off_c, 5, 62, 64
1, 25740, Note_on_c, 0, 57, 56
1, 25740, Note_on_c, 0, 62, 84
1, 25740, Note_on_c, 0, 66, 49
1, 25740, Control_c, 1, 11, 127
1, 25740, Control_c, 2, 11, 127
1, 25740, Note_on_c, 4, 50, 105
1, 25740, Note_on_c, 4, 54, 115
1, 25740, Note_on_c, 5, 64, 98
1, 25740, Note_on_c, 5, 76, 98
1, 25740, Note_on_c, 6, 76, 120
1, 25740, Note_on_c, 9, 46, 120
1, 25740, Note_on_c, 9, 73, 119
1, 25740, Note_on_c, 11, 76, 120
1, 25740, Control_c, 12, 74, 88
1, 25755, Control_c, 2, 74, 121
1, 25755, Control_c, 12, 74, 85
1, 25769, Note_off_c, 9, 73, 64
1, 25769, Note_off_c, 9, 46, 64
1, 25769, Note_off_c, 4, 54, 64
1, 25769, Note_off_c, 0, 66, 64
1, 25769, Note_off_c, 0, 62, 64
1, 25769, Note_off_c, 0, 57, 64
1, 25769, Note_off_c, 4, 50, 64
1, 25770, Note_on_c, 0, 57, 84
1, 25770, Note_on_c, 0, 62, 94
1, 25770, Note_on_c, 0, 66, 76
1, 25770, Control_c, 2, 74, 116
1, 25770, Note_on_c, 4, 50, 100
1, 25770, Note_on_c, 4, 54, 92
1, 25770, Control_c, 12, 74, 82
1, 25785, Control_c, 2, 74, 111
1, 25785, Control_c, 12, 74, 79
1, 25790, Pitch_bend_c, 5, 8071
1, 25795, Pitch_bend_c, 5, 6296
1, 25798, Pitch_bend_c, 5, 4197
1, 25799, Note_off_c, 4, 54, 64
1, 25799, Note_off_c, 4, 50, 64
1, 25799, Note_off_c, 0, 57, 64
1, 25799, Note_off_c, 6, 76, 64
1, 25799, Note_off_c, 2, 57, 64
1, 25799, Note_off_c, 5, 64, 64
1, 25799, Note_off_c, 2, 66, 64
1, 25799, Note_off_c, 11, 76, 64
1, 25799, Note_off_c, 5, 76, 64
1, 25799, Note_off_c, 0, 66, 64
1, 25799, Note_off_c, 0, 62, 64
1, 25799, Note_off_c, 2, 62, 64
1, 25800, Note_on_c, 0, 52, 47
1, 25800, Note_on_c, 0, 57, 89
1, 25800, Note_on_c, 0, 61, 52
1, 25800, Control_c, 1, 11, 64
1, 25800, Control_c, 2, 74, 106
1, 25800, Control_c, 2, 11, 80
1, 25800, Note_on_c, 2, 57, 120
1, 25800, Note_on_c, 2, 62, 120
1, 25800, Note_on_c, 2, 66, 120
1, 25800, Note_on_c, 4, 45, 101
1, 25800, Note_on_c, 4, 52, 101
1, 25800, Note_on_c, 5, 66, 119
1, 25800, Note_on_c, 5, 78, 119
1, 25800, Pitch_bend_c, 5, 1776
1, 25800, Note_on_c, 6, 78, 120
1, 25800, Note_on_c, 9, 42, 120
1, 25800, Note_on_c, 9, 57, 111
1, 25800, Note_on_c, 11, 78, 120
1, 25800, Control_c, 12, 74, 76
1, 25803, Pitch_bend_c, 5, 0
1, 25815, Control_c, 2, 74, 100
1, 25815, Control_c, 12, 74, 73
1, 25820, Pitch_bend_c, 5, 646
1, 25823, Pitch_bend_c, 5, 2422
1, 25825, Pitch_bend_c, 5, 4520
1, 25828, Pitch_bend_c, 5, 6942
1, 25829, Note_off_c, 9, 42, 64
1, 25830, Control_c, 2, 74, 95
1, 25830, Pitch_bend_c, 5, 8192
1, 25830, Control_c, 12, 74, 69
1, 25845, Control_c, 2, 74, 90
1, 25845, Control_c, 12, 74, 66
1, 25859, Note_off_c, 11, 78, 64
1, 25859, Note_off_c, 6, 78, 64
1, 25859, Note_off_c, 0, 61, 64
1, 25859, Note_off_c, 4, 52, 64
1, 25859, Note_off_c, 0, 52, 64
1, 25859, Note_off_c, 0, 57, 64
1, 25859, Note_off_c, 5, 78, 64
1, 25859, Note_off_c, 4, 45, 64
1, 25859, Note_off_c, 5, 66, 64
1, 25860, Note_on_c, 0, 57, 51
1, 25860, Note_on_c, 0, 61, 52
1, 25860, Note_on_c, 0, 64, 78
1, 25860, Control_c, 1, 11, 127
1, 25860, Control_c, 2, 74, 85
1, 25860, Control_c, 2, 11, 127
1, 25860, Note_on_c, 4, 49, 89
1, 25860, Note_on_c, 4, 52, 101
1, 25860, Note_on_c, 4, 57, 89
1, 25860, Note_on_c, 5, 62, 111
1, 25860, Note_on_c, 5, 74, 111
1, 25860, Note_on_c, 6, 74, 120
1, 25860, Note_on_c, 9, 46, 120
1, 25860, Note_on_c, 9, 73, 115
1, 25860, Note_on_c, 11, 74, 120
1, 25860, Control_c, 12, 74, 63
1, 25875, Control_c, 2, 74, 79
1, 25875, Control_c, 12, 74, 60
1, 25889, Note_off_c, 9, 73, 64
1, 25889, Note_off_c, 9, 46, 64
1, 25889, Note_off_c, 4, 57, 64
1, 25889, Note_off_c, 0, 61, 64
1, 25889, Note_off_c, 0, 57, 64
1, 25889, Note_off_c, 4, 52, 64
1, 25889, Note_off_c, 0, 64, 64
1, 25889, Note_off_c, 4, 49, 64
1, 25890, Note_on_c, 0, 57, 73
1, 25890, Note_on_c, 0, 61, 52
1, 25890, Note_on_c, 0, 64, 83
1, 25890, Control_c, 2, 74, 74
1, 25890, Note_on_c, 4, 49, 119
1, 25890, Note_on_c, 4, 52, 118
1, 25890, Note_on_c, 4, 57, 105
1, 25890, Control_c, 12, 74, 57
1, 25905, Control_c, 2, 74, 69
1, 25919, Note_off_c, 4, 57, 64
1, 25919, Note_off_c, 2, 66, 64
1, 25919, Note_off_c, 6, 74, 64
1, 25919, Note_off_c, 5, 74, 64
1, 25919, Note_off_c, 10, 72, 64
1, 25919, Note_off_c, 5, 62, 64
1, 25919, Note_off_c, 8, 50, 64
1, 25919, Note_off_c, 4, 52, 64
1, 25919, Note_off_c, 2, 57, 64
1, 25919, Note_off_c, 4, 49, 64
1, 25919, Note_off_c, 8, 62, 64
1, 25919, Note_off_c, 0, 64, 64
1, 25919, Note_off_c, 0, 57, 64
1, 25919, Note_off_c, 2, 62, 64
1, 25919, Note_off_c, 11, 74, 64
1, 25919, Note_off_c, 0, 61, 64
1, 25920, Note_off_c, 12, 72, 64
1, 25920, Note_on_c, 0, 59, 58
1, 25920, Note_on_c, 0, 62, 91
1, 25920, Control_c, 1, 11, 64
1, 25920, Note_on_c, 1, 35, 120
1, 25920, Control_c, 2, 74, 64
1, 25920, Control_c, 2, 11, 64
1, 25920, Note_on_c, 2, 59, 120
1, 25920, Note_on_c, 2, 62, 120
1, 25920, Note_on_c, 2, 66, 120
1, 25920, Note_on_c, 4, 47, 85
1, 25920, Note_on_c, 4, 54, 120
1, 25920, Note_on_c, 5, 59, 120
1, 25920, Note_on_c, 5, 71, 120
1, 25920, Note_on_c, 6, 71, 120
1, 25920, Note_on_c, 9, 35, 120
1, 25920, Note_on_c, 9, 42, 120
1, 25920, Note_on_c, 9, 49, 111
1, 25920, Note_on_c, 9, 59, 120
1, 25920, Note_on_c, 11, 71, 120
1, 25920, Control_c, 12, 74, 127
1, 25920, Control_c, 12, 11, 32
1, 25949, Note_off_c, 9, 59, 64
1, 25949, Note_off_c, 9, 42, 64
1, 25949, Note_off_c, 9, 35, 64
1, 25979, Note_off_c, 0, 62, 64
1, 25979, Note_off_c, 11, 71, 64
1, 25979, Note_off_c, 5, 59, 64
1, 25979, Note_off_c, 4, 54, 64
1, 25979, Note_off_c, 4, 47, 64
1, 25979, Note_off_c, 5, 71, 64
1, 25979, Note_off_c, 0, 59, 64
1, 25979, Note_off_c, 6, 71, 64
1, 25980, Note_on_c, 0, 59, 79
1, 25980, Note_on_c, 0, 62, 95
1, 25980, Note_on_c, 0, 66, 74
1, 25980, Control_c, 1, 11, 127
1, 25980, Control_c, 2, 11, 127
1, 25980, Note_on_c, 4, 50, 92
1, 25980, Note_on_c, 4, 54, 87
1, 25980, Note_on_c, 4, 62, 95
1, 25980, Note_on_c, 9, 46, 120
1, 25980, Note_on_c, 9, 73, 119
1, 26009, Note_off_c, 9, 73, 64
1, 26009, Note_off_c, 9, 46, 64
1, 26039, Note_off_c, 9, 57, 64
1, 26039, Note_off_c, 1, 35, 64
1, 26040, Control_c, 1, 11, 64
1, 26040, Note_on_c, 1, 35, 120
1, 26040, Control_c, 2, 11, 73
1, 26040, Note_on_c, 5, 59, 120
1, 26040, Note_on_c, 5, 71, 120
1, 26040, Note_on_c, 6, 71, 120
1, 26040, Note_on_c, 9, 35, 120
1, 26040, Note_on_c, 9, 42, 120
1, 26040, Note_on_c, 9, 59, 116
1, 26040, Note_on_c, 11, 71, 120
1, 26069, Note_off_c, 9, 59, 64
1, 26069, Note_off_c, 9, 42, 64
1, 26069, Note_off_c, 9, 35, 64
1, 26069, Note_off_c, 0, 59, 64
1, 26069, Note_off_c, 0, 66, 64
1, 26069, Note_off_c, 0, 62, 64
1, 26069, Note_off_c, 4, 54, 64
1, 26069, Note_off_c, 4, 50, 64
1, 26069, Note_off_c, 4, 62, 64
1, 26070, Note_on_c, 0, 59, 71
1, 26070, Note_on_c, 0, 62, 91
1, 26070, Note_on_c, 0, 66, 60
1, 26070, Note_on_c, 4, 54, 109
1, 26070, Note_on_c, 4, 59, 95
1, 26099, Note_off_c, 4, 59, 64
1, 26099, Note_off_c, 0, 59, 64
1, 26099, Note_off_c, 5, 71, 64
1, 26099, Note_off_c, 11, 71, 64
1, 26099, Note_off_c, 5, 59, 64
1, 26099, Note_off_c, 6, 71, 64
1, 26099, Note_off_c, 4, 54, 64
1, 26099, Note_off_c, 0, 62, 64
1, 26099, Note_off_c, 0, 66, 64
1, 26100, Note_on_c, 0, 62, 80
1, 26100, Note_on_c, 0, 66, 62
1, 26100, Note_on_c, 0, 71, 91
1, 26100, Control_c, 1, 11, 127
1, 26100, Control_c, 2, 11, 127
1, 26100, Note_on_c, 4, 50, 103
1, 26100, Note_on_c, 4, 54, 115
1, 26100, Note_on_c, 9, 46, 119
1, 26100, Note_on_c, 9, 73, 119
1, 26129, Note_off_c, 9, 73, 64
1, 26129, Note_off_c, 4, 54, 64
1, 26129, Note_off_c, 0, 71, 64
1, 26129, Note_off_c, 0, 66, 64
1, 26129, Note_off_c, 4, 50, 64
1, 26129, Note_off_c, 9, 46, 64
1, 26129, Note_off_c, 0, 62, 64
1, 26130, Note_on_c, 0, 59, 51
1, 26130, Note_on_c, 0, 62, 85
1, 26130, Note_on_c, 0, 66, 59
1, 26130, Note_on_c, 4, 47, 92
1, 26130, Note_on_c, 4, 52, 98
1, 26130, Note_on_c, 5, 57, 98
1, 26130, Note_on_c, 5, 69, 98
1, 26130, Note_on_c, 6, 69, 120
1, 26130, Note_on_c, 11, 69, 120
1, 26159, Note_off_c, 11, 69, 64
1, 26159, Note_off_c, 2, 59, 64
1, 26159, Note_off_c, 0, 59, 64
1, 26159, Note_off_c, 2, 62, 64
1, 26159, Note_off_c, 0, 66, 64
1, 26159, Note_off_c, 1, 35, 64
1, 26159, Note_off_c, 9, 49, 64
1, 26159, Note_off_c, 2, 66, 64
1, 26159, Note_off_c, 5, 69, 64
1, 26159, Note_off_c, 5, 57, 64
1, 26159, Note_off_c, 4, 47, 64
1, 26159, Note_off_c, 0, 62, 64
1, 26159, Note_off_c, 6, 69, 64
1, 26159, Note_off_c, 4, 52, 64
1, 26160, Note_on_c, 0, 55, 74
1, 26160, Note_on_c, 0, 59, 94
1, 26160, Note_on_c, 0, 62, 91
1, 26160, Control_c, 1, 11, 64
1, 26160, Note_on_c, 1, 31, 120
1, 26160, Control_c, 2, 11, 71
1, 26160, Note_on_c, 2, 59, 120
1, 26160, Note_on_c, 2, 62, 120
1, 26160, Note_on_c, 2, 67, 120
1, 26160, Note_on_c, 4, 43, 98
1, 26160, Note_on_c, 4, 50, 116
1, 26160, Note_on_c, 5, 59, 98
1, 26160, Note_on_c, 5, 71, 98
1, 26160, Note_on_c, 6, 71, 120
1, 26160, Note_on_c, 9, 35, 120
1, 26160, Note_on_c, 9, 42, 120
1, 26160, Note_on_c, 9, 59, 118
1, 26160, Note_on_c, 11, 71, 120
1, 26189, Note_off_c, 11, 71, 64
1, 26189, Note_off_c, 9, 59, 64
1, 26189, Note_off_c, 6, 71, 64
1, 26189, Note_off_c, 5, 59, 64
1, 26189, Note_off_c, 9, 42, 64
1, 26189, Note_off_c, 5, 71, 64
1, 26189, Note_off_c, 9, 35, 64
1, 26190, Note_on_c, 5, 62, 54
1, 26190, Note_on_c, 5, 74, 54
1, 26190, Note_on_c, 6, 74, 120
1, 26190, Note_on_c, 11, 74, 120
1, 26219, Note_off_c, 11, 74, 64
1, 26219, Note_off_c, 4, 43, 64
1, 26219, Note_off_c, 0, 59, 64
1, 26219, Note_off_c, 0, 55, 64
1, 26219, Note_off_c, 4, 50, 64
1, 26219, Note_off_c, 5, 62, 64
1, 26219, Note_off_c, 0, 62, 64
1, 26219, Note_off_c, 6, 74, 64
1, 26219, Note_off_c, 5, 74, 64
1, 26220, Note_on_c, 0, 59, 70
1, 26220, Note_on_c, 0, 62, 94
1, 26220, Note_on_c, 0, 67, 101
1, 26220, Control_c, 1, 11, 127
1, 26220, Control_c, 2, 11, 127
1, 26220, Note_on_c, 4, 50, 79
1, 26220, Note_on_c, 4, 55, 111
1, 26220, Note_on_c, 4, 59, 100
1, 26220, Note_on_c, 5, 59, 116
1, 26220, Note_on_c, 5, 71, 116
1, 26220, Note_on_c, 6, 71, 120
1, 26220, Note_on_c, 9, 46, 120
1, 26220, Note_on_c, 9, 73, 109
1, 26220, Note_on_c, 11, 71, 120
1, 26249, Note_off_c, 9, 73, 64
1, 26249, Note_off_c, 9, 46, 64
1, 26279, Note_off_c, 5, 71, 64
1, 26279, Note_off_c, 11, 71, 64
1, 26279, Note_off_c, 1, 31, 64
1, 26279, Note_off_c, 5, 59, 64
1, 26279, Note_off_c, 6, 71, 64
1, 26280, Control_c, 1, 11, 64
1, 26280, Note_on_c, 1, 31, 120
1, 26280, Control_c, 2, 11, 80
1, 26280, Note_on_c, 9, 35, 120
1, 26280, Note_on_c, 9, 42, 120
1, 26280, Note_on_c, 9, 59, 116
1, 26309, Note_off_c, 9, 59, 64
1, 26309, Note_off_c, 4, 55, 64
1, 26309, Note_off_c, 0, 67, 64
1, 26309, Note_off_c, 4, 59, 64
1, 26309, Note_off_c, 0, 62, 64
1, 26309, Note_off_c, 0, 59, 64
1, 26309, Note_off_c, 4, 50, 64
1, 26309, Note_off_c, 9, 42, 64
1, 26309, Note_off_c, 9, 35, 64
1, 26310, Note_on_c, 0, 59, 52
1, 26310, Note_on_c, 0, 62, 85
1, 26310, Note_on_c, 0, 67, 94
1, 26310, Note_on_c, 4, 50, 82
1, 26310, Note_on_c, 4, 55, 98
1, 26310, Note_on_c, 4, 59, 85
1, 26310, Note_on_c, 5, 57, 83
1, 26310, Note_on_c, 5, 69, 83
1, 26310, Note_on_c, 6, 69, 120
1, 26310, Note_on_c, 11, 69, 120
1, 26339, Note_off_c, 11, 69, 64
1, 26339, Note_off_c, 0, 59, 64
1, 26339, Note_off_c, 0, 62, 64
1, 26339, Note_off_c, 4, 59, 64
1, 26339, Note_off_c, 4, 50, 64
1, 26339, Note_off_c, 0, 67, 64
1, 26339, Note_off_c, 4, 55, 64
1, 26339, Note_off_c, 6, 69, 64
1, 26339, Note_off_c, 5, 69, 64
1, 26339, Note_off_c, 5, 57, 64
1, 26340, Note_on_c, 0, 62, 78
1, 26340, Note_on_c, 0, 67, 100
1, 26340, Note_on_c, 0, 71, 46
1, 26340, Control_c, 1, 11, 127
1, 26340, Control_c, 2, 11, 127
1, 26340, Note_on_c, 4, 43, 109
1, 26340, Note_on_c, 4, 50, 109
1, 26340, Note_on_c, 5, 59, 98
1, 26340, Note_on_c, 5, 71, 98
1, 26340, Note_on_c, 6, 71, 120
1, 26340, Note_on_c, 9, 46, 120
1, 26340, Note_on_c, 9, 73, 115
1, 26340, Note_on_c, 11, 71, 120
1, 26369, Note_off_c, 11, 71, 64
1, 26369, Note_off_c, 6, 71, 64
1, 26369, Note_off_c, 0, 62, 64
1, 26369, Note_off_c, 0, 67, 64
1, 26369, Note_off_c, 5, 59, 64
1, 26369, Note_off_c, 4, 43, 64
1, 26369, Note_off_c, 0, 71, 64
1, 26369, Note_off_c, 4, 50, 64
1, 26369, Note_off_c, 9, 73, 64
1, 26369, Note_off_c, 9, 46, 64
1, 26369, Note_off_c, 5, 71, 64
1, 26370, Note_on_c, 0, 59, 45
1, 26370, Note_on_c, 0, 62, 73
1, 26370, Note_on_c, 0, 67, 86
1, 26370, Note_on_c, 4, 43, 101
1, 26370, Note_on_c, 4, 52, 116
1, 26370, Note_on_c, 5, 57, 94
1, 26370, Note_on_c, 5, 69, 94
1, 26370, Note_on_c, 6, 69, 120
1, 26370, Note_on_c, 11, 69, 120
1, 26399, Note_off_c, 11, 69, 64
1, 26399, Note_off_c, 0, 62, 64
1, 26399, Note_off_c, 2, 62, 64
1, 26399, Note_off_c, 4, 43, 64
1, 26399, Note_off_c, 2, 59, 64
1, 26399, Note_off_c, 2, 67, 64
1, 26399, Note_off_c, 1, 31, 64
1, 26399, Note_off_c, 0, 59, 64
1, 26399, Note_off_c, 5, 69, 64
1, 26399, Note_off_c, 4, 52, 64
1, 26399, Note_off_c, 0, 67, 64
1, 26399, Note_off_c, 6, 69, 64
1, 26399, Note_off_c, 5, 57, 64
1, 26400, Note_on_c, 0, 54, 35
1, 26400, Note_on_c, 0, 57, 85
1, 26400, Note_on_c, 0, 62, 79
1, 26400, Control_c, 1, 11, 64
1, 26400, Note_on_c, 1, 38, 120
1, 26400, Control_c, 2, 11, 64
1, 26400, Note_on_c, 2, 57, 120
1, 26400, Note_on_c, 2, 62, 120
1, 26400, Note_on_c, 2, 66, 120
1, 26400, Note_on_c, 4, 45, 90
1, 26400, Note_on_c, 4, 50, 105
1, 26400, Note_on_c, 5, 62, 120
1, 26400, Note_on_c, 5, 74, 120
1, 26400, Note_on_c, 6, 74, 120
1, 26400, Note_on_c, 9, 35, 120
1, 26400, Note_on_c, 9, 42, 120
1, 26400, Note_on_c, 9, 59, 116
1, 26400, Note_on_c, 11, 74, 120
1, 26429, Note_off_c, 9, 59, 64
1, 26429, Note_off_c, 9, 42, 64
1, 26429, Note_off_c, 9, 35, 64
1, 26459, Note_off_c, 11, 74, 64
1, 26459, Note_off_c, 5, 62, 64
1, 26459, Note_off_c, 0, 62, 64
1, 26459, Note_off_c, 4, 45, 64
1, 26459, Note_off_c, 0, 54, 64
1, 26459, Note_off_c, 4, 50, 64
1, 26459, Note_off_c, 5, 74, 64
1, 26459, Note_off_c, 6, 74, 64
1, 26459, Note_off_c, 0, 57, 64
1, 26460, Note_on_c, 0, 57, 69
1, 26460, Note_on_c, 0, 62, 98
1, 26460, Note_on_c, 0, 66, 74
1, 26460, Control_c, 1, 11, 127
1, 26460, Control_c, 2, 11, 127
1, 26460, Note_on_c, 4, 45, 100
1, 26460, Note_on_c, 4, 50, 111
1, 26460, Note_on_c, 4, 54, 89
1, 26460, Note_on_c, 9, 46, 120
1, 26460, Note_on_c, 9, 73, 109
1, 26489, Note_off_c, 9, 73, 64
1, 26489, Note_off_c, 9, 46, 64
1, 26519, Note_off_c, 1, 38, 64
1, 26520, Control_c, 1, 11, 64
1, 26520, Note_on_c, 1, 38, 120
1, 26520, Control_c, 2, 11, 73
1, 26520, Note_on_c, 5, 62, 120
1, 26520, Note_on_c, 5, 74, 120
1, 26520, Note_on_c, 6, 74, 120
1, 26520, Note_on_c, 9, 35, 120
1, 26520, Note_on_c, 9, 42, 120
1, 26520, Note_on_c, 9, 59, 116
1, 26520, Note_on_c, 11, 74, 120
1, 26549, Note_off_c, 9, 59, 64
1, 26549, Note_off_c, 9, 42, 64
1, 26549, Note_off_c, 4, 45, 64
1, 26549, Note_off_c, 0, 66, 64
1, 26549, Note_off_c, 0, 62, 64
1, 26549, Note_off_c, 0, 57, 64
1, 26549, Note_off_c, 4, 54, 64
1, 26549, Note_off_c, 9, 35, 64
1, 26549, Note_off_c, 4, 50, 64
1, 26550, Note_on_c, 0, 54, 44
1, 26550, Note_on_c, 0, 57, 78
1, 26550, Note_on_c, 0, 62, 58
1, 26550, Note_on_c, 4, 45, 85
1, 26550, Note_on_c, 4, 50, 105
1, 26550, Note_on_c, 4, 54, 81
1, 26579, Note_off_c, 4, 54, 64
1, 26579, Note_off_c, 5, 62, 64
1, 26579, Note_off_c, 6, 74, 64
1, 26579, Note_off_c, 0, 57, 64
1, 26579, Note_off_c, 11, 74, 64
1, 26579, Note_off_c, 5, 74, 64
1, 26579, Note_off_c, 0, 54, 64
1, 26579, Note_off_c, 4, 50, 64
1, 26579, Note_off_c, 4, 45, 64
1, 26579, Note_off_c, 0, 62, 64
1, 26580, Note_on_c, 0, 57, 57
1, 26580, Note_on_c, 0, 62, 91
1, 26580, Note_on_c, 0, 66, 77
1, 26580, Control_c, 1, 11, 127
1, 26580, Control_c, 2, 11, 127
1, 26580, Note_on_c, 4, 50, 109
1, 26580, Note_on_c, 4, 54, 89
1, 26580, Note_on_c, 4, 57, 109
1, 26580, Note_on_c, 9, 46, 120
1, 26580, Note_on_c, 9, 73, 119
1, 26609, Note_off_c, 9, 73, 64
1, 26609, Note_off_c, 4, 57, 64
1, 26609, Note_off_c, 4, 50, 64
1, 26609, Note_off_c, 0, 66, 64
1, 26609, Note_off_c, 4, 54, 64
1, 26609, Note_off_c, 9, 46, 64
1, 26609, Note_off_c, 0, 57, 64
1, 26609, Note_off_c, 0, 62, 64
1, 26610, Note_on_c, 0, 54, 35
1, 26610, Note_on_c, 0, 57, 79
1, 26610, Note_on_c, 0, 62, 56
1, 26610, Note_on_c, 4, 50, 111
1, 26610, Note_on_c, 4, 54, 100
1, 26610, Note_on_c, 4, 57, 100
1, 26610, Note_on_c, 5, 62, 89
1, 26610, Note_on_c, 5, 74, 89
1, 26610, Note_on_c, 6, 74, 120
1, 26610, Note_on_c, 11, 74, 120
1, 26639, Note_off_c, 11, 74, 64
1, 26639, Note_off_c, 0, 54, 64
1, 26639, Note_off_c, 0, 57, 64
1, 26639, Note_off_c, 4, 57, 64
1, 26639, Note_off_c, 4, 50, 64
1, 26639, Note_off_c, 0, 62, 64
1, 26639, Note_off_c, 1, 38, 64
1, 26639, Note_off_c, 4, 54, 64
1, 26639, Note_off_c, 5, 74, 64
1, 26639, Note_off_c, 5, 62, 64
1, 26639, Note_off_c, 6, 74, 64
1, 26640, Note_on_c, 0, 54, 49
1, 26640, Note_on_c, 0, 57, 85
1, 26640, Note_on_c, 0, 62, 75
1, 26640, Control_c, 1, 11, 64
1, 26640, Note_on_c, 1, 38, 120
1, 26640, Control_c, 2, 11, 71
1, 26640, Note_on_c, 4, 45, 105
1, 26640, Note_on_c, 4, 50, 116
1, 26640, Note_on_c, 5, 64, 81
1, 26640, Note_on_c, 5, 76, 81
1, 26640, Note_on_c, 6, 76, 120
1, 26640, Note_on_c, 9, 35, 120
1, 26640, Note_on_c, 9, 42, 120
1, 26640, Note_on_c, 9, 59, 118
1, 26640, Note_on_c, 11, 76, 120
1, 26669, Note_off_c, 11, 76, 64
1, 26669, Note_off_c, 9, 59, 64
1, 26669, Note_off_c, 6, 76, 64
1, 26669, Note_off_c, 5, 64, 64
1, 26669, Note_off_c, 9, 42, 64
1, 26669, Note_off_c, 5, 76, 64
1, 26669, Note_off_c, 9, 35, 64
1, 26670, Note_on_c, 5, 62, 95
1, 26670, Note_on_c, 5, 74, 95
1, 26670, Note_on_c, 6, 74, 120
1, 26670, Note_on_c, 11, 74, 120
1, 26699, Note_off_c, 11, 74, 64
1, 26699, Note_off_c, 4, 45, 64
1, 26699, Note_off_c, 0, 57, 64
1, 26699, Note_off_c, 0, 54, 64
1, 26699, Note_off_c, 4, 50, 64
1, 26699, Note_off_c, 5, 62, 64
1, 26699, Note_off_c, 0, 62, 64
1, 26699, Note_off_c, 6, 74, 64
1, 26699, Note_off_c, 5, 74, 64
1, 26700, Note_on_c, 0, 57, 56
1, 26700, Note_on_c, 0, 62, 84
1, 26700, Note_on_c, 0, 66, 49
1, 26700, Control_c, 1, 11, 127
1, 26700, Control_c, 2, 11, 127
1, 26700, Note_on_c, 4, 50, 105
1, 26700, Note_on_c, 4, 54, 115
1, 26700, Note_on_c, 5, 64, 111
1, 26700, Note_on_c, 5, 76, 111
1, 26700, Note_on_c, 6, 76, 120
1, 26700, Note_on_c, 9, 46, 120
1, 26700, Note_on_c, 9, 73, 115
1, 26700, Note_on_c, 11, 76, 120
1, 26729, Note_off_c, 9, 73, 64
1, 26729, Note_off_c, 4, 50, 64
1, 26729, Note_off_c, 0, 57, 64
1, 26729, Note_off_c, 0, 66, 64
1, 26729, Note_off_c, 9, 46, 64
1, 26729, Note_off_c, 0, 62, 64
1, 26729, Note_off_c, 4, 54, 64
1, 26730, Note_on_c, 0, 57, 84
1, 26730, Note_on_c, 0, 62, 94
1, 26730, Note_on_c, 0, 66, 76
1, 26730, Note_on_c, 4, 50, 100
1, 26730, Note_on_c, 4, 54, 92
1, 26751, Pitch_bend_c, 5, 7749
1, 26753, Pitch_bend_c, 5, 6215
1, 26756, Pitch_bend_c, 5, 4197
1, 26758, Pitch_bend_c, 5, 2422
1, 26759, Note_off_c, 4, 54, 64
1, 26759, Note_off_c, 2, 62, 64
1, 26759, Note_off_c, 2, 66, 64
1, 26759, Note_off_c, 1, 38, 64
1, 26759, Note_off_c, 5, 76, 64
1, 26759, Note_off_c, 11, 76, 64
1, 26759, Note_off_c, 2, 57, 64
1, 26759, Note_off_c, 5, 64, 64
1, 26759, Note_off_c, 0, 66, 64
1, 26759, Note_off_c, 0, 57, 64
1, 26759, Note_off_c, 6, 76, 64
1, 26759, Note_off_c, 4, 50, 64
1, 26759, Note_off_c, 0, 62, 64
1, 26760, Note_on_c, 0, 52, 47
1, 26760, Note_on_c, 0, 57, 89
1, 26760, Note_on_c, 0, 61, 52
1, 26760, Control_c, 1, 11, 64
1, 26760, Note_on_c, 1, 33, 120
1, 26760, Control_c, 2, 11, 80
1, 26760, Note_on_c, 2, 57, 120
1, 26760, Note_on_c, 2, 61, 120
1, 26760, Note_on_c, 2, 64, 120
1, 26760, Note_on_c, 4, 45, 101
1, 26760, Note_on_c, 4, 52, 101
1, 26760, Note_on_c, 5, 66, 119
1, 26760, Note_on_c, 5, 78, 119
1, 26760, Note_on_c, 6, 78, 120
1, 26760, Note_on_c, 9, 35, 120
1, 26760, Note_on_c, 9, 42, 120
1, 26760, Note_on_c, 9, 59, 119
1, 26760, Note_on_c, 11, 78, 120
1, 26761, Pitch_bend_c, 5, 1211
1, 26763, Pitch_bend_c, 5, 646
1, 26766, Pitch_bend_c, 5, 565
1, 26768, Pitch_bend_c, 5, 646
1, 26771, Pitch_bend_c, 5, 1373
1, 26773, Pitch_bend_c, 5, 2260
1, 26776, Pitch_bend_c, 5, 3471
1, 26778, Pitch_bend_c, 5, 5085
1, 26781, Pitch_bend_c, 5, 6942
1, 26783, Pitch_bend_c, 5, 8071
1, 26786, Pitch_bend_c, 5, 8192
1, 26789, Note_off_c, 9, 59, 64
1, 26789, Note_off_c, 9, 42, 64
1, 26789, Note_off_c, 9, 35, 64
1, 26819, Note_off_c, 11, 78, 64
1, 26819, Note_off_c, 5, 66, 64
1, 26819, Note_off_c, 0, 61, 64
1, 26819, Note_off_c, 4, 45, 64
1, 26819, Note_off_c, 0, 52, 64
1, 26819, Note_off_c, 4, 52, 64
1, 26819, Note_off_c, 5, 78, 64
1, 26819, Note_off_c, 6, 78, 64
1, 26819, Note_off_c, 0, 57, 64
1, 26820, Note_on_c, 0, 57, 51
1, 26820, Note_on_c, 0, 61, 52
1, 26820, Note_on_c, 0, 64, 78
1, 26820, Control_c, 1, 11, 127
1, 26820, Control_c, 2, 11, 127
1, 26820, Note_on_c, 4, 49, 89
1, 26820, Note_on_c, 4, 52, 101
1, 26820, Note_on_c, 4, 57, 89
1, 26820, Note_on_c, 5, 62, 98
1, 26820, Note_on_c, 5, 74, 98
1, 26820, Note_on_c, 6, 74, 120
1, 26820, Note_on_c, 9, 46, 120
1, 26820, Note_on_c, 9, 73, 111
1, 26820, Note_on_c, 11, 74, 120
1, 26849, Note_off_c, 9, 73, 64
1, 26849, Note_off_c, 4, 52, 64
1, 26849, Note_off_c, 0, 61, 64
1, 26849, Note_off_c, 0, 57, 64
1, 26849, Note_off_c, 0, 64, 64
1, 26849, Note_off_c, 4, 49, 64
1, 26849, Note_off_c, 9, 46, 64
1, 26849, Note_off_c, 4, 57, 64
1, 26850, Note_on_c, 0, 57, 73
1, 26850, Note_on_c, 0, 61, 52
1, 26850, Note_on_c, 0, 64, 83
1, 26850, Note_on_c, 4, 49, 119
1, 26850, Note_on_c, 4, 52, 118
1, 26850, Note_on_c, 4, 57, 105
1, 26879, Note_off_c, 4, 57, 64
1, 26879, Note_off_c, 5, 62, 64
1, 26879, Note_off_c, 1, 33, 64
1, 26879, Note_off_c, 6, 74, 64
1, 26879, Note_off_c, 2, 57, 64
1, 26879, Note_off_c, 5, 74, 64
1, 26879, Note_off_c, 2, 61, 64
1, 26879, Note_off_c, 11, 74, 64
1, 26879, Note_off_c, 4, 49, 64
1, 26879, Note_off_c, 0, 64, 64
1, 26879, Note_off_c, 0, 57, 64
1, 26879, Note_off_c, 2, 64, 64
1, 26879, Note_off_c, 4, 52, 64
1, 26879, Note_off_c, 0, 61, 64
1, 26880, Note_on_c, 0, 59, 58
1, 26880, Note_on_c, 0, 62, 91
1, 26880, Control_c, 1, 11, 64
1, 26880, Note_on_c, 1, 35, 120
1, 26880, Control_c, 2, 11, 64
1, 26880, Note_on_c, 2, 59, 120
1, 26880, Note_on_c, 2, 62, 120
1, 26880, Note_on_c, 2, 66, 120
1, 26880, Note_on_c, 4, 47, 85
1, 26880, Note_on_c, 4, 54, 120
1, 26880, Note_on_c, 5, 59, 105
1, 26880, Note_on_c, 5, 71, 105
1, 26880, Note_on_c, 6, 71, 120
1, 26880, Note_on_c, 9, 35, 120
1, 26880, Note_on_c, 9, 42, 120
1, 26880, Note_on_c, 9, 59, 119
1, 26880, Note_on_c, 11, 71, 120
1, 26909, Note_off_c, 9, 59, 64
1, 26909, Note_off_c, 9, 42, 64
1, 26909, Note_off_c, 9, 35, 64
1, 26939, Note_off_c, 5, 71, 64
1, 26939, Note_off_c, 4, 47, 64
1, 26939, Note_off_c, 4, 54, 64
1, 26939, Note_off_c, 0, 59, 64
1, 26939, Note_off_c, 5, 59, 64
1, 26939, Note_off_c, 6, 71, 64
1, 26939, Note_off_c, 11, 71, 64
1, 26939, Note_off_c, 0, 62, 64
1, 26940, Note_on_c, 0, 59, 79
1, 26940, Note_on_c, 0, 62, 95
1, 26940, Note_on_c, 0, 66, 74
1, 26940, Control_c, 1, 11, 127
1, 26940, Control_c, 2, 11, 127
1, 26940, Note_on_c, 4, 50, 92
1, 26940, Note_on_c, 4, 54, 87
1, 26940, Note_on_c, 4, 62, 95
1, 26940, Note_on_c, 9, 46, 120
1, 26940, Note_on_c, 9, 73, 109
1, 26969, Note_off_c, 9, 73, 64
1, 26969, Note_off_c, 9, 46, 64
1, 26999, Note_off_c, 1, 35, 64
1, 27000, Control_c, 1, 11, 64
1, 27000, Note_on_c, 1, 35, 120
1, 27000, Control_c, 2, 11, 73
1, 27000, Note_on_c, 5, 59, 119
1, 27000, Note_on_c, 5, 71, 119
1, 27000, Note_on_c, 6, 71, 120
1, 27000, Note_on_c, 9, 35, 120
1, 27000, Note_on_c, 9, 42, 120
1, 27000, Note_on_c, 9, 59, 118
1, 27000, Note_on_c, 11, 71, 120
1, 27029, Note_off_c, 9, 59, 64
1, 27029, Note_off_c, 9, 42, 64
1, 27029, Note_off_c, 4, 50, 64
1, 27029, Note_off_c, 0, 66, 64
1, 27029, Note_off_c, 0, 62, 64
1, 27029, Note_off_c, 0, 59, 64
1, 27029, Note_off_c, 4, 62, 64
1, 27029, Note_off_c, 9, 35, 64
1, 27029, Note_off_c, 4, 54, 64
1, 27030, Note_on_c, 0, 59, 71
1, 27030, Note_on_c, 0, 62, 91
1, 27030, Note_on_c, 0, 66, 60
1, 27030, Note_on_c, 4, 54, 109
1, 27030, Note_on_c, 4, 59, 95
1, 27059, Note_off_c, 4, 59, 64
1, 27059, Note_off_c, 6, 71, 64
1, 27059, Note_off_c, 0, 62, 64
1, 27059, Note_off_c, 11, 71, 64
1, 27059, Note_off_c, 5, 71, 64
1, 27059, Note_off_c, 0, 59, 64
1, 27059, Note_off_c, 4, 54, 64
1, 27059, Note_off_c, 5, 59, 64
1, 27059, Note_off_c, 0, 66, 64
1, 27060, Note_on_c, 0, 62, 80
1, 27060, Note_on_c, 0, 66, 62
1, 27060, Note_on_c, 0, 71, 91
1, 27060, Control_c, 1, 11, 127
1, 27060, Control_c, 2, 11, 127
1, 27060, Note_on_c, 4, 50, 103
1, 27060, Note_on_c, 4, 54, 115
1, 27060, Note_on_c, 9, 46, 120
1, 27060, Note_on_c, 9, 73, 119
1, 27089, Note_off_c, 9, 73, 64
1, 27089, Note_off_c, 4, 50, 64
1, 27089, Note_off_c, 9, 46, 64
1, 27089, Note_off_c, 0, 71, 64
1, 27089, Note_off_c, 4, 54, 64
1, 27089, Note_off_c, 0, 62, 64
1, 27089, Note_off_c, 0, 66, 64
1, 27090, Note_on_c, 0, 59, 51
1, 27090, Note_on_c, 0, 62, 85
1, 27090, Note_on_c, 0, 66, 59
1, 27090, Note_on_c, 4, 47, 92
1, 27090, Note_on_c, 4, 52, 98
1, 27090, Note_on_c, 5, 57, 91
1, 27090, Note_on_c, 5, 69, 91
1, 27090, Note_on_c, 6, 69, 120
1, 27090, Note_on_c, 11, 69, 120
1, 27119, Note_off_c, 11, 69, 64
1, 27119, Note_off_c, 0, 62, 64
1, 27119, Note_off_c, 2, 66, 64
1, 27119, Note_off_c, 4, 47, 64
1, 27119, Note_off_c, 1, 35, 64
1, 27119, Note_off_c, 2, 62, 64
1, 27119, Note_off_c, 2, 59, 64
1, 27119, Note_off_c, 0, 59, 64
1, 27119, Note_off_c, 5, 69, 64
1, 27119, Note_off_c, 4, 52, 64
1, 27119, Note_off_c, 0, 66, 64
1, 27119, Note_off_c, 6, 69, 64
1, 27119, Note_off_c, 5, 57, 64
1, 27120, Note_on_c, 0, 55, 74
1, 27120, Note_on_c, 0, 59, 94
1, 27120, Note_on_c, 0, 62, 91
1, 27120, Control_c, 1, 11, 64
1, 27120, Note_on_c, 1, 31, 120
1, 27120, Control_c, 2, 11, 71
1, 27120, Note_on_c, 2, 59, 120
1, 27120, Note_on_c, 2, 62, 120
1, 27120, Note_on_c, 2, 67, 120
1, 27120, Note_on_c, 4, 43, 98
1, 27120, Note_on_c, 4, 50, 116
1, 27120, Note_on_c, 5, 59, 97
1, 27120, Note_on_c, 5, 71, 97
1, 27120, Note_on_c, 6, 71, 120
1, 27120, Note_on_c, 9, 35, 120
1, 27120, Note_on_c, 9, 42, 120
1, 27120, Note_on_c, 9, 59, 116
1, 27120, Note_on_c, 11, 71, 120
1, 27149, Note_off_c, 11, 71, 64
1, 27149, Note_off_c, 9, 59, 64
1, 27149, Note_off_c, 6, 71, 64
1, 27149, Note_off_c, 5, 59, 64
1, 27149, Note_off_c, 9, 42, 64
1, 27149, Note_off_c, 5, 71, 64
1, 27149, Note_off_c, 9, 35, 64
1, 27150, Note_on_c, 5, 62, 80
1, 27150, Note_on_c, 5, 74, 80
1, 27150, Note_on_c, 6, 74, 120
1, 27150, Note_on_c, 11, 74, 120
1, 27179, Note_off_c, 11, 74, 64
1, 27179, Note_off_c, 4, 43, 64
1, 27179, Note_off_c, 0, 59, 64
1, 27179, Note_off_c, 0, 55, 64
1, 27179, Note_off_c, 4, 50, 64
1, 27179, Note_off_c, 5, 62, 64
1, 27179, Note_off_c, 0, 62, 64
1, 27179, Note_off_c, 6, 74, 64
1, 27179, Note_off_c, 5, 74, 64
1, 27180, Note_on_c, 0, 59, 70
1, 27180, Note_on_c, 0, 62, 94
1, 27180, Note_on_c, 0, 67, 101
1, 27180, Control_c, 1, 11, 127
1, 27180, Control_c, 2, 11, 127
1, 27180, Note_on_c, 4, 50, 79
1, 27180, Note_on_c, 4, 55, 111
1, 27180, Note_on_c, 4, 59, 100
1, 27180, Note_on_c, 5, 59, 113
1, 27180, Note_on_c, 5, 71, 113
1, 27180, Note_on_c, 6, 71, 120
1, 27180, Note_on_c, 9, 46, 120
1, 27180, Note_on_c, 9, 73, 119
1, 27180, Note_on_c, 11, 71, 120
1, 27209, Note_off_c, 9, 73, 64
1, 27209, Note_off_c, 9, 46, 64
1, 27239, Note_off_c, 5, 71, 64
1, 27239, Note_off_c, 11, 71, 64
1, 27239, Note_off_c, 1, 31, 64
1, 27239, Note_off_c, 5, 59, 64
1, 27239, Note_off_c, 6, 71, 64
1, 27240, Control_c, 1, 11, 64
1, 27240, Note_on_c, 1, 31, 120
1, 27240, Control_c, 2, 11, 80
1, 27240, Note_on_c, 9, 35, 120
1, 27240, Note_on_c, 9, 42, 120
1, 27240, Note_on_c, 9, 59, 120
1, 27269, Note_off_c, 9, 59, 64
1, 27269, Note_off_c, 4, 55, 64
1, 27269, Note_off_c, 0, 67, 64
1, 27269, Note_off_c, 4, 59, 64
1, 27269, Note_off_c, 0, 62, 64
1, 27269, Note_off_c, 0, 59, 64
1, 27269, Note_off_c, 4, 50, 64
1, 27269, Note_off_c, 9, 42, 64
1, 27269, Note_off_c, 9, 35, 64
1, 27270, Note_on_c, 0, 59, 52
1, 27270, Note_on_c, 0, 62, 85
1, 27270, Note_on_c, 0, 67, 94
1, 27270, Note_on_c, 4, 50, 82
1, 27270, Note_on_c, 4, 55, 98
1, 27270, Note_on_c, 4, 59, 85
1, 27270, Note_on_c, 5, 57, 98
1, 27270, Note_on_c, 5, 69, 98
1, 27270, Note_on_c, 6, 69, 120
1, 27270, Note_on_c, 11, 69, 120
1, 27299, Note_off_c, 11, 69, 64
1, 27299, Note_off_c, 0, 59, 64
1, 27299, Note_off_c, 0, 62, 64
1, 27299, Note_off_c, 4, 59, 64
1, 27299, Note_off_c, 4, 50, 64
1, 27299, Note_off_c, 0, 67, 64
1, 27299, Note_off_c, 4, 55, 64
1, 27299, Note_off_c, 6, 69, 64
1, 27299, Note_off_c, 5, 69, 64
1, 27299, Note_off_c, 5, 57, 64
1, 27300, Note_on_c, 0, 62, 78
1, 27300, Note_on_c, 0, 67, 100
1, 27300, Note_on_c, 0, 71, 46
1, 27300, Control_c, 1, 11, 127
1, 27300, Control_c, 2, 11, 127
1, 27300, Note_on_c, 4, 43, 109
1, 27300, Note_on_c, 4, 50, 109
1, 27300, Note_on_c, 5, 59, 101
1, 27300, Note_on_c, 5, 71, 101
1, 27300, Note_on_c, 6, 71, 120
1, 27300, Note_on_c, 9, 46, 120
1, 27300, Note_on_c, 9, 73, 115
1, 27300, Note_on_c, 11, 71, 120
1, 27329, Note_off_c, 11, 71, 64
1, 27329, Note_off_c, 6, 71, 64
1, 27329, Note_off_c, 0, 62, 64
1, 27329, Note_off_c, 0, 67, 64
1, 27329, Note_off_c, 5, 59, 64
1, 27329, Note_off_c, 4, 43, 64
1, 27329, Note_off_c, 0, 71, 64
1, 27329, Note_off_c, 4, 50, 64
1, 27329, Note_off_c, 9, 73, 64
1, 27329, Note_off_c, 9, 46, 64
1, 27329, Note_off_c, 5, 71, 64
1, 27330, Note_on_c, 0, 59, 45
1, 27330, Note_on_c, 0, 62, 73
1, 27330, Note_on_c, 0, 67, 86
1, 27330, Note_on_c, 4, 43, 101
1, 27330, Note_on_c, 4, 52, 116
1, 27330, Note_on_c, 5, 57, 91
1, 27330, Note_on_c, 5, 69, 91
1, 27330, Note_on_c, 6, 69, 120
1, 27330, Note_on_c, 11, 69, 120
1, 27359, Note_off_c, 11, 69, 64
1, 27359, Note_off_c, 0, 62, 64
1, 27359, Note_off_c, 2, 62, 64
1, 27359, Note_off_c, 4, 43, 64
1, 27359, Note_off_c, 2, 59, 64
1, 27359, Note_off_c, 2, 67, 64
1, 27359, Note_off_c, 1, 31, 64
1, 27359, Note_off_c, 0, 59, 64
1, 27359, Note_off_c, 5, 69, 64
1, 27359, Note_off_c, 4, 52, 64
1, 27359, Note_off_c, 0, 67, 64
1, 27359, Note_off_c, 6, 69, 64
1, 27359, Note_off_c, 5, 57, 64
1, 27360, Note_on_c, 0, 54, 35
1, 27360, Note_on_c, 0, 57, 85
1, 27360, Note_on_c, 0, 62, 79
1, 27360, Control_c, 1, 11, 64
1, 27360, Note_on_c, 1, 38, 120
1, 27360, Control_c, 2, 11, 64
1, 27360, Note_on_c, 2, 57, 120
1, 27360, Note_on_c, 2, 62, 120
1, 27360, Note_on_c, 2, 66, 120
1, 27360, Note_on_c, 4, 45, 90
1, 27360, Note_on_c, 4, 50, 105
1, 27360, Note_on_c, 5, 62, 105
1, 27360, Note_on_c, 5, 74, 105
1, 27360, Note_on_c, 6, 74, 120
1, 27360, Note_on_c, 9, 35, 120
1, 27360, Note_on_c, 9, 42, 120
1, 27360, Note_on_c, 9, 59, 111
1, 27360, Note_on_c, 11, 74, 120
1, 27389, Note_off_c, 9, 59, 64
1, 27389, Note_off_c, 9, 42, 64
1, 27389, Note_off_c, 9, 35, 64
1, 27419, Note_off_c, 11, 74, 64
1, 27419, Note_off_c, 5, 62, 64
1, 27419, Note_off_c, 0, 62, 64
1, 27419, Note_off_c, 4, 45, 64
1, 27419, Note_off_c, 0, 54, 64
1, 27419, Note_off_c, 4, 50, 64
1, 27419, Note_off_c, 5, 74, 64
1, 27419, Note_off_c, 6, 74, 64
1, 27419, Note_off_c, 0, 57, 64
1, 27420, Note_on_c, 0, 57, 69
1, 27420, Note_on_c, 0, 62, 98
1, 27420, Note_on_c, 0, 66, 74
1, 27420, Control_c, 1, 11, 127
1, 27420, Control_c, 2, 11, 127
1, 27420, Note_on_c, 4, 45, 100
1, 27420, Note_on_c, 4, 50, 111
1, 27420, Note_on_c, 4, 54, 89
1, 27420, Note_on_c, 9, 46, 120
1, 27420, Note_on_c, 9, 73, 119
1, 27449, Note_off_c, 9, 73, 64
1, 27449, Note_off_c, 9, 46, 64
1, 27479, Note_off_c, 1, 38, 64
1, 27480, Control_c, 1, 11, 64
1, 27480, Note_on_c, 1, 38, 120
1, 27480, Control_c, 2, 11, 73
1, 27480, Note_on_c, 5, 62, 119
1, 27480, Note_on_c, 5, 74, 119
1, 27480, Note_on_c, 6, 74, 120
1, 27480, Note_on_c, 9, 35, 120
1, 27480, Note_on_c, 9, 42, 120
1, 27480, Note_on_c, 9, 59, 119
1, 27480, Note_on_c, 11, 74, 120
1, 27509, Note_off_c, 9, 59, 64
1, 27509, Note_off_c, 9, 42, 64
1, 27509, Note_off_c, 4, 45, 64
1, 27509, Note_off_c, 0, 66, 64
1, 27509, Note_off_c, 0, 62, 64
1, 27509, Note_off_c, 0, 57, 64
1, 27509, Note_off_c, 4, 54, 64
1, 27509, Note_off_c, 9, 35, 64
1, 27509, Note_off_c, 4, 50, 64
1, 27510, Note_on_c, 0, 54, 44
1, 27510, Note_on_c, 0, 57, 78
1, 27510, Note_on_c, 0, 62, 58
1, 27510, Note_on_c, 4, 45, 85
1, 27510, Note_on_c, 4, 50, 105
1, 27510, Note_on_c, 4, 54, 81
1, 27539, Note_off_c, 4, 54, 64
1, 27539, Note_off_c, 5, 62, 64
1, 27539, Note_off_c, 6, 74, 64
1, 27539, Note_off_c, 0, 57, 64
1, 27539, Note_off_c, 11, 74, 64
1, 27539, Note_off_c, 5, 74, 64
1, 27539, Note_off_c, 0, 54, 64
1, 27539, Note_off_c, 4, 50, 64
1, 27539, Note_off_c, 4, 45, 64
1, 27539, Note_off_c, 0, 62, 64
1, 27540, Note_on_c, 0, 57, 57
1, 27540, Note_on_c, 0, 62, 91
1, 27540, Note_on_c, 0, 66, 77
1, 27540, Control_c, 1, 11, 127
1, 27540, Control_c, 2, 11, 127
1, 27540, Note_on_c, 4, 50, 109
1, 27540, Note_on_c, 4, 54, 89
1, 27540, Note_on_c, 4, 57, 109
1, 27540, Note_on_c, 9, 46, 120
1, 27540, Note_on_c, 9, 73, 119
1, 27569, Note_off_c, 9, 73, 64
1, 27569, Note_off_c, 4, 57, 64
1, 27569, Note_off_c, 4, 50, 64
1, 27569, Note_off_c, 0, 66, 64
1, 27569, Note_off_c, 4, 54, 64
1, 27569, Note_off_c, 9, 46, 64
1, 27569, Note_off_c, 0, 57, 64
1, 27569, Note_off_c, 0, 62, 64
1, 27570, Note_on_c, 0, 54, 35
1, 27570, Note_on_c, 0, 57, 79
1, 27570, Note_on_c, 0, 62, 56
1, 27570, Note_on_c, 4, 50, 111
1, 27570, Note_on_c, 4, 54, 100
1, 27570, Note_on_c, 4, 57, 100
1, 27570, Note_on_c, 5, 62, 103
1, 27570, Note_on_c, 5, 74, 103
1, 27570, Note_on_c, 6, 74, 120
1, 27570, Note_on_c, 11, 74, 120
1, 27599, Note_off_c, 11, 74, 64
1, 27599, Note_off_c, 0, 54, 64
1, 27599, Note_off_c, 0, 57, 64
1, 27599, Note_off_c, 4, 57, 64
1, 27599, Note_off_c, 4, 50, 64
1, 27599, Note_off_c, 0, 62, 64
1, 27599, Note_off_c, 1, 38, 64
1, 27599, Note_off_c, 4, 54, 64
1, 27599, Note_off_c, 5, 74, 64
1, 27599, Note_off_c, 5, 62, 64
1, 27599, Note_off_c, 6, 74, 64
1, 27600, Note_on_c, 0, 54, 49
1, 27600, Note_on_c, 0, 57, 85
1, 27600, Note_on_c, 0, 62, 75
1, 27600, Control_c, 1, 11, 64
1, 27600, Note_on_c, 1, 38, 120
1, 27600, Control_c, 2, 11, 71
1, 27600, Note_on_c, 4, 45, 105
1, 27600, Note_on_c, 4, 50, 116
1, 27600, Note_on_c, 5, 64, 95
1, 27600, Note_on_c, 5, 76, 95
1, 27600, Note_on_c, 6, 76, 120
1, 27600, Note_on_c, 9, 35, 120
1, 27600, Note_on_c, 9, 42, 120
1, 27600, Note_on_c, 9, 59, 116
1, 27600, Note_on_c, 11, 76, 120
1, 27629, Note_off_c, 11, 76, 64
1, 27629, Note_off_c, 9, 59, 64
1, 27629, Note_off_c, 6, 76, 64
1, 27629, Note_off_c, 5, 64, 64
1, 27629, Note_off_c, 9, 42, 64
1, 27629, Note_off_c, 5, 76, 64
1, 27629, Note_off_c, 9, 35, 64
1, 27630, Note_on_c, 5, 62, 86
1, 27630, Note_on_c, 5, 74, 86
1, 27630, Note_on_c, 6, 74, 120
1, 27630, Note_on_c, 11, 74, 120
1, 27659, Note_off_c, 11, 74, 64
1, 27659, Note_off_c, 4, 45, 64
1, 27659, Note_off_c, 0, 57, 64
1, 27659, Note_off_c, 0, 54, 64
1, 27659, Note_off_c, 4, 50, 64
1, 27659, Note_off_c, 5, 62, 64
1, 27659, Note_off_c, 0, 62, 64
1, 27659, Note_off_c, 6, 74, 64
1, 27659, Note_off_c, 5, 74, 64
1, 27660, Note_on_c, 0, 57, 56
1, 27660, Note_on_c, 0, 62, 84
1, 27660, Note_on_c, 0, 66, 49
1, 27660, Control_c, 1, 11, 127
1, 27660, Control_c, 2, 11, 127
1, 27660, Note_on_c, 4, 50, 105
1, 27660, Note_on_c, 4, 54, 115
1, 27660, Note_on_c, 5, 64, 98
1, 27660, Note_on_c, 5, 76, 98
1, 27660, Note_on_c, 6, 76, 120
1, 27660, Note_on_c, 9, 46, 120
1, 27660, Note_on_c, 9, 73, 119
1, 27660, Note_on_c, 11, 76, 120
1, 27689, Note_off_c, 9, 73, 64
1, 27689, Note_off_c, 4, 50, 64
1, 27689, Note_off_c, 0, 57, 64
1, 27689, Note_off_c, 0, 66, 64
1, 27689, Note_off_c, 9, 46, 64
1, 27689, Note_off_c, 0, 62, 64
1, 27689, Note_off_c, 4, 54, 64
1, 27690, Note_on_c, 0, 57, 84
1, 27690, Note_on_c, 0, 62, 94
1, 27690, Note_on_c, 0, 66, 76
1, 27690, Note_on_c, 4, 50, 100
1, 27690, Note_on_c, 4, 54, 92
1, 27710, Pitch_bend_c, 5, 8071
1, 27715, Pitch_bend_c, 5, 6296
1, 27718, Pitch_bend_c, 5, 4197
1, 27719, Note_off_c, 4, 54, 64
1, 27719, Note_off_c, 2, 62, 64
1, 27719, Note_off_c, 2, 66, 64
1, 27719, Note_off_c, 1, 38, 64
1, 27719, Note_off_c, 5, 76, 64
1, 27719, Note_off_c, 11, 76, 64
1, 27719, Note_off_c, 2, 57, 64
1, 27719, Note_off_c, 5, 64, 64
1, 27719, Note_off_c, 0, 66, 64
1, 27719, Note_off_c, 0, 57, 64
1, 27719, Note_off_c, 6, 76, 64
1, 27719, Note_off_c, 4, 50, 64
1, 27719, Note_off_c, 0, 62, 64
1, 27720, Note_on_c, 0, 52, 47
1, 27720, Note_on_c, 0, 57, 89
1, 27720, Note_on_c, 0, 61, 52
1, 27720, Control_c, 1, 11, 64
1, 27720, Note_on_c, 1, 30, 120
1, 27720, Control_c, 2, 11, 80
1, 27720, Note_on_c, 2, 57, 120
1, 27720, Note_on_c, 2, 61, 120
1, 27720, Note_on_c, 2, 66, 120
1, 27720, Note_on_c, 4, 45, 101
1, 27720, Note_on_c, 4, 52, 101
1, 27720, Note_on_c, 5, 66, 119
1, 27720, Note_on_c, 5, 78, 119
1, 27720, Pitch_bend_c, 5, 1776
1, 27720, Note_on_c, 6, 78, 120
1, 27720, Note_on_c, 9, 35, 120
1, 27720, Note_on_c, 9, 42, 120
1, 27720, Note_on_c, 9, 59, 120
1, 27720, Note_on_c, 11, 78, 120
1, 27723, Pitch_bend_c, 5, 0
1, 27740, Pitch_bend_c, 5, 646
1, 27743, Pitch_bend_c, 5, 2422
1, 27745, Pitch_bend_c, 5, 4520
1, 27748, Pitch_bend_c, 5, 6942
1, 27749, Note_off_c, 9, 59, 64
1, 27749, Note_off_c, 9, 42, 64
1, 27749, Note_off_c, 9, 35, 64
1, 27750, Pitch_bend_c, 5, 8192
1, 27779, Note_off_c, 11, 78, 64
1, 27779, Note_off_c, 5, 66, 64
1, 27779, Note_off_c, 0, 61, 64
1, 27779, Note_off_c, 4, 45, 64
1, 27779, Note_off_c, 0, 52, 64
1, 27779, Note_off_c, 4, 52, 64
1, 27779, Note_off_c, 5, 78, 64
1, 27779, Note_off_c, 6, 78, 64
1, 27779, Note_off_c, 0, 57, 64
1, 27780, Note_on_c, 0, 57, 51
1, 27780, Note_on_c, 0, 61, 52
1, 27780, Note_on_c, 0, 64, 78
1, 27780, Control_c, 1, 11, 127
1, 27780, Control_c, 2, 11, 127
1, 27780, Note_on_c, 4, 49, 89
1, 27780, Note_on_c, 4, 52, 101
1, 27780, Note_on_c, 4, 57, 89
1, 27780, Note_on_c, 5, 62, 111
1, 27780, Note_on_c, 5, 74, 111
1, 27780, Note_on_c, 6, 74, 120
1, 27780, Note_on_c, 9, 46, 120
1, 27780, Note_on_c, 9, 73, 115
1, 27780, Note_on_c, 11, 74, 120
1, 27809, Note_off_c, 9, 73, 64
1, 27809, Note_off_c, 4, 52, 64
1, 27809, Note_off_c, 0, 61, 64
1, 27809, Note_off_c, 0, 57, 64
1, 27809, Note_off_c, 0, 64, 64
1, 27809, Note_off_c, 4, 49, 64
1, 27809, Note_off_c, 9, 46, 64
1, 27809, Note_off_c, 4, 57, 64
1, 27810, Note_on_c, 0, 57, 73
1, 27810, Note_on_c, 0, 61, 52
1, 27810, Note_on_c, 0, 64, 83
1, 27810, Note_on_c, 4, 49, 119
1, 27810, Note_on_c, 4, 52, 118
1, 27810, Note_on_c, 4, 57, 105
1, 27839, Note_off_c, 4, 57, 64
1, 27839, Note_off_c, 5, 62, 64
1, 27839, Note_off_c, 1, 30, 64
1, 27839, Note_off_c, 6, 74, 64
1, 27839, Note_off_c, 2, 57, 64
1, 27839, Note_off_c, 5, 74, 64
1, 27839, Note_off_c, 2, 61, 64
1, 27839, Note_off_c, 11, 74, 64
1, 27839, Note_off_c, 4, 49, 64
1, 27839, Note_off_c, 0, 64, 64
1, 27839, Note_off_c, 0, 57, 64
1, 27839, Note_off_c, 2, 66, 64
1, 27839, Note_off_c, 4, 52, 64
1, 27839, Note_off_c, 0, 61, 64
1, 27840, Note_on_c, 0, 59, 58
1, 27840, Note_on_c, 0, 62, 91
1, 27840, Control_c, 1, 11, 64
1, 27840, Note_on_c, 1, 35, 120
1, 27840, Control_c, 2, 11, 64
1, 27840, Note_on_c, 2, 59, 120
1, 27840, Note_on_c, 2, 62, 120
1, 27840, Note_on_c, 2, 66, 120
1, 27840, Note_on_c, 4, 47, 85
1, 27840, Note_on_c, 4, 54, 120
1, 27840, Note_on_c, 5, 59, 120
1, 27840, Note_on_c, 5, 71, 120
1, 27840, Note_on_c, 6, 71, 120
1, 27840, Note_on_c, 9, 35, 120
1, 27840, Note_on_c, 9, 42, 120
1, 27840, Note_on_c, 9, 59, 120
1, 27840, Note_on_c, 11, 71, 120
1, 27869, Note_off_c, 9, 59, 64
1, 27869, Note_off_c, 9, 42, 64
1, 27869, Note_off_c, 9, 35, 64
1, 27899, Note_off_c, 5, 71, 64
1, 27899, Note_off_c, 4, 47, 64
1, 27899, Note_off_c, 4, 54, 64
1, 27899, Note_off_c, 0, 59, 64
1, 27899, Note_off_c, 5, 59, 64
1, 27899, Note_off_c, 6, 71, 64
1, 27899, Note_off_c, 11, 71, 64
1, 27899, Note_off_c, 0, 62, 64
1, 27900, Note_on_c, 0, 59, 79
1, 27900, Note_on_c, 0, 62, 95
1, 27900, Note_on_c, 0, 66, 74
1, 27900, Control_c, 1, 11, 127
1, 27900, Control_c, 2, 11, 127
1, 27900, Note_on_c, 4, 50, 92
1, 27900, Note_on_c, 4, 54, 87
1, 27900, Note_on_c, 4, 62, 95
1, 27900, Note_on_c, 9, 46, 120
1, 27900, Note_on_c, 9, 73, 119
1, 27929, Note_off_c, 9, 73, 64
1, 27929, Note_off_c, 9, 46, 64
1, 27959, Note_off_c, 1, 35, 64
1, 27960, Control_c, 1, 11, 64
1, 27960, Note_on_c, 1, 35, 120
1, 27960, Control_c, 2, 11, 73
1, 27960, Note_on_c, 5, 59, 120
1, 27960, Note_on_c, 5, 71, 120
1, 27960, Note_on_c, 6, 71, 120
1, 27960, Note_on_c, 9, 35, 120
1, 27960, Note_on_c, 9, 42, 120
1, 27960, Note_on_c, 9, 59, 116
1, 27960, Note_on_c, 11, 71, 120
1, 27989, Note_off_c, 9, 59, 64
1, 27989, Note_off_c, 9, 42, 64
1, 27989, Note_off_c, 4, 50, 64
1, 27989, Note_off_c, 0, 66, 64
1, 27989, Note_off_c, 0, 62, 64
1, 27989, Note_off_c, 0, 59, 64
1, 27989, Note_off_c, 4, 62, 64
1, 27989, Note_off_c, 9, 35, 64
1, 27989, Note_off_c, 4, 54, 64
1, 27990, Note_on_c, 0, 59, 71
1, 27990, Note_on_c, 0, 62, 91
1, 27990, Note_on_c, 0, 66, 60
1, 27990, Note_on_c, 4, 54, 109
1, 27990, Note_on_c, 4, 59, 95
1, 28019, Note_off_c, 4, 59, 64
1, 28019, Note_off_c, 6, 71, 64
1, 28019, Note_off_c, 0, 62, 64
1, 28019, Note_off_c, 11, 71, 64
1, 28019, Note_off_c, 5, 71, 64
1, 28019, Note_off_c, 0, 59, 64
1, 28019, Note_off_c, 4, 54, 64
1, 28019, Note_off_c, 5, 59, 64
1, 28019, Note_off_c, 0, 66, 64
1, 28020, Note_on_c, 0, 62, 80
1, 28020, Note_on_c, 0, 66, 62
1, 28020, Note_on_c, 0, 71, 91
1, 28020, Control_c, 1, 11, 127
1, 28020, Control_c, 2, 11, 127
1, 28020, Note_on_c, 4, 50, 103
1, 28020, Note_on_c, 4, 54, 115
1, 28020, Note_on_c, 9, 46, 119
1, 28020, Note_on_c, 9, 73, 119
1, 28049, Note_off_c, 9, 73, 64
1, 28049, Note_off_c, 4, 50, 64
1, 28049, Note_off_c, 9, 46, 64
1, 28049, Note_off_c, 0, 71, 64
1, 28049, Note_off_c, 4, 54, 64
1, 28049, Note_off_c, 0, 62, 64
1, 28049, Note_off_c, 0, 66, 64
1, 28050, Note_on_c, 0, 59, 51
1, 28050, Note_on_c, 0, 62, 85
1, 28050, Note_on_c, 0, 66, 59
1, 28050, Note_on_c, 4, 47, 92
1, 28050, Note_on_c, 4, 52, 98
1, 28050, Note_on_c, 5, 57, 98
1, 28050, Note_on_c, 5, 69, 98
1, 28050, Note_on_c, 6, 69, 120
1, 28050, Note_on_c, 11, 69, 120
1, 28079, Note_off_c, 11, 69, 64
1, 28079, Note_off_c, 0, 62, 64
1, 28079, Note_off_c, 2, 66, 64
1, 28079, Note_off_c, 4, 47, 64
1, 28079, Note_off_c, 1, 35, 64
1, 28079, Note_off_c, 2, 62, 64
1, 28079, Note_off_c, 2, 59, 64
1, 28079, Note_off_c, 0, 59, 64
1, 28079, Note_off_c, 5, 69, 64
1, 28079, Note_off_c, 4, 52, 64
1, 28079, Note_off_c, 0, 66, 64
1, 28079, Note_off_c, 6, 69, 64
1, 28079, Note_off_c, 5, 57, 64
1, 28080, Note_on_c, 0, 55, 74
1, 28080, Note_on_c, 0, 59, 94
1, 28080, Note_on_c, 0, 62, 91
1, 28080, Control_c, 1, 11, 64
1, 28080, Note_on_c, 1, 31, 120
1, 28080, Control_c, 2, 11, 71
1, 28080, Note_on_c, 2, 59, 120
1, 28080, Note_on_c, 2, 62, 120
1, 28080, Note_on_c, 2, 67, 120
1, 28080, Note_on_c, 4, 43, 98
1, 28080, Note_on_c, 4, 50, 116
1, 28080, Note_on_c, 5, 59, 98
1, 28080, Note_on_c, 5, 71, 98
1, 28080, Note_on_c, 6, 71, 120
1, 28080, Note_on_c, 9, 35, 120
1, 28080, Note_on_c, 9, 42, 120
1, 28080, Note_on_c, 9, 59, 118
1, 28080, Note_on_c, 11, 71, 120
1, 28109, Note_off_c, 11, 71, 64
1, 28109, Note_off_c, 9, 59, 64
1, 28109, Note_off_c, 6, 71, 64
1, 28109, Note_off_c, 5, 59, 64
1, 28109, Note_off_c, 9, 42, 64
1, 28109, Note_off_c, 5, 71, 64
1, 28109, Note_off_c, 9, 35, 64
1, 28110, Note_on_c, 5, 62, 54
1, 28110, Note_on_c, 5, 74, 54
1, 28110, Note_on_c, 6, 74, 120
1, 28110, Note_on_c, 11, 74, 120
1, 28139, Note_off_c, 11, 74, 64
1, 28139, Note_off_c, 4, 43, 64
1, 28139, Note_off_c, 0, 59, 64
1, 28139, Note_off_c, 0, 55, 64
1, 28139, Note_off_c, 4, 50, 64
1, 28139, Note_off_c, 5, 62, 64
1, 28139, Note_off_c, 0, 62, 64
1, 28139, Note_off_c, 6, 74, 64
1, 28139, Note_off_c, 5, 74, 64
1, 28140, Note_on_c, 0, 59, 70
1, 28140, Note_on_c, 0, 62, 94
1, 28140, Note_on_c, 0, 67, 101
1, 28140, Control_c, 1, 11, 127
1, 28140, Control_c, 2, 11, 127
1, 28140, Note_on_c, 4, 50, 79
1, 28140, Note_on_c, 4, 55, 111
1, 28140, Note_on_c, 4, 59, 100
1, 28140, Note_on_c, 5, 59, 116
1, 28140, Note_on_c, 5, 71, 116
1, 28140, Note_on_c, 6, 71, 120
1, 28140, Note_on_c, 9, 46, 120
1, 28140, Note_on_c, 9, 73, 109
1, 28140, Note_on_c, 11, 71, 120
1, 28169, Note_off_c, 9, 73, 64
1, 28169, Note_off_c, 9, 46, 64
1, 28199, Note_off_c, 5, 71, 64
1, 28199, Note_off_c, 11, 71, 64
1, 28199, Note_off_c, 1, 31, 64
1, 28199, Note_off_c, 5, 59, 64
1, 28199, Note_off_c, 6, 71, 64
1, 28200, Control_c, 1, 11, 64
1, 28200, Note_on_c, 1, 31, 120
1, 28200, Control_c, 2, 11, 80
1, 28200, Note_on_c, 9, 35, 120
1, 28200, Note_on_c, 9, 42, 120
1, 28200, Note_on_c, 9, 59, 116
1, 28229, Note_off_c, 9, 59, 64
1, 28229, Note_off_c, 4, 55, 64
1, 28229, Note_off_c, 0, 67, 64
1, 28229, Note_off_c, 4, 59, 64
1, 28229, Note_off_c, 0, 62, 64
1, 28229, Note_off_c, 0, 59, 64
1, 28229, Note_off_c, 4, 50, 64
1, 28229, Note_off_c, 9, 42, 64
1, 28229, Note_off_c, 9, 35, 64
1, 28230, Note_on_c, 0, 59, 52
1, 28230, Note_on_c, 0, 62, 85
1, 28230, Note_on_c, 0, 67, 94
1, 28230, Note_on_c, 4, 50, 82
1, 28230, Note_on_c, 4, 55, 98
1, 28230, Note_on_c, 4, 59, 85
1, 28230, Note_on_c, 5, 57, 83
1, 28230, Note_on_c, 5, 69, 83
1, 28230, Note_on_c, 6, 69, 120
1, 28230, Note_on_c, 11, 69, 120
1, 28259, Note_off_c, 11, 69, 64
1, 28259, Note_off_c, 0, 59, 64
1, 28259, Note_off_c, 0, 62, 64
1, 28259, Note_off_c, 4, 59, 64
1, 28259, Note_off_c, 4, 50, 64
1, 28259, Note_off_c, 0, 67, 64
1, 28259, Note_off_c, 4, 55, 64
1, 28259, Note_off_c, 6, 69, 64
1, 28259, Note_off_c, 5, 69, 64
1, 28259, Note_off_c, 5, 57, 64
1, 28260, Note_on_c, 0, 62, 78
1, 28260, Note_on_c, 0, 67, 100
1, 28260, Note_on_c, 0, 71, 46
1, 28260, Control_c, 1, 11, 127
1, 28260, Control_c, 2, 11, 127
1, 28260, Note_on_c, 4, 43, 109
1, 28260, Note_on_c, 4, 50, 109
1, 28260, Note_on_c, 5, 59, 98
1, 28260, Note_on_c, 5, 71, 98
1, 28260, Note_on_c, 6, 71, 120
1, 28260, Note_on_c, 9, 46, 120
1, 28260, Note_on_c, 9, 73, 115
1, 28260, Note_on_c, 11, 71, 120
1, 28289, Note_off_c, 11, 71, 64
1, 28289, Note_off_c, 6, 71, 64
1, 28289, Note_off_c, 0, 62, 64
1, 28289, Note_off_c, 0, 67, 64
1, 28289, Note_off_c, 5, 59, 64
1, 28289, Note_off_c, 4, 43, 64
1, 28289, Note_off_c, 0, 71, 64
1, 28289, Note_off_c, 4, 50, 64
1, 28289, Note_off_c, 9, 73, 64
1, 28289, Note_off_c, 9, 46, 64
1, 28289, Note_off_c, 5, 71, 64
1, 28290, Note_on_c, 0, 59, 45
1, 28290, Note_on_c, 0, 62, 73
1, 28290, Note_on_c, 0, 67, 86
1, 28290, Note_on_c, 4, 43, 101
1, 28290, Note_on_c, 4, 52, 116
1, 28290, Note_on_c, 5, 57, 94
1, 28290, Note_on_c, 5, 69, 94
1, 28290, Note_on_c, 6, 69, 120
1, 28290, Note_on_c, 11, 69, 120
1, 28319, Note_off_c, 11, 69, 64
1, 28319, Note_off_c, 0, 62, 64
1, 28319, Note_off_c, 2, 62, 64
1, 28319, Note_off_c, 4, 43, 64
1, 28319, Note_off_c, 2, 59, 64
1, 28319, Note_off_c, 2, 67, 64
1, 28319, Note_off_c, 1, 31, 64
1, 28319, Note_off_c, 0, 59, 64
1, 28319, Note_off_c, 5, 69, 64
1, 28319, Note_off_c, 4, 52, 64
1, 28319, Note_off_c, 0, 67, 64
1, 28319, Note_off_c, 6, 69, 64
1, 28319, Note_off_c, 5, 57, 64
1, 28320, Note_on_c, 0, 54, 35
1, 28320, Note_on_c, 0, 57, 85
1, 28320, Note_on_c, 0, 62, 79
1, 28320, Control_c, 1, 11, 64
1, 28320, Note_on_c, 1, 38, 120
1, 28320, Control_c, 2, 11, 64
1, 28320, Note_on_c, 2, 57, 120
1, 28320, Note_on_c, 2, 62, 120
1, 28320, Note_on_c, 2, 66, 120
1, 28320, Note_on_c, 4, 45, 90
1, 28320, Note_on_c, 4, 50, 105
1, 28320, Note_on_c, 5, 62, 120
1, 28320, Note_on_c, 5, 74, 120
1, 28320, Note_on_c, 6, 74, 120
1, 28320, Note_on_c, 9, 35, 120
1, 28320, Note_on_c, 9, 42, 120
1, 28320, Note_on_c, 9, 59, 116
1, 28320, Note_on_c, 11, 74, 120
1, 28349, Note_off_c, 9, 59, 64
1, 28349, Note_off_c, 9, 42, 64
1, 28349, Note_off_c, 9, 35, 64
1, 28379, Note_off_c, 11, 74, 64
1, 28379, Note_off_c, 5, 62, 64
1, 28379, Note_off_c, 0, 62, 64
1, 28379, Note_off_c, 4, 45, 64
1, 28379, Note_off_c, 0, 54, 64
1, 28379, Note_off_c, 4, 50, 64
1, 28379, Note_off_c, 5, 74, 64
1, 28379, Note_off_c, 6, 74, 64
1, 28379, Note_off_c, 0, 57, 64
1, 28380, Note_on_c, 0, 57, 69
1, 28380, Note_on_c, 0, 62, 98
1, 28380, Note_on_c, 0, 66, 74
1, 28380, Control_c, 1, 11, 127
1, 28380, Control_c, 2, 11, 127
1, 28380, Note_on_c, 4, 45, 100
1, 28380, Note_on_c, 4, 50, 111
1, 28380, Note_on_c, 4, 54, 89
1, 28380, Note_on_c, 9, 46, 120
1, 28380, Note_on_c, 9, 73, 109
1, 28409, Note_off_c, 9, 73, 64
1, 28409, Note_off_c, 9, 46, 64
1, 28439, Note_off_c, 1, 38, 64
1, 28440, Control_c, 1, 11, 64
1, 28440, Note_on_c, 1, 38, 120
1, 28440, Control_c, 2, 11, 73
1, 28440, Note_on_c, 5, 62, 120
1, 28440, Note_on_c, 5, 74, 120
1, 28440, Note_on_c, 6, 74, 120
1, 28440, Note_on_c, 9, 35, 120
1, 28440, Note_on_c, 9, 42, 120
1, 28440, Note_on_c, 9, 59, 116
1, 28440, Note_on_c, 11, 74, 120
1, 28469, Note_off_c, 9, 59, 64
1, 28469, Note_off_c, 9, 42, 64
1, 28469, Note_off_c, 4, 45, 64
1, 28469, Note_off_c, 0, 66, 64
1, 28469, Note_off_c, 0, 62, 64
1, 28469, Note_off_c, 0, 57, 64
1, 28469, Note_off_c, 4, 54, 64
1, 28469, Note_off_c, 9, 35, 64
1, 28469, Note_off_c, 4, 50, 64
1, 28470, Note_on_c, 0, 54, 44
1, 28470, Note_on_c, 0, 57, 78
1, 28470, Note_on_c, 0, 62, 58
1, 28470, Note_on_c, 4, 45, 85
1, 28470, Note_on_c, 4, 50, 105
1, 28470, Note_on_c, 4, 54, 81
1, 28499, Note_off_c, 4, 54, 64
1, 28499, Note_off_c, 5, 62, 64
1, 28499, Note_off_c, 6, 74, 64
1, 28499, Note_off_c, 0, 57, 64
1, 28499, Note_off_c, 11, 74, 64
1, 28499, Note_off_c, 5, 74, 64
1, 28499, Note_off_c, 0, 54, 64
1, 28499, Note_off_c, 4, 50, 64
1, 28499, Note_off_c, 4, 45, 64
1, 28499, Note_off_c, 0, 62, 64
1, 28500, Note_on_c, 0, 57, 57
1, 28500, Note_on_c, 0, 62, 91
1, 28500, Note_on_c, 0, 66, 77
1, 28500, Control_c, 1, 11, 127
1, 28500, Control_c, 2, 11, 127
1, 28500, Note_on_c, 4, 50, 109
1, 28500, Note_on_c, 4, 54, 89
1, 28500, Note_on_c, 4, 57, 109
1, 28500, Note_on_c, 9, 46, 120
1, 28500, Note_on_c, 9, 73, 119
1, 28529, Note_off_c, 9, 73, 64
1, 28529, Note_off_c, 4, 57, 64
1, 28529, Note_off_c, 4, 50, 64
1, 28529, Note_off_c, 0, 66, 64
1, 28529, Note_off_c, 4, 54, 64
1, 28529, Note_off_c, 9, 46, 64
1, 28529, Note_off_c, 0, 57, 64
1, 28529, Note_off_c, 0, 62, 64
1, 28530, Note_on_c, 0, 54, 35
1, 28530, Note_on_c, 0, 57, 79
1, 28530, Note_on_c, 0, 62, 56
1, 28530, Note_on_c, 4, 50, 111
1, 28530, Note_on_c, 4, 54, 100
1, 28530, Note_on_c, 4, 57, 100
1, 28530, Note_on_c, 5, 62, 89
1, 28530, Note_on_c, 5, 74, 89
1, 28530, Note_on_c, 6, 74, 120
1, 28530, Note_on_c, 11, 74, 120
1, 28559, Note_off_c, 11, 74, 64
1, 28559, Note_off_c, 0, 54, 64
1, 28559, Note_off_c, 0, 57, 64
1, 28559, Note_off_c, 4, 57, 64
1, 28559, Note_off_c, 4, 50, 64
1, 28559, Note_off_c, 0, 62, 64
1, 28559, Note_off_c, 1, 38, 64
1, 28559, Note_off_c, 4, 54, 64
1, 28559, Note_off_c, 5, 74, 64
1, 28559, Note_off_c, 5, 62, 64
1, 28559, Note_off_c, 6, 74, 64
1, 28560, Note_on_c, 0, 54, 49
1, 28560, Note_on_c, 0, 57, 85
1, 28560, Note_on_c, 0, 62, 75
1, 28560, Control_c, 1, 11, 64
1, 28560, Note_on_c, 1, 38, 120
1, 28560, Control_c, 2, 11, 71
1, 28560, Note_on_c, 4, 45, 105
1, 28560, Note_on_c, 4, 50, 116
1, 28560, Note_on_c, 5, 64, 81
1, 28560, Note_on_c, 5, 76, 81
1, 28560, Note_on_c, 6, 76, 120
1, 28560, Note_on_c, 9, 35, 120
1, 28560, Note_on_c, 9, 42, 120
1, 28560, Note_on_c, 9, 59, 118
1, 28560, Note_on_c, 11, 76, 120
1, 28589, Note_off_c, 11, 76, 64
1, 28589, Note_off_c, 9, 59, 64
1, 28589, Note_off_c, 6, 76, 64
1, 28589, Note_off_c, 5, 64, 64
1, 28589, Note_off_c, 9, 42, 64
1, 28589, Note_off_c, 5, 76, 64
1, 28589, Note_off_c, 9, 35, 64
1, 28590, Note_on_c, 5, 62, 95
1, 28590, Note_on_c, 5, 74, 95
1, 28590, Note_on_c, 6, 74, 120
1, 28590, Note_on_c, 11, 74, 120
1, 28619, Note_off_c, 11, 74, 64
1, 28619, Note_off_c, 4, 45, 64
1, 28619, Note_off_c, 0, 57, 64
1, 28619, Note_off_c, 0, 54, 64
1, 28619, Note_off_c, 4, 50, 64
1, 28619, Note_off_c, 5, 62, 64
1, 28619, Note_off_c, 0, 62, 64
1, 28619, Note_off_c, 6, 74, 64
1, 28619, Note_off_c, 5, 74, 64
1, 28620, Note_on_c, 0, 57, 56
1, 28620, Note_on_c, 0, 62, 84
1, 28620, Note_on_c, 0, 66, 49
1, 28620, Control_c, 1, 11, 127
1, 28620, Control_c, 2, 11, 127
1, 28620, Note_on_c, 4, 50, 105
1, 28620, Note_on_c, 4, 54, 115
1, 28620, Note_on_c, 5, 64, 111
1, 28620, Note_on_c, 5, 76, 111
1, 28620, Note_on_c, 6, 76, 120
1, 28620, Note_on_c, 9, 46, 120
1, 28620, Note_on_c, 9, 73, 115
1, 28620, Note_on_c, 11, 76, 120
1, 28649, Note_off_c, 9, 73, 64
1, 28649, Note_off_c, 4, 50, 64
1, 28649, Note_off_c, 0, 57, 64
1, 28649, Note_off_c, 0, 66, 64
1, 28649, Note_off_c, 9, 46, 64
1, 28649, Note_off_c, 0, 62, 64
1, 28649, Note_off_c, 4, 54, 64
1, 28650, Note_on_c, 0, 57, 84
1, 28650, Note_on_c, 0, 62, 94
1, 28650, Note_on_c, 0, 66, 76
1, 28650, Note_on_c, 4, 50, 100
1, 28650, Note_on_c, 4, 54, 92
1, 28671, Pitch_bend_c, 5, 7749
1, 28673, Pitch_bend_c, 5, 6215
1, 28676, Pitch_bend_c, 5, 4197
1, 28678, Pitch_bend_c, 5, 2422
1, 28679, Note_off_c, 4, 54, 64
1, 28679, Note_off_c, 2, 62, 64
1, 28679, Note_off_c, 2, 66, 64
1, 28679, Note_off_c, 1, 38, 64
1, 28679, Note_off_c, 5, 76, 64
1, 28679, Note_off_c, 11, 76, 64
1, 28679, Note_off_c, 2, 57, 64
1, 28679, Note_off_c, 5, 64, 64
1, 28679, Note_off_c, 0, 66, 64
1, 28679, Note_off_c, 0, 57, 64
1, 28679, Note_off_c, 6, 76, 64
1, 28679, Note_off_c, 4, 50, 64
1, 28679, Note_off_c, 0, 62, 64
1, 28680, Note_on_c, 0, 52, 47
1, 28680, Note_on_c, 0, 57, 89
1, 28680, Note_on_c, 0, 61, 52
1, 28680, Control_c, 1, 11, 64
1, 28680, Note_on_c, 1, 33, 120
1, 28680, Control_c, 2, 11, 80
1, 28680, Note_on_c, 2, 57, 120
1, 28680, Note_on_c, 2, 61, 120
1, 28680, Note_on_c, 2, 64, 120
1, 28680, Note_on_c, 4, 45, 101
1, 28680, Note_on_c, 4, 52, 101
1, 28680, Note_on_c, 5, 66, 119
1, 28680, Note_on_c, 5, 78, 119
1, 28680, Note_on_c, 6, 78, 120
1, 28680, Note_on_c, 9, 35, 120
1, 28680, Note_on_c, 9, 42, 120
1, 28680, Note_on_c, 9, 59, 119
1, 28680, Note_on_c, 11, 78, 120
1, 28681, Pitch_bend_c, 5, 1211
1, 28683, Pitch_bend_c, 5, 646
1, 28686, Pitch_bend_c, 5, 565
1, 28688, Pitch_bend_c, 5, 646
1, 28691, Pitch_bend_c, 5, 1373
1, 28693, Pitch_bend_c, 5, 2260
1, 28696, Pitch_bend_c, 5, 3471
1, 28698, Pitch_bend_c, 5, 5085
1, 28701, Pitch_bend_c, 5, 6942
1, 28703, Pitch_bend_c, 5, 8071
1, 28706, Pitch_bend_c, 5, 8192
1, 28709, Note_off_c, 9, 59, 64
1, 28709, Note_off_c, 9, 42, 64
1, 28709, Note_off_c, 9, 35, 64
1, 28739, Note_off_c, 11, 78, 64
1, 28739, Note_off_c, 5, 66, 64
1, 28739, Note_off_c, 0, 61, 64
1, 28739, Note_off_c, 4, 45, 64
1, 28739, Note_off_c, 0, 52, 64
1, 28739, Note_off_c, 4, 52, 64
1, 28739, Note_off_c, 5, 78, 64
1, 28739, Note_off_c, 6, 78, 64
1, 28739, Note_off_c, 0, 57, 64
1, 28740, Note_on_c, 0, 57, 51
1, 28740, Note_on_c, 0, 61, 52
1, 28740, Note_on_c, 0, 64, 78
1, 28740, Control_c, 1, 11, 127
1, 28740, Control_c, 2, 11, 127
1, 28740, Note_on_c, 4, 49, 89
1, 28740, Note_on_c, 4, 52, 101
1, 28740, Note_on_c, 4, 57, 89
1, 28740, Note_on_c, 5, 62, 98
1, 28740, Note_on_c, 5, 74, 98
1, 28740, Note_on_c, 6, 74, 120
1, 28740, Note_on_c, 9, 46, 120
1, 28740, Note_on_c, 9, 73, 111
1, 28740, Note_on_c, 11, 74, 120
1, 28769, Note_off_c, 9, 73, 64
1, 28769, Note_off_c, 4, 52, 64
1, 28769, Note_off_c, 0, 61, 64
1, 28769, Note_off_c, 0, 57, 64
1, 28769, Note_off_c, 0, 64, 64
1, 28769, Note_off_c, 4, 49, 64
1, 28769, Note_off_c, 9, 46, 64
1, 28769, Note_off_c, 4, 57, 64
1, 28770, Note_on_c, 0, 57, 73
1, 28770, Note_on_c, 0, 61, 52
1, 28770, Note_on_c, 0, 64, 83
1, 28770, Note_on_c, 4, 49, 119
1, 28770, Note_on_c, 4, 52, 118
1, 28770, Note_on_c, 4, 57, 105
1, 28799, Note_off_c, 4, 57, 64
1, 28799, Note_off_c, 5, 62, 64
1, 28799, Note_off_c, 1, 33, 64
1, 28799, Note_off_c, 6, 74, 64
1, 28799, Note_off_c, 2, 57, 64
1, 28799, Note_off_c, 5, 74, 64
1, 28799, Note_off_c, 2, 61, 64
1, 28799, Note_off_c, 11, 74, 64
1, 28799, Note_off_c, 4, 49, 64
1, 28799, Note_off_c, 0, 64, 64
1, 28799, Note_off_c, 0, 57, 64
1, 28799, Note_off_c, 2, 64, 64
1, 28799, Note_off_c, 4, 52, 64
1, 28799, Note_off_c, 0, 61, 64
1, 28800, Control_c, 0, 74, 61
1, 28800, Note_on_c, 0, 59, 58
1, 28800, Note_on_c, 0, 62, 91
1, 28800, Control_c, 1, 11, 64
1, 28800, Control_c, 2, 11, 64
1, 28800, Note_on_c, 2, 59, 120
1, 28800, Note_on_c, 2, 62, 120
1, 28800, Note_on_c, 2, 66, 120
1, 28800, Control_c, 4, 74, 61
1, 28800, Note_on_c, 4, 47, 85
1, 28800, Note_on_c, 4, 54, 120
1, 28800, Note_on_c, 5, 59, 105
1, 28800, Note_on_c, 5, 71, 105
1, 28800, Note_on_c, 6, 71, 120
1, 28800, Note_on_c, 9, 35, 120
1, 28800, Note_on_c, 9, 42, 120
1, 28800, Note_on_c, 9, 59, 119
1, 28800, Note_on_c, 11, 71, 120
1, 28815, Control_c, 0, 74, 62
1, 28815, Control_c, 4, 74, 62
1, 28829, Note_off_c, 9, 59, 64
1, 28829, Note_off_c, 9, 42, 64
1, 28829, Note_off_c, 9, 35, 64
1, 28830, Control_c, 0, 74, 63
1, 28830, Control_c, 4, 74, 63
1, 28845, Control_c, 0, 74, 65
1, 28845, Control_c, 4, 74, 65
1, 28859, Note_off_c, 6, 71, 64
1, 28859, Note_off_c, 5, 59, 64
1, 28859, Note_off_c, 4, 54, 64
1, 28859, Note_off_c, 0, 59, 64
1, 28859, Note_off_c, 5, 71, 64
1, 28859, Note_off_c, 11, 71, 64
1, 28859, Note_off_c, 0, 62, 64
1, 28859, Note_off_c, 4, 47, 64
1, 28860, Control_c, 0, 74, 66
1, 28860, Note_on_c, 0, 59, 79
1, 28860, Note_on_c, 0, 62, 95
1, 28860, Note_on_c, 0, 66, 74
1, 28860, Control_c, 1, 11, 127
1, 28860, Control_c, 2, 11, 127
1, 28860, Control_c, 4, 74, 66
1, 28860, Note_on_c, 4, 50, 92
1, 28860, Note_on_c, 4, 54, 87
1, 28860, Note_on_c, 4, 62, 95
1, 28860, Note_on_c, 9, 46, 120
1, 28860, Note_on_c, 9, 73, 109
1, 28875, Control_c, 0, 74, 68
1, 28875, Control_c, 4, 74, 68
1, 28889, Note_off_c, 9, 73, 64
1, 28889, Note_off_c, 9, 46, 64
1, 28890, Control_c, 0, 74, 69
1, 28890, Control_c, 4, 74, 69
1, 28905, Control_c, 0, 74, 71
1, 28905, Control_c, 4, 74, 71
1, 28920, Control_c, 0, 74, 72
1, 28920, Control_c, 1, 11, 64
1, 28920, Control_c, 2, 11, 73
1, 28920, Control_c, 4, 74, 72
1, 28920, Note_on_c, 5, 59, 119
1, 28920, Note_on_c, 5, 71, 119
1, 28920, Note_on_c, 6, 71, 120
1, 28920, Note_on_c, 9, 35, 120
1, 28920, Note_on_c, 9, 42, 120
1, 28920, Note_on_c, 9, 59, 118
1, 28920, Note_on_c, 11, 71, 120
1, 28935, Control_c, 0, 74, 73
1, 28935, Control_c, 4, 74, 73
1, 28949, Note_off_c, 9, 59, 64
1, 28949, Note_off_c, 4, 50, 64
1, 28949, Note_off_c, 4, 54, 64
1, 28949, Note_off_c, 0, 62, 64
1, 28949, Note_off_c, 0, 59, 64
1, 28949, Note_off_c, 4, 62, 64
1, 28949, Note_off_c, 9, 42, 64
1, 28949, Note_off_c, 0, 66, 64
1, 28949, Note_off_c, 9, 35, 64
1, 28950, Control_c, 0, 74, 75
1, 28950, Note_on_c, 0, 59, 71
1, 28950, Note_on_c, 0, 62, 91
1, 28950, Note_on_c, 0, 66, 60
1, 28950, Control_c, 4, 74, 75
1, 28950, Note_on_c, 4, 54, 109
1, 28950, Note_on_c, 4, 59, 95
1, 28965, Control_c, 0, 74, 76
1, 28965, Control_c, 4, 74, 76
1, 28979, Note_off_c, 4, 59, 64
1, 28979, Note_off_c, 0, 66, 64
1, 28979, Note_off_c, 0, 59, 64
1, 28979, Note_off_c, 11, 71, 64
1, 28979, Note_off_c, 6, 71, 64
1, 28979, Note_off_c, 0, 62, 64
1, 28979, Note_off_c, 5, 59, 64
1, 28979, Note_off_c, 5, 71, 64
1, 28979, Note_off_c, 4, 54, 64
1, 28980, Control_c, 0, 74, 78
1, 28980, Note_on_c, 0, 62, 80
1, 28980, Note_on_c, 0, 66, 62
1, 28980, Note_on_c, 0, 71, 91
1, 28980, Control_c, 1, 11, 127
1, 28980, Control_c, 2, 11, 127
1, 28980, Control_c, 4, 74, 78
1, 28980, Note_on_c, 4, 50, 103
1, 28980, Note_on_c, 4, 54, 115
1, 28980, Note_on_c, 9, 46, 120
1, 28980, Note_on_c, 9, 73, 119
1, 28995, Control_c, 0, 74, 79
1, 28995, Control_c, 4, 74, 79
1, 29009, Note_off_c, 9, 73, 64
1, 29009, Note_off_c, 9, 46, 64
1, 29009, Note_off_c, 4, 50, 64
1, 29009, Note_off_c, 0, 62, 64
1, 29009, Note_off_c, 0, 66, 64
1, 29009, Note_off_c, 4, 54, 64
1, 29009, Note_off_c, 0, 71, 64
1, 29010, Control_c, 0, 74, 81
1, 29010, Note_on_c, 0, 59, 51
1, 29010, Note_on_c, 0, 62, 85
1, 29010, Note_on_c, 0, 66, 59
1, 29010, Control_c, 4, 74, 81
1, 29010, Note_on_c, 4, 47, 92
1, 29010, Note_on_c, 4, 52, 98
1, 29010, Note_on_c, 5, 57, 91
1, 29010, Note_on_c, 5, 69, 91
1, 29010, Note_on_c, 6, 69, 120
1, 29010, Note_on_c, 11, 69, 120
1, 29025, Control_c, 0, 74, 82
1, 29025, Control_c, 4, 74, 82
1, 29039, Note_off_c, 11, 69, 64
1, 29039, Note_off_c, 2, 59, 64
1, 29039, Note_off_c, 4, 52, 64
1, 29039, Note_off_c, 2, 62, 64
1, 29039, Note_off_c, 0, 59, 64
1, 29039, Note_off_c, 2, 66, 64
1, 29039, Note_off_c, 0, 62, 64
1, 29039, Note_off_c, 0, 66, 64
1, 29039, Note_off_c, 5, 57, 64
1, 29039, Note_off_c, 4, 47, 64
1, 29039, Note_off_c, 6, 69, 64
1, 29039, Note_off_c, 5, 69, 64
1, 29040, Control_c, 0, 74, 83
1, 29040, Note_on_c, 0, 55, 74
1, 29040, Note_on_c, 0, 59, 94
1, 29040, Note_on_c, 0, 62, 91
1, 29040, Control_c, 1, 11, 64
1, 29040, Control_c, 2, 11, 71
1, 29040, Note_on_c, 2, 59, 120
1, 29040, Note_on_c, 2, 62, 120
1, 29040, Note_on_c, 2, 67, 120
1, 29040, Control_c, 4, 74, 83
1, 29040, Note_on_c, 4, 43, 98
1, 29040, Note_on_c, 4, 50, 116
1, 29040, Note_on_c, 5, 59, 97
1, 29040, Note_on_c, 5, 71, 97
1, 29040, Note_on_c, 6, 71, 120
1, 29040, Note_on_c, 9, 35, 120
1, 29040, Note_on_c, 9, 42, 120
1, 29040, Note_on_c, 9, 59, 116
1, 29040, Note_on_c, 11, 71, 120
1, 29055, Control_c, 0, 74, 85
1, 29055, Control_c, 4, 74, 85
1, 29069, Note_off_c, 11, 71, 64
1, 29069, Note_off_c, 9, 35, 64
1, 29069, Note_off_c, 5, 71, 64
1, 29069, Note_off_c, 5, 59, 64
1, 29069, Note_off_c, 9, 59, 64
1, 29069, Note_off_c, 6, 71, 64
1, 29069, Note_off_c, 9, 42, 64
1, 29070, Control_c, 0, 74, 86
1, 29070, Control_c, 4, 74, 86
1, 29070, Note_on_c, 5, 62, 80
1, 29070, Note_on_c, 5, 74, 80
1, 29070, Note_on_c, 6, 74, 120
1, 29070, Note_on_c, 11, 74, 120
1, 29085, Control_c, 0, 74, 88
1, 29085, Control_c, 4, 74, 88
1, 29099, Note_off_c, 11, 74, 64
1, 29099, Note_off_c, 5, 74, 64
1, 29099, Note_off_c, 0, 55, 64
1, 29099, Note_off_c, 0, 59, 64
1, 29099, Note_off_c, 0, 62, 64
1, 29099, Note_off_c, 4, 43, 64
1, 29099, Note_off_c, 5, 62, 64
1, 29099, Note_off_c, 4, 50, 64
1, 29099, Note_off_c, 6, 74, 64
1, 29100, Control_c, 0, 74, 89
1, 29100, Note_on_c, 0, 59, 70
1, 29100, Note_on_c, 0, 62, 94
1, 29100, Note_on_c, 0, 67, 101
1, 29100, Control_c, 1, 11, 127
1, 29100, Control_c, 2, 11, 127
1, 29100, Control_c, 4, 74, 89
1, 29100, Note_on_c, 4, 50, 79
1, 29100, Note_on_c, 4, 55, 111
1, 29100, Note_on_c, 4, 59, 100
1, 29100, Note_on_c, 5, 59, 113
1, 29100, Note_on_c, 5, 71, 113
1, 29100, Note_on_c, 6, 71, 120
1, 29100, Note_on_c, 9, 46, 120
1, 29100, Note_on_c, 9, 73, 119
1, 29100, Note_on_c, 11, 71, 120
1, 29115, Control_c, 0, 74, 91
1, 29115, Control_c, 4, 74, 91
1, 29129, Note_off_c, 9, 73, 64
1, 29129, Note_off_c, 9, 46, 64
1, 29130, Control_c, 0, 74, 92
1, 29130, Control_c, 4, 74, 92
1, 29145, Control_c, 0, 74, 94
1, 29145, Control_c, 4, 74, 94
1, 29159, Note_off_c, 5, 59, 64
1, 29159, Note_off_c, 6, 71, 64
1, 29159, Note_off_c, 5, 71, 64
1, 29159, Note_off_c, 11, 71, 64
1, 29160, Control_c, 0, 74, 95
1, 29160, Control_c, 1, 11, 64
1, 29160, Control_c, 2, 11, 80
1, 29160, Control_c, 4, 74, 95
1, 29160, Note_on_c, 9, 35, 120
1, 29160, Note_on_c, 9, 42, 120
1, 29160, Note_on_c, 9, 59, 120
1, 29175, Control_c, 0, 74, 96
1, 29175, Control_c, 4, 74, 96
1, 29189, Note_off_c, 9, 59, 64
1, 29189, Note_off_c, 0, 67, 64
1, 29189, Note_off_c, 4, 50, 64
1, 29189, Note_off_c, 4, 59, 64
1, 29189, Note_off_c, 9, 35, 64
1, 29189, Note_off_c, 0, 59, 64
1, 29189, Note_off_c, 0, 62, 64
1, 29189, Note_off_c, 4, 55, 64
1, 29189, Note_off_c, 9, 42, 64
1, 29190, Control_c, 0, 74, 98
1, 29190, Note_on_c, 0, 59, 52
1, 29190, Note_on_c, 0, 62, 85
1, 29190, Note_on_c, 0, 67, 94
1, 29190, Control_c, 4, 74, 98
1, 29190, Note_on_c, 4, 50, 82
1, 29190, Note_on_c, 4, 55, 98
1, 29190, Note_on_c, 4, 59, 85
1, 29190, Note_on_c, 5, 57, 98
1, 29190, Note_on_c, 5, 69, 98
1, 29190, Note_on_c, 6, 69, 120
1, 29190, Note_on_c, 11, 69, 120
1, 29205, Control_c, 0, 74, 99
1, 29205, Control_c, 4, 74, 99
1, 29219, Note_off_c, 11, 69, 64
1, 29219, Note_off_c, 0, 67, 64
1, 29219, Note_off_c, 5, 57, 64
1, 29219, Note_off_c, 4, 55, 64
1, 29219, Note_off_c, 4, 50, 64
1, 29219, Note_off_c, 0, 59, 64
1, 29219, Note_off_c, 4, 59, 64
1, 29219, Note_off_c, 0, 62, 64
1, 29219, Note_off_c, 5, 69, 64
1, 29219, Note_off_c, 6, 69, 64
1, 29220, Control_c, 0, 74, 101
1, 29220, Note_on_c, 0, 62, 78
1, 29220, Note_on_c, 0, 67, 100
1, 29220, Note_on_c, 0, 71, 46
1, 29220, Control_c, 1, 11, 127
1, 29220, Control_c, 2, 11, 127
1, 29220, Control_c, 4, 74, 101
1, 29220, Note_on_c, 4, 43, 109
1, 29220, Note_on_c, 4, 50, 109
1, 29220, Note_on_c, 5, 59, 101
1, 29220, Note_on_c, 5, 71, 101
1, 29220, Note_on_c, 6, 71, 120
1, 29220, Note_on_c, 9, 46, 120
1, 29220, Note_on_c, 9, 73, 115
1, 29220, Note_on_c, 11, 71, 120
1, 29235, Control_c, 0, 74, 102
1, 29235, Control_c, 4, 74, 102
1, 29249, Note_off_c, 11, 71, 64
1, 29249, Note_off_c, 0, 67, 64
1, 29249, Note_off_c, 0, 71, 64
1, 29249, Note_off_c, 5, 71, 64
1, 29249, Note_off_c, 4, 50, 64
1, 29249, Note_off_c, 4, 43, 64
1, 29249, Note_off_c, 0, 62, 64
1, 29249, Note_off_c, 5, 59, 64
1, 29249, Note_off_c, 9, 46, 64
1, 29249, Note_off_c, 6, 71, 64
1, 29249, Note_off_c, 9, 73, 64
1, 29250, Control_c, 0, 74, 104
1, 29250, Note_on_c, 0, 59, 45
1, 29250, Note_on_c, 0, 62, 73
1, 29250, Note_on_c, 0, 67, 86
1, 29250, Control_c, 4, 74, 104
1, 29250, Note_on_c, 4, 43, 101
1, 29250, Note_on_c, 4, 52, 116
1, 29250, Note_on_c, 5, 57, 91
1, 29250, Note_on_c, 5, 69, 91
1, 29250, Note_on_c, 6, 69, 120
1, 29250, Note_on_c, 11, 69, 120
1, 29265, Control_c, 0, 74, 105
1, 29265, Control_c, 4, 74, 105
1, 29279, Note_off_c, 11, 69, 64
1, 29279, Note_off_c, 2, 62, 64
1, 29279, Note_off_c, 4, 52, 64
1, 29279, Note_off_c, 2, 67, 64
1, 29279, Note_off_c, 0, 59, 64
1, 29279, Note_off_c, 2, 59, 64
1, 29279, Note_off_c, 0, 62, 64
1, 29279, Note_off_c, 0, 67, 64
1, 29279, Note_off_c, 5, 57, 64
1, 29279, Note_off_c, 4, 43, 64
1, 29279, Note_off_c, 6, 69, 64
1, 29279, Note_off_c, 5, 69, 64
1, 29280, Control_c, 0, 74, 106
1, 29280, Note_on_c, 0, 54, 35
1, 29280, Note_on_c, 0, 57, 85
1, 29280, Note_on_c, 0, 62, 79
1, 29280, Control_c, 2, 74, 65
1, 29280, Control_c, 2, 11, 64
1, 29280, Note_on_c, 2, 57, 120
1, 29280, Note_on_c, 2, 62, 120
1, 29280, Note_on_c, 2, 66, 120
1, 29280, Control_c, 4, 74, 106
1, 29280, Note_on_c, 4, 45, 90
1, 29280, Note_on_c, 4, 50, 105
1, 29280, Note_on_c, 5, 62, 105
1, 29280, Note_on_c, 5, 74, 105
1, 29280, Note_on_c, 6, 74, 120
1, 29280, Note_on_c, 8, 50, 120
1, 29280, Note_on_c, 8, 62, 120
1, 29280, Note_on_c, 9, 42, 120
1, 29280, Note_on_c, 9, 59, 111
1, 29280, Note_on_c, 11, 74, 120
1, 29295, Control_c, 0, 74, 108
1, 29295, Control_c, 4, 74, 108
1, 29309, Note_off_c, 9, 59, 64
1, 29309, Note_off_c, 9, 42, 64
1, 29310, Control_c, 0, 74, 109
1, 29310, Control_c, 2, 74, 70
1, 29310, Control_c, 4, 74, 109
1, 29325, Control_c, 0, 74, 111
1, 29325, Control_c, 2, 74, 74
1, 29325, Control_c, 4, 74, 111
1, 29339, Note_off_c, 0, 62, 64
1, 29339, Note_off_c, 11, 74, 64
1, 29339, Note_off_c, 5, 74, 64
1, 29339, Note_off_c, 4, 45, 64
1, 29339, Note_off_c, 4, 50, 64
1, 29339, Note_off_c, 0, 54, 64
1, 29339, Note_off_c, 5, 62, 64
1, 29339, Note_off_c, 6, 74, 64
1, 29339, Note_off_c, 0, 57, 64
1, 29340, Control_c, 0, 74, 112
1, 29340, Note_on_c, 0, 57, 69
1, 29340, Note_on_c, 0, 62, 98
1, 29340, Note_on_c, 0, 66, 74
1, 29340, Control_c, 2, 74, 78
1, 29340, Control_c, 2, 11, 127
1, 29340, Control_c, 4, 74, 112
1, 29340, Note_on_c, 4, 45, 100
1, 29340, Note_on_c, 4, 50, 111
1, 29340, Note_on_c, 4, 54, 89
1, 29340, Note_on_c, 9, 46, 120
1, 29340, Note_on_c, 9, 73, 119
1, 29340, Control_c, 12, 11, 95
1, 29355, Control_c, 0, 74, 114
1, 29355, Control_c, 2, 74, 83
1, 29355, Control_c, 4, 74, 114
1, 29369, Note_off_c, 9, 73, 64
1, 29369, Note_off_c, 9, 46, 64
1, 29370, Control_c, 0, 74, 115
1, 29370, Control_c, 2, 74, 87
1, 29370, Control_c, 4, 74, 115
1, 29385, Control_c, 0, 74, 116
1, 29385, Control_c, 2, 74, 91
1, 29385, Control_c, 4, 74, 116
1, 29400, Control_c, 0, 74, 118
1, 29400, Control_c, 2, 74, 96
1, 29400, Control_c, 2, 11, 73
1, 29400, Control_c, 4, 74, 118
1, 29400, Note_on_c, 5, 62, 119
1, 29400, Note_on_c, 5, 74, 119
1, 29400, Note_on_c, 6, 74, 120
1, 29400, Note_on_c, 9, 42, 120
1, 29400, Note_on_c, 9, 59, 119
1, 29400, Note_on_c, 11, 74, 120
1, 29400, Note_on_c, 12, 72, 120
1, 29415, Control_c, 0, 74, 119
1, 29415, Control_c, 2, 74, 100
1, 29415, Control_c, 4, 74, 119
1, 29415, Control_c, 12, 74, 123
1, 29429, Note_off_c, 9, 59, 64
1, 29429, Note_off_c, 9, 42, 64
1, 29429, Note_off_c, 0, 62, 64
1, 29429, Note_off_c, 4, 45, 64
1, 29429, Note_off_c, 0, 66, 64
1, 29429, Note_off_c, 4, 50, 64
1, 29429, Note_off_c, 4, 54, 64
1, 29429, Note_off_c, 0, 57, 64
1, 29430, Control_c, 0, 74, 121
1, 29430, Note_on_c, 0, 54, 44
1, 29430, Note_on_c, 0, 57, 78
1, 29430, Note_on_c, 0, 62, 58
1, 29430, Control_c, 2, 74, 105
1, 29430, Control_c, 4, 74, 121
1, 29430, Note_on_c, 4, 45, 85
1, 29430, Note_on_c, 4, 50, 105
1, 29430, Note_on_c, 4, 54, 81
1, 29430, Control_c, 12, 74, 120
1, 29445, Control_c, 0, 74, 122
1, 29445, Control_c, 2, 74, 109
1, 29445, Control_c, 4, 74, 122
1, 29445, Control_c, 12, 74, 117
1, 29459, Note_off_c, 4, 54, 64
1, 29459, Note_off_c, 4, 50, 64
1, 29459, Note_off_c, 0, 57, 64
1, 29459, Note_off_c, 5, 74, 64
1, 29459, Note_off_c, 5, 62, 64
1, 29459, Note_off_c, 6, 74, 64
1, 29459, Note_off_c, 11, 74, 64
1, 29459, Note_off_c, 4, 45, 64
1, 29459, Note_off_c, 0, 54, 64
1, 29459, Note_off_c, 0, 62, 64
1, 29460, Control_c, 0, 74, 124
1, 29460, Note_on_c, 0, 57, 57
1, 29460, Note_on_c, 0, 62, 91
1, 29460, Note_on_c, 0, 66, 77
1, 29460, Control_c, 2, 74, 113
1, 29460, Control_c, 2, 11, 127
1, 29460, Control_c, 4, 74, 124
1, 29460, Note_on_c, 4, 50, 109
1, 29460, Note_on_c, 4, 54, 89
1, 29460, Note_on_c, 4, 57, 109
1, 29460, Note_on_c, 9, 46, 120
1, 29460, Note_on_c, 9, 73, 119
1, 29460, Control_c, 12, 74, 114
1, 29475, Control_c, 0, 74, 125
1, 29475, Control_c, 2, 74, 118
1, 29475, Control_c, 4, 74, 125
1, 29475, Control_c, 12, 74, 111
1, 29489, Note_off_c, 9, 73, 64
1, 29489, Note_off_c, 4, 50, 64
1, 29489, Note_off_c, 0, 57, 64
1, 29489, Note_off_c, 0, 66, 64
1, 29489, Note_off_c, 0, 62, 64
1, 29489, Note_off_c, 9, 46, 64
1, 29489, Note_off_c, 4, 54, 64
1, 29489, Note_off_c, 4, 57, 64
1, 29490, Control_c, 0, 74, 127
1, 29490, Note_on_c, 0, 54, 35
1, 29490, Note_on_c, 0, 57, 79
1, 29490, Note_on_c, 0, 62, 56
1, 29490, Control_c, 2, 74, 122
1, 29490, Control_c, 4, 74, 127
1, 29490, Note_on_c, 4, 50, 111
1, 29490, Note_on_c, 4, 54, 100
1, 29490, Note_on_c, 4, 57, 100
1, 29490, Note_on_c, 5, 62, 103
1, 29490, Note_on_c, 5, 74, 103
1, 29490, Note_on_c, 6, 74, 120
1, 29490, Note_on_c, 11, 74, 120
1, 29490, Control_c, 12, 74, 107
1, 29505, Control_c, 2, 74, 127
1, 29505, Control_c, 12, 74, 104
1, 29519, Note_off_c, 11, 74, 64
1, 29519, Note_off_c, 6, 74, 64
1, 29519, Note_off_c, 4, 57, 64
1, 29519, Note_off_c, 4, 50, 64
1, 29519, Note_off_c, 0, 54, 64
1, 29519, Note_off_c, 0, 62, 64
1, 29519, Note_off_c, 0, 57, 64
1, 29519, Note_off_c, 5, 74, 64
1, 29519, Note_off_c, 4, 54, 64
1, 29519, Note_off_c, 5, 62, 64
1, 29520, Note_on_c, 0, 54, 49
1, 29520, Note_on_c, 0, 57, 85
1, 29520, Note_on_c, 0, 62, 75
1, 29520, Control_c, 2, 11, 71
1, 29520, Note_on_c, 4, 45, 105
1, 29520, Note_on_c, 4, 50, 116
1, 29520, Note_on_c, 5, 64, 95
1, 29520, Note_on_c, 5, 76, 95
1, 29520, Note_on_c, 6, 76, 120
1, 29520, Note_on_c, 9, 42, 120
1, 29520, Note_on_c, 9, 59, 116
1, 29520, Note_on_c, 11, 76, 120
1, 29520, Control_c, 12, 74, 101
1, 29535, Control_c, 12, 74, 98
1, 29549, Note_off_c, 11, 76, 64
1, 29549, Note_off_c, 9, 59, 64
1, 29549, Note_off_c, 9, 42, 64
1, 29549, Note_off_c, 5, 64, 64
1, 29549, Note_off_c, 6, 76, 64
1, 29549, Note_off_c, 5, 76, 64
1, 29550, Control_c, 0, 74, 122
1, 29550, Control_c, 4, 74, 122
1, 29550, Note_on_c, 5, 62, 86
1, 29550, Note_on_c, 5, 74, 86
1, 29550, Note_on_c, 6, 74, 120
1, 29550, Note_on_c, 11, 74, 120
1, 29550, Control_c, 12, 74, 95
1, 29565, Control_c, 0, 74, 118
1, 29565, Control_c, 4, 74, 118
1, 29565, Control_c, 12, 74, 92
1, 29579, Note_off_c, 11, 74, 64
1, 29579, Note_off_c, 5, 62, 64
1, 29579, Note_off_c, 4, 45, 64
1, 29579, Note_off_c, 4, 50, 64
1, 29579, Note_off_c, 0, 62, 64
1, 29579, Note_off_c, 0, 57, 64
1, 29579, Note_off_c, 6, 74, 64
1, 29579, Note_off_c, 0, 54, 64
1, 29579, Note_off_c, 5, 74, 64
1, 29580, Control_c, 0, 74, 113
1, 29580, Note_on_c, 0, 57, 56
1, 29580, Note_on_c, 0, 62, 84
1, 29580, Note_on_c, 0, 66, 49
1, 29580, Control_c, 2, 11, 127
1, 29580, Control_c, 4, 74, 113
1, 29580, Note_on_c, 4, 50, 105
1, 29580, Note_on_c, 4, 54, 115
1, 29580, Note_on_c, 5, 64, 98
1, 29580, Note_on_c, 5, 76, 98
1, 29580, Note_on_c, 6, 76, 120
1, 29580, Note_on_c, 9, 46, 120
1, 29580, Note_on_c, 9, 73, 119
1, 29580, Note_on_c, 11, 76, 120
1, 29580, Control_c, 12, 74, 88
1, 29595, Control_c, 0, 74, 109
1, 29595, Control_c, 2, 74, 121
1, 29595, Control_c, 4, 74, 109
1, 29595, Control_c, 12, 74, 85
1, 29609, Note_off_c, 9, 73, 64
1, 29609, Note_off_c, 9, 46, 64
1, 29609, Note_off_c, 4, 50, 64
1, 29609, Note_off_c, 0, 57, 64
1, 29609, Note_off_c, 0, 66, 64
1, 29609, Note_off_c, 0, 62, 64
1, 29609, Note_off_c, 4, 54, 64
1, 29610, Control_c, 0, 74, 104
1, 29610, Note_on_c, 0, 57, 84
1, 29610, Note_on_c, 0, 62, 94
1, 29610, Note_on_c, 0, 66, 76
1, 29610, Control_c, 2, 74, 116
1, 29610, Control_c, 4, 74, 104
1, 29610, Note_on_c, 4, 50, 100
1, 29610, Note_on_c, 4, 54, 92
1, 29610, Control_c, 12, 74, 82
1, 29625, Control_c, 0, 74, 100
1, 29625, Control_c, 2, 74, 111
1, 29625, Control_c, 4, 74, 100
1, 29625, Control_c, 12, 74, 79
1, 29630, Pitch_bend_c, 5, 8071
1, 29635, Pitch_bend_c, 5, 6296
1, 29638, Pitch_bend_c, 5, 4197
1, 29639, Note_off_c, 4, 54, 64
1, 29639, Note_off_c, 0, 62, 64
1, 29639, Note_off_c, 6, 76, 64
1, 29639, Note_off_c, 5, 64, 64
1, 29639, Note_off_c, 5, 76, 64
1, 29639, Note_off_c, 2, 57, 64
1, 29639, Note_off_c, 11, 76, 64
1, 29639, Note_off_c, 2, 66, 64
1, 29639, Note_off_c, 2, 62, 64
1, 29639, Note_off_c, 0, 66, 64
1, 29639, Note_off_c, 0, 57, 64
1, 29639, Note_off_c, 4, 50, 64
1, 29640, Control_c, 0, 74, 95
1, 29640, Note_on_c, 0, 52, 47
1, 29640, Note_on_c, 0, 57, 89
1, 29640, Note_on_c, 0, 61, 52
1, 29640, Control_c, 2, 74, 106
1, 29640, Control_c, 2, 11, 80
1, 29640, Note_on_c, 2, 57, 120
1, 29640, Note_on_c, 2, 62, 120
1, 29640, Note_on_c, 2, 66, 120
1, 29640, Control_c, 4, 74, 95
1, 29640, Note_on_c, 4, 45, 101
1, 29640, Note_on_c, 4, 52, 101
1, 29640, Note_on_c, 5, 66, 119
1, 29640, Note_on_c, 5, 78, 119
1, 29640, Pitch_bend_c, 5, 1776
1, 29640, Note_on_c, 6, 78, 120
1, 29640, Note_on_c, 9, 42, 120
1, 29640, Note_on_c, 9, 59, 120
1, 29640, Note_on_c, 11, 78, 120
1, 29640, Control_c, 12, 74, 76
1, 29643, Pitch_bend_c, 5, 0
1, 29655, Control_c, 0, 74, 91
1, 29655, Control_c, 2, 74, 100
1, 29655, Control_c, 4, 74, 91
1, 29655, Control_c, 12, 74, 73
1, 29660, Pitch_bend_c, 5, 646
1, 29663, Pitch_bend_c, 5, 2422
1, 29665, Pitch_bend_c, 5, 4520
1, 29668, Pitch_bend_c, 5, 6942
1, 29669, Note_off_c, 9, 59, 64
1, 29669, Note_off_c, 9, 42, 64
1, 29670, Control_c, 0, 74, 86
1, 29670, Control_c, 2, 74, 95
1, 29670, Control_c, 4, 74, 86
1, 29670, Pitch_bend_c, 5, 8192
1, 29670, Control_c, 12, 74, 69
1, 29685, Control_c, 0, 74, 82
1, 29685, Control_c, 2, 74, 90
1, 29685, Control_c, 4, 74, 82
1, 29685, Control_c, 12, 74, 66
1, 29699, Note_off_c, 11, 78, 64
1, 29699, Note_off_c, 5, 66, 64
1, 29699, Note_off_c, 4, 45, 64
1, 29699, Note_off_c, 0, 57, 64
1, 29699, Note_off_c, 0, 61, 64
1, 29699, Note_off_c, 0, 52, 64
1, 29699, Note_off_c, 6, 78, 64
1, 29699, Note_off_c, 4, 52, 64
1, 29699, Note_off_c, 5, 78, 64
1, 29700, Control_c, 0, 74, 77
1, 29700, Note_on_c, 0, 57, 51
1, 29700, Note_on_c, 0, 61, 52
1, 29700, Note_on_c, 0, 64, 78
1, 29700, Control_c, 2, 74, 85
1, 29700, Control_c, 2, 11, 127
1, 29700, Control_c, 4, 74, 77
1, 29700, Note_on_c, 4, 49, 89
1, 29700, Note_on_c, 4, 52, 101
1, 29700, Note_on_c, 4, 57, 89
1, 29700, Note_on_c, 5, 62, 111
1, 29700, Note_on_c, 5, 74, 111
1, 29700, Note_on_c, 6, 74, 120
1, 29700, Note_on_c, 9, 46, 120
1, 29700, Note_on_c, 9, 73, 115
1, 29700, Note_on_c, 11, 74, 120
1, 29700, Control_c, 12, 74, 63
1, 29715, Control_c, 0, 74, 73
1, 29715, Control_c, 2, 74, 79
1, 29715, Control_c, 4, 74, 73
1, 29715, Control_c, 12, 74, 60
1, 29729, Note_off_c, 9, 73, 64
1, 29729, Note_off_c, 9, 46, 64
1, 29729, Note_off_c, 4, 57, 64
1, 29729, Note_off_c, 4, 49, 64
1, 29729, Note_off_c, 0, 57, 64
1, 29729, Note_off_c, 0, 64, 64
1, 29729, Note_off_c, 0, 61, 64
1, 29729, Note_off_c, 4, 52, 64
1, 29730, Control_c, 0, 74, 68
1, 29730, Note_on_c, 0, 57, 73
1, 29730, Note_on_c, 0, 61, 52
1, 29730, Note_on_c, 0, 64, 83
1, 29730, Control_c, 2, 74, 74
1, 29730, Control_c, 4, 74, 68
1, 29730, Note_on_c, 4, 49, 119
1, 29730, Note_on_c, 4, 52, 118
1, 29730, Note_on_c, 4, 57, 105
1, 29730, Control_c, 12, 74, 57
1, 29745, Control_c, 0, 74, 64
1, 29745, Control_c, 2, 74, 69
1, 29745, Control_c, 4, 74, 64
1, 29759, Note_off_c, 4, 57, 64
1, 29759, Note_off_c, 2, 57, 64
1, 29759, Note_off_c, 0, 61, 64
1, 29759, Note_off_c, 6, 74, 64
1, 29759, Note_off_c, 5, 62, 64
1, 29759, Note_off_c, 4, 52, 64
1, 29759, Note_off_c, 8, 50, 64
1, 29759, Note_off_c, 8, 62, 64
1, 29759, Note_off_c, 11, 74, 64
1, 29759, Note_off_c, 5, 74, 64
1, 29759, Note_off_c, 0, 64, 64
1, 29759, Note_off_c, 0, 57, 64
1, 29759, Note_off_c, 2, 62, 64
1, 29759, Note_off_c, 2, 66, 64
1, 29759, Note_off_c, 4, 49, 64
1, 29760, Note_off_c, 12, 72, 64
1, 29760, Note_on_c, 0, 59, 58
1, 29760, Note_on_c, 0, 62, 91
1, 29760, Note_on_c, 4, 47, 85
1, 29760, Note_on_c, 4, 54, 120
1, 29760, Note_on_c, 9, 44, 111
1, 29819, Note_off_c, 4, 54, 64
1, 29819, Note_off_c, 4, 47, 64
1, 29819, Note_off_c, 0, 59, 64
1, 29819, Note_off_c, 0, 62, 64
1, 29820, Note_on_c, 0, 59, 79
1, 29820, Note_on_c, 0, 62, 95
1, 29820, Note_on_c, 0, 66, 74
1, 29820, Note_on_c, 4, 50, 92
1, 29820, Note_on_c, 4, 54, 87
1, 29820, Note_on_c, 4, 62, 95
1, 29880, Note_on_c, 3, 59, 120
1, 29880, Lyric_t, "I "
1, 29909, Note_off_c, 3, 59, 64
1, 29909, Note_off_c, 4, 62, 64
1, 29909, Note_off_c, 4, 50, 64
1, 29909, Note_off_c, 0, 59, 64
1, 29909, Note_off_c, 0, 62, 64
1, 29909, Note_off_c, 0, 66, 64
1, 29909, Note_off_c, 4, 54, 64
1, 29910, Note_on_c, 0, 59, 71
1, 29910, Note_on_c, 0, 62, 91
1, 29910, Note_on_c, 0, 66, 60
1, 29910, Note_on_c, 3, 59, 111
1, 29910, Note_on_c, 4, 54, 109
1, 29910, Note_on_c, 4, 59, 95
1, 29910, Lyric_t, "tried "
1, 29939, Note_off_c, 4, 59, 64
1, 29939, Note_off_c, 3, 59, 64
1, 29939, Note_off_c, 0, 59, 64
1, 29939, Note_off_c, 0, 62, 64
1, 29939, Note_off_c, 0, 66, 64
1, 29939, Note_off_c, 4, 54, 64
1, 29940, Note_on_c, 0, 62, 80
1, 29940, Note_on_c, 0, 66, 62
1, 29940, Note_on_c, 0, 71, 91
1, 29940, Note_on_c, 4, 50, 103
1, 29940, Note_on_c, 4, 54, 115
1, 29969, Note_off_c, 4, 54, 64
1, 29969, Note_off_c, 0, 62, 64
1, 29969, Note_off_c, 0, 66, 64
1, 29969, Note_off_c, 0, 71, 64
1, 29969, Note_off_c, 4, 50, 64
1, 29970, Note_on_c, 0, 59, 51
1, 29970, Note_on_c, 0, 62, 85
1, 29970, Note_on_c, 0, 66, 59
1, 29970, Note_on_c, 3, 59, 97
1, 29970, Note_on_c, 4, 47, 92
1, 29970, Note_on_c, 4, 52, 98
1, 29970, Lyric_t, "car"
1, 29999, Note_off_c, 4, 52, 64
1, 29999, Note_off_c, 3, 59, 64
1, 29999, Note_off_c, 0, 59, 64
1, 29999, Note_off_c, 0, 62, 64
1, 29999, Note_off_c, 9, 44, 64
1, 29999, Note_off_c, 4, 47, 64
1, 29999, Note_off_c, 0, 66, 64
1, 30000, Note_on_c, 0, 55, 74
1, 30000, Note_on_c, 0, 59, 94
1, 30000, Note_on_c, 0, 62, 91
1, 30000, Note_on_c, 3, 59, 111
1, 30000, Note_on_c, 4, 43, 98
1, 30000, Note_on_c, 4, 50, 116
1, 30000, Lyric_t, "ry"
1, 30059, Note_off_c, 4, 50, 64
1, 30059, Note_off_c, 0, 59, 64
1, 30059, Note_off_c, 0, 62, 64
1, 30059, Note_off_c, 0, 55, 64
1, 30059, Note_off_c, 4, 43, 64
1, 30059, Note_off_c, 3, 59, 64
1, 30060, Note_on_c, 0, 59, 70
1, 30060, Note_on_c, 0, 62, 94
1, 30060, Note_on_c, 0, 67, 101
1, 30060, Note_on_c, 4, 50, 79
1, 30060, Note_on_c, 4, 55, 111
1, 30060, Note_on_c, 4, 59, 100
1, 30090, Note_on_c, 3, 57, 111
1, 30090, Lyric_t, "ing "
1, 30090, Lyric_t, "\015"
1, 30149, Note_off_c, 3, 57, 64
1, 30149, Note_off_c, 4, 55, 64
1, 30149, Note_off_c, 0, 62, 64
1, 30149, Note_off_c, 0, 67, 64
1, 30149, Note_off_c, 0, 59, 64
1, 30149, Note_off_c, 4, 59, 64
1, 30149, Note_off_c, 4, 50, 64
1, 30150, Note_on_c, 0, 59, 52
1, 30150, Note_on_c, 0, 62, 85
1, 30150, Note_on_c, 0, 67, 94
1, 30150, Note_on_c, 4, 50, 82
1, 30150, Note_on_c, 4, 55, 98
1, 30150, Note_on_c, 4, 59, 85
1, 30179, Note_off_c, 4, 59, 64
1, 30179, Note_off_c, 0, 62, 64
1, 30179, Note_off_c, 0, 67, 64
1, 30179, Note_off_c, 0, 59, 64
1, 30179, Note_off_c, 4, 55, 64
1, 30179, Note_off_c, 4, 50, 64
1, 30180, Note_on_c, 0, 62, 78
1, 30180, Note_on_c, 0, 67, 100
1, 30180, Note_on_c, 0, 71, 46
1, 30180, Note_on_c, 3, 54, 109
1, 30180, Note_on_c, 4, 43, 109
1, 30180, Note_on_c, 4, 50, 109
1, 30180, Lyric_t, "the "
1, 30209, Note_off_c, 4, 50, 64
1, 30209, Note_off_c, 0, 67, 64
1, 30209, Note_off_c, 0, 71, 64
1, 30209, Note_off_c, 0, 62, 64
1, 30209, Note_off_c, 4, 43, 64
1, 30209, Note_off_c, 3, 54, 64
1, 30210, Note_on_c, 0, 59, 45
1, 30210, Note_on_c, 0, 62, 73
1, 30210, Note_on_c, 0, 67, 86
1, 30210, Note_on_c, 4, 43, 101
1, 30210, Note_on_c, 4, 52, 116
1, 30239, Note_off_c, 4, 52, 64
1, 30239, Note_off_c, 0, 67, 64
1, 30239, Note_off_c, 0, 59, 64
1, 30239, Note_off_c, 0, 62, 64
1, 30239, Note_off_c, 4, 43, 64
1, 30240, Note_on_c, 0, 54, 35
1, 30240, Note_on_c, 0, 57, 85
1, 30240, Note_on_c, 0, 62, 79
1, 30240, Note_on_c, 3, 57, 113
1, 30240, Note_on_c, 4, 45, 90
1, 30240, Note_on_c, 4, 50, 105
1, 30240, Lyric_t, "weight "
1, 30299, Note_off_c, 4, 50, 64
1, 30299, Note_off_c, 0, 57, 64
1, 30299, Note_off_c, 0, 54, 64
1, 30299, Note_off_c, 0, 62, 64
1, 30299, Note_off_c, 4, 45, 64
1, 30300, Note_on_c, 0, 57, 69
1, 30300, Note_on_c, 0, 62, 98
1, 30300, Note_on_c, 0, 66, 74
1, 30300, Note_on_c, 4, 45, 100
1, 30300, Note_on_c, 4, 50, 111
1, 30300, Note_on_c, 4, 54, 89
1, 30359, Note_off_c, 3, 57, 64
1, 30360, Note_on_c, 3, 54, 120
1, 30360, Lyric_t, "o"
1, 30389, Note_off_c, 3, 54, 64
1, 30389, Note_off_c, 4, 54, 64
1, 30389, Note_off_c, 0, 62, 64
1, 30389, Note_off_c, 0, 66, 64
1, 30389, Note_off_c, 0, 57, 64
1, 30389, Note_off_c, 4, 50, 64
1, 30389, Note_off_c, 4, 45, 64
1, 30390, Note_on_c, 0, 54, 44
1, 30390, Note_on_c, 0, 57, 78
1, 30390, Note_on_c, 0, 62, 58
1, 30390, Note_on_c, 3, 52, 98
1, 30390, Note_on_c, 4, 45, 85
1, 30390, Note_on_c, 4, 50, 105
1, 30390, Note_on_c, 4, 54, 81
1, 30390, Lyric_t, "f "
1, 30419, Note_off_c, 4, 54, 64
1, 30419, Note_off_c, 4, 45, 64
1, 30419, Note_off_c, 0, 57, 64
1, 30419, Note_off_c, 0, 62, 64
1, 30419, Note_off_c, 0, 54, 64
1, 30419, Note_off_c, 4, 50, 64
1, 30419, Note_off_c, 3, 52, 64
1, 30420, Note_on_c, 0, 57, 57
1, 30420, Note_on_c, 0, 62, 91
1, 30420, Note_on_c, 0, 66, 77
1, 30420, Note_on_c, 3, 50, 107
1, 30420, Note_on_c, 4, 50, 109
1, 30420, Note_on_c, 4, 54, 89
1, 30420, Note_on_c, 4, 57, 109
1, 30420, Lyric_t, "the "
1, 30449, Note_off_c, 4, 57, 64
1, 30449, Note_off_c, 4, 50, 64
1, 30449, Note_off_c, 0, 62, 64
1, 30449, Note_off_c, 0, 66, 64
1, 30449, Note_off_c, 0, 57, 64
1, 30449, Note_off_c, 4, 54, 64
1, 30449, Note_off_c, 3, 50, 64
1, 30450, Note_on_c, 0, 54, 35
1, 30450, Note_on_c, 0, 57, 79
1, 30450, Note_on_c, 0, 62, 56
1, 30450, Note_on_c, 3, 50, 120
1, 30450, Note_on_c, 4, 50, 111
1, 30450, Note_on_c, 4, 54, 100
1, 30450, Note_on_c, 4, 57, 100
1, 30450, Lyric_t, "world "
1, 30450, Lyric_t, "\015"
1, 30479, Note_off_c, 4, 57, 64
1, 30479, Note_off_c, 4, 50, 64
1, 30479, Note_off_c, 0, 57, 64
1, 30479, Note_off_c, 0, 54, 64
1, 30479, Note_off_c, 0, 62, 64
1, 30479, Note_off_c, 4, 54, 64
1, 30480, Note_on_c, 0, 54, 35
1, 30480, Note_on_c, 0, 57, 85
1, 30480, Note_on_c, 0, 62, 79
1, 30480, Note_on_c, 4, 45, 90
1, 30480, Note_on_c, 4, 50, 105
1, 30539, Note_off_c, 4, 50, 64
1, 30539, Note_off_c, 0, 54, 64
1, 30539, Note_off_c, 0, 57, 64
1, 30539, Note_off_c, 0, 62, 64
1, 30539, Note_off_c, 4, 45, 64
1, 30540, Note_on_c, 0, 57, 69
1, 30540, Note_on_c, 0, 62, 98
1, 30540, Note_on_c, 0, 66, 74
1, 30540, Note_on_c, 4, 45, 100
1, 30540, Note_on_c, 4, 50, 111
1, 30540, Note_on_c, 4, 54, 89
1, 30599, Note_off_c, 3, 50, 64
1, 30629, Note_off_c, 4, 50, 64
1, 30629, Note_off_c, 0, 62, 64
1, 30629, Note_off_c, 0, 66, 64
1, 30629, Note_off_c, 0, 57, 64
1, 30629, Note_off_c, 4, 54, 64
1, 30629, Note_off_c, 4, 45, 64
1, 30630, Note_on_c, 0, 54, 44
1, 30630, Note_on_c, 0, 57, 78
1, 30630, Note_on_c, 0, 62, 58
1, 30630, Note_on_c, 4, 45, 85
1, 30630, Note_on_c, 4, 50, 105
1, 30630, Note_on_c, 4, 54, 81
1, 30659, Note_off_c, 4, 54, 64
1, 30659, Note_off_c, 0, 57, 64
1, 30659, Note_off_c, 0, 62, 64
1, 30659, Note_off_c, 0, 54, 64
1, 30659, Note_off_c, 4, 50, 64
1, 30659, Note_off_c, 4, 45, 64
1, 30660, Note_on_c, 0, 57, 57
1, 30660, Note_on_c, 0, 62, 91
1, 30660, Note_on_c, 0, 66, 77
1, 30660, Note_on_c, 4, 50, 109
1, 30660, Note_on_c, 4, 54, 89
1, 30660, Note_on_c, 4, 57, 109
1, 30689, Note_off_c, 4, 57, 64
1, 30689, Note_off_c, 0, 62, 64
1, 30689, Note_off_c, 0, 66, 64
1, 30689, Note_off_c, 0, 57, 64
1, 30689, Note_off_c, 4, 54, 64
1, 30689, Note_off_c, 4, 50, 64
1, 30690, Note_on_c, 0, 54, 35
1, 30690, Note_on_c, 0, 57, 79
1, 30690, Note_on_c, 0, 62, 56
1, 30690, Note_on_c, 4, 50, 111
1, 30690, Note_on_c, 4, 54, 100
1, 30690, Note_on_c, 4, 57, 100
1, 30719, Note_off_c, 4, 57, 64
1, 30719, Note_off_c, 0, 57, 64
1, 30719, Note_off_c, 0, 62, 64
1, 30719, Note_off_c, 0, 54, 64
1, 30719, Note_off_c, 4, 54, 64
1, 30719, Note_off_c, 4, 50, 64
1, 30720, Note_on_c, 0, 59, 58
1, 30720, Note_on_c, 0, 62, 91
1, 30720, Note_on_c, 4, 47, 85
1, 30720, Note_on_c, 4, 54, 120
1, 30779, Note_off_c, 4, 54, 64
1, 30779, Note_off_c, 0, 59, 64
1, 30779, Note_off_c, 0, 62, 64
1, 30779, Note_off_c, 4, 47, 64
1, 30780, Note_on_c, 0, 59, 79
1, 30780, Note_on_c, 0, 62, 95
1, 30780, Note_on_c, 0, 66, 74
1, 30780, Note_on_c, 4, 50, 92
1, 30780, Note_on_c, 4, 54, 87
1, 30780, Note_on_c, 4, 62, 95
1, 30840, Note_on_c, 3, 59, 91
1, 30840, Lyric_t, "But "
1, 30869, Note_off_c, 3, 59, 64
1, 30869, Note_off_c, 4, 54, 64
1, 30869, Note_off_c, 0, 62, 64
1, 30869, Note_off_c, 0, 66, 64
1, 30869, Note_off_c, 0, 59, 64
1, 30869, Note_off_c, 4, 62, 64
1, 30869, Note_off_c, 4, 50, 64
1, 30870, Note_on_c, 0, 59, 71
1, 30870, Note_on_c, 0, 62, 91
1, 30870, Note_on_c, 0, 66, 60
1, 30870, Note_on_c, 3, 61, 100
1, 30870, Note_on_c, 4, 54, 109
1, 30870, Note_on_c, 4, 59, 95
1, 30870, Lyric_t, "I "
1, 30899, Note_off_c, 4, 59, 64
1, 30899, Note_off_c, 0, 62, 64
1, 30899, Note_off_c, 0, 66, 64
1, 30899, Note_off_c, 0, 59, 64
1, 30899, Note_off_c, 4, 54, 64
1, 30899, Note_off_c, 3, 61, 64
1, 30900, Note_on_c, 0, 62, 80
1, 30900, Note_on_c, 0, 66, 62
1, 30900, Note_on_c, 0, 71, 91
1, 30900, Note_on_c, 4, 50, 103
1, 30900, Note_on_c, 4, 54, 115
1, 30929, Note_off_c, 4, 54, 64
1, 30929, Note_off_c, 0, 71, 64
1, 30929, Note_off_c, 0, 62, 64
1, 30929, Note_off_c, 0, 66, 64
1, 30929, Note_off_c, 4, 50, 64
1, 30930, Note_on_c, 0, 59, 51
1, 30930, Note_on_c, 0, 62, 85
1, 30930, Note_on_c, 0, 66, 59
1, 30930, Note_on_c, 3, 62, 103
1, 30930, Note_on_c, 4, 47, 92
1, 30930, Note_on_c, 4, 52, 98
1, 30930, Lyric_t, "on"
1, 30959, Note_off_c, 4, 52, 64
1, 30959, Note_off_c, 0, 62, 64
1, 30959, Note_off_c, 0, 66, 64
1, 30959, Note_off_c, 0, 59, 64
1, 30959, Note_off_c, 4, 47, 64
1, 30959, Note_off_c, 3, 62, 64
1, 30960, Note_on_c, 0, 55, 74
1, 30960, Note_on_c, 0, 59, 94
1, 30960, Note_on_c, 0, 62, 91
1, 30960, Note_on_c, 4, 43, 98
1, 30960, Note_on_c, 4, 50, 116
1, 30990, Note_on_c, 3, 62, 103
1, 30990, Lyric_t, "ly "
1, 31019, Note_off_c, 3, 62, 64
1, 31019, Note_off_c, 0, 59, 64
1, 31019, Note_off_c, 0, 62, 64
1, 31019, Note_off_c, 0, 55, 64
1, 31019, Note_off_c, 4, 50, 64
1, 31019, Note_off_c, 4, 43, 64
1, 31020, Note_on_c, 0, 59, 70
1, 31020, Note_on_c, 0, 62, 94
1, 31020, Note_on_c, 0, 67, 101
1, 31020, Note_on_c, 4, 50, 79
1, 31020, Note_on_c, 4, 55, 111
1, 31020, Note_on_c, 4, 59, 100
1, 31050, Note_on_c, 3, 64, 109
1, 31050, Lyric_t, "have "
1, 31079, Note_off_c, 3, 64, 64
1, 31109, Note_off_c, 4, 55, 64
1, 31109, Note_off_c, 0, 62, 64
1, 31109, Note_off_c, 0, 67, 64
1, 31109, Note_off_c, 0, 59, 64
1, 31109, Note_off_c, 4, 59, 64
1, 31109, Note_off_c, 4, 50, 64
1, 31110, Note_on_c, 0, 59, 52
1, 31110, Note_on_c, 0, 62, 85
1, 31110, Note_on_c, 0, 67, 94
1, 31110, Note_on_c, 3, 64, 109
1, 31110, Note_on_c, 4, 50, 82
1, 31110, Note_on_c, 4, 55, 98
1, 31110, Note_on_c, 4, 59, 85
1, 31110, Lyric_t, "two "
1, 31139, Note_off_c, 4, 59, 64
1, 31139, Note_off_c, 4, 50, 64
1, 31139, Note_off_c, 0, 62, 64
1, 31139, Note_off_c, 0, 59, 64
1, 31139, Note_off_c, 0, 67, 64
1, 31139, Note_off_c, 4, 55, 64
1, 31140, Note_on_c, 0, 62, 78
1, 31140, Note_on_c, 0, 67, 100
1, 31140, Note_on_c, 0, 71, 46
1, 31140, Note_on_c, 4, 43, 109
1, 31140, Note_on_c, 4, 50, 109
1, 31169, Note_off_c, 4, 50, 64
1, 31169, Note_off_c, 0, 62, 64
1, 31169, Note_off_c, 0, 67, 64
1, 31169, Note_off_c, 0, 71, 64
1, 31169, Note_off_c, 4, 43, 64
1, 31170, Note_on_c, 0, 59, 45
1, 31170, Note_on_c, 0, 62, 73
1, 31170, Note_on_c, 0, 67, 86
1, 31170, Note_on_c, 4, 43, 101
1, 31170, Note_on_c, 4, 52, 116
1, 31199, Note_off_c, 4, 52, 64
1, 31199, Note_off_c, 0, 59, 64
1, 31199, Note_off_c, 0, 62, 64
1, 31199, Note_off_c, 3, 64, 64
1, 31199, Note_off_c, 4, 43, 64
1, 31199, Note_off_c, 0, 67, 64
1, 31200, Note_on_c, 0, 54, 35
1, 31200, Note_on_c, 0, 57, 85
1, 31200, Note_on_c, 0, 62, 79
1, 31200, Note_on_c, 3, 57, 105
1, 31200, Note_on_c, 4, 45, 90
1, 31200, Note_on_c, 4, 50, 105
1, 31200, Lyric_t, "hands "
1, 31200, Lyric_t, "\015"
1, 31259, Note_off_c, 4, 50, 64
1, 31259, Note_off_c, 0, 57, 64
1, 31259, Note_off_c, 0, 54, 64
1, 31259, Note_off_c, 0, 62, 64
1, 31259, Note_off_c, 4, 45, 64
1, 31260, Note_on_c, 0, 57, 69
1, 31260, Note_on_c, 0, 62, 98
1, 31260, Note_on_c, 0, 66, 74
1, 31260, Note_on_c, 4, 45, 100
1, 31260, Note_on_c, 4, 50, 111
1, 31260, Note_on_c, 4, 54, 89
1, 31349, Note_off_c, 4, 54, 64
1, 31349, Note_off_c, 4, 45, 64
1, 31349, Note_off_c, 0, 57, 64
1, 31349, Note_off_c, 0, 62, 64
1, 31349, Note_off_c, 0, 66, 64
1, 31349, Note_off_c, 4, 50, 64
1, 31350, Note_on_c, 0, 54, 44
1, 31350, Note_on_c, 0, 57, 78
1, 31350, Note_on_c, 0, 62, 58
1, 31350, Note_on_c, 4, 45, 85
1, 31350, Note_on_c, 4, 50, 105
1, 31350, Note_on_c, 4, 54, 81
1, 31379, Note_off_c, 4, 54, 64
1, 31379, Note_off_c, 4, 45, 64
1, 31379, Note_off_c, 0, 54, 64
1, 31379, Note_off_c, 0, 57, 64
1, 31379, Note_off_c, 0, 62, 64
1, 31379, Note_off_c, 4, 50, 64
1, 31380, Note_on_c, 0, 57, 57
1, 31380, Note_on_c, 0, 62, 91
1, 31380, Note_on_c, 0, 66, 77
1, 31380, Note_on_c, 4, 50, 109
1, 31380, Note_on_c, 4, 54, 89
1, 31380, Note_on_c, 4, 57, 109
1, 31409, Note_off_c, 4, 57, 64
1, 31409, Note_off_c, 4, 50, 64
1, 31409, Note_off_c, 0, 57, 64
1, 31409, Note_off_c, 0, 62, 64
1, 31409, Note_off_c, 0, 66, 64
1, 31409, Note_off_c, 4, 54, 64
1, 31410, Note_on_c, 0, 54, 35
1, 31410, Note_on_c, 0, 57, 79
1, 31410, Note_on_c, 0, 62, 56
1, 31410, Note_on_c, 4, 50, 111
1, 31410, Note_on_c, 4, 54, 100
1, 31410, Note_on_c, 4, 57, 100
1, 31439, Note_off_c, 4, 57, 64
1, 31439, Note_off_c, 4, 50, 64
1, 31439, Note_off_c, 0, 54, 64
1, 31439, Note_off_c, 0, 57, 64
1, 31439, Note_off_c, 3, 57, 64
1, 31439, Note_off_c, 4, 54, 64
1, 31439, Note_off_c, 0, 62, 64
1, 31440, Note_on_c, 0, 54, 35
1, 31440, Note_on_c, 0, 57, 85
1, 31440, Note_on_c, 0, 62, 79
1, 31440, Note_on_c, 4, 45, 90
1, 31440, Note_on_c, 4, 50, 105
1, 31499, Note_off_c, 4, 50, 64
1, 31499, Note_off_c, 0, 62, 64
1, 31499, Note_off_c, 0, 54, 64
1, 31499, Note_off_c, 0, 57, 64
1, 31499, Note_off_c, 4, 45, 64
1, 31500, Note_on_c, 0, 57, 69
1, 31500, Note_on_c, 0, 62, 98
1, 31500, Note_on_c, 0, 66, 74
1, 31500, Note_on_c, 4, 45, 100
1, 31500, Note_on_c, 4, 50, 111
1, 31500, Note_on_c, 4, 54, 89
1, 31589, Note_off_c, 4, 54, 64
1, 31589, Note_off_c, 0, 62, 64
1, 31589, Note_off_c, 0, 66, 64
1, 31589, Note_off_c, 0, 57, 64
1, 31589, Note_off_c, 4, 50, 64
1, 31589, Note_off_c, 4, 45, 64
1, 31590, Note_on_c, 0, 54, 44
1, 31590, Note_on_c, 0, 57, 78
1, 31590, Note_on_c, 0, 62, 58
1, 31590, Note_on_c, 4, 45, 85
1, 31590, Note_on_c, 4, 50, 105
1, 31590, Note_on_c, 4, 54, 81
1, 31619, Note_off_c, 4, 54, 64
1, 31619, Note_off_c, 0, 57, 64
1, 31619, Note_off_c, 0, 62, 64
1, 31619, Note_off_c, 0, 54, 64
1, 31619, Note_off_c, 4, 50, 64
1, 31619, Note_off_c, 4, 45, 64
1, 31620, Note_on_c, 0, 57, 57
1, 31620, Note_on_c, 0, 62, 91
1, 31620, Note_on_c, 0, 66, 77
1, 31620, Note_on_c, 4, 50, 109
1, 31620, Note_on_c, 4, 54, 89
1, 31620, Note_on_c, 4, 57, 109
1, 31649, Note_off_c, 4, 57, 64
1, 31649, Note_off_c, 0, 62, 64
1, 31649, Note_off_c, 0, 66, 64
1, 31649, Note_off_c, 0, 57, 64
1, 31649, Note_off_c, 4, 54, 64
1, 31649, Note_off_c, 4, 50, 64
1, 31650, Note_on_c, 0, 54, 35
1, 31650, Note_on_c, 0, 57, 79
1, 31650, Note_on_c, 0, 62, 56
1, 31650, Note_on_c, 4, 50, 111
1, 31650, Note_on_c, 4, 54, 100
1, 31650, Note_on_c, 4, 57, 100
1, 31679, Note_off_c, 4, 57, 64
1, 31679, Note_off_c, 0, 57, 64
1, 31679, Note_off_c, 0, 62, 64
1, 31679, Note_off_c, 0, 54, 64
1, 31679, Note_off_c, 4, 54, 64
1, 31679, Note_off_c, 4, 50, 64
1, 31680, Note_on_c, 0, 59, 58
1, 31680, Note_on_c, 0, 62, 91
1, 31680, Note_on_c, 4, 47, 85
1, 31680, Note_on_c, 4, 54, 120
1, 31739, Note_off_c, 4, 54, 64
1, 31739, Note_off_c, 0, 59, 64
1, 31739, Note_off_c, 0, 62, 64
1, 31739, Note_off_c, 4, 47, 64
1, 31740, Note_on_c, 0, 59, 79
1, 31740, Note_on_c, 0, 62, 95
1, 31740, Note_on_c, 0, 66, 74
1, 31740, Note_on_c, 4, 50, 92
1, 31740, Note_on_c, 4, 54, 87
1, 31740, Note_on_c, 4, 62, 95
1, 31770, Note_on_c, 3, 47, 1
1, 31770, Lyric_t, "I "
1, 31799, Note_off_c, 3, 47, 64
1, 31800, Note_on_c, 3, 59, 116
1, 31800, Lyric_t, "hope "
1, 31829, Note_off_c, 3, 59, 64
1, 31829, Note_off_c, 4, 62, 64
1, 31829, Note_off_c, 0, 62, 64
1, 31829, Note_off_c, 0, 66, 64
1, 31829, Note_off_c, 0, 59, 64
1, 31829, Note_off_c, 4, 54, 64
1, 31829, Note_off_c, 4, 50, 64
1, 31830, Note_on_c, 0, 59, 71
1, 31830, Note_on_c, 0, 62, 91
1, 31830, Note_on_c, 0, 66, 60
1, 31830, Note_on_c, 4, 54, 109
1, 31830, Note_on_c, 4, 59, 95
1, 31859, Note_off_c, 4, 59, 64
1, 31859, Note_off_c, 0, 66, 64
1, 31859, Note_off_c, 0, 59, 64
1, 31859, Note_off_c, 0, 62, 64
1, 31859, Note_off_c, 4, 54, 64
1, 31860, Note_on_c, 0, 62, 80
1, 31860, Note_on_c, 0, 66, 62
1, 31860, Note_on_c, 0, 71, 91
1, 31860, Note_on_c, 3, 59, 100
1, 31860, Note_on_c, 4, 50, 103
1, 31860, Note_on_c, 4, 54, 115
1, 31860, Lyric_t, "I "
1, 31889, Note_off_c, 4, 54, 64
1, 31889, Note_off_c, 0, 66, 64
1, 31889, Note_off_c, 0, 71, 64
1, 31889, Note_off_c, 0, 62, 64
1, 31889, Note_off_c, 4, 50, 64
1, 31889, Note_off_c, 3, 59, 64
1, 31890, Note_on_c, 0, 59, 51
1, 31890, Note_on_c, 0, 62, 85
1, 31890, Note_on_c, 0, 66, 59
1, 31890, Note_on_c, 3, 59, 101
1, 31890, Note_on_c, 4, 47, 92
1, 31890, Note_on_c, 4, 52, 98
1, 31890, Lyric_t, "get "
1, 31919, Note_off_c, 4, 52, 64
1, 31919, Note_off_c, 0, 62, 64
1, 31919, Note_off_c, 0, 59, 64
1, 31919, Note_off_c, 0, 66, 64
1, 31919, Note_off_c, 4, 47, 64
1, 31920, Note_on_c, 0, 55, 74
1, 31920, Note_on_c, 0, 59, 94
1, 31920, Note_on_c, 0, 62, 91
1, 31920, Note_on_c, 4, 43, 98
1, 31920, Note_on_c, 4, 50, 116
1, 31949, Note_off_c, 3, 59, 64
1, 31979, Note_off_c, 0, 59, 64
1, 31979, Note_off_c, 0, 62, 64
1, 31979, Note_off_c, 0, 55, 64
1, 31979, Note_off_c, 4, 50, 64
1, 31979, Note_off_c, 4, 43, 64
1, 31980, Note_on_c, 0, 59, 70
1, 31980, Note_on_c, 0, 62, 94
1, 31980, Note_on_c, 0, 67, 101
1, 31980, Note_on_c, 3, 57, 98
1, 31980, Note_on_c, 4, 50, 79
1, 31980, Note_on_c, 4, 55, 111
1, 31980, Note_on_c, 4, 59, 100
1, 31980, Lyric_t, "the "
1, 32009, Note_off_c, 3, 57, 64
1, 32010, Note_on_c, 3, 57, 111
1, 32010, Lyric_t, "chance "
1, 32010, Lyric_t, "\015"
1, 32069, Note_off_c, 3, 57, 64
1, 32069, Note_off_c, 4, 59, 64
1, 32069, Note_off_c, 0, 62, 64
1, 32069, Note_off_c, 0, 67, 64
1, 32069, Note_off_c, 0, 59, 64
1, 32069, Note_off_c, 4, 55, 64
1, 32069, Note_off_c, 4, 50, 64
1, 32070, Note_on_c, 0, 59, 52
1, 32070, Note_on_c, 0, 62, 85
1, 32070, Note_on_c, 0, 67, 94
1, 32070, Note_on_c, 3, 54, 102
1, 32070, Note_on_c, 4, 50, 82
1, 32070, Note_on_c, 4, 55, 98
1, 32070, Note_on_c, 4, 59, 85
1, 32070, Lyric_t, "to "
1, 32099, Note_off_c, 4, 59, 64
1, 32099, Note_off_c, 4, 50, 64
1, 32099, Note_off_c, 0, 62, 64
1, 32099, Note_off_c, 0, 67, 64
1, 32099, Note_off_c, 0, 59, 64
1, 32099, Note_off_c, 4, 55, 64
1, 32099, Note_off_c, 3, 54, 64
1, 32100, Note_on_c, 0, 62, 78
1, 32100, Note_on_c, 0, 67, 100
1, 32100, Note_on_c, 0, 71, 46
1, 32100, Note_on_c, 4, 43, 109
1, 32100, Note_on_c, 4, 50, 109
1, 32129, Note_off_c, 4, 50, 64
1, 32129, Note_off_c, 0, 71, 64
1, 32129, Note_off_c, 0, 62, 64
1, 32129, Note_off_c, 0, 67, 64
1, 32129, Note_off_c, 4, 43, 64
1, 32130, Note_on_c, 0, 59, 45
1, 32130, Note_on_c, 0, 62, 73
1, 32130, Note_on_c, 0, 67, 86
1, 32130, Note_on_c, 3, 57, 111
1, 32130, Note_on_c, 4, 43, 101
1, 32130, Note_on_c, 4, 52, 116
1, 32130, Lyric_t, "tra"
1, 32159, Note_off_c, 4, 52, 64
1, 32159, Note_off_c, 0, 62, 64
1, 32159, Note_off_c, 0, 59, 64
1, 32159, Note_off_c, 0, 67, 64
1, 32159, Note_off_c, 4, 43, 64
1, 32160, Note_on_c, 0, 54, 35
1, 32160, Note_on_c, 0, 57, 85
1, 32160, Note_on_c, 0, 62, 79
1, 32160, Note_on_c, 4, 45, 90
1, 32160, Note_on_c, 4, 50, 105
1, 32219, Note_off_c, 4, 50, 64
1, 32219, Note_off_c, 0, 54, 64
1, 32219, Note_off_c, 0, 57, 64
1, 32219, Note_off_c, 0, 62, 64
1, 32219, Note_off_c, 4, 45, 64
1, 32220, Note_on_c, 0, 57, 69
1, 32220, Note_on_c, 0, 62, 98
1, 32220, Note_on_c, 0, 66, 74
1, 32220, Note_on_c, 4, 45, 100
1, 32220, Note_on_c, 4, 50, 111
1, 32220, Note_on_c, 4, 54, 89
1, 32249, Note_off_c, 3, 57, 64
1, 32280, Note_on_c, 3, 50, 98
1, 32280, Lyric_t, "vel "
1, 32309, Note_off_c, 3, 50, 64
1, 32309, Note_off_c, 4, 54, 64
1, 32309, Note_off_c, 0, 62, 64
1, 32309, Note_off_c, 0, 66, 64
1, 32309, Note_off_c, 0, 57, 64
1, 32309, Note_off_c, 4, 50, 64
1, 32309, Note_off_c, 4, 45, 64
1, 32310, Note_on_c, 0, 54, 44
1, 32310, Note_on_c, 0, 57, 78
1, 32310, Note_on_c, 0, 62, 58
1, 32310, Note_on_c, 4, 45, 85
1, 32310, Note_on_c, 4, 50, 105
1, 32310, Note_on_c, 4, 54, 81
1, 32339, Note_off_c, 4, 54, 64
1, 32339, Note_off_c, 0, 57, 64
1, 32339, Note_off_c, 0, 62, 64
1, 32339, Note_off_c, 0, 54, 64
1, 32339, Note_off_c, 4, 50, 64
1, 32339, Note_off_c, 4, 45, 64
1, 32340, Note_on_c, 0, 57, 57
1, 32340, Note_on_c, 0, 62, 91
1, 32340, Note_on_c, 0, 66, 77
1, 32340, Note_on_c, 3, 50, 107
1, 32340, Note_on_c, 4, 50, 109
1, 32340, Note_on_c, 4, 54, 89
1, 32340, Note_on_c, 4, 57, 109
1, 32340, Lyric_t, "the "
1, 32369, Note_off_c, 4, 57, 64
1, 32369, Note_off_c, 4, 50, 64
1, 32369, Note_off_c, 0, 62, 64
1, 32369, Note_off_c, 0, 66, 64
1, 32369, Note_off_c, 0, 57, 64
1, 32369, Note_off_c, 4, 54, 64
1, 32369, Note_off_c, 3, 50, 64
1, 32370, Note_on_c, 0, 54, 35
1, 32370, Note_on_c, 0, 57, 79
1, 32370, Note_on_c, 0, 62, 56
1, 32370, Note_on_c, 3, 50, 103
1, 32370, Note_on_c, 4, 50, 111
1, 32370, Note_on_c, 4, 54, 100
1, 32370, Note_on_c, 4, 57, 100
1, 32370, Lyric_t, "world "
1, 32370, Lyric_t, "\015"
1, 32399, Note_off_c, 4, 57, 64
1, 32399, Note_off_c, 4, 50, 64
1, 32399, Note_off_c, 0, 57, 64
1, 32399, Note_off_c, 0, 54, 64
1, 32399, Note_off_c, 0, 62, 64
1, 32399, Note_off_c, 4, 54, 64
1, 32400, Note_on_c, 0, 54, 35
1, 32400, Note_on_c, 0, 57, 85
1, 32400, Note_on_c, 0, 62, 79
1, 32400, Note_on_c, 4, 45, 90
1, 32400, Note_on_c, 4, 50, 105
1, 32459, Note_off_c, 4, 50, 64
1, 32459, Note_off_c, 0, 54, 64
1, 32459, Note_off_c, 0, 57, 64
1, 32459, Note_off_c, 0, 62, 64
1, 32459, Note_off_c, 4, 45, 64
1, 32460, Note_on_c, 0, 57, 69
1, 32460, Note_on_c, 0, 62, 98
1, 32460, Note_on_c, 0, 66, 74
1, 32460, Note_on_c, 4, 45, 100
1, 32460, Note_on_c, 4, 50, 111
1, 32460, Note_on_c, 4, 54, 89
1, 32519, Note_off_c, 3, 50, 64
1, 32549, Note_off_c, 4, 50, 64
1, 32549, Note_off_c, 0, 62, 64
1, 32549, Note_off_c, 0, 66, 64
1, 32549, Note_off_c, 0, 57, 64
1, 32549, Note_off_c, 4, 54, 64
1, 32549, Note_off_c, 4, 45, 64
1, 32550, Note_on_c, 0, 54, 44
1, 32550, Note_on_c, 0, 57, 78
1, 32550, Note_on_c, 0, 62, 58
1, 32550, Note_on_c, 4, 45, 85
1, 32550, Note_on_c, 4, 50, 105
1, 32550, Note_on_c, 4, 54, 81
1, 32579, Note_off_c, 4, 54, 64
1, 32579, Note_off_c, 0, 57, 64
1, 32579, Note_off_c, 0, 62, 64
1, 32579, Note_off_c, 0, 54, 64
1, 32579, Note_off_c, 4, 50, 64
1, 32579, Note_off_c, 4, 45, 64
1, 32580, Note_on_c, 0, 57, 57
1, 32580, Note_on_c, 0, 62, 91
1, 32580, Note_on_c, 0, 66, 77
1, 32580, Note_on_c, 4, 50, 109
1, 32580, Note_on_c, 4, 54, 89
1, 32580, Note_on_c, 4, 57, 109
1, 32609, Note_off_c, 4, 57, 64
1, 32609, Note_off_c, 0, 62, 64
1, 32609, Note_off_c, 0, 66, 64
1, 32609, Note_off_c, 0, 57, 64
1, 32609, Note_off_c, 4, 54, 64
1, 32609, Note_off_c, 4, 50, 64
1, 32610, Note_on_c, 0, 54, 35
1, 32610, Note_on_c, 0, 57, 79
1, 32610, Note_on_c, 0, 62, 56
1, 32610, Note_on_c, 4, 50, 111
1, 32610, Note_on_c, 4, 54, 100
1, 32610, Note_on_c, 4, 57, 100
1, 32639, Note_off_c, 4, 57, 64
1, 32639, Note_off_c, 0, 57, 64
1, 32639, Note_off_c, 0, 62, 64
1, 32639, Note_off_c, 0, 54, 64
1, 32639, Note_off_c, 4, 54, 64
1, 32639, Note_off_c, 4, 50, 64
1, 32640, Note_on_c, 0, 59, 58
1, 32640, Note_on_c, 0, 62, 91
1, 32640, Note_on_c, 4, 47, 85
1, 32640, Note_on_c, 4, 54, 120
1, 32699, Note_off_c, 4, 54, 64
1, 32699, Note_off_c, 0, 59, 64
1, 32699, Note_off_c, 0, 62, 64
1, 32699, Note_off_c, 4, 47, 64
1, 32700, Note_on_c, 0, 59, 79
1, 32700, Note_on_c, 0, 62, 95
1, 32700, Note_on_c, 0, 66, 74
1, 32700, Note_on_c, 4, 50, 92
1, 32700, Note_on_c, 4, 54, 87
1, 32700, Note_on_c, 4, 62, 95
1, 32730, Note_on_c, 3, 50, 98
1, 32730, Lyric_t, "And "
1, 32759, Note_off_c, 3, 50, 64
1, 32760, Note_on_c, 3, 52, 94
1, 32760, Lyric_t, "I "
1, 32789, Note_off_c, 3, 52, 64
1, 32789, Note_off_c, 4, 62, 64
1, 32789, Note_off_c, 0, 62, 64
1, 32789, Note_off_c, 0, 66, 64
1, 32789, Note_off_c, 0, 59, 64
1, 32789, Note_off_c, 4, 54, 64
1, 32789, Note_off_c, 4, 50, 64
1, 32790, Note_on_c, 0, 59, 71
1, 32790, Note_on_c, 0, 62, 91
1, 32790, Note_on_c, 0, 66, 60
1, 32790, Note_on_c, 3, 54, 119
1, 32790, Note_on_c, 4, 54, 109
1, 32790, Note_on_c, 4, 59, 95
1, 32790, Lyric_t, "don't "
1, 32819, Note_off_c, 4, 59, 64
1, 32819, Note_off_c, 0, 62, 64
1, 32819, Note_off_c, 0, 66, 64
1, 32819, Note_off_c, 0, 59, 64
1, 32819, Note_off_c, 4, 54, 64
1, 32819, Note_off_c, 3, 54, 64
1, 32820, Note_on_c, 0, 62, 80
1, 32820, Note_on_c, 0, 66, 62
1, 32820, Note_on_c, 0, 71, 91
1, 32820, Note_on_c, 4, 50, 103
1, 32820, Note_on_c, 4, 54, 115
1, 32849, Note_off_c, 4, 54, 64
1, 32849, Note_off_c, 0, 71, 64
1, 32849, Note_off_c, 0, 62, 64
1, 32849, Note_off_c, 0, 66, 64
1, 32849, Note_off_c, 4, 50, 64
1, 32850, Note_on_c, 0, 59, 51
1, 32850, Note_on_c, 0, 62, 85
1, 32850, Note_on_c, 0, 66, 59
1, 32850, Note_on_c, 3, 55, 119
1, 32850, Note_on_c, 4, 47, 92
1, 32850, Note_on_c, 4, 52, 98
1, 32850, Lyric_t, "have "
1, 32879, Note_off_c, 4, 52, 64
1, 32879, Note_off_c, 0, 62, 64
1, 32879, Note_off_c, 0, 59, 64
1, 32879, Note_off_c, 0, 66, 64
1, 32879, Note_off_c, 4, 47, 64
1, 32880, Note_on_c, 0, 55, 74
1, 32880, Note_on_c, 0, 59, 94
1, 32880, Note_on_c, 0, 62, 91
1, 32880, Note_on_c, 4, 43, 98
1, 32880, Note_on_c, 4, 50, 116
1, 32939, Note_off_c, 4, 50, 64
1, 32939, Note_off_c, 0, 55, 64
1, 32939, Note_off_c, 0, 59, 64
1, 32939, Note_off_c, 0, 62, 64
1, 32939, Note_off_c, 4, 43, 64
1, 32940, Note_on_c, 0, 59, 70
1, 32940, Note_on_c, 0, 62, 94
1, 32940, Note_on_c, 0, 67, 101
1, 32940, Note_on_c, 4, 50, 79
1, 32940, Note_on_c, 4, 55, 111
1, 32940, Note_on_c, 4, 59, 100
1, 32969, Note_off_c, 3, 55, 64
1, 33000, Note_on_c, 3, 57, 116
1, 33000, Lyric_t, "a"
1, 33029, Note_off_c, 3, 57, 64
1, 33029, Note_off_c, 4, 59, 64
1, 33029, Note_off_c, 0, 62, 64
1, 33029, Note_off_c, 0, 67, 64
1, 33029, Note_off_c, 0, 59, 64
1, 33029, Note_off_c, 4, 55, 64
1, 33029, Note_off_c, 4, 50, 64
1, 33030, Note_on_c, 0, 59, 52
1, 33030, Note_on_c, 0, 62, 85
1, 33030, Note_on_c, 0, 67, 94
1, 33030, Note_on_c, 4, 50, 82
1, 33030, Note_on_c, 4, 55, 98
1, 33030, Note_on_c, 4, 59, 85
1, 33059, Note_off_c, 4, 59, 64
1, 33059, Note_off_c, 0, 62, 64
1, 33059, Note_off_c, 0, 67, 64
1, 33059, Note_off_c, 0, 59, 64
1, 33059, Note_off_c, 4, 55, 64
1, 33059, Note_off_c, 4, 50, 64
1, 33060, Note_on_c, 0, 62, 78
1, 33060, Note_on_c, 0, 67, 100
1, 33060, Note_on_c, 0, 71, 46
1, 33060, Note_on_c, 3, 57, 109
1, 33060, Note_on_c, 4, 43, 109
1, 33060, Note_on_c, 4, 50, 109
1, 33060, Lyric_t, "ny "
1, 33089, Note_off_c, 4, 50, 64
1, 33089, Note_off_c, 0, 67, 64
1, 33089, Note_off_c, 0, 71, 64
1, 33089, Note_off_c, 0, 62, 64
1, 33089, Note_off_c, 4, 43, 64
1, 33089, Note_off_c, 3, 57, 64
1, 33090, Note_on_c, 0, 59, 45
1, 33090, Note_on_c, 0, 62, 73
1, 33090, Note_on_c, 0, 67, 86
1, 33090, Note_on_c, 3, 50, 111
1, 33090, Note_on_c, 4, 43, 101
1, 33090, Note_on_c, 4, 52, 116
1, 33090, Lyric_t, "plans "
1, 33090, Lyric_t, "\015"
1, 33119, Note_off_c, 4, 52, 64
1, 33119, Note_off_c, 0, 62, 64
1, 33119, Note_off_c, 0, 59, 64
1, 33119, Note_off_c, 0, 67, 64
1, 33119, Note_off_c, 4, 43, 64
1, 33120, Note_on_c, 0, 54, 35
1, 33120, Note_on_c, 0, 57, 85
1, 33120, Note_on_c, 0, 62, 79
1, 33120, Note_on_c, 4, 45, 90
1, 33120, Note_on_c, 4, 50, 105
1, 33179, Note_off_c, 4, 50, 64
1, 33179, Note_off_c, 0, 54, 64
1, 33179, Note_off_c, 0, 57, 64
1, 33179, Note_off_c, 0, 62, 64
1, 33179, Note_off_c, 4, 45, 64
1, 33180, Note_on_c, 0, 57, 69
1, 33180, Note_on_c, 0, 62, 98
1, 33180, Note_on_c, 0, 66, 74
1, 33180, Note_on_c, 4, 45, 100
1, 33180, Note_on_c, 4, 50, 111
1, 33180, Note_on_c, 4, 54, 89
1, 33269, Note_off_c, 4, 54, 64
1, 33269, Note_off_c, 4, 45, 64
1, 33269, Note_off_c, 0, 57, 64
1, 33269, Note_off_c, 0, 62, 64
1, 33269, Note_off_c, 0, 66, 64
1, 33269, Note_off_c, 4, 50, 64
1, 33270, Note_on_c, 0, 54, 44
1, 33270, Note_on_c, 0, 57, 78
1, 33270, Note_on_c, 0, 62, 58
1, 33270, Note_on_c, 4, 45, 85
1, 33270, Note_on_c, 4, 50, 105
1, 33270, Note_on_c, 4, 54, 81
1, 33299, Note_off_c, 4, 54, 64
1, 33299, Note_off_c, 4, 45, 64
1, 33299, Note_off_c, 0, 54, 64
1, 33299, Note_off_c, 0, 57, 64
1, 33299, Note_off_c, 0, 62, 64
1, 33299, Note_off_c, 4, 50, 64
1, 33300, Note_on_c, 0, 57, 57
1, 33300, Note_on_c, 0, 62, 91
1, 33300, Note_on_c, 0, 66, 77
1, 33300, Note_on_c, 4, 50, 109
1, 33300, Note_on_c, 4, 54, 89
1, 33300, Note_on_c, 4, 57, 109
1, 33329, Note_off_c, 4, 57, 64
1, 33329, Note_off_c, 4, 50, 64
1, 33329, Note_off_c, 0, 57, 64
1, 33329, Note_off_c, 0, 62, 64
1, 33329, Note_off_c, 0, 66, 64
1, 33329, Note_off_c, 4, 54, 64
1, 33330, Note_on_c, 0, 54, 35
1, 33330, Note_on_c, 0, 57, 79
1, 33330, Note_on_c, 0, 62, 56
1, 33330, Note_on_c, 4, 50, 111
1, 33330, Note_on_c, 4, 54, 100
1, 33330, Note_on_c, 4, 57, 100
1, 33359, Note_off_c, 4, 57, 64
1, 33359, Note_off_c, 4, 50, 64
1, 33359, Note_off_c, 0, 54, 64
1, 33359, Note_off_c, 0, 57, 64
1, 33359, Note_off_c, 3, 50, 64
1, 33359, Note_off_c, 4, 54, 64
1, 33359, Note_off_c, 0, 62, 64
1, 33360, Note_on_c, 0, 54, 35
1, 33360, Note_on_c, 0, 57, 85
1, 33360, Note_on_c, 0, 62, 79
1, 33360, Note_on_c, 4, 45, 90
1, 33360, Note_on_c, 4, 50, 105
1, 33419, Note_off_c, 4, 50, 64
1, 33419, Note_off_c, 0, 62, 64
1, 33419, Note_off_c, 0, 54, 64
1, 33419, Note_off_c, 0, 57, 64
1, 33419, Note_off_c, 4, 45, 64
1, 33420, Note_on_c, 0, 57, 69
1, 33420, Note_on_c, 0, 62, 98
1, 33420, Note_on_c, 0, 66, 74
1, 33420, Note_on_c, 4, 45, 100
1, 33420, Note_on_c, 4, 50, 111
1, 33420, Note_on_c, 4, 54, 89
1, 33509, Note_off_c, 4, 54, 64
1, 33509, Note_off_c, 0, 62, 64
1, 33509, Note_off_c, 0, 66, 64
1, 33509, Note_off_c, 0, 57, 64
1, 33509, Note_off_c, 4, 50, 64
1, 33509, Note_off_c, 4, 45, 64
1, 33510, Note_on_c, 0, 54, 44
1, 33510, Note_on_c, 0, 57, 78
1, 33510, Note_on_c, 0, 62, 58
1, 33510, Note_on_c, 4, 45, 85
1, 33510, Note_on_c, 4, 50, 105
1, 33510, Note_on_c, 4, 54, 81
1, 33539, Note_off_c, 4, 54, 64
1, 33539, Note_off_c, 0, 57, 64
1, 33539, Note_off_c, 0, 62, 64
1, 33539, Note_off_c, 0, 54, 64
1, 33539, Note_off_c, 4, 50, 64
1, 33539, Note_off_c, 4, 45, 64
1, 33540, Note_on_c, 0, 57, 57
1, 33540, Note_on_c, 0, 62, 91
1, 33540, Note_on_c, 0, 66, 77
1, 33540, Note_on_c, 4, 50, 109
1, 33540, Note_on_c, 4, 54, 89
1, 33540, Note_on_c, 4, 57, 109
1, 33569, Note_off_c, 4, 57, 64
1, 33569, Note_off_c, 0, 62, 64
1, 33569, Note_off_c, 0, 66, 64
1, 33569, Note_off_c, 0, 57, 64
1, 33569, Note_off_c, 4, 54, 64
1, 33569, Note_off_c, 4, 50, 64
1, 33570, Note_on_c, 0, 54, 35
1, 33570, Note_on_c, 0, 57, 79
1, 33570, Note_on_c, 0, 62, 56
1, 33570, Note_on_c, 4, 50, 111
1, 33570, Note_on_c, 4, 54, 100
1, 33570, Note_on_c, 4, 57, 100
1, 33599, Note_off_c, 4, 57, 64
1, 33599, Note_off_c, 0, 57, 64
1, 33599, Note_off_c, 0, 62, 64
1, 33599, Note_off_c, 0, 54, 64
1, 33599, Note_off_c, 4, 54, 64
1, 33599, Note_off_c, 4, 50, 64
1, 33600, Note_on_c, 0, 59, 58
1, 33600, Note_on_c, 0, 62, 91
1, 33600, Note_on_c, 4, 47, 85
1, 33600, Note_on_c, 4, 54, 120
1, 33600, Note_on_c, 7, 47, 111
1, 33600, Note_on_c, 7, 59, 105
1, 33600, Note_on_c, 7, 62, 119
1, 33600, Note_on_c, 7, 66, 89
1, 33600, Note_on_c, 9, 42, 119
1, 33629, Note_off_c, 9, 42, 64
1, 33659, Note_off_c, 0, 59, 64
1, 33659, Note_off_c, 4, 54, 64
1, 33659, Note_off_c, 4, 47, 64
1, 33659, Note_off_c, 0, 62, 64
1, 33660, Note_on_c, 0, 59, 79
1, 33660, Note_on_c, 0, 62, 95
1, 33660, Note_on_c, 0, 66, 74
1, 33660, Note_on_c, 4, 50, 92
1, 33660, Note_on_c, 4, 54, 87
1, 33660, Note_on_c, 4, 62, 95
1, 33690, Note_on_c, 3, 50, 87
1, 33690, Lyric_t, "I "
1, 33719, Note_off_c, 3, 50, 64
1, 33720, Note_on_c, 3, 59, 109
1, 33720, Note_on_c, 9, 42, 119
1, 33720, Lyric_t, "wish "
1, 33749, Note_off_c, 9, 42, 64
1, 33749, Note_off_c, 4, 50, 64
1, 33749, Note_off_c, 4, 54, 64
1, 33749, Note_off_c, 0, 66, 64
1, 33749, Note_off_c, 4, 62, 64
1, 33749, Note_off_c, 3, 59, 64
1, 33749, Note_off_c, 0, 59, 64
1, 33749, Note_off_c, 0, 62, 64
1, 33750, Note_on_c, 0, 59, 71
1, 33750, Note_on_c, 0, 62, 91
1, 33750, Note_on_c, 0, 66, 60
1, 33750, Note_on_c, 4, 54, 109
1, 33750, Note_on_c, 4, 59, 95
1, 33779, Note_off_c, 4, 59, 64
1, 33779, Note_off_c, 4, 54, 64
1, 33779, Note_off_c, 0, 66, 64
1, 33779, Note_off_c, 0, 59, 64
1, 33779, Note_off_c, 0, 62, 64
1, 33780, Note_on_c, 0, 62, 80
1, 33780, Note_on_c, 0, 66, 62
1, 33780, Note_on_c, 0, 71, 91
1, 33780, Note_on_c, 3, 59, 111
1, 33780, Note_on_c, 4, 50, 103
1, 33780, Note_on_c, 4, 54, 115
1, 33780, Lyric_t, "that "
1, 33809, Note_off_c, 4, 54, 64
1, 33809, Note_off_c, 4, 50, 64
1, 33809, Note_off_c, 0, 71, 64
1, 33809, Note_off_c, 3, 59, 64
1, 33809, Note_off_c, 0, 62, 64
1, 33809, Note_off_c, 0, 66, 64
1, 33810, Note_on_c, 0, 59, 51
1, 33810, Note_on_c, 0, 62, 85
1, 33810, Note_on_c, 0, 66, 59
1, 33810, Note_on_c, 3, 59, 113
1, 33810, Note_on_c, 4, 47, 92
1, 33810, Note_on_c, 4, 52, 98
1, 33810, Lyric_t, "I "
1, 33839, Note_off_c, 4, 52, 64
1, 33839, Note_off_c, 7, 62, 64
1, 33839, Note_off_c, 7, 59, 64
1, 33839, Note_off_c, 4, 47, 64
1, 33839, Note_off_c, 0, 59, 64
1, 33839, Note_off_c, 7, 66, 64
1, 33839, Note_off_c, 0, 66, 64
1, 33839, Note_off_c, 7, 47, 64
1, 33839, Note_off_c, 0, 62, 64
1, 33840, Note_on_c, 0, 55, 74
1, 33840, Note_on_c, 0, 59, 94
1, 33840, Note_on_c, 0, 62, 91
1, 33840, Note_on_c, 4, 43, 98
1, 33840, Note_on_c, 4, 50, 116
1, 33840, Note_on_c, 7, 43, 116
1, 33840, Note_on_c, 7, 59, 105
1, 33840, Note_on_c, 7, 62, 116
1, 33840, Note_on_c, 7, 67, 118
1, 33840, Note_on_c, 9, 42, 119
1, 33869, Note_off_c, 9, 42, 64
1, 33869, Note_off_c, 3, 59, 64
1, 33870, Note_on_c, 3, 57, 119
1, 33870, Lyric_t, "could "
1, 33899, Note_off_c, 3, 57, 64
1, 33899, Note_off_c, 4, 43, 64
1, 33899, Note_off_c, 0, 62, 64
1, 33899, Note_off_c, 0, 55, 64
1, 33899, Note_off_c, 4, 50, 64
1, 33899, Note_off_c, 0, 59, 64
1, 33900, Note_on_c, 0, 59, 70
1, 33900, Note_on_c, 0, 62, 94
1, 33900, Note_on_c, 0, 67, 101
1, 33900, Note_on_c, 4, 50, 79
1, 33900, Note_on_c, 4, 55, 111
1, 33900, Note_on_c, 4, 59, 100
1, 33930, Note_on_c, 3, 57, 111
1, 33930, Lyric_t, "stay "
1, 33930, Lyric_t, "\015"
1, 33960, Note_on_c, 9, 42, 119
1, 33989, Note_off_c, 9, 42, 64
1, 33989, Note_off_c, 4, 59, 64
1, 33989, Note_off_c, 4, 50, 64
1, 33989, Note_off_c, 0, 67, 64
1, 33989, Note_off_c, 4, 55, 64
1, 33989, Note_off_c, 3, 57, 64
1, 33989, Note_off_c, 0, 59, 64
1, 33989, Note_off_c, 0, 62, 64
1, 33990, Note_on_c, 0, 59, 52
1, 33990, Note_on_c, 0, 62, 85
1, 33990, Note_on_c, 0, 67, 94
1, 33990, Note_on_c, 3, 54, 120
1, 33990, Note_on_c, 4, 50, 82
1, 33990, Note_on_c, 4, 55, 98
1, 33990, Note_on_c, 4, 59, 85
1, 33990, Lyric_t, "for"
1, 34019, Note_off_c, 4, 59, 64
1, 34019, Note_off_c, 0, 67, 64
1, 34019, Note_off_c, 4, 55, 64
1, 34019, Note_off_c, 4, 50, 64
1, 34019, Note_off_c, 0, 62, 64
1, 34019, Note_off_c, 0, 59, 64
1, 34020, Note_on_c, 0, 62, 78
1, 34020, Note_on_c, 0, 67, 100
1, 34020, Note_on_c, 0, 71, 46
1, 34020, Note_on_c, 4, 43, 109
1, 34020, Note_on_c, 4, 50, 109
1, 34049, Note_off_c, 4, 50, 64
1, 34049, Note_off_c, 4, 43, 64
1, 34049, Note_off_c, 0, 67, 64
1, 34049, Note_off_c, 0, 71, 64
1, 34049, Note_off_c, 3, 54, 64
1, 34049, Note_off_c, 0, 62, 64
1, 34050, Note_on_c, 0, 59, 45
1, 34050, Note_on_c, 0, 62, 73
1, 34050, Note_on_c, 0, 67, 86
1, 34050, Note_on_c, 4, 43, 101
1, 34050, Note_on_c, 4, 52, 116
1, 34079, Note_off_c, 4, 52, 64
1, 34079, Note_off_c, 7, 67, 64
1, 34079, Note_off_c, 7, 62, 64
1, 34079, Note_off_c, 0, 59, 64
1, 34079, Note_off_c, 7, 43, 64
1, 34079, Note_off_c, 7, 59, 64
1, 34079, Note_off_c, 0, 67, 64
1, 34079, Note_off_c, 0, 62, 64
1, 34079, Note_off_c, 4, 43, 64
1, 34080, Note_on_c, 0, 54, 35
1, 34080, Note_on_c, 0, 57, 85
1, 34080, Note_on_c, 0, 62, 79
1, 34080, Note_on_c, 3, 57, 119
1, 34080, Note_on_c, 4, 45, 90
1, 34080, Note_on_c, 4, 50, 105
1, 34080, Note_on_c, 7, 38, 101
1, 34080, Note_on_c, 7, 57, 109
1, 34080, Note_on_c, 7, 62, 113
1, 34080, Note_on_c, 7, 66, 104
1, 34080, Note_on_c, 9, 42, 120
1, 34080, Lyric_t, "e"
1, 34109, Note_off_c, 9, 42, 64
1, 34139, Note_off_c, 0, 54, 64
1, 34139, Note_off_c, 4, 50, 64
1, 34139, Note_off_c, 0, 62, 64
1, 34139, Note_off_c, 4, 45, 64
1, 34139, Note_off_c, 0, 57, 64
1, 34140, Note_on_c, 0, 57, 69
1, 34140, Note_on_c, 0, 62, 98
1, 34140, Note_on_c, 0, 66, 74
1, 34140, Note_on_c, 4, 45, 100
1, 34140, Note_on_c, 4, 50, 111
1, 34140, Note_on_c, 4, 54, 89
1, 34169, Note_off_c, 3, 57, 64
1, 34200, Note_on_c, 3, 57, 111
1, 34200, Note_on_c, 9, 42, 120
1, 34200, Lyric_t, "ver "
1, 34229, Note_off_c, 9, 42, 64
1, 34229, Note_off_c, 4, 45, 64
1, 34229, Note_off_c, 4, 50, 64
1, 34229, Note_off_c, 0, 66, 64
1, 34229, Note_off_c, 4, 54, 64
1, 34229, Note_off_c, 3, 57, 64
1, 34229, Note_off_c, 0, 57, 64
1, 34229, Note_off_c, 0, 62, 64
1, 34230, Note_on_c, 0, 54, 44
1, 34230, Note_on_c, 0, 57, 78
1, 34230, Note_on_c, 0, 62, 58
1, 34230, Note_on_c, 3, 54, 109
1, 34230, Note_on_c, 4, 45, 85
1, 34230, Note_on_c, 4, 50, 105
1, 34230, Note_on_c, 4, 54, 81
1, 34230, Lyric_t, "this "
1, 34259, Note_off_c, 4, 54, 64
1, 34259, Note_off_c, 3, 54, 64
1, 34259, Note_off_c, 4, 50, 64
1, 34259, Note_off_c, 0, 62, 64
1, 34259, Note_off_c, 4, 45, 64
1, 34259, Note_off_c, 0, 54, 64
1, 34259, Note_off_c, 0, 57, 64
1, 34260, Note_on_c, 0, 57, 57
1, 34260, Note_on_c, 0, 62, 91
1, 34260, Note_on_c, 0, 66, 77
1, 34260, Note_on_c, 4, 50, 109
1, 34260, Note_on_c, 4, 54, 89
1, 34260, Note_on_c, 4, 57, 109
1, 34289, Note_off_c, 4, 57, 64
1, 34289, Note_off_c, 4, 54, 64
1, 34289, Note_off_c, 0, 66, 64
1, 34289, Note_off_c, 4, 50, 64
1, 34289, Note_off_c, 0, 57, 64
1, 34289, Note_off_c, 0, 62, 64
1, 34290, Note_on_c, 0, 54, 35
1, 34290, Note_on_c, 0, 57, 79
1, 34290, Note_on_c, 0, 62, 56
1, 34290, Note_on_c, 4, 50, 111
1, 34290, Note_on_c, 4, 54, 100
1, 34290, Note_on_c, 4, 57, 100
1, 34319, Note_off_c, 4, 57, 64
1, 34319, Note_off_c, 4, 54, 64
1, 34319, Note_off_c, 0, 62, 64
1, 34319, Note_off_c, 4, 50, 64
1, 34319, Note_off_c, 0, 54, 64
1, 34319, Note_off_c, 0, 57, 64
1, 34320, Note_on_c, 0, 54, 35
1, 34320, Note_on_c, 0, 57, 85
1, 34320, Note_on_c, 0, 62, 79
1, 34320, Note_on_c, 3, 57, 119
1, 34320, Note_on_c, 4, 45, 90
1, 34320, Note_on_c, 4, 50, 105
1, 34320, Note_on_c, 9, 42, 119
1, 34320, Lyric_t, "yo"
1, 34349, Note_off_c, 9, 42, 64
1, 34379, Note_off_c, 0, 62, 64
1, 34379, Note_off_c, 4, 50, 64
1, 34379, Note_off_c, 4, 45, 64
1, 34379, Note_off_c, 0, 57, 64
1, 34379, Note_off_c, 0, 54, 64
1, 34380, Note_on_c, 0, 57, 69
1, 34380, Note_on_c, 0, 62, 98
1, 34380, Note_on_c, 0, 66, 74
1, 34380, Note_on_c, 4, 45, 100
1, 34380, Note_on_c, 4, 50, 111
1, 34380, Note_on_c, 4, 54, 89
1, 34439, Note_off_c, 3, 57, 64
1, 34440, Note_on_c, 3, 54, 119
1, 34440, Note_on_c, 9, 42, 120
1, 34440, Lyric_t, "ung "
1, 34440, Lyric_t, "\015"
1, 34469, Note_off_c, 9, 42, 64
1, 34469, Note_off_c, 4, 54, 64
1, 34469, Note_off_c, 0, 66, 64
1, 34469, Note_off_c, 4, 50, 64
1, 34469, Note_off_c, 4, 45, 64
1, 34469, Note_off_c, 0, 62, 64
1, 34469, Note_off_c, 0, 57, 64
1, 34470, Note_on_c, 0, 54, 44
1, 34470, Note_on_c, 0, 57, 78
1, 34470, Note_on_c, 0, 62, 58
1, 34470, Note_on_c, 4, 45, 85
1, 34470, Note_on_c, 4, 50, 105
1, 34470, Note_on_c, 4, 54, 81
1, 34499, Note_off_c, 4, 54, 64
1, 34499, Note_off_c, 0, 62, 64
1, 34499, Note_off_c, 4, 50, 64
1, 34499, Note_off_c, 0, 57, 64
1, 34499, Note_off_c, 4, 45, 64
1, 34499, Note_off_c, 0, 54, 64
1, 34500, Note_on_c, 0, 57, 57
1, 34500, Note_on_c, 0, 62, 91
1, 34500, Note_on_c, 0, 66, 77
1, 34500, Note_on_c, 4, 50, 109
1, 34500, Note_on_c, 4, 54, 89
1, 34500, Note_on_c, 4, 57, 109
1, 34529, Note_off_c, 4, 57, 64
1, 34529, Note_off_c, 0, 66, 64
1, 34529, Note_off_c, 4, 54, 64
1, 34529, Note_off_c, 0, 62, 64
1, 34529, Note_off_c, 4, 50, 64
1, 34529, Note_off_c, 0, 57, 64
1, 34530, Note_on_c, 0, 54, 35
1, 34530, Note_on_c, 0, 57, 79
1, 34530, Note_on_c, 0, 62, 56
1, 34530, Note_on_c, 4, 50, 111
1, 34530, Note_on_c, 4, 54, 100
1, 34530, Note_on_c, 4, 57, 100
1, 34559, Note_off_c, 4, 57, 64
1, 34559, Note_off_c, 0, 62, 64
1, 34559, Note_off_c, 7, 57, 64
1, 34559, Note_off_c, 3, 54, 64
1, 34559, Note_off_c, 7, 38, 64
1, 34559, Note_off_c, 7, 62, 64
1, 34559, Note_off_c, 7, 66, 64
1, 34559, Note_off_c, 4, 50, 64
1, 34559, Note_off_c, 0, 57, 64
1, 34559, Note_off_c, 0, 54, 64
1, 34559, Note_off_c, 4, 54, 64
1, 34560, Note_on_c, 0, 59, 58
1, 34560, Note_on_c, 0, 62, 91
1, 34560, Note_on_c, 4, 47, 85
1, 34560, Note_on_c, 4, 54, 120
1, 34560, Note_on_c, 7, 47, 116
1, 34560, Note_on_c, 7, 59, 90
1, 34560, Note_on_c, 7, 62, 111
1, 34560, Note_on_c, 7, 66, 81
1, 34560, Note_on_c, 9, 42, 115
1, 34589, Note_off_c, 9, 42, 64
1, 34619, Note_off_c, 0, 59, 64
1, 34619, Note_off_c, 4, 54, 64
1, 34619, Note_off_c, 4, 47, 64
1, 34619, Note_off_c, 0, 62, 64
1, 34620, Note_on_c, 0, 59, 79
1, 34620, Note_on_c, 0, 62, 95
1, 34620, Note_on_c, 0, 66, 74
1, 34620, Note_on_c, 4, 50, 92
1, 34620, Note_on_c, 4, 54, 87
1, 34620, Note_on_c, 4, 62, 95
1, 34680, Note_on_c, 3, 59, 116
1, 34680, Note_on_c, 9, 42, 109
1, 34680, Lyric_t, "Not "
1, 34709, Note_off_c, 9, 42, 64
1, 34709, Note_off_c, 4, 62, 64
1, 34709, Note_off_c, 4, 50, 64
1, 34709, Note_off_c, 0, 66, 64
1, 34709, Note_off_c, 4, 54, 64
1, 34709, Note_off_c, 3, 59, 64
1, 34709, Note_off_c, 0, 59, 64
1, 34709, Note_off_c, 0, 62, 64
1, 34710, Note_on_c, 0, 59, 71
1, 34710, Note_on_c, 0, 62, 91
1, 34710, Note_on_c, 0, 66, 60
1, 34710, Note_on_c, 4, 54, 109
1, 34710, Note_on_c, 4, 59, 95
1, 34739, Note_off_c, 4, 59, 64
1, 34739, Note_off_c, 4, 54, 64
1, 34739, Note_off_c, 0, 66, 64
1, 34739, Note_off_c, 0, 59, 64
1, 34739, Note_off_c, 0, 62, 64
1, 34740, Note_on_c, 0, 62, 80
1, 34740, Note_on_c, 0, 66, 62
1, 34740, Note_on_c, 0, 71, 91
1, 34740, Note_on_c, 3, 61, 119
1, 34740, Note_on_c, 4, 50, 103
1, 34740, Note_on_c, 4, 54, 115
1, 34740, Lyric_t, "af"
1, 34769, Note_off_c, 4, 54, 64
1, 34769, Note_off_c, 4, 50, 64
1, 34769, Note_off_c, 0, 71, 64
1, 34769, Note_off_c, 3, 61, 64
1, 34769, Note_off_c, 0, 62, 64
1, 34769, Note_off_c, 0, 66, 64
1, 34770, Note_on_c, 0, 59, 51
1, 34770, Note_on_c, 0, 62, 85
1, 34770, Note_on_c, 0, 66, 59
1, 34770, Note_on_c, 3, 62, 119
1, 34770, Note_on_c, 4, 47, 92
1, 34770, Note_on_c, 4, 52, 98
1, 34770, Lyric_t, "raid "
1, 34799, Note_off_c, 4, 52, 64
1, 34799, Note_off_c, 7, 62, 64
1, 34799, Note_off_c, 7, 59, 64
1, 34799, Note_off_c, 4, 47, 64
1, 34799, Note_off_c, 0, 59, 64
1, 34799, Note_off_c, 7, 66, 64
1, 34799, Note_off_c, 0, 66, 64
1, 34799, Note_off_c, 7, 47, 64
1, 34799, Note_off_c, 0, 62, 64
1, 34800, Note_on_c, 0, 55, 74
1, 34800, Note_on_c, 0, 59, 94
1, 34800, Note_on_c, 0, 62, 91
1, 34800, Note_on_c, 4, 43, 98
1, 34800, Note_on_c, 4, 50, 116
1, 34800, Note_on_c, 7, 43, 101
1, 34800, Note_on_c, 7, 59, 105
1, 34800, Note_on_c, 7, 62, 118
1, 34800, Note_on_c, 7, 67, 116
1, 34800, Note_on_c, 9, 42, 115
1, 34829, Note_off_c, 9, 42, 64
1, 34829, Note_off_c, 3, 62, 64
1, 34859, Note_off_c, 0, 62, 64
1, 34859, Note_off_c, 0, 55, 64
1, 34859, Note_off_c, 4, 43, 64
1, 34859, Note_off_c, 4, 50, 64
1, 34859, Note_off_c, 0, 59, 64
1, 34860, Note_on_c, 0, 59, 70
1, 34860, Note_on_c, 0, 62, 94
1, 34860, Note_on_c, 0, 67, 101
1, 34860, Note_on_c, 3, 62, 116
1, 34860, Note_on_c, 4, 50, 79
1, 34860, Note_on_c, 4, 55, 111
1, 34860, Note_on_c, 4, 59, 100
1, 34860, Lyric_t, "to "
1, 34889, Note_off_c, 3, 62, 64
1, 34890, Note_on_c, 3, 64, 119
1, 34890, Lyric_t, "close "
1, 34919, Note_off_c, 3, 64, 64
1, 34920, Note_on_c, 9, 42, 115
1, 34949, Note_off_c, 9, 42, 64
1, 34949, Note_off_c, 4, 59, 64
1, 34949, Note_off_c, 4, 55, 64
1, 34949, Note_off_c, 0, 67, 64
1, 34949, Note_off_c, 4, 50, 64
1, 34949, Note_off_c, 0, 59, 64
1, 34949, Note_off_c, 0, 62, 64
1, 34950, Note_on_c, 0, 59, 52
1, 34950, Note_on_c, 0, 62, 85
1, 34950, Note_on_c, 0, 67, 94
1, 34950, Note_on_c, 3, 64, 105
1, 34950, Note_on_c, 4, 50, 82
1, 34950, Note_on_c, 4, 55, 98
1, 34950, Note_on_c, 4, 59, 85
1, 34950, Lyric_t, "my "
1, 34979, Note_off_c, 4, 59, 64
1, 34979, Note_off_c, 0, 67, 64
1, 34979, Note_off_c, 4, 55, 64
1, 34979, Note_off_c, 4, 50, 64
1, 34979, Note_off_c, 0, 62, 64
1, 34979, Note_off_c, 0, 59, 64
1, 34980, Note_on_c, 0, 62, 78
1, 34980, Note_on_c, 0, 67, 100
1, 34980, Note_on_c, 0, 71, 46
1, 34980, Note_on_c, 4, 43, 109
1, 34980, Note_on_c, 4, 50, 109
1, 35009, Note_off_c, 4, 50, 64
1, 35009, Note_off_c, 4, 43, 64
1, 35009, Note_off_c, 0, 67, 64
1, 35009, Note_off_c, 0, 71, 64
1, 35009, Note_off_c, 0, 62, 64
1, 35010, Note_on_c, 0, 59, 45
1, 35010, Note_on_c, 0, 62, 73
1, 35010, Note_on_c, 0, 67, 86
1, 35010, Note_on_c, 4, 43, 101
1, 35010, Note_on_c, 4, 52, 116
1, 35039, Note_off_c, 4, 52, 64
1, 35039, Note_off_c, 7, 62, 64
1, 35039, Note_off_c, 3, 64, 64
1, 35039, Note_off_c, 7, 67, 64
1, 35039, Note_off_c, 7, 59, 64
1, 35039, Note_off_c, 7, 43, 64
1, 35039, Note_off_c, 0, 67, 64
1, 35039, Note_off_c, 0, 62, 64
1, 35039, Note_off_c, 0, 59, 64
1, 35039, Note_off_c, 4, 43, 64
1, 35040, Note_on_c, 0, 54, 35
1, 35040, Note_on_c, 0, 57, 85
1, 35040, Note_on_c, 0, 62, 79
1, 35040, Note_on_c, 3, 57, 119
1, 35040, Note_on_c, 4, 45, 90
1, 35040, Note_on_c, 4, 50, 105
1, 35040, Note_on_c, 7, 38, 111
1, 35040, Note_on_c, 7, 57, 116
1, 35040, Note_on_c, 7, 62, 118
1, 35040, Note_on_c, 7, 66, 109
1, 35040, Note_on_c, 9, 42, 120
1, 35040, Lyric_t, "eyes "
1, 35040, Lyric_t, "\015"
1, 35069, Note_off_c, 9, 42, 64
1, 35099, Note_off_c, 0, 54, 64
1, 35099, Note_off_c, 4, 50, 64
1, 35099, Note_off_c, 0, 62, 64
1, 35099, Note_off_c, 4, 45, 64
1, 35099, Note_off_c, 0, 57, 64
1, 35100, Note_on_c, 0, 57, 69
1, 35100, Note_on_c, 0, 62, 98
1, 35100, Note_on_c, 0, 66, 74
1, 35100, Note_on_c, 4, 45, 100
1, 35100, Note_on_c, 4, 50, 111
1, 35100, Note_on_c, 4, 54, 89
1, 35160, Note_on_c, 9, 42, 119
1, 35189, Note_off_c, 9, 42, 64
1, 35189, Note_off_c, 4, 50, 64
1, 35189, Note_off_c, 0, 66, 64
1, 35189, Note_off_c, 0, 62, 64
1, 35189, Note_off_c, 4, 45, 64
1, 35189, Note_off_c, 4, 54, 64
1, 35189, Note_off_c, 0, 57, 64
1, 35190, Note_on_c, 0, 54, 44
1, 35190, Note_on_c, 0, 57, 78
1, 35190, Note_on_c, 0, 62, 58
1, 35190, Note_on_c, 4, 45, 85
1, 35190, Note_on_c, 4, 50, 105
1, 35190, Note_on_c, 4, 54, 81
1, 35219, Note_off_c, 4, 54, 64
1, 35219, Note_off_c, 0, 62, 64
1, 35219, Note_off_c, 4, 50, 64
1, 35219, Note_off_c, 0, 57, 64
1, 35219, Note_off_c, 4, 45, 64
1, 35219, Note_off_c, 0, 54, 64
1, 35220, Note_on_c, 0, 57, 57
1, 35220, Note_on_c, 0, 62, 91
1, 35220, Note_on_c, 0, 66, 77
1, 35220, Note_on_c, 4, 50, 109
1, 35220, Note_on_c, 4, 54, 89
1, 35220, Note_on_c, 4, 57, 109
1, 35249, Note_off_c, 4, 57, 64
1, 35249, Note_off_c, 0, 66, 64
1, 35249, Note_off_c, 4, 54, 64
1, 35249, Note_off_c, 0, 62, 64
1, 35249, Note_off_c, 4, 50, 64
1, 35249, Note_off_c, 0, 57, 64
1, 35250, Note_on_c, 0, 54, 35
1, 35250, Note_on_c, 0, 57, 79
1, 35250, Note_on_c, 0, 62, 56
1, 35250, Note_on_c, 4, 50, 111
1, 35250, Note_on_c, 4, 54, 100
1, 35250, Note_on_c, 4, 57, 100
1, 35279, Note_off_c, 4, 57, 64
1, 35279, Note_off_c, 0, 62, 64
1, 35279, Note_off_c, 4, 54, 64
1, 35279, Note_off_c, 0, 57, 64
1, 35279, Note_off_c, 4, 50, 64
1, 35279, Note_off_c, 3, 57, 64
1, 35279, Note_off_c, 0, 54, 64
1, 35280, Note_on_c, 0, 54, 35
1, 35280, Note_on_c, 0, 57, 85
1, 35280, Note_on_c, 0, 62, 79
1, 35280, Note_on_c, 4, 45, 90
1, 35280, Note_on_c, 4, 50, 105
1, 35280, Note_on_c, 9, 42, 115
1, 35309, Note_off_c, 9, 42, 64
1, 35339, Note_off_c, 4, 50, 64
1, 35339, Note_off_c, 0, 62, 64
1, 35339, Note_off_c, 4, 45, 64
1, 35339, Note_off_c, 0, 54, 64
1, 35339, Note_off_c, 0, 57, 64
1, 35340, Note_on_c, 0, 57, 69
1, 35340, Note_on_c, 0, 62, 98
1, 35340, Note_on_c, 0, 66, 74
1, 35340, Note_on_c, 4, 45, 100
1, 35340, Note_on_c, 4, 50, 111
1, 35340, Note_on_c, 4, 54, 89
1, 35400, Note_on_c, 9, 42, 120
1, 35429, Note_off_c, 9, 42, 64
1, 35429, Note_off_c, 4, 45, 64
1, 35429, Note_off_c, 4, 54, 64
1, 35429, Note_off_c, 0, 66, 64
1, 35429, Note_off_c, 4, 50, 64
1, 35429, Note_off_c, 0, 57, 64
1, 35429, Note_off_c, 0, 62, 64
1, 35430, Note_on_c, 0, 54, 44
1, 35430, Note_on_c, 0, 57, 78
1, 35430, Note_on_c, 0, 62, 58
1, 35430, Note_on_c, 4, 45, 85
1, 35430, Note_on_c, 4, 50, 105
1, 35430, Note_on_c, 4, 54, 81
1, 35459, Note_off_c, 4, 54, 64
1, 35459, Note_off_c, 4, 50, 64
1, 35459, Note_off_c, 0, 62, 64
1, 35459, Note_off_c, 4, 45, 64
1, 35459, Note_off_c, 0, 54, 64
1, 35459, Note_off_c, 0, 57, 64
1, 35460, Note_on_c, 0, 57, 57
1, 35460, Note_on_c, 0, 62, 91
1, 35460, Note_on_c, 0, 66, 77
1, 35460, Note_on_c, 4, 50, 109
1, 35460, Note_on_c, 4, 54, 89
1, 35460, Note_on_c, 4, 57, 109
1, 35489, Note_off_c, 4, 57, 64
1, 35489, Note_off_c, 4, 54, 64
1, 35489, Note_off_c, 0, 66, 64
1, 35489, Note_off_c, 4, 50, 64
1, 35489, Note_off_c, 0, 57, 64
1, 35489, Note_off_c, 0, 62, 64
1, 35490, Note_on_c, 0, 54, 35
1, 35490, Note_on_c, 0, 57, 79
1, 35490, Note_on_c, 0, 62, 56
1, 35490, Note_on_c, 4, 50, 111
1, 35490, Note_on_c, 4, 54, 100
1, 35490, Note_on_c, 4, 57, 100
1, 35519, Note_off_c, 4, 57, 64
1, 35519, Note_off_c, 7, 57, 64
1, 35519, Note_off_c, 7, 66, 64
1, 35519, Note_off_c, 7, 38, 64
1, 35519, Note_off_c, 0, 54, 64
1, 35519, Note_off_c, 7, 62, 64
1, 35519, Note_off_c, 4, 50, 64
1, 35519, Note_off_c, 0, 62, 64
1, 35519, Note_off_c, 0, 57, 64
1, 35519, Note_off_c, 4, 54, 64
1, 35520, Note_on_c, 0, 59, 58
1, 35520, Note_on_c, 0, 62, 91
1, 35520, Note_on_c, 4, 47, 85
1, 35520, Note_on_c, 4, 54, 120
1, 35520, Note_on_c, 7, 47, 111
1, 35520, Note_on_c, 7, 59, 105
1, 35520, Note_on_c, 7, 62, 119
1, 35520, Note_on_c, 7, 66, 89
1, 35520, Note_on_c, 9, 42, 119
1, 35549, Note_off_c, 9, 42, 64
1, 35579, Note_off_c, 0, 59, 64
1, 35579, Note_off_c, 4, 54, 64
1, 35579, Note_off_c, 4, 47, 64
1, 35579, Note_off_c, 0, 62, 64
1, 35580, Note_on_c, 0, 59, 79
1, 35580, Note_on_c, 0, 62, 95
1, 35580, Note_on_c, 0, 66, 74
1, 35580, Note_on_c, 4, 50, 92
1, 35580, Note_on_c, 4, 54, 87
1, 35580, Note_on_c, 4, 62, 95
1, 35640, Note_on_c, 3, 59, 120
1, 35640, Note_on_c, 9, 42, 119
1, 35640, Lyric_t, "Life's "
1, 35669, Note_off_c, 9, 42, 64
1, 35669, Note_off_c, 4, 62, 64
1, 35669, Note_off_c, 4, 50, 64
1, 35669, Note_off_c, 0, 66, 64
1, 35669, Note_off_c, 4, 54, 64
1, 35669, Note_off_c, 3, 59, 64
1, 35669, Note_off_c, 0, 59, 64
1, 35669, Note_off_c, 0, 62, 64
1, 35670, Note_on_c, 0, 59, 71
1, 35670, Note_on_c, 0, 62, 91
1, 35670, Note_on_c, 0, 66, 60
1, 35670, Note_on_c, 4, 54, 109
1, 35670, Note_on_c, 4, 59, 95
1, 35699, Note_off_c, 4, 59, 64
1, 35699, Note_off_c, 4, 54, 64
1, 35699, Note_off_c, 0, 66, 64
1, 35699, Note_off_c, 0, 59, 64
1, 35699, Note_off_c, 0, 62, 64
1, 35700, Note_on_c, 0, 62, 80
1, 35700, Note_on_c, 0, 66, 62
1, 35700, Note_on_c, 0, 71, 91
1, 35700, Note_on_c, 3, 61, 115
1, 35700, Note_on_c, 4, 50, 103
1, 35700, Note_on_c, 4, 54, 115
1, 35700, Lyric_t, "a "
1, 35729, Note_off_c, 4, 54, 64
1, 35729, Note_off_c, 4, 50, 64
1, 35729, Note_off_c, 0, 71, 64
1, 35729, Note_off_c, 3, 61, 64
1, 35729, Note_off_c, 0, 62, 64
1, 35729, Note_off_c, 0, 66, 64
1, 35730, Note_on_c, 0, 59, 51
1, 35730, Note_on_c, 0, 62, 85
1, 35730, Note_on_c, 0, 66, 59
1, 35730, Note_on_c, 3, 62, 116
1, 35730, Note_on_c, 4, 47, 92
1, 35730, Note_on_c, 4, 52, 98
1, 35730, Lyric_t, "game, "
1, 35759, Note_off_c, 4, 52, 64
1, 35759, Note_off_c, 7, 62, 64
1, 35759, Note_off_c, 7, 59, 64
1, 35759, Note_off_c, 4, 47, 64
1, 35759, Note_off_c, 0, 59, 64
1, 35759, Note_off_c, 7, 66, 64
1, 35759, Note_off_c, 0, 66, 64
1, 35759, Note_off_c, 7, 47, 64
1, 35759, Note_off_c, 0, 62, 64
1, 35760, Note_on_c, 0, 55, 74
1, 35760, Note_on_c, 0, 59, 94
1, 35760, Note_on_c, 0, 62, 91
1, 35760, Note_on_c, 4, 43, 98
1, 35760, Note_on_c, 4, 50, 116
1, 35760, Note_on_c, 7, 43, 116
1, 35760, Note_on_c, 7, 59, 105
1, 35760, Note_on_c, 7, 62, 116
1, 35760, Note_on_c, 7, 67, 118
1, 35760, Note_on_c, 9, 42, 119
1, 35789, Note_off_c, 9, 42, 64
1, 35819, Note_off_c, 0, 59, 64
1, 35819, Note_off_c, 4, 50, 64
1, 35819, Note_off_c, 3, 62, 64
1, 35819, Note_off_c, 0, 62, 64
1, 35819, Note_off_c, 4, 43, 64
1, 35819, Note_off_c, 0, 55, 64
1, 35820, Note_on_c, 0, 59, 70
1, 35820, Note_on_c, 0, 62, 94
1, 35820, Note_on_c, 0, 67, 101
1, 35820, Note_on_c, 4, 50, 79
1, 35820, Note_on_c, 4, 55, 111
1, 35820, Note_on_c, 4, 59, 100
1, 35850, Note_on_c, 3, 61, 119
1, 35850, Lyric_t, "made "
1, 35880, Note_on_c, 9, 42, 119
1, 35909, Note_off_c, 9, 42, 64
1, 35909, Note_off_c, 4, 59, 64
1, 35909, Note_off_c, 4, 50, 64
1, 35909, Note_off_c, 0, 67, 64
1, 35909, Note_off_c, 4, 55, 64
1, 35909, Note_off_c, 3, 61, 64
1, 35909, Note_off_c, 0, 59, 64
1, 35909, Note_off_c, 0, 62, 64
1, 35910, Note_on_c, 0, 59, 52
1, 35910, Note_on_c, 0, 62, 85
1, 35910, Note_on_c, 0, 67, 94
1, 35910, Note_on_c, 4, 50, 82
1, 35910, Note_on_c, 4, 55, 98
1, 35910, Note_on_c, 4, 59, 85
1, 35939, Note_off_c, 4, 59, 64
1, 35939, Note_off_c, 4, 55, 64
1, 35939, Note_off_c, 0, 67, 64
1, 35939, Note_off_c, 4, 50, 64
1, 35939, Note_off_c, 0, 59, 64
1, 35939, Note_off_c, 0, 62, 64
1, 35940, Note_on_c, 0, 62, 78
1, 35940, Note_on_c, 0, 67, 100
1, 35940, Note_on_c, 0, 71, 46
1, 35940, Note_on_c, 3, 59, 111
1, 35940, Note_on_c, 4, 43, 109
1, 35940, Note_on_c, 4, 50, 109
1, 35940, Lyric_t, "for "
1, 35969, Note_off_c, 4, 50, 64
1, 35969, Note_off_c, 4, 43, 64
1, 35969, Note_off_c, 0, 71, 64
1, 35969, Note_off_c, 3, 59, 64
1, 35969, Note_off_c, 0, 62, 64
1, 35969, Note_off_c, 0, 67, 64
1, 35970, Note_on_c, 0, 59, 45
1, 35970, Note_on_c, 0, 62, 73
1, 35970, Note_on_c, 0, 67, 86
1, 35970, Note_on_c, 4, 43, 101
1, 35970, Note_on_c, 4, 52, 116
1, 35999, Note_off_c, 4, 52, 64
1, 35999, Note_off_c, 7, 59, 64
1, 35999, Note_off_c, 7, 43, 64
1, 35999, Note_off_c, 0, 59, 64
1, 35999, Note_off_c, 7, 67, 64
1, 35999, Note_off_c, 7, 62, 64
1, 35999, Note_off_c, 0, 67, 64
1, 35999, Note_off_c, 0, 62, 64
1, 35999, Note_off_c, 4, 43, 64
1, 36000, Note_on_c, 0, 54, 35
1, 36000, Note_on_c, 0, 57, 85
1, 36000, Note_on_c, 0, 62, 79
1, 36000, Note_on_c, 3, 57, 116
1, 36000, Note_on_c, 4, 45, 90
1, 36000, Note_on_c, 4, 50, 105
1, 36000, Note_on_c, 7, 38, 101
1, 36000, Note_on_c, 7, 57, 109
1, 36000, Note_on_c, 7, 62, 113
1, 36000, Note_on_c, 7, 66, 104
1, 36000, Note_on_c, 9, 42, 120
1, 36000, Lyric_t, "eve"
1, 36029, Note_off_c, 9, 42, 64
1, 36059, Note_off_c, 0, 54, 64
1, 36059, Note_off_c, 4, 50, 64
1, 36059, Note_off_c, 0, 62, 64
1, 36059, Note_off_c, 4, 45, 64
1, 36059, Note_off_c, 0, 57, 64
1, 36060, Note_on_c, 0, 57, 69
1, 36060, Note_on_c, 0, 62, 98
1, 36060, Note_on_c, 0, 66, 74
1, 36060, Note_on_c, 4, 45, 100
1, 36060, Note_on_c, 4, 50, 111
1, 36060, Note_on_c, 4, 54, 89
1, 36119, Note_off_c, 3, 57, 64
1, 36120, Note_on_c, 3, 54, 120
1, 36120, Note_on_c, 9, 42, 120
1, 36120, Lyric_t, "ry"
1, 36149, Note_off_c, 9, 42, 64
1, 36149, Note_off_c, 4, 54, 64
1, 36149, Note_off_c, 0, 66, 64
1, 36149, Note_off_c, 4, 50, 64
1, 36149, Note_off_c, 4, 45, 64
1, 36149, Note_off_c, 0, 62, 64
1, 36149, Note_off_c, 0, 57, 64
1, 36150, Note_on_c, 0, 54, 44
1, 36150, Note_on_c, 0, 57, 78
1, 36150, Note_on_c, 0, 62, 58
1, 36150, Note_on_c, 4, 45, 85
1, 36150, Note_on_c, 4, 50, 105
1, 36150, Note_on_c, 4, 54, 81
1, 36179, Note_off_c, 4, 54, 64
1, 36179, Note_off_c, 0, 62, 64
1, 36179, Note_off_c, 4, 50, 64
1, 36179, Note_off_c, 0, 57, 64
1, 36179, Note_off_c, 4, 45, 64
1, 36179, Note_off_c, 3, 54, 64
1, 36179, Note_off_c, 0, 54, 64
1, 36180, Note_on_c, 0, 57, 57
1, 36180, Note_on_c, 0, 62, 91
1, 36180, Note_on_c, 0, 66, 77
1, 36180, Note_on_c, 3, 52, 103
1, 36180, Note_on_c, 4, 50, 109
1, 36180, Note_on_c, 4, 54, 89
1, 36180, Note_on_c, 4, 57, 109
1, 36209, Note_off_c, 4, 57, 64
1, 36209, Note_off_c, 0, 66, 64
1, 36209, Note_off_c, 4, 54, 64
1, 36209, Note_off_c, 4, 50, 64
1, 36209, Note_off_c, 0, 62, 64
1, 36209, Note_off_c, 0, 57, 64
1, 36210, Note_on_c, 0, 54, 35
1, 36210, Note_on_c, 0, 57, 79
1, 36210, Note_on_c, 0, 62, 56
1, 36210, Note_on_c, 4, 50, 111
1, 36210, Note_on_c, 4, 54, 100
1, 36210, Note_on_c, 4, 57, 100
1, 36239, Note_off_c, 4, 57, 64
1, 36239, Note_off_c, 0, 62, 64
1, 36239, Note_off_c, 4, 54, 64
1, 36239, Note_off_c, 0, 57, 64
1, 36239, Note_off_c, 4, 50, 64
1, 36239, Note_off_c, 3, 52, 64
1, 36239, Note_off_c, 0, 54, 64
1, 36240, Note_on_c, 0, 54, 35
1, 36240, Note_on_c, 0, 57, 85
1, 36240, Note_on_c, 0, 62, 79
1, 36240, Note_on_c, 3, 50, 119
1, 36240, Note_on_c, 4, 45, 90
1, 36240, Note_on_c, 4, 50, 105
1, 36240, Note_on_c, 9, 42, 119
1, 36240, Lyric_t, "one "
1, 36240, Lyric_t, "\015"
1, 36269, Note_off_c, 9, 42, 64
1, 36299, Note_off_c, 0, 62, 64
1, 36299, Note_off_c, 4, 50, 64
1, 36299, Note_off_c, 4, 45, 64
1, 36299, Note_off_c, 0, 57, 64
1, 36299, Note_off_c, 0, 54, 64
1, 36300, Note_on_c, 0, 57, 69
1, 36300, Note_on_c, 0, 62, 98
1, 36300, Note_on_c, 0, 66, 74
1, 36300, Note_on_c, 4, 45, 100
1, 36300, Note_on_c, 4, 50, 111
1, 36300, Note_on_c, 4, 54, 89
1, 36359, Note_off_c, 3, 50, 64
1, 36360, Note_on_c, 9, 42, 120
1, 36389, Note_off_c, 9, 42, 64
1, 36389, Note_off_c, 4, 50, 64
1, 36389, Note_off_c, 4, 45, 64
1, 36389, Note_off_c, 0, 66, 64
1, 36389, Note_off_c, 4, 54, 64
1, 36389, Note_off_c, 0, 57, 64
1, 36389, Note_off_c, 0, 62, 64
1, 36390, Note_on_c, 0, 54, 44
1, 36390, Note_on_c, 0, 57, 78
1, 36390, Note_on_c, 0, 62, 58
1, 36390, Note_on_c, 4, 45, 85
1, 36390, Note_on_c, 4, 50, 105
1, 36390, Note_on_c, 4, 54, 81
1, 36419, Note_off_c, 4, 54, 64
1, 36419, Note_off_c, 4, 50, 64
1, 36419, Note_off_c, 0, 62, 64
1, 36419, Note_off_c, 4, 45, 64
1, 36419, Note_off_c, 0, 54, 64
1, 36419, Note_off_c, 0, 57, 64
1, 36420, Note_on_c, 0, 57, 57
1, 36420, Note_on_c, 0, 62, 91
1, 36420, Note_on_c, 0, 66, 77
1, 36420, Note_on_c, 4, 50, 109
1, 36420, Note_on_c, 4, 54, 89
1, 36420, Note_on_c, 4, 57, 109
1, 36449, Note_off_c, 4, 57, 64
1, 36449, Note_off_c, 4, 54, 64
1, 36449, Note_off_c, 0, 66, 64
1, 36449, Note_off_c, 4, 50, 64
1, 36449, Note_off_c, 0, 57, 64
1, 36449, Note_off_c, 0, 62, 64
1, 36450, Note_on_c, 0, 54, 35
1, 36450, Note_on_c, 0, 57, 79
1, 36450, Note_on_c, 0, 62, 56
1, 36450, Note_on_c, 4, 50, 111
1, 36450, Note_on_c, 4, 54, 100
1, 36450, Note_on_c, 4, 57, 100
1, 36479, Note_off_c, 4, 57, 64
1, 36479, Note_off_c, 7, 62, 64
1, 36479, Note_off_c, 7, 66, 64
1, 36479, Note_off_c, 7, 57, 64
1, 36479, Note_off_c, 0, 54, 64
1, 36479, Note_off_c, 7, 38, 64
1, 36479, Note_off_c, 4, 50, 64
1, 36479, Note_off_c, 0, 62, 64
1, 36479, Note_off_c, 0, 57, 64
1, 36479, Note_off_c, 4, 54, 64
1, 36480, Note_on_c, 0, 59, 58
1, 36480, Note_on_c, 0, 62, 91
1, 36480, Note_on_c, 4, 47, 85
1, 36480, Note_on_c, 4, 54, 120
1, 36480, Note_on_c, 7, 47, 116
1, 36480, Note_on_c, 7, 59, 90
1, 36480, Note_on_c, 7, 62, 111
1, 36480, Note_on_c, 7, 66, 81
1, 36480, Note_on_c, 9, 42, 115
1, 36509, Note_off_c, 9, 42, 64
1, 36539, Note_off_c, 0, 59, 64
1, 36539, Note_off_c, 4, 54, 64
1, 36539, Note_off_c, 4, 47, 64
1, 36539, Note_off_c, 0, 62, 64
1, 36540, Note_on_c, 0, 59, 79
1, 36540, Note_on_c, 0, 62, 95
1, 36540, Note_on_c, 0, 66, 74
1, 36540, Note_on_c, 4, 50, 92
1, 36540, Note_on_c, 4, 54, 87
1, 36540, Note_on_c, 4, 62, 95
1, 36600, Note_on_c, 9, 42, 109
1, 36629, Note_off_c, 9, 42, 64
1, 36629, Note_off_c, 4, 50, 64
1, 36629, Note_off_c, 4, 62, 64
1, 36629, Note_off_c, 0, 66, 64
1, 36629, Note_off_c, 4, 54, 64
1, 36629, Note_off_c, 0, 59, 64
1, 36629, Note_off_c, 0, 62, 64
1, 36630, Note_on_c, 0, 59, 71
1, 36630, Note_on_c, 0, 62, 91
1, 36630, Note_on_c, 0, 66, 60
1, 36630, Note_on_c, 4, 54, 109
1, 36630, Note_on_c, 4, 59, 95
1, 36659, Note_off_c, 4, 59, 64
1, 36659, Note_off_c, 4, 54, 64
1, 36659, Note_off_c, 0, 66, 64
1, 36659, Note_off_c, 0, 59, 64
1, 36659, Note_off_c, 0, 62, 64
1, 36660, Note_on_c, 0, 62, 80
1, 36660, Note_on_c, 0, 66, 62
1, 36660, Note_on_c, 0, 71, 91
1, 36660, Note_on_c, 3, 54, 115
1, 36660, Note_on_c, 4, 50, 103
1, 36660, Note_on_c, 4, 54, 115
1, 36660, Lyric_t, "And "
1, 36689, Note_off_c, 4, 54, 64
1, 36689, Note_off_c, 4, 50, 64
1, 36689, Note_off_c, 0, 71, 64
1, 36689, Note_off_c, 3, 54, 64
1, 36689, Note_off_c, 0, 62, 64
1, 36689, Note_off_c, 0, 66, 64
1, 36690, Note_on_c, 0, 59, 51
1, 36690, Note_on_c, 0, 62, 85
1, 36690, Note_on_c, 0, 66, 59
1, 36690, Note_on_c, 4, 47, 92
1, 36690, Note_on_c, 4, 52, 98
1, 36719, Note_off_c, 4, 52, 64
1, 36719, Note_off_c, 7, 66, 64
1, 36719, Note_off_c, 7, 62, 64
1, 36719, Note_off_c, 0, 59, 64
1, 36719, Note_off_c, 7, 59, 64
1, 36719, Note_off_c, 7, 47, 64
1, 36719, Note_off_c, 0, 66, 64
1, 36719, Note_off_c, 0, 62, 64
1, 36719, Note_off_c, 4, 47, 64
1, 36720, Note_on_c, 0, 55, 74
1, 36720, Note_on_c, 0, 59, 94
1, 36720, Note_on_c, 0, 62, 91
1, 36720, Note_on_c, 3, 55, 116
1, 36720, Note_on_c, 4, 43, 98
1, 36720, Note_on_c, 4, 50, 116
1, 36720, Note_on_c, 7, 43, 101
1, 36720, Note_on_c, 7, 59, 105
1, 36720, Note_on_c, 7, 62, 118
1, 36720, Note_on_c, 7, 67, 116
1, 36720, Note_on_c, 9, 42, 115
1, 36720, Lyric_t, "love "
1, 36749, Note_off_c, 9, 42, 64
1, 36779, Note_off_c, 0, 55, 64
1, 36779, Note_off_c, 4, 50, 64
1, 36779, Note_off_c, 0, 62, 64
1, 36779, Note_off_c, 4, 43, 64
1, 36779, Note_off_c, 0, 59, 64
1, 36780, Note_on_c, 0, 59, 70
1, 36780, Note_on_c, 0, 62, 94
1, 36780, Note_on_c, 0, 67, 101
1, 36780, Note_on_c, 4, 50, 79
1, 36780, Note_on_c, 4, 55, 111
1, 36780, Note_on_c, 4, 59, 100
1, 36809, Note_off_c, 3, 55, 64
1, 36840, Note_on_c, 3, 57, 116
1, 36840, Note_on_c, 9, 42, 115
1, 36840, Lyric_t, "is "
1, 36869, Note_off_c, 9, 42, 64
1, 36869, Note_off_c, 4, 50, 64
1, 36869, Note_off_c, 4, 55, 64
1, 36869, Note_off_c, 0, 67, 64
1, 36869, Note_off_c, 4, 59, 64
1, 36869, Note_off_c, 3, 57, 64
1, 36869, Note_off_c, 0, 59, 64
1, 36869, Note_off_c, 0, 62, 64
1, 36870, Note_on_c, 0, 59, 52
1, 36870, Note_on_c, 0, 62, 85
1, 36870, Note_on_c, 0, 67, 94
1, 36870, Note_on_c, 4, 50, 82
1, 36870, Note_on_c, 4, 55, 98
1, 36870, Note_on_c, 4, 59, 85
1, 36899, Note_off_c, 4, 59, 64
1, 36899, Note_off_c, 4, 55, 64
1, 36899, Note_off_c, 0, 67, 64
1, 36899, Note_off_c, 4, 50, 64
1, 36899, Note_off_c, 0, 59, 64
1, 36899, Note_off_c, 0, 62, 64
1, 36900, Note_on_c, 0, 62, 78
1, 36900, Note_on_c, 0, 67, 100
1, 36900, Note_on_c, 0, 71, 46
1, 36900, Note_on_c, 3, 57, 107
1, 36900, Note_on_c, 4, 43, 109
1, 36900, Note_on_c, 4, 50, 109
1, 36900, Lyric_t, "a "
1, 36929, Note_off_c, 4, 50, 64
1, 36929, Note_off_c, 4, 43, 64
1, 36929, Note_off_c, 0, 71, 64
1, 36929, Note_off_c, 3, 57, 64
1, 36929, Note_off_c, 0, 62, 64
1, 36929, Note_off_c, 0, 67, 64
1, 36930, Note_on_c, 0, 59, 45
1, 36930, Note_on_c, 0, 62, 73
1, 36930, Note_on_c, 0, 67, 86
1, 36930, Note_on_c, 3, 50, 118
1, 36930, Note_on_c, 4, 43, 101
1, 36930, Note_on_c, 4, 52, 116
1, 36930, Lyric_t, "prize "
1, 36930, Lyric_t, "\015"
1, 36959, Note_off_c, 4, 52, 64
1, 36959, Note_off_c, 7, 59, 64
1, 36959, Note_off_c, 7, 43, 64
1, 36959, Note_off_c, 4, 43, 64
1, 36959, Note_off_c, 0, 59, 64
1, 36959, Note_off_c, 7, 62, 64
1, 36959, Note_off_c, 0, 67, 64
1, 36959, Note_off_c, 7, 67, 64
1, 36959, Note_off_c, 0, 62, 64
1, 36960, Note_on_c, 0, 54, 35
1, 36960, Note_on_c, 0, 57, 85
1, 36960, Note_on_c, 0, 62, 79
1, 36960, Note_on_c, 4, 45, 90
1, 36960, Note_on_c, 4, 50, 105
1, 36960, Note_on_c, 7, 38, 111
1, 36960, Note_on_c, 7, 57, 116
1, 36960, Note_on_c, 7, 62, 118
1, 36960, Note_on_c, 7, 66, 109
1, 36960, Note_on_c, 9, 42, 120
1, 36989, Note_off_c, 9, 42, 64
1, 37019, Note_off_c, 0, 57, 64
1, 37019, Note_off_c, 4, 50, 64
1, 37019, Note_off_c, 0, 62, 64
1, 37019, Note_off_c, 4, 45, 64
1, 37019, Note_off_c, 0, 54, 64
1, 37020, Note_on_c, 0, 57, 69
1, 37020, Note_on_c, 0, 62, 98
1, 37020, Note_on_c, 0, 66, 74
1, 37020, Note_on_c, 4, 45, 100
1, 37020, Note_on_c, 4, 50, 111
1, 37020, Note_on_c, 4, 54, 89
1, 37080, Note_on_c, 9, 42, 119
1, 37109, Note_off_c, 9, 42, 64
1, 37109, Note_off_c, 4, 50, 64
1, 37109, Note_off_c, 0, 66, 64
1, 37109, Note_off_c, 0, 62, 64
1, 37109, Note_off_c, 4, 45, 64
1, 37109, Note_off_c, 4, 54, 64
1, 37109, Note_off_c, 0, 57, 64
1, 37110, Note_on_c, 0, 54, 44
1, 37110, Note_on_c, 0, 57, 78
1, 37110, Note_on_c, 0, 62, 58
1, 37110, Note_on_c, 4, 45, 85
1, 37110, Note_on_c, 4, 50, 105
1, 37110, Note_on_c, 4, 54, 81
1, 37139, Note_off_c, 4, 54, 64
1, 37139, Note_off_c, 0, 62, 64
1, 37139, Note_off_c, 4, 50, 64
1, 37139, Note_off_c, 0, 57, 64
1, 37139, Note_off_c, 4, 45, 64
1, 37139, Note_off_c, 0, 54, 64
1, 37140, Note_on_c, 0, 57, 57
1, 37140, Note_on_c, 0, 62, 91
1, 37140, Note_on_c, 0, 66, 77
1, 37140, Note_on_c, 4, 50, 109
1, 37140, Note_on_c, 4, 54, 89
1, 37140, Note_on_c, 4, 57, 109
1, 37169, Note_off_c, 4, 57, 64
1, 37169, Note_off_c, 0, 66, 64
1, 37169, Note_off_c, 4, 54, 64
1, 37169, Note_off_c, 0, 62, 64
1, 37169, Note_off_c, 4, 50, 64
1, 37169, Note_off_c, 3, 50, 64
1, 37169, Note_off_c, 0, 57, 64
1, 37170, Note_on_c, 0, 54, 35
1, 37170, Note_on_c, 0, 57, 79
1, 37170, Note_on_c, 0, 62, 56
1, 37170, Note_on_c, 4, 50, 111
1, 37170, Note_on_c, 4, 54, 100
1, 37170, Note_on_c, 4, 57, 100
1, 37199, Note_off_c, 4, 57, 64
1, 37199, Note_off_c, 4, 54, 64
1, 37199, Note_off_c, 0, 62, 64
1, 37199, Note_off_c, 4, 50, 64
1, 37199, Note_off_c, 0, 54, 64
1, 37199, Note_off_c, 0, 57, 64
1, 37200, Note_on_c, 4, 45, 90
1, 37200, Note_on_c, 4, 50, 105
1, 37200, Note_on_c, 9, 42, 115
1, 37229, Note_off_c, 9, 42, 64
1, 37259, Note_off_c, 4, 45, 64
1, 37259, Note_off_c, 4, 50, 64
1, 37260, Note_on_c, 3, 59, 116
1, 37260, Note_on_c, 4, 45, 100
1, 37260, Note_on_c, 4, 50, 111
1, 37260, Note_on_c, 4, 54, 89
1, 37260, Lyric_t, "So "
1, 37289, Note_off_c, 3, 59, 64
1, 37320, Note_on_c, 3, 59, 111
1, 37320, Note_on_c, 9, 42, 120
1, 37320, Lyric_t, "wake "
1, 37349, Note_off_c, 9, 42, 64
1, 37349, Note_off_c, 3, 59, 64
1, 37349, Note_off_c, 4, 54, 64
1, 37349, Note_off_c, 4, 45, 64
1, 37349, Note_off_c, 4, 50, 64
1, 37350, Note_on_c, 4, 45, 85
1, 37350, Note_on_c, 4, 50, 105
1, 37350, Note_on_c, 4, 54, 81
1, 37379, Note_off_c, 4, 54, 64
1, 37379, Note_off_c, 4, 45, 64
1, 37379, Note_off_c, 4, 50, 64
1, 37380, Note_on_c, 3, 61, 119
1, 37380, Note_on_c, 4, 50, 109
1, 37380, Note_on_c, 4, 54, 89
1, 37380, Note_on_c, 4, 57, 109
1, 37380, Lyric_t, "me "
1, 37409, Note_off_c, 4, 57, 64
1, 37409, Note_off_c, 4, 54, 64
1, 37409, Note_off_c, 3, 61, 64
1, 37409, Note_off_c, 4, 50, 64
1, 37410, Note_on_c, 4, 50, 111
1, 37410, Note_on_c, 4, 54, 100
1, 37410, Note_on_c, 4, 57, 100
1, 37439, Note_off_c, 4, 57, 64
1, 37439, Note_off_c, 4, 50, 64
1, 37439, Note_off_c, 7, 62, 64
1, 37439, Note_off_c, 7, 66, 64
1, 37439, Note_off_c, 7, 57, 64
1, 37439, Note_off_c, 4, 54, 64
1, 37439, Note_off_c, 7, 38, 64
1, 37440, Note_on_c, 0, 59, 58
1, 37440, Note_on_c, 0, 62, 91
1, 37440, Note_on_c, 1, 35, 100
1, 37440, Note_on_c, 3, 62, 120
1, 37440, Note_on_c, 4, 47, 85
1, 37440, Note_on_c, 4, 54, 120
1, 37440, Note_on_c, 9, 35, 120
1, 37440, Lyric_t, "up "
1, 37469, Note_off_c, 9, 35, 64
1, 37499, Note_off_c, 4, 47, 64
1, 37499, Note_off_c, 0, 62, 64
1, 37499, Note_off_c, 0, 59, 64
1, 37499, Note_off_c, 4, 54, 64
1, 37500, Note_on_c, 0, 59, 79
1, 37500, Note_on_c, 0, 62, 95
1, 37500, Note_on_c, 0, 66, 74
1, 37500, Note_on_c, 4, 50, 92
1, 37500, Note_on_c, 4, 54, 87
1, 37500, Note_on_c, 4, 62, 95
1, 37500, Note_on_c, 9, 39, 120
1, 37500, Note_on_c, 9, 73, 109
1, 37529, Note_off_c, 9, 73, 64
1, 37529, Note_off_c, 9, 39, 64
1, 37529, Note_off_c, 3, 62, 64
1, 37559, Note_off_c, 1, 35, 64
1, 37560, Note_on_c, 1, 35, 100
1, 37560, Note_on_c, 3, 62, 119
1, 37560, Note_on_c, 9, 35, 120
1, 37560, Lyric_t, "when "
1, 37589, Note_off_c, 9, 35, 64
1, 37589, Note_off_c, 4, 62, 64
1, 37589, Note_off_c, 4, 50, 64
1, 37589, Note_off_c, 0, 62, 64
1, 37589, Note_off_c, 0, 59, 64
1, 37589, Note_off_c, 0, 66, 64
1, 37589, Note_off_c, 4, 54, 64
1, 37590, Note_on_c, 0, 59, 71
1, 37590, Note_on_c, 0, 62, 91
1, 37590, Note_on_c, 0, 66, 60
1, 37590, Note_on_c, 4, 54, 109
1, 37590, Note_on_c, 4, 59, 95
1, 37619, Note_off_c, 4, 59, 64
1, 37619, Note_off_c, 0, 66, 64
1, 37619, Note_off_c, 0, 62, 64
1, 37619, Note_off_c, 0, 59, 64
1, 37619, Note_off_c, 4, 54, 64
1, 37620, Note_on_c, 0, 62, 80
1, 37620, Note_on_c, 0, 66, 62
1, 37620, Note_on_c, 0, 71, 91
1, 37620, Note_on_c, 4, 50, 103
1, 37620, Note_on_c, 4, 54, 115
1, 37620, Note_on_c, 9, 39, 120
1, 37620, Note_on_c, 9, 73, 109
1, 37649, Note_off_c, 9, 73, 64
1, 37649, Note_off_c, 0, 66, 64
1, 37649, Note_off_c, 9, 39, 64
1, 37649, Note_off_c, 0, 71, 64
1, 37649, Note_off_c, 3, 62, 64
1, 37649, Note_off_c, 0, 62, 64
1, 37649, Note_off_c, 4, 54, 64
1, 37649, Note_off_c, 4, 50, 64
1, 37650, Note_on_c, 0, 59, 51
1, 37650, Note_on_c, 0, 62, 85
1, 37650, Note_on_c, 0, 66, 59
1, 37650, Note_on_c, 4, 47, 92
1, 37650, Note_on_c, 4, 52, 98
1, 37679, Note_off_c, 4, 52, 64
1, 37679, Note_off_c, 0, 59, 64
1, 37679, Note_off_c, 0, 62, 64
1, 37679, Note_off_c, 1, 35, 64
1, 37679, Note_off_c, 4, 47, 64
1, 37679, Note_off_c, 0, 66, 64
1, 37680, Note_on_c, 0, 55, 74
1, 37680, Note_on_c, 0, 59, 94
1, 37680, Note_on_c, 0, 62, 91
1, 37680, Note_on_c, 1, 31, 100
1, 37680, Note_on_c, 3, 59, 103
1, 37680, Note_on_c, 4, 43, 98
1, 37680, Note_on_c, 4, 50, 116
1, 37680, Note_on_c, 9, 35, 120
1, 37680, Lyric_t, "it's "
1, 37709, Note_off_c, 9, 35, 64
1, 37739, Note_off_c, 4, 50, 64
1, 37739, Note_off_c, 0, 62, 64
1, 37739, Note_off_c, 0, 59, 64
1, 37739, Note_off_c, 0, 55, 64
1, 37739, Note_off_c, 4, 43, 64
1, 37740, Note_on_c, 0, 59, 70
1, 37740, Note_on_c, 0, 62, 94
1, 37740, Note_on_c, 0, 67, 101
1, 37740, Note_on_c, 4, 50, 79
1, 37740, Note_on_c, 4, 55, 111
1, 37740, Note_on_c, 4, 59, 100
1, 37740, Note_on_c, 9, 39, 120
1, 37740, Note_on_c, 9, 73, 115
1, 37769, Note_off_c, 9, 73, 64
1, 37769, Note_off_c, 9, 39, 64
1, 37769, Note_off_c, 3, 59, 64
1, 37799, Note_off_c, 1, 31, 64
1, 37800, Note_on_c, 1, 31, 100
1, 37800, Note_on_c, 3, 57, 113
1, 37800, Note_on_c, 9, 35, 120
1, 37800, Lyric_t, "all "
1, 37829, Note_off_c, 9, 35, 64
1, 37829, Note_off_c, 4, 59, 64
1, 37829, Note_off_c, 4, 50, 64
1, 37829, Note_off_c, 0, 62, 64
1, 37829, Note_off_c, 0, 59, 64
1, 37829, Note_off_c, 0, 67, 64
1, 37829, Note_off_c, 4, 55, 64
1, 37830, Note_on_c, 0, 59, 52
1, 37830, Note_on_c, 0, 62, 85
1, 37830, Note_on_c, 0, 67, 94
1, 37830, Note_on_c, 4, 50, 82
1, 37830, Note_on_c, 4, 55, 98
1, 37830, Note_on_c, 4, 59, 85
1, 37859, Note_off_c, 4, 59, 64
1, 37859, Note_off_c, 4, 55, 64
1, 37859, Note_off_c, 0, 67, 64
1, 37859, Note_off_c, 3, 57, 64
1, 37859, Note_off_c, 0, 59, 64
1, 37859, Note_off_c, 0, 62, 64
1, 37859, Note_off_c, 4, 50, 64
1, 37860, Note_on_c, 0, 62, 78
1, 37860, Note_on_c, 0, 67, 100
1, 37860, Note_on_c, 0, 71, 46
1, 37860, Note_on_c, 4, 43, 109
1, 37860, Note_on_c, 4, 50, 109
1, 37860, Note_on_c, 9, 39, 120
1, 37860, Note_on_c, 9, 73, 119
1, 37889, Note_off_c, 9, 73, 64
1, 37889, Note_off_c, 9, 39, 64
1, 37889, Note_off_c, 4, 43, 64
1, 37889, Note_off_c, 0, 62, 64
1, 37889, Note_off_c, 0, 67, 64
1, 37889, Note_off_c, 0, 71, 64
1, 37889, Note_off_c, 4, 50, 64
1, 37890, Note_on_c, 0, 59, 45
1, 37890, Note_on_c, 0, 62, 73
1, 37890, Note_on_c, 0, 67, 86
1, 37890, Note_on_c, 3, 57, 111
1, 37890, Note_on_c, 4, 43, 101
1, 37890, Note_on_c, 4, 52, 116
1, 37890, Lyric_t, "o"
1, 37919, Note_off_c, 4, 52, 64
1, 37919, Note_off_c, 0, 67, 64
1, 37919, Note_off_c, 0, 59, 64
1, 37919, Note_off_c, 0, 62, 64
1, 37919, Note_off_c, 1, 31, 64
1, 37919, Note_off_c, 4, 43, 64
1, 37920, Note_on_c, 0, 54, 35
1, 37920, Note_on_c, 0, 57, 85
1, 37920, Note_on_c, 0, 62, 79
1, 37920, Note_on_c, 1, 38, 100
1, 37920, Note_on_c, 4, 45, 90
1, 37920, Note_on_c, 4, 50, 105
1, 37920, Note_on_c, 9, 35, 120
1, 37949, Note_off_c, 9, 35, 64
1, 37949, Note_off_c, 3, 57, 64
1, 37979, Note_off_c, 4, 45, 64
1, 37979, Note_off_c, 0, 57, 64
1, 37979, Note_off_c, 0, 54, 64
1, 37979, Note_off_c, 0, 62, 64
1, 37979, Note_off_c, 4, 50, 64
1, 37980, Note_on_c, 0, 57, 69
1, 37980, Note_on_c, 0, 62, 98
1, 37980, Note_on_c, 0, 66, 74
1, 37980, Note_on_c, 3, 50, 120
1, 37980, Note_on_c, 4, 45, 100
1, 37980, Note_on_c, 4, 50, 111
1, 37980, Note_on_c, 4, 54, 89
1, 37980, Note_on_c, 9, 39, 119
1, 37980, Note_on_c, 9, 73, 115
1, 37980, Lyric_t, "ver "
1, 37980, Lyric_t, "\015"
1, 38009, Note_off_c, 9, 73, 64
1, 38009, Note_off_c, 9, 39, 64
1, 38009, Note_off_c, 3, 50, 64
1, 38039, Note_off_c, 1, 38, 64
1, 38040, Note_on_c, 1, 38, 100
1, 38040, Note_on_c, 9, 35, 120
1, 38069, Note_off_c, 9, 35, 64
1, 38069, Note_off_c, 4, 54, 64
1, 38069, Note_off_c, 4, 45, 64
1, 38069, Note_off_c, 0, 62, 64
1, 38069, Note_off_c, 0, 66, 64
1, 38069, Note_off_c, 0, 57, 64
1, 38069, Note_off_c, 4, 50, 64
1, 38070, Note_on_c, 0, 54, 44
1, 38070, Note_on_c, 0, 57, 78
1, 38070, Note_on_c, 0, 62, 58
1, 38070, Note_on_c, 4, 45, 85
1, 38070, Note_on_c, 4, 50, 105
1, 38070, Note_on_c, 4, 54, 81
1, 38099, Note_off_c, 4, 54, 64
1, 38099, Note_off_c, 4, 45, 64
1, 38099, Note_off_c, 0, 54, 64
1, 38099, Note_off_c, 0, 57, 64
1, 38099, Note_off_c, 0, 62, 64
1, 38099, Note_off_c, 4, 50, 64
1, 38100, Note_on_c, 0, 57, 57
1, 38100, Note_on_c, 0, 62, 91
1, 38100, Note_on_c, 0, 66, 77
1, 38100, Note_on_c, 4, 50, 109
1, 38100, Note_on_c, 4, 54, 89
1, 38100, Note_on_c, 4, 57, 109
1, 38100, Note_on_c, 9, 39, 120
1, 38100, Note_on_c, 9, 73, 111
1, 38129, Note_off_c, 9, 73, 64
1, 38129, Note_off_c, 0, 66, 64
1, 38129, Note_off_c, 9, 39, 64
1, 38129, Note_off_c, 4, 50, 64
1, 38129, Note_off_c, 0, 57, 64
1, 38129, Note_off_c, 0, 62, 64
1, 38129, Note_off_c, 4, 57, 64
1, 38129, Note_off_c, 4, 54, 64
1, 38130, Note_on_c, 0, 54, 35
1, 38130, Note_on_c, 0, 57, 79
1, 38130, Note_on_c, 0, 62, 56
1, 38130, Note_on_c, 4, 50, 111
1, 38130, Note_on_c, 4, 54, 100
1, 38130, Note_on_c, 4, 57, 100
1, 38159, Note_off_c, 4, 57, 64
1, 38159, Note_off_c, 4, 50, 64
1, 38159, Note_off_c, 0, 54, 64
1, 38159, Note_off_c, 0, 57, 64
1, 38159, Note_off_c, 1, 38, 64
1, 38159, Note_off_c, 4, 54, 64
1, 38159, Note_off_c, 0, 62, 64
1, 38160, Note_on_c, 0, 54, 49
1, 38160, Note_on_c, 0, 57, 85
1, 38160, Note_on_c, 0, 62, 75
1, 38160, Note_on_c, 1, 38, 100
1, 38160, Note_on_c, 4, 45, 105
1, 38160, Note_on_c, 4, 50, 116
1, 38160, Note_on_c, 9, 35, 120
1, 38189, Note_off_c, 9, 35, 64
1, 38219, Note_off_c, 4, 45, 64
1, 38219, Note_off_c, 0, 57, 64
1, 38219, Note_off_c, 0, 54, 64
1, 38219, Note_off_c, 0, 62, 64
1, 38219, Note_off_c, 4, 50, 64
1, 38220, Note_on_c, 0, 57, 56
1, 38220, Note_on_c, 0, 62, 84
1, 38220, Note_on_c, 0, 66, 49
1, 38220, Note_on_c, 4, 50, 105
1, 38220, Note_on_c, 4, 54, 115
1, 38220, Note_on_c, 9, 39, 115
1, 38220, Note_on_c, 9, 73, 115
1, 38249, Note_off_c, 9, 73, 64
1, 38249, Note_off_c, 9, 39, 64
1, 38249, Note_off_c, 4, 50, 64
1, 38249, Note_off_c, 0, 57, 64
1, 38249, Note_off_c, 0, 62, 64
1, 38249, Note_off_c, 0, 66, 64
1, 38249, Note_off_c, 4, 54, 64
1, 38250, Note_on_c, 0, 57, 84
1, 38250, Note_on_c, 0, 62, 94
1, 38250, Note_on_c, 0, 66, 76
1, 38250, Note_on_c, 4, 50, 100
1, 38250, Note_on_c, 4, 54, 92
1, 38279, Note_off_c, 4, 54, 64
1, 38279, Note_off_c, 0, 57, 64
1, 38279, Note_off_c, 0, 62, 64
1, 38279, Note_off_c, 1, 38, 64
1, 38279, Note_off_c, 4, 50, 64
1, 38279, Note_off_c, 0, 66, 64
1, 38280, Note_on_c, 0, 52, 47
1, 38280, Note_on_c, 0, 57, 89
1, 38280, Note_on_c, 0, 61, 52
1, 38280, Note_on_c, 1, 33, 100
1, 38280, Note_on_c, 3, 59, 118
1, 38280, Note_on_c, 4, 45, 101
1, 38280, Note_on_c, 4, 52, 101
1, 38280, Note_on_c, 9, 35, 120
1, 38280, Lyric_t, "When "
1, 38309, Note_off_c, 9, 35, 64
1, 38339, Note_off_c, 4, 52, 64
1, 38339, Note_off_c, 3, 59, 64
1, 38339, Note_off_c, 0, 57, 64
1, 38339, Note_off_c, 0, 52, 64
1, 38339, Note_off_c, 0, 61, 64
1, 38339, Note_off_c, 4, 45, 64
1, 38340, Note_on_c, 0, 57, 51
1, 38340, Note_on_c, 0, 61, 52
1, 38340, Note_on_c, 0, 64, 78
1, 38340, Note_on_c, 3, 61, 120
1, 38340, Note_on_c, 4, 49, 89
1, 38340, Note_on_c, 4, 52, 101
1, 38340, Note_on_c, 4, 57, 89
1, 38340, Note_on_c, 9, 39, 119
1, 38340, Note_on_c, 9, 73, 119
1, 38340, Lyric_t, "I'm "
1, 38369, Note_off_c, 9, 73, 64
1, 38369, Note_off_c, 0, 61, 64
1, 38369, Note_off_c, 0, 64, 64
1, 38369, Note_off_c, 9, 39, 64
1, 38369, Note_off_c, 3, 61, 64
1, 38369, Note_off_c, 0, 57, 64
1, 38369, Note_off_c, 4, 57, 64
1, 38369, Note_off_c, 4, 52, 64
1, 38369, Note_off_c, 4, 49, 64
1, 38370, Note_on_c, 0, 57, 73
1, 38370, Note_on_c, 0, 61, 52
1, 38370, Note_on_c, 0, 64, 83
1, 38370, Note_on_c, 4, 49, 119
1, 38370, Note_on_c, 4, 52, 118
1, 38370, Note_on_c, 4, 57, 105
1, 38399, Note_off_c, 4, 57, 64
1, 38399, Note_off_c, 4, 49, 64
1, 38399, Note_off_c, 0, 57, 64
1, 38399, Note_off_c, 0, 61, 64
1, 38399, Note_off_c, 1, 33, 64
1, 38399, Note_off_c, 4, 52, 64
1, 38399, Note_off_c, 0, 64, 64
1, 38400, Note_on_c, 0, 59, 58
1, 38400, Note_on_c, 0, 62, 91
1, 38400, Note_on_c, 1, 35, 100
1, 38400, Note_on_c, 3, 62, 116
1, 38400, Note_on_c, 4, 47, 85
1, 38400, Note_on_c, 4, 54, 120
1, 38400, Note_on_c, 9, 35, 120
1, 38400, Lyric_t, "wi"
1, 38429, Note_off_c, 9, 35, 64
1, 38459, Note_off_c, 4, 47, 64
1, 38459, Note_off_c, 0, 62, 64
1, 38459, Note_off_c, 0, 59, 64
1, 38459, Note_off_c, 4, 54, 64
1, 38460, Note_on_c, 0, 59, 79
1, 38460, Note_on_c, 0, 62, 95
1, 38460, Note_on_c, 0, 66, 74
1, 38460, Note_on_c, 4, 50, 92
1, 38460, Note_on_c, 4, 54, 87
1, 38460, Note_on_c, 4, 62, 95
1, 38460, Note_on_c, 9, 39, 119
1, 38460, Note_on_c, 9, 73, 115
1, 38489, Note_off_c, 9, 73, 64
1, 38489, Note_off_c, 9, 39, 64
1, 38489, Note_off_c, 3, 62, 64
1, 38519, Note_off_c, 1, 35, 64
1, 38520, Note_on_c, 1, 35, 100
1, 38520, Note_on_c, 3, 62, 120
1, 38520, Note_on_c, 9, 35, 120
1, 38520, Lyric_t, "ser "
1, 38549, Note_off_c, 9, 35, 64
1, 38549, Note_off_c, 4, 62, 64
1, 38549, Note_off_c, 4, 50, 64
1, 38549, Note_off_c, 0, 62, 64
1, 38549, Note_off_c, 0, 59, 64
1, 38549, Note_off_c, 0, 66, 64
1, 38549, Note_off_c, 4, 54, 64
1, 38550, Note_on_c, 0, 59, 71
1, 38550, Note_on_c, 0, 62, 91
1, 38550, Note_on_c, 0, 66, 60
1, 38550, Note_on_c, 4, 54, 109
1, 38550, Note_on_c, 4, 59, 95
1, 38579, Note_off_c, 4, 59, 64
1, 38579, Note_off_c, 0, 66, 64
1, 38579, Note_off_c, 0, 62, 64
1, 38579, Note_off_c, 0, 59, 64
1, 38579, Note_off_c, 4, 54, 64
1, 38580, Note_on_c, 0, 62, 80
1, 38580, Note_on_c, 0, 66, 62
1, 38580, Note_on_c, 0, 71, 91
1, 38580, Note_on_c, 4, 50, 103
1, 38580, Note_on_c, 4, 54, 115
1, 38580, Note_on_c, 9, 39, 120
1, 38580, Note_on_c, 9, 73, 109
1, 38609, Note_off_c, 9, 73, 64
1, 38609, Note_off_c, 0, 66, 64
1, 38609, Note_off_c, 9, 39, 64
1, 38609, Note_off_c, 0, 71, 64
1, 38609, Note_off_c, 4, 54, 64
1, 38609, Note_off_c, 0, 62, 64
1, 38609, Note_off_c, 4, 50, 64
1, 38610, Note_on_c, 0, 59, 51
1, 38610, Note_on_c, 0, 62, 85
1, 38610, Note_on_c, 0, 66, 59
1, 38610, Note_on_c, 4, 47, 92
1, 38610, Note_on_c, 4, 52, 98
1, 38639, Note_off_c, 4, 52, 64
1, 38639, Note_off_c, 0, 66, 64
1, 38639, Note_off_c, 3, 62, 64
1, 38639, Note_off_c, 0, 59, 64
1, 38639, Note_off_c, 1, 35, 64
1, 38639, Note_off_c, 4, 47, 64
1, 38639, Note_off_c, 0, 62, 64
1, 38640, Note_on_c, 0, 55, 74
1, 38640, Note_on_c, 0, 59, 94
1, 38640, Note_on_c, 0, 62, 91
1, 38640, Note_on_c, 1, 31, 100
1, 38640, Note_on_c, 3, 59, 116
1, 38640, Note_on_c, 4, 43, 98
1, 38640, Note_on_c, 4, 50, 116
1, 38640, Note_on_c, 9, 35, 120
1, 38640, Lyric_t, "and "
1, 38669, Note_off_c, 9, 35, 64
1, 38699, Note_off_c, 4, 50, 64
1, 38699, Note_off_c, 0, 62, 64
1, 38699, Note_off_c, 0, 59, 64
1, 38699, Note_off_c, 0, 55, 64
1, 38699, Note_off_c, 4, 43, 64
1, 38700, Note_on_c, 0, 59, 70
1, 38700, Note_on_c, 0, 62, 94
1, 38700, Note_on_c, 0, 67, 101
1, 38700, Note_on_c, 4, 50, 79
1, 38700, Note_on_c, 4, 55, 111
1, 38700, Note_on_c, 4, 59, 100
1, 38700, Note_on_c, 9, 39, 120
1, 38700, Note_on_c, 9, 73, 119
1, 38729, Note_off_c, 9, 73, 64
1, 38729, Note_off_c, 9, 39, 64
1, 38729, Note_off_c, 3, 59, 64
1, 38759, Note_off_c, 1, 31, 64
1, 38760, Note_on_c, 1, 31, 100
1, 38760, Note_on_c, 3, 57, 120
1, 38760, Note_on_c, 9, 35, 120
1, 38760, Lyric_t, "I'm "
1, 38789, Note_off_c, 9, 35, 64
1, 38789, Note_off_c, 4, 59, 64
1, 38789, Note_off_c, 4, 50, 64
1, 38789, Note_off_c, 0, 62, 64
1, 38789, Note_off_c, 0, 59, 64
1, 38789, Note_off_c, 0, 67, 64
1, 38789, Note_off_c, 4, 55, 64
1, 38790, Note_on_c, 0, 59, 52
1, 38790, Note_on_c, 0, 62, 85
1, 38790, Note_on_c, 0, 67, 94
1, 38790, Note_on_c, 4, 50, 82
1, 38790, Note_on_c, 4, 55, 98
1, 38790, Note_on_c, 4, 59, 85
1, 38819, Note_off_c, 4, 59, 64
1, 38819, Note_off_c, 4, 55, 64
1, 38819, Note_off_c, 0, 67, 64
1, 38819, Note_off_c, 3, 57, 64
1, 38819, Note_off_c, 0, 59, 64
1, 38819, Note_off_c, 0, 62, 64
1, 38819, Note_off_c, 4, 50, 64
1, 38820, Note_on_c, 0, 62, 78
1, 38820, Note_on_c, 0, 67, 100
1, 38820, Note_on_c, 0, 71, 46
1, 38820, Note_on_c, 4, 43, 109
1, 38820, Note_on_c, 4, 50, 109
1, 38820, Note_on_c, 9, 39, 120
1, 38820, Note_on_c, 9, 73, 119
1, 38849, Note_off_c, 9, 73, 64
1, 38849, Note_off_c, 9, 39, 64
1, 38849, Note_off_c, 4, 43, 64
1, 38849, Note_off_c, 0, 62, 64
1, 38849, Note_off_c, 0, 67, 64
1, 38849, Note_off_c, 0, 71, 64
1, 38849, Note_off_c, 4, 50, 64
1, 38850, Note_on_c, 0, 59, 45
1, 38850, Note_on_c, 0, 62, 73
1, 38850, Note_on_c, 0, 67, 86
1, 38850, Note_on_c, 3, 59, 120
1, 38850, Note_on_c, 4, 43, 101
1, 38850, Note_on_c, 4, 52, 116
1, 38850, Lyric_t, "ol"
1, 38879, Note_off_c, 4, 52, 64
1, 38879, Note_off_c, 0, 67, 64
1, 38879, Note_off_c, 0, 59, 64
1, 38879, Note_off_c, 0, 62, 64
1, 38879, Note_off_c, 1, 31, 64
1, 38879, Note_off_c, 4, 43, 64
1, 38880, Note_on_c, 0, 54, 35
1, 38880, Note_on_c, 0, 57, 85
1, 38880, Note_on_c, 0, 62, 79
1, 38880, Note_on_c, 1, 38, 100
1, 38880, Note_on_c, 4, 45, 90
1, 38880, Note_on_c, 4, 50, 105
1, 38880, Note_on_c, 9, 35, 120
1, 38909, Note_off_c, 9, 35, 64
1, 38939, Note_off_c, 3, 59, 64
1, 38939, Note_off_c, 0, 62, 64
1, 38939, Note_off_c, 0, 54, 64
1, 38939, Note_off_c, 4, 50, 64
1, 38939, Note_off_c, 0, 57, 64
1, 38939, Note_off_c, 4, 45, 64
1, 38940, Note_on_c, 0, 57, 69
1, 38940, Note_on_c, 0, 62, 98
1, 38940, Note_on_c, 0, 66, 74
1, 38940, Note_on_c, 3, 57, 120
1, 38940, Note_on_c, 4, 45, 100
1, 38940, Note_on_c, 4, 50, 111
1, 38940, Note_on_c, 4, 54, 89
1, 38940, Note_on_c, 9, 39, 120
1, 38940, Note_on_c, 9, 73, 119
1, 38940, Lyric_t, "der "
1, 38940, Lyric_t, "\015"
1, 38969, Note_off_c, 9, 73, 64
1, 38969, Note_off_c, 9, 39, 64
1, 38969, Note_off_c, 3, 57, 64
1, 38999, Note_off_c, 1, 38, 64
1, 39000, Note_on_c, 1, 38, 100
1, 39000, Note_on_c, 9, 35, 120
1, 39029, Note_off_c, 9, 35, 64
1, 39029, Note_off_c, 4, 54, 64
1, 39029, Note_off_c, 4, 45, 64
1, 39029, Note_off_c, 0, 62, 64
1, 39029, Note_off_c, 0, 66, 64
1, 39029, Note_off_c, 0, 57, 64
1, 39029, Note_off_c, 4, 50, 64
1, 39030, Note_on_c, 0, 54, 44
1, 39030, Note_on_c, 0, 57, 78
1, 39030, Note_on_c, 0, 62, 58
1, 39030, Note_on_c, 4, 45, 85
1, 39030, Note_on_c, 4, 50, 105
1, 39030, Note_on_c, 4, 54, 81
1, 39059, Note_off_c, 4, 54, 64
1, 39059, Note_off_c, 4, 45, 64
1, 39059, Note_off_c, 0, 54, 64
1, 39059, Note_off_c, 0, 57, 64
1, 39059, Note_off_c, 0, 62, 64
1, 39059, Note_off_c, 4, 50, 64
1, 39060, Note_on_c, 0, 57, 57
1, 39060, Note_on_c, 0, 62, 91
1, 39060, Note_on_c, 0, 66, 77
1, 39060, Note_on_c, 4, 50, 109
1, 39060, Note_on_c, 4, 54, 89
1, 39060, Note_on_c, 4, 57, 109
1, 39060, Note_on_c, 9, 39, 120
1, 39060, Note_on_c, 9, 73, 111
1, 39089, Note_off_c, 9, 73, 64
1, 39089, Note_off_c, 0, 66, 64
1, 39089, Note_off_c, 9, 39, 64
1, 39089, Note_off_c, 4, 50, 64
1, 39089, Note_off_c, 0, 57, 64
1, 39089, Note_off_c, 0, 62, 64
1, 39089, Note_off_c, 4, 57, 64
1, 39089, Note_off_c, 4, 54, 64
1, 39090, Note_on_c, 0, 54, 35
1, 39090, Note_on_c, 0, 57, 79
1, 39090, Note_on_c, 0, 62, 56
1, 39090, Note_on_c, 4, 50, 111
1, 39090, Note_on_c, 4, 54, 100
1, 39090, Note_on_c, 4, 57, 100
1, 39119, Note_off_c, 4, 57, 64
1, 39119, Note_off_c, 4, 50, 64
1, 39119, Note_off_c, 0, 54, 64
1, 39119, Note_off_c, 0, 57, 64
1, 39119, Note_off_c, 1, 38, 64
1, 39119, Note_off_c, 4, 54, 64
1, 39119, Note_off_c, 0, 62, 64
1, 39120, Note_on_c, 0, 54, 49
1, 39120, Note_on_c, 0, 57, 85
1, 39120, Note_on_c, 0, 62, 75
1, 39120, Note_on_c, 1, 38, 100
1, 39120, Note_on_c, 4, 45, 105
1, 39120, Note_on_c, 4, 50, 116
1, 39120, Note_on_c, 9, 35, 119
1, 39149, Note_off_c, 9, 35, 64
1, 39179, Note_off_c, 4, 45, 64
1, 39179, Note_off_c, 0, 57, 64
1, 39179, Note_off_c, 0, 54, 64
1, 39179, Note_off_c, 0, 62, 64
1, 39179, Note_off_c, 4, 50, 64
1, 39180, Note_on_c, 0, 57, 56
1, 39180, Note_on_c, 0, 62, 84
1, 39180, Note_on_c, 0, 66, 49
1, 39180, Note_on_c, 4, 50, 105
1, 39180, Note_on_c, 4, 54, 115
1, 39180, Note_on_c, 9, 39, 120
1, 39180, Note_on_c, 9, 73, 120
1, 39209, Note_off_c, 9, 73, 64
1, 39209, Note_off_c, 9, 39, 64
1, 39209, Note_off_c, 4, 50, 64
1, 39209, Note_off_c, 0, 57, 64
1, 39209, Note_off_c, 0, 62, 64
1, 39209, Note_off_c, 0, 66, 64
1, 39209, Note_off_c, 4, 54, 64
1, 39210, Note_on_c, 0, 57, 84
1, 39210, Note_on_c, 0, 62, 94
1, 39210, Note_on_c, 0, 66, 76
1, 39210, Note_on_c, 4, 50, 100
1, 39210, Note_on_c, 4, 54, 92
1, 39239, Note_off_c, 4, 54, 64
1, 39239, Note_off_c, 0, 57, 64
1, 39239, Note_off_c, 0, 62, 64
1, 39239, Note_off_c, 1, 38, 64
1, 39239, Note_off_c, 4, 50, 64
1, 39239, Note_off_c, 0, 66, 64
1, 39240, Note_on_c, 0, 52, 47
1, 39240, Note_on_c, 0, 57, 89
1, 39240, Note_on_c, 0, 61, 52
1, 39240, Note_on_c, 1, 30, 100
1, 39240, Note_on_c, 3, 59, 119
1, 39240, Note_on_c, 4, 45, 101
1, 39240, Note_on_c, 4, 52, 101
1, 39240, Note_on_c, 9, 35, 120
1, 39240, Lyric_t, "All "
1, 39269, Note_off_c, 9, 35, 64
1, 39269, Note_off_c, 3, 59, 64
1, 39299, Note_off_c, 4, 45, 64
1, 39299, Note_off_c, 0, 57, 64
1, 39299, Note_off_c, 0, 52, 64
1, 39299, Note_off_c, 0, 61, 64
1, 39299, Note_off_c, 4, 52, 64
1, 39300, Note_on_c, 0, 57, 51
1, 39300, Note_on_c, 0, 61, 52
1, 39300, Note_on_c, 0, 64, 78
1, 39300, Note_on_c, 3, 61, 120
1, 39300, Note_on_c, 4, 49, 89
1, 39300, Note_on_c, 4, 52, 101
1, 39300, Note_on_c, 4, 57, 89
1, 39300, Note_on_c, 9, 39, 120
1, 39300, Note_on_c, 9, 73, 119
1, 39300, Lyric_t, "this "
1, 39329, Note_off_c, 9, 73, 64
1, 39329, Note_off_c, 0, 61, 64
1, 39329, Note_off_c, 0, 64, 64
1, 39329, Note_off_c, 9, 39, 64
1, 39329, Note_off_c, 3, 61, 64
1, 39329, Note_off_c, 0, 57, 64
1, 39329, Note_off_c, 4, 57, 64
1, 39329, Note_off_c, 4, 52, 64
1, 39329, Note_off_c, 4, 49, 64
1, 39330, Note_on_c, 0, 57, 73
1, 39330, Note_on_c, 0, 61, 52
1, 39330, Note_on_c, 0, 64, 83
1, 39330, Note_on_c, 4, 49, 119
1, 39330, Note_on_c, 4, 52, 118
1, 39330, Note_on_c, 4, 57, 105
1, 39359, Note_off_c, 4, 57, 64
1, 39359, Note_off_c, 4, 49, 64
1, 39359, Note_off_c, 0, 57, 64
1, 39359, Note_off_c, 0, 61, 64
1, 39359, Note_off_c, 1, 30, 64
1, 39359, Note_off_c, 4, 52, 64
1, 39359, Note_off_c, 0, 64, 64
1, 39360, Note_on_c, 0, 59, 58
1, 39360, Note_on_c, 0, 62, 91
1, 39360, Note_on_c, 1, 35, 100
1, 39360, Note_on_c, 3, 62, 116
1, 39360, Note_on_c, 4, 47, 85
1, 39360, Note_on_c, 4, 54, 120
1, 39360, Note_on_c, 9, 35, 120
1, 39360, Lyric_t, "time "
1, 39389, Note_off_c, 9, 35, 64
1, 39419, Note_off_c, 4, 47, 64
1, 39419, Note_off_c, 0, 62, 64
1, 39419, Note_off_c, 0, 59, 64
1, 39419, Note_off_c, 4, 54, 64
1, 39420, Note_on_c, 0, 59, 79
1, 39420, Note_on_c, 0, 62, 95
1, 39420, Note_on_c, 0, 66, 74
1, 39420, Note_on_c, 4, 50, 92
1, 39420, Note_on_c, 4, 54, 87
1, 39420, Note_on_c, 4, 62, 95
1, 39420, Note_on_c, 9, 39, 120
1, 39420, Note_on_c, 9, 73, 119
1, 39449, Note_off_c, 9, 73, 64
1, 39449, Note_off_c, 9, 39, 64
1, 39449, Note_off_c, 3, 62, 64
1, 39479, Note_off_c, 1, 35, 64
1, 39480, Note_on_c, 1, 35, 100
1, 39480, Note_on_c, 3, 66, 120
1, 39480, Note_on_c, 9, 35, 120
1, 39480, Lyric_t, "I "
1, 39509, Note_off_c, 9, 35, 64
1, 39509, Note_off_c, 0, 62, 64
1, 39509, Note_off_c, 4, 62, 64
1, 39509, Note_off_c, 3, 66, 64
1, 39509, Note_off_c, 0, 59, 64
1, 39509, Note_off_c, 0, 66, 64
1, 39509, Note_off_c, 4, 50, 64
1, 39509, Note_off_c, 4, 54, 64
1, 39510, Note_on_c, 0, 59, 71
1, 39510, Note_on_c, 0, 62, 91
1, 39510, Note_on_c, 0, 66, 60
1, 39510, Note_on_c, 4, 54, 109
1, 39510, Note_on_c, 4, 59, 95
1, 39539, Note_off_c, 4, 59, 64
1, 39539, Note_off_c, 0, 59, 64
1, 39539, Note_off_c, 0, 62, 64
1, 39539, Note_off_c, 0, 66, 64
1, 39539, Note_off_c, 4, 54, 64
1, 39540, Note_on_c, 0, 62, 80
1, 39540, Note_on_c, 0, 66, 62
1, 39540, Note_on_c, 0, 71, 91
1, 39540, Note_on_c, 3, 66, 120
1, 39540, Note_on_c, 4, 50, 103
1, 39540, Note_on_c, 4, 54, 115
1, 39540, Note_on_c, 9, 39, 120
1, 39540, Note_on_c, 9, 73, 119
1, 39540, Lyric_t, "was "
1, 39569, Note_off_c, 9, 73, 64
1, 39569, Note_off_c, 0, 71, 64
1, 39569, Note_off_c, 9, 39, 64
1, 39569, Note_off_c, 3, 66, 64
1, 39569, Note_off_c, 0, 62, 64
1, 39569, Note_off_c, 0, 66, 64
1, 39569, Note_off_c, 4, 54, 64
1, 39569, Note_off_c, 4, 50, 64
1, 39570, Note_on_c, 0, 59, 51
1, 39570, Note_on_c, 0, 62, 85
1, 39570, Note_on_c, 0, 66, 59
1, 39570, Note_on_c, 4, 47, 92
1, 39570, Note_on_c, 4, 52, 98
1, 39599, Note_off_c, 4, 52, 64
1, 39599, Note_off_c, 0, 59, 64
1, 39599, Note_off_c, 0, 62, 64
1, 39599, Note_off_c, 1, 35, 64
1, 39599, Note_off_c, 4, 47, 64
1, 39599, Note_off_c, 0, 66, 64
1, 39600, Note_on_c, 0, 55, 74
1, 39600, Note_on_c, 0, 59, 94
1, 39600, Note_on_c, 0, 62, 91
1, 39600, Note_on_c, 1, 31, 100
1, 39600, Note_on_c, 3, 64, 116
1, 39600, Note_on_c, 4, 43, 98
1, 39600, Note_on_c, 4, 50, 116
1, 39600, Note_on_c, 9, 35, 120
1, 39600, Lyric_t, "fin"
1, 39629, Note_off_c, 9, 35, 64
1, 39659, Note_off_c, 4, 50, 64
1, 39659, Note_off_c, 3, 64, 64
1, 39659, Note_off_c, 0, 59, 64
1, 39659, Note_off_c, 0, 55, 64
1, 39659, Note_off_c, 0, 62, 64
1, 39659, Note_off_c, 4, 43, 64
1, 39660, Note_on_c, 0, 59, 70
1, 39660, Note_on_c, 0, 62, 94
1, 39660, Note_on_c, 0, 67, 101
1, 39660, Note_on_c, 4, 50, 79
1, 39660, Note_on_c, 4, 55, 111
1, 39660, Note_on_c, 4, 59, 100
1, 39660, Note_on_c, 9, 39, 120
1, 39660, Note_on_c, 9, 73, 119
1, 39689, Note_off_c, 9, 73, 64
1, 39689, Note_off_c, 9, 39, 64
1, 39690, Note_on_c, 3, 62, 120
1, 39690, Lyric_t, "ding "
1, 39719, Note_off_c, 3, 62, 64
1, 39719, Note_off_c, 1, 31, 64
1, 39720, Note_on_c, 1, 31, 100
1, 39720, Note_on_c, 9, 35, 120
1, 39749, Note_off_c, 9, 35, 64
1, 39749, Note_off_c, 0, 59, 64
1, 39749, Note_off_c, 4, 55, 64
1, 39749, Note_off_c, 0, 62, 64
1, 39749, Note_off_c, 0, 67, 64
1, 39749, Note_off_c, 4, 50, 64
1, 39749, Note_off_c, 4, 59, 64
1, 39750, Note_on_c, 0, 59, 52
1, 39750, Note_on_c, 0, 62, 85
1, 39750, Note_on_c, 0, 67, 94
1, 39750, Note_on_c, 3, 64, 120
1, 39750, Note_on_c, 4, 50, 82
1, 39750, Note_on_c, 4, 55, 98
1, 39750, Note_on_c, 4, 59, 85
1, 39750, Lyric_t, "my"
1, 39779, Note_off_c, 4, 59, 64
1, 39779, Note_off_c, 4, 55, 64
1, 39779, Note_off_c, 0, 67, 64
1, 39779, Note_off_c, 0, 59, 64
1, 39779, Note_off_c, 0, 62, 64
1, 39779, Note_off_c, 4, 50, 64
1, 39780, Note_on_c, 0, 62, 78
1, 39780, Note_on_c, 0, 67, 100
1, 39780, Note_on_c, 0, 71, 46
1, 39780, Note_on_c, 4, 43, 109
1, 39780, Note_on_c, 4, 50, 109
1, 39780, Note_on_c, 9, 39, 120
1, 39780, Note_on_c, 9, 73, 119
1, 39809, Note_off_c, 9, 73, 64
1, 39809, Note_off_c, 0, 67, 64
1, 39809, Note_off_c, 9, 39, 64
1, 39809, Note_off_c, 0, 71, 64
1, 39809, Note_off_c, 3, 64, 64
1, 39809, Note_off_c, 0, 62, 64
1, 39809, Note_off_c, 4, 50, 64
1, 39809, Note_off_c, 4, 43, 64
1, 39810, Note_on_c, 0, 59, 45
1, 39810, Note_on_c, 0, 62, 73
1, 39810, Note_on_c, 0, 67, 86
1, 39810, Note_on_c, 4, 43, 101
1, 39810, Note_on_c, 4, 52, 116
1, 39839, Note_off_c, 4, 52, 64
1, 39839, Note_off_c, 0, 59, 64
1, 39839, Note_off_c, 0, 62, 64
1, 39839, Note_off_c, 1, 31, 64
1, 39839, Note_off_c, 4, 43, 64
1, 39839, Note_off_c, 0, 67, 64
1, 39840, Note_on_c, 0, 54, 35
1, 39840, Note_on_c, 0, 57, 85
1, 39840, Note_on_c, 0, 62, 79
1, 39840, Note_on_c, 1, 38, 100
1, 39840, Note_on_c, 3, 62, 120
1, 39840, Note_on_c, 4, 45, 90
1, 39840, Note_on_c, 4, 50, 105
1, 39840, Note_on_c, 9, 35, 120
1, 39840, Lyric_t, "self "
1, 39840, Lyric_t, "\015"
1, 39869, Note_off_c, 9, 35, 64
1, 39899, Note_off_c, 4, 50, 64
1, 39899, Note_off_c, 0, 62, 64
1, 39899, Note_off_c, 0, 57, 64
1, 39899, Note_off_c, 0, 54, 64
1, 39899, Note_off_c, 4, 45, 64
1, 39900, Note_on_c, 0, 57, 69
1, 39900, Note_on_c, 0, 62, 98
1, 39900, Note_on_c, 0, 66, 74
1, 39900, Note_on_c, 4, 45, 100
1, 39900, Note_on_c, 4, 50, 111
1, 39900, Note_on_c, 4, 54, 89
1, 39900, Note_on_c, 9, 39, 119
1, 39900, Note_on_c, 9, 73, 119
1, 39929, Note_off_c, 9, 73, 64
1, 39929, Note_off_c, 9, 39, 64
1, 39959, Note_off_c, 3, 62, 64
1, 39959, Note_off_c, 1, 38, 64
1, 39960, Note_on_c, 1, 38, 100
1, 39960, Note_on_c, 9, 35, 120
1, 39989, Note_off_c, 9, 35, 64
1, 39989, Note_off_c, 0, 66, 64
1, 39989, Note_off_c, 4, 45, 64
1, 39989, Note_off_c, 0, 57, 64
1, 39989, Note_off_c, 4, 54, 64
1, 39989, Note_off_c, 0, 62, 64
1, 39989, Note_off_c, 4, 50, 64
1, 39990, Note_on_c, 0, 54, 44
1, 39990, Note_on_c, 0, 57, 78
1, 39990, Note_on_c, 0, 62, 58
1, 39990, Note_on_c, 4, 45, 85
1, 39990, Note_on_c, 4, 50, 105
1, 39990, Note_on_c, 4, 54, 81
1, 40019, Note_off_c, 4, 54, 64
1, 40019, Note_off_c, 4, 45, 64
1, 40019, Note_off_c, 0, 54, 64
1, 40019, Note_off_c, 0, 57, 64
1, 40019, Note_off_c, 0, 62, 64
1, 40019, Note_off_c, 4, 50, 64
1, 40020, Note_on_c, 0, 57, 57
1, 40020, Note_on_c, 0, 62, 91
1, 40020, Note_on_c, 0, 66, 77
1, 40020, Note_on_c, 3, 57, 120
1, 40020, Note_on_c, 4, 50, 109
1, 40020, Note_on_c, 4, 54, 89
1, 40020, Note_on_c, 4, 57, 109
1, 40020, Note_on_c, 9, 39, 120
1, 40020, Note_on_c, 9, 73, 119
1, 40020, Lyric_t, "And "
1, 40049, Note_off_c, 9, 73, 64
1, 40049, Note_off_c, 0, 62, 64
1, 40049, Note_off_c, 0, 66, 64
1, 40049, Note_off_c, 9, 39, 64
1, 40049, Note_off_c, 3, 57, 64
1, 40049, Note_off_c, 0, 57, 64
1, 40049, Note_off_c, 4, 57, 64
1, 40049, Note_off_c, 4, 54, 64
1, 40049, Note_off_c, 4, 50, 64
1, 40050, Note_on_c, 0, 54, 35
1, 40050, Note_on_c, 0, 57, 79
1, 40050, Note_on_c, 0, 62, 56
1, 40050, Note_on_c, 3, 57, 109
1, 40050, Note_on_c, 4, 50, 111
1, 40050, Note_on_c, 4, 54, 100
1, 40050, Note_on_c, 4, 57, 100
1, 40050, Lyric_t, "I "
1, 40079, Note_off_c, 4, 57, 64
1, 40079, Note_off_c, 1, 38, 64
1, 40079, Note_off_c, 0, 62, 64
1, 40079, Note_off_c, 0, 54, 64
1, 40079, Note_off_c, 4, 54, 64
1, 40079, Note_off_c, 0, 57, 64
1, 40079, Note_off_c, 4, 50, 64
1, 40080, Note_on_c, 0, 54, 49
1, 40080, Note_on_c, 0, 57, 85
1, 40080, Note_on_c, 0, 62, 75
1, 40080, Note_on_c, 1, 38, 100
1, 40080, Note_on_c, 4, 45, 105
1, 40080, Note_on_c, 4, 50, 116
1, 40080, Note_on_c, 9, 35, 120
1, 40109, Note_off_c, 9, 35, 64
1, 40139, Note_off_c, 4, 50, 64
1, 40139, Note_off_c, 0, 62, 64
1, 40139, Note_off_c, 0, 54, 64
1, 40139, Note_off_c, 0, 57, 64
1, 40139, Note_off_c, 4, 45, 64
1, 40140, Note_on_c, 0, 57, 56
1, 40140, Note_on_c, 0, 62, 84
1, 40140, Note_on_c, 0, 66, 49
1, 40140, Note_on_c, 4, 50, 105
1, 40140, Note_on_c, 4, 54, 115
1, 40140, Note_on_c, 9, 39, 115
1, 40140, Note_on_c, 9, 73, 115
1, 40169, Note_off_c, 9, 73, 64
1, 40169, Note_off_c, 0, 62, 64
1, 40169, Note_off_c, 9, 39, 64
1, 40169, Note_off_c, 0, 66, 64
1, 40169, Note_off_c, 4, 54, 64
1, 40169, Note_off_c, 0, 57, 64
1, 40169, Note_off_c, 4, 50, 64
1, 40170, Note_on_c, 0, 57, 84
1, 40170, Note_on_c, 0, 62, 94
1, 40170, Note_on_c, 0, 66, 76
1, 40170, Note_on_c, 4, 50, 100
1, 40170, Note_on_c, 4, 54, 92
1, 40199, Note_off_c, 4, 54, 64
1, 40199, Note_off_c, 0, 66, 64
1, 40199, Note_off_c, 1, 38, 64
1, 40199, Note_off_c, 0, 57, 64
1, 40199, Note_off_c, 0, 62, 64
1, 40199, Note_off_c, 4, 50, 64
1, 40200, Note_on_c, 0, 52, 47
1, 40200, Note_on_c, 0, 57, 89
1, 40200, Note_on_c, 0, 61, 52
1, 40200, Note_on_c, 1, 33, 100
1, 40200, Note_on_c, 4, 45, 101
1, 40200, Note_on_c, 4, 52, 101
1, 40200, Note_on_c, 9, 35, 120
1, 40229, Note_off_c, 9, 35, 64
1, 40259, Note_off_c, 4, 52, 64
1, 40259, Note_off_c, 0, 61, 64
1, 40259, Note_off_c, 0, 52, 64
1, 40259, Note_off_c, 0, 57, 64
1, 40259, Note_off_c, 4, 45, 64
1, 40260, Note_on_c, 0, 57, 51
1, 40260, Note_on_c, 0, 61, 52
1, 40260, Note_on_c, 0, 64, 78
1, 40260, Note_on_c, 4, 49, 89
1, 40260, Note_on_c, 4, 52, 101
1, 40260, Note_on_c, 4, 57, 89
1, 40260, Note_on_c, 9, 39, 119
1, 40260, Note_on_c, 9, 73, 115
1, 40289, Note_off_c, 9, 73, 64
1, 40289, Note_off_c, 0, 57, 64
1, 40289, Note_off_c, 0, 61, 64
1, 40289, Note_off_c, 9, 39, 64
1, 40289, Note_off_c, 0, 64, 64
1, 40289, Note_off_c, 3, 57, 64
1, 40289, Note_off_c, 4, 57, 64
1, 40289, Note_off_c, 4, 52, 64
1, 40289, Note_off_c, 4, 49, 64
1, 40290, Note_on_c, 0, 57, 73
1, 40290, Note_on_c, 0, 61, 52
1, 40290, Note_on_c, 0, 64, 83
1, 40290, Note_on_c, 4, 49, 119
1, 40290, Note_on_c, 4, 52, 118
1, 40290, Note_on_c, 4, 57, 105
1, 40319, Note_off_c, 4, 57, 64
1, 40319, Note_off_c, 4, 49, 64
1, 40319, Note_off_c, 0, 57, 64
1, 40319, Note_off_c, 0, 61, 64
1, 40319, Note_off_c, 1, 33, 64
1, 40319, Note_off_c, 4, 52, 64
1, 40319, Note_off_c, 0, 64, 64
1, 40320, Note_on_c, 0, 59, 58
1, 40320, Note_on_c, 0, 62, 91
1, 40320, Note_on_c, 1, 35, 100
1, 40320, Note_on_c, 4, 47, 85
1, 40320, Note_on_c, 4, 54, 120
1, 40320, Note_on_c, 9, 35, 120
1, 40320, Control_c, 12, 74, 21
1, 40320, Control_c, 12, 11, 23
1, 40320, Note_on_c, 12, 60, 120
1, 40335, Control_c, 12, 74, 24
1, 40335, Control_c, 12, 11, 25
1, 40349, Note_off_c, 9, 35, 64
1, 40350, Control_c, 12, 74, 27
1, 40350, Control_c, 12, 11, 27
1, 40365, Control_c, 12, 74, 31
1, 40365, Control_c, 12, 11, 29
1, 40379, Note_off_c, 4, 47, 64
1, 40379, Note_off_c, 0, 59, 64
1, 40379, Note_off_c, 0, 62, 64
1, 40379, Note_off_c, 4, 54, 64
1, 40380, Note_on_c, 0, 59, 79
1, 40380, Note_on_c, 0, 62, 95
1, 40380, Note_on_c, 0, 66, 74
1, 40380, Note_on_c, 4, 50, 92
1, 40380, Note_on_c, 4, 54, 87
1, 40380, Note_on_c, 4, 62, 95
1, 40380, Note_on_c, 9, 39, 119
1, 40380, Note_on_c, 9, 73, 119
1, 40380, Control_c, 12, 74, 34
1, 40380, Control_c, 12, 11, 31
1, 40395, Control_c, 12, 74, 38
1, 40395, Control_c, 12, 11, 34
1, 40409, Note_off_c, 9, 73, 64
1, 40409, Note_off_c, 9, 39, 64
1, 40410, Control_c, 12, 74, 41
1, 40410, Control_c, 12, 11, 36
1, 40425, Control_c, 12, 74, 44
1, 40425, Control_c, 12, 11, 38
1, 40439, Note_off_c, 1, 35, 64
1, 40440, Note_on_c, 1, 35, 100
1, 40440, Note_on_c, 3, 57, 111
1, 40440, Note_on_c, 9, 35, 120
1, 40440, Control_c, 12, 74, 48
1, 40440, Control_c, 12, 11, 40
1, 40440, Lyric_t, "did"
1, 40455, Control_c, 12, 74, 51
1, 40455, Control_c, 12, 11, 42
1, 40469, Note_off_c, 9, 35, 64
1, 40469, Note_off_c, 0, 62, 64
1, 40469, Note_off_c, 3, 57, 64
1, 40469, Note_off_c, 4, 62, 64
1, 40469, Note_off_c, 4, 50, 64
1, 40469, Note_off_c, 0, 59, 64
1, 40469, Note_off_c, 0, 66, 64
1, 40469, Note_off_c, 4, 54, 64
1, 40470, Note_on_c, 0, 59, 71
1, 40470, Note_on_c, 0, 62, 91
1, 40470, Note_on_c, 0, 66, 60
1, 40470, Note_on_c, 4, 54, 109
1, 40470, Note_on_c, 4, 59, 95
1, 40470, Control_c, 12, 74, 55
1, 40470, Control_c, 12, 11, 45
1, 40485, Control_c, 12, 74, 58
1, 40485, Control_c, 12, 11, 47
1, 40499, Note_off_c, 4, 59, 64
1, 40499, Note_off_c, 0, 66, 64
1, 40499, Note_off_c, 0, 62, 64
1, 40499, Note_off_c, 0, 59, 64
1, 40499, Note_off_c, 4, 54, 64
1, 40500, Note_on_c, 0, 62, 80
1, 40500, Note_on_c, 0, 66, 62
1, 40500, Note_on_c, 0, 71, 91
1, 40500, Note_on_c, 3, 57, 103
1, 40500, Note_on_c, 4, 50, 103
1, 40500, Note_on_c, 4, 54, 115
1, 40500, Note_on_c, 9, 39, 120
1, 40500, Note_on_c, 9, 73, 111
1, 40500, Control_c, 12, 74, 62
1, 40500, Control_c, 12, 11, 49
1, 40500, Lyric_t, "n't "
1, 40515, Control_c, 12, 74, 65
1, 40515, Control_c, 12, 11, 51
1, 40529, Note_off_c, 9, 73, 64
1, 40529, Note_off_c, 0, 62, 64
1, 40529, Note_off_c, 0, 66, 64
1, 40529, Note_off_c, 9, 39, 64
1, 40529, Note_off_c, 0, 71, 64
1, 40529, Note_off_c, 4, 50, 64
1, 40529, Note_off_c, 4, 54, 64
1, 40529, Note_off_c, 3, 57, 64
1, 40530, Note_on_c, 0, 59, 51
1, 40530, Note_on_c, 0, 62, 85
1, 40530, Note_on_c, 0, 66, 59
1, 40530, Note_on_c, 4, 47, 92
1, 40530, Note_on_c, 4, 52, 98
1, 40530, Control_c, 12, 74, 68
1, 40530, Control_c, 12, 11, 53
1, 40545, Control_c, 12, 74, 72
1, 40545, Control_c, 12, 11, 56
1, 40559, Note_off_c, 4, 52, 64
1, 40559, Note_off_c, 0, 66, 64
1, 40559, Note_off_c, 1, 35, 64
1, 40559, Note_off_c, 0, 59, 64
1, 40559, Note_off_c, 0, 62, 64
1, 40559, Note_off_c, 4, 47, 64
1, 40560, Note_on_c, 0, 55, 74
1, 40560, Note_on_c, 0, 59, 94
1, 40560, Note_on_c, 0, 62, 91
1, 40560, Note_on_c, 1, 31, 100
1, 40560, Note_on_c, 3, 55, 118
1, 40560, Note_on_c, 4, 43, 98
1, 40560, Note_on_c, 4, 50, 116
1, 40560, Note_on_c, 9, 35, 120
1, 40560, Control_c, 12, 74, 75
1, 40560, Control_c, 12, 11, 58
1, 40560, Lyric_t, "know "
1, 40575, Control_c, 12, 74, 79
1, 40575, Control_c, 12, 11, 60
1, 40589, Note_off_c, 9, 35, 64
1, 40590, Control_c, 12, 74, 82
1, 40590, Control_c, 12, 11, 62
1, 40605, Control_c, 12, 74, 85
1, 40605, Control_c, 12, 11, 65
1, 40619, Note_off_c, 0, 59, 64
1, 40619, Note_off_c, 4, 50, 64
1, 40619, Note_off_c, 0, 62, 64
1, 40619, Note_off_c, 0, 55, 64
1, 40619, Note_off_c, 4, 43, 64
1, 40619, Note_off_c, 3, 55, 64
1, 40620, Note_on_c, 0, 59, 70
1, 40620, Note_on_c, 0, 62, 94
1, 40620, Note_on_c, 0, 67, 101
1, 40620, Note_on_c, 4, 50, 79
1, 40620, Note_on_c, 4, 55, 111
1, 40620, Note_on_c, 4, 59, 100
1, 40620, Note_on_c, 9, 39, 120
1, 40620, Note_on_c, 9, 73, 109
1, 40620, Control_c, 12, 74, 89
1, 40620, Control_c, 12, 11, 67
1, 40635, Control_c, 12, 74, 92
1, 40635, Control_c, 12, 11, 69
1, 40649, Note_off_c, 9, 73, 64
1, 40649, Note_off_c, 9, 39, 64
1, 40650, Note_on_c, 3, 54, 115
1, 40650, Control_c, 12, 74, 96
1, 40650, Control_c, 12, 11, 71
1, 40650, Lyric_t, "I "
1, 40665, Control_c, 12, 74, 99
1, 40665, Control_c, 12, 11, 73
1, 40679, Note_off_c, 3, 54, 64
1, 40679, Note_off_c, 1, 31, 64
1, 40680, Note_on_c, 1, 31, 100
1, 40680, Note_on_c, 9, 35, 120
1, 40680, Control_c, 12, 74, 103
1, 40680, Control_c, 12, 11, 76
1, 40695, Control_c, 12, 74, 106
1, 40695, Control_c, 12, 11, 78
1, 40709, Note_off_c, 9, 35, 64
1, 40709, Note_off_c, 4, 59, 64
1, 40709, Note_off_c, 0, 67, 64
1, 40709, Note_off_c, 4, 50, 64
1, 40709, Note_off_c, 0, 59, 64
1, 40709, Note_off_c, 0, 62, 64
1, 40709, Note_off_c, 4, 55, 64
1, 40710, Note_on_c, 0, 59, 52
1, 40710, Note_on_c, 0, 62, 85
1, 40710, Note_on_c, 0, 67, 94
1, 40710, Note_on_c, 3, 52, 101
1, 40710, Note_on_c, 4, 50, 82
1, 40710, Note_on_c, 4, 55, 98
1, 40710, Note_on_c, 4, 59, 85
1, 40710, Control_c, 12, 74, 109
1, 40710, Control_c, 12, 11, 80
1, 40710, Lyric_t, "was "
1, 40725, Control_c, 12, 74, 113
1, 40725, Control_c, 12, 11, 82
1, 40739, Note_off_c, 4, 59, 64
1, 40739, Note_off_c, 0, 62, 64
1, 40739, Note_off_c, 4, 55, 64
1, 40739, Note_off_c, 4, 50, 64
1, 40739, Note_off_c, 0, 59, 64
1, 40739, Note_off_c, 0, 67, 64
1, 40740, Note_on_c, 0, 62, 78
1, 40740, Note_on_c, 0, 67, 100
1, 40740, Note_on_c, 0, 71, 46
1, 40740, Note_on_c, 4, 43, 109
1, 40740, Note_on_c, 4, 50, 109
1, 40740, Note_on_c, 9, 39, 120
1, 40740, Note_on_c, 9, 73, 115
1, 40740, Control_c, 12, 74, 116
1, 40740, Control_c, 12, 11, 84
1, 40755, Control_c, 12, 74, 120
1, 40755, Control_c, 12, 11, 87
1, 40769, Note_off_c, 9, 73, 64
1, 40769, Note_off_c, 3, 52, 64
1, 40769, Note_off_c, 0, 62, 64
1, 40769, Note_off_c, 9, 39, 64
1, 40769, Note_off_c, 0, 67, 64
1, 40769, Note_off_c, 4, 43, 64
1, 40769, Note_off_c, 4, 50, 64
1, 40769, Note_off_c, 0, 71, 64
1, 40770, Note_on_c, 0, 59, 45
1, 40770, Note_on_c, 0, 62, 73
1, 40770, Note_on_c, 0, 67, 86
1, 40770, Note_on_c, 4, 43, 101
1, 40770, Note_on_c, 4, 52, 116
1, 40770, Control_c, 12, 74, 123
1, 40770, Control_c, 12, 11, 89
1, 40785, Control_c, 12, 74, 127
1, 40785, Control_c, 12, 11, 91
1, 40799, Note_off_c, 4, 52, 64
1, 40799, Note_off_c, 0, 67, 64
1, 40799, Note_off_c, 1, 31, 64
1, 40799, Note_off_c, 0, 59, 64
1, 40799, Note_off_c, 0, 62, 64
1, 40799, Note_off_c, 4, 43, 64
1, 40800, Note_on_c, 0, 54, 35
1, 40800, Note_on_c, 0, 57, 85
1, 40800, Note_on_c, 0, 62, 79
1, 40800, Note_on_c, 1, 38, 100
1, 40800, Note_on_c, 3, 50, 119
1, 40800, Note_on_c, 4, 45, 90
1, 40800, Note_on_c, 4, 50, 105
1, 40800, Note_on_c, 10, 72, 120
1, 40800, Control_c, 12, 11, 93
1, 40800, Lyric_t, "lost "
1, 40800, Lyric_t, "\015"
1, 40815, Control_c, 12, 11, 96
1, 40830, Control_c, 12, 11, 98
1, 40845, Control_c, 12, 11, 100
1, 40859, Note_off_c, 4, 50, 64
1, 40859, Note_off_c, 4, 45, 64
1, 40859, Note_off_c, 0, 57, 64
1, 40859, Note_off_c, 0, 54, 64
1, 40859, Note_off_c, 0, 62, 64
1, 40860, Note_on_c, 0, 57, 69
1, 40860, Note_on_c, 0, 62, 98
1, 40860, Note_on_c, 0, 66, 74
1, 40860, Note_on_c, 4, 45, 100
1, 40860, Note_on_c, 4, 50, 111
1, 40860, Note_on_c, 4, 54, 89
1, 40860, Control_c, 12, 11, 102
1, 40875, Control_c, 12, 11, 104
1, 40890, Control_c, 12, 11, 107
1, 40905, Control_c, 12, 11, 109
1, 40919, Note_off_c, 1, 38, 64
1, 40920, Note_on_c, 1, 38, 100
1, 40920, Control_c, 12, 11, 111
1, 40935, Control_c, 12, 11, 113
1, 40949, Note_off_c, 4, 54, 64
1, 40949, Note_off_c, 4, 45, 64
1, 40949, Note_off_c, 0, 57, 64
1, 40949, Note_off_c, 4, 50, 64
1, 40949, Note_off_c, 0, 62, 64
1, 40949, Note_off_c, 0, 66, 64
1, 40950, Note_on_c, 0, 54, 44
1, 40950, Note_on_c, 0, 57, 78
1, 40950, Note_on_c, 0, 62, 58
1, 40950, Note_on_c, 4, 45, 85
1, 40950, Note_on_c, 4, 50, 105
1, 40950, Note_on_c, 4, 54, 81
1, 40950, Control_c, 12, 11, 115
1, 40965, Control_c, 12, 11, 118
1, 40979, Note_off_c, 4, 54, 64
1, 40979, Note_off_c, 4, 50, 64
1, 40979, Note_off_c, 0, 62, 64
1, 40979, Note_off_c, 4, 45, 64
1, 40979, Note_off_c, 0, 54, 64
1, 40979, Note_off_c, 0, 57, 64
1, 40980, Note_on_c, 0, 57, 57
1, 40980, Note_on_c, 0, 62, 91
1, 40980, Note_on_c, 0, 66, 77
1, 40980, Note_on_c, 4, 50, 109
1, 40980, Note_on_c, 4, 54, 89
1, 40980, Note_on_c, 4, 57, 109
1, 40980, Control_c, 12, 11, 120
1, 40995, Control_c, 12, 11, 122
1, 41009, Note_off_c, 4, 57, 64
1, 41009, Note_off_c, 4, 54, 64
1, 41009, Note_off_c, 0, 66, 64
1, 41009, Note_off_c, 3, 50, 64
1, 41009, Note_off_c, 0, 57, 64
1, 41009, Note_off_c, 4, 50, 64
1, 41009, Note_off_c, 0, 62, 64
1, 41010, Note_on_c, 0, 54, 35
1, 41010, Note_on_c, 0, 57, 79
1, 41010, Note_on_c, 0, 62, 56
1, 41010, Note_on_c, 4, 50, 111
1, 41010, Note_on_c, 4, 54, 100
1, 41010, Note_on_c, 4, 57, 100
1, 41010, Control_c, 12, 11, 124
1, 41025, Control_c, 12, 11, 127
1, 41039, Note_off_c, 4, 57, 64
1, 41039, Note_off_c, 0, 54, 64
1, 41039, Note_off_c, 12, 60, 64
1, 41039, Note_off_c, 0, 57, 64
1, 41039, Note_off_c, 1, 38, 64
1, 41039, Note_off_c, 10, 72, 64
1, 41039, Note_off_c, 4, 50, 64
1, 41039, Note_off_c, 0, 62, 64
1, 41039, Note_off_c, 4, 54, 64
1, 41100, Note_on_c, 3, 59, 111
1, 41100, Lyric_t, "So "
1, 41129, Note_off_c, 3, 59, 64
1, 41160, Note_on_c, 3, 59, 111
1, 41160, Lyric_t, "wake "
1, 41189, Note_off_c, 3, 59, 64
1, 41220, Note_on_c, 3, 61, 119
1, 41220, Lyric_t, "me "
1, 41249, Note_off_c, 3, 61, 64
1, 41280, Note_on_c, 0, 59, 58
1, 41280, Note_on_c, 0, 62, 91
1, 41280, Note_on_c, 1, 35, 100
1, 41280, Note_on_c, 3, 62, 120
1, 41280, Note_on_c, 4, 47, 85
1, 41280, Note_on_c, 4, 54, 120
1, 41280, Note_on_c, 9, 35, 120
1, 41280, Note_on_c, 9, 70, 115
1, 41280, Control_c, 12, 11, 126
1, 41280, Note_on_c, 12, 60, 120
1, 41280, Lyric_t, "up "
1, 41295, Control_c, 12, 11, 121
1, 41309, Note_off_c, 9, 70, 64
1, 41309, Note_off_c, 9, 35, 64
1, 41310, Control_c, 12, 11, 117
1, 41325, Control_c, 12, 11, 113
1, 41339, Note_off_c, 0, 62, 64
1, 41339, Note_off_c, 4, 47, 64
1, 41339, Note_off_c, 0, 59, 64
1, 41339, Note_off_c, 4, 54, 64
1, 41340, Note_on_c, 0, 59, 79
1, 41340, Note_on_c, 0, 62, 95
1, 41340, Note_on_c, 0, 66, 74
1, 41340, Note_on_c, 4, 50, 92
1, 41340, Note_on_c, 4, 54, 87
1, 41340, Note_on_c, 4, 62, 95
1, 41340, Note_on_c, 9, 39, 120
1, 41340, Note_on_c, 9, 73, 111
1, 41340, Control_c, 12, 11, 109
1, 41355, Control_c, 12, 11, 105
1, 41369, Note_off_c, 9, 73, 64
1, 41369, Note_off_c, 9, 39, 64
1, 41370, Control_c, 12, 11, 101
1, 41385, Control_c, 12, 11, 97
1, 41399, Note_off_c, 1, 35, 64
1, 41399, Note_off_c, 3, 62, 64
1, 41400, Note_on_c, 1, 35, 100
1, 41400, Note_on_c, 3, 61, 120
1, 41400, Note_on_c, 9, 35, 120
1, 41400, Note_on_c, 9, 70, 115
1, 41400, Control_c, 12, 11, 93
1, 41400, Lyric_t, "when "
1, 41415, Control_c, 12, 11, 89
1, 41429, Note_off_c, 9, 70, 64
1, 41429, Note_off_c, 4, 54, 64
1, 41429, Note_off_c, 0, 62, 64
1, 41429, Note_off_c, 9, 35, 64
1, 41429, Note_off_c, 4, 62, 64
1, 41429, Note_off_c, 0, 66, 64
1, 41429, Note_off_c, 0, 59, 64
1, 41429, Note_off_c, 4, 50, 64
1, 41430, Note_on_c, 0, 59, 71
1, 41430, Note_on_c, 0, 62, 91
1, 41430, Note_on_c, 0, 66, 60
1, 41430, Note_on_c, 4, 54, 109
1, 41430, Note_on_c, 4, 59, 95
1, 41430, Control_c, 12, 11, 85
1, 41445, Control_c, 12, 11, 81
1, 41459, Note_off_c, 4, 59, 64
1, 41459, Note_off_c, 4, 54, 64
1, 41459, Note_off_c, 0, 62, 64
1, 41459, Note_off_c, 0, 59, 64
1, 41459, Note_off_c, 0, 66, 64
1, 41460, Note_on_c, 0, 62, 80
1, 41460, Note_on_c, 0, 66, 62
1, 41460, Note_on_c, 0, 71, 91
1, 41460, Note_on_c, 4, 50, 103
1, 41460, Note_on_c, 4, 54, 115
1, 41460, Note_on_c, 9, 39, 120
1, 41460, Note_on_c, 9, 73, 111
1, 41460, Control_c, 12, 11, 77
1, 41475, Control_c, 12, 11, 73
1, 41489, Note_off_c, 9, 73, 64
1, 41489, Note_off_c, 3, 61, 64
1, 41489, Note_off_c, 0, 62, 64
1, 41489, Note_off_c, 9, 39, 64
1, 41489, Note_off_c, 0, 66, 64
1, 41489, Note_off_c, 4, 50, 64
1, 41489, Note_off_c, 4, 54, 64
1, 41489, Note_off_c, 0, 71, 64
1, 41490, Note_on_c, 0, 59, 51
1, 41490, Note_on_c, 0, 62, 85
1, 41490, Note_on_c, 0, 66, 59
1, 41490, Note_on_c, 4, 47, 92
1, 41490, Note_on_c, 4, 52, 98
1, 41490, Control_c, 12, 11, 69
1, 41505, Control_c, 12, 11, 65
1, 41519, Note_off_c, 4, 52, 64
1, 41519, Note_off_c, 0, 66, 64
1, 41519, Note_off_c, 1, 35, 64
1, 41519, Note_off_c, 0, 59, 64
1, 41519, Note_off_c, 0, 62, 64
1, 41519, Note_off_c, 4, 47, 64
1, 41520, Note_on_c, 0, 55, 74
1, 41520, Note_on_c, 0, 59, 94
1, 41520, Note_on_c, 0, 62, 91
1, 41520, Note_on_c, 1, 31, 100
1, 41520, Note_on_c, 3, 59, 118
1, 41520, Note_on_c, 4, 43, 98
1, 41520, Note_on_c, 4, 50, 116
1, 41520, Note_on_c, 9, 35, 120
1, 41520, Note_on_c, 9, 70, 104
1, 41520, Control_c, 12, 11, 60
1, 41520, Lyric_t, "it's "
1, 41535, Control_c, 12, 11, 56
1, 41549, Note_off_c, 9, 70, 64
1, 41549, Note_off_c, 9, 35, 64
1, 41550, Control_c, 12, 11, 52
1, 41565, Control_c, 12, 11, 48
1, 41579, Note_off_c, 4, 43, 64
1, 41579, Note_off_c, 0, 59, 64
1, 41579, Note_off_c, 0, 55, 64
1, 41579, Note_off_c, 4, 50, 64
1, 41579, Note_off_c, 0, 62, 64
1, 41580, Note_on_c, 0, 59, 70
1, 41580, Note_on_c, 0, 62, 94
1, 41580, Note_on_c, 0, 67, 101
1, 41580, Note_on_c, 4, 50, 79
1, 41580, Note_on_c, 4, 55, 111
1, 41580, Note_on_c, 4, 59, 100
1, 41580, Note_on_c, 9, 39, 120
1, 41580, Note_on_c, 9, 73, 109
1, 41580, Control_c, 12, 11, 44
1, 41595, Control_c, 12, 11, 40
1, 41609, Note_off_c, 9, 73, 64
1, 41609, Note_off_c, 9, 39, 64
1, 41609, Note_off_c, 3, 59, 64
1, 41610, Control_c, 12, 11, 36
1, 41625, Control_c, 12, 11, 32
1, 41639, Note_off_c, 1, 31, 64
1, 41640, Note_on_c, 1, 31, 100
1, 41640, Note_on_c, 3, 57, 116
1, 41640, Note_on_c, 9, 35, 120
1, 41640, Note_on_c, 9, 70, 119
1, 41640, Control_c, 12, 11, 28
1, 41640, Lyric_t, "all "
1, 41655, Control_c, 12, 11, 24
1, 41669, Note_off_c, 9, 70, 64
1, 41669, Note_off_c, 4, 55, 64
1, 41669, Note_off_c, 0, 62, 64
1, 41669, Note_off_c, 9, 35, 64
1, 41669, Note_off_c, 4, 59, 64
1, 41669, Note_off_c, 0, 67, 64
1, 41669, Note_off_c, 0, 59, 64
1, 41669, Note_off_c, 4, 50, 64
1, 41670, Note_on_c, 0, 59, 52
1, 41670, Note_on_c, 0, 62, 85
1, 41670, Note_on_c, 0, 67, 94
1, 41670, Note_on_c, 4, 50, 82
1, 41670, Note_on_c, 4, 55, 98
1, 41670, Note_on_c, 4, 59, 85
1, 41670, Control_c, 12, 11, 20
1, 41685, Control_c, 12, 11, 16
1, 41699, Note_off_c, 4, 59, 64
1, 41699, Note_off_c, 0, 59, 64
1, 41699, Note_off_c, 4, 55, 64
1, 41699, Note_off_c, 0, 62, 64
1, 41699, Note_off_c, 4, 50, 64
1, 41699, Note_off_c, 3, 57, 64
1, 41699, Note_off_c, 0, 67, 64
1, 41700, Note_on_c, 0, 62, 78
1, 41700, Note_on_c, 0, 67, 100
1, 41700, Note_on_c, 0, 71, 46
1, 41700, Note_on_c, 4, 43, 109
1, 41700, Note_on_c, 4, 50, 109
1, 41700, Note_on_c, 9, 39, 120
1, 41700, Note_on_c, 9, 73, 115
1, 41700, Control_c, 12, 11, 12
1, 41715, Control_c, 12, 11, 8
1, 41729, Note_off_c, 9, 73, 64
1, 41729, Note_off_c, 0, 67, 64
1, 41729, Note_off_c, 9, 39, 64
1, 41729, Note_off_c, 0, 71, 64
1, 41729, Note_off_c, 4, 50, 64
1, 41729, Note_off_c, 0, 62, 64
1, 41729, Note_off_c, 4, 43, 64
1, 41730, Note_on_c, 0, 59, 45
1, 41730, Note_on_c, 0, 62, 73
1, 41730, Note_on_c, 0, 67, 86
1, 41730, Note_on_c, 3, 57, 116
1, 41730, Note_on_c, 4, 43, 101
1, 41730, Note_on_c, 4, 52, 116
1, 41730, Control_c, 12, 11, 4
1, 41730, Lyric_t, "o"
1, 41745, Control_c, 12, 11, 0
1, 41759, Note_off_c, 4, 52, 64
1, 41759, Note_off_c, 12, 60, 64
1, 41759, Note_off_c, 1, 31, 64
1, 41759, Note_off_c, 4, 43, 64
1, 41759, Note_off_c, 0, 59, 64
1, 41759, Note_off_c, 0, 62, 64
1, 41759, Note_off_c, 0, 67, 64
1, 41760, Note_on_c, 0, 54, 35
1, 41760, Note_on_c, 0, 57, 85
1, 41760, Note_on_c, 0, 62, 79
1, 41760, Note_on_c, 1, 38, 100
1, 41760, Note_on_c, 4, 45, 90
1, 41760, Note_on_c, 4, 50, 105
1, 41760, Note_on_c, 9, 35, 120
1, 41760, Note_on_c, 9, 70, 109
1, 41789, Note_off_c, 9, 70, 64
1, 41789, Note_off_c, 9, 35, 64
1, 41789, Note_off_c, 3, 57, 64
1, 41819, Note_off_c, 4, 45, 64
1, 41819, Note_off_c, 0, 57, 64
1, 41819, Note_off_c, 0, 54, 64
1, 41819, Note_off_c, 0, 62, 64
1, 41819, Note_off_c, 4, 50, 64
1, 41820, Note_on_c, 0, 57, 69
1, 41820, Note_on_c, 0, 62, 98
1, 41820, Note_on_c, 0, 66, 74
1, 41820, Note_on_c, 3, 50, 120
1, 41820, Note_on_c, 4, 45, 100
1, 41820, Note_on_c, 4, 50, 111
1, 41820, Note_on_c, 4, 54, 89
1, 41820, Note_on_c, 9, 39, 119
1, 41820, Note_on_c, 9, 73, 111
1, 41820, Lyric_t, "ver "
1, 41820, Lyric_t, "\015"
1, 41849, Note_off_c, 9, 73, 64
1, 41849, Note_off_c, 9, 39, 64
1, 41849, Note_off_c, 3, 50, 64
1, 41879, Note_off_c, 1, 38, 64
1, 41880, Note_on_c, 1, 38, 100
1, 41880, Note_on_c, 9, 35, 120
1, 41880, Note_on_c, 9, 70, 111
1, 41909, Note_off_c, 9, 70, 64
1, 41909, Note_off_c, 0, 57, 64
1, 41909, Note_off_c, 4, 54, 64
1, 41909, Note_off_c, 9, 35, 64
1, 41909, Note_off_c, 0, 62, 64
1, 41909, Note_off_c, 0, 66, 64
1, 41909, Note_off_c, 4, 45, 64
1, 41909, Note_off_c, 4, 50, 64
1, 41910, Note_on_c, 0, 54, 44
1, 41910, Note_on_c, 0, 57, 78
1, 41910, Note_on_c, 0, 62, 58
1, 41910, Note_on_c, 4, 45, 85
1, 41910, Note_on_c, 4, 50, 105
1, 41910, Note_on_c, 4, 54, 81
1, 41939, Note_off_c, 4, 54, 64
1, 41939, Note_off_c, 4, 45, 64
1, 41939, Note_off_c, 0, 54, 64
1, 41939, Note_off_c, 0, 57, 64
1, 41939, Note_off_c, 0, 62, 64
1, 41939, Note_off_c, 4, 50, 64
1, 41940, Note_on_c, 0, 57, 57
1, 41940, Note_on_c, 0, 62, 91
1, 41940, Note_on_c, 0, 66, 77
1, 41940, Note_on_c, 4, 50, 109
1, 41940, Note_on_c, 4, 54, 89
1, 41940, Note_on_c, 4, 57, 109
1, 41940, Note_on_c, 9, 39, 120
1, 41940, Note_on_c, 9, 73, 109
1, 41969, Note_off_c, 9, 73, 64
1, 41969, Note_off_c, 0, 66, 64
1, 41969, Note_off_c, 9, 39, 64
1, 41969, Note_off_c, 4, 50, 64
1, 41969, Note_off_c, 0, 57, 64
1, 41969, Note_off_c, 0, 62, 64
1, 41969, Note_off_c, 4, 57, 64
1, 41969, Note_off_c, 4, 54, 64
1, 41970, Note_on_c, 0, 54, 35
1, 41970, Note_on_c, 0, 57, 79
1, 41970, Note_on_c, 0, 62, 56
1, 41970, Note_on_c, 4, 50, 111
1, 41970, Note_on_c, 4, 54, 100
1, 41970, Note_on_c, 4, 57, 100
1, 41999, Note_off_c, 4, 57, 64
1, 41999, Note_off_c, 4, 50, 64
1, 41999, Note_off_c, 0, 54, 64
1, 41999, Note_off_c, 0, 57, 64
1, 41999, Note_off_c, 1, 38, 64
1, 41999, Note_off_c, 4, 54, 64
1, 41999, Note_off_c, 0, 62, 64
1, 42000, Note_on_c, 0, 54, 49
1, 42000, Note_on_c, 0, 57, 85
1, 42000, Note_on_c, 0, 62, 75
1, 42000, Note_on_c, 1, 38, 100
1, 42000, Note_on_c, 4, 45, 105
1, 42000, Note_on_c, 4, 50, 116
1, 42000, Note_on_c, 9, 35, 120
1, 42000, Note_on_c, 9, 70, 109
1, 42029, Note_off_c, 9, 70, 64
1, 42029, Note_off_c, 9, 35, 64
1, 42059, Note_off_c, 4, 45, 64
1, 42059, Note_off_c, 0, 57, 64
1, 42059, Note_off_c, 0, 54, 64
1, 42059, Note_off_c, 0, 62, 64
1, 42059, Note_off_c, 4, 50, 64
1, 42060, Note_on_c, 0, 57, 56
1, 42060, Note_on_c, 0, 62, 84
1, 42060, Note_on_c, 0, 66, 49
1, 42060, Note_on_c, 4, 50, 105
1, 42060, Note_on_c, 4, 54, 115
1, 42060, Note_on_c, 9, 39, 115
1, 42060, Note_on_c, 9, 73, 109
1, 42089, Note_off_c, 9, 73, 64
1, 42089, Note_off_c, 9, 39, 64
1, 42089, Note_off_c, 4, 50, 64
1, 42089, Note_off_c, 0, 57, 64
1, 42089, Note_off_c, 0, 62, 64
1, 42089, Note_off_c, 0, 66, 64
1, 42089, Note_off_c, 4, 54, 64
1, 42090, Note_on_c, 0, 57, 84
1, 42090, Note_on_c, 0, 62, 94
1, 42090, Note_on_c, 0, 66, 76
1, 42090, Note_on_c, 4, 50, 100
1, 42090, Note_on_c, 4, 54, 92
1, 42119, Note_off_c, 4, 54, 64
1, 42119, Note_off_c, 0, 57, 64
1, 42119, Note_off_c, 0, 62, 64
1, 42119, Note_off_c, 1, 38, 64
1, 42119, Note_off_c, 4, 50, 64
1, 42119, Note_off_c, 0, 66, 64
1, 42120, Note_on_c, 0, 52, 47
1, 42120, Note_on_c, 0, 57, 89
1, 42120, Note_on_c, 0, 61, 52
1, 42120, Note_on_c, 1, 33, 100
1, 42120, Note_on_c, 3, 59, 119
1, 42120, Note_on_c, 4, 45, 101
1, 42120, Note_on_c, 4, 52, 101
1, 42120, Note_on_c, 9, 35, 120
1, 42120, Note_on_c, 9, 70, 109
1, 42120, Lyric_t, "When "
1, 42149, Note_off_c, 9, 70, 64
1, 42149, Note_off_c, 9, 35, 64
1, 42179, Note_off_c, 0, 61, 64
1, 42179, Note_off_c, 3, 59, 64
1, 42179, Note_off_c, 0, 57, 64
1, 42179, Note_off_c, 0, 52, 64
1, 42179, Note_off_c, 4, 52, 64
1, 42179, Note_off_c, 4, 45, 64
1, 42180, Note_on_c, 0, 57, 51
1, 42180, Note_on_c, 0, 61, 52
1, 42180, Note_on_c, 0, 64, 78
1, 42180, Note_on_c, 3, 61, 120
1, 42180, Note_on_c, 4, 49, 89
1, 42180, Note_on_c, 4, 52, 101
1, 42180, Note_on_c, 4, 57, 89
1, 42180, Note_on_c, 9, 39, 119
1, 42180, Note_on_c, 9, 73, 111
1, 42180, Lyric_t, "I'm "
1, 42209, Note_off_c, 9, 73, 64
1, 42209, Note_off_c, 0, 61, 64
1, 42209, Note_off_c, 0, 64, 64
1, 42209, Note_off_c, 9, 39, 64
1, 42209, Note_off_c, 3, 61, 64
1, 42209, Note_off_c, 0, 57, 64
1, 42209, Note_off_c, 4, 57, 64
1, 42209, Note_off_c, 4, 52, 64
1, 42209, Note_off_c, 4, 49, 64
1, 42210, Note_on_c, 0, 57, 73
1, 42210, Note_on_c, 0, 61, 52
1, 42210, Note_on_c, 0, 64, 83
1, 42210, Note_on_c, 4, 49, 119
1, 42210, Note_on_c, 4, 52, 118
1, 42210, Note_on_c, 4, 57, 105
1, 42239, Note_off_c, 4, 57, 64
1, 42239, Note_off_c, 4, 49, 64
1, 42239, Note_off_c, 0, 57, 64
1, 42239, Note_off_c, 0, 61, 64
1, 42239, Note_off_c, 1, 33, 64
1, 42239, Note_off_c, 4, 52, 64
1, 42239, Note_off_c, 0, 64, 64
1, 42240, Note_on_c, 0, 59, 58
1, 42240, Note_on_c, 0, 62, 91
1, 42240, Note_on_c, 1, 35, 100
1, 42240, Note_on_c, 3, 62, 119
1, 42240, Note_on_c, 4, 47, 85
1, 42240, Note_on_c, 4, 54, 120
1, 42240, Note_on_c, 9, 35, 120
1, 42240, Note_on_c, 9, 70, 109
1, 42240, Control_c, 12, 11, 127
1, 42240, Lyric_t, "wi"
1, 42269, Note_off_c, 9, 70, 64
1, 42269, Note_off_c, 9, 35, 64
1, 42299, Note_off_c, 4, 47, 64
1, 42299, Note_off_c, 0, 62, 64
1, 42299, Note_off_c, 0, 59, 64
1, 42299, Note_off_c, 4, 54, 64
1, 42300, Note_on_c, 0, 59, 79
1, 42300, Note_on_c, 0, 62, 95
1, 42300, Note_on_c, 0, 66, 74
1, 42300, Note_on_c, 4, 50, 92
1, 42300, Note_on_c, 4, 54, 87
1, 42300, Note_on_c, 4, 62, 95
1, 42300, Note_on_c, 9, 39, 119
1, 42300, Note_on_c, 9, 73, 104
1, 42329, Note_off_c, 9, 73, 64
1, 42329, Note_off_c, 9, 39, 64
1, 42329, Note_off_c, 3, 62, 64
1, 42359, Note_off_c, 1, 35, 64
1, 42360, Note_on_c, 1, 35, 100
1, 42360, Note_on_c, 3, 66, 120
1, 42360, Note_on_c, 9, 35, 120
1, 42360, Note_on_c, 9, 70, 109
1, 42360, Lyric_t, "ser "
1, 42389, Note_off_c, 9, 70, 64
1, 42389, Note_off_c, 0, 66, 64
1, 42389, Note_off_c, 4, 62, 64
1, 42389, Note_off_c, 9, 35, 64
1, 42389, Note_off_c, 0, 62, 64
1, 42389, Note_off_c, 0, 59, 64
1, 42389, Note_off_c, 4, 50, 64
1, 42389, Note_off_c, 4, 54, 64
1, 42390, Note_on_c, 0, 59, 71
1, 42390, Note_on_c, 0, 62, 91
1, 42390, Note_on_c, 0, 66, 60
1, 42390, Note_on_c, 4, 54, 109
1, 42390, Note_on_c, 4, 59, 95
1, 42419, Note_off_c, 4, 59, 64
1, 42419, Note_off_c, 0, 66, 64
1, 42419, Note_off_c, 0, 62, 64
1, 42419, Note_off_c, 0, 59, 64
1, 42419, Note_off_c, 4, 54, 64
1, 42420, Note_on_c, 0, 62, 80
1, 42420, Note_on_c, 0, 66, 62
1, 42420, Note_on_c, 0, 71, 91
1, 42420, Note_on_c, 4, 50, 103
1, 42420, Note_on_c, 4, 54, 115
1, 42420, Note_on_c, 9, 39, 120
1, 42420, Note_on_c, 9, 73, 109
1, 42449, Note_off_c, 9, 73, 64
1, 42449, Note_off_c, 0, 66, 64
1, 42449, Note_off_c, 9, 39, 64
1, 42449, Note_off_c, 0, 71, 64
1, 42449, Note_off_c, 3, 66, 64
1, 42449, Note_off_c, 0, 62, 64
1, 42449, Note_off_c, 4, 54, 64
1, 42449, Note_off_c, 4, 50, 64
1, 42450, Note_on_c, 0, 59, 51
1, 42450, Note_on_c, 0, 62, 85
1, 42450, Note_on_c, 0, 66, 59
1, 42450, Note_on_c, 4, 47, 92
1, 42450, Note_on_c, 4, 52, 98
1, 42479, Note_off_c, 4, 52, 64
1, 42479, Note_off_c, 0, 59, 64
1, 42479, Note_off_c, 0, 62, 64
1, 42479, Note_off_c, 1, 35, 64
1, 42479, Note_off_c, 4, 47, 64
1, 42479, Note_off_c, 0, 66, 64
1, 42480, Note_on_c, 0, 55, 74
1, 42480, Note_on_c, 0, 59, 94
1, 42480, Note_on_c, 0, 62, 91
1, 42480, Note_on_c, 1, 31, 100
1, 42480, Note_on_c, 3, 67, 120
1, 42480, Note_on_c, 4, 43, 98
1, 42480, Note_on_c, 4, 50, 116
1, 42480, Note_on_c, 9, 35, 120
1, 42480, Note_on_c, 9, 70, 115
1, 42480, Lyric_t, "and "
1, 42509, Note_off_c, 9, 70, 64
1, 42509, Note_off_c, 9, 35, 64
1, 42539, Note_off_c, 0, 55, 64
1, 42539, Note_off_c, 0, 62, 64
1, 42539, Note_off_c, 0, 59, 64
1, 42539, Note_off_c, 4, 50, 64
1, 42539, Note_off_c, 4, 43, 64
1, 42540, Note_on_c, 0, 59, 70
1, 42540, Note_on_c, 0, 62, 94
1, 42540, Note_on_c, 0, 67, 101
1, 42540, Note_on_c, 4, 50, 79
1, 42540, Note_on_c, 4, 55, 111
1, 42540, Note_on_c, 4, 59, 100
1, 42540, Note_on_c, 9, 39, 120
1, 42540, Note_on_c, 9, 73, 109
1, 42569, Note_off_c, 9, 73, 64
1, 42569, Note_off_c, 9, 39, 64
1, 42569, Note_off_c, 3, 67, 64
1, 42599, Note_off_c, 1, 31, 64
1, 42600, Note_on_c, 1, 31, 100
1, 42600, Note_on_c, 3, 69, 120
1, 42600, Note_on_c, 9, 35, 120
1, 42600, Note_on_c, 9, 70, 109
1, 42600, Lyric_t, "I'm "
1, 42629, Note_off_c, 9, 70, 64
1, 42629, Note_off_c, 0, 67, 64
1, 42629, Note_off_c, 4, 59, 64
1, 42629, Note_off_c, 9, 35, 64
1, 42629, Note_off_c, 0, 62, 64
1, 42629, Note_off_c, 0, 59, 64
1, 42629, Note_off_c, 4, 50, 64
1, 42629, Note_off_c, 4, 55, 64
1, 42630, Note_on_c, 0, 59, 52
1, 42630, Note_on_c, 0, 62, 85
1, 42630, Note_on_c, 0, 67, 94
1, 42630, Note_on_c, 4, 50, 82
1, 42630, Note_on_c, 4, 55, 98
1, 42630, Note_on_c, 4, 59, 85
1, 42659, Note_off_c, 4, 59, 64
1, 42659, Note_off_c, 4, 55, 64
1, 42659, Note_off_c, 0, 67, 64
1, 42659, Note_off_c, 3, 69, 64
1, 42659, Note_off_c, 0, 59, 64
1, 42659, Note_off_c, 0, 62, 64
1, 42659, Note_off_c, 4, 50, 64
1, 42660, Note_on_c, 0, 62, 78
1, 42660, Note_on_c, 0, 67, 100
1, 42660, Note_on_c, 0, 71, 46
1, 42660, Note_on_c, 4, 43, 109
1, 42660, Note_on_c, 4, 50, 109
1, 42660, Note_on_c, 9, 39, 120
1, 42660, Note_on_c, 9, 73, 109
1, 42689, Note_off_c, 9, 73, 64
1, 42689, Note_off_c, 9, 39, 64
1, 42689, Note_off_c, 4, 43, 64
1, 42689, Note_off_c, 0, 62, 64
1, 42689, Note_off_c, 0, 67, 64
1, 42689, Note_off_c, 0, 71, 64
1, 42689, Note_off_c, 4, 50, 64
1, 42690, Note_on_c, 0, 59, 45
1, 42690, Note_on_c, 0, 62, 73
1, 42690, Note_on_c, 0, 67, 86
1, 42690, Note_on_c, 3, 62, 119
1, 42690, Note_on_c, 4, 43, 101
1, 42690, Note_on_c, 4, 52, 116
1, 42690, Lyric_t, "ol"
1, 42719, Note_off_c, 4, 52, 64
1, 42719, Note_off_c, 0, 67, 64
1, 42719, Note_off_c, 0, 59, 64
1, 42719, Note_off_c, 0, 62, 64
1, 42719, Note_off_c, 1, 31, 64
1, 42719, Note_off_c, 4, 43, 64
1, 42720, Note_on_c, 0, 54, 35
1, 42720, Note_on_c, 0, 57, 85
1, 42720, Note_on_c, 0, 62, 79
1, 42720, Note_on_c, 1, 38, 100
1, 42720, Note_on_c, 4, 45, 90
1, 42720, Note_on_c, 4, 50, 105
1, 42720, Note_on_c, 9, 35, 120
1, 42720, Note_on_c, 9, 70, 115
1, 42749, Note_off_c, 9, 70, 64
1, 42749, Note_off_c, 9, 35, 64
1, 42749, Note_off_c, 3, 62, 64
1, 42779, Note_off_c, 4, 45, 64
1, 42779, Note_off_c, 0, 57, 64
1, 42779, Note_off_c, 0, 54, 64
1, 42779, Note_off_c, 0, 62, 64
1, 42779, Note_off_c, 4, 50, 64
1, 42780, Note_on_c, 0, 57, 69
1, 42780, Note_on_c, 0, 62, 98
1, 42780, Note_on_c, 0, 66, 74
1, 42780, Note_on_c, 3, 62, 120
1, 42780, Note_on_c, 4, 45, 100
1, 42780, Note_on_c, 4, 50, 111
1, 42780, Note_on_c, 4, 54, 89
1, 42780, Note_on_c, 9, 39, 120
1, 42780, Note_on_c, 9, 73, 115
1, 42780, Lyric_t, "der "
1, 42780, Lyric_t, "\015"
1, 42809, Note_off_c, 9, 73, 64
1, 42809, Note_off_c, 9, 39, 64
1, 42839, Note_off_c, 1, 38, 64
1, 42840, Note_on_c, 1, 38, 100
1, 42840, Note_on_c, 9, 35, 120
1, 42840, Note_on_c, 9, 70, 109
1, 42869, Note_off_c, 9, 70, 64
1, 42869, Note_off_c, 0, 66, 64
1, 42869, Note_off_c, 4, 54, 64
1, 42869, Note_off_c, 9, 35, 64
1, 42869, Note_off_c, 4, 45, 64
1, 42869, Note_off_c, 0, 62, 64
1, 42869, Note_off_c, 0, 57, 64
1, 42869, Note_off_c, 3, 62, 64
1, 42869, Note_off_c, 4, 50, 64
1, 42870, Note_on_c, 0, 54, 44
1, 42870, Note_on_c, 0, 57, 78
1, 42870, Note_on_c, 0, 62, 58
1, 42870, Note_on_c, 4, 45, 85
1, 42870, Note_on_c, 4, 50, 105
1, 42870, Note_on_c, 4, 54, 81
1, 42899, Note_off_c, 4, 54, 64
1, 42899, Note_off_c, 4, 45, 64
1, 42899, Note_off_c, 0, 54, 64
1, 42899, Note_off_c, 0, 57, 64
1, 42899, Note_off_c, 0, 62, 64
1, 42899, Note_off_c, 4, 50, 64
1, 42900, Note_on_c, 0, 57, 57
1, 42900, Note_on_c, 0, 62, 91
1, 42900, Note_on_c, 0, 66, 77
1, 42900, Note_on_c, 4, 50, 109
1, 42900, Note_on_c, 4, 54, 89
1, 42900, Note_on_c, 4, 57, 109
1, 42900, Note_on_c, 9, 39, 120
1, 42900, Note_on_c, 9, 73, 111
1, 42929, Note_off_c, 9, 73, 64
1, 42929, Note_off_c, 0, 66, 64
1, 42929, Note_off_c, 9, 39, 64
1, 42929, Note_off_c, 4, 50, 64
1, 42929, Note_off_c, 0, 57, 64
1, 42929, Note_off_c, 0, 62, 64
1, 42929, Note_off_c, 4, 57, 64
1, 42929, Note_off_c, 4, 54, 64
1, 42930, Note_on_c, 0, 54, 35
1, 42930, Note_on_c, 0, 57, 79
1, 42930, Note_on_c, 0, 62, 56
1, 42930, Note_on_c, 4, 50, 111
1, 42930, Note_on_c, 4, 54, 100
1, 42930, Note_on_c, 4, 57, 100
1, 42959, Note_off_c, 4, 57, 64
1, 42959, Note_off_c, 4, 50, 64
1, 42959, Note_off_c, 0, 54, 64
1, 42959, Note_off_c, 0, 57, 64
1, 42959, Note_off_c, 1, 38, 64
1, 42959, Note_off_c, 4, 54, 64
1, 42959, Note_off_c, 0, 62, 64
1, 42960, Note_on_c, 0, 54, 49
1, 42960, Note_on_c, 0, 57, 85
1, 42960, Note_on_c, 0, 62, 75
1, 42960, Note_on_c, 1, 38, 100
1, 42960, Note_on_c, 4, 45, 105
1, 42960, Note_on_c, 4, 50, 116
1, 42960, Note_on_c, 9, 35, 119
1, 42960, Note_on_c, 9, 70, 109
1, 42989, Note_off_c, 9, 70, 64
1, 42989, Note_off_c, 9, 35, 64
1, 43019, Note_off_c, 4, 45, 64
1, 43019, Note_off_c, 0, 57, 64
1, 43019, Note_off_c, 0, 54, 64
1, 43019, Note_off_c, 0, 62, 64
1, 43019, Note_off_c, 4, 50, 64
1, 43020, Note_on_c, 0, 57, 56
1, 43020, Note_on_c, 0, 62, 84
1, 43020, Note_on_c, 0, 66, 49
1, 43020, Note_on_c, 4, 50, 105
1, 43020, Note_on_c, 4, 54, 115
1, 43020, Note_on_c, 9, 39, 120
1, 43020, Note_on_c, 9, 73, 111
1, 43049, Note_off_c, 9, 73, 64
1, 43049, Note_off_c, 9, 39, 64
1, 43049, Note_off_c, 4, 50, 64
1, 43049, Note_off_c, 0, 57, 64
1, 43049, Note_off_c, 0, 62, 64
1, 43049, Note_off_c, 0, 66, 64
1, 43049, Note_off_c, 4, 54, 64
1, 43050, Note_on_c, 0, 57, 84
1, 43050, Note_on_c, 0, 62, 94
1, 43050, Note_on_c, 0, 66, 76
1, 43050, Note_on_c, 4, 50, 100
1, 43050, Note_on_c, 4, 54, 92
1, 43079, Note_off_c, 4, 54, 64
1, 43079, Note_off_c, 0, 57, 64
1, 43079, Note_off_c, 0, 62, 64
1, 43079, Note_off_c, 1, 38, 64
1, 43079, Note_off_c, 4, 50, 64
1, 43079, Note_off_c, 0, 66, 64
1, 43080, Note_on_c, 0, 52, 47
1, 43080, Note_on_c, 0, 57, 89
1, 43080, Note_on_c, 0, 61, 52
1, 43080, Note_on_c, 1, 30, 100
1, 43080, Note_on_c, 3, 71, 120
1, 43080, Note_on_c, 4, 45, 101
1, 43080, Note_on_c, 4, 52, 101
1, 43080, Note_on_c, 9, 35, 120
1, 43080, Note_on_c, 9, 70, 111
1, 43080, Lyric_t, "All "
1, 43109, Note_off_c, 9, 70, 64
1, 43109, Note_off_c, 9, 35, 64
1, 43139, Note_off_c, 0, 61, 64
1, 43139, Note_off_c, 3, 71, 64
1, 43139, Note_off_c, 0, 57, 64
1, 43139, Note_off_c, 0, 52, 64
1, 43139, Note_off_c, 4, 52, 64
1, 43139, Note_off_c, 4, 45, 64
1, 43140, Note_on_c, 0, 57, 51
1, 43140, Note_on_c, 0, 61, 52
1, 43140, Note_on_c, 0, 64, 78
1, 43140, Note_on_c, 3, 69, 120
1, 43140, Note_on_c, 4, 49, 89
1, 43140, Note_on_c, 4, 52, 101
1, 43140, Note_on_c, 4, 57, 89
1, 43140, Note_on_c, 9, 39, 120
1, 43140, Note_on_c, 9, 73, 109
1, 43140, Lyric_t, "this "
1, 43169, Note_off_c, 9, 73, 64
1, 43169, Note_off_c, 0, 61, 64
1, 43169, Note_off_c, 0, 64, 64
1, 43169, Note_off_c, 9, 39, 64
1, 43169, Note_off_c, 3, 69, 64
1, 43169, Note_off_c, 0, 57, 64
1, 43169, Note_off_c, 4, 57, 64
1, 43169, Note_off_c, 4, 52, 64
1, 43169, Note_off_c, 4, 49, 64
1, 43170, Note_on_c, 0, 57, 73
1, 43170, Note_on_c, 0, 61, 52
1, 43170, Note_on_c, 0, 64, 83
1, 43170, Note_on_c, 4, 49, 119
1, 43170, Note_on_c, 4, 52, 118
1, 43170, Note_on_c, 4, 57, 105
1, 43199, Note_off_c, 4, 57, 64
1, 43199, Note_off_c, 4, 49, 64
1, 43199, Note_off_c, 0, 57, 64
1, 43199, Note_off_c, 0, 61, 64
1, 43199, Note_off_c, 1, 30, 64
1, 43199, Note_off_c, 4, 52, 64
1, 43199, Note_off_c, 0, 64, 64
1, 43200, Note_on_c, 0, 59, 58
1, 43200, Note_on_c, 0, 62, 91
1, 43200, Note_on_c, 1, 35, 100
1, 43200, Note_on_c, 3, 66, 120
1, 43200, Note_on_c, 4, 47, 85
1, 43200, Note_on_c, 4, 54, 120
1, 43200, Note_on_c, 9, 35, 120
1, 43200, Note_on_c, 9, 70, 109
1, 43200, Lyric_t, "time "
1, 43229, Note_off_c, 9, 70, 64
1, 43229, Note_off_c, 9, 35, 64
1, 43259, Note_off_c, 4, 47, 64
1, 43259, Note_off_c, 0, 59, 64
1, 43259, Note_off_c, 0, 62, 64
1, 43259, Note_off_c, 3, 66, 64
1, 43259, Note_off_c, 4, 54, 64
1, 43260, Note_on_c, 0, 59, 79
1, 43260, Note_on_c, 0, 62, 95
1, 43260, Note_on_c, 0, 66, 74
1, 43260, Note_on_c, 4, 50, 92
1, 43260, Note_on_c, 4, 54, 87
1, 43260, Note_on_c, 4, 62, 95
1, 43260, Note_on_c, 9, 39, 120
1, 43260, Note_on_c, 9, 73, 104
1, 43289, Note_off_c, 9, 73, 64
1, 43289, Note_off_c, 9, 39, 64
1, 43290, Note_on_c, 3, 66, 120
1, 43290, Lyric_t, "I "
1, 43319, Note_off_c, 1, 35, 64
1, 43320, Note_on_c, 1, 35, 100
1, 43320, Note_on_c, 9, 35, 120
1, 43320, Note_on_c, 9, 70, 109
1, 43349, Note_off_c, 9, 70, 64
1, 43349, Note_off_c, 0, 66, 64
1, 43349, Note_off_c, 0, 59, 64
1, 43349, Note_off_c, 9, 35, 64
1, 43349, Note_off_c, 4, 54, 64
1, 43349, Note_off_c, 0, 62, 64
1, 43349, Note_off_c, 4, 50, 64
1, 43349, Note_off_c, 3, 66, 64
1, 43349, Note_off_c, 4, 62, 64
1, 43350, Note_on_c, 0, 59, 71
1, 43350, Note_on_c, 0, 62, 91
1, 43350, Note_on_c, 0, 66, 60
1, 43350, Note_on_c, 4, 54, 109
1, 43350, Note_on_c, 4, 59, 95
1, 43379, Note_off_c, 4, 59, 64
1, 43379, Note_off_c, 0, 59, 64
1, 43379, Note_off_c, 0, 62, 64
1, 43379, Note_off_c, 0, 66, 64
1, 43379, Note_off_c, 4, 54, 64
1, 43380, Note_on_c, 0, 62, 80
1, 43380, Note_on_c, 0, 66, 62
1, 43380, Note_on_c, 0, 71, 91
1, 43380, Note_on_c, 3, 69, 120
1, 43380, Note_on_c, 4, 50, 103
1, 43380, Note_on_c, 4, 54, 115
1, 43380, Note_on_c, 9, 39, 120
1, 43380, Note_on_c, 9, 73, 109
1, 43380, Lyric_t, "was "
1, 43409, Note_off_c, 9, 73, 64
1, 43409, Note_off_c, 0, 71, 64
1, 43409, Note_off_c, 9, 39, 64
1, 43409, Note_off_c, 3, 69, 64
1, 43409, Note_off_c, 0, 62, 64
1, 43409, Note_off_c, 0, 66, 64
1, 43409, Note_off_c, 4, 54, 64
1, 43409, Note_off_c, 4, 50, 64
1, 43410, Note_on_c, 0, 59, 51
1, 43410, Note_on_c, 0, 62, 85
1, 43410, Note_on_c, 0, 66, 59
1, 43410, Note_on_c, 4, 47, 92
1, 43410, Note_on_c, 4, 52, 98
1, 43439, Note_off_c, 4, 52, 64
1, 43439, Note_off_c, 0, 59, 64
1, 43439, Note_off_c, 0, 62, 64
1, 43439, Note_off_c, 1, 35, 64
1, 43439, Note_off_c, 4, 47, 64
1, 43439, Note_off_c, 0, 66, 64
1, 43440, Note_on_c, 0, 55, 74
1, 43440, Note_on_c, 0, 59, 94
1, 43440, Note_on_c, 0, 62, 91
1, 43440, Note_on_c, 1, 31, 100
1, 43440, Note_on_c, 3, 64, 120
1, 43440, Note_on_c, 4, 43, 98
1, 43440, Note_on_c, 4, 50, 116
1, 43440, Note_on_c, 9, 35, 120
1, 43440, Note_on_c, 9, 70, 106
1, 43440, Lyric_t, "fin"
1, 43469, Note_off_c, 9, 70, 64
1, 43469, Note_off_c, 9, 35, 64
1, 43499, Note_off_c, 0, 55, 64
1, 43499, Note_off_c, 0, 62, 64
1, 43499, Note_off_c, 0, 59, 64
1, 43499, Note_off_c, 4, 50, 64
1, 43499, Note_off_c, 4, 43, 64
1, 43500, Note_on_c, 0, 59, 70
1, 43500, Note_on_c, 0, 62, 94
1, 43500, Note_on_c, 0, 67, 101
1, 43500, Note_on_c, 4, 50, 79
1, 43500, Note_on_c, 4, 55, 111
1, 43500, Note_on_c, 4, 59, 100
1, 43500, Note_on_c, 9, 39, 120
1, 43500, Note_on_c, 9, 73, 98
1, 43529, Note_off_c, 9, 73, 64
1, 43529, Note_off_c, 9, 39, 64
1, 43529, Note_off_c, 3, 64, 64
1, 43559, Note_off_c, 1, 31, 64
1, 43560, Note_on_c, 1, 31, 100
1, 43560, Note_on_c, 3, 64, 118
1, 43560, Note_on_c, 9, 35, 120
1, 43560, Note_on_c, 9, 70, 115
1, 43560, Lyric_t, "ding "
1, 43589, Note_off_c, 9, 70, 64
1, 43589, Note_off_c, 0, 67, 64
1, 43589, Note_off_c, 4, 59, 64
1, 43589, Note_off_c, 9, 35, 64
1, 43589, Note_off_c, 0, 62, 64
1, 43589, Note_off_c, 0, 59, 64
1, 43589, Note_off_c, 4, 50, 64
1, 43589, Note_off_c, 4, 55, 64
1, 43590, Note_on_c, 0, 59, 52
1, 43590, Note_on_c, 0, 62, 85
1, 43590, Note_on_c, 0, 67, 94
1, 43590, Note_on_c, 4, 50, 82
1, 43590, Note_on_c, 4, 55, 98
1, 43590, Note_on_c, 4, 59, 85
1, 43619, Note_off_c, 4, 59, 64
1, 43619, Note_off_c, 4, 55, 64
1, 43619, Note_off_c, 0, 67, 64
1, 43619, Note_off_c, 3, 64, 64
1, 43619, Note_off_c, 0, 59, 64
1, 43619, Note_off_c, 0, 62, 64
1, 43619, Note_off_c, 4, 50, 64
1, 43620, Note_on_c, 0, 62, 78
1, 43620, Note_on_c, 0, 67, 100
1, 43620, Note_on_c, 0, 71, 46
1, 43620, Note_on_c, 3, 62, 111
1, 43620, Note_on_c, 4, 43, 109
1, 43620, Note_on_c, 4, 50, 109
1, 43620, Note_on_c, 9, 39, 120
1, 43620, Note_on_c, 9, 73, 111
1, 43620, Lyric_t, "my"
1, 43649, Note_off_c, 9, 73, 64
1, 43649, Note_off_c, 0, 71, 64
1, 43649, Note_off_c, 9, 39, 64
1, 43649, Note_off_c, 3, 62, 64
1, 43649, Note_off_c, 0, 62, 64
1, 43649, Note_off_c, 0, 67, 64
1, 43649, Note_off_c, 4, 50, 64
1, 43649, Note_off_c, 4, 43, 64
1, 43650, Note_on_c, 0, 59, 45
1, 43650, Note_on_c, 0, 62, 73
1, 43650, Note_on_c, 0, 67, 86
1, 43650, Note_on_c, 4, 43, 101
1, 43650, Note_on_c, 4, 52, 116
1, 43679, Note_off_c, 4, 52, 64
1, 43679, Note_off_c, 0, 59, 64
1, 43679, Note_off_c, 0, 62, 64
1, 43679, Note_off_c, 1, 31, 64
1, 43679, Note_off_c, 4, 43, 64
1, 43679, Note_off_c, 0, 67, 64
1, 43680, Note_on_c, 0, 54, 35
1, 43680, Note_on_c, 0, 57, 85
1, 43680, Note_on_c, 0, 62, 79
1, 43680, Note_on_c, 1, 38, 100
1, 43680, Note_on_c, 3, 66, 120
1, 43680, Note_on_c, 4, 45, 90
1, 43680, Note_on_c, 4, 50, 105
1, 43680, Note_on_c, 9, 35, 120
1, 43680, Note_on_c, 9, 70, 104
1, 43680, Lyric_t, "se"
1, 43709, Note_off_c, 9, 70, 64
1, 43709, Note_off_c, 9, 35, 64
1, 43709, Note_off_c, 3, 66, 64
1, 43710, Note_on_c, 3, 64, 105
1, 43739, Note_off_c, 3, 64, 64
1, 43739, Note_off_c, 4, 50, 64
1, 43739, Note_off_c, 0, 57, 64
1, 43739, Note_off_c, 0, 54, 64
1, 43739, Note_off_c, 0, 62, 64
1, 43739, Note_off_c, 4, 45, 64
1, 43740, Note_on_c, 0, 57, 69
1, 43740, Note_on_c, 0, 62, 98
1, 43740, Note_on_c, 0, 66, 74
1, 43740, Note_on_c, 3, 59, 118
1, 43740, Note_on_c, 4, 45, 100
1, 43740, Note_on_c, 4, 50, 111
1, 43740, Note_on_c, 4, 54, 89
1, 43740, Note_on_c, 9, 39, 119
1, 43740, Note_on_c, 9, 73, 109
1, 43769, Note_off_c, 9, 73, 64
1, 43769, Note_off_c, 9, 39, 64
1, 43769, Note_off_c, 3, 59, 64
1, 43770, Note_on_c, 3, 57, 116
1, 43770, Lyric_t, "lf "
1, 43770, Lyric_t, "\015"
1, 43799, Note_off_c, 1, 38, 64
1, 43800, Note_on_c, 1, 38, 100
1, 43800, Note_on_c, 9, 35, 120
1, 43800, Note_on_c, 9, 70, 102
1, 43829, Note_off_c, 9, 70, 64
1, 43829, Note_off_c, 0, 66, 64
1, 43829, Note_off_c, 0, 57, 64
1, 43829, Note_off_c, 9, 35, 64
1, 43829, Note_off_c, 4, 45, 64
1, 43829, Note_off_c, 0, 62, 64
1, 43829, Note_off_c, 4, 54, 64
1, 43829, Note_off_c, 3, 57, 64
1, 43829, Note_off_c, 4, 50, 64
1, 43830, Note_on_c, 0, 54, 44
1, 43830, Note_on_c, 0, 57, 78
1, 43830, Note_on_c, 0, 62, 58
1, 43830, Note_on_c, 4, 45, 85
1, 43830, Note_on_c, 4, 50, 105
1, 43830, Note_on_c, 4, 54, 81
1, 43859, Note_off_c, 4, 54, 64
1, 43859, Note_off_c, 4, 45, 64
1, 43859, Note_off_c, 0, 54, 64
1, 43859, Note_off_c, 0, 57, 64
1, 43859, Note_off_c, 0, 62, 64
1, 43859, Note_off_c, 4, 50, 64
1, 43860, Note_on_c, 0, 57, 57
1, 43860, Note_on_c, 0, 62, 91
1, 43860, Note_on_c, 0, 66, 77
1, 43860, Note_on_c, 3, 57, 120
1, 43860, Note_on_c, 4, 50, 109
1, 43860, Note_on_c, 4, 54, 89
1, 43860, Note_on_c, 4, 57, 109
1, 43860, Note_on_c, 9, 39, 120
1, 43860, Note_on_c, 9, 73, 106
1, 43860, Lyric_t, "And "
1, 43889, Note_off_c, 9, 73, 64
1, 43889, Note_off_c, 9, 39, 64
1, 43889, Note_off_c, 4, 54, 64
1, 43889, Note_off_c, 0, 62, 64
1, 43889, Note_off_c, 0, 66, 64
1, 43889, Note_off_c, 0, 57, 64
1, 43889, Note_off_c, 4, 57, 64
1, 43889, Note_off_c, 4, 50, 64
1, 43890, Note_on_c, 0, 54, 35
1, 43890, Note_on_c, 0, 57, 79
1, 43890, Note_on_c, 0, 62, 56
1, 43890, Note_on_c, 4, 50, 111
1, 43890, Note_on_c, 4, 54, 100
1, 43890, Note_on_c, 4, 57, 100
1, 43919, Note_off_c, 4, 57, 64
1, 43919, Note_off_c, 1, 38, 64
1, 43919, Note_off_c, 0, 62, 64
1, 43919, Note_off_c, 3, 57, 64
1, 43919, Note_off_c, 0, 54, 64
1, 43919, Note_off_c, 0, 57, 64
1, 43919, Note_off_c, 4, 50, 64
1, 43919, Note_off_c, 4, 54, 64
1, 43920, Note_on_c, 0, 54, 49
1, 43920, Note_on_c, 0, 57, 85
1, 43920, Note_on_c, 0, 62, 75
1, 43920, Note_on_c, 1, 38, 100
1, 43920, Note_on_c, 3, 66, 120
1, 43920, Note_on_c, 4, 45, 105
1, 43920, Note_on_c, 4, 50, 116
1, 43920, Note_on_c, 9, 35, 120
1, 43920, Note_on_c, 9, 70, 92
1, 43920, Lyric_t, "I"
1, 43949, Note_off_c, 9, 70, 64
1, 43949, Note_off_c, 9, 35, 64
1, 43979, Note_off_c, 0, 54, 64
1, 43979, Note_off_c, 0, 62, 64
1, 43979, Note_off_c, 0, 57, 64
1, 43979, Note_off_c, 4, 50, 64
1, 43979, Note_off_c, 4, 45, 64
1, 43980, Note_on_c, 0, 57, 56
1, 43980, Note_on_c, 0, 62, 84
1, 43980, Note_on_c, 0, 66, 49
1, 43980, Note_on_c, 4, 50, 105
1, 43980, Note_on_c, 4, 54, 115
1, 43980, Note_on_c, 9, 39, 115
1, 43980, Note_on_c, 9, 73, 106
1, 44009, Note_off_c, 9, 73, 64
1, 44009, Note_off_c, 0, 62, 64
1, 44009, Note_off_c, 9, 39, 64
1, 44009, Note_off_c, 0, 66, 64
1, 44009, Note_off_c, 4, 54, 64
1, 44009, Note_off_c, 0, 57, 64
1, 44009, Note_off_c, 4, 50, 64
1, 44010, Note_on_c, 0, 57, 84
1, 44010, Note_on_c, 0, 62, 94
1, 44010, Note_on_c, 0, 66, 76
1, 44010, Note_on_c, 4, 50, 100
1, 44010, Note_on_c, 4, 54, 92
1, 44039, Note_off_c, 4, 54, 64
1, 44039, Note_off_c, 0, 66, 64
1, 44039, Note_off_c, 3, 66, 64
1, 44039, Note_off_c, 0, 57, 64
1, 44039, Note_off_c, 1, 38, 64
1, 44039, Note_off_c, 4, 50, 64
1, 44039, Note_off_c, 0, 62, 64
1, 44040, Note_on_c, 0, 52, 47
1, 44040, Note_on_c, 0, 57, 89
1, 44040, Note_on_c, 0, 61, 52
1, 44040, Note_on_c, 1, 33, 100
1, 44040, Note_on_c, 3, 64, 120
1, 44040, Note_on_c, 4, 45, 101
1, 44040, Note_on_c, 4, 52, 101
1, 44040, Note_on_c, 9, 35, 120
1, 44040, Note_on_c, 9, 70, 106
1, 44040, Lyric_t, ", "
1, 44069, Note_off_c, 9, 70, 64
1, 44069, Note_off_c, 9, 35, 64
1, 44099, Note_off_c, 0, 52, 64
1, 44099, Note_off_c, 0, 61, 64
1, 44099, Note_off_c, 0, 57, 64
1, 44099, Note_off_c, 4, 52, 64
1, 44099, Note_off_c, 4, 45, 64
1, 44100, Note_on_c, 0, 57, 51
1, 44100, Note_on_c, 0, 61, 52
1, 44100, Note_on_c, 0, 64, 78
1, 44100, Note_on_c, 4, 49, 89
1, 44100, Note_on_c, 4, 52, 101
1, 44100, Note_on_c, 4, 57, 89
1, 44100, Note_on_c, 9, 39, 119
1, 44100, Note_on_c, 9, 73, 109
1, 44129, Note_off_c, 9, 73, 64
1, 44129, Note_off_c, 0, 57, 64
1, 44129, Note_off_c, 0, 61, 64
1, 44129, Note_off_c, 9, 39, 64
1, 44129, Note_off_c, 0, 64, 64
1, 44129, Note_off_c, 4, 52, 64
1, 44129, Note_off_c, 4, 57, 64
1, 44129, Note_off_c, 4, 49, 64
1, 44130, Note_on_c, 0, 57, 73
1, 44130, Note_on_c, 0, 61, 52
1, 44130, Note_on_c, 0, 64, 83
1, 44130, Note_on_c, 4, 49, 119
1, 44130, Note_on_c, 4, 52, 118
1, 44130, Note_on_c, 4, 57, 105
1, 44159, Note_off_c, 4, 57, 64
1, 44159, Note_off_c, 1, 33, 64
1, 44159, Note_off_c, 0, 64, 64
1, 44159, Note_off_c, 3, 64, 64
1, 44159, Note_off_c, 0, 57, 64
1, 44159, Note_off_c, 0, 61, 64
1, 44159, Note_off_c, 4, 49, 64
1, 44159, Note_off_c, 4, 52, 64
1, 44160, Note_on_c, 0, 59, 58
1, 44160, Note_on_c, 0, 62, 91
1, 44160, Note_on_c, 1, 35, 100
1, 44160, Note_on_c, 4, 47, 85
1, 44160, Note_on_c, 4, 54, 120
1, 44160, Note_on_c, 9, 35, 120
1, 44160, Note_on_c, 9, 70, 106
1, 44189, Note_off_c, 9, 70, 64
1, 44189, Note_off_c, 9, 35, 64
1, 44219, Note_off_c, 4, 47, 64
1, 44219, Note_off_c, 0, 62, 64
1, 44219, Note_off_c, 0, 59, 64
1, 44219, Note_off_c, 4, 54, 64
1, 44220, Note_on_c, 0, 59, 79
1, 44220, Note_on_c, 0, 62, 95
1, 44220, Note_on_c, 0, 66, 74
1, 44220, Note_on_c, 4, 50, 92
1, 44220, Note_on_c, 4, 54, 87
1, 44220, Note_on_c, 4, 62, 95
1, 44220, Note_on_c, 9, 39, 119
1, 44220, Note_on_c, 9, 73, 106
1, 44249, Note_off_c, 9, 73, 64
1, 44249, Note_off_c, 9, 39, 64
1, 44250, Note_on_c, 3, 62, 119
1, 44250, Lyric_t, "I "
1, 44279, Note_off_c, 3, 62, 64
1, 44279, Note_off_c, 1, 35, 64
1, 44280, Note_on_c, 1, 35, 100
1, 44280, Note_on_c, 3, 67, 120
1, 44280, Note_on_c, 9, 35, 120
1, 44280, Note_on_c, 9, 70, 109
1, 44280, Lyric_t, "did"
1, 44309, Note_off_c, 9, 70, 64
1, 44309, Note_off_c, 0, 66, 64
1, 44309, Note_off_c, 4, 50, 64
1, 44309, Note_off_c, 0, 59, 64
1, 44309, Note_off_c, 9, 35, 64
1, 44309, Note_off_c, 0, 62, 64
1, 44309, Note_off_c, 3, 67, 64
1, 44309, Note_off_c, 4, 54, 64
1, 44309, Note_off_c, 4, 62, 64
1, 44310, Note_on_c, 0, 59, 71
1, 44310, Note_on_c, 0, 62, 91
1, 44310, Note_on_c, 0, 66, 60
1, 44310, Note_on_c, 3, 67, 119
1, 44310, Note_on_c, 4, 54, 109
1, 44310, Note_on_c, 4, 59, 95
1, 44310, Lyric_t, "n't "
1, 44339, Note_off_c, 4, 59, 64
1, 44339, Note_off_c, 0, 66, 64
1, 44339, Note_off_c, 0, 59, 64
1, 44339, Note_off_c, 0, 62, 64
1, 44339, Note_off_c, 4, 54, 64
1, 44340, Note_on_c, 0, 62, 80
1, 44340, Note_on_c, 0, 66, 62
1, 44340, Note_on_c, 0, 71, 91
1, 44340, Note_on_c, 4, 50, 103
1, 44340, Note_on_c, 4, 54, 115
1, 44340, Note_on_c, 9, 39, 120
1, 44340, Note_on_c, 9, 73, 106
1, 44369, Note_off_c, 9, 73, 64
1, 44369, Note_off_c, 0, 66, 64
1, 44369, Note_off_c, 9, 39, 64
1, 44369, Note_off_c, 0, 71, 64
1, 44369, Note_off_c, 3, 67, 64
1, 44369, Note_off_c, 0, 62, 64
1, 44369, Note_off_c, 4, 54, 64
1, 44369, Note_off_c, 4, 50, 64
1, 44370, Note_on_c, 0, 59, 51
1, 44370, Note_on_c, 0, 62, 85
1, 44370, Note_on_c, 0, 66, 59
1, 44370, Note_on_c, 4, 47, 92
1, 44370, Note_on_c, 4, 52, 98
1, 44399, Note_off_c, 4, 52, 64
1, 44399, Note_off_c, 0, 59, 64
1, 44399, Note_off_c, 0, 62, 64
1, 44399, Note_off_c, 1, 35, 64
1, 44399, Note_off_c, 4, 47, 64
1, 44399, Note_off_c, 0, 66, 64
1, 44400, Note_on_c, 0, 55, 74
1, 44400, Note_on_c, 0, 59, 94
1, 44400, Note_on_c, 0, 62, 91
1, 44400, Note_on_c, 1, 31, 100
1, 44400, Note_on_c, 3, 66, 119
1, 44400, Note_on_c, 4, 43, 98
1, 44400, Note_on_c, 4, 50, 116
1, 44400, Note_on_c, 9, 35, 120
1, 44400, Note_on_c, 9, 70, 109
1, 44400, Lyric_t, "know "
1, 44429, Note_off_c, 9, 70, 64
1, 44429, Note_off_c, 9, 35, 64
1, 44459, Note_off_c, 0, 55, 64
1, 44459, Note_off_c, 0, 62, 64
1, 44459, Note_off_c, 0, 59, 64
1, 44459, Note_off_c, 4, 50, 64
1, 44459, Note_off_c, 4, 43, 64
1, 44460, Note_on_c, 0, 59, 70
1, 44460, Note_on_c, 0, 62, 94
1, 44460, Note_on_c, 0, 67, 101
1, 44460, Note_on_c, 4, 50, 79
1, 44460, Note_on_c, 4, 55, 111
1, 44460, Note_on_c, 4, 59, 100
1, 44460, Note_on_c, 9, 39, 120
1, 44460, Note_on_c, 9, 73, 98
1, 44489, Note_off_c, 9, 73, 64
1, 44489, Note_off_c, 9, 39, 64
1, 44489, Note_off_c, 3, 66, 64
1, 44490, Note_on_c, 3, 64, 116
1, 44490, Lyric_t, "I "
1, 44519, Note_off_c, 1, 31, 64
1, 44520, Note_on_c, 1, 31, 100
1, 44520, Note_on_c, 9, 35, 120
1, 44520, Note_on_c, 9, 70, 115
1, 44549, Note_off_c, 9, 70, 64
1, 44549, Note_off_c, 0, 67, 64
1, 44549, Note_off_c, 0, 62, 64
1, 44549, Note_off_c, 9, 35, 64
1, 44549, Note_off_c, 4, 50, 64
1, 44549, Note_off_c, 0, 59, 64
1, 44549, Note_off_c, 4, 59, 64
1, 44549, Note_off_c, 3, 64, 64
1, 44549, Note_off_c, 4, 55, 64
1, 44550, Note_on_c, 0, 59, 52
1, 44550, Note_on_c, 0, 62, 85
1, 44550, Note_on_c, 0, 67, 94
1, 44550, Note_on_c, 4, 50, 82
1, 44550, Note_on_c, 4, 55, 98
1, 44550, Note_on_c, 4, 59, 85
1, 44579, Note_off_c, 4, 59, 64
1, 44579, Note_off_c, 4, 50, 64
1, 44579, Note_off_c, 0, 59, 64
1, 44579, Note_off_c, 0, 62, 64
1, 44579, Note_off_c, 0, 67, 64
1, 44579, Note_off_c, 4, 55, 64
1, 44580, Note_on_c, 0, 62, 78
1, 44580, Note_on_c, 0, 67, 100
1, 44580, Note_on_c, 0, 71, 46
1, 44580, Note_on_c, 3, 62, 118
1, 44580, Note_on_c, 4, 43, 109
1, 44580, Note_on_c, 4, 50, 109
1, 44580, Note_on_c, 9, 39, 120
1, 44580, Note_on_c, 9, 73, 102
1, 44580, Lyric_t, "was "
1, 44609, Note_off_c, 9, 73, 64
1, 44609, Note_off_c, 0, 67, 64
1, 44609, Note_off_c, 9, 39, 64
1, 44609, Note_off_c, 0, 71, 64
1, 44609, Note_off_c, 0, 62, 64
1, 44609, Note_off_c, 4, 50, 64
1, 44609, Note_off_c, 4, 43, 64
1, 44610, Note_on_c, 0, 59, 45
1, 44610, Note_on_c, 0, 62, 73
1, 44610, Note_on_c, 0, 67, 86
1, 44610, Note_on_c, 4, 43, 101
1, 44610, Note_on_c, 4, 52, 116
1, 44639, Note_off_c, 4, 52, 64
1, 44639, Note_off_c, 0, 67, 64
1, 44639, Note_off_c, 1, 31, 64
1, 44639, Note_off_c, 0, 59, 64
1, 44639, Note_off_c, 3, 62, 64
1, 44639, Note_off_c, 4, 43, 64
1, 44639, Note_off_c, 0, 62, 64
1, 44640, Note_on_c, 0, 54, 35
1, 44640, Note_on_c, 0, 57, 85
1, 44640, Note_on_c, 0, 62, 79
1, 44640, Note_on_c, 1, 38, 100
1, 44640, Note_on_c, 3, 62, 116
1, 44640, Note_on_c, 4, 45, 90
1, 44640, Note_on_c, 4, 50, 105
1, 44640, Note_on_c, 8, 50, 120
1, 44640, Note_on_c, 8, 62, 120
1, 44640, Note_on_c, 9, 70, 102
1, 44640, Control_c, 12, 11, 1
1, 44640, Note_on_c, 12, 60, 120
1, 44640, Lyric_t, "lost "
1, 44640, Lyric_t, "\015"
1, 44655, Control_c, 12, 11, 5
1, 44669, Note_off_c, 9, 70, 64
1, 44670, Control_c, 12, 11, 9
1, 44685, Control_c, 12, 11, 13
1, 44699, Note_off_c, 4, 50, 64
1, 44699, Note_off_c, 0, 54, 64
1, 44699, Note_off_c, 4, 45, 64
1, 44699, Note_off_c, 0, 57, 64
1, 44699, Note_off_c, 0, 62, 64
1, 44700, Note_on_c, 0, 57, 69
1, 44700, Note_on_c, 0, 62, 98
1, 44700, Note_on_c, 0, 66, 74
1, 44700, Note_on_c, 4, 45, 100
1, 44700, Note_on_c, 4, 50, 111
1, 44700, Note_on_c, 4, 54, 89
1, 44700, Note_on_c, 9, 39, 120
1, 44700, Note_on_c, 9, 73, 98
1, 44700, Control_c, 12, 11, 17
1, 44715, Control_c, 12, 11, 22
1, 44729, Note_off_c, 9, 73, 64
1, 44729, Note_off_c, 9, 39, 64
1, 44730, Control_c, 12, 11, 26
1, 44745, Control_c, 12, 11, 30
1, 44759, Note_off_c, 1, 38, 64
1, 44760, Note_on_c, 1, 38, 100
1, 44760, Note_on_c, 9, 70, 106
1, 44760, Control_c, 12, 11, 34
1, 44775, Control_c, 12, 11, 38
1, 44789, Note_off_c, 9, 70, 64
1, 44789, Note_off_c, 4, 54, 64
1, 44789, Note_off_c, 0, 66, 64
1, 44789, Note_off_c, 4, 50, 64
1, 44789, Note_off_c, 4, 45, 64
1, 44789, Note_off_c, 0, 62, 64
1, 44789, Note_off_c, 0, 57, 64
1, 44790, Note_on_c, 0, 54, 44
1, 44790, Note_on_c, 0, 57, 78
1, 44790, Note_on_c, 0, 62, 58
1, 44790, Note_on_c, 4, 45, 85
1, 44790, Note_on_c, 4, 50, 105
1, 44790, Note_on_c, 4, 54, 81
1, 44790, Control_c, 12, 11, 43
1, 44805, Control_c, 12, 11, 47
1, 44819, Note_off_c, 4, 54, 64
1, 44819, Note_off_c, 0, 62, 64
1, 44819, Note_off_c, 4, 50, 64
1, 44819, Note_off_c, 0, 57, 64
1, 44819, Note_off_c, 4, 45, 64
1, 44819, Note_off_c, 0, 54, 64
1, 44820, Note_on_c, 0, 57, 57
1, 44820, Note_on_c, 0, 62, 91
1, 44820, Note_on_c, 0, 66, 77
1, 44820, Note_on_c, 4, 50, 109
1, 44820, Note_on_c, 4, 54, 89
1, 44820, Note_on_c, 4, 57, 109
1, 44820, Note_on_c, 9, 39, 120
1, 44820, Note_on_c, 9, 73, 104
1, 44820, Control_c, 12, 11, 51
1, 44835, Control_c, 12, 11, 55
1, 44849, Note_off_c, 9, 73, 64
1, 44849, Note_off_c, 0, 57, 64
1, 44849, Note_off_c, 4, 54, 64
1, 44849, Note_off_c, 0, 66, 64
1, 44849, Note_off_c, 0, 62, 64
1, 44849, Note_off_c, 4, 50, 64
1, 44849, Note_off_c, 9, 39, 64
1, 44849, Note_off_c, 4, 57, 64
1, 44850, Note_on_c, 0, 54, 35
1, 44850, Note_on_c, 0, 57, 79
1, 44850, Note_on_c, 0, 62, 56
1, 44850, Note_on_c, 4, 50, 111
1, 44850, Note_on_c, 4, 54, 100
1, 44850, Note_on_c, 4, 57, 100
1, 44850, Control_c, 12, 11, 59
1, 44865, Control_c, 12, 11, 64
1, 44879, Note_off_c, 4, 57, 64
1, 44879, Note_off_c, 0, 62, 64
1, 44879, Note_off_c, 4, 54, 64
1, 44879, Note_off_c, 0, 57, 64
1, 44879, Note_off_c, 4, 50, 64
1, 44879, Note_off_c, 3, 62, 64
1, 44879, Note_off_c, 1, 38, 64
1, 44879, Note_off_c, 0, 54, 64
1, 44880, Note_on_c, 0, 54, 49
1, 44880, Note_on_c, 0, 57, 85
1, 44880, Note_on_c, 0, 62, 75
1, 44880, Note_on_c, 1, 38, 100
1, 44880, Note_on_c, 4, 45, 105
1, 44880, Note_on_c, 4, 50, 116
1, 44880, Note_on_c, 9, 70, 111
1, 44880, Note_on_c, 10, 72, 120
1, 44880, Control_c, 12, 11, 68
1, 44895, Control_c, 12, 11, 72
1, 44909, Note_off_c, 9, 70, 64
1, 44910, Control_c, 12, 11, 76
1, 44925, Control_c, 12, 11, 80
1, 44939, Note_off_c, 4, 50, 64
1, 44939, Note_off_c, 0, 62, 64
1, 44939, Note_off_c, 0, 54, 64
1, 44939, Note_off_c, 4, 45, 64
1, 44939, Note_off_c, 0, 57, 64
1, 44940, Note_on_c, 0, 57, 56
1, 44940, Note_on_c, 0, 62, 84
1, 44940, Note_on_c, 0, 66, 49
1, 44940, Note_on_c, 4, 50, 105
1, 44940, Note_on_c, 4, 54, 115
1, 44940, Note_on_c, 9, 73, 109
1, 44940, Control_c, 12, 11, 85
1, 44955, Control_c, 12, 11, 89
1, 44969, Note_off_c, 9, 73, 64
1, 44969, Note_off_c, 0, 66, 64
1, 44969, Note_off_c, 4, 54, 64
1, 44969, Note_off_c, 0, 62, 64
1, 44969, Note_off_c, 4, 50, 64
1, 44969, Note_off_c, 0, 57, 64
1, 44970, Note_on_c, 0, 57, 84
1, 44970, Note_on_c, 0, 62, 94
1, 44970, Note_on_c, 0, 66, 76
1, 44970, Note_on_c, 4, 50, 100
1, 44970, Note_on_c, 4, 54, 92
1, 44970, Control_c, 12, 11, 93
1, 44985, Control_c, 12, 11, 97
1, 44999, Note_off_c, 4, 54, 64
1, 44999, Note_off_c, 4, 50, 64
1, 44999, Note_off_c, 0, 62, 64
1, 44999, Note_off_c, 0, 66, 64
1, 44999, Note_off_c, 1, 38, 64
1, 44999, Note_off_c, 0, 57, 64
1, 45000, Note_on_c, 0, 52, 47
1, 45000, Note_on_c, 0, 57, 89
1, 45000, Note_on_c, 0, 61, 52
1, 45000, Note_on_c, 4, 45, 101
1, 45000, Note_on_c, 4, 52, 101
1, 45000, Note_on_c, 9, 70, 115
1, 45000, Control_c, 12, 11, 101
1, 45015, Control_c, 12, 11, 106
1, 45029, Note_off_c, 9, 70, 64
1, 45030, Control_c, 12, 11, 110
1, 45045, Control_c, 12, 11, 114
1, 45059, Note_off_c, 4, 52, 64
1, 45059, Note_off_c, 0, 61, 64
1, 45059, Note_off_c, 4, 45, 64
1, 45059, Note_off_c, 0, 52, 64
1, 45059, Note_off_c, 0, 57, 64
1, 45060, Note_on_c, 0, 57, 51
1, 45060, Note_on_c, 0, 61, 52
1, 45060, Note_on_c, 0, 64, 78
1, 45060, Note_on_c, 4, 49, 89
1, 45060, Note_on_c, 4, 52, 101
1, 45060, Note_on_c, 4, 57, 89
1, 45060, Note_on_c, 9, 73, 115
1, 45060, Control_c, 12, 11, 118
1, 45075, Control_c, 12, 11, 122
1, 45089, Note_off_c, 9, 73, 64
1, 45089, Note_off_c, 4, 49, 64
1, 45089, Note_off_c, 4, 57, 64
1, 45089, Note_off_c, 0, 64, 64
1, 45089, Note_off_c, 4, 52, 64
1, 45089, Note_off_c, 0, 57, 64
1, 45089, Note_off_c, 0, 61, 64
1, 45090, Note_on_c, 0, 57, 73
1, 45090, Note_on_c, 0, 61, 52
1, 45090, Note_on_c, 0, 64, 83
1, 45090, Note_on_c, 4, 49, 119
1, 45090, Note_on_c, 4, 52, 118
1, 45090, Note_on_c, 4, 57, 105
1, 45090, Control_c, 12, 11, 127
1, 45119, Note_off_c, 4, 57, 64
1, 45119, Note_off_c, 10, 72, 64
1, 45119, Note_off_c, 8, 50, 64
1, 45119, Note_off_c, 12, 60, 64
1, 45119, Note_off_c, 0, 57, 64
1, 45119, Note_off_c, 8, 62, 64
1, 45119, Note_off_c, 4, 49, 64
1, 45119, Note_off_c, 0, 64, 64
1, 45119, Note_off_c, 0, 61, 64
1, 45119, Note_off_c, 4, 52, 64
1, 45120, Control_c, 0, 74, 11
1, 45120, Note_on_c, 0, 59, 58
1, 45120, Note_on_c, 0, 62, 91
1, 45120, Control_c, 4, 74, 11
1, 45120, Note_on_c, 4, 47, 85
1, 45120, Note_on_c, 4, 54, 120
1, 45120, Control_c, 4, 91, 127
1, 45120, Control_c, 5, 74, 11
1, 45120, Note_on_c, 5, 59, 120
1, 45120, Note_on_c, 5, 71, 120
1, 45120, Control_c, 5, 91, 127
1, 45120, Control_c, 5, 10, 115
1, 45120, Note_on_c, 9, 49, 120
1, 45120, Control_c, 12, 11, 0
1, 45120, Pitch_bend_c, 13, 8414
1, 45120, Note_on_c, 13, 47, 120
1, 45120, Note_on_c, 14, 36, 120
1, 45135, Pitch_bend_c, 13, 8192
1, 45149, Note_off_c, 9, 49, 64
1, 45150, Pitch_bend_c, 13, 7871
1, 45160, Control_c, 5, 10, 34
1, 45165, Pitch_bend_c, 13, 7599
1, 45179, Note_off_c, 4, 54, 64
1, 45179, Note_off_c, 0, 59, 64
1, 45179, Note_off_c, 5, 59, 64
1, 45179, Note_off_c, 0, 62, 64
1, 45179, Note_off_c, 4, 47, 64
1, 45179, Note_off_c, 5, 71, 64
1, 45180, Note_on_c, 0, 59, 79
1, 45180, Note_on_c, 0, 62, 95
1, 45180, Note_on_c, 0, 66, 74
1, 45180, Note_on_c, 4, 50, 92
1, 45180, Note_on_c, 4, 54, 87
1, 45180, Note_on_c, 4, 62, 95
1, 45180, Pitch_bend_c, 13, 7328
1, 45195, Pitch_bend_c, 13, 7057
1, 45200, Control_c, 5, 10, 94
1, 45210, Note_on_c, 3, 59, 76
1, 45210, Pitch_bend_c, 13, 6785
1, 45210, Lyric_t, "I "
1, 45225, Pitch_bend_c, 13, 6514
1, 45228, Control_c, 0, 74, 12
1, 45228, Control_c, 4, 74, 12
1, 45228, Control_c, 5, 74, 12
1, 45239, Note_off_c, 3, 59, 64
1, 45240, Note_on_c, 3, 67, 119
1, 45240, Note_on_c, 5, 59, 120
1, 45240, Note_on_c, 5, 71, 120
1, 45240, Control_c, 5, 10, 12
1, 45240, Pitch_bend_c, 13, 6242
1, 45240, Lyric_t, "did"
1, 45255, Pitch_bend_c, 13, 5971
1, 45269, Note_off_c, 3, 67, 64
1, 45269, Note_off_c, 0, 62, 64
1, 45269, Note_off_c, 4, 62, 64
1, 45269, Note_off_c, 4, 54, 64
1, 45269, Note_off_c, 0, 59, 64
1, 45269, Note_off_c, 0, 66, 64
1, 45269, Note_off_c, 4, 50, 64
1, 45270, Note_on_c, 0, 59, 71
1, 45270, Note_on_c, 0, 62, 91
1, 45270, Note_on_c, 0, 66, 60
1, 45270, Note_on_c, 4, 54, 109
1, 45270, Note_on_c, 4, 59, 95
1, 45270, Pitch_bend_c, 13, 5700
1, 45280, Control_c, 5, 10, 115
1, 45282, Control_c, 0, 74, 13
1, 45282, Control_c, 4, 74, 13
1, 45282, Control_c, 5, 74, 13
1, 45285, Pitch_bend_c, 13, 5428
1, 45299, Note_off_c, 4, 59, 64
1, 45299, Note_off_c, 5, 71, 64
1, 45299, Note_off_c, 4, 54, 64
1, 45299, Note_off_c, 0, 59, 64
1, 45299, Note_off_c, 0, 66, 64
1, 45299, Note_off_c, 5, 59, 64
1, 45299, Note_off_c, 0, 62, 64
1, 45300, Note_on_c, 0, 62, 80
1, 45300, Note_on_c, 0, 66, 62
1, 45300, Note_on_c, 0, 71, 91
1, 45300, Note_on_c, 3, 67, 120
1, 45300, Note_on_c, 4, 50, 103
1, 45300, Note_on_c, 4, 54, 115
1, 45300, Pitch_bend_c, 13, 5157
1, 45300, Lyric_t, "n't "
1, 45315, Pitch_bend_c, 13, 4885
1, 45320, Control_c, 5, 10, 34
1, 45329, Note_off_c, 4, 54, 64
1, 45329, Note_off_c, 4, 50, 64
1, 45329, Note_off_c, 0, 71, 64
1, 45329, Note_off_c, 0, 66, 64
1, 45329, Note_off_c, 0, 62, 64
1, 45329, Note_off_c, 3, 67, 64
1, 45330, Note_on_c, 0, 59, 51
1, 45330, Note_on_c, 0, 62, 85
1, 45330, Note_on_c, 0, 66, 59
1, 45330, Note_on_c, 4, 47, 92
1, 45330, Note_on_c, 4, 52, 98
1, 45330, Note_on_c, 5, 57, 98
1, 45330, Note_on_c, 5, 69, 98
1, 45330, Pitch_bend_c, 13, 4614
1, 45336, Control_c, 0, 74, 14
1, 45336, Control_c, 4, 74, 14
1, 45336, Control_c, 5, 74, 14
1, 45345, Pitch_bend_c, 13, 4343
1, 45359, Note_off_c, 5, 69, 64
1, 45359, Note_off_c, 0, 62, 64
1, 45359, Note_off_c, 5, 57, 64
1, 45359, Note_off_c, 0, 66, 64
1, 45359, Note_off_c, 4, 52, 64
1, 45359, Note_off_c, 0, 59, 64
1, 45359, Note_off_c, 4, 47, 64
1, 45360, Note_on_c, 0, 55, 74
1, 45360, Note_on_c, 0, 59, 94
1, 45360, Note_on_c, 0, 62, 91
1, 45360, Note_on_c, 3, 66, 119
1, 45360, Note_on_c, 4, 43, 98
1, 45360, Note_on_c, 4, 50, 116
1, 45360, Note_on_c, 5, 59, 98
1, 45360, Note_on_c, 5, 71, 98
1, 45360, Control_c, 5, 10, 94
1, 45360, Pitch_bend_c, 13, 4071
1, 45360, Lyric_t, "know "
1, 45375, Pitch_bend_c, 13, 3800
1, 45389, Note_off_c, 5, 71, 64
1, 45389, Note_off_c, 5, 59, 64
1, 45390, Control_c, 0, 74, 15
1, 45390, Control_c, 4, 74, 15
1, 45390, Control_c, 5, 74, 15
1, 45390, Note_on_c, 5, 62, 54
1, 45390, Note_on_c, 5, 74, 54
1, 45390, Pitch_bend_c, 13, 3529
1, 45400, Control_c, 5, 10, 12
1, 45405, Pitch_bend_c, 13, 3257
1, 45419, Note_off_c, 5, 74, 64
1, 45419, Note_off_c, 4, 50, 64
1, 45419, Note_off_c, 4, 43, 64
1, 45419, Note_off_c, 5, 62, 64
1, 45419, Note_off_c, 0, 55, 64
1, 45419, Note_off_c, 0, 59, 64
1, 45419, Note_off_c, 0, 62, 64
1, 45420, Note_on_c, 0, 59, 70
1, 45420, Note_on_c, 0, 62, 94
1, 45420, Note_on_c, 0, 67, 101
1, 45420, Note_on_c, 4, 50, 79
1, 45420, Note_on_c, 4, 55, 111
1, 45420, Note_on_c, 4, 59, 100
1, 45420, Note_on_c, 5, 59, 116
1, 45420, Note_on_c, 5, 71, 116
1, 45420, Pitch_bend_c, 13, 2986
1, 45435, Pitch_bend_c, 13, 2714
1, 45440, Control_c, 5, 10, 115
1, 45444, Control_c, 0, 74, 16
1, 45444, Control_c, 4, 74, 16
1, 45444, Control_c, 5, 74, 16
1, 45449, Note_off_c, 3, 66, 64
1, 45450, Pitch_bend_c, 13, 2443
1, 45465, Pitch_bend_c, 13, 2172
1, 45479, Note_off_c, 5, 71, 64
1, 45479, Note_off_c, 5, 59, 64
1, 45480, Note_on_c, 3, 64, 101
1, 45480, Control_c, 5, 10, 34
1, 45480, Pitch_bend_c, 13, 1900
1, 45480, Lyric_t, "I "
1, 45495, Pitch_bend_c, 13, 1629
1, 45498, Control_c, 0, 74, 17
1, 45498, Control_c, 4, 74, 17
1, 45498, Control_c, 5, 74, 17
1, 45509, Note_off_c, 3, 64, 64
1, 45509, Note_off_c, 4, 55, 64
1, 45509, Note_off_c, 0, 62, 64
1, 45509, Note_off_c, 0, 67, 64
1, 45509, Note_off_c, 0, 59, 64
1, 45509, Note_off_c, 4, 59, 64
1, 45509, Note_off_c, 4, 50, 64
1, 45510, Note_on_c, 0, 59, 52
1, 45510, Note_on_c, 0, 62, 85
1, 45510, Note_on_c, 0, 67, 94
1, 45510, Note_on_c, 4, 50, 82
1, 45510, Note_on_c, 4, 55, 98
1, 45510, Note_on_c, 4, 59, 85
1, 45510, Note_on_c, 5, 57, 83
1, 45510, Note_on_c, 5, 69, 83
1, 45510, Pitch_bend_c, 13, 1357
1, 45520, Control_c, 5, 10, 94
1, 45525, Pitch_bend_c, 13, 1086
1, 45539, Note_off_c, 5, 69, 64
1, 45539, Note_off_c, 0, 59, 64
1, 45539, Note_off_c, 0, 62, 64
1, 45539, Note_off_c, 5, 57, 64
1, 45539, Note_off_c, 0, 67, 64
1, 45539, Note_off_c, 4, 55, 64
1, 45539, Note_off_c, 4, 59, 64
1, 45539, Note_off_c, 4, 50, 64
1, 45540, Note_on_c, 0, 62, 78
1, 45540, Note_on_c, 0, 67, 100
1, 45540, Note_on_c, 0, 71, 46
1, 45540, Note_on_c, 3, 62, 105
1, 45540, Note_on_c, 4, 43, 109
1, 45540, Note_on_c, 4, 50, 109
1, 45540, Note_on_c, 5, 59, 98
1, 45540, Note_on_c, 5, 71, 98
1, 45540, Pitch_bend_c, 13, 815
1, 45540, Lyric_t, "was "
1, 45552, Control_c, 0, 74, 18
1, 45552, Control_c, 4, 74, 18
1, 45552, Control_c, 5, 74, 18
1, 45555, Pitch_bend_c, 13, 543
1, 45560, Control_c, 5, 10, 12
1, 45569, Note_off_c, 5, 71, 64
1, 45569, Note_off_c, 0, 62, 64
1, 45569, Note_off_c, 0, 67, 64
1, 45569, Note_off_c, 5, 59, 64
1, 45569, Note_off_c, 4, 43, 64
1, 45569, Note_off_c, 4, 50, 64
1, 45569, Note_off_c, 0, 71, 64
1, 45570, Note_on_c, 0, 59, 45
1, 45570, Note_on_c, 0, 62, 73
1, 45570, Note_on_c, 0, 67, 86
1, 45570, Note_on_c, 4, 43, 101
1, 45570, Note_on_c, 4, 52, 116
1, 45570, Note_on_c, 5, 57, 94
1, 45570, Note_on_c, 5, 69, 94
1, 45570, Pitch_bend_c, 13, 272
1, 45584, Note_off_c, 13, 47, 64
1, 45585, Pitch_bend_c, 13, 1
1, 45599, Note_off_c, 0, 59, 64
1, 45599, Note_off_c, 0, 62, 64
1, 45599, Note_off_c, 5, 69, 64
1, 45599, Note_off_c, 0, 67, 64
1, 45599, Note_off_c, 3, 62, 64
1, 45599, Note_off_c, 5, 57, 64
1, 45599, Note_off_c, 4, 52, 64
1, 45599, Note_off_c, 4, 43, 64
1, 45600, Note_on_c, 0, 54, 35
1, 45600, Note_on_c, 0, 57, 85
1, 45600, Note_on_c, 0, 62, 79
1, 45600, Note_on_c, 3, 66, 119
1, 45600, Note_on_c, 4, 45, 90
1, 45600, Note_on_c, 4, 50, 105
1, 45600, Note_on_c, 5, 59, 120
1, 45600, Note_on_c, 5, 71, 120
1, 45600, Control_c, 5, 10, 115
1, 45600, Lyric_t, "lost "
1, 45600, Lyric_t, "\015"
1, 45606, Control_c, 0, 74, 19
1, 45606, Control_c, 4, 74, 19
1, 45606, Control_c, 5, 74, 19
1, 45620, Pitch_bend_c, 13, 1695
1, 45622, Pitch_bend_c, 13, 3955
1, 45625, Pitch_bend_c, 13, 6377
1, 45627, Pitch_bend_c, 13, 8152
1, 45629, Pitch_bend_c, 13, 8192
1, 45640, Control_c, 5, 10, 34
1, 45659, Note_off_c, 5, 71, 64
1, 45659, Note_off_c, 0, 57, 64
1, 45659, Note_off_c, 5, 59, 64
1, 45659, Note_off_c, 0, 62, 64
1, 45659, Note_off_c, 0, 54, 64
1, 45659, Note_off_c, 4, 50, 64
1, 45659, Note_off_c, 4, 45, 64
1, 45660, Control_c, 0, 74, 20
1, 45660, Note_on_c, 0, 57, 69
1, 45660, Note_on_c, 0, 62, 98
1, 45660, Note_on_c, 0, 66, 74
1, 45660, Control_c, 4, 74, 20
1, 45660, Note_on_c, 4, 45, 100
1, 45660, Note_on_c, 4, 50, 111
1, 45660, Note_on_c, 4, 54, 89
1, 45660, Control_c, 5, 74, 20
1, 45680, Control_c, 5, 10, 94
1, 45714, Control_c, 0, 74, 21
1, 45714, Control_c, 4, 74, 21
1, 45714, Control_c, 5, 74, 21
1, 45720, Note_on_c, 5, 59, 120
1, 45720, Note_on_c, 5, 71, 120
1, 45720, Control_c, 5, 10, 12
1, 45749, Note_off_c, 4, 54, 64
1, 45749, Note_off_c, 4, 50, 64
1, 45749, Note_off_c, 0, 62, 64
1, 45749, Note_off_c, 0, 57, 64
1, 45749, Note_off_c, 0, 66, 64
1, 45749, Note_off_c, 4, 45, 64
1, 45750, Note_on_c, 0, 54, 44
1, 45750, Note_on_c, 0, 57, 78
1, 45750, Note_on_c, 0, 62, 58
1, 45750, Note_on_c, 4, 45, 85
1, 45750, Note_on_c, 4, 50, 105
1, 45750, Note_on_c, 4, 54, 81
1, 45760, Control_c, 5, 10, 115
1, 45768, Control_c, 0, 74, 22
1, 45768, Control_c, 4, 74, 22
1, 45768, Control_c, 5, 74, 22
1, 45779, Note_off_c, 4, 54, 64
1, 45779, Note_off_c, 5, 71, 64
1, 45779, Note_off_c, 5, 59, 64
1, 45779, Note_off_c, 4, 50, 64
1, 45779, Note_off_c, 0, 54, 64
1, 45779, Note_off_c, 0, 62, 64
1, 45779, Note_off_c, 4, 45, 64
1, 45779, Note_off_c, 0, 57, 64
1, 45780, Note_on_c, 0, 57, 57
1, 45780, Note_on_c, 0, 62, 91
1, 45780, Note_on_c, 0, 66, 77
1, 45780, Note_on_c, 4, 50, 109
1, 45780, Note_on_c, 4, 54, 89
1, 45780, Note_on_c, 4, 57, 109
1, 45800, Control_c, 5, 10, 34
1, 45809, Note_off_c, 4, 57, 64
1, 45809, Note_off_c, 4, 54, 64
1, 45809, Note_off_c, 0, 66, 64
1, 45809, Note_off_c, 0, 62, 64
1, 45809, Note_off_c, 0, 57, 64
1, 45809, Note_off_c, 4, 50, 64
1, 45810, Note_on_c, 0, 54, 35
1, 45810, Note_on_c, 0, 57, 79
1, 45810, Note_on_c, 0, 62, 56
1, 45810, Note_on_c, 4, 50, 111
1, 45810, Note_on_c, 4, 54, 100
1, 45810, Note_on_c, 4, 57, 100
1, 45810, Note_on_c, 5, 57, 98
1, 45810, Note_on_c, 5, 69, 98
1, 45822, Control_c, 0, 74, 23
1, 45822, Control_c, 4, 74, 23
1, 45822, Control_c, 5, 74, 23
1, 45839, Note_off_c, 5, 69, 64
1, 45839, Note_off_c, 0, 54, 64
1, 45839, Note_off_c, 0, 57, 64
1, 45839, Note_off_c, 5, 57, 64
1, 45839, Note_off_c, 0, 62, 64
1, 45839, Note_off_c, 3, 66, 64
1, 45839, Note_off_c, 4, 57, 64
1, 45839, Note_off_c, 4, 54, 64
1, 45839, Note_off_c, 4, 50, 64
1, 45840, Note_on_c, 0, 54, 49
1, 45840, Note_on_c, 0, 57, 85
1, 45840, Note_on_c, 0, 62, 75
1, 45840, Note_on_c, 4, 45, 105
1, 45840, Note_on_c, 4, 50, 116
1, 45840, Note_on_c, 5, 59, 98
1, 45840, Note_on_c, 5, 71, 98
1, 45840, Control_c, 5, 10, 94
1, 45869, Note_off_c, 5, 71, 64
1, 45869, Note_off_c, 5, 59, 64
1, 45870, Note_on_c, 5, 62, 54
1, 45870, Note_on_c, 5, 74, 54
1, 45876, Control_c, 0, 74, 24
1, 45876, Control_c, 4, 74, 24
1, 45876, Control_c, 5, 74, 24
1, 45880, Control_c, 5, 10, 12
1, 45899, Note_off_c, 5, 74, 64
1, 45899, Note_off_c, 5, 62, 64
1, 45899, Note_off_c, 4, 50, 64
1, 45899, Note_off_c, 0, 54, 64
1, 45899, Note_off_c, 0, 57, 64
1, 45899, Note_off_c, 0, 62, 64
1, 45899, Note_off_c, 4, 45, 64
1, 45900, Note_on_c, 0, 57, 56
1, 45900, Note_on_c, 0, 62, 84
1, 45900, Note_on_c, 0, 66, 49
1, 45900, Note_on_c, 4, 50, 105
1, 45900, Note_on_c, 4, 54, 115
1, 45900, Note_on_c, 5, 59, 116
1, 45900, Note_on_c, 5, 71, 116
1, 45920, Control_c, 5, 10, 115
1, 45929, Note_off_c, 4, 54, 64
1, 45929, Note_off_c, 0, 66, 64
1, 45929, Note_off_c, 0, 62, 64
1, 45929, Note_off_c, 0, 57, 64
1, 45929, Note_off_c, 4, 50, 64
1, 45930, Control_c, 0, 74, 25
1, 45930, Note_on_c, 0, 57, 84
1, 45930, Note_on_c, 0, 62, 94
1, 45930, Note_on_c, 0, 66, 76
1, 45930, Control_c, 4, 74, 25
1, 45930, Note_on_c, 4, 50, 100
1, 45930, Note_on_c, 4, 54, 92
1, 45930, Control_c, 5, 74, 25
1, 45959, Note_off_c, 4, 54, 64
1, 45959, Note_off_c, 5, 59, 64
1, 45959, Note_off_c, 0, 62, 64
1, 45959, Note_off_c, 4, 50, 64
1, 45959, Note_off_c, 5, 71, 64
1, 45959, Note_off_c, 0, 57, 64
1, 45959, Note_off_c, 0, 66, 64
1, 45960, Note_on_c, 0, 52, 47
1, 45960, Note_on_c, 0, 57, 89
1, 45960, Note_on_c, 0, 61, 52
1, 45960, Note_on_c, 4, 45, 101
1, 45960, Note_on_c, 4, 52, 101
1, 45960, Control_c, 5, 10, 34
1, 45984, Control_c, 0, 74, 26
1, 45984, Control_c, 4, 74, 26
1, 45984, Control_c, 5, 74, 26
1, 45990, Note_on_c, 5, 57, 83
1, 45990, Note_on_c, 5, 69, 83
1, 46000, Control_c, 5, 10, 94
1, 46019, Note_off_c, 5, 69, 64
1, 46019, Note_off_c, 5, 57, 64
1, 46019, Note_off_c, 4, 45, 64
1, 46019, Note_off_c, 0, 52, 64
1, 46019, Note_off_c, 0, 57, 64
1, 46019, Note_off_c, 0, 61, 64
1, 46019, Note_off_c, 4, 52, 64
1, 46020, Note_on_c, 0, 57, 51
1, 46020, Note_on_c, 0, 61, 52
1, 46020, Note_on_c, 0, 64, 78
1, 46020, Note_on_c, 4, 49, 89
1, 46020, Note_on_c, 4, 52, 101
1, 46020, Note_on_c, 4, 57, 89
1, 46020, Note_on_c, 5, 59, 98
1, 46020, Note_on_c, 5, 71, 98
1, 46038, Control_c, 0, 74, 27
1, 46038, Control_c, 4, 74, 27
1, 46038, Control_c, 5, 74, 27
1, 46040, Control_c, 5, 10, 12
1, 46049, Note_off_c, 5, 71, 64
1, 46049, Note_off_c, 0, 64, 64
1, 46049, Note_off_c, 5, 59, 64
1, 46049, Note_off_c, 4, 49, 64
1, 46049, Note_off_c, 0, 57, 64
1, 46049, Note_off_c, 0, 61, 64
1, 46049, Note_off_c, 4, 57, 64
1, 46049, Note_off_c, 4, 52, 64
1, 46050, Note_on_c, 0, 57, 73
1, 46050, Note_on_c, 0, 61, 52
1, 46050, Note_on_c, 0, 64, 83
1, 46050, Note_on_c, 4, 49, 119
1, 46050, Note_on_c, 4, 52, 118
1, 46050, Note_on_c, 4, 57, 105
1, 46050, Note_on_c, 5, 57, 94
1, 46050, Note_on_c, 5, 69, 94
1, 46075, Note_off_c, 14, 36, 64
1, 46079, Note_off_c, 4, 49, 64
1, 46079, Note_off_c, 0, 57, 64
1, 46079, Note_off_c, 4, 52, 64
1, 46079, Note_off_c, 0, 61, 64
1, 46079, Note_off_c, 0, 64, 64
1, 46079, Note_off_c, 5, 57, 64
1, 46079, Note_off_c, 4, 57, 64
1, 46079, Note_off_c, 5, 69, 64
1, 46080, Note_on_c, 0, 59, 58
1, 46080, Note_on_c, 0, 62, 91
1, 46080, Note_on_c, 4, 47, 85
1, 46080, Note_on_c, 4, 54, 120
1, 46080, Note_on_c, 5, 59, 120
1, 46080, Note_on_c, 5, 71, 120
1, 46080, Control_c, 5, 10, 115
1, 46092, Control_c, 0, 74, 28
1, 46092, Control_c, 4, 74, 28
1, 46092, Control_c, 5, 74, 28
1, 46120, Control_c, 5, 10, 34
1, 46139, Note_off_c, 5, 71, 64
1, 46139, Note_off_c, 0, 62, 64
1, 46139, Note_off_c, 4, 47, 64
1, 46139, Note_off_c, 0, 59, 64
1, 46139, Note_off_c, 5, 59, 64
1, 46139, Note_off_c, 4, 54, 64
1, 46140, Note_on_c, 0, 59, 79
1, 46140, Note_on_c, 0, 62, 95
1, 46140, Note_on_c, 0, 66, 74
1, 46140, Note_on_c, 4, 50, 92
1, 46140, Note_on_c, 4, 54, 87
1, 46140, Note_on_c, 4, 62, 95
1, 46146, Control_c, 0, 74, 29
1, 46146, Control_c, 4, 74, 29
1, 46146, Control_c, 5, 74, 29
1, 46160, Control_c, 5, 10, 94
1, 46170, Note_on_c, 3, 62, 113
1, 46170, Lyric_t, "I "
1, 46199, Note_off_c, 3, 62, 64
1, 46200, Control_c, 0, 74, 30
1, 46200, Note_on_c, 3, 69, 103
1, 46200, Control_c, 4, 74, 30
1, 46200, Control_c, 5, 74, 30
1, 46200, Note_on_c, 5, 59, 120
1, 46200, Note_on_c, 5, 71, 120
1, 46200, Control_c, 5, 10, 12
1, 46200, Lyric_t, "did"
1, 46229, Note_off_c, 3, 69, 64
1, 46229, Note_off_c, 4, 50, 64
1, 46229, Note_off_c, 0, 59, 64
1, 46229, Note_off_c, 4, 62, 64
1, 46229, Note_off_c, 0, 62, 64
1, 46229, Note_off_c, 0, 66, 64
1, 46229, Note_off_c, 4, 54, 64
1, 46230, Note_on_c, 0, 59, 71
1, 46230, Note_on_c, 0, 62, 91
1, 46230, Note_on_c, 0, 66, 60
1, 46230, Note_on_c, 3, 69, 111
1, 46230, Note_on_c, 4, 54, 109
1, 46230, Note_on_c, 4, 59, 95
1, 46230, Lyric_t, "n't "
1, 46240, Control_c, 5, 10, 115
1, 46254, Control_c, 0, 74, 31
1, 46254, Control_c, 4, 74, 31
1, 46254, Control_c, 5, 74, 31
1, 46259, Note_off_c, 4, 59, 64
1, 46259, Note_off_c, 5, 59, 64
1, 46259, Note_off_c, 0, 66, 64
1, 46259, Note_off_c, 5, 71, 64
1, 46259, Note_off_c, 0, 59, 64
1, 46259, Note_off_c, 0, 62, 64
1, 46259, Note_off_c, 3, 69, 64
1, 46259, Note_off_c, 4, 54, 64
1, 46260, Note_on_c, 0, 62, 80
1, 46260, Note_on_c, 0, 66, 62
1, 46260, Note_on_c, 0, 71, 91
1, 46260, Note_on_c, 4, 50, 103
1, 46260, Note_on_c, 4, 54, 115
1, 46280, Control_c, 5, 10, 34
1, 46289, Note_off_c, 4, 54, 64
1, 46289, Note_off_c, 0, 71, 64
1, 46289, Note_off_c, 0, 62, 64
1, 46289, Note_off_c, 0, 66, 64
1, 46289, Note_off_c, 4, 50, 64
1, 46290, Note_on_c, 0, 59, 51
1, 46290, Note_on_c, 0, 62, 85
1, 46290, Note_on_c, 0, 66, 59
1, 46290, Note_on_c, 3, 69, 107
1, 46290, Note_on_c, 4, 47, 92
1, 46290, Note_on_c, 4, 52, 98
1, 46290, Note_on_c, 5, 57, 98
1, 46290, Note_on_c, 5, 69, 98
1, 46290, Lyric_t, "know "
1, 46308, Control_c, 0, 74, 32
1, 46308, Control_c, 4, 74, 32
1, 46308, Control_c, 5, 74, 32
1, 46319, Note_off_c, 5, 69, 64
1, 46319, Note_off_c, 5, 57, 64
1, 46319, Note_off_c, 4, 47, 64
1, 46319, Note_off_c, 0, 62, 64
1, 46319, Note_off_c, 0, 59, 64
1, 46319, Note_off_c, 0, 66, 64
1, 46319, Note_off_c, 4, 52, 64
1, 46320, Note_on_c, 0, 55, 74
1, 46320, Note_on_c, 0, 59, 94
1, 46320, Note_on_c, 0, 62, 91
1, 46320, Note_on_c, 4, 43, 98
1, 46320, Note_on_c, 4, 50, 116
1, 46320, Note_on_c, 5, 59, 98
1, 46320, Note_on_c, 5, 71, 98
1, 46320, Control_c, 5, 10, 94
1, 46349, Note_off_c, 5, 71, 64
1, 46349, Note_off_c, 5, 59, 64
1, 46350, Note_on_c, 5, 62, 54
1, 46350, Note_on_c, 5, 74, 54
1, 46360, Control_c, 5, 10, 12
1, 46362, Control_c, 0, 74, 33
1, 46362, Control_c, 4, 74, 33
1, 46362, Control_c, 5, 74, 33
1, 46379, Note_off_c, 5, 74, 64
1, 46379, Note_off_c, 0, 62, 64
1, 46379, Note_off_c, 4, 50, 64
1, 46379, Note_off_c, 0, 55, 64
1, 46379, Note_off_c, 0, 59, 64
1, 46379, Note_off_c, 3, 69, 64
1, 46379, Note_off_c, 4, 43, 64
1, 46379, Note_off_c, 5, 62, 64
1, 46380, Note_on_c, 0, 59, 70
1, 46380, Note_on_c, 0, 62, 94
1, 46380, Note_on_c, 0, 67, 101
1, 46380, Note_on_c, 3, 67, 118
1, 46380, Note_on_c, 4, 50, 79
1, 46380, Note_on_c, 4, 55, 111
1, 46380, Note_on_c, 4, 59, 100
1, 46380, Note_on_c, 5, 59, 116
1, 46380, Note_on_c, 5, 71, 116
1, 46380, Lyric_t, "I "
1, 46400, Control_c, 5, 10, 115
1, 46416, Control_c, 0, 74, 34
1, 46416, Control_c, 4, 74, 34
1, 46416, Control_c, 5, 74, 34
1, 46439, Note_off_c, 5, 71, 64
1, 46439, Note_off_c, 5, 59, 64
1, 46440, Control_c, 5, 10, 34
1, 46469, Note_off_c, 0, 59, 64
1, 46469, Note_off_c, 4, 50, 64
1, 46469, Note_off_c, 0, 62, 64
1, 46469, Note_off_c, 0, 67, 64
1, 46469, Note_off_c, 4, 59, 64
1, 46469, Note_off_c, 4, 55, 64
1, 46469, Note_off_c, 3, 67, 64
1, 46470, Control_c, 0, 74, 35
1, 46470, Note_on_c, 0, 59, 52
1, 46470, Note_on_c, 0, 62, 85
1, 46470, Note_on_c, 0, 67, 94
1, 46470, Note_on_c, 3, 69, 105
1, 46470, Control_c, 4, 74, 35
1, 46470, Note_on_c, 4, 50, 82
1, 46470, Note_on_c, 4, 55, 98
1, 46470, Note_on_c, 4, 59, 85
1, 46470, Control_c, 5, 74, 35
1, 46470, Note_on_c, 5, 57, 83
1, 46470, Note_on_c, 5, 69, 83
1, 46470, Lyric_t, "was "
1, 46480, Control_c, 5, 10, 94
1, 46499, Note_off_c, 5, 69, 64
1, 46499, Note_off_c, 0, 67, 64
1, 46499, Note_off_c, 5, 57, 64
1, 46499, Note_off_c, 4, 50, 64
1, 46499, Note_off_c, 0, 62, 64
1, 46499, Note_off_c, 0, 59, 64
1, 46499, Note_off_c, 4, 59, 64
1, 46499, Note_off_c, 4, 55, 64
1, 46500, Note_on_c, 0, 62, 78
1, 46500, Note_on_c, 0, 67, 100
1, 46500, Note_on_c, 0, 71, 46
1, 46500, Note_on_c, 4, 43, 109
1, 46500, Note_on_c, 4, 50, 109
1, 46500, Note_on_c, 5, 59, 98
1, 46500, Note_on_c, 5, 71, 98
1, 46520, Control_c, 5, 10, 12
1, 46524, Control_c, 0, 74, 36
1, 46524, Control_c, 4, 74, 36
1, 46524, Control_c, 5, 74, 36
1, 46529, Note_off_c, 5, 71, 64
1, 46529, Note_off_c, 3, 69, 64
1, 46529, Note_off_c, 4, 43, 64
1, 46529, Note_off_c, 0, 62, 64
1, 46529, Note_off_c, 0, 67, 64
1, 46529, Note_off_c, 0, 71, 64
1, 46529, Note_off_c, 4, 50, 64
1, 46529, Note_off_c, 5, 59, 64
1, 46530, Note_on_c, 0, 59, 45
1, 46530, Note_on_c, 0, 62, 73
1, 46530, Note_on_c, 0, 67, 86
1, 46530, Note_on_c, 4, 43, 101
1, 46530, Note_on_c, 4, 52, 116
1, 46530, Note_on_c, 5, 57, 94
1, 46530, Note_on_c, 5, 69, 94
1, 46559, Note_off_c, 5, 69, 64
1, 46559, Note_off_c, 4, 52, 64
1, 46559, Note_off_c, 0, 62, 64
1, 46559, Note_off_c, 0, 67, 64
1, 46559, Note_off_c, 0, 59, 64
1, 46559, Note_off_c, 5, 57, 64
1, 46559, Note_off_c, 4, 43, 64
1, 46560, Note_on_c, 0, 54, 35
1, 46560, Note_on_c, 0, 57, 85
1, 46560, Note_on_c, 0, 62, 79
1, 46560, Note_on_c, 3, 66, 119
1, 46560, Note_on_c, 4, 45, 90
1, 46560, Note_on_c, 4, 50, 105
1, 46560, Note_on_c, 5, 59, 120
1, 46560, Note_on_c, 5, 71, 120
1, 46560, Control_c, 5, 10, 115
1, 46560, Lyric_t, "lost "
1, 46560, Lyric_t, "\015"
1, 46578, Control_c, 0, 74, 37
1, 46578, Control_c, 4, 74, 37
1, 46578, Control_c, 5, 74, 37
1, 46600, Control_c, 5, 10, 34
1, 46619, Note_off_c, 5, 71, 64
1, 46619, Note_off_c, 5, 59, 64
1, 46619, Note_off_c, 4, 45, 64
1, 46619, Note_off_c, 0, 57, 64
1, 46619, Note_off_c, 0, 54, 64
1, 46619, Note_off_c, 0, 62, 64
1, 46619, Note_off_c, 4, 50, 64
1, 46620, Note_on_c, 0, 57, 69
1, 46620, Note_on_c, 0, 62, 98
1, 46620, Note_on_c, 0, 66, 74
1, 46620, Note_on_c, 4, 45, 100
1, 46620, Note_on_c, 4, 50, 111
1, 46620, Note_on_c, 4, 54, 89
1, 46632, Control_c, 0, 74, 38
1, 46632, Control_c, 4, 74, 38
1, 46632, Control_c, 5, 74, 38
1, 46640, Control_c, 5, 10, 94
1, 46680, Note_on_c, 5, 59, 120
1, 46680, Note_on_c, 5, 71, 120
1, 46680, Control_c, 5, 10, 12
1, 46686, Control_c, 0, 74, 39
1, 46686, Control_c, 4, 74, 39
1, 46686, Control_c, 5, 74, 39
1, 46709, Note_off_c, 4, 54, 64
1, 46709, Note_off_c, 0, 66, 64
1, 46709, Note_off_c, 0, 62, 64
1, 46709, Note_off_c, 4, 45, 64
1, 46709, Note_off_c, 0, 57, 64
1, 46709, Note_off_c, 4, 50, 64
1, 46710, Note_on_c, 0, 54, 44
1, 46710, Note_on_c, 0, 57, 78
1, 46710, Note_on_c, 0, 62, 58
1, 46710, Note_on_c, 4, 45, 85
1, 46710, Note_on_c, 4, 50, 105
1, 46710, Note_on_c, 4, 54, 81
1, 46720, Control_c, 5, 10, 115
1, 46739, Note_off_c, 4, 54, 64
1, 46739, Note_off_c, 0, 54, 64
1, 46739, Note_off_c, 4, 50, 64
1, 46739, Note_off_c, 0, 57, 64
1, 46739, Note_off_c, 5, 59, 64
1, 46739, Note_off_c, 5, 71, 64
1, 46739, Note_off_c, 4, 45, 64
1, 46739, Note_off_c, 0, 62, 64
1, 46740, Control_c, 0, 74, 40
1, 46740, Note_on_c, 0, 57, 57
1, 46740, Note_on_c, 0, 62, 91
1, 46740, Note_on_c, 0, 66, 77
1, 46740, Control_c, 4, 74, 40
1, 46740, Note_on_c, 4, 50, 109
1, 46740, Note_on_c, 4, 54, 89
1, 46740, Note_on_c, 4, 57, 109
1, 46740, Control_c, 5, 74, 40
1, 46760, Control_c, 5, 10, 34
1, 46769, Note_off_c, 4, 57, 64
1, 46769, Note_off_c, 4, 50, 64
1, 46769, Note_off_c, 0, 57, 64
1, 46769, Note_off_c, 0, 62, 64
1, 46769, Note_off_c, 0, 66, 64
1, 46769, Note_off_c, 4, 54, 64
1, 46770, Note_on_c, 0, 54, 35
1, 46770, Note_on_c, 0, 57, 79
1, 46770, Note_on_c, 0, 62, 56
1, 46770, Note_on_c, 4, 50, 111
1, 46770, Note_on_c, 4, 54, 100
1, 46770, Note_on_c, 4, 57, 100
1, 46770, Note_on_c, 5, 57, 98
1, 46770, Note_on_c, 5, 69, 98
1, 46794, Control_c, 0, 74, 41
1, 46794, Control_c, 4, 74, 41
1, 46794, Control_c, 5, 74, 41
1, 46799, Note_off_c, 5, 69, 64
1, 46799, Note_off_c, 0, 62, 64
1, 46799, Note_off_c, 3, 66, 64
1, 46799, Note_off_c, 4, 50, 64
1, 46799, Note_off_c, 0, 54, 64
1, 46799, Note_off_c, 0, 57, 64
1, 46799, Note_off_c, 4, 57, 64
1, 46799, Note_off_c, 4, 54, 64
1, 46799, Note_off_c, 5, 57, 64
1, 46800, Note_on_c, 0, 54, 49
1, 46800, Note_on_c, 0, 57, 85
1, 46800, Note_on_c, 0, 62, 75
1, 46800, Note_on_c, 4, 45, 105
1, 46800, Note_on_c, 4, 50, 116
1, 46800, Note_on_c, 5, 59, 98
1, 46800, Note_on_c, 5, 71, 98
1, 46800, Control_c, 5, 10, 94
1, 46829, Note_off_c, 5, 71, 64
1, 46829, Note_off_c, 5, 59, 64
1, 46830, Note_on_c, 5, 62, 54
1, 46830, Note_on_c, 5, 74, 54
1, 46840, Control_c, 5, 10, 12
1, 46848, Control_c, 0, 74, 42
1, 46848, Control_c, 4, 74, 42
1, 46848, Control_c, 5, 74, 42
1, 46859, Note_off_c, 5, 74, 64
1, 46859, Note_off_c, 0, 57, 64
1, 46859, Note_off_c, 4, 50, 64
1, 46859, Note_off_c, 0, 62, 64
1, 46859, Note_off_c, 0, 54, 64
1, 46859, Note_off_c, 5, 62, 64
1, 46859, Note_off_c, 4, 45, 64
1, 46860, Note_on_c, 0, 57, 56
1, 46860, Note_on_c, 0, 62, 84
1, 46860, Note_on_c, 0, 66, 49
1, 46860, Note_on_c, 4, 50, 105
1, 46860, Note_on_c, 4, 54, 115
1, 46860, Note_on_c, 5, 59, 116
1, 46860, Note_on_c, 5, 71, 116
1, 46880, Control_c, 5, 10, 115
1, 46889, Note_off_c, 4, 54, 64
1, 46889, Note_off_c, 4, 50, 64
1, 46889, Note_off_c, 0, 57, 64
1, 46889, Note_off_c, 0, 66, 64
1, 46889, Note_off_c, 0, 62, 64
1, 46890, Note_on_c, 0, 57, 84
1, 46890, Note_on_c, 0, 62, 94
1, 46890, Note_on_c, 0, 66, 76
1, 46890, Note_on_c, 4, 50, 100
1, 46890, Note_on_c, 4, 54, 92
1, 46902, Control_c, 0, 74, 43
1, 46902, Control_c, 4, 74, 43
1, 46902, Control_c, 5, 74, 43
1, 46919, Note_off_c, 4, 54, 64
1, 46919, Note_off_c, 0, 66, 64
1, 46919, Note_off_c, 5, 71, 64
1, 46919, Note_off_c, 0, 57, 64
1, 46919, Note_off_c, 5, 59, 64
1, 46919, Note_off_c, 4, 50, 64
1, 46919, Note_off_c, 0, 62, 64
1, 46920, Note_on_c, 0, 52, 47
1, 46920, Note_on_c, 0, 57, 89
1, 46920, Note_on_c, 0, 61, 52
1, 46920, Note_on_c, 4, 45, 101
1, 46920, Note_on_c, 4, 52, 101
1, 46920, Control_c, 5, 10, 34
1, 46950, Note_on_c, 5, 57, 83
1, 46950, Note_on_c, 5, 69, 83
1, 46956, Control_c, 0, 74, 44
1, 46956, Control_c, 4, 74, 44
1, 46956, Control_c, 5, 74, 44
1, 46960, Control_c, 5, 10, 94
1, 46979, Note_off_c, 5, 69, 64
1, 46979, Note_off_c, 4, 52, 64
1, 46979, Note_off_c, 0, 57, 64
1, 46979, Note_off_c, 0, 61, 64
1, 46979, Note_off_c, 0, 52, 64
1, 46979, Note_off_c, 5, 57, 64
1, 46979, Note_off_c, 4, 45, 64
1, 46980, Note_on_c, 0, 57, 51
1, 46980, Note_on_c, 0, 61, 52
1, 46980, Note_on_c, 0, 64, 78
1, 46980, Note_on_c, 4, 49, 89
1, 46980, Note_on_c, 4, 52, 101
1, 46980, Note_on_c, 4, 57, 89
1, 46980, Note_on_c, 5, 59, 98
1, 46980, Note_on_c, 5, 71, 98
1, 47000, Control_c, 5, 10, 12
1, 47009, Note_off_c, 5, 71, 64
1, 47009, Note_off_c, 0, 57, 64
1, 47009, Note_off_c, 4, 52, 64
1, 47009, Note_off_c, 0, 61, 64
1, 47009, Note_off_c, 0, 64, 64
1, 47009, Note_off_c, 4, 49, 64
1, 47009, Note_off_c, 4, 57, 64
1, 47009, Note_off_c, 5, 59, 64
1, 47010, Control_c, 0, 74, 45
1, 47010, Note_on_c, 0, 57, 73
1, 47010, Note_on_c, 0, 61, 52
1, 47010, Note_on_c, 0, 64, 83
1, 47010, Control_c, 4, 74, 45
1, 47010, Note_on_c, 4, 49, 119
1, 47010, Note_on_c, 4, 52, 118
1, 47010, Note_on_c, 4, 57, 105
1, 47010, Control_c, 5, 74, 45
1, 47010, Note_on_c, 5, 57, 94
1, 47010, Note_on_c, 5, 69, 94
1, 47039, Note_off_c, 5, 69, 64
1, 47039, Note_off_c, 0, 57, 64
1, 47039, Note_off_c, 4, 52, 64
1, 47039, Note_off_c, 0, 61, 64
1, 47039, Note_off_c, 0, 64, 64
1, 47039, Note_off_c, 4, 49, 64
1, 47039, Note_off_c, 4, 57, 64
1, 47039, Note_off_c, 5, 57, 64
1, 47040, Note_on_c, 0, 59, 58
1, 47040, Note_on_c, 0, 62, 91
1, 47040, Note_on_c, 4, 47, 85
1, 47040, Note_on_c, 4, 54, 120
1, 47040, Note_on_c, 5, 59, 120
1, 47040, Note_on_c, 5, 71, 120
1, 47040, Control_c, 5, 10, 115
1, 47064, Control_c, 0, 74, 46
1, 47064, Control_c, 4, 74, 46
1, 47064, Control_c, 5, 74, 46
1, 47080, Control_c, 5, 10, 34
1, 47099, Note_off_c, 5, 71, 64
1, 47099, Note_off_c, 0, 62, 64
1, 47099, Note_off_c, 4, 47, 64
1, 47099, Note_off_c, 0, 59, 64
1, 47099, Note_off_c, 5, 59, 64
1, 47099, Note_off_c, 4, 54, 64
1, 47100, Note_on_c, 0, 59, 79
1, 47100, Note_on_c, 0, 62, 95
1, 47100, Note_on_c, 0, 66, 74
1, 47100, Note_on_c, 4, 50, 92
1, 47100, Note_on_c, 4, 54, 87
1, 47100, Note_on_c, 4, 62, 95
1, 47118, Control_c, 0, 74, 47
1, 47118, Control_c, 4, 74, 47
1, 47118, Control_c, 5, 74, 47
1, 47120, Control_c, 5, 10, 94
1, 47130, Note_on_c, 3, 57, 111
1, 47130, Lyric_t, "I "
1, 47159, Note_off_c, 3, 57, 64
1, 47160, Note_on_c, 3, 62, 109
1, 47160, Note_on_c, 5, 59, 120
1, 47160, Note_on_c, 5, 71, 120
1, 47160, Control_c, 5, 10, 12
1, 47160, Lyric_t, "did"
1, 47172, Control_c, 0, 74, 48
1, 47172, Control_c, 4, 74, 48
1, 47172, Control_c, 5, 74, 48
1, 47189, Note_off_c, 3, 62, 64
1, 47189, Note_off_c, 4, 50, 64
1, 47189, Note_off_c, 0, 59, 64
1, 47189, Note_off_c, 4, 62, 64
1, 47189, Note_off_c, 0, 62, 64
1, 47189, Note_off_c, 0, 66, 64
1, 47189, Note_off_c, 4, 54, 64
1, 47190, Note_on_c, 0, 59, 71
1, 47190, Note_on_c, 0, 62, 91
1, 47190, Note_on_c, 0, 66, 60
1, 47190, Note_on_c, 4, 54, 109
1, 47190, Note_on_c, 4, 59, 95
1, 47200, Control_c, 5, 10, 115
1, 47219, Note_off_c, 4, 59, 64
1, 47219, Note_off_c, 0, 66, 64
1, 47219, Note_off_c, 5, 71, 64
1, 47219, Note_off_c, 0, 59, 64
1, 47219, Note_off_c, 5, 59, 64
1, 47219, Note_off_c, 4, 54, 64
1, 47219, Note_off_c, 0, 62, 64
1, 47220, Note_on_c, 0, 62, 80
1, 47220, Note_on_c, 0, 66, 62
1, 47220, Note_on_c, 0, 71, 91
1, 47220, Note_on_c, 3, 62, 111
1, 47220, Note_on_c, 4, 50, 103
1, 47220, Note_on_c, 4, 54, 115
1, 47220, Lyric_t, "n't "
1, 47226, Control_c, 0, 74, 49
1, 47226, Control_c, 4, 74, 49
1, 47226, Control_c, 5, 74, 49
1, 47240, Control_c, 5, 10, 34
1, 47249, Note_off_c, 4, 54, 64
1, 47249, Note_off_c, 0, 66, 64
1, 47249, Note_off_c, 0, 71, 64
1, 47249, Note_off_c, 0, 62, 64
1, 47249, Note_off_c, 4, 50, 64
1, 47249, Note_off_c, 3, 62, 64
1, 47250, Note_on_c, 0, 59, 51
1, 47250, Note_on_c, 0, 62, 85
1, 47250, Note_on_c, 0, 66, 59
1, 47250, Note_on_c, 4, 47, 92
1, 47250, Note_on_c, 4, 52, 98
1, 47250, Note_on_c, 5, 57, 98
1, 47250, Note_on_c, 5, 69, 98
1, 47279, Note_off_c, 5, 69, 64
1, 47279, Note_off_c, 4, 52, 64
1, 47279, Note_off_c, 0, 62, 64
1, 47279, Note_off_c, 0, 66, 64
1, 47279, Note_off_c, 0, 59, 64
1, 47279, Note_off_c, 5, 57, 64
1, 47279, Note_off_c, 4, 47, 64
1, 47280, Control_c, 0, 74, 50
1, 47280, Note_on_c, 0, 55, 74
1, 47280, Note_on_c, 0, 59, 94
1, 47280, Note_on_c, 0, 62, 91
1, 47280, Note_on_c, 3, 59, 118
1, 47280, Control_c, 4, 74, 50
1, 47280, Note_on_c, 4, 43, 98
1, 47280, Note_on_c, 4, 50, 116
1, 47280, Control_c, 5, 74, 50
1, 47280, Note_on_c, 5, 59, 98
1, 47280, Note_on_c, 5, 71, 98
1, 47280, Control_c, 5, 10, 94
1, 47280, Lyric_t, "know "
1, 47309, Note_off_c, 5, 71, 64
1, 47309, Note_off_c, 5, 59, 64
1, 47310, Note_on_c, 5, 62, 54
1, 47310, Note_on_c, 5, 74, 54
1, 47320, Control_c, 5, 10, 12
1, 47334, Control_c, 0, 74, 51
1, 47334, Control_c, 4, 74, 51
1, 47334, Control_c, 5, 74, 51
1, 47339, Note_off_c, 5, 74, 64
1, 47339, Note_off_c, 5, 62, 64
1, 47339, Note_off_c, 4, 50, 64
1, 47339, Note_off_c, 0, 59, 64
1, 47339, Note_off_c, 0, 55, 64
1, 47339, Note_off_c, 0, 62, 64
1, 47339, Note_off_c, 4, 43, 64
1, 47340, Note_on_c, 0, 59, 70
1, 47340, Note_on_c, 0, 62, 94
1, 47340, Note_on_c, 0, 67, 101
1, 47340, Note_on_c, 4, 50, 79
1, 47340, Note_on_c, 4, 55, 111
1, 47340, Note_on_c, 4, 59, 100
1, 47340, Note_on_c, 5, 59, 116
1, 47340, Note_on_c, 5, 71, 116
1, 47360, Control_c, 5, 10, 115
1, 47369, Note_off_c, 3, 59, 64
1, 47388, Control_c, 0, 74, 52
1, 47388, Control_c, 4, 74, 52
1, 47388, Control_c, 5, 74, 52
1, 47399, Note_off_c, 5, 71, 64
1, 47399, Note_off_c, 5, 59, 64
1, 47400, Note_on_c, 3, 59, 105
1, 47400, Control_c, 5, 10, 34
1, 47400, Lyric_t, "I "
1, 47429, Note_off_c, 3, 59, 64
1, 47429, Note_off_c, 4, 59, 64
1, 47429, Note_off_c, 0, 62, 64
1, 47429, Note_off_c, 0, 67, 64
1, 47429, Note_off_c, 4, 50, 64
1, 47429, Note_off_c, 4, 55, 64
1, 47429, Note_off_c, 0, 59, 64
1, 47430, Note_on_c, 0, 59, 52
1, 47430, Note_on_c, 0, 62, 85
1, 47430, Note_on_c, 0, 67, 94
1, 47430, Note_on_c, 4, 50, 82
1, 47430, Note_on_c, 4, 55, 98
1, 47430, Note_on_c, 4, 59, 85
1, 47430, Note_on_c, 5, 57, 83
1, 47430, Note_on_c, 5, 69, 83
1, 47440, Control_c, 5, 10, 94
1, 47442, Control_c, 0, 74, 53
1, 47442, Control_c, 4, 74, 53
1, 47442, Control_c, 5, 74, 53
1, 47459, Note_off_c, 5, 69, 64
1, 47459, Note_off_c, 0, 59, 64
1, 47459, Note_off_c, 4, 55, 64
1, 47459, Note_off_c, 0, 62, 64
1, 47459, Note_off_c, 0, 67, 64
1, 47459, Note_off_c, 4, 50, 64
1, 47459, Note_off_c, 4, 59, 64
1, 47459, Note_off_c, 5, 57, 64
1, 47460, Note_on_c, 0, 62, 78
1, 47460, Note_on_c, 0, 67, 100
1, 47460, Note_on_c, 0, 71, 46
1, 47460, Note_on_c, 3, 57, 118
1, 47460, Note_on_c, 4, 43, 109
1, 47460, Note_on_c, 4, 50, 109
1, 47460, Note_on_c, 5, 59, 98
1, 47460, Note_on_c, 5, 71, 98
1, 47460, Lyric_t, "was "
1, 47480, Control_c, 5, 10, 12
1, 47489, Note_off_c, 5, 71, 64
1, 47489, Note_off_c, 0, 62, 64
1, 47489, Note_off_c, 4, 43, 64
1, 47489, Note_off_c, 0, 67, 64
1, 47489, Note_off_c, 0, 71, 64
1, 47489, Note_off_c, 3, 57, 64
1, 47489, Note_off_c, 4, 50, 64
1, 47489, Note_off_c, 5, 59, 64
1, 47490, Note_on_c, 0, 59, 45
1, 47490, Note_on_c, 0, 62, 73
1, 47490, Note_on_c, 0, 67, 86
1, 47490, Note_on_c, 4, 43, 101
1, 47490, Note_on_c, 4, 52, 116
1, 47490, Note_on_c, 5, 57, 94
1, 47490, Note_on_c, 5, 69, 94
1, 47496, Control_c, 0, 74, 54
1, 47496, Control_c, 4, 74, 54
1, 47496, Control_c, 5, 74, 54
1, 47519, Note_off_c, 5, 69, 64
1, 47519, Note_off_c, 4, 52, 64
1, 47519, Note_off_c, 0, 62, 64
1, 47519, Note_off_c, 0, 67, 64
1, 47519, Note_off_c, 0, 59, 64
1, 47519, Note_off_c, 5, 57, 64
1, 47519, Note_off_c, 4, 43, 64
1, 47520, Note_on_c, 0, 54, 35
1, 47520, Note_on_c, 0, 57, 85
1, 47520, Note_on_c, 0, 62, 79
1, 47520, Note_on_c, 3, 57, 116
1, 47520, Note_on_c, 4, 45, 90
1, 47520, Note_on_c, 4, 50, 105
1, 47520, Note_on_c, 5, 59, 120
1, 47520, Note_on_c, 5, 71, 120
1, 47520, Control_c, 5, 10, 115
1, 47520, Lyric_t, "lost "
1, 47520, Lyric_t, "\015"
1, 47550, Control_c, 0, 74, 55
1, 47550, Control_c, 4, 74, 55
1, 47550, Control_c, 5, 74, 55
1, 47560, Control_c, 5, 10, 34
1, 47579, Note_off_c, 5, 71, 64
1, 47579, Note_off_c, 5, 59, 64
1, 47579, Note_off_c, 4, 45, 64
1, 47579, Note_off_c, 0, 57, 64
1, 47579, Note_off_c, 0, 54, 64
1, 47579, Note_off_c, 0, 62, 64
1, 47579, Note_off_c, 4, 50, 64
1, 47580, Note_on_c, 0, 57, 69
1, 47580, Note_on_c, 0, 62, 98
1, 47580, Note_on_c, 0, 66, 74
1, 47580, Note_on_c, 4, 45, 100
1, 47580, Note_on_c, 4, 50, 111
1, 47580, Note_on_c, 4, 54, 89
1, 47600, Control_c, 5, 10, 94
1, 47604, Control_c, 0, 74, 56
1, 47604, Control_c, 4, 74, 56
1, 47604, Control_c, 5, 74, 56
1, 47640, Note_on_c, 5, 59, 120
1, 47640, Note_on_c, 5, 71, 120
1, 47640, Control_c, 5, 10, 12
1, 47658, Control_c, 0, 74, 57
1, 47658, Control_c, 4, 74, 57
1, 47658, Control_c, 5, 74, 57
1, 47669, Note_off_c, 4, 54, 64
1, 47669, Note_off_c, 0, 66, 64
1, 47669, Note_off_c, 0, 62, 64
1, 47669, Note_off_c, 4, 45, 64
1, 47669, Note_off_c, 0, 57, 64
1, 47669, Note_off_c, 4, 50, 64
1, 47670, Note_on_c, 0, 54, 44
1, 47670, Note_on_c, 0, 57, 78
1, 47670, Note_on_c, 0, 62, 58
1, 47670, Note_on_c, 4, 45, 85
1, 47670, Note_on_c, 4, 50, 105
1, 47670, Note_on_c, 4, 54, 81
1, 47680, Control_c, 5, 10, 115
1, 47699, Note_off_c, 4, 54, 64
1, 47699, Note_off_c, 0, 54, 64
1, 47699, Note_off_c, 4, 50, 64
1, 47699, Note_off_c, 0, 57, 64
1, 47699, Note_off_c, 5, 59, 64
1, 47699, Note_off_c, 5, 71, 64
1, 47699, Note_off_c, 4, 45, 64
1, 47699, Note_off_c, 0, 62, 64
1, 47700, Note_on_c, 0, 57, 57
1, 47700, Note_on_c, 0, 62, 91
1, 47700, Note_on_c, 0, 66, 77
1, 47700, Note_on_c, 4, 50, 109
1, 47700, Note_on_c, 4, 54, 89
1, 47700, Note_on_c, 4, 57, 109
1, 47712, Control_c, 0, 74, 58
1, 47712, Control_c, 4, 74, 58
1, 47712, Control_c, 5, 74, 58
1, 47720, Control_c, 5, 10, 34
1, 47729, Note_off_c, 4, 57, 64
1, 47729, Note_off_c, 4, 50, 64
1, 47729, Note_off_c, 0, 57, 64
1, 47729, Note_off_c, 0, 62, 64
1, 47729, Note_off_c, 0, 66, 64
1, 47729, Note_off_c, 4, 54, 64
1, 47730, Note_on_c, 0, 54, 35
1, 47730, Note_on_c, 0, 57, 79
1, 47730, Note_on_c, 0, 62, 56
1, 47730, Note_on_c, 4, 50, 111
1, 47730, Note_on_c, 4, 54, 100
1, 47730, Note_on_c, 4, 57, 100
1, 47730, Note_on_c, 5, 57, 98
1, 47730, Note_on_c, 5, 69, 98
1, 47759, Note_off_c, 5, 69, 64
1, 47759, Note_off_c, 0, 62, 64
1, 47759, Note_off_c, 3, 57, 64
1, 47759, Note_off_c, 4, 50, 64
1, 47759, Note_off_c, 0, 54, 64
1, 47759, Note_off_c, 0, 57, 64
1, 47759, Note_off_c, 4, 57, 64
1, 47759, Note_off_c, 4, 54, 64
1, 47759, Note_off_c, 5, 57, 64
1, 47760, Note_on_c, 0, 54, 49
1, 47760, Note_on_c, 0, 57, 85
1, 47760, Note_on_c, 0, 62, 75
1, 47760, Note_on_c, 4, 45, 105
1, 47760, Note_on_c, 4, 50, 116
1, 47760, Note_on_c, 5, 59, 98
1, 47760, Note_on_c, 5, 71, 98
1, 47760, Control_c, 5, 10, 94
1, 47766, Control_c, 0, 74, 59
1, 47766, Control_c, 4, 74, 59
1, 47766, Control_c, 5, 74, 59
1, 47789, Note_off_c, 5, 71, 64
1, 47789, Note_off_c, 5, 59, 64
1, 47790, Note_on_c, 5, 62, 54
1, 47790, Note_on_c, 5, 74, 54
1, 47800, Control_c, 5, 10, 12
1, 47819, Note_off_c, 5, 74, 64
1, 47819, Note_off_c, 0, 57, 64
1, 47819, Note_off_c, 4, 50, 64
1, 47819, Note_off_c, 0, 62, 64
1, 47819, Note_off_c, 0, 54, 64
1, 47819, Note_off_c, 5, 62, 64
1, 47819, Note_off_c, 4, 45, 64
1, 47820, Control_c, 0, 74, 60
1, 47820, Note_on_c, 0, 57, 56
1, 47820, Note_on_c, 0, 62, 84
1, 47820, Note_on_c, 0, 66, 49
1, 47820, Control_c, 4, 74, 60
1, 47820, Note_on_c, 4, 50, 105
1, 47820, Note_on_c, 4, 54, 115
1, 47820, Control_c, 5, 74, 60
1, 47820, Note_on_c, 5, 59, 116
1, 47820, Note_on_c, 5, 71, 116
1, 47840, Control_c, 5, 10, 115
1, 47849, Note_off_c, 4, 54, 64
1, 47849, Note_off_c, 4, 50, 64
1, 47849, Note_off_c, 0, 57, 64
1, 47849, Note_off_c, 0, 66, 64
1, 47849, Note_off_c, 0, 62, 64
1, 47850, Note_on_c, 0, 57, 84
1, 47850, Note_on_c, 0, 62, 94
1, 47850, Note_on_c, 0, 66, 76
1, 47850, Note_on_c, 4, 50, 100
1, 47850, Note_on_c, 4, 54, 92
1, 47874, Control_c, 0, 74, 61
1, 47874, Control_c, 4, 74, 61
1, 47874, Control_c, 5, 74, 61
1, 47879, Note_off_c, 4, 54, 64
1, 47879, Note_off_c, 0, 66, 64
1, 47879, Note_off_c, 5, 71, 64
1, 47879, Note_off_c, 0, 57, 64
1, 47879, Note_off_c, 5, 59, 64
1, 47879, Note_off_c, 4, 50, 64
1, 47879, Note_off_c, 0, 62, 64
1, 47880, Note_on_c, 0, 52, 47
1, 47880, Note_on_c, 0, 57, 89
1, 47880, Note_on_c, 0, 61, 52
1, 47880, Note_on_c, 4, 45, 101
1, 47880, Note_on_c, 4, 52, 101
1, 47880, Control_c, 5, 10, 34
1, 47910, Note_on_c, 5, 57, 83
1, 47910, Note_on_c, 5, 69, 83
1, 47920, Control_c, 5, 10, 94
1, 47928, Control_c, 0, 74, 62
1, 47928, Control_c, 4, 74, 62
1, 47928, Control_c, 5, 74, 62
1, 47939, Note_off_c, 5, 69, 64
1, 47939, Note_off_c, 4, 52, 64
1, 47939, Note_off_c, 0, 57, 64
1, 47939, Note_off_c, 0, 61, 64
1, 47939, Note_off_c, 0, 52, 64
1, 47939, Note_off_c, 5, 57, 64
1, 47939, Note_off_c, 4, 45, 64
1, 47940, Note_on_c, 0, 57, 51
1, 47940, Note_on_c, 0, 61, 52
1, 47940, Note_on_c, 0, 64, 78
1, 47940, Note_on_c, 4, 49, 89
1, 47940, Note_on_c, 4, 52, 101
1, 47940, Note_on_c, 4, 57, 89
1, 47940, Note_on_c, 5, 59, 98
1, 47940, Note_on_c, 5, 71, 98
1, 47960, Control_c, 5, 10, 12
1, 47969, Note_off_c, 5, 71, 64
1, 47969, Note_off_c, 0, 57, 64
1, 47969, Note_off_c, 4, 52, 64
1, 47969, Note_off_c, 0, 61, 64
1, 47969, Note_off_c, 0, 64, 64
1, 47969, Note_off_c, 4, 49, 64
1, 47969, Note_off_c, 4, 57, 64
1, 47969, Note_off_c, 5, 59, 64
1, 47970, Note_on_c, 0, 57, 73
1, 47970, Note_on_c, 0, 61, 52
1, 47970, Note_on_c, 0, 64, 83
1, 47970, Note_on_c, 4, 49, 119
1, 47970, Note_on_c, 4, 52, 118
1, 47970, Note_on_c, 4, 57, 105
1, 47970, Note_on_c, 5, 57, 94
1, 47970, Note_on_c, 5, 69, 94
1, 47982, Control_c, 0, 74, 63
1, 47982, Control_c, 4, 74, 63
1, 47982, Control_c, 5, 74, 63
1, 47985, Control_c, 12, 74, 19
1, 47999, Note_off_c, 5, 69, 64
1, 47999, Note_off_c, 0, 57, 64
1, 47999, Note_off_c, 4, 52, 64
1, 47999, Note_off_c, 0, 61, 64
1, 47999, Note_off_c, 0, 64, 64
1, 47999, Note_off_c, 4, 49, 64
1, 47999, Note_off_c, 4, 57, 64
1, 47999, Note_off_c, 5, 57, 64
1, 48000, Note_on_c, 0, 59, 58
1, 48000, Note_on_c, 0, 62, 91
1, 48000, Note_on_c, 4, 47, 85
1, 48000, Note_on_c, 4, 54, 120
1, 48000, Note_on_c, 5, 59, 120
1, 48000, Note_on_c, 5, 71, 120
1, 48000, Control_c, 5, 10, 115
1, 48000, Control_c, 12, 74, 21
1, 48000, Control_c, 12, 11, 4
1, 48000, Note_on_c, 12, 60, 120
1, 48015, Control_c, 0, 74, 64
1, 48015, Control_c, 4, 74, 64
1, 48015, Control_c, 12, 74, 24
1, 48015, Control_c, 12, 11, 6
1, 48030, Control_c, 0, 74, 65
1, 48030, Control_c, 4, 74, 65
1, 48030, Control_c, 12, 74, 26
1, 48030, Control_c, 12, 11, 8
1, 48040, Control_c, 5, 10, 34
1, 48045, Control_c, 0, 74, 66
1, 48045, Control_c, 4, 74, 66
1, 48045, Control_c, 12, 74, 29
1, 48045, Control_c, 12, 11, 10
1, 48059, Note_off_c, 5, 71, 64
1, 48059, Note_off_c, 4, 54, 64
1, 48059, Note_off_c, 0, 62, 64
1, 48059, Note_off_c, 4, 47, 64
1, 48059, Note_off_c, 0, 59, 64
1, 48059, Note_off_c, 5, 59, 64
1, 48060, Control_c, 0, 74, 68
1, 48060, Note_on_c, 0, 59, 79
1, 48060, Note_on_c, 0, 62, 95
1, 48060, Note_on_c, 0, 66, 74
1, 48060, Control_c, 4, 74, 68
1, 48060, Note_on_c, 4, 50, 92
1, 48060, Note_on_c, 4, 54, 87
1, 48060, Note_on_c, 4, 62, 95
1, 48060, Control_c, 12, 74, 32
1, 48060, Control_c, 12, 11, 12
1, 48075, Control_c, 0, 74, 69
1, 48075, Control_c, 4, 74, 69
1, 48075, Control_c, 12, 74, 34
1, 48075, Control_c, 12, 11, 15
1, 48080, Control_c, 5, 10, 94
1, 48090, Control_c, 0, 74, 71
1, 48090, Note_on_c, 3, 59, 94
1, 48090, Control_c, 4, 74, 71
1, 48090, Control_c, 12, 74, 37
1, 48090, Control_c, 12, 11, 17
1, 48090, Lyric_t, "I "
1, 48105, Control_c, 0, 74, 72
1, 48105, Control_c, 4, 74, 72
1, 48105, Control_c, 12, 74, 40
1, 48105, Control_c, 12, 11, 19
1, 48119, Note_off_c, 3, 59, 64
1, 48120, Control_c, 0, 74, 74
1, 48120, Note_on_c, 3, 67, 118
1, 48120, Control_c, 4, 74, 74
1, 48120, Note_on_c, 5, 59, 120
1, 48120, Note_on_c, 5, 71, 120
1, 48120, Control_c, 5, 10, 12
1, 48120, Control_c, 12, 74, 42
1, 48120, Control_c, 12, 11, 21
1, 48120, Lyric_t, "did"
1, 48135, Control_c, 0, 74, 75
1, 48135, Control_c, 4, 74, 75
1, 48135, Control_c, 12, 74, 45
1, 48135, Control_c, 12, 11, 24
1, 48149, Note_off_c, 3, 67, 64
1, 48149, Note_off_c, 4, 62, 64
1, 48149, Note_off_c, 0, 66, 64
1, 48149, Note_off_c, 0, 62, 64
1, 48149, Note_off_c, 4, 50, 64
1, 48149, Note_off_c, 0, 59, 64
1, 48149, Note_off_c, 4, 54, 64
1, 48150, Control_c, 0, 74, 76
1, 48150, Note_on_c, 0, 59, 71
1, 48150, Note_on_c, 0, 62, 91
1, 48150, Note_on_c, 0, 66, 60
1, 48150, Note_on_c, 3, 67, 119
1, 48150, Control_c, 4, 74, 76
1, 48150, Note_on_c, 4, 54, 109
1, 48150, Note_on_c, 4, 59, 95
1, 48150, Control_c, 12, 74, 47
1, 48150, Control_c, 12, 11, 26
1, 48150, Lyric_t, "n't "
1, 48160, Control_c, 5, 10, 115
1, 48165, Control_c, 0, 74, 78
1, 48165, Control_c, 4, 74, 78
1, 48165, Control_c, 12, 74, 50
1, 48165, Control_c, 12, 11, 28
1, 48179, Note_off_c, 4, 59, 64
1, 48179, Note_off_c, 0, 59, 64
1, 48179, Note_off_c, 4, 54, 64
1, 48179, Note_off_c, 0, 62, 64
1, 48179, Note_off_c, 5, 59, 64
1, 48179, Note_off_c, 5, 71, 64
1, 48179, Note_off_c, 3, 67, 64
1, 48179, Note_off_c, 0, 66, 64
1, 48180, Control_c, 0, 74, 79
1, 48180, Note_on_c, 0, 62, 80
1, 48180, Note_on_c, 0, 66, 62
1, 48180, Note_on_c, 0, 71, 91
1, 48180, Control_c, 4, 74, 79
1, 48180, Note_on_c, 4, 50, 103
1, 48180, Note_on_c, 4, 54, 115
1, 48180, Control_c, 12, 74, 53
1, 48180, Control_c, 12, 11, 30
1, 48195, Control_c, 0, 74, 81
1, 48195, Control_c, 4, 74, 81
1, 48195, Control_c, 12, 74, 55
1, 48195, Control_c, 12, 11, 33
1, 48200, Control_c, 5, 10, 34
1, 48209, Note_off_c, 4, 54, 64
1, 48209, Note_off_c, 0, 62, 64
1, 48209, Note_off_c, 0, 66, 64
1, 48209, Note_off_c, 0, 71, 64
1, 48209, Note_off_c, 4, 50, 64
1, 48210, Control_c, 0, 74, 82
1, 48210, Note_on_c, 0, 59, 51
1, 48210, Note_on_c, 0, 62, 85
1, 48210, Note_on_c, 0, 66, 59
1, 48210, Note_on_c, 3, 66, 120
1, 48210, Control_c, 4, 74, 82
1, 48210, Note_on_c, 4, 47, 92
1, 48210, Note_on_c, 4, 52, 98
1, 48210, Note_on_c, 5, 57, 98
1, 48210, Note_on_c, 5, 69, 98
1, 48210, Control_c, 12, 74, 58
1, 48210, Control_c, 12, 11, 35
1, 48210, Lyric_t, "know... "
1, 48210, Lyric_t, "\015"
1, 48225, Control_c, 0, 74, 84
1, 48225, Control_c, 4, 74, 84
1, 48225, Control_c, 12, 74, 61
1, 48225, Control_c, 12, 11, 37
1, 48239, Note_off_c, 5, 69, 64
1, 48239, Note_off_c, 0, 62, 64
1, 48239, Note_off_c, 5, 57, 64
1, 48239, Note_off_c, 0, 66, 64
1, 48239, Note_off_c, 0, 59, 64
1, 48239, Note_off_c, 4, 52, 64
1, 48239, Note_off_c, 4, 47, 64
1, 48240, Control_c, 0, 74, 85
1, 48240, Note_on_c, 0, 55, 74
1, 48240, Note_on_c, 0, 59, 94
1, 48240, Note_on_c, 0, 62, 91
1, 48240, Control_c, 4, 74, 85
1, 48240, Note_on_c, 4, 43, 98
1, 48240, Note_on_c, 4, 50, 116
1, 48240, Note_on_c, 5, 59, 98
1, 48240, Note_on_c, 5, 71, 98
1, 48240, Control_c, 5, 10, 94
1, 48240, Control_c, 12, 74, 63
1, 48240, Control_c, 12, 11, 39
1, 48255, Control_c, 0, 74, 86
1, 48255, Control_c, 4, 74, 86
1, 48255, Control_c, 12, 74, 66
1, 48255, Control_c, 12, 11, 42
1, 48269, Note_off_c, 5, 71, 64
1, 48269, Note_off_c, 5, 59, 64
1, 48270, Control_c, 0, 74, 88
1, 48270, Control_c, 4, 74, 88
1, 48270, Note_on_c, 5, 62, 54
1, 48270, Note_on_c, 5, 74, 54
1, 48270, Control_c, 12, 74, 69
1, 48270, Control_c, 12, 11, 44
1, 48280, Control_c, 5, 10, 12
1, 48285, Control_c, 0, 74, 89
1, 48285, Control_c, 4, 74, 89
1, 48285, Control_c, 12, 74, 71
1, 48285, Control_c, 12, 11, 46
1, 48299, Note_off_c, 5, 74, 64
1, 48299, Note_off_c, 4, 50, 64
1, 48299, Note_off_c, 5, 62, 64
1, 48299, Note_off_c, 0, 62, 64
1, 48299, Note_off_c, 0, 59, 64
1, 48299, Note_off_c, 0, 55, 64
1, 48299, Note_off_c, 4, 43, 64
1, 48300, Control_c, 0, 74, 91
1, 48300, Note_on_c, 0, 59, 70
1, 48300, Note_on_c, 0, 62, 94
1, 48300, Note_on_c, 0, 67, 101
1, 48300, Control_c, 4, 74, 91
1, 48300, Note_on_c, 4, 50, 79
1, 48300, Note_on_c, 4, 55, 111
1, 48300, Note_on_c, 4, 59, 100
1, 48300, Note_on_c, 5, 59, 116
1, 48300, Note_on_c, 5, 71, 116
1, 48300, Control_c, 12, 74, 74
1, 48300, Control_c, 12, 11, 48
1, 48315, Control_c, 0, 74, 92
1, 48315, Control_c, 4, 74, 92
1, 48315, Control_c, 12, 74, 76
1, 48315, Control_c, 12, 11, 50
1, 48320, Control_c, 5, 10, 115
1, 48329, Note_off_c, 3, 66, 64
1, 48330, Control_c, 0, 74, 94
1, 48330, Control_c, 4, 74, 94
1, 48330, Control_c, 12, 74, 79
1, 48330, Control_c, 12, 11, 53
1, 48345, Control_c, 0, 74, 95
1, 48345, Control_c, 4, 74, 95
1, 48345, Control_c, 12, 74, 82
1, 48345, Control_c, 12, 11, 55
1, 48359, Note_off_c, 5, 71, 64
1, 48359, Note_off_c, 5, 59, 64
1, 48360, Control_c, 0, 74, 96
1, 48360, Control_c, 4, 74, 96
1, 48360, Control_c, 5, 10, 34
1, 48360, Control_c, 12, 74, 84
1, 48360, Control_c, 12, 11, 57
1, 48375, Control_c, 0, 74, 98
1, 48375, Control_c, 4, 74, 98
1, 48375, Control_c, 12, 74, 87
1, 48375, Control_c, 12, 11, 59
1, 48389, Note_off_c, 0, 67, 64
1, 48389, Note_off_c, 4, 50, 64
1, 48389, Note_off_c, 0, 59, 64
1, 48389, Note_off_c, 0, 62, 64
1, 48389, Note_off_c, 4, 59, 64
1, 48389, Note_off_c, 4, 55, 64
1, 48390, Control_c, 0, 74, 99
1, 48390, Note_on_c, 0, 59, 52
1, 48390, Note_on_c, 0, 62, 85
1, 48390, Note_on_c, 0, 67, 94
1, 48390, Control_c, 4, 74, 99
1, 48390, Note_on_c, 4, 50, 82
1, 48390, Note_on_c, 4, 55, 98
1, 48390, Note_on_c, 4, 59, 85
1, 48390, Note_on_c, 5, 57, 83
1, 48390, Note_on_c, 5, 69, 83
1, 48390, Control_c, 12, 74, 90
1, 48390, Control_c, 12, 11, 62
1, 48400, Control_c, 5, 10, 94
1, 48405, Control_c, 0, 74, 101
1, 48405, Control_c, 4, 74, 101
1, 48405, Control_c, 12, 74, 92
1, 48405, Control_c, 12, 11, 64
1, 48419, Note_off_c, 5, 69, 64
1, 48419, Note_off_c, 0, 67, 64
1, 48419, Note_off_c, 5, 57, 64
1, 48419, Note_off_c, 4, 50, 64
1, 48419, Note_off_c, 0, 59, 64
1, 48419, Note_off_c, 0, 62, 64
1, 48419, Note_off_c, 4, 59, 64
1, 48419, Note_off_c, 4, 55, 64
1, 48420, Control_c, 0, 74, 102
1, 48420, Note_on_c, 0, 62, 78
1, 48420, Note_on_c, 0, 67, 100
1, 48420, Note_on_c, 0, 71, 46
1, 48420, Control_c, 4, 74, 102
1, 48420, Note_on_c, 4, 43, 109
1, 48420, Note_on_c, 4, 50, 109
1, 48420, Note_on_c, 5, 59, 98
1, 48420, Note_on_c, 5, 71, 98
1, 48420, Control_c, 12, 74, 95
1, 48420, Control_c, 12, 11, 66
1, 48435, Control_c, 0, 74, 104
1, 48435, Control_c, 4, 74, 104
1, 48435, Control_c, 12, 74, 98
1, 48435, Control_c, 12, 11, 68
1, 48440, Control_c, 5, 10, 12
1, 48449, Note_off_c, 5, 71, 64
1, 48449, Note_off_c, 5, 59, 64
1, 48449, Note_off_c, 4, 43, 64
1, 48449, Note_off_c, 0, 62, 64
1, 48449, Note_off_c, 0, 67, 64
1, 48449, Note_off_c, 0, 71, 64
1, 48449, Note_off_c, 4, 50, 64
1, 48450, Control_c, 0, 74, 105
1, 48450, Note_on_c, 0, 59, 45
1, 48450, Note_on_c, 0, 62, 73
1, 48450, Note_on_c, 0, 67, 86
1, 48450, Control_c, 4, 74, 105
1, 48450, Note_on_c, 4, 43, 101
1, 48450, Note_on_c, 4, 52, 116
1, 48450, Note_on_c, 5, 57, 94
1, 48450, Note_on_c, 5, 69, 94
1, 48450, Control_c, 12, 74, 100
1, 48450, Control_c, 12, 11, 71
1, 48465, Control_c, 0, 74, 106
1, 48465, Control_c, 4, 74, 106
1, 48465, Control_c, 12, 74, 103
1, 48465, Control_c, 12, 11, 73
1, 48474, Control_c, 4, 91, 30
1, 48474, Control_c, 5, 91, 60
1, 48479, Note_off_c, 5, 69, 64
1, 48479, Note_off_c, 5, 57, 64
1, 48479, Note_off_c, 4, 43, 64
1, 48479, Note_off_c, 0, 59, 64
1, 48479, Note_off_c, 0, 62, 64
1, 48479, Note_off_c, 0, 67, 64
1, 48479, Note_off_c, 4, 52, 64
1, 48480, Control_c, 0, 74, 108
1, 48480, Note_on_c, 0, 54, 35
1, 48480, Note_on_c, 0, 57, 85
1, 48480, Note_on_c, 0, 62, 79
1, 48480, Control_c, 4, 74, 108
1, 48480, Note_on_c, 4, 45, 90
1, 48480, Note_on_c, 4, 50, 105
1, 48480, Control_c, 5, 10, 64
1, 48480, Control_c, 12, 74, 105
1, 48480, Control_c, 12, 11, 75
1, 48495, Control_c, 0, 74, 109
1, 48495, Control_c, 4, 74, 109
1, 48495, Control_c, 12, 74, 108
1, 48495, Control_c, 12, 11, 77
1, 48510, Control_c, 0, 74, 111
1, 48510, Control_c, 4, 74, 111
1, 48510, Control_c, 12, 74, 111
1, 48510, Control_c, 12, 11, 80
1, 48525, Control_c, 0, 74, 112
1, 48525, Control_c, 4, 74, 112
1, 48525, Control_c, 12, 74, 113
1, 48525, Control_c, 12, 11, 82
1, 48539, Note_off_c, 4, 50, 64
1, 48539, Note_off_c, 0, 54, 64
1, 48539, Note_off_c, 0, 57, 64
1, 48539, Note_off_c, 0, 62, 64
1, 48539, Note_off_c, 4, 45, 64
1, 48540, Control_c, 0, 74, 114
1, 48540, Note_on_c, 0, 57, 69
1, 48540, Note_on_c, 0, 62, 98
1, 48540, Note_on_c, 0, 66, 74
1, 48540, Control_c, 4, 74, 114
1, 48540, Note_on_c, 4, 45, 100
1, 48540, Note_on_c, 4, 50, 111
1, 48540, Note_on_c, 4, 54, 89
1, 48540, Control_c, 12, 74, 116
1, 48540, Control_c, 12, 11, 84
1, 48555, Control_c, 0, 74, 115
1, 48555, Control_c, 4, 74, 115
1, 48555, Control_c, 12, 74, 119
1, 48555, Control_c, 12, 11, 86
1, 48570, Control_c, 0, 74, 116
1, 48570, Control_c, 4, 74, 116
1, 48570, Control_c, 12, 74, 121
1, 48570, Control_c, 12, 11, 88
1, 48585, Control_c, 0, 74, 118
1, 48585, Control_c, 4, 74, 118
1, 48585, Control_c, 12, 74, 124
1, 48585, Control_c, 12, 11, 91
1, 48600, Control_c, 0, 74, 119
1, 48600, Control_c, 4, 74, 119
1, 48600, Control_c, 12, 74, 127
1, 48600, Control_c, 12, 11, 93
1, 48615, Control_c, 0, 74, 121
1, 48615, Control_c, 4, 74, 121
1, 48615, Control_c, 12, 11, 95
1, 48629, Note_off_c, 4, 54, 64
1, 48629, Note_off_c, 4, 45, 64
1, 48629, Note_off_c, 0, 57, 64
1, 48629, Note_off_c, 0, 62, 64
1, 48629, Note_off_c, 0, 66, 64
1, 48629, Note_off_c, 4, 50, 64
1, 48630, Control_c, 0, 74, 122
1, 48630, Note_on_c, 0, 54, 44
1, 48630, Note_on_c, 0, 57, 78
1, 48630, Note_on_c, 0, 62, 58
1, 48630, Control_c, 4, 74, 122
1, 48630, Note_on_c, 4, 45, 85
1, 48630, Note_on_c, 4, 50, 105
1, 48630, Note_on_c, 4, 54, 81
1, 48630, Control_c, 12, 11, 97
1, 48645, Control_c, 0, 74, 124
1, 48645, Control_c, 4, 74, 124
1, 48645, Control_c, 12, 11, 100
1, 48659, Note_off_c, 4, 54, 64
1, 48659, Note_off_c, 4, 45, 64
1, 48659, Note_off_c, 0, 54, 64
1, 48659, Note_off_c, 0, 57, 64
1, 48659, Note_off_c, 0, 62, 64
1, 48659, Note_off_c, 4, 50, 64
1, 48660, Control_c, 0, 74, 125
1, 48660, Note_on_c, 0, 57, 57
1, 48660, Note_on_c, 0, 62, 91
1, 48660, Note_on_c, 0, 66, 77
1, 48660, Control_c, 4, 74, 125
1, 48660, Note_on_c, 4, 50, 109
1, 48660, Note_on_c, 4, 54, 89
1, 48660, Note_on_c, 4, 57, 109
1, 48660, Control_c, 12, 11, 102
1, 48675, Control_c, 0, 74, 127
1, 48675, Control_c, 4, 74, 127
1, 48675, Control_c, 12, 11, 104
1, 48689, Note_off_c, 4, 57, 64
1, 48689, Note_off_c, 4, 50, 64
1, 48689, Note_off_c, 0, 57, 64
1, 48689, Note_off_c, 0, 62, 64
1, 48689, Note_off_c, 0, 66, 64
1, 48689, Note_off_c, 4, 54, 64
1, 48690, Note_on_c, 0, 54, 35
1, 48690, Note_on_c, 0, 57, 79
1, 48690, Note_on_c, 0, 62, 56
1, 48690, Note_on_c, 4, 50, 111
1, 48690, Note_on_c, 4, 54, 100
1, 48690, Note_on_c, 4, 57, 100
1, 48690, Control_c, 12, 11, 106
1, 48705, Control_c, 12, 11, 109
1, 48719, Note_off_c, 4, 57, 64
1, 48719, Note_off_c, 4, 50, 64
1, 48719, Note_off_c, 0, 54, 64
1, 48719, Note_off_c, 0, 57, 64
1, 48719, Note_off_c, 0, 62, 64
1, 48719, Note_off_c, 4, 54, 64
1, 48720, Note_on_c, 10, 72, 120
1, 48720, Control_c, 12, 11, 111
1, 48735, Control_c, 12, 11, 113
1, 48750, Control_c, 12, 11, 115
1, 48765, Control_c, 12, 11, 118
1, 48780, Control_c, 12, 11, 120
1, 48795, Control_c, 12, 11, 122
1, 48810, Control_c, 12, 11, 124
1, 48825, Control_c, 12, 11, 127
1, 48839, Note_off_c, 10, 72, 64
1, 48839, Note_off_c, 12, 60, 64
1, 48900, Note_on_c, 5, 62, 103
1, 48900, Note_on_c, 5, 74, 105
1, 48900, Note_on_c, 6, 62, 120
1, 48900, Note_on_c, 6, 74, 120
1, 48900, Note_on_c, 9, 35, 111
1, 48900, Note_on_c, 9, 39, 111
1, 48950, Note_off_c, 6, 74, 64
1, 48950, Note_off_c, 5, 74, 64
1, 48957, Note_off_c, 5, 62, 64
1, 48957, Note_off_c, 6, 62, 64
1, 48960, Note_on_c, 0, 59, 58
1, 48960, Note_on_c, 0, 62, 91
1, 48960, Note_on_c, 4, 47, 85
1, 48960, Note_on_c, 4, 54, 120
1, 48960, Control_c, 4, 91, 127
1, 48960, Note_on_c, 5, 59, 120
1, 48960, Note_on_c, 5, 71, 120
1, 48960, Control_c, 5, 91, 127
1, 48960, Control_c, 5, 10, 115
1, 48960, Note_on_c, 6, 71, 120
1, 48960, Note_on_c, 9, 35, 98
1, 48960, Note_on_c, 9, 40, 109
1, 48975, Control_c, 0, 74, 27
1, 48975, Control_c, 4, 74, 27
1, 48989, Note_off_c, 9, 40, 64
1, 48989, Note_off_c, 9, 35, 64
1, 49000, Control_c, 5, 10, 34
1, 49019, Note_off_c, 0, 62, 64
1, 49019, Note_off_c, 5, 71, 64
1, 49019, Note_off_c, 4, 47, 64
1, 49019, Note_off_c, 4, 54, 64
1, 49019, Note_off_c, 0, 59, 64
1, 49019, Note_off_c, 6, 71, 64
1, 49019, Note_off_c, 5, 59, 64
1, 49020, Note_on_c, 0, 59, 79
1, 49020, Note_on_c, 0, 62, 95
1, 49020, Note_on_c, 0, 66, 74
1, 49020, Note_on_c, 4, 50, 92
1, 49020, Note_on_c, 4, 54, 87
1, 49020, Note_on_c, 4, 62, 95
1, 49040, Control_c, 5, 10, 94
1, 49077, Control_c, 0, 74, 28
1, 49077, Control_c, 4, 74, 28
1, 49080, Note_on_c, 5, 59, 120
1, 49080, Note_on_c, 5, 71, 120
1, 49080, Control_c, 5, 10, 12
1, 49080, Note_on_c, 6, 71, 120
1, 49080, Note_on_c, 9, 35, 94
1, 49080, Note_on_c, 9, 40, 107
1, 49109, Note_off_c, 9, 40, 64
1, 49109, Note_off_c, 9, 35, 64
1, 49109, Note_off_c, 4, 54, 64
1, 49109, Note_off_c, 0, 62, 64
1, 49109, Note_off_c, 0, 59, 64
1, 49109, Note_off_c, 4, 62, 64
1, 49109, Note_off_c, 4, 50, 64
1, 49109, Note_off_c, 0, 66, 64
1, 49110, Note_on_c, 0, 59, 71
1, 49110, Note_on_c, 0, 62, 91
1, 49110, Note_on_c, 0, 66, 60
1, 49110, Note_on_c, 4, 54, 109
1, 49110, Note_on_c, 4, 59, 95
1, 49120, Control_c, 5, 10, 115
1, 49128, Control_c, 0, 74, 29
1, 49128, Control_c, 4, 74, 29
1, 49139, Note_off_c, 4, 59, 64
1, 49139, Note_off_c, 6, 71, 64
1, 49139, Note_off_c, 5, 71, 64
1, 49139, Note_off_c, 9, 35, 64
1, 49139, Note_off_c, 5, 59, 64
1, 49139, Note_off_c, 9, 39, 64
1, 49139, Note_off_c, 0, 66, 64
1, 49139, Note_off_c, 0, 62, 64
1, 49139, Note_off_c, 0, 59, 64
1, 49139, Note_off_c, 4, 54, 64
1, 49140, Note_on_c, 0, 62, 80
1, 49140, Note_on_c, 0, 66, 62
1, 49140, Note_on_c, 0, 71, 91
1, 49140, Note_on_c, 4, 50, 103
1, 49140, Note_on_c, 4, 54, 115
1, 49160, Control_c, 5, 10, 34
1, 49169, Note_off_c, 4, 54, 64
1, 49169, Note_off_c, 0, 71, 64
1, 49169, Note_off_c, 0, 62, 64
1, 49169, Note_off_c, 0, 66, 64
1, 49169, Note_off_c, 4, 50, 64
1, 49170, Note_on_c, 0, 59, 51
1, 49170, Note_on_c, 0, 62, 85
1, 49170, Note_on_c, 0, 66, 59
1, 49170, Note_on_c, 4, 47, 92
1, 49170, Note_on_c, 4, 52, 98
1, 49170, Note_on_c, 5, 57, 98
1, 49170, Note_on_c, 5, 69, 98
1, 49170, Note_on_c, 6, 69, 120
1, 49179, Control_c, 0, 74, 30
1, 49179, Control_c, 4, 74, 30
1, 49199, Note_off_c, 6, 69, 64
1, 49199, Note_off_c, 0, 59, 64
1, 49199, Note_off_c, 4, 52, 64
1, 49199, Note_off_c, 0, 62, 64
1, 49199, Note_off_c, 0, 66, 64
1, 49199, Note_off_c, 4, 47, 64
1, 49199, Note_off_c, 5, 57, 64
1, 49199, Note_off_c, 5, 69, 64
1, 49200, Note_on_c, 0, 55, 74
1, 49200, Note_on_c, 0, 59, 94
1, 49200, Note_on_c, 0, 62, 91
1, 49200, Note_on_c, 4, 43, 98
1, 49200, Note_on_c, 4, 50, 116
1, 49200, Note_on_c, 5, 59, 98
1, 49200, Note_on_c, 5, 71, 98
1, 49200, Control_c, 5, 10, 94
1, 49200, Note_on_c, 6, 71, 120
1, 49200, Note_on_c, 9, 35, 97
1, 49200, Note_on_c, 9, 40, 105
1, 49229, Note_off_c, 9, 40, 64
1, 49229, Note_off_c, 9, 35, 64
1, 49229, Note_off_c, 5, 71, 64
1, 49229, Note_off_c, 6, 71, 64
1, 49229, Note_off_c, 5, 59, 64
1, 49230, Control_c, 0, 74, 31
1, 49230, Control_c, 4, 74, 31
1, 49230, Note_on_c, 5, 62, 54
1, 49230, Note_on_c, 5, 74, 54
1, 49230, Note_on_c, 6, 74, 120
1, 49240, Control_c, 5, 10, 12
1, 49259, Note_off_c, 6, 74, 64
1, 49259, Note_off_c, 0, 62, 64
1, 49259, Note_off_c, 0, 59, 64
1, 49259, Note_off_c, 4, 50, 64
1, 49259, Note_off_c, 4, 43, 64
1, 49259, Note_off_c, 0, 55, 64
1, 49259, Note_off_c, 5, 62, 64
1, 49259, Note_off_c, 5, 74, 64
1, 49260, Note_on_c, 0, 59, 70
1, 49260, Note_on_c, 0, 62, 94
1, 49260, Note_on_c, 0, 67, 101
1, 49260, Note_on_c, 4, 50, 79
1, 49260, Note_on_c, 4, 55, 111
1, 49260, Note_on_c, 4, 59, 100
1, 49260, Note_on_c, 5, 59, 116
1, 49260, Note_on_c, 5, 71, 116
1, 49260, Note_on_c, 6, 71, 120
1, 49280, Control_c, 5, 10, 115
1, 49281, Control_c, 0, 74, 32
1, 49281, Control_c, 4, 74, 32
1, 49319, Note_off_c, 6, 71, 64
1, 49319, Note_off_c, 5, 71, 64
1, 49319, Note_off_c, 5, 59, 64
1, 49320, Control_c, 5, 10, 34
1, 49320, Note_on_c, 9, 35, 97
1, 49320, Note_on_c, 9, 40, 111
1, 49332, Control_c, 0, 74, 33
1, 49332, Control_c, 4, 74, 33
1, 49349, Note_off_c, 9, 40, 64
1, 49349, Note_off_c, 4, 50, 64
1, 49349, Note_off_c, 4, 59, 64
1, 49349, Note_off_c, 0, 62, 64
1, 49349, Note_off_c, 0, 67, 64
1, 49349, Note_off_c, 0, 59, 64
1, 49349, Note_off_c, 4, 55, 64
1, 49349, Note_off_c, 9, 35, 64
1, 49350, Note_on_c, 0, 59, 52
1, 49350, Note_on_c, 0, 62, 85
1, 49350, Note_on_c, 0, 67, 94
1, 49350, Note_on_c, 4, 50, 82
1, 49350, Note_on_c, 4, 55, 98
1, 49350, Note_on_c, 4, 59, 85
1, 49350, Note_on_c, 5, 57, 83
1, 49350, Note_on_c, 5, 69, 83
1, 49350, Note_on_c, 6, 69, 120
1, 49360, Control_c, 5, 10, 94
1, 49379, Note_off_c, 6, 69, 64
1, 49379, Note_off_c, 4, 50, 64
1, 49379, Note_off_c, 0, 59, 64
1, 49379, Note_off_c, 4, 55, 64
1, 49379, Note_off_c, 0, 62, 64
1, 49379, Note_off_c, 0, 67, 64
1, 49379, Note_off_c, 5, 57, 64
1, 49379, Note_off_c, 4, 59, 64
1, 49379, Note_off_c, 5, 69, 64
1, 49380, Note_on_c, 0, 62, 78
1, 49380, Note_on_c, 0, 67, 100
1, 49380, Note_on_c, 0, 71, 46
1, 49380, Note_on_c, 4, 43, 109
1, 49380, Note_on_c, 4, 50, 109
1, 49380, Note_on_c, 5, 59, 98
1, 49380, Note_on_c, 5, 71, 98
1, 49380, Note_on_c, 6, 71, 120
1, 49383, Control_c, 0, 74, 34
1, 49383, Control_c, 4, 74, 34
1, 49400, Control_c, 5, 10, 12
1, 49409, Note_off_c, 6, 71, 64
1, 49409, Note_off_c, 0, 62, 64
1, 49409, Note_off_c, 4, 50, 64
1, 49409, Note_off_c, 0, 67, 64
1, 49409, Note_off_c, 0, 71, 64
1, 49409, Note_off_c, 4, 43, 64
1, 49409, Note_off_c, 5, 59, 64
1, 49409, Note_off_c, 5, 71, 64
1, 49410, Note_on_c, 0, 59, 45
1, 49410, Note_on_c, 0, 62, 73
1, 49410, Note_on_c, 0, 67, 86
1, 49410, Note_on_c, 4, 43, 101
1, 49410, Note_on_c, 4, 52, 116
1, 49410, Note_on_c, 5, 57, 94
1, 49410, Note_on_c, 5, 69, 94
1, 49410, Note_on_c, 6, 69, 120
1, 49434, Control_c, 0, 74, 35
1, 49434, Control_c, 4, 74, 35
1, 49439, Note_off_c, 6, 69, 64
1, 49439, Note_off_c, 0, 59, 64
1, 49439, Note_off_c, 4, 52, 64
1, 49439, Note_off_c, 0, 62, 64
1, 49439, Note_off_c, 0, 67, 64
1, 49439, Note_off_c, 4, 43, 64
1, 49439, Note_off_c, 5, 57, 64
1, 49439, Note_off_c, 5, 69, 64
1, 49440, Note_on_c, 0, 54, 35
1, 49440, Note_on_c, 0, 57, 85
1, 49440, Note_on_c, 0, 62, 79
1, 49440, Note_on_c, 4, 45, 90
1, 49440, Note_on_c, 4, 50, 105
1, 49440, Note_on_c, 5, 62, 120
1, 49440, Note_on_c, 5, 74, 120
1, 49440, Control_c, 5, 10, 115
1, 49440, Note_on_c, 6, 74, 120
1, 49440, Note_on_c, 9, 35, 98
1, 49440, Note_on_c, 9, 40, 111
1, 49469, Note_off_c, 9, 40, 64
1, 49469, Note_off_c, 9, 35, 64
1, 49480, Control_c, 5, 10, 34
1, 49485, Control_c, 0, 74, 36
1, 49485, Control_c, 4, 74, 36
1, 49499, Note_off_c, 4, 45, 64
1, 49499, Note_off_c, 0, 54, 64
1, 49499, Note_off_c, 4, 50, 64
1, 49499, Note_off_c, 0, 57, 64
1, 49499, Note_off_c, 6, 74, 64
1, 49499, Note_off_c, 5, 74, 64
1, 49499, Note_off_c, 5, 62, 64
1, 49499, Note_off_c, 0, 62, 64
1, 49500, Note_on_c, 0, 57, 69
1, 49500, Note_on_c, 0, 62, 98
1, 49500, Note_on_c, 0, 66, 74
1, 49500, Note_on_c, 4, 45, 100
1, 49500, Note_on_c, 4, 50, 111
1, 49500, Note_on_c, 4, 54, 89
1, 49520, Control_c, 5, 10, 94
1, 49536, Control_c, 0, 74, 37
1, 49536, Control_c, 4, 74, 37
1, 49560, Note_on_c, 5, 62, 120
1, 49560, Note_on_c, 5, 74, 120
1, 49560, Control_c, 5, 10, 12
1, 49560, Note_on_c, 6, 74, 120
1, 49560, Note_on_c, 9, 35, 101
1, 49560, Note_on_c, 9, 40, 105
1, 49587, Control_c, 0, 74, 38
1, 49587, Control_c, 4, 74, 38
1, 49589, Note_off_c, 9, 40, 64
1, 49589, Note_off_c, 4, 45, 64
1, 49589, Note_off_c, 0, 66, 64
1, 49589, Note_off_c, 9, 35, 64
1, 49589, Note_off_c, 0, 57, 64
1, 49589, Note_off_c, 4, 54, 64
1, 49589, Note_off_c, 0, 62, 64
1, 49589, Note_off_c, 4, 50, 64
1, 49590, Note_on_c, 0, 54, 44
1, 49590, Note_on_c, 0, 57, 78
1, 49590, Note_on_c, 0, 62, 58
1, 49590, Note_on_c, 4, 45, 85
1, 49590, Note_on_c, 4, 50, 105
1, 49590, Note_on_c, 4, 54, 81
1, 49600, Control_c, 5, 10, 115
1, 49619, Note_off_c, 4, 54, 64
1, 49619, Note_off_c, 0, 54, 64
1, 49619, Note_off_c, 5, 62, 64
1, 49619, Note_off_c, 0, 57, 64
1, 49619, Note_off_c, 5, 74, 64
1, 49619, Note_off_c, 6, 74, 64
1, 49619, Note_off_c, 4, 45, 64
1, 49619, Note_off_c, 0, 62, 64
1, 49619, Note_off_c, 4, 50, 64
1, 49620, Note_on_c, 0, 57, 57
1, 49620, Note_on_c, 0, 62, 91
1, 49620, Note_on_c, 0, 66, 77
1, 49620, Note_on_c, 4, 50, 109
1, 49620, Note_on_c, 4, 54, 89
1, 49620, Note_on_c, 4, 57, 109
1, 49638, Control_c, 0, 74, 39
1, 49638, Control_c, 4, 74, 39
1, 49640, Control_c, 5, 10, 34
1, 49649, Note_off_c, 4, 57, 64
1, 49649, Note_off_c, 0, 62, 64
1, 49649, Note_off_c, 0, 66, 64
1, 49649, Note_off_c, 0, 57, 64
1, 49649, Note_off_c, 4, 54, 64
1, 49649, Note_off_c, 4, 50, 64
1, 49650, Note_on_c, 0, 54, 35
1, 49650, Note_on_c, 0, 57, 79
1, 49650, Note_on_c, 0, 62, 56
1, 49650, Note_on_c, 4, 50, 111
1, 49650, Note_on_c, 4, 54, 100
1, 49650, Note_on_c, 4, 57, 100
1, 49650, Note_on_c, 5, 62, 89
1, 49650, Note_on_c, 5, 74, 89
1, 49650, Note_on_c, 6, 74, 120
1, 49679, Note_off_c, 6, 74, 64
1, 49679, Note_off_c, 4, 50, 64
1, 49679, Note_off_c, 0, 54, 64
1, 49679, Note_off_c, 4, 54, 64
1, 49679, Note_off_c, 0, 57, 64
1, 49679, Note_off_c, 0, 62, 64
1, 49679, Note_off_c, 5, 62, 64
1, 49679, Note_off_c, 4, 57, 64
1, 49679, Note_off_c, 5, 74, 64
1, 49680, Note_on_c, 0, 54, 49
1, 49680, Note_on_c, 0, 57, 85
1, 49680, Note_on_c, 0, 62, 75
1, 49680, Note_on_c, 4, 45, 105
1, 49680, Note_on_c, 4, 50, 116
1, 49680, Note_on_c, 5, 64, 81
1, 49680, Note_on_c, 5, 76, 81
1, 49680, Control_c, 5, 10, 94
1, 49680, Note_on_c, 6, 76, 120
1, 49680, Note_on_c, 9, 35, 101
1, 49680, Note_on_c, 9, 40, 85
1, 49689, Control_c, 0, 74, 40
1, 49689, Control_c, 4, 74, 40
1, 49709, Note_off_c, 9, 40, 64
1, 49709, Note_off_c, 9, 35, 64
1, 49709, Note_off_c, 5, 76, 64
1, 49709, Note_off_c, 6, 76, 64
1, 49709, Note_off_c, 5, 64, 64
1, 49710, Note_on_c, 5, 62, 95
1, 49710, Note_on_c, 5, 74, 95
1, 49710, Note_on_c, 6, 74, 120
1, 49720, Control_c, 5, 10, 12
1, 49739, Note_off_c, 6, 74, 64
1, 49739, Note_off_c, 0, 62, 64
1, 49739, Note_off_c, 0, 57, 64
1, 49739, Note_off_c, 4, 50, 64
1, 49739, Note_off_c, 4, 45, 64
1, 49739, Note_off_c, 0, 54, 64
1, 49739, Note_off_c, 5, 62, 64
1, 49739, Note_off_c, 5, 74, 64
1, 49740, Control_c, 0, 74, 41
1, 49740, Note_on_c, 0, 57, 56
1, 49740, Note_on_c, 0, 62, 84
1, 49740, Note_on_c, 0, 66, 49
1, 49740, Control_c, 4, 74, 41
1, 49740, Note_on_c, 4, 50, 105
1, 49740, Note_on_c, 4, 54, 115
1, 49740, Note_on_c, 5, 64, 111
1, 49740, Note_on_c, 5, 76, 111
1, 49740, Note_on_c, 6, 76, 120
1, 49760, Control_c, 5, 10, 115
1, 49769, Note_off_c, 4, 54, 64
1, 49769, Note_off_c, 4, 50, 64
1, 49769, Note_off_c, 0, 57, 64
1, 49769, Note_off_c, 0, 66, 64
1, 49769, Note_off_c, 0, 62, 64
1, 49770, Note_on_c, 0, 57, 84
1, 49770, Note_on_c, 0, 62, 94
1, 49770, Note_on_c, 0, 66, 76
1, 49770, Note_on_c, 4, 50, 100
1, 49770, Note_on_c, 4, 54, 92
1, 49791, Control_c, 0, 74, 42
1, 49791, Control_c, 4, 74, 42
1, 49791, Pitch_bend_c, 5, 7749
1, 49793, Pitch_bend_c, 5, 6215
1, 49796, Pitch_bend_c, 5, 4197
1, 49798, Pitch_bend_c, 5, 2422
1, 49799, Note_off_c, 4, 54, 64
1, 49799, Note_off_c, 5, 64, 64
1, 49799, Note_off_c, 0, 62, 64
1, 49799, Note_off_c, 5, 76, 64
1, 49799, Note_off_c, 6, 76, 64
1, 49799, Note_off_c, 0, 57, 64
1, 49799, Note_off_c, 0, 66, 64
1, 49799, Note_off_c, 4, 50, 64
1, 49800, Note_on_c, 0, 52, 47
1, 49800, Note_on_c, 0, 57, 89
1, 49800, Note_on_c, 0, 61, 52
1, 49800, Note_on_c, 4, 45, 101
1, 49800, Note_on_c, 4, 52, 101
1, 49800, Note_on_c, 5, 66, 119
1, 49800, Note_on_c, 5, 78, 119
1, 49800, Control_c, 5, 10, 34
1, 49800, Note_on_c, 6, 78, 120
1, 49800, Note_on_c, 9, 35, 105
1, 49800, Note_on_c, 9, 40, 100
1, 49801, Pitch_bend_c, 5, 1211
1, 49803, Pitch_bend_c, 5, 646
1, 49806, Pitch_bend_c, 5, 565
1, 49808, Pitch_bend_c, 5, 646
1, 49811, Pitch_bend_c, 5, 1373
1, 49813, Pitch_bend_c, 5, 2260
1, 49816, Pitch_bend_c, 5, 3471
1, 49818, Pitch_bend_c, 5, 5085
1, 49821, Pitch_bend_c, 5, 6942
1, 49823, Pitch_bend_c, 5, 8071
1, 49826, Pitch_bend_c, 5, 8192
1, 49829, Note_off_c, 9, 40, 64
1, 49829, Note_off_c, 9, 35, 64
1, 49840, Control_c, 5, 10, 94
1, 49842, Control_c, 0, 74, 43
1, 49842, Control_c, 4, 74, 43
1, 49859, Note_off_c, 4, 45, 64
1, 49859, Note_off_c, 0, 52, 64
1, 49859, Note_off_c, 4, 52, 64
1, 49859, Note_off_c, 0, 57, 64
1, 49859, Note_off_c, 6, 78, 64
1, 49859, Note_off_c, 5, 78, 64
1, 49859, Note_off_c, 5, 66, 64
1, 49859, Note_off_c, 0, 61, 64
1, 49860, Note_on_c, 0, 57, 51
1, 49860, Note_on_c, 0, 61, 52
1, 49860, Note_on_c, 0, 64, 78
1, 49860, Note_on_c, 4, 49, 89
1, 49860, Note_on_c, 4, 52, 101
1, 49860, Note_on_c, 4, 57, 89
1, 49860, Note_on_c, 5, 62, 98
1, 49860, Note_on_c, 5, 74, 98
1, 49860, Note_on_c, 6, 74, 120
1, 49880, Control_c, 5, 10, 12
1, 49889, Note_off_c, 4, 57, 64
1, 49889, Note_off_c, 4, 49, 64
1, 49889, Note_off_c, 0, 57, 64
1, 49889, Note_off_c, 0, 64, 64
1, 49889, Note_off_c, 0, 61, 64
1, 49889, Note_off_c, 4, 52, 64
1, 49890, Note_on_c, 0, 57, 73
1, 49890, Note_on_c, 0, 61, 52
1, 49890, Note_on_c, 0, 64, 83
1, 49890, Note_on_c, 4, 49, 119
1, 49890, Note_on_c, 4, 52, 118
1, 49890, Note_on_c, 4, 57, 105
1, 49893, Control_c, 0, 74, 44
1, 49893, Control_c, 4, 74, 44
1, 49919, Note_off_c, 4, 57, 64
1, 49919, Note_off_c, 0, 57, 64
1, 49919, Note_off_c, 5, 62, 64
1, 49919, Note_off_c, 0, 61, 64
1, 49919, Note_off_c, 5, 74, 64
1, 49919, Note_off_c, 6, 74, 64
1, 49919, Note_off_c, 4, 49, 64
1, 49919, Note_off_c, 0, 64, 64
1, 49919, Note_off_c, 4, 52, 64
1, 49920, Note_on_c, 0, 59, 58
1, 49920, Note_on_c, 0, 62, 91
1, 49920, Note_on_c, 4, 47, 85
1, 49920, Note_on_c, 4, 54, 120
1, 49920, Note_on_c, 5, 59, 105
1, 49920, Note_on_c, 5, 71, 105
1, 49920, Control_c, 5, 10, 115
1, 49920, Note_on_c, 6, 71, 120
1, 49920, Note_on_c, 9, 35, 105
1, 49920, Note_on_c, 9, 40, 100
1, 49944, Control_c, 0, 74, 45
1, 49944, Control_c, 4, 74, 45
1, 49949, Note_off_c, 9, 40, 64
1, 49949, Note_off_c, 9, 35, 64
1, 49960, Control_c, 5, 10, 34
1, 49979, Note_off_c, 0, 59, 64
1, 49979, Note_off_c, 5, 59, 64
1, 49979, Note_off_c, 0, 62, 64
1, 49979, Note_off_c, 4, 47, 64
1, 49979, Note_off_c, 6, 71, 64
1, 49979, Note_off_c, 5, 71, 64
1, 49979, Note_off_c, 4, 54, 64
1, 49980, Note_on_c, 0, 59, 79
1, 49980, Note_on_c, 0, 62, 95
1, 49980, Note_on_c, 0, 66, 74
1, 49980, Note_on_c, 4, 50, 92
1, 49980, Note_on_c, 4, 54, 87
1, 49980, Note_on_c, 4, 62, 95
1, 49995, Control_c, 0, 74, 46
1, 49995, Control_c, 4, 74, 46
1, 50000, Control_c, 5, 10, 94
1, 50040, Note_on_c, 5, 59, 119
1, 50040, Note_on_c, 5, 71, 119
1, 50040, Control_c, 5, 10, 12
1, 50040, Note_on_c, 6, 71, 120
1, 50040, Note_on_c, 9, 35, 105
1, 50040, Note_on_c, 9, 40, 98
1, 50046, Control_c, 0, 74, 47
1, 50046, Control_c, 4, 74, 47
1, 50069, Note_off_c, 9, 40, 64
1, 50069, Note_off_c, 4, 50, 64
1, 50069, Note_off_c, 0, 66, 64
1, 50069, Note_off_c, 9, 35, 64
1, 50069, Note_off_c, 0, 59, 64
1, 50069, Note_off_c, 4, 62, 64
1, 50069, Note_off_c, 0, 62, 64
1, 50069, Note_off_c, 4, 54, 64
1, 50070, Note_on_c, 0, 59, 71
1, 50070, Note_on_c, 0, 62, 91
1, 50070, Note_on_c, 0, 66, 60
1, 50070, Note_on_c, 4, 54, 109
1, 50070, Note_on_c, 4, 59, 95
1, 50080, Control_c, 5, 10, 115
1, 50097, Control_c, 0, 74, 48
1, 50097, Control_c, 4, 74, 48
1, 50099, Note_off_c, 4, 59, 64
1, 50099, Note_off_c, 5, 59, 64
1, 50099, Note_off_c, 0, 62, 64
1, 50099, Note_off_c, 5, 71, 64
1, 50099, Note_off_c, 6, 71, 64
1, 50099, Note_off_c, 0, 59, 64
1, 50099, Note_off_c, 0, 66, 64
1, 50099, Note_off_c, 4, 54, 64
1, 50100, Note_on_c, 0, 62, 80
1, 50100, Note_on_c, 0, 66, 62
1, 50100, Note_on_c, 0, 71, 91
1, 50100, Note_on_c, 4, 50, 103
1, 50100, Note_on_c, 4, 54, 115
1, 50120, Control_c, 5, 10, 34
1, 50129, Note_off_c, 4, 54, 64
1, 50129, Note_off_c, 0, 71, 64
1, 50129, Note_off_c, 0, 62, 64
1, 50129, Note_off_c, 0, 66, 64
1, 50129, Note_off_c, 4, 50, 64
1, 50130, Note_on_c, 0, 59, 51
1, 50130, Note_on_c, 0, 62, 85
1, 50130, Note_on_c, 0, 66, 59
1, 50130, Note_on_c, 4, 47, 92
1, 50130, Note_on_c, 4, 52, 98
1, 50130, Note_on_c, 5, 57, 91
1, 50130, Note_on_c, 5, 69, 91
1, 50130, Note_on_c, 6, 69, 120
1, 50148, Control_c, 0, 74, 49
1, 50148, Control_c, 4, 74, 49
1, 50159, Note_off_c, 6, 69, 64
1, 50159, Note_off_c, 0, 59, 64
1, 50159, Note_off_c, 4, 52, 64
1, 50159, Note_off_c, 0, 62, 64
1, 50159, Note_off_c, 0, 66, 64
1, 50159, Note_off_c, 4, 47, 64
1, 50159, Note_off_c, 5, 57, 64
1, 50159, Note_off_c, 5, 69, 64
1, 50160, Note_on_c, 0, 55, 74
1, 50160, Note_on_c, 0, 59, 94
1, 50160, Note_on_c, 0, 62, 91
1, 50160, Note_on_c, 4, 43, 98
1, 50160, Note_on_c, 4, 50, 116
1, 50160, Note_on_c, 5, 59, 97
1, 50160, Note_on_c, 5, 71, 97
1, 50160, Control_c, 5, 10, 94
1, 50160, Note_on_c, 6, 71, 120
1, 50160, Note_on_c, 9, 35, 101
1, 50160, Note_on_c, 9, 40, 98
1, 50189, Note_off_c, 9, 40, 64
1, 50189, Note_off_c, 9, 35, 64
1, 50189, Note_off_c, 5, 71, 64
1, 50189, Note_off_c, 6, 71, 64
1, 50189, Note_off_c, 5, 59, 64
1, 50190, Note_on_c, 5, 62, 80
1, 50190, Note_on_c, 5, 74, 80
1, 50190, Note_on_c, 6, 74, 120
1, 50199, Control_c, 0, 74, 50
1, 50199, Control_c, 4, 74, 50
1, 50200, Control_c, 5, 10, 12
1, 50219, Note_off_c, 6, 74, 64
1, 50219, Note_off_c, 0, 62, 64
1, 50219, Note_off_c, 0, 59, 64
1, 50219, Note_off_c, 4, 50, 64
1, 50219, Note_off_c, 4, 43, 64
1, 50219, Note_off_c, 0, 55, 64
1, 50219, Note_off_c, 5, 62, 64
1, 50219, Note_off_c, 5, 74, 64
1, 50220, Note_on_c, 0, 59, 70
1, 50220, Note_on_c, 0, 62, 94
1, 50220, Note_on_c, 0, 67, 101
1, 50220, Note_on_c, 4, 50, 79
1, 50220, Note_on_c, 4, 55, 111
1, 50220, Note_on_c, 4, 59, 100
1, 50220, Note_on_c, 5, 59, 113
1, 50220, Note_on_c, 5, 71, 113
1, 50220, Note_on_c, 6, 71, 120
1, 50240, Control_c, 5, 10, 115
1, 50250, Control_c, 0, 74, 51
1, 50250, Control_c, 4, 74, 51
1, 50279, Note_off_c, 6, 71, 64
1, 50279, Note_off_c, 5, 71, 64
1, 50279, Note_off_c, 5, 59, 64
1, 50280, Control_c, 5, 10, 34
1, 50280, Note_on_c, 9, 35, 101
1, 50280, Note_on_c, 9, 40, 101
1, 50301, Control_c, 0, 74, 52
1, 50301, Control_c, 4, 74, 52
1, 50309, Note_off_c, 9, 40, 64
1, 50309, Note_off_c, 4, 50, 64
1, 50309, Note_off_c, 4, 59, 64
1, 50309, Note_off_c, 0, 62, 64
1, 50309, Note_off_c, 0, 67, 64
1, 50309, Note_off_c, 0, 59, 64
1, 50309, Note_off_c, 4, 55, 64
1, 50309, Note_off_c, 9, 35, 64
1, 50310, Note_on_c, 0, 59, 52
1, 50310, Note_on_c, 0, 62, 85
1, 50310, Note_on_c, 0, 67, 94
1, 50310, Note_on_c, 4, 50, 82
1, 50310, Note_on_c, 4, 55, 98
1, 50310, Note_on_c, 4, 59, 85
1, 50310, Note_on_c, 5, 57, 98
1, 50310, Note_on_c, 5, 69, 98
1, 50310, Note_on_c, 6, 69, 120
1, 50320, Control_c, 5, 10, 94
1, 50339, Note_off_c, 6, 69, 64
1, 50339, Note_off_c, 4, 50, 64
1, 50339, Note_off_c, 0, 59, 64
1, 50339, Note_off_c, 4, 55, 64
1, 50339, Note_off_c, 0, 62, 64
1, 50339, Note_off_c, 0, 67, 64
1, 50339, Note_off_c, 5, 57, 64
1, 50339, Note_off_c, 4, 59, 64
1, 50339, Note_off_c, 5, 69, 64
1, 50340, Note_on_c, 0, 62, 78
1, 50340, Note_on_c, 0, 67, 100
1, 50340, Note_on_c, 0, 71, 46
1, 50340, Note_on_c, 4, 43, 109
1, 50340, Note_on_c, 4, 50, 109
1, 50340, Note_on_c, 5, 59, 101
1, 50340, Note_on_c, 5, 71, 101
1, 50340, Note_on_c, 6, 71, 120
1, 50352, Control_c, 0, 74, 53
1, 50352, Control_c, 4, 74, 53
1, 50360, Control_c, 5, 10, 12
1, 50369, Note_off_c, 6, 71, 64
1, 50369, Note_off_c, 0, 62, 64
1, 50369, Note_off_c, 4, 50, 64
1, 50369, Note_off_c, 0, 67, 64
1, 50369, Note_off_c, 0, 71, 64
1, 50369, Note_off_c, 4, 43, 64
1, 50369, Note_off_c, 5, 59, 64
1, 50369, Note_off_c, 5, 71, 64
1, 50370, Note_on_c, 0, 59, 45
1, 50370, Note_on_c, 0, 62, 73
1, 50370, Note_on_c, 0, 67, 86
1, 50370, Note_on_c, 4, 43, 101
1, 50370, Note_on_c, 4, 52, 116
1, 50370, Note_on_c, 5, 57, 91
1, 50370, Note_on_c, 5, 69, 91
1, 50370, Note_on_c, 6, 69, 120
1, 50399, Note_off_c, 6, 69, 64
1, 50399, Note_off_c, 0, 59, 64
1, 50399, Note_off_c, 4, 52, 64
1, 50399, Note_off_c, 0, 62, 64
1, 50399, Note_off_c, 0, 67, 64
1, 50399, Note_off_c, 4, 43, 64
1, 50399, Note_off_c, 5, 57, 64
1, 50399, Note_off_c, 5, 69, 64
1, 50400, Note_on_c, 0, 54, 35
1, 50400, Note_on_c, 0, 57, 85
1, 50400, Note_on_c, 0, 62, 79
1, 50400, Note_on_c, 4, 45, 90
1, 50400, Note_on_c, 4, 50, 105
1, 50400, Note_on_c, 5, 62, 105
1, 50400, Note_on_c, 5, 74, 105
1, 50400, Control_c, 5, 10, 115
1, 50400, Note_on_c, 6, 74, 120
1, 50400, Note_on_c, 9, 35, 101
1, 50400, Note_on_c, 9, 40, 98
1, 50403, Control_c, 0, 74, 54
1, 50403, Control_c, 4, 74, 54
1, 50429, Note_off_c, 9, 40, 64
1, 50429, Note_off_c, 9, 35, 64
1, 50440, Control_c, 5, 10, 34
1, 50454, Control_c, 0, 74, 55
1, 50454, Control_c, 4, 74, 55
1, 50459, Note_off_c, 4, 45, 64
1, 50459, Note_off_c, 0, 54, 64
1, 50459, Note_off_c, 4, 50, 64
1, 50459, Note_off_c, 0, 57, 64
1, 50459, Note_off_c, 6, 74, 64
1, 50459, Note_off_c, 5, 74, 64
1, 50459, Note_off_c, 5, 62, 64
1, 50459, Note_off_c, 0, 62, 64
1, 50460, Note_on_c, 0, 57, 69
1, 50460, Note_on_c, 0, 62, 98
1, 50460, Note_on_c, 0, 66, 74
1, 50460, Note_on_c, 4, 45, 100
1, 50460, Note_on_c, 4, 50, 111
1, 50460, Note_on_c, 4, 54, 89
1, 50480, Control_c, 5, 10, 94
1, 50505, Control_c, 0, 74, 56
1, 50505, Control_c, 4, 74, 56
1, 50520, Note_on_c, 5, 62, 119
1, 50520, Note_on_c, 5, 74, 119
1, 50520, Control_c, 5, 10, 12
1, 50520, Note_on_c, 6, 74, 120
1, 50520, Note_on_c, 9, 35, 107
1, 50520, Note_on_c, 9, 40, 101
1, 50549, Note_off_c, 9, 40, 64
1, 50549, Note_off_c, 4, 45, 64
1, 50549, Note_off_c, 0, 66, 64
1, 50549, Note_off_c, 9, 35, 64
1, 50549, Note_off_c, 0, 57, 64
1, 50549, Note_off_c, 4, 54, 64
1, 50549, Note_off_c, 0, 62, 64
1, 50549, Note_off_c, 4, 50, 64
1, 50550, Note_on_c, 0, 54, 44
1, 50550, Note_on_c, 0, 57, 78
1, 50550, Note_on_c, 0, 62, 58
1, 50550, Note_on_c, 4, 45, 85
1, 50550, Note_on_c, 4, 50, 105
1, 50550, Note_on_c, 4, 54, 81
1, 50556, Control_c, 0, 74, 57
1, 50556, Control_c, 4, 74, 57
1, 50560, Control_c, 5, 10, 115
1, 50579, Note_off_c, 4, 54, 64
1, 50579, Note_off_c, 0, 54, 64
1, 50579, Note_off_c, 5, 62, 64
1, 50579, Note_off_c, 0, 57, 64
1, 50579, Note_off_c, 5, 74, 64
1, 50579, Note_off_c, 6, 74, 64
1, 50579, Note_off_c, 4, 45, 64
1, 50579, Note_off_c, 0, 62, 64
1, 50579, Note_off_c, 4, 50, 64
1, 50580, Note_on_c, 0, 57, 57
1, 50580, Note_on_c, 0, 62, 91
1, 50580, Note_on_c, 0, 66, 77
1, 50580, Note_on_c, 4, 50, 109
1, 50580, Note_on_c, 4, 54, 89
1, 50580, Note_on_c, 4, 57, 109
1, 50600, Control_c, 5, 10, 34
1, 50607, Control_c, 0, 74, 58
1, 50607, Control_c, 4, 74, 58
1, 50609, Note_off_c, 4, 57, 64
1, 50609, Note_off_c, 0, 62, 64
1, 50609, Note_off_c, 0, 66, 64
1, 50609, Note_off_c, 0, 57, 64
1, 50609, Note_off_c, 4, 54, 64
1, 50609, Note_off_c, 4, 50, 64
1, 50610, Note_on_c, 0, 54, 35
1, 50610, Note_on_c, 0, 57, 79
1, 50610, Note_on_c, 0, 62, 56
1, 50610, Note_on_c, 4, 50, 111
1, 50610, Note_on_c, 4, 54, 100
1, 50610, Note_on_c, 4, 57, 100
1, 50610, Note_on_c, 5, 62, 103
1, 50610, Note_on_c, 5, 74, 103
1, 50610, Note_on_c, 6, 74, 120
1, 50639, Note_off_c, 6, 74, 64
1, 50639, Note_off_c, 4, 50, 64
1, 50639, Note_off_c, 0, 54, 64
1, 50639, Note_off_c, 4, 54, 64
1, 50639, Note_off_c, 0, 57, 64
1, 50639, Note_off_c, 0, 62, 64
1, 50639, Note_off_c, 5, 62, 64
1, 50639, Note_off_c, 4, 57, 64
1, 50639, Note_off_c, 5, 74, 64
1, 50640, Note_on_c, 0, 54, 49
1, 50640, Note_on_c, 0, 57, 85
1, 50640, Note_on_c, 0, 62, 75
1, 50640, Note_on_c, 4, 45, 105
1, 50640, Note_on_c, 4, 50, 116
1, 50640, Note_on_c, 5, 64, 95
1, 50640, Note_on_c, 5, 76, 95
1, 50640, Control_c, 5, 10, 94
1, 50640, Note_on_c, 6, 76, 120
1, 50640, Note_on_c, 9, 35, 105
1, 50640, Note_on_c, 9, 40, 101
1, 50658, Control_c, 0, 74, 59
1, 50658, Control_c, 4, 74, 59
1, 50669, Note_off_c, 9, 40, 64
1, 50669, Note_off_c, 9, 35, 64
1, 50669, Note_off_c, 5, 76, 64
1, 50669, Note_off_c, 6, 76, 64
1, 50669, Note_off_c, 5, 64, 64
1, 50670, Note_on_c, 5, 62, 86
1, 50670, Note_on_c, 5, 74, 86
1, 50670, Note_on_c, 6, 74, 120
1, 50680, Control_c, 5, 10, 12
1, 50699, Note_off_c, 6, 74, 64
1, 50699, Note_off_c, 0, 62, 64
1, 50699, Note_off_c, 0, 57, 64
1, 50699, Note_off_c, 4, 50, 64
1, 50699, Note_off_c, 4, 45, 64
1, 50699, Note_off_c, 0, 54, 64
1, 50699, Note_off_c, 5, 62, 64
1, 50699, Note_off_c, 5, 74, 64
1, 50700, Note_on_c, 0, 57, 56
1, 50700, Note_on_c, 0, 62, 84
1, 50700, Note_on_c, 0, 66, 49
1, 50700, Note_on_c, 4, 50, 105
1, 50700, Note_on_c, 4, 54, 115
1, 50700, Note_on_c, 5, 64, 98
1, 50700, Note_on_c, 5, 76, 98
1, 50700, Note_on_c, 6, 76, 120
1, 50709, Control_c, 0, 74, 60
1, 50709, Control_c, 4, 74, 60
1, 50720, Control_c, 5, 10, 115
1, 50729, Note_off_c, 4, 54, 64
1, 50729, Note_off_c, 4, 50, 64
1, 50729, Note_off_c, 0, 57, 64
1, 50729, Note_off_c, 0, 66, 64
1, 50729, Note_off_c, 0, 62, 64
1, 50730, Note_on_c, 0, 57, 84
1, 50730, Note_on_c, 0, 62, 94
1, 50730, Note_on_c, 0, 66, 76
1, 50730, Note_on_c, 4, 50, 100
1, 50730, Note_on_c, 4, 54, 92
1, 50750, Pitch_bend_c, 5, 8071
1, 50755, Pitch_bend_c, 5, 6296
1, 50758, Pitch_bend_c, 5, 4197
1, 50759, Note_off_c, 4, 54, 64
1, 50759, Note_off_c, 5, 64, 64
1, 50759, Note_off_c, 0, 62, 64
1, 50759, Note_off_c, 5, 76, 64
1, 50759, Note_off_c, 6, 76, 64
1, 50759, Note_off_c, 0, 57, 64
1, 50759, Note_off_c, 0, 66, 64
1, 50759, Note_off_c, 4, 50, 64
1, 50760, Control_c, 0, 74, 61
1, 50760, Note_on_c, 0, 52, 47
1, 50760, Note_on_c, 0, 57, 89
1, 50760, Note_on_c, 0, 61, 52
1, 50760, Control_c, 4, 74, 61
1, 50760, Note_on_c, 4, 45, 101
1, 50760, Note_on_c, 4, 52, 101
1, 50760, Note_on_c, 5, 66, 119
1, 50760, Note_on_c, 5, 78, 119
1, 50760, Pitch_bend_c, 5, 1776
1, 50760, Control_c, 5, 10, 34
1, 50760, Note_on_c, 6, 78, 120
1, 50760, Note_on_c, 9, 35, 105
1, 50760, Note_on_c, 9, 40, 101
1, 50763, Pitch_bend_c, 5, 0
1, 50780, Pitch_bend_c, 5, 646
1, 50783, Pitch_bend_c, 5, 2422
1, 50785, Pitch_bend_c, 5, 4520
1, 50788, Pitch_bend_c, 5, 6942
1, 50789, Note_off_c, 9, 40, 64
1, 50789, Note_off_c, 9, 35, 64
1, 50790, Pitch_bend_c, 5, 8192
1, 50800, Control_c, 5, 10, 94
1, 50811, Control_c, 0, 74, 62
1, 50811, Control_c, 4, 74, 62
1, 50819, Note_off_c, 4, 45, 64
1, 50819, Note_off_c, 0, 52, 64
1, 50819, Note_off_c, 4, 52, 64
1, 50819, Note_off_c, 0, 57, 64
1, 50819, Note_off_c, 6, 78, 64
1, 50819, Note_off_c, 5, 78, 64
1, 50819, Note_off_c, 5, 66, 64
1, 50819, Note_off_c, 0, 61, 64
1, 50820, Note_on_c, 0, 57, 51
1, 50820, Note_on_c, 0, 61, 52
1, 50820, Note_on_c, 0, 64, 78
1, 50820, Note_on_c, 4, 49, 89
1, 50820, Note_on_c, 4, 52, 101
1, 50820, Note_on_c, 4, 57, 89
1, 50820, Note_on_c, 5, 62, 111
1, 50820, Note_on_c, 5, 74, 111
1, 50820, Note_on_c, 6, 74, 120
1, 50840, Control_c, 5, 10, 12
1, 50849, Note_off_c, 4, 57, 64
1, 50849, Note_off_c, 4, 49, 64
1, 50849, Note_off_c, 0, 57, 64
1, 50849, Note_off_c, 0, 64, 64
1, 50849, Note_off_c, 0, 61, 64
1, 50849, Note_off_c, 4, 52, 64
1, 50850, Note_on_c, 0, 57, 73
1, 50850, Note_on_c, 0, 61, 52
1, 50850, Note_on_c, 0, 64, 83
1, 50850, Note_on_c, 4, 49, 119
1, 50850, Note_on_c, 4, 52, 118
1, 50850, Note_on_c, 4, 57, 105
1, 50862, Control_c, 0, 74, 63
1, 50862, Control_c, 4, 74, 63
1, 50879, Note_off_c, 4, 57, 64
1, 50879, Note_off_c, 0, 57, 64
1, 50879, Note_off_c, 5, 62, 64
1, 50879, Note_off_c, 0, 61, 64
1, 50879, Note_off_c, 5, 74, 64
1, 50879, Note_off_c, 6, 74, 64
1, 50879, Note_off_c, 4, 49, 64
1, 50879, Note_off_c, 0, 64, 64
1, 50879, Note_off_c, 4, 52, 64
1, 50880, Note_on_c, 0, 59, 58
1, 50880, Note_on_c, 0, 62, 91
1, 50880, Note_on_c, 4, 47, 85
1, 50880, Note_on_c, 4, 54, 120
1, 50880, Note_on_c, 5, 59, 120
1, 50880, Note_on_c, 5, 71, 120
1, 50880, Control_c, 5, 10, 115
1, 50880, Note_on_c, 6, 71, 120
1, 50880, Note_on_c, 9, 39, 100
1, 50880, Note_on_c, 9, 40, 100
1, 50880, Control_c, 12, 74, 1
1, 50880, Control_c, 12, 11, 32
1, 50880, Note_on_c, 12, 60, 120
1, 50895, Control_c, 12, 74, 2
1, 50895, Control_c, 12, 11, 33
1, 50909, Note_off_c, 9, 40, 64
1, 50909, Note_off_c, 9, 39, 64
1, 50910, Control_c, 12, 74, 4
1, 50910, Control_c, 12, 11, 34
1, 50920, Control_c, 5, 10, 34
1, 50925, Control_c, 12, 74, 6
1, 50925, Control_c, 12, 11, 35
1, 50939, Note_off_c, 4, 54, 64
1, 50939, Note_off_c, 6, 71, 64
1, 50939, Note_off_c, 5, 59, 64
1, 50939, Note_off_c, 0, 62, 64
1, 50939, Note_off_c, 4, 47, 64
1, 50939, Note_off_c, 0, 59, 64
1, 50939, Note_off_c, 5, 71, 64
1, 50940, Note_on_c, 0, 59, 79
1, 50940, Note_on_c, 0, 62, 95
1, 50940, Note_on_c, 0, 66, 74
1, 50940, Note_on_c, 4, 50, 92
1, 50940, Note_on_c, 4, 54, 87
1, 50940, Note_on_c, 4, 62, 95
1, 50940, Control_c, 12, 74, 8
1, 50940, Control_c, 12, 11, 36
1, 50955, Control_c, 12, 74, 9
1, 50955, Control_c, 12, 11, 37
1, 50960, Control_c, 5, 10, 94
1, 50970, Control_c, 12, 74, 11
1, 50970, Control_c, 12, 11, 38
1, 50985, Control_c, 12, 74, 13
1, 50985, Control_c, 12, 11, 39
1, 51000, Note_on_c, 5, 59, 120
1, 51000, Note_on_c, 5, 71, 120
1, 51000, Control_c, 5, 10, 12
1, 51000, Note_on_c, 6, 71, 120
1, 51000, Note_on_c, 9, 39, 87
1, 51000, Note_on_c, 9, 40, 94
1, 51000, Control_c, 12, 74, 15
1, 51000, Control_c, 12, 11, 40
1, 51015, Control_c, 12, 74, 16
1, 51015, Control_c, 12, 11, 41
1, 51029, Note_off_c, 9, 40, 64
1, 51029, Note_off_c, 0, 59, 64
1, 51029, Note_off_c, 0, 62, 64
1, 51029, Note_off_c, 4, 62, 64
1, 51029, Note_off_c, 0, 66, 64
1, 51029, Note_off_c, 9, 39, 64
1, 51029, Note_off_c, 4, 50, 64
1, 51029, Note_off_c, 4, 54, 64
1, 51030, Note_on_c, 0, 59, 71
1, 51030, Note_on_c, 0, 62, 91
1, 51030, Note_on_c, 0, 66, 60
1, 51030, Note_on_c, 4, 54, 109
1, 51030, Note_on_c, 4, 59, 95
1, 51030, Control_c, 12, 74, 18
1, 51030, Control_c, 12, 11, 42
1, 51040, Control_c, 5, 10, 115
1, 51045, Control_c, 12, 74, 20
1, 51045, Control_c, 12, 11, 43
1, 51059, Note_off_c, 4, 59, 64
1, 51059, Note_off_c, 6, 71, 64
1, 51059, Note_off_c, 5, 71, 64
1, 51059, Note_off_c, 0, 59, 64
1, 51059, Note_off_c, 4, 54, 64
1, 51059, Note_off_c, 5, 59, 64
1, 51059, Note_off_c, 0, 66, 64
1, 51059, Note_off_c, 0, 62, 64
1, 51060, Note_on_c, 0, 62, 80
1, 51060, Note_on_c, 0, 66, 62
1, 51060, Note_on_c, 0, 71, 91
1, 51060, Note_on_c, 4, 50, 103
1, 51060, Note_on_c, 4, 54, 115
1, 51060, Control_c, 12, 74, 22
1, 51060, Control_c, 12, 11, 44
1, 51075, Control_c, 12, 74, 24
1, 51075, Control_c, 12, 11, 45
1, 51080, Control_c, 5, 10, 34
1, 51089, Note_off_c, 4, 54, 64
1, 51089, Note_off_c, 0, 62, 64
1, 51089, Note_off_c, 0, 66, 64
1, 51089, Note_off_c, 0, 71, 64
1, 51089, Note_off_c, 4, 50, 64
1, 51090, Note_on_c, 0, 59, 51
1, 51090, Note_on_c, 0, 62, 85
1, 51090, Note_on_c, 0, 66, 59
1, 51090, Note_on_c, 4, 47, 92
1, 51090, Note_on_c, 4, 52, 98
1, 51090, Note_on_c, 5, 57, 98
1, 51090, Note_on_c, 5, 69, 98
1, 51090, Note_on_c, 6, 69, 120
1, 51090, Control_c, 12, 74, 25
1, 51090, Control_c, 12, 11, 46
1, 51105, Control_c, 12, 74, 27
1, 51105, Control_c, 12, 11, 47
1, 51119, Note_off_c, 6, 69, 64
1, 51119, Note_off_c, 0, 66, 64
1, 51119, Note_off_c, 5, 69, 64
1, 51119, Note_off_c, 4, 47, 64
1, 51119, Note_off_c, 0, 59, 64
1, 51119, Note_off_c, 0, 62, 64
1, 51119, Note_off_c, 5, 57, 64
1, 51119, Note_off_c, 4, 52, 64
1, 51120, Note_on_c, 0, 55, 74
1, 51120, Note_on_c, 0, 59, 94
1, 51120, Note_on_c, 0, 62, 91
1, 51120, Note_on_c, 4, 43, 98
1, 51120, Note_on_c, 4, 50, 116
1, 51120, Note_on_c, 5, 59, 98
1, 51120, Note_on_c, 5, 71, 98
1, 51120, Control_c, 5, 10, 94
1, 51120, Note_on_c, 6, 71, 120
1, 51120, Note_on_c, 9, 39, 89
1, 51120, Note_on_c, 9, 40, 103
1, 51120, Control_c, 12, 74, 29
1, 51120, Control_c, 12, 11, 48
1, 51135, Control_c, 12, 74, 31
1, 51135, Control_c, 12, 11, 49
1, 51149, Note_off_c, 9, 40, 64
1, 51149, Note_off_c, 5, 71, 64
1, 51149, Note_off_c, 9, 39, 64
1, 51149, Note_off_c, 5, 59, 64
1, 51149, Note_off_c, 6, 71, 64
1, 51150, Note_on_c, 5, 62, 54
1, 51150, Note_on_c, 5, 74, 54
1, 51150, Note_on_c, 6, 74, 120
1, 51150, Control_c, 12, 74, 32
1, 51150, Control_c, 12, 11, 50
1, 51160, Control_c, 5, 10, 12
1, 51165, Control_c, 12, 74, 34
1, 51165, Control_c, 12, 11, 51
1, 51179, Note_off_c, 6, 74, 64
1, 51179, Note_off_c, 0, 59, 64
1, 51179, Note_off_c, 5, 74, 64
1, 51179, Note_off_c, 4, 50, 64
1, 51179, Note_off_c, 0, 55, 64
1, 51179, Note_off_c, 0, 62, 64
1, 51179, Note_off_c, 5, 62, 64
1, 51179, Note_off_c, 4, 43, 64
1, 51180, Note_on_c, 0, 59, 70
1, 51180, Note_on_c, 0, 62, 94
1, 51180, Note_on_c, 0, 67, 101
1, 51180, Note_on_c, 4, 50, 79
1, 51180, Note_on_c, 4, 55, 111
1, 51180, Note_on_c, 4, 59, 100
1, 51180, Note_on_c, 5, 59, 116
1, 51180, Note_on_c, 5, 71, 116
1, 51180, Note_on_c, 6, 71, 120
1, 51180, Control_c, 12, 74, 36
1, 51180, Control_c, 12, 11, 52
1, 51195, Control_c, 12, 74, 38
1, 51195, Control_c, 12, 11, 53
1, 51200, Control_c, 5, 10, 115
1, 51210, Control_c, 12, 74, 40
1, 51210, Control_c, 12, 11, 54
1, 51225, Control_c, 12, 74, 41
1, 51225, Control_c, 12, 11, 55
1, 51239, Note_off_c, 6, 71, 64
1, 51239, Note_off_c, 5, 71, 64
1, 51239, Note_off_c, 5, 59, 64
1, 51240, Control_c, 5, 10, 34
1, 51240, Note_on_c, 9, 39, 86
1, 51240, Note_on_c, 9, 40, 101
1, 51240, Control_c, 12, 74, 43
1, 51240, Control_c, 12, 11, 56
1, 51255, Control_c, 12, 74, 45
1, 51255, Control_c, 12, 11, 57
1, 51269, Note_off_c, 9, 40, 64
1, 51269, Note_off_c, 4, 59, 64
1, 51269, Note_off_c, 9, 39, 64
1, 51269, Note_off_c, 4, 50, 64
1, 51269, Note_off_c, 0, 59, 64
1, 51269, Note_off_c, 0, 62, 64
1, 51269, Note_off_c, 0, 67, 64
1, 51269, Note_off_c, 4, 55, 64
1, 51270, Note_on_c, 0, 59, 52
1, 51270, Note_on_c, 0, 62, 85
1, 51270, Note_on_c, 0, 67, 94
1, 51270, Note_on_c, 4, 50, 82
1, 51270, Note_on_c, 4, 55, 98
1, 51270, Note_on_c, 4, 59, 85
1, 51270, Note_on_c, 5, 57, 83
1, 51270, Note_on_c, 5, 69, 83
1, 51270, Note_on_c, 6, 69, 120
1, 51270, Control_c, 12, 74, 47
1, 51270, Control_c, 12, 11, 58
1, 51280, Control_c, 5, 10, 94
1, 51285, Control_c, 12, 74, 48
1, 51285, Control_c, 12, 11, 59
1, 51299, Note_off_c, 6, 69, 64
1, 51299, Note_off_c, 0, 62, 64
1, 51299, Note_off_c, 0, 67, 64
1, 51299, Note_off_c, 5, 69, 64
1, 51299, Note_off_c, 4, 50, 64
1, 51299, Note_off_c, 0, 59, 64
1, 51299, Note_off_c, 5, 57, 64
1, 51299, Note_off_c, 4, 59, 64
1, 51299, Note_off_c, 4, 55, 64
1, 51300, Note_on_c, 0, 62, 78
1, 51300, Note_on_c, 0, 67, 100
1, 51300, Note_on_c, 0, 71, 46
1, 51300, Note_on_c, 4, 43, 109
1, 51300, Note_on_c, 4, 50, 109
1, 51300, Note_on_c, 5, 59, 98
1, 51300, Note_on_c, 5, 71, 98
1, 51300, Note_on_c, 6, 71, 120
1, 51300, Control_c, 12, 74, 50
1, 51300, Control_c, 12, 11, 60
1, 51315, Control_c, 12, 74, 52
1, 51315, Control_c, 12, 11, 61
1, 51320, Control_c, 5, 10, 12
1, 51329, Note_off_c, 6, 71, 64
1, 51329, Note_off_c, 0, 71, 64
1, 51329, Note_off_c, 5, 71, 64
1, 51329, Note_off_c, 4, 43, 64
1, 51329, Note_off_c, 0, 62, 64
1, 51329, Note_off_c, 0, 67, 64
1, 51329, Note_off_c, 5, 59, 64
1, 51329, Note_off_c, 4, 50, 64
1, 51330, Note_on_c, 0, 59, 45
1, 51330, Note_on_c, 0, 62, 73
1, 51330, Note_on_c, 0, 67, 86
1, 51330, Note_on_c, 4, 43, 101
1, 51330, Note_on_c, 4, 52, 116
1, 51330, Note_on_c, 5, 57, 94
1, 51330, Note_on_c, 5, 69, 94
1, 51330, Note_on_c, 6, 69, 120
1, 51330, Control_c, 12, 74, 54
1, 51330, Control_c, 12, 11, 62
1, 51345, Control_c, 12, 74, 56
1, 51345, Control_c, 12, 11, 63
1, 51359, Note_off_c, 6, 69, 64
1, 51359, Note_off_c, 0, 67, 64
1, 51359, Note_off_c, 5, 69, 64
1, 51359, Note_off_c, 4, 43, 64
1, 51359, Note_off_c, 0, 59, 64
1, 51359, Note_off_c, 0, 62, 64
1, 51359, Note_off_c, 5, 57, 64
1, 51359, Note_off_c, 4, 52, 64
1, 51360, Note_on_c, 0, 54, 35
1, 51360, Note_on_c, 0, 57, 85
1, 51360, Note_on_c, 0, 62, 79
1, 51360, Note_on_c, 4, 45, 90
1, 51360, Note_on_c, 4, 50, 105
1, 51360, Note_on_c, 5, 62, 120
1, 51360, Note_on_c, 5, 74, 120
1, 51360, Control_c, 5, 10, 115
1, 51360, Note_on_c, 6, 74, 120
1, 51360, Note_on_c, 9, 39, 86
1, 51360, Note_on_c, 9, 40, 101
1, 51360, Control_c, 12, 74, 57
1, 51360, Control_c, 12, 11, 64
1, 51375, Control_c, 12, 74, 59
1, 51375, Control_c, 12, 11, 65
1, 51389, Note_off_c, 9, 40, 64
1, 51389, Note_off_c, 9, 39, 64
1, 51390, Control_c, 12, 74, 61
1, 51390, Control_c, 12, 11, 66
1, 51400, Control_c, 5, 10, 34
1, 51405, Control_c, 12, 74, 63
1, 51405, Control_c, 12, 11, 67
1, 51419, Note_off_c, 0, 57, 64
1, 51419, Note_off_c, 0, 62, 64
1, 51419, Note_off_c, 5, 74, 64
1, 51419, Note_off_c, 4, 45, 64
1, 51419, Note_off_c, 0, 54, 64
1, 51419, Note_off_c, 6, 74, 64
1, 51419, Note_off_c, 5, 62, 64
1, 51419, Note_off_c, 4, 50, 64
1, 51420, Note_on_c, 0, 57, 69
1, 51420, Note_on_c, 0, 62, 98
1, 51420, Note_on_c, 0, 66, 74
1, 51420, Note_on_c, 4, 45, 100
1, 51420, Note_on_c, 4, 50, 111
1, 51420, Note_on_c, 4, 54, 89
1, 51420, Control_c, 12, 74, 64
1, 51420, Control_c, 12, 11, 68
1, 51435, Control_c, 12, 74, 66
1, 51435, Control_c, 12, 11, 69
1, 51440, Control_c, 5, 10, 94
1, 51450, Control_c, 12, 74, 68
1, 51450, Control_c, 12, 11, 70
1, 51465, Control_c, 12, 74, 70
1, 51465, Control_c, 12, 11, 71
1, 51480, Note_on_c, 5, 62, 120
1, 51480, Note_on_c, 5, 74, 120
1, 51480, Control_c, 5, 10, 12
1, 51480, Note_on_c, 6, 74, 120
1, 51480, Note_on_c, 9, 39, 87
1, 51480, Note_on_c, 9, 40, 105
1, 51480, Control_c, 12, 74, 71
1, 51480, Control_c, 12, 11, 72
1, 51495, Control_c, 12, 74, 73
1, 51495, Control_c, 12, 11, 73
1, 51509, Note_off_c, 9, 40, 64
1, 51509, Note_off_c, 0, 57, 64
1, 51509, Note_off_c, 0, 62, 64
1, 51509, Note_off_c, 4, 54, 64
1, 51509, Note_off_c, 0, 66, 64
1, 51509, Note_off_c, 9, 39, 64
1, 51509, Note_off_c, 4, 45, 64
1, 51509, Note_off_c, 4, 50, 64
1, 51510, Note_on_c, 0, 54, 44
1, 51510, Note_on_c, 0, 57, 78
1, 51510, Note_on_c, 0, 62, 58
1, 51510, Note_on_c, 4, 45, 85
1, 51510, Note_on_c, 4, 50, 105
1, 51510, Note_on_c, 4, 54, 81
1, 51510, Control_c, 12, 74, 75
1, 51510, Control_c, 12, 11, 74
1, 51520, Control_c, 5, 10, 115
1, 51525, Control_c, 12, 74, 77
1, 51525, Control_c, 12, 11, 75
1, 51539, Note_off_c, 4, 54, 64
1, 51539, Note_off_c, 5, 62, 64
1, 51539, Note_off_c, 6, 74, 64
1, 51539, Note_off_c, 5, 74, 64
1, 51539, Note_off_c, 0, 54, 64
1, 51539, Note_off_c, 4, 50, 64
1, 51539, Note_off_c, 4, 45, 64
1, 51539, Note_off_c, 0, 62, 64
1, 51539, Note_off_c, 0, 57, 64
1, 51540, Note_on_c, 0, 57, 57
1, 51540, Note_on_c, 0, 62, 91
1, 51540, Note_on_c, 0, 66, 77
1, 51540, Note_on_c, 4, 50, 109
1, 51540, Note_on_c, 4, 54, 89
1, 51540, Note_on_c, 4, 57, 109
1, 51540, Control_c, 12, 74, 79
1, 51540, Control_c, 12, 11, 76
1, 51555, Control_c, 12, 74, 80
1, 51555, Control_c, 12, 11, 77
1, 51560, Control_c, 5, 10, 34
1, 51569, Note_off_c, 4, 57, 64
1, 51569, Note_off_c, 4, 50, 64
1, 51569, Note_off_c, 0, 57, 64
1, 51569, Note_off_c, 0, 62, 64
1, 51569, Note_off_c, 0, 66, 64
1, 51569, Note_off_c, 4, 54, 64
1, 51570, Note_on_c, 0, 54, 35
1, 51570, Note_on_c, 0, 57, 79
1, 51570, Note_on_c, 0, 62, 56
1, 51570, Note_on_c, 4, 50, 111
1, 51570, Note_on_c, 4, 54, 100
1, 51570, Note_on_c, 4, 57, 100
1, 51570, Note_on_c, 5, 62, 89
1, 51570, Note_on_c, 5, 74, 89
1, 51570, Note_on_c, 6, 74, 120
1, 51570, Control_c, 12, 74, 82
1, 51570, Control_c, 12, 11, 78
1, 51585, Control_c, 12, 74, 84
1, 51585, Control_c, 12, 11, 79
1, 51599, Note_off_c, 6, 74, 64
1, 51599, Note_off_c, 0, 57, 64
1, 51599, Note_off_c, 0, 62, 64
1, 51599, Note_off_c, 5, 74, 64
1, 51599, Note_off_c, 4, 50, 64
1, 51599, Note_off_c, 0, 54, 64
1, 51599, Note_off_c, 5, 62, 64
1, 51599, Note_off_c, 4, 57, 64
1, 51599, Note_off_c, 4, 54, 64
1, 51600, Control_c, 0, 74, 68
1, 51600, Note_on_c, 0, 54, 49
1, 51600, Note_on_c, 0, 57, 85
1, 51600, Note_on_c, 0, 62, 75
1, 51600, Control_c, 4, 74, 68
1, 51600, Note_on_c, 4, 45, 105
1, 51600, Note_on_c, 4, 50, 116
1, 51600, Note_on_c, 5, 64, 81
1, 51600, Note_on_c, 5, 76, 81
1, 51600, Control_c, 5, 10, 94
1, 51600, Note_on_c, 6, 76, 120
1, 51600, Note_on_c, 9, 39, 87
1, 51600, Note_on_c, 9, 40, 101
1, 51600, Control_c, 12, 74, 86
1, 51600, Control_c, 12, 11, 80
1, 51615, Control_c, 0, 74, 70
1, 51615, Control_c, 4, 74, 70
1, 51615, Control_c, 12, 74, 87
1, 51615, Control_c, 12, 11, 81
1, 51629, Note_off_c, 9, 40, 64
1, 51629, Note_off_c, 5, 76, 64
1, 51629, Note_off_c, 9, 39, 64
1, 51629, Note_off_c, 5, 64, 64
1, 51629, Note_off_c, 6, 76, 64
1, 51630, Control_c, 0, 74, 72
1, 51630, Control_c, 4, 74, 72
1, 51630, Note_on_c, 5, 62, 95
1, 51630, Note_on_c, 5, 74, 95
1, 51630, Note_on_c, 6, 74, 120
1, 51630, Control_c, 12, 74, 89
1, 51630, Control_c, 12, 11, 82
1, 51640, Control_c, 5, 10, 12
1, 51645, Control_c, 0, 74, 74
1, 51645, Control_c, 4, 74, 74
1, 51645, Control_c, 12, 74, 91
1, 51645, Control_c, 12, 11, 83
1, 51659, Note_off_c, 6, 74, 64
1, 51659, Note_off_c, 0, 57, 64
1, 51659, Note_off_c, 5, 74, 64
1, 51659, Note_off_c, 4, 50, 64
1, 51659, Note_off_c, 0, 54, 64
1, 51659, Note_off_c, 0, 62, 64
1, 51659, Note_off_c, 5, 62, 64
1, 51659, Note_off_c, 4, 45, 64
1, 51660, Control_c, 0, 74, 76
1, 51660, Note_on_c, 0, 57, 56
1, 51660, Note_on_c, 0, 62, 84
1, 51660, Note_on_c, 0, 66, 49
1, 51660, Control_c, 4, 74, 76
1, 51660, Note_on_c, 4, 50, 105
1, 51660, Note_on_c, 4, 54, 115
1, 51660, Note_on_c, 5, 64, 111
1, 51660, Note_on_c, 5, 76, 111
1, 51660, Note_on_c, 6, 76, 120
1, 51660, Control_c, 12, 74, 93
1, 51660, Control_c, 12, 11, 84
1, 51675, Control_c, 0, 74, 78
1, 51675, Control_c, 4, 74, 78
1, 51675, Control_c, 12, 74, 95
1, 51675, Control_c, 12, 11, 85
1, 51680, Control_c, 5, 10, 115
1, 51689, Note_off_c, 4, 54, 64
1, 51689, Note_off_c, 0, 66, 64
1, 51689, Note_off_c, 0, 62, 64
1, 51689, Note_off_c, 4, 50, 64
1, 51689, Note_off_c, 0, 57, 64
1, 51690, Control_c, 0, 74, 81
1, 51690, Note_on_c, 0, 57, 84
1, 51690, Note_on_c, 0, 62, 94
1, 51690, Note_on_c, 0, 66, 76
1, 51690, Control_c, 4, 74, 81
1, 51690, Note_on_c, 4, 50, 100
1, 51690, Note_on_c, 4, 54, 92
1, 51690, Control_c, 12, 74, 96
1, 51690, Control_c, 12, 11, 86
1, 51705, Control_c, 0, 74, 83
1, 51705, Control_c, 4, 74, 83
1, 51705, Control_c, 12, 74, 98
1, 51705, Control_c, 12, 11, 87
1, 51711, Pitch_bend_c, 5, 7749
1, 51713, Pitch_bend_c, 5, 6215
1, 51716, Pitch_bend_c, 5, 4197
1, 51718, Pitch_bend_c, 5, 2422
1, 51719, Note_off_c, 4, 54, 64
1, 51719, Note_off_c, 5, 76, 64
1, 51719, Note_off_c, 4, 50, 64
1, 51719, Note_off_c, 0, 57, 64
1, 51719, Note_off_c, 5, 64, 64
1, 51719, Note_off_c, 6, 76, 64
1, 51719, Note_off_c, 0, 66, 64
1, 51719, Note_off_c, 0, 62, 64
1, 51720, Control_c, 0, 74, 85
1, 51720, Note_on_c, 0, 52, 47
1, 51720, Note_on_c, 0, 57, 89
1, 51720, Note_on_c, 0, 61, 52
1, 51720, Control_c, 4, 74, 85
1, 51720, Note_on_c, 4, 45, 101
1, 51720, Note_on_c, 4, 52, 101
1, 51720, Note_on_c, 5, 66, 119
1, 51720, Note_on_c, 5, 78, 119
1, 51720, Control_c, 5, 10, 34
1, 51720, Note_on_c, 6, 78, 120
1, 51720, Note_on_c, 9, 39, 81
1, 51720, Note_on_c, 9, 40, 98
1, 51720, Control_c, 12, 74, 100
1, 51720, Control_c, 12, 11, 88
1, 51721, Pitch_bend_c, 5, 1211
1, 51723, Pitch_bend_c, 5, 646
1, 51726, Pitch_bend_c, 5, 565
1, 51728, Pitch_bend_c, 5, 646
1, 51731, Pitch_bend_c, 5, 1373
1, 51733, Pitch_bend_c, 5, 2260
1, 51735, Control_c, 0, 74, 87
1, 51735, Control_c, 4, 74, 87
1, 51735, Control_c, 12, 74, 102
1, 51735, Control_c, 12, 11, 89
1, 51736, Pitch_bend_c, 5, 3471
1, 51738, Pitch_bend_c, 5, 5085
1, 51741, Pitch_bend_c, 5, 6942
1, 51743, Pitch_bend_c, 5, 8071
1, 51746, Pitch_bend_c, 5, 8192
1, 51749, Note_off_c, 9, 40, 64
1, 51749, Note_off_c, 9, 39, 64
1, 51750, Control_c, 0, 74, 89
1, 51750, Control_c, 4, 74, 89
1, 51750, Control_c, 12, 74, 103
1, 51750, Control_c, 12, 11, 90
1, 51760, Control_c, 5, 10, 94
1, 51765, Control_c, 0, 74, 92
1, 51765, Control_c, 4, 74, 92
1, 51765, Control_c, 12, 74, 105
1, 51765, Control_c, 12, 11, 91
1, 51779, Note_off_c, 0, 57, 64
1, 51779, Note_off_c, 0, 61, 64
1, 51779, Note_off_c, 5, 78, 64
1, 51779, Note_off_c, 4, 45, 64
1, 51779, Note_off_c, 0, 52, 64
1, 51779, Note_off_c, 6, 78, 64
1, 51779, Note_off_c, 5, 66, 64
1, 51779, Note_off_c, 4, 52, 64
1, 51780, Control_c, 0, 74, 94
1, 51780, Note_on_c, 0, 57, 51
1, 51780, Note_on_c, 0, 61, 52
1, 51780, Note_on_c, 0, 64, 78
1, 51780, Control_c, 4, 74, 94
1, 51780, Note_on_c, 4, 49, 89
1, 51780, Note_on_c, 4, 52, 101
1, 51780, Note_on_c, 4, 57, 89
1, 51780, Note_on_c, 5, 62, 98
1, 51780, Note_on_c, 5, 74, 98
1, 51780, Note_on_c, 6, 74, 120
1, 51780, Control_c, 12, 74, 107
1, 51780, Control_c, 12, 11, 92
1, 51795, Control_c, 0, 74, 96
1, 51795, Control_c, 4, 74, 96
1, 51795, Control_c, 12, 74, 109
1, 51795, Control_c, 12, 11, 93
1, 51800, Control_c, 5, 10, 12
1, 51809, Note_off_c, 4, 57, 64
1, 51809, Note_off_c, 0, 64, 64
1, 51809, Note_off_c, 0, 61, 64
1, 51809, Note_off_c, 4, 52, 64
1, 51809, Note_off_c, 4, 49, 64
1, 51809, Note_off_c, 0, 57, 64
1, 51810, Control_c, 0, 74, 98
1, 51810, Note_on_c, 0, 57, 73
1, 51810, Note_on_c, 0, 61, 52
1, 51810, Note_on_c, 0, 64, 83
1, 51810, Control_c, 4, 74, 98
1, 51810, Note_on_c, 4, 49, 119
1, 51810, Note_on_c, 4, 52, 118
1, 51810, Note_on_c, 4, 57, 105
1, 51810, Control_c, 12, 74, 111
1, 51810, Control_c, 12, 11, 94
1, 51825, Control_c, 0, 74, 100
1, 51825, Control_c, 4, 74, 100
1, 51825, Control_c, 12, 74, 112
1, 51825, Control_c, 12, 11, 95
1, 51839, Note_off_c, 4, 57, 64
1, 51839, Note_off_c, 5, 62, 64
1, 51839, Note_off_c, 6, 74, 64
1, 51839, Note_off_c, 5, 74, 64
1, 51839, Note_off_c, 0, 57, 64
1, 51839, Note_off_c, 4, 52, 64
1, 51839, Note_off_c, 4, 49, 64
1, 51839, Note_off_c, 0, 64, 64
1, 51839, Note_off_c, 0, 61, 64
1, 51840, Control_c, 0, 74, 102
1, 51840, Note_on_c, 0, 59, 58
1, 51840, Note_on_c, 0, 62, 91
1, 51840, Control_c, 4, 74, 102
1, 51840, Note_on_c, 4, 47, 85
1, 51840, Note_on_c, 4, 54, 120
1, 51840, Note_on_c, 5, 59, 105
1, 51840, Note_on_c, 5, 71, 105
1, 51840, Control_c, 5, 10, 115
1, 51840, Note_on_c, 6, 71, 120
1, 51840, Note_on_c, 9, 39, 84
1, 51840, Note_on_c, 9, 40, 98
1, 51840, Control_c, 12, 74, 114
1, 51840, Control_c, 12, 11, 96
1, 51855, Control_c, 0, 74, 105
1, 51855, Control_c, 4, 74, 105
1, 51855, Control_c, 12, 74, 116
1, 51855, Control_c, 12, 11, 97
1, 51869, Note_off_c, 9, 40, 64
1, 51869, Note_off_c, 9, 39, 64
1, 51870, Control_c, 0, 74, 107
1, 51870, Control_c, 4, 74, 107
1, 51870, Control_c, 12, 74, 118
1, 51870, Control_c, 12, 11, 98
1, 51880, Control_c, 5, 10, 34
1, 51885, Control_c, 0, 74, 109
1, 51885, Control_c, 4, 74, 109
1, 51885, Control_c, 12, 74, 119
1, 51885, Control_c, 12, 11, 99
1, 51899, Note_off_c, 4, 47, 64
1, 51899, Note_off_c, 0, 62, 64
1, 51899, Note_off_c, 4, 54, 64
1, 51899, Note_off_c, 0, 59, 64
1, 51899, Note_off_c, 6, 71, 64
1, 51899, Note_off_c, 5, 71, 64
1, 51899, Note_off_c, 5, 59, 64
1, 51900, Control_c, 0, 74, 111
1, 51900, Note_on_c, 0, 59, 79
1, 51900, Note_on_c, 0, 62, 95
1, 51900, Note_on_c, 0, 66, 74
1, 51900, Control_c, 4, 74, 111
1, 51900, Note_on_c, 4, 50, 92
1, 51900, Note_on_c, 4, 54, 87
1, 51900, Note_on_c, 4, 62, 95
1, 51900, Note_on_c, 9, 39, 73
1, 51900, Note_on_c, 9, 40, 91
1, 51900, Control_c, 12, 74, 121
1, 51900, Control_c, 12, 11, 100
1, 51915, Control_c, 0, 74, 113
1, 51915, Control_c, 4, 74, 113
1, 51915, Control_c, 12, 74, 123
1, 51915, Control_c, 12, 11, 101
1, 51920, Control_c, 5, 10, 94
1, 51929, Note_off_c, 9, 40, 64
1, 51929, Note_off_c, 9, 39, 64
1, 51930, Control_c, 0, 74, 116
1, 51930, Control_c, 4, 74, 116
1, 51930, Control_c, 12, 74, 125
1, 51930, Control_c, 12, 11, 102
1, 51945, Control_c, 0, 74, 118
1, 51945, Control_c, 4, 74, 118
1, 51945, Control_c, 12, 74, 127
1, 51945, Control_c, 12, 11, 103
1, 51960, Control_c, 0, 74, 120
1, 51960, Control_c, 4, 74, 120
1, 51960, Note_on_c, 5, 59, 119
1, 51960, Note_on_c, 5, 71, 119
1, 51960, Control_c, 5, 10, 12
1, 51960, Note_on_c, 6, 71, 120
1, 51960, Note_on_c, 9, 39, 81
1, 51960, Note_on_c, 9, 40, 83
1, 51960, Control_c, 12, 11, 104
1, 51975, Control_c, 0, 74, 122
1, 51975, Control_c, 4, 74, 122
1, 51975, Control_c, 12, 11, 105
1, 51989, Note_off_c, 9, 40, 64
1, 51989, Note_off_c, 0, 59, 64
1, 51989, Note_off_c, 0, 62, 64
1, 51989, Note_off_c, 0, 66, 64
1, 51989, Note_off_c, 4, 62, 64
1, 51989, Note_off_c, 9, 39, 64
1, 51989, Note_off_c, 4, 50, 64
1, 51989, Note_off_c, 4, 54, 64
1, 51990, Control_c, 0, 74, 124
1, 51990, Note_on_c, 0, 59, 71
1, 51990, Note_on_c, 0, 62, 91
1, 51990, Note_on_c, 0, 66, 60
1, 51990, Control_c, 4, 74, 124
1, 51990, Note_on_c, 4, 54, 109
1, 51990, Note_on_c, 4, 59, 95
1, 51990, Control_c, 12, 11, 106
1, 52000, Control_c, 5, 10, 115
1, 52005, Control_c, 0, 74, 127
1, 52005, Control_c, 4, 74, 127
1, 52005, Control_c, 12, 11, 107
1, 52019, Note_off_c, 4, 59, 64
1, 52019, Note_off_c, 6, 71, 64
1, 52019, Note_off_c, 5, 71, 64
1, 52019, Note_off_c, 0, 59, 64
1, 52019, Note_off_c, 4, 54, 64
1, 52019, Note_off_c, 5, 59, 64
1, 52019, Note_off_c, 0, 66, 64
1, 52019, Note_off_c, 0, 62, 64
1, 52020, Note_on_c, 0, 62, 80
1, 52020, Note_on_c, 0, 66, 62
1, 52020, Note_on_c, 0, 71, 91
1, 52020, Note_on_c, 4, 50, 103
1, 52020, Note_on_c, 4, 54, 115
1, 52020, Note_on_c, 9, 39, 86
1, 52020, Note_on_c, 9, 40, 91
1, 52020, Control_c, 12, 11, 108
1, 52035, Control_c, 12, 11, 109
1, 52040, Control_c, 5, 10, 34
1, 52049, Note_off_c, 9, 40, 64
1, 52049, Note_off_c, 9, 39, 64
1, 52049, Note_off_c, 4, 50, 64
1, 52049, Note_off_c, 0, 62, 64
1, 52049, Note_off_c, 0, 66, 64
1, 52049, Note_off_c, 0, 71, 64
1, 52049, Note_off_c, 4, 54, 64
1, 52050, Note_on_c, 0, 59, 51
1, 52050, Note_on_c, 0, 62, 85
1, 52050, Note_on_c, 0, 66, 59
1, 52050, Note_on_c, 4, 47, 92
1, 52050, Note_on_c, 4, 52, 98
1, 52050, Note_on_c, 5, 57, 91
1, 52050, Note_on_c, 5, 69, 91
1, 52050, Note_on_c, 6, 69, 120
1, 52050, Control_c, 12, 11, 110
1, 52065, Control_c, 12, 11, 111
1, 52079, Note_off_c, 6, 69, 64
1, 52079, Note_off_c, 0, 66, 64
1, 52079, Note_off_c, 5, 69, 64
1, 52079, Note_off_c, 4, 47, 64
1, 52079, Note_off_c, 0, 59, 64
1, 52079, Note_off_c, 0, 62, 64
1, 52079, Note_off_c, 5, 57, 64
1, 52079, Note_off_c, 4, 52, 64
1, 52080, Control_c, 0, 74, 126
1, 52080, Note_on_c, 0, 55, 74
1, 52080, Note_on_c, 0, 59, 94
1, 52080, Note_on_c, 0, 62, 91
1, 52080, Control_c, 4, 74, 126
1, 52080, Note_on_c, 4, 43, 98
1, 52080, Note_on_c, 4, 50, 116
1, 52080, Note_on_c, 5, 59, 97
1, 52080, Note_on_c, 5, 71, 97
1, 52080, Control_c, 5, 10, 94
1, 52080, Note_on_c, 6, 71, 120
1, 52080, Note_on_c, 9, 39, 89
1, 52080, Note_on_c, 9, 40, 90
1, 52080, Control_c, 12, 11, 112
1, 52095, Control_c, 0, 74, 121
1, 52095, Control_c, 4, 74, 121
1, 52095, Control_c, 12, 11, 113
1, 52109, Note_off_c, 9, 40, 64
1, 52109, Note_off_c, 5, 71, 64
1, 52109, Note_off_c, 9, 39, 64
1, 52109, Note_off_c, 5, 59, 64
1, 52109, Note_off_c, 6, 71, 64
1, 52110, Control_c, 0, 74, 117
1, 52110, Control_c, 4, 74, 117
1, 52110, Note_on_c, 5, 62, 80
1, 52110, Note_on_c, 5, 74, 80
1, 52110, Note_on_c, 6, 74, 120
1, 52110, Control_c, 12, 11, 114
1, 52120, Control_c, 5, 10, 12
1, 52125, Control_c, 0, 74, 113
1, 52125, Control_c, 4, 74, 113
1, 52125, Control_c, 12, 11, 115
1, 52139, Note_off_c, 6, 74, 64
1, 52139, Note_off_c, 0, 59, 64
1, 52139, Note_off_c, 5, 74, 64
1, 52139, Note_off_c, 4, 50, 64
1, 52139, Note_off_c, 0, 55, 64
1, 52139, Note_off_c, 0, 62, 64
1, 52139, Note_off_c, 5, 62, 64
1, 52139, Note_off_c, 4, 43, 64
1, 52140, Control_c, 0, 74, 109
1, 52140, Note_on_c, 0, 59, 70
1, 52140, Note_on_c, 0, 62, 94
1, 52140, Note_on_c, 0, 67, 101
1, 52140, Control_c, 4, 74, 109
1, 52140, Note_on_c, 4, 50, 79
1, 52140, Note_on_c, 4, 55, 111
1, 52140, Note_on_c, 4, 59, 100
1, 52140, Note_on_c, 5, 59, 113
1, 52140, Note_on_c, 5, 71, 113
1, 52140, Note_on_c, 6, 71, 120
1, 52140, Note_on_c, 9, 39, 81
1, 52140, Note_on_c, 9, 40, 85
1, 52140, Control_c, 12, 11, 116
1, 52155, Control_c, 0, 74, 105
1, 52155, Control_c, 4, 74, 105
1, 52155, Control_c, 12, 11, 117
1, 52160, Control_c, 5, 10, 115
1, 52169, Note_off_c, 9, 40, 64
1, 52169, Note_off_c, 9, 39, 64
1, 52170, Control_c, 0, 74, 101
1, 52170, Control_c, 4, 74, 101
1, 52170, Control_c, 12, 11, 118
1, 52185, Control_c, 0, 74, 97
1, 52185, Control_c, 4, 74, 97
1, 52185, Control_c, 12, 11, 119
1, 52199, Note_off_c, 5, 59, 64
1, 52199, Note_off_c, 6, 71, 64
1, 52199, Note_off_c, 5, 71, 64
1, 52200, Control_c, 0, 74, 92
1, 52200, Control_c, 4, 74, 92
1, 52200, Control_c, 5, 10, 34
1, 52200, Note_on_c, 9, 39, 80
1, 52200, Note_on_c, 9, 40, 82
1, 52200, Control_c, 12, 11, 120
1, 52215, Control_c, 0, 74, 88
1, 52215, Control_c, 4, 74, 88
1, 52215, Control_c, 12, 11, 121
1, 52229, Note_off_c, 9, 40, 64
1, 52229, Note_off_c, 4, 59, 64
1, 52229, Note_off_c, 9, 39, 64
1, 52229, Note_off_c, 4, 50, 64
1, 52229, Note_off_c, 4, 55, 64
1, 52229, Note_off_c, 0, 62, 64
1, 52229, Note_off_c, 0, 67, 64
1, 52229, Note_off_c, 0, 59, 64
1, 52230, Control_c, 0, 74, 84
1, 52230, Note_on_c, 0, 59, 52
1, 52230, Note_on_c, 0, 62, 85
1, 52230, Note_on_c, 0, 67, 94
1, 52230, Control_c, 4, 74, 84
1, 52230, Note_on_c, 4, 50, 82
1, 52230, Note_on_c, 4, 55, 98
1, 52230, Note_on_c, 4, 59, 85
1, 52230, Note_on_c, 5, 57, 98
1, 52230, Note_on_c, 5, 69, 98
1, 52230, Note_on_c, 6, 69, 120
1, 52230, Control_c, 12, 11, 122
1, 52240, Control_c, 5, 10, 94
1, 52245, Control_c, 0, 74, 80
1, 52245, Control_c, 4, 74, 80
1, 52245, Control_c, 12, 11, 123
1, 52259, Note_off_c, 6, 69, 64
1, 52259, Note_off_c, 0, 62, 64
1, 52259, Note_off_c, 0, 67, 64
1, 52259, Note_off_c, 5, 69, 64
1, 52259, Note_off_c, 4, 50, 64
1, 52259, Note_off_c, 0, 59, 64
1, 52259, Note_off_c, 5, 57, 64
1, 52259, Note_off_c, 4, 59, 64
1, 52259, Note_off_c, 4, 55, 64
1, 52260, Control_c, 0, 74, 76
1, 52260, Note_on_c, 0, 62, 78
1, 52260, Note_on_c, 0, 67, 100
1, 52260, Note_on_c, 0, 71, 46
1, 52260, Control_c, 4, 74, 76
1, 52260, Note_on_c, 4, 43, 109
1, 52260, Note_on_c, 4, 50, 109
1, 52260, Note_on_c, 5, 59, 101
1, 52260, Note_on_c, 5, 71, 101
1, 52260, Note_on_c, 6, 71, 120
1, 52260, Note_on_c, 9, 39, 92
1, 52260, Note_on_c, 9, 40, 101
1, 52260, Control_c, 12, 11, 124
1, 52275, Control_c, 0, 74, 72
1, 52275, Control_c, 4, 74, 72
1, 52275, Control_c, 12, 11, 125
1, 52280, Control_c, 5, 10, 12
1, 52289, Note_off_c, 9, 40, 64
1, 52289, Note_off_c, 5, 71, 64
1, 52289, Note_off_c, 0, 67, 64
1, 52289, Note_off_c, 0, 71, 64
1, 52289, Note_off_c, 9, 39, 64
1, 52289, Note_off_c, 4, 43, 64
1, 52289, Note_off_c, 0, 62, 64
1, 52289, Note_off_c, 6, 71, 64
1, 52289, Note_off_c, 5, 59, 64
1, 52289, Note_off_c, 4, 50, 64
1, 52290, Control_c, 0, 74, 68
1, 52290, Note_on_c, 0, 59, 45
1, 52290, Note_on_c, 0, 62, 73
1, 52290, Note_on_c, 0, 67, 86
1, 52290, Control_c, 4, 74, 68
1, 52290, Note_on_c, 4, 43, 101
1, 52290, Note_on_c, 4, 52, 116
1, 52290, Note_on_c, 5, 57, 91
1, 52290, Note_on_c, 5, 69, 91
1, 52290, Note_on_c, 6, 69, 120
1, 52290, Control_c, 12, 11, 126
1, 52305, Control_c, 0, 74, 64
1, 52305, Control_c, 4, 74, 64
1, 52305, Control_c, 12, 11, 127
1, 52314, Control_c, 4, 91, 30
1, 52314, Control_c, 5, 91, 60
1, 52319, Note_off_c, 6, 69, 64
1, 52319, Note_off_c, 0, 67, 64
1, 52319, Note_off_c, 12, 60, 64
1, 52319, Note_off_c, 4, 43, 64
1, 52319, Note_off_c, 0, 59, 64
1, 52319, Note_off_c, 0, 62, 64
1, 52319, Note_off_c, 5, 57, 64
1, 52319, Note_off_c, 4, 52, 64
1, 52319, Note_off_c, 5, 69, 64
1, 52320, Note_on_c, 5, 62, 105
1, 52320, Note_on_c, 5, 74, 105
1, 52320, Control_c, 5, 10, 64
1, 52320, Control_c, 12, 11, 0
1, 52379, Note_off_c, 5, 74, 64
1, 52379, Note_off_c, 5, 62, 64
1, 52440, Note_on_c, 5, 62, 119
1, 52440, Note_on_c, 5, 74, 119
1, 52499, Note_off_c, 5, 74, 64
1, 52499, Note_off_c, 5, 62, 64
1, 52530, Note_on_c, 5, 62, 103
1, 52530, Note_on_c, 5, 74, 103
1, 52530, Note_on_c, 6, 62, 120
1, 52530, Note_on_c, 6, 74, 120
1, 52559, Note_off_c, 6, 74, 64
1, 52559, Note_off_c, 5, 62, 64
1, 52559, Note_off_c, 5, 74, 64
1, 52559, Note_off_c, 6, 62, 64
1, 52560, Note_on_c, 5, 64, 95
1, 52560, Note_on_c, 5, 76, 95
1, 52560, Note_on_c, 6, 64, 120
1, 52560, Note_on_c, 6, 76, 120
1, 52589, Note_off_c, 6, 76, 64
1, 52589, Note_off_c, 5, 64, 64
1, 52589, Note_off_c, 5, 76, 64
1, 52589, Note_off_c, 6, 64, 64
1, 52590, Note_on_c, 5, 62, 86
1, 52590, Note_on_c, 5, 74, 86
1, 52590, Note_on_c, 6, 62, 120
1, 52590, Note_on_c, 6, 74, 120
1, 52619, Note_off_c, 6, 74, 64
1, 52619, Note_off_c, 5, 62, 64
1, 52619, Note_off_c, 5, 74, 64
1, 52619, Note_off_c, 6, 62, 64
1, 52620, Note_on_c, 5, 64, 98
1, 52620, Note_on_c, 5, 76, 98
1, 52620, Note_on_c, 6, 64, 120
1, 52620, Note_on_c, 6, 76, 120
1, 52670, Pitch_bend_c, 5, 8071
1, 52670, Pitch_bend_c, 6, 8071
1, 52675, Pitch_bend_c, 5, 6296
1, 52675, Pitch_bend_c, 6, 6296
1, 52678, Pitch_bend_c, 5, 4197
1, 52678, Pitch_bend_c, 6, 4197
1, 52679, Note_off_c, 6, 76, 64
1, 52679, Note_off_c, 5, 64, 64
1, 52679, Note_off_c, 5, 76, 64
1, 52679, Note_off_c, 6, 64, 64
1, 52680, Note_on_c, 5, 66, 119
1, 52680, Note_on_c, 5, 78, 119
1, 52680, Pitch_bend_c, 5, 1776
1, 52680, Note_on_c, 6, 66, 120
1, 52680, Note_on_c, 6, 78, 120
1, 52680, Pitch_bend_c, 6, 1776
1, 52680, Note_on_c, 9, 49, 120
1, 52683, Pitch_bend_c, 5, 0
1, 52683, Pitch_bend_c, 6, 0
1, 52700, Pitch_bend_c, 5, 646
1, 52700, Pitch_bend_c, 6, 646
1, 52703, Pitch_bend_c, 5, 2422
1, 52703, Pitch_bend_c, 6, 2422
1, 52705, Pitch_bend_c, 5, 4520
1, 52705, Pitch_bend_c, 6, 4520
1, 52708, Pitch_bend_c, 5, 6942
1, 52708, Pitch_bend_c, 6, 6942
1, 52709, Note_off_c, 9, 49, 64
1, 52710, Pitch_bend_c, 5, 8192
1, 52710, Pitch_bend_c, 6, 8192
1, 52739, Note_off_c, 6, 66, 64
1, 52739, Note_off_c, 5, 66, 64
1, 52739, Note_off_c, 5, 78, 64
1, 52739, Note_off_c, 6, 78, 64
1, 52740, Note_on_c, 5, 62, 111
1, 52740, Note_on_c, 5, 74, 111
1, 52740, Note_on_c, 6, 62, 120
1, 52740, Note_on_c, 6, 74, 120
1, 52799, Note_off_c, 6, 74, 64
1, 52799, Note_off_c, 5, 62, 64
1, 52799, Note_off_c, 5, 74, 64
1, 52799, Note_off_c, 6, 62, 64
1, 52800, Note_on_c, 0, 59, 58
1, 52800, Note_on_c, 0, 62, 91
1, 52800, Control_c, 1, 11, 64
1, 52800, Note_on_c, 1, 35, 120
1, 52800, Control_c, 2, 11, 64
1, 52800, Note_on_c, 2, 59, 120
1, 52800, Note_on_c, 2, 62, 120
1, 52800, Note_on_c, 2, 66, 120
1, 52800, Note_on_c, 4, 47, 85
1, 52800, Note_on_c, 4, 54, 120
1, 52800, Note_on_c, 5, 59, 120
1, 52800, Note_on_c, 5, 71, 120
1, 52800, Note_on_c, 6, 71, 120
1, 52800, Note_on_c, 9, 35, 120
1, 52800, Note_on_c, 9, 42, 120
1, 52800, Note_on_c, 9, 49, 111
1, 52800, Note_on_c, 9, 59, 120
1, 52800, Note_on_c, 11, 71, 120
1, 52829, Note_off_c, 9, 59, 64
1, 52829, Note_off_c, 9, 42, 64
1, 52829, Note_off_c, 9, 35, 64
1, 52859, Note_off_c, 11, 71, 64
1, 52859, Note_off_c, 5, 71, 64
1, 52859, Note_off_c, 4, 47, 64
1, 52859, Note_off_c, 4, 54, 64
1, 52859, Note_off_c, 0, 59, 64
1, 52859, Note_off_c, 5, 59, 64
1, 52859, Note_off_c, 6, 71, 64
1, 52859, Note_off_c, 0, 62, 64
1, 52860, Note_on_c, 0, 59, 79
1, 52860, Note_on_c, 0, 62, 95
1, 52860, Note_on_c, 0, 66, 74
1, 52860, Control_c, 1, 11, 127
1, 52860, Control_c, 2, 11, 127
1, 52860, Note_on_c, 4, 50, 92
1, 52860, Note_on_c, 4, 54, 87
1, 52860, Note_on_c, 4, 62, 95
1, 52860, Note_on_c, 9, 46, 120
1, 52860, Note_on_c, 9, 73, 119
1, 52889, Note_off_c, 9, 73, 64
1, 52889, Note_off_c, 9, 46, 64
1, 52919, Note_off_c, 1, 35, 64
1, 52920, Control_c, 1, 11, 64
1, 52920, Note_on_c, 1, 35, 120
1, 52920, Control_c, 2, 11, 73
1, 52920, Note_on_c, 5, 59, 120
1, 52920, Note_on_c, 5, 71, 120
1, 52920, Note_on_c, 6, 71, 120
1, 52920, Note_on_c, 9, 35, 120
1, 52920, Note_on_c, 9, 42, 120
1, 52920, Note_on_c, 9, 59, 116
1, 52920, Note_on_c, 11, 71, 120
1, 52949, Note_off_c, 9, 59, 64
1, 52949, Note_off_c, 9, 42, 64
1, 52949, Note_off_c, 9, 35, 64
1, 52949, Note_off_c, 4, 62, 64
1, 52949, Note_off_c, 0, 59, 64
1, 52949, Note_off_c, 0, 66, 64
1, 52949, Note_off_c, 4, 54, 64
1, 52949, Note_off_c, 4, 50, 64
1, 52949, Note_off_c, 0, 62, 64
1, 52950, Note_on_c, 0, 59, 71
1, 52950, Note_on_c, 0, 62, 91
1, 52950, Note_on_c, 0, 66, 60
1, 52950, Note_on_c, 4, 54, 109
1, 52950, Note_on_c, 4, 59, 95
1, 52979, Note_off_c, 4, 59, 64
1, 52979, Note_off_c, 0, 59, 64
1, 52979, Note_off_c, 5, 71, 64
1, 52979, Note_off_c, 5, 59, 64
1, 52979, Note_off_c, 6, 71, 64
1, 52979, Note_off_c, 11, 71, 64
1, 52979, Note_off_c, 4, 54, 64
1, 52979, Note_off_c, 0, 62, 64
1, 52979, Note_off_c, 0, 66, 64
1, 52980, Note_on_c, 0, 62, 80
1, 52980, Note_on_c, 0, 66, 62
1, 52980, Note_on_c, 0, 71, 91
1, 52980, Control_c, 1, 11, 127
1, 52980, Control_c, 2, 11, 127
1, 52980, Note_on_c, 4, 50, 103
1, 52980, Note_on_c, 4, 54, 115
1, 52980, Note_on_c, 9, 46, 119
1, 52980, Note_on_c, 9, 73, 119
1, 53009, Note_off_c, 9, 73, 64
1, 53009, Note_off_c, 4, 54, 64
1, 53009, Note_off_c, 0, 71, 64
1, 53009, Note_off_c, 0, 66, 64
1, 53009, Note_off_c, 4, 50, 64
1, 53009, Note_off_c, 9, 46, 64
1, 53009, Note_off_c, 0, 62, 64
1, 53010, Note_on_c, 0, 59, 51
1, 53010, Note_on_c, 0, 62, 85
1, 53010, Note_on_c, 0, 66, 59
1, 53010, Note_on_c, 4, 47, 92
1, 53010, Note_on_c, 4, 52, 98
1, 53010, Note_on_c, 5, 57, 98
1, 53010, Note_on_c, 5, 69, 98
1, 53010, Note_on_c, 6, 69, 120
1, 53010, Note_on_c, 11, 69, 120
1, 53039, Note_off_c, 11, 69, 64
1, 53039, Note_off_c, 2, 62, 64
1, 53039, Note_off_c, 0, 59, 64
1, 53039, Note_off_c, 2, 66, 64
1, 53039, Note_off_c, 0, 66, 64
1, 53039, Note_off_c, 1, 35, 64
1, 53039, Note_off_c, 9, 49, 64
1, 53039, Note_off_c, 2, 59, 64
1, 53039, Note_off_c, 5, 69, 64
1, 53039, Note_off_c, 5, 57, 64
1, 53039, Note_off_c, 4, 47, 64
1, 53039, Note_off_c, 0, 62, 64
1, 53039, Note_off_c, 6, 69, 64
1, 53039, Note_off_c, 4, 52, 64
1, 53040, Note_on_c, 0, 55, 74
1, 53040, Note_on_c, 0, 59, 94
1, 53040, Note_on_c, 0, 62, 91
1, 53040, Control_c, 1, 11, 64
1, 53040, Note_on_c, 1, 31, 120
1, 53040, Control_c, 2, 11, 71
1, 53040, Note_on_c, 2, 59, 120
1, 53040, Note_on_c, 2, 62, 120
1, 53040, Note_on_c, 2, 67, 120
1, 53040, Note_on_c, 4, 43, 98
1, 53040, Note_on_c, 4, 50, 116
1, 53040, Note_on_c, 5, 59, 98
1, 53040, Note_on_c, 5, 71, 98
1, 53040, Note_on_c, 6, 71, 120
1, 53040, Note_on_c, 9, 35, 120
1, 53040, Note_on_c, 9, 42, 120
1, 53040, Note_on_c, 9, 59, 118
1, 53040, Note_on_c, 11, 71, 120
1, 53069, Note_off_c, 11, 71, 64
1, 53069, Note_off_c, 9, 59, 64
1, 53069, Note_off_c, 6, 71, 64
1, 53069, Note_off_c, 5, 59, 64
1, 53069, Note_off_c, 9, 42, 64
1, 53069, Note_off_c, 5, 71, 64
1, 53069, Note_off_c, 9, 35, 64
1, 53070, Note_on_c, 5, 62, 54
1, 53070, Note_on_c, 5, 74, 54
1, 53070, Note_on_c, 6, 74, 120
1, 53070, Note_on_c, 11, 74, 120
1, 53099, Note_off_c, 11, 74, 64
1, 53099, Note_off_c, 4, 43, 64
1, 53099, Note_off_c, 0, 59, 64
1, 53099, Note_off_c, 0, 55, 64
1, 53099, Note_off_c, 4, 50, 64
1, 53099, Note_off_c, 5, 62, 64
1, 53099, Note_off_c, 0, 62, 64
1, 53099, Note_off_c, 6, 74, 64
1, 53099, Note_off_c, 5, 74, 64
1, 53100, Note_on_c, 0, 59, 70
1, 53100, Note_on_c, 0, 62, 94
1, 53100, Note_on_c, 0, 67, 101
1, 53100, Control_c, 1, 11, 127
1, 53100, Control_c, 2, 11, 127
1, 53100, Note_on_c, 4, 50, 79
1, 53100, Note_on_c, 4, 55, 111
1, 53100, Note_on_c, 4, 59, 100
1, 53100, Note_on_c, 5, 59, 116
1, 53100, Note_on_c, 5, 71, 116
1, 53100, Note_on_c, 6, 71, 120
1, 53100, Note_on_c, 9, 46, 120
1, 53100, Note_on_c, 9, 73, 109
1, 53100, Note_on_c, 11, 71, 120
1, 53129, Note_off_c, 9, 73, 64
1, 53129, Note_off_c, 9, 46, 64
1, 53159, Note_off_c, 5, 71, 64
1, 53159, Note_off_c, 11, 71, 64
1, 53159, Note_off_c, 1, 31, 64
1, 53159, Note_off_c, 5, 59, 64
1, 53159, Note_off_c, 6, 71, 64
1, 53160, Control_c, 1, 11, 64
1, 53160, Note_on_c, 1, 31, 120
1, 53160, Control_c, 2, 11, 80
1, 53160, Note_on_c, 9, 35, 120
1, 53160, Note_on_c, 9, 42, 120
1, 53160, Note_on_c, 9, 59, 116
1, 53189, Note_off_c, 9, 59, 64
1, 53189, Note_off_c, 4, 55, 64
1, 53189, Note_off_c, 0, 67, 64
1, 53189, Note_off_c, 4, 59, 64
1, 53189, Note_off_c, 0, 62, 64
1, 53189, Note_off_c, 0, 59, 64
1, 53189, Note_off_c, 4, 50, 64
1, 53189, Note_off_c, 9, 42, 64
1, 53189, Note_off_c, 9, 35, 64
1, 53190, Note_on_c, 0, 59, 52
1, 53190, Note_on_c, 0, 62, 85
1, 53190, Note_on_c, 0, 67, 94
1, 53190, Note_on_c, 4, 50, 82
1, 53190, Note_on_c, 4, 55, 98
1, 53190, Note_on_c, 4, 59, 85
1, 53190, Note_on_c, 5, 57, 83
1, 53190, Note_on_c, 5, 69, 83
1, 53190, Note_on_c, 6, 69, 120
1, 53190, Note_on_c, 11, 69, 120
1, 53219, Note_off_c, 11, 69, 64
1, 53219, Note_off_c, 0, 59, 64
1, 53219, Note_off_c, 0, 62, 64
1, 53219, Note_off_c, 4, 59, 64
1, 53219, Note_off_c, 4, 50, 64
1, 53219, Note_off_c, 0, 67, 64
1, 53219, Note_off_c, 4, 55, 64
1, 53219, Note_off_c, 6, 69, 64
1, 53219, Note_off_c, 5, 69, 64
1, 53219, Note_off_c, 5, 57, 64
1, 53220, Note_on_c, 0, 62, 78
1, 53220, Note_on_c, 0, 67, 100
1, 53220, Note_on_c, 0, 71, 46
1, 53220, Control_c, 1, 11, 127
1, 53220, Control_c, 2, 11, 127
1, 53220, Note_on_c, 4, 43, 109
1, 53220, Note_on_c, 4, 50, 109
1, 53220, Note_on_c, 5, 59, 98
1, 53220, Note_on_c, 5, 71, 98
1, 53220, Note_on_c, 6, 71, 120
1, 53220, Note_on_c, 9, 46, 120
1, 53220, Note_on_c, 9, 73, 115
1, 53220, Note_on_c, 11, 71, 120
1, 53249, Note_off_c, 11, 71, 64
1, 53249, Note_off_c, 6, 71, 64
1, 53249, Note_off_c, 0, 62, 64
1, 53249, Note_off_c, 0, 67, 64
1, 53249, Note_off_c, 5, 59, 64
1, 53249, Note_off_c, 4, 43, 64
1, 53249, Note_off_c, 0, 71, 64
1, 53249, Note_off_c, 4, 50, 64
1, 53249, Note_off_c, 9, 73, 64
1, 53249, Note_off_c, 9, 46, 64
1, 53249, Note_off_c, 5, 71, 64
1, 53250, Note_on_c, 0, 59, 45
1, 53250, Note_on_c, 0, 62, 73
1, 53250, Note_on_c, 0, 67, 86
1, 53250, Note_on_c, 4, 43, 101
1, 53250, Note_on_c, 4, 52, 116
1, 53250, Note_on_c, 5, 57, 94
1, 53250, Note_on_c, 5, 69, 94
1, 53250, Note_on_c, 6, 69, 120
1, 53250, Note_on_c, 11, 69, 120
1, 53279, Note_off_c, 11, 69, 64
1, 53279, Note_off_c, 0, 62, 64
1, 53279, Note_off_c, 2, 62, 64
1, 53279, Note_off_c, 4, 43, 64
1, 53279, Note_off_c, 2, 59, 64
1, 53279, Note_off_c, 2, 67, 64
1, 53279, Note_off_c, 1, 31, 64
1, 53279, Note_off_c, 0, 59, 64
1, 53279, Note_off_c, 5, 69, 64
1, 53279, Note_off_c, 4, 52, 64
1, 53279, Note_off_c, 0, 67, 64
1, 53279, Note_off_c, 6, 69, 64
1, 53279, Note_off_c, 5, 57, 64
1, 53280, Note_on_c, 0, 54, 35
1, 53280, Note_on_c, 0, 57, 85
1, 53280, Note_on_c, 0, 62, 79
1, 53280, Control_c, 1, 11, 64
1, 53280, Note_on_c, 1, 38, 120
1, 53280, Control_c, 2, 11, 64
1, 53280, Note_on_c, 2, 57, 120
1, 53280, Note_on_c, 2, 62, 120
1, 53280, Note_on_c, 2, 66, 120
1, 53280, Note_on_c, 4, 45, 90
1, 53280, Note_on_c, 4, 50, 105
1, 53280, Note_on_c, 5, 62, 120
1, 53280, Note_on_c, 5, 74, 120
1, 53280, Note_on_c, 6, 74, 120
1, 53280, Note_on_c, 9, 35, 120
1, 53280, Note_on_c, 9, 42, 120
1, 53280, Note_on_c, 9, 59, 116
1, 53280, Note_on_c, 11, 74, 120
1, 53309, Note_off_c, 9, 59, 64
1, 53309, Note_off_c, 9, 42, 64
1, 53309, Note_off_c, 9, 35, 64
1, 53339, Note_off_c, 11, 74, 64
1, 53339, Note_off_c, 5, 62, 64
1, 53339, Note_off_c, 0, 62, 64
1, 53339, Note_off_c, 4, 45, 64
1, 53339, Note_off_c, 0, 54, 64
1, 53339, Note_off_c, 4, 50, 64
1, 53339, Note_off_c, 5, 74, 64
1, 53339, Note_off_c, 6, 74, 64
1, 53339, Note_off_c, 0, 57, 64
1, 53340, Note_on_c, 0, 57, 69
1, 53340, Note_on_c, 0, 62, 98
1, 53340, Note_on_c, 0, 66, 74
1, 53340, Control_c, 1, 11, 127
1, 53340, Control_c, 2, 11, 127
1, 53340, Note_on_c, 4, 45, 100
1, 53340, Note_on_c, 4, 50, 111
1, 53340, Note_on_c, 4, 54, 89
1, 53340, Note_on_c, 9, 46, 120
1, 53340, Note_on_c, 9, 73, 109
1, 53369, Note_off_c, 9, 73, 64
1, 53369, Note_off_c, 9, 46, 64
1, 53399, Note_off_c, 1, 38, 64
1, 53400, Control_c, 1, 11, 64
1, 53400, Note_on_c, 1, 38, 120
1, 53400, Control_c, 2, 11, 73
1, 53400, Note_on_c, 5, 62, 120
1, 53400, Note_on_c, 5, 74, 120
1, 53400, Note_on_c, 6, 74, 120
1, 53400, Note_on_c, 9, 35, 120
1, 53400, Note_on_c, 9, 42, 120
1, 53400, Note_on_c, 9, 59, 116
1, 53400, Note_on_c, 11, 74, 120
1, 53429, Note_off_c, 9, 59, 64
1, 53429, Note_off_c, 9, 42, 64
1, 53429, Note_off_c, 4, 45, 64
1, 53429, Note_off_c, 0, 66, 64
1, 53429, Note_off_c, 0, 62, 64
1, 53429, Note_off_c, 0, 57, 64
1, 53429, Note_off_c, 4, 54, 64
1, 53429, Note_off_c, 9, 35, 64
1, 53429, Note_off_c, 4, 50, 64
1, 53430, Note_on_c, 0, 54, 44
1, 53430, Note_on_c, 0, 57, 78
1, 53430, Note_on_c, 0, 62, 58
1, 53430, Note_on_c, 4, 45, 85
1, 53430, Note_on_c, 4, 50, 105
1, 53430, Note_on_c, 4, 54, 81
1, 53459, Note_off_c, 4, 54, 64
1, 53459, Note_off_c, 5, 62, 64
1, 53459, Note_off_c, 6, 74, 64
1, 53459, Note_off_c, 0, 57, 64
1, 53459, Note_off_c, 11, 74, 64
1, 53459, Note_off_c, 5, 74, 64
1, 53459, Note_off_c, 0, 54, 64
1, 53459, Note_off_c, 4, 50, 64
1, 53459, Note_off_c, 4, 45, 64
1, 53459, Note_off_c, 0, 62, 64
1, 53460, Note_on_c, 0, 57, 57
1, 53460, Note_on_c, 0, 62, 91
1, 53460, Note_on_c, 0, 66, 77
1, 53460, Control_c, 1, 11, 127
1, 53460, Control_c, 2, 11, 127
1, 53460, Note_on_c, 4, 50, 109
1, 53460, Note_on_c, 4, 54, 89
1, 53460, Note_on_c, 4, 57, 109
1, 53460, Note_on_c, 9, 46, 120
1, 53460, Note_on_c, 9, 73, 119
1, 53489, Note_off_c, 9, 73, 64
1, 53489, Note_off_c, 4, 57, 64
1, 53489, Note_off_c, 4, 50, 64
1, 53489, Note_off_c, 0, 66, 64
1, 53489, Note_off_c, 4, 54, 64
1, 53489, Note_off_c, 9, 46, 64
1, 53489, Note_off_c, 0, 57, 64
1, 53489, Note_off_c, 0, 62, 64
1, 53490, Note_on_c, 0, 54, 35
1, 53490, Note_on_c, 0, 57, 79
1, 53490, Note_on_c, 0, 62, 56
1, 53490, Note_on_c, 4, 50, 111
1, 53490, Note_on_c, 4, 54, 100
1, 53490, Note_on_c, 4, 57, 100
1, 53490, Note_on_c, 5, 62, 89
1, 53490, Note_on_c, 5, 74, 89
1, 53490, Note_on_c, 6, 74, 120
1, 53490, Note_on_c, 11, 74, 120
1, 53519, Note_off_c, 11, 74, 64
1, 53519, Note_off_c, 0, 54, 64
1, 53519, Note_off_c, 0, 57, 64
1, 53519, Note_off_c, 4, 57, 64
1, 53519, Note_off_c, 4, 50, 64
1, 53519, Note_off_c, 0, 62, 64
1, 53519, Note_off_c, 1, 38, 64
1, 53519, Note_off_c, 4, 54, 64
1, 53519, Note_off_c, 5, 74, 64
1, 53519, Note_off_c, 5, 62, 64
1, 53519, Note_off_c, 6, 74, 64
1, 53520, Note_on_c, 0, 54, 49
1, 53520, Note_on_c, 0, 57, 85
1, 53520, Note_on_c, 0, 62, 75
1, 53520, Control_c, 1, 11, 64
1, 53520, Note_on_c, 1, 38, 120
1, 53520, Control_c, 2, 11, 71
1, 53520, Note_on_c, 4, 45, 105
1, 53520, Note_on_c, 4, 50, 116
1, 53520, Note_on_c, 5, 64, 81
1, 53520, Note_on_c, 5, 76, 81
1, 53520, Note_on_c, 6, 76, 120
1, 53520, Note_on_c, 9, 35, 120
1, 53520, Note_on_c, 9, 42, 120
1, 53520, Note_on_c, 9, 59, 118
1, 53520, Note_on_c, 11, 76, 120
1, 53549, Note_off_c, 11, 76, 64
1, 53549, Note_off_c, 9, 59, 64
1, 53549, Note_off_c, 6, 76, 64
1, 53549, Note_off_c, 5, 64, 64
1, 53549, Note_off_c, 9, 42, 64
1, 53549, Note_off_c, 5, 76, 64
1, 53549, Note_off_c, 9, 35, 64
1, 53550, Note_on_c, 5, 62, 95
1, 53550, Note_on_c, 5, 74, 95
1, 53550, Note_on_c, 6, 74, 120
1, 53550, Note_on_c, 11, 74, 120
1, 53579, Note_off_c, 11, 74, 64
1, 53579, Note_off_c, 4, 45, 64
1, 53579, Note_off_c, 0, 57, 64
1, 53579, Note_off_c, 0, 54, 64
1, 53579, Note_off_c, 4, 50, 64
1, 53579, Note_off_c, 5, 62, 64
1, 53579, Note_off_c, 0, 62, 64
1, 53579, Note_off_c, 6, 74, 64
1, 53579, Note_off_c, 5, 74, 64
1, 53580, Note_on_c, 0, 57, 56
1, 53580, Note_on_c, 0, 62, 84
1, 53580, Note_on_c, 0, 66, 49
1, 53580, Control_c, 1, 11, 127
1, 53580, Control_c, 2, 11, 127
1, 53580, Note_on_c, 4, 50, 105
1, 53580, Note_on_c, 4, 54, 115
1, 53580, Note_on_c, 5, 64, 111
1, 53580, Note_on_c, 5, 76, 111
1, 53580, Note_on_c, 6, 76, 120
1, 53580, Note_on_c, 9, 46, 120
1, 53580, Note_on_c, 9, 73, 115
1, 53580, Note_on_c, 11, 76, 120
1, 53609, Note_off_c, 9, 73, 64
1, 53609, Note_off_c, 4, 50, 64
1, 53609, Note_off_c, 0, 57, 64
1, 53609, Note_off_c, 0, 66, 64
1, 53609, Note_off_c, 9, 46, 64
1, 53609, Note_off_c, 0, 62, 64
1, 53609, Note_off_c, 4, 54, 64
1, 53610, Note_on_c, 0, 57, 84
1, 53610, Note_on_c, 0, 62, 94
1, 53610, Note_on_c, 0, 66, 76
1, 53610, Note_on_c, 4, 50, 100
1, 53610, Note_on_c, 4, 54, 92
1, 53631, Pitch_bend_c, 5, 7749
1, 53633, Pitch_bend_c, 5, 6215
1, 53636, Pitch_bend_c, 5, 4197
1, 53638, Pitch_bend_c, 5, 2422
1, 53639, Note_off_c, 4, 54, 64
1, 53639, Note_off_c, 2, 62, 64
1, 53639, Note_off_c, 2, 66, 64
1, 53639, Note_off_c, 1, 38, 64
1, 53639, Note_off_c, 5, 76, 64
1, 53639, Note_off_c, 11, 76, 64
1, 53639, Note_off_c, 2, 57, 64
1, 53639, Note_off_c, 5, 64, 64
1, 53639, Note_off_c, 0, 66, 64
1, 53639, Note_off_c, 0, 57, 64
1, 53639, Note_off_c, 6, 76, 64
1, 53639, Note_off_c, 4, 50, 64
1, 53639, Note_off_c, 0, 62, 64
1, 53640, Note_on_c, 0, 52, 47
1, 53640, Note_on_c, 0, 57, 89
1, 53640, Note_on_c, 0, 61, 52
1, 53640, Control_c, 1, 11, 64
1, 53640, Note_on_c, 1, 33, 120
1, 53640, Control_c, 2, 11, 80
1, 53640, Note_on_c, 2, 57, 120
1, 53640, Note_on_c, 2, 61, 120
1, 53640, Note_on_c, 2, 64, 120
1, 53640, Note_on_c, 4, 45, 101
1, 53640, Note_on_c, 4, 52, 101
1, 53640, Note_on_c, 5, 66, 119
1, 53640, Note_on_c, 5, 78, 119
1, 53640, Note_on_c, 6, 78, 120
1, 53640, Note_on_c, 9, 35, 120
1, 53640, Note_on_c, 9, 42, 120
1, 53640, Note_on_c, 9, 59, 119
1, 53640, Note_on_c, 11, 78, 120
1, 53641, Pitch_bend_c, 5, 1211
1, 53643, Pitch_bend_c, 5, 646
1, 53646, Pitch_bend_c, 5, 565
1, 53648, Pitch_bend_c, 5, 646
1, 53651, Pitch_bend_c, 5, 1373
1, 53653, Pitch_bend_c, 5, 2260
1, 53656, Pitch_bend_c, 5, 3471
1, 53658, Pitch_bend_c, 5, 5085
1, 53661, Pitch_bend_c, 5, 6942
1, 53663, Pitch_bend_c, 5, 8071
1, 53666, Pitch_bend_c, 5, 8192
1, 53669, Note_off_c, 9, 59, 64
1, 53669, Note_off_c, 9, 42, 64
1, 53669, Note_off_c, 9, 35, 64
1, 53699, Note_off_c, 11, 78, 64
1, 53699, Note_off_c, 5, 66, 64
1, 53699, Note_off_c, 0, 61, 64
1, 53699, Note_off_c, 4, 45, 64
1, 53699, Note_off_c, 0, 52, 64
1, 53699, Note_off_c, 4, 52, 64
1, 53699, Note_off_c, 5, 78, 64
1, 53699, Note_off_c, 6, 78, 64
1, 53699, Note_off_c, 0, 57, 64
1, 53700, Note_on_c, 0, 57, 51
1, 53700, Note_on_c, 0, 61, 52
1, 53700, Note_on_c, 0, 64, 78
1, 53700, Control_c, 1, 11, 127
1, 53700, Control_c, 2, 11, 127
1, 53700, Note_on_c, 4, 49, 89
1, 53700, Note_on_c, 4, 52, 101
1, 53700, Note_on_c, 4, 57, 89
1, 53700, Note_on_c, 5, 62, 98
1, 53700, Note_on_c, 5, 74, 98
1, 53700, Note_on_c, 6, 74, 120
1, 53700, Note_on_c, 9, 46, 120
1, 53700, Note_on_c, 9, 73, 111
1, 53700, Note_on_c, 11, 74, 120
1, 53729, Note_off_c, 9, 73, 64
1, 53729, Note_off_c, 4, 52, 64
1, 53729, Note_off_c, 0, 61, 64
1, 53729, Note_off_c, 0, 57, 64
1, 53729, Note_off_c, 0, 64, 64
1, 53729, Note_off_c, 4, 49, 64
1, 53729, Note_off_c, 9, 46, 64
1, 53729, Note_off_c, 4, 57, 64
1, 53730, Note_on_c, 0, 57, 73
1, 53730, Note_on_c, 0, 61, 52
1, 53730, Note_on_c, 0, 64, 83
1, 53730, Note_on_c, 4, 49, 119
1, 53730, Note_on_c, 4, 52, 118
1, 53730, Note_on_c, 4, 57, 105
1, 53759, Note_off_c, 4, 57, 64
1, 53759, Note_off_c, 5, 62, 64
1, 53759, Note_off_c, 1, 33, 64
1, 53759, Note_off_c, 6, 74, 64
1, 53759, Note_off_c, 2, 57, 64
1, 53759, Note_off_c, 5, 74, 64
1, 53759, Note_off_c, 2, 61, 64
1, 53759, Note_off_c, 11, 74, 64
1, 53759, Note_off_c, 4, 49, 64
1, 53759, Note_off_c, 0, 64, 64
1, 53759, Note_off_c, 0, 57, 64
1, 53759, Note_off_c, 2, 64, 64
1, 53759, Note_off_c, 4, 52, 64
1, 53759, Note_off_c, 0, 61, 64
1, 53760, Note_on_c, 0, 59, 58
1, 53760, Note_on_c, 0, 62, 91
1, 53760, Control_c, 1, 11, 64
1, 53760, Note_on_c, 1, 35, 120
1, 53760, Control_c, 2, 11, 64
1, 53760, Note_on_c, 2, 59, 120
1, 53760, Note_on_c, 2, 62, 120
1, 53760, Note_on_c, 2, 66, 120
1, 53760, Note_on_c, 4, 47, 85
1, 53760, Note_on_c, 4, 54, 120
1, 53760, Note_on_c, 5, 59, 105
1, 53760, Note_on_c, 5, 71, 105
1, 53760, Note_on_c, 6, 71, 120
1, 53760, Note_on_c, 9, 35, 120
1, 53760, Note_on_c, 9, 42, 120
1, 53760, Note_on_c, 9, 59, 119
1, 53760, Note_on_c, 11, 71, 120
1, 53789, Note_off_c, 9, 59, 64
1, 53789, Note_off_c, 9, 42, 64
1, 53789, Note_off_c, 9, 35, 64
1, 53819, Note_off_c, 5, 71, 64
1, 53819, Note_off_c, 4, 47, 64
1, 53819, Note_off_c, 4, 54, 64
1, 53819, Note_off_c, 0, 59, 64
1, 53819, Note_off_c, 5, 59, 64
1, 53819, Note_off_c, 6, 71, 64
1, 53819, Note_off_c, 11, 71, 64
1, 53819, Note_off_c, 0, 62, 64
1, 53820, Note_on_c, 0, 59, 79
1, 53820, Note_on_c, 0, 62, 95
1, 53820, Note_on_c, 0, 66, 74
1, 53820, Control_c, 1, 11, 127
1, 53820, Control_c, 2, 11, 127
1, 53820, Note_on_c, 4, 50, 92
1, 53820, Note_on_c, 4, 54, 87
1, 53820, Note_on_c, 4, 62, 95
1, 53820, Note_on_c, 9, 46, 120
1, 53820, Note_on_c, 9, 73, 109
1, 53849, Note_off_c, 9, 73, 64
1, 53849, Note_off_c, 9, 46, 64
1, 53879, Note_off_c, 1, 35, 64
1, 53880, Control_c, 1, 11, 64
1, 53880, Note_on_c, 1, 35, 120
1, 53880, Control_c, 2, 11, 73
1, 53880, Note_on_c, 5, 59, 119
1, 53880, Note_on_c, 5, 71, 119
1, 53880, Note_on_c, 6, 71, 120
1, 53880, Note_on_c, 9, 35, 120
1, 53880, Note_on_c, 9, 42, 120
1, 53880, Note_on_c, 9, 59, 118
1, 53880, Note_on_c, 11, 71, 120
1, 53909, Note_off_c, 9, 59, 64
1, 53909, Note_off_c, 9, 42, 64
1, 53909, Note_off_c, 4, 50, 64
1, 53909, Note_off_c, 0, 66, 64
1, 53909, Note_off_c, 0, 62, 64
1, 53909, Note_off_c, 0, 59, 64
1, 53909, Note_off_c, 4, 62, 64
1, 53909, Note_off_c, 9, 35, 64
1, 53909, Note_off_c, 4, 54, 64
1, 53910, Note_on_c, 0, 59, 71
1, 53910, Note_on_c, 0, 62, 91
1, 53910, Note_on_c, 0, 66, 60
1, 53910, Note_on_c, 4, 54, 109
1, 53910, Note_on_c, 4, 59, 95
1, 53939, Note_off_c, 4, 59, 64
1, 53939, Note_off_c, 6, 71, 64
1, 53939, Note_off_c, 0, 62, 64
1, 53939, Note_off_c, 11, 71, 64
1, 53939, Note_off_c, 5, 71, 64
1, 53939, Note_off_c, 0, 59, 64
1, 53939, Note_off_c, 4, 54, 64
1, 53939, Note_off_c, 5, 59, 64
1, 53939, Note_off_c, 0, 66, 64
1, 53940, Note_on_c, 0, 62, 80
1, 53940, Note_on_c, 0, 66, 62
1, 53940, Note_on_c, 0, 71, 91
1, 53940, Control_c, 1, 11, 127
1, 53940, Control_c, 2, 11, 127
1, 53940, Note_on_c, 4, 50, 103
1, 53940, Note_on_c, 4, 54, 115
1, 53940, Note_on_c, 9, 46, 120
1, 53940, Note_on_c, 9, 73, 119
1, 53969, Note_off_c, 9, 73, 64
1, 53969, Note_off_c, 4, 50, 64
1, 53969, Note_off_c, 9, 46, 64
1, 53969, Note_off_c, 0, 71, 64
1, 53969, Note_off_c, 4, 54, 64
1, 53969, Note_off_c, 0, 62, 64
1, 53969, Note_off_c, 0, 66, 64
1, 53970, Note_on_c, 0, 59, 51
1, 53970, Note_on_c, 0, 62, 85
1, 53970, Note_on_c, 0, 66, 59
1, 53970, Note_on_c, 4, 47, 92
1, 53970, Note_on_c, 4, 52, 98
1, 53970, Note_on_c, 5, 57, 91
1, 53970, Note_on_c, 5, 69, 91
1, 53970, Note_on_c, 6, 69, 120
1, 53970, Note_on_c, 11, 69, 120
1, 53999, Note_off_c, 11, 69, 64
1, 53999, Note_off_c, 0, 62, 64
1, 53999, Note_off_c, 2, 66, 64
1, 53999, Note_off_c, 4, 47, 64
1, 53999, Note_off_c, 1, 35, 64
1, 53999, Note_off_c, 2, 62, 64
1, 53999, Note_off_c, 2, 59, 64
1, 53999, Note_off_c, 0, 59, 64
1, 53999, Note_off_c, 5, 69, 64
1, 53999, Note_off_c, 4, 52, 64
1, 53999, Note_off_c, 0, 66, 64
1, 53999, Note_off_c, 6, 69, 64
1, 53999, Note_off_c, 5, 57, 64
1, 54000, Note_on_c, 0, 55, 74
1, 54000, Note_on_c, 0, 59, 94
1, 54000, Note_on_c, 0, 62, 91
1, 54000, Control_c, 1, 11, 64
1, 54000, Note_on_c, 1, 31, 120
1, 54000, Control_c, 2, 11, 71
1, 54000, Note_on_c, 2, 59, 120
1, 54000, Note_on_c, 2, 62, 120
1, 54000, Note_on_c, 2, 67, 120
1, 54000, Note_on_c, 4, 43, 98
1, 54000, Note_on_c, 4, 50, 116
1, 54000, Note_on_c, 5, 59, 97
1, 54000, Note_on_c, 5, 71, 97
1, 54000, Note_on_c, 6, 71, 120
1, 54000, Note_on_c, 9, 35, 120
1, 54000, Note_on_c, 9, 42, 120
1, 54000, Note_on_c, 9, 59, 116
1, 54000, Note_on_c, 11, 71, 120
1, 54029, Note_off_c, 11, 71, 64
1, 54029, Note_off_c, 9, 59, 64
1, 54029, Note_off_c, 6, 71, 64
1, 54029, Note_off_c, 5, 59, 64
1, 54029, Note_off_c, 9, 42, 64
1, 54029, Note_off_c, 5, 71, 64
1, 54029, Note_off_c, 9, 35, 64
1, 54030, Note_on_c, 5, 62, 80
1, 54030, Note_on_c, 5, 74, 80
1, 54030, Note_on_c, 6, 74, 120
1, 54030, Note_on_c, 11, 74, 120
1, 54059, Note_off_c, 11, 74, 64
1, 54059, Note_off_c, 4, 43, 64
1, 54059, Note_off_c, 0, 59, 64
1, 54059, Note_off_c, 0, 55, 64
1, 54059, Note_off_c, 4, 50, 64
1, 54059, Note_off_c, 5, 62, 64
1, 54059, Note_off_c, 0, 62, 64
1, 54059, Note_off_c, 6, 74, 64
1, 54059, Note_off_c, 5, 74, 64
1, 54060, Note_on_c, 0, 59, 70
1, 54060, Note_on_c, 0, 62, 94
1, 54060, Note_on_c, 0, 67, 101
1, 54060, Control_c, 1, 11, 127
1, 54060, Control_c, 2, 11, 127
1, 54060, Note_on_c, 4, 50, 79
1, 54060, Note_on_c, 4, 55, 111
1, 54060, Note_on_c, 4, 59, 100
1, 54060, Note_on_c, 5, 59, 113
1, 54060, Note_on_c, 5, 71, 113
1, 54060, Note_on_c, 6, 71, 120
1, 54060, Note_on_c, 9, 46, 120
1, 54060, Note_on_c, 9, 73, 119
1, 54060, Note_on_c, 11, 71, 120
1, 54089, Note_off_c, 9, 73, 64
1, 54089, Note_off_c, 9, 46, 64
1, 54119, Note_off_c, 5, 71, 64
1, 54119, Note_off_c, 11, 71, 64
1, 54119, Note_off_c, 1, 31, 64
1, 54119, Note_off_c, 5, 59, 64
1, 54119, Note_off_c, 6, 71, 64
1, 54120, Control_c, 1, 11, 64
1, 54120, Note_on_c, 1, 31, 120
1, 54120, Control_c, 2, 11, 80
1, 54120, Note_on_c, 9, 35, 120
1, 54120, Note_on_c, 9, 42, 120
1, 54120, Note_on_c, 9, 59, 120
1, 54149, Note_off_c, 9, 59, 64
1, 54149, Note_off_c, 4, 55, 64
1, 54149, Note_off_c, 0, 67, 64
1, 54149, Note_off_c, 4, 59, 64
1, 54149, Note_off_c, 0, 62, 64
1, 54149, Note_off_c, 0, 59, 64
1, 54149, Note_off_c, 4, 50, 64
1, 54149, Note_off_c, 9, 42, 64
1, 54149, Note_off_c, 9, 35, 64
1, 54150, Note_on_c, 0, 59, 52
1, 54150, Note_on_c, 0, 62, 85
1, 54150, Note_on_c, 0, 67, 94
1, 54150, Note_on_c, 4, 50, 82
1, 54150, Note_on_c, 4, 55, 98
1, 54150, Note_on_c, 4, 59, 85
1, 54150, Note_on_c, 5, 57, 98
1, 54150, Note_on_c, 5, 69, 98
1, 54150, Note_on_c, 6, 69, 120
1, 54150, Note_on_c, 11, 69, 120
1, 54179, Note_off_c, 11, 69, 64
1, 54179, Note_off_c, 0, 59, 64
1, 54179, Note_off_c, 0, 62, 64
1, 54179, Note_off_c, 4, 59, 64
1, 54179, Note_off_c, 4, 50, 64
1, 54179, Note_off_c, 0, 67, 64
1, 54179, Note_off_c, 4, 55, 64
1, 54179, Note_off_c, 6, 69, 64
1, 54179, Note_off_c, 5, 69, 64
1, 54179, Note_off_c, 5, 57, 64
1, 54180, Note_on_c, 0, 62, 78
1, 54180, Note_on_c, 0, 67, 100
1, 54180, Note_on_c, 0, 71, 46
1, 54180, Control_c, 1, 11, 127
1, 54180, Control_c, 2, 11, 127
1, 54180, Note_on_c, 4, 43, 109
1, 54180, Note_on_c, 4, 50, 109
1, 54180, Note_on_c, 5, 59, 101
1, 54180, Note_on_c, 5, 71, 101
1, 54180, Note_on_c, 6, 71, 120
1, 54180, Note_on_c, 9, 46, 120
1, 54180, Note_on_c, 9, 73, 115
1, 54180, Note_on_c, 11, 71, 120
1, 54209, Note_off_c, 11, 71, 64
1, 54209, Note_off_c, 6, 71, 64
1, 54209, Note_off_c, 0, 62, 64
1, 54209, Note_off_c, 0, 67, 64
1, 54209, Note_off_c, 5, 59, 64
1, 54209, Note_off_c, 4, 43, 64
1, 54209, Note_off_c, 0, 71, 64
1, 54209, Note_off_c, 4, 50, 64
1, 54209, Note_off_c, 9, 73, 64
1, 54209, Note_off_c, 9, 46, 64
1, 54209, Note_off_c, 5, 71, 64
1, 54210, Note_on_c, 0, 59, 45
1, 54210, Note_on_c, 0, 62, 73
1, 54210, Note_on_c, 0, 67, 86
1, 54210, Note_on_c, 4, 43, 101
1, 54210, Note_on_c, 4, 52, 116
1, 54210, Note_on_c, 5, 57, 91
1, 54210, Note_on_c, 5, 69, 91
1, 54210, Note_on_c, 6, 69, 120
1, 54210, Note_on_c, 11, 69, 120
1, 54239, Note_off_c, 11, 69, 64
1, 54239, Note_off_c, 0, 62, 64
1, 54239, Note_off_c, 2, 62, 64
1, 54239, Note_off_c, 4, 43, 64
1, 54239, Note_off_c, 2, 59, 64
1, 54239, Note_off_c, 2, 67, 64
1, 54239, Note_off_c, 1, 31, 64
1, 54239, Note_off_c, 0, 59, 64
1, 54239, Note_off_c, 5, 69, 64
1, 54239, Note_off_c, 4, 52, 64
1, 54239, Note_off_c, 0, 67, 64
1, 54239, Note_off_c, 6, 69, 64
1, 54239, Note_off_c, 5, 57, 64
1, 54240, Note_on_c, 0, 54, 35
1, 54240, Note_on_c, 0, 57, 85
1, 54240, Note_on_c, 0, 62, 79
1, 54240, Control_c, 1, 11, 64
1, 54240, Note_on_c, 1, 38, 120
1, 54240, Control_c, 2, 11, 64
1, 54240, Note_on_c, 2, 57, 120
1, 54240, Note_on_c, 2, 62, 120
1, 54240, Note_on_c, 2, 66, 120
1, 54240, Note_on_c, 4, 45, 90
1, 54240, Note_on_c, 4, 50, 105
1, 54240, Note_on_c, 5, 62, 105
1, 54240, Note_on_c, 5, 74, 105
1, 54240, Note_on_c, 6, 74, 120
1, 54240, Note_on_c, 9, 35, 120
1, 54240, Note_on_c, 9, 42, 120
1, 54240, Note_on_c, 9, 59, 111
1, 54240, Note_on_c, 11, 74, 120
1, 54269, Note_off_c, 9, 59, 64
1, 54269, Note_off_c, 9, 42, 64
1, 54269, Note_off_c, 9, 35, 64
1, 54299, Note_off_c, 11, 74, 64
1, 54299, Note_off_c, 5, 62, 64
1, 54299, Note_off_c, 0, 62, 64
1, 54299, Note_off_c, 4, 45, 64
1, 54299, Note_off_c, 0, 54, 64
1, 54299, Note_off_c, 4, 50, 64
1, 54299, Note_off_c, 5, 74, 64
1, 54299, Note_off_c, 6, 74, 64
1, 54299, Note_off_c, 0, 57, 64
1, 54300, Note_on_c, 0, 57, 69
1, 54300, Note_on_c, 0, 62, 98
1, 54300, Note_on_c, 0, 66, 74
1, 54300, Control_c, 1, 11, 127
1, 54300, Control_c, 2, 11, 127
1, 54300, Note_on_c, 4, 45, 100
1, 54300, Note_on_c, 4, 50, 111
1, 54300, Note_on_c, 4, 54, 89
1, 54300, Note_on_c, 9, 46, 120
1, 54300, Note_on_c, 9, 73, 119
1, 54329, Note_off_c, 9, 73, 64
1, 54329, Note_off_c, 9, 46, 64
1, 54359, Note_off_c, 1, 38, 64
1, 54360, Control_c, 1, 11, 64
1, 54360, Note_on_c, 1, 38, 120
1, 54360, Control_c, 2, 11, 73
1, 54360, Note_on_c, 5, 62, 119
1, 54360, Note_on_c, 5, 74, 119
1, 54360, Note_on_c, 6, 74, 120
1, 54360, Note_on_c, 9, 35, 120
1, 54360, Note_on_c, 9, 42, 120
1, 54360, Note_on_c, 9, 59, 119
1, 54360, Note_on_c, 11, 74, 120
1, 54389, Note_off_c, 9, 59, 64
1, 54389, Note_off_c, 9, 42, 64
1, 54389, Note_off_c, 4, 45, 64
1, 54389, Note_off_c, 0, 66, 64
1, 54389, Note_off_c, 0, 62, 64
1, 54389, Note_off_c, 0, 57, 64
1, 54389, Note_off_c, 4, 54, 64
1, 54389, Note_off_c, 9, 35, 64
1, 54389, Note_off_c, 4, 50, 64
1, 54390, Note_on_c, 0, 54, 44
1, 54390, Note_on_c, 0, 57, 78
1, 54390, Note_on_c, 0, 62, 58
1, 54390, Note_on_c, 4, 45, 85
1, 54390, Note_on_c, 4, 50, 105
1, 54390, Note_on_c, 4, 54, 81
1, 54419, Note_off_c, 4, 54, 64
1, 54419, Note_off_c, 5, 62, 64
1, 54419, Note_off_c, 6, 74, 64
1, 54419, Note_off_c, 0, 57, 64
1, 54419, Note_off_c, 11, 74, 64
1, 54419, Note_off_c, 5, 74, 64
1, 54419, Note_off_c, 0, 54, 64
1, 54419, Note_off_c, 4, 50, 64
1, 54419, Note_off_c, 4, 45, 64
1, 54419, Note_off_c, 0, 62, 64
1, 54420, Note_on_c, 0, 57, 57
1, 54420, Note_on_c, 0, 62, 91
1, 54420, Note_on_c, 0, 66, 77
1, 54420, Control_c, 1, 11, 127
1, 54420, Control_c, 2, 11, 127
1, 54420, Note_on_c, 4, 50, 109
1, 54420, Note_on_c, 4, 54, 89
1, 54420, Note_on_c, 4, 57, 109
1, 54420, Note_on_c, 9, 46, 120
1, 54420, Note_on_c, 9, 73, 119
1, 54449, Note_off_c, 9, 73, 64
1, 54449, Note_off_c, 4, 57, 64
1, 54449, Note_off_c, 4, 50, 64
1, 54449, Note_off_c, 0, 66, 64
1, 54449, Note_off_c, 4, 54, 64
1, 54449, Note_off_c, 9, 46, 64
1, 54449, Note_off_c, 0, 57, 64
1, 54449, Note_off_c, 0, 62, 64
1, 54450, Note_on_c, 0, 54, 35
1, 54450, Note_on_c, 0, 57, 79
1, 54450, Note_on_c, 0, 62, 56
1, 54450, Note_on_c, 4, 50, 111
1, 54450, Note_on_c, 4, 54, 100
1, 54450, Note_on_c, 4, 57, 100
1, 54450, Note_on_c, 5, 62, 103
1, 54450, Note_on_c, 5, 74, 103
1, 54450, Note_on_c, 6, 74, 120
1, 54450, Note_on_c, 11, 74, 120
1, 54479, Note_off_c, 11, 74, 64
1, 54479, Note_off_c, 0, 54, 64
1, 54479, Note_off_c, 0, 57, 64
1, 54479, Note_off_c, 4, 57, 64
1, 54479, Note_off_c, 4, 50, 64
1, 54479, Note_off_c, 0, 62, 64
1, 54479, Note_off_c, 1, 38, 64
1, 54479, Note_off_c, 4, 54, 64
1, 54479, Note_off_c, 5, 74, 64
1, 54479, Note_off_c, 5, 62, 64
1, 54479, Note_off_c, 6, 74, 64
1, 54480, Note_on_c, 0, 54, 49
1, 54480, Note_on_c, 0, 57, 85
1, 54480, Note_on_c, 0, 62, 75
1, 54480, Control_c, 1, 11, 64
1, 54480, Note_on_c, 1, 38, 120
1, 54480, Control_c, 2, 11, 71
1, 54480, Note_on_c, 4, 45, 105
1, 54480, Note_on_c, 4, 50, 116
1, 54480, Note_on_c, 5, 64, 95
1, 54480, Note_on_c, 5, 76, 95
1, 54480, Note_on_c, 6, 76, 120
1, 54480, Note_on_c, 9, 35, 120
1, 54480, Note_on_c, 9, 42, 120
1, 54480, Note_on_c, 9, 59, 116
1, 54480, Note_on_c, 11, 76, 120
1, 54509, Note_off_c, 11, 76, 64
1, 54509, Note_off_c, 9, 59, 64
1, 54509, Note_off_c, 6, 76, 64
1, 54509, Note_off_c, 5, 64, 64
1, 54509, Note_off_c, 9, 42, 64
1, 54509, Note_off_c, 5, 76, 64
1, 54509, Note_off_c, 9, 35, 64
1, 54510, Note_on_c, 5, 62, 86
1, 54510, Note_on_c, 5, 74, 86
1, 54510, Note_on_c, 6, 74, 120
1, 54510, Note_on_c, 11, 74, 120
1, 54539, Note_off_c, 11, 74, 64
1, 54539, Note_off_c, 4, 45, 64
1, 54539, Note_off_c, 0, 57, 64
1, 54539, Note_off_c, 0, 54, 64
1, 54539, Note_off_c, 4, 50, 64
1, 54539, Note_off_c, 5, 62, 64
1, 54539, Note_off_c, 0, 62, 64
1, 54539, Note_off_c, 6, 74, 64
1, 54539, Note_off_c, 5, 74, 64
1, 54540, Note_on_c, 0, 57, 56
1, 54540, Note_on_c, 0, 62, 84
1, 54540, Note_on_c, 0, 66, 49
1, 54540, Control_c, 1, 11, 127
1, 54540, Control_c, 2, 11, 127
1, 54540, Note_on_c, 4, 50, 105
1, 54540, Note_on_c, 4, 54, 115
1, 54540, Note_on_c, 5, 64, 98
1, 54540, Note_on_c, 5, 76, 98
1, 54540, Note_on_c, 6, 76, 120
1, 54540, Note_on_c, 9, 46, 120
1, 54540, Note_on_c, 9, 73, 119
1, 54540, Note_on_c, 11, 76, 120
1, 54569, Note_off_c, 9, 73, 64
1, 54569, Note_off_c, 4, 50, 64
1, 54569, Note_off_c, 0, 57, 64
1, 54569, Note_off_c, 0, 66, 64
1, 54569, Note_off_c, 9, 46, 64
1, 54569, Note_off_c, 0, 62, 64
1, 54569, Note_off_c, 4, 54, 64
1, 54570, Note_on_c, 0, 57, 84
1, 54570, Note_on_c, 0, 62, 94
1, 54570, Note_on_c, 0, 66, 76
1, 54570, Note_on_c, 4, 50, 100
1, 54570, Note_on_c, 4, 54, 92
1, 54590, Pitch_bend_c, 5, 8071
1, 54595, Pitch_bend_c, 5, 6296
1, 54598, Pitch_bend_c, 5, 4197
1, 54599, Note_off_c, 4, 54, 64
1, 54599, Note_off_c, 2, 62, 64
1, 54599, Note_off_c, 2, 66, 64
1, 54599, Note_off_c, 1, 38, 64
1, 54599, Note_off_c, 5, 76, 64
1, 54599, Note_off_c, 11, 76, 64
1, 54599, Note_off_c, 2, 57, 64
1, 54599, Note_off_c, 5, 64, 64
1, 54599, Note_off_c, 0, 66, 64
1, 54599, Note_off_c, 0, 57, 64
1, 54599, Note_off_c, 6, 76, 64
1, 54599, Note_off_c, 4, 50, 64
1, 54599, Note_off_c, 0, 62, 64
1, 54600, Note_on_c, 0, 52, 47
1, 54600, Note_on_c, 0, 57, 89
1, 54600, Note_on_c, 0, 61, 52
1, 54600, Control_c, 1, 11, 64
1, 54600, Note_on_c, 1, 30, 120
1, 54600, Control_c, 2, 11, 80
1, 54600, Note_on_c, 2, 57, 120
1, 54600, Note_on_c, 2, 61, 120
1, 54600, Note_on_c, 2, 66, 120
1, 54600, Note_on_c, 4, 45, 101
1, 54600, Note_on_c, 4, 52, 101
1, 54600, Note_on_c, 5, 66, 119
1, 54600, Note_on_c, 5, 78, 119
1, 54600, Pitch_bend_c, 5, 1776
1, 54600, Note_on_c, 6, 78, 120
1, 54600, Note_on_c, 9, 35, 120
1, 54600, Note_on_c, 9, 42, 120
1, 54600, Note_on_c, 9, 59, 120
1, 54600, Note_on_c, 11, 78, 120
1, 54603, Pitch_bend_c, 5, 0
1, 54620, Pitch_bend_c, 5, 646
1, 54623, Pitch_bend_c, 5, 2422
1, 54625, Pitch_bend_c, 5, 4520
1, 54628, Pitch_bend_c, 5, 6942
1, 54629, Note_off_c, 9, 59, 64
1, 54629, Note_off_c, 9, 42, 64
1, 54629, Note_off_c, 9, 35, 64
1, 54630, Pitch_bend_c, 5, 8192
1, 54659, Note_off_c, 11, 78, 64
1, 54659, Note_off_c, 5, 66, 64
1, 54659, Note_off_c, 0, 61, 64
1, 54659, Note_off_c, 4, 45, 64
1, 54659, Note_off_c, 0, 52, 64
1, 54659, Note_off_c, 4, 52, 64
1, 54659, Note_off_c, 5, 78, 64
1, 54659, Note_off_c, 6, 78, 64
1, 54659, Note_off_c, 0, 57, 64
1, 54660, Note_on_c, 0, 57, 51
1, 54660, Note_on_c, 0, 61, 52
1, 54660, Note_on_c, 0, 64, 78
1, 54660, Control_c, 1, 11, 127
1, 54660, Control_c, 2, 11, 127
1, 54660, Note_on_c, 4, 49, 89
1, 54660, Note_on_c, 4, 52, 101
1, 54660, Note_on_c, 4, 57, 89
1, 54660, Note_on_c, 5, 62, 111
1, 54660, Note_on_c, 5, 74, 111
1, 54660, Note_on_c, 6, 74, 120
1, 54660, Note_on_c, 9, 46, 120
1, 54660, Note_on_c, 9, 73, 115
1, 54660, Note_on_c, 11, 74, 120
1, 54689, Note_off_c, 9, 73, 64
1, 54689, Note_off_c, 4, 52, 64
1, 54689, Note_off_c, 0, 61, 64
1, 54689, Note_off_c, 0, 57, 64
1, 54689, Note_off_c, 0, 64, 64
1, 54689, Note_off_c, 4, 49, 64
1, 54689, Note_off_c, 9, 46, 64
1, 54689, Note_off_c, 4, 57, 64
1, 54690, Note_on_c, 0, 57, 73
1, 54690, Note_on_c, 0, 61, 52
1, 54690, Note_on_c, 0, 64, 83
1, 54690, Note_on_c, 4, 49, 119
1, 54690, Note_on_c, 4, 52, 118
1, 54690, Note_on_c, 4, 57, 105
1, 54719, Note_off_c, 4, 57, 64
1, 54719, Note_off_c, 5, 62, 64
1, 54719, Note_off_c, 1, 30, 64
1, 54719, Note_off_c, 6, 74, 64
1, 54719, Note_off_c, 2, 57, 64
1, 54719, Note_off_c, 5, 74, 64
1, 54719, Note_off_c, 2, 61, 64
1, 54719, Note_off_c, 11, 74, 64
1, 54719, Note_off_c, 4, 49, 64
1, 54719, Note_off_c, 0, 64, 64
1, 54719, Note_off_c, 0, 57, 64
1, 54719, Note_off_c, 2, 66, 64
1, 54719, Note_off_c, 4, 52, 64
1, 54719, Note_off_c, 0, 61, 64
1, 54720, Note_on_c, 0, 59, 58
1, 54720, Note_on_c, 0, 62, 91
1, 54720, Control_c, 1, 11, 64
1, 54720, Note_on_c, 1, 35, 120
1, 54720, Control_c, 2, 11, 64
1, 54720, Note_on_c, 2, 59, 120
1, 54720, Note_on_c, 2, 62, 120
1, 54720, Note_on_c, 2, 66, 120
1, 54720, Note_on_c, 4, 47, 85
1, 54720, Note_on_c, 4, 54, 120
1, 54720, Note_on_c, 5, 59, 120
1, 54720, Note_on_c, 5, 71, 120
1, 54720, Note_on_c, 6, 71, 120
1, 54720, Note_on_c, 9, 35, 120
1, 54720, Note_on_c, 9, 42, 120
1, 54720, Note_on_c, 9, 59, 120
1, 54720, Note_on_c, 11, 71, 120
1, 54749, Note_off_c, 9, 59, 64
1, 54749, Note_off_c, 9, 42, 64
1, 54749, Note_off_c, 9, 35, 64
1, 54779, Note_off_c, 5, 71, 64
1, 54779, Note_off_c, 4, 47, 64
1, 54779, Note_off_c, 4, 54, 64
1, 54779, Note_off_c, 0, 59, 64
1, 54779, Note_off_c, 5, 59, 64
1, 54779, Note_off_c, 6, 71, 64
1, 54779, Note_off_c, 11, 71, 64
1, 54779, Note_off_c, 0, 62, 64
1, 54780, Note_on_c, 0, 59, 79
1, 54780, Note_on_c, 0, 62, 95
1, 54780, Note_on_c, 0, 66, 74
1, 54780, Control_c, 1, 11, 127
1, 54780, Control_c, 2, 11, 127
1, 54780, Note_on_c, 4, 50, 92
1, 54780, Note_on_c, 4, 54, 87
1, 54780, Note_on_c, 4, 62, 95
1, 54780, Note_on_c, 9, 46, 120
1, 54780, Note_on_c, 9, 73, 119
1, 54809, Note_off_c, 9, 73, 64
1, 54809, Note_off_c, 9, 46, 64
1, 54839, Note_off_c, 1, 35, 64
1, 54840, Control_c, 1, 11, 64
1, 54840, Note_on_c, 1, 35, 120
1, 54840, Control_c, 2, 11, 73
1, 54840, Note_on_c, 5, 59, 120
1, 54840, Note_on_c, 5, 71, 120
1, 54840, Note_on_c, 6, 71, 120
1, 54840, Note_on_c, 9, 35, 120
1, 54840, Note_on_c, 9, 42, 120
1, 54840, Note_on_c, 9, 59, 116
1, 54840, Note_on_c, 11, 71, 120
1, 54869, Note_off_c, 9, 59, 64
1, 54869, Note_off_c, 9, 42, 64
1, 54869, Note_off_c, 4, 50, 64
1, 54869, Note_off_c, 0, 66, 64
1, 54869, Note_off_c, 0, 62, 64
1, 54869, Note_off_c, 0, 59, 64
1, 54869, Note_off_c, 4, 62, 64
1, 54869, Note_off_c, 9, 35, 64
1, 54869, Note_off_c, 4, 54, 64
1, 54870, Note_on_c, 0, 59, 71
1, 54870, Note_on_c, 0, 62, 91
1, 54870, Note_on_c, 0, 66, 60
1, 54870, Note_on_c, 4, 54, 109
1, 54870, Note_on_c, 4, 59, 95
1, 54899, Note_off_c, 4, 59, 64
1, 54899, Note_off_c, 6, 71, 64
1, 54899, Note_off_c, 0, 62, 64
1, 54899, Note_off_c, 11, 71, 64
1, 54899, Note_off_c, 5, 71, 64
1, 54899, Note_off_c, 0, 59, 64
1, 54899, Note_off_c, 4, 54, 64
1, 54899, Note_off_c, 5, 59, 64
1, 54899, Note_off_c, 0, 66, 64
1, 54900, Note_on_c, 0, 62, 80
1, 54900, Note_on_c, 0, 66, 62
1, 54900, Note_on_c, 0, 71, 91
1, 54900, Control_c, 1, 11, 127
1, 54900, Control_c, 2, 11, 127
1, 54900, Note_on_c, 4, 50, 103
1, 54900, Note_on_c, 4, 54, 115
1, 54900, Note_on_c, 9, 46, 119
1, 54900, Note_on_c, 9, 73, 119
1, 54929, Note_off_c, 9, 73, 64
1, 54929, Note_off_c, 4, 50, 64
1, 54929, Note_off_c, 9, 46, 64
1, 54929, Note_off_c, 0, 71, 64
1, 54929, Note_off_c, 4, 54, 64
1, 54929, Note_off_c, 0, 62, 64
1, 54929, Note_off_c, 0, 66, 64
1, 54930, Note_on_c, 0, 59, 51
1, 54930, Note_on_c, 0, 62, 85
1, 54930, Note_on_c, 0, 66, 59
1, 54930, Note_on_c, 4, 47, 92
1, 54930, Note_on_c, 4, 52, 98
1, 54930, Note_on_c, 5, 57, 98
1, 54930, Note_on_c, 5, 69, 98
1, 54930, Note_on_c, 6, 69, 120
1, 54930, Note_on_c, 11, 69, 120
1, 54959, Note_off_c, 11, 69, 64
1, 54959, Note_off_c, 0, 62, 64
1, 54959, Note_off_c, 2, 66, 64
1, 54959, Note_off_c, 4, 47, 64
1, 54959, Note_off_c, 1, 35, 64
1, 54959, Note_off_c, 2, 62, 64
1, 54959, Note_off_c, 2, 59, 64
1, 54959, Note_off_c, 0, 59, 64
1, 54959, Note_off_c, 5, 69, 64
1, 54959, Note_off_c, 4, 52, 64
1, 54959, Note_off_c, 0, 66, 64
1, 54959, Note_off_c, 6, 69, 64
1, 54959, Note_off_c, 5, 57, 64
1, 54960, Note_on_c, 0, 55, 74
1, 54960, Note_on_c, 0, 59, 94
1, 54960, Note_on_c, 0, 62, 91
1, 54960, Control_c, 1, 11, 64
1, 54960, Note_on_c, 1, 31, 120
1, 54960, Control_c, 2, 11, 71
1, 54960, Note_on_c, 2, 59, 120
1, 54960, Note_on_c, 2, 62, 120
1, 54960, Note_on_c, 2, 67, 120
1, 54960, Note_on_c, 4, 43, 98
1, 54960, Note_on_c, 4, 50, 116
1, 54960, Note_on_c, 5, 59, 98
1, 54960, Note_on_c, 5, 71, 98
1, 54960, Note_on_c, 6, 71, 120
1, 54960, Note_on_c, 9, 35, 120
1, 54960, Note_on_c, 9, 42, 120
1, 54960, Note_on_c, 9, 59, 118
1, 54960, Note_on_c, 11, 71, 120
1, 54989, Note_off_c, 11, 71, 64
1, 54989, Note_off_c, 9, 59, 64
1, 54989, Note_off_c, 6, 71, 64
1, 54989, Note_off_c, 5, 59, 64
1, 54989, Note_off_c, 9, 42, 64
1, 54989, Note_off_c, 5, 71, 64
1, 54989, Note_off_c, 9, 35, 64
1, 54990, Note_on_c, 5, 62, 54
1, 54990, Note_on_c, 5, 74, 54
1, 54990, Note_on_c, 6, 74, 120
1, 54990, Note_on_c, 11, 74, 120
1, 55019, Note_off_c, 11, 74, 64
1, 55019, Note_off_c, 4, 43, 64
1, 55019, Note_off_c, 0, 59, 64
1, 55019, Note_off_c, 0, 55, 64
1, 55019, Note_off_c, 4, 50, 64
1, 55019, Note_off_c, 5, 62, 64
1, 55019, Note_off_c, 0, 62, 64
1, 55019, Note_off_c, 6, 74, 64
1, 55019, Note_off_c, 5, 74, 64
1, 55020, Note_on_c, 0, 59, 70
1, 55020, Note_on_c, 0, 62, 94
1, 55020, Note_on_c, 0, 67, 101
1, 55020, Control_c, 1, 11, 127
1, 55020, Control_c, 2, 11, 127
1, 55020, Note_on_c, 4, 50, 79
1, 55020, Note_on_c, 4, 55, 111
1, 55020, Note_on_c, 4, 59, 100
1, 55020, Note_on_c, 5, 59, 116
1, 55020, Note_on_c, 5, 71, 116
1, 55020, Note_on_c, 6, 71, 120
1, 55020, Note_on_c, 9, 46, 120
1, 55020, Note_on_c, 9, 73, 109
1, 55020, Note_on_c, 11, 71, 120
1, 55049, Note_off_c, 9, 73, 64
1, 55049, Note_off_c, 9, 46, 64
1, 55079, Note_off_c, 5, 71, 64
1, 55079, Note_off_c, 11, 71, 64
1, 55079, Note_off_c, 1, 31, 64
1, 55079, Note_off_c, 5, 59, 64
1, 55079, Note_off_c, 6, 71, 64
1, 55080, Control_c, 1, 11, 64
1, 55080, Note_on_c, 1, 31, 120
1, 55080, Control_c, 2, 11, 80
1, 55080, Note_on_c, 9, 35, 120
1, 55080, Note_on_c, 9, 42, 120
1, 55080, Note_on_c, 9, 59, 116
1, 55109, Note_off_c, 9, 59, 64
1, 55109, Note_off_c, 4, 55, 64
1, 55109, Note_off_c, 0, 67, 64
1, 55109, Note_off_c, 4, 59, 64
1, 55109, Note_off_c, 0, 62, 64
1, 55109, Note_off_c, 0, 59, 64
1, 55109, Note_off_c, 4, 50, 64
1, 55109, Note_off_c, 9, 42, 64
1, 55109, Note_off_c, 9, 35, 64
1, 55110, Note_on_c, 0, 59, 52
1, 55110, Note_on_c, 0, 62, 85
1, 55110, Note_on_c, 0, 67, 94
1, 55110, Note_on_c, 4, 50, 82
1, 55110, Note_on_c, 4, 55, 98
1, 55110, Note_on_c, 4, 59, 85
1, 55110, Note_on_c, 5, 57, 83
1, 55110, Note_on_c, 5, 69, 83
1, 55110, Note_on_c, 6, 69, 120
1, 55110, Note_on_c, 11, 69, 120
1, 55139, Note_off_c, 11, 69, 64
1, 55139, Note_off_c, 0, 59, 64
1, 55139, Note_off_c, 0, 62, 64
1, 55139, Note_off_c, 4, 59, 64
1, 55139, Note_off_c, 4, 50, 64
1, 55139, Note_off_c, 0, 67, 64
1, 55139, Note_off_c, 4, 55, 64
1, 55139, Note_off_c, 6, 69, 64
1, 55139, Note_off_c, 5, 69, 64
1, 55139, Note_off_c, 5, 57, 64
1, 55140, Note_on_c, 0, 62, 78
1, 55140, Note_on_c, 0, 67, 100
1, 55140, Note_on_c, 0, 71, 46
1, 55140, Control_c, 1, 11, 127
1, 55140, Control_c, 2, 11, 127
1, 55140, Note_on_c, 4, 43, 109
1, 55140, Note_on_c, 4, 50, 109
1, 55140, Note_on_c, 5, 59, 98
1, 55140, Note_on_c, 5, 71, 98
1, 55140, Note_on_c, 6, 71, 120
1, 55140, Note_on_c, 9, 46, 120
1, 55140, Note_on_c, 9, 73, 115
1, 55140, Note_on_c, 11, 71, 120
1, 55169, Note_off_c, 11, 71, 64
1, 55169, Note_off_c, 6, 71, 64
1, 55169, Note_off_c, 0, 62, 64
1, 55169, Note_off_c, 0, 67, 64
1, 55169, Note_off_c, 5, 59, 64
1, 55169, Note_off_c, 4, 43, 64
1, 55169, Note_off_c, 0, 71, 64
1, 55169, Note_off_c, 4, 50, 64
1, 55169, Note_off_c, 9, 73, 64
1, 55169, Note_off_c, 9, 46, 64
1, 55169, Note_off_c, 5, 71, 64
1, 55170, Note_on_c, 0, 59, 45
1, 55170, Note_on_c, 0, 62, 73
1, 55170, Note_on_c, 0, 67, 86
1, 55170, Note_on_c, 4, 43, 101
1, 55170, Note_on_c, 4, 52, 116
1, 55170, Note_on_c, 5, 57, 94
1, 55170, Note_on_c, 5, 69, 94
1, 55170, Note_on_c, 6, 69, 120
1, 55170, Note_on_c, 11, 69, 120
1, 55199, Note_off_c, 11, 69, 64
1, 55199, Note_off_c, 0, 62, 64
1, 55199, Note_off_c, 2, 62, 64
1, 55199, Note_off_c, 4, 43, 64
1, 55199, Note_off_c, 2, 59, 64
1, 55199, Note_off_c, 2, 67, 64
1, 55199, Note_off_c, 1, 31, 64
1, 55199, Note_off_c, 0, 59, 64
1, 55199, Note_off_c, 5, 69, 64
1, 55199, Note_off_c, 4, 52, 64
1, 55199, Note_off_c, 0, 67, 64
1, 55199, Note_off_c, 6, 69, 64
1, 55199, Note_off_c, 5, 57, 64
1, 55200, Note_on_c, 0, 54, 35
1, 55200, Note_on_c, 0, 57, 85
1, 55200, Note_on_c, 0, 62, 79
1, 55200, Control_c, 1, 11, 64
1, 55200, Note_on_c, 1, 38, 120
1, 55200, Control_c, 2, 11, 64
1, 55200, Note_on_c, 2, 57, 120
1, 55200, Note_on_c, 2, 62, 120
1, 55200, Note_on_c, 2, 66, 120
1, 55200, Note_on_c, 4, 45, 90
1, 55200, Note_on_c, 4, 50, 105
1, 55200, Note_on_c, 5, 62, 120
1, 55200, Note_on_c, 5, 74, 120
1, 55200, Note_on_c, 6, 74, 120
1, 55200, Note_on_c, 9, 35, 120
1, 55200, Note_on_c, 9, 42, 120
1, 55200, Note_on_c, 9, 59, 116
1, 55200, Note_on_c, 11, 74, 120
1, 55229, Note_off_c, 9, 59, 64
1, 55229, Note_off_c, 9, 42, 64
1, 55229, Note_off_c, 9, 35, 64
1, 55259, Note_off_c, 11, 74, 64
1, 55259, Note_off_c, 5, 62, 64
1, 55259, Note_off_c, 0, 62, 64
1, 55259, Note_off_c, 4, 45, 64
1, 55259, Note_off_c, 0, 54, 64
1, 55259, Note_off_c, 4, 50, 64
1, 55259, Note_off_c, 5, 74, 64
1, 55259, Note_off_c, 6, 74, 64
1, 55259, Note_off_c, 0, 57, 64
1, 55260, Note_on_c, 0, 57, 69
1, 55260, Note_on_c, 0, 62, 98
1, 55260, Note_on_c, 0, 66, 74
1, 55260, Control_c, 1, 11, 127
1, 55260, Control_c, 2, 11, 127
1, 55260, Note_on_c, 4, 45, 100
1, 55260, Note_on_c, 4, 50, 111
1, 55260, Note_on_c, 4, 54, 89
1, 55260, Note_on_c, 9, 46, 120
1, 55260, Note_on_c, 9, 73, 109
1, 55289, Note_off_c, 9, 73, 64
1, 55289, Note_off_c, 9, 46, 64
1, 55319, Note_off_c, 1, 38, 64
1, 55320, Control_c, 1, 11, 64
1, 55320, Note_on_c, 1, 38, 120
1, 55320, Control_c, 2, 11, 73
1, 55320, Note_on_c, 5, 62, 120
1, 55320, Note_on_c, 5, 74, 120
1, 55320, Note_on_c, 6, 74, 120
1, 55320, Note_on_c, 9, 35, 120
1, 55320, Note_on_c, 9, 42, 120
1, 55320, Note_on_c, 9, 59, 116
1, 55320, Note_on_c, 11, 74, 120
1, 55349, Note_off_c, 9, 59, 64
1, 55349, Note_off_c, 9, 42, 64
1, 55349, Note_off_c, 4, 45, 64
1, 55349, Note_off_c, 0, 66, 64
1, 55349, Note_off_c, 0, 62, 64
1, 55349, Note_off_c, 0, 57, 64
1, 55349, Note_off_c, 4, 54, 64
1, 55349, Note_off_c, 9, 35, 64
1, 55349, Note_off_c, 4, 50, 64
1, 55350, Note_on_c, 0, 54, 44
1, 55350, Note_on_c, 0, 57, 78
1, 55350, Note_on_c, 0, 62, 58
1, 55350, Note_on_c, 4, 45, 85
1, 55350, Note_on_c, 4, 50, 105
1, 55350, Note_on_c, 4, 54, 81
1, 55379, Note_off_c, 4, 54, 64
1, 55379, Note_off_c, 5, 62, 64
1, 55379, Note_off_c, 6, 74, 64
1, 55379, Note_off_c, 0, 57, 64
1, 55379, Note_off_c, 11, 74, 64
1, 55379, Note_off_c, 5, 74, 64
1, 55379, Note_off_c, 0, 54, 64
1, 55379, Note_off_c, 4, 50, 64
1, 55379, Note_off_c, 4, 45, 64
1, 55379, Note_off_c, 0, 62, 64
1, 55380, Note_on_c, 0, 57, 57
1, 55380, Note_on_c, 0, 62, 91
1, 55380, Note_on_c, 0, 66, 77
1, 55380, Control_c, 1, 11, 127
1, 55380, Control_c, 2, 11, 127
1, 55380, Note_on_c, 4, 50, 109
1, 55380, Note_on_c, 4, 54, 89
1, 55380, Note_on_c, 4, 57, 109
1, 55380, Note_on_c, 9, 46, 120
1, 55380, Note_on_c, 9, 73, 119
1, 55409, Note_off_c, 9, 73, 64
1, 55409, Note_off_c, 4, 57, 64
1, 55409, Note_off_c, 4, 50, 64
1, 55409, Note_off_c, 0, 66, 64
1, 55409, Note_off_c, 4, 54, 64
1, 55409, Note_off_c, 9, 46, 64
1, 55409, Note_off_c, 0, 57, 64
1, 55409, Note_off_c, 0, 62, 64
1, 55410, Note_on_c, 0, 54, 35
1, 55410, Note_on_c, 0, 57, 79
1, 55410, Note_on_c, 0, 62, 56
1, 55410, Note_on_c, 4, 50, 111
1, 55410, Note_on_c, 4, 54, 100
1, 55410, Note_on_c, 4, 57, 100
1, 55410, Note_on_c, 5, 62, 89
1, 55410, Note_on_c, 5, 74, 89
1, 55410, Note_on_c, 6, 74, 120
1, 55410, Note_on_c, 11, 74, 120
1, 55439, Note_off_c, 11, 74, 64
1, 55439, Note_off_c, 0, 54, 64
1, 55439, Note_off_c, 0, 57, 64
1, 55439, Note_off_c, 4, 57, 64
1, 55439, Note_off_c, 4, 50, 64
1, 55439, Note_off_c, 0, 62, 64
1, 55439, Note_off_c, 1, 38, 64
1, 55439, Note_off_c, 4, 54, 64
1, 55439, Note_off_c, 5, 74, 64
1, 55439, Note_off_c, 5, 62, 64
1, 55439, Note_off_c, 6, 74, 64
1, 55440, Note_on_c, 0, 54, 49
1, 55440, Note_on_c, 0, 57, 85
1, 55440, Note_on_c, 0, 62, 75
1, 55440, Control_c, 1, 11, 64
1, 55440, Note_on_c, 1, 38, 120
1, 55440, Control_c, 2, 11, 71
1, 55440, Note_on_c, 4, 45, 105
1, 55440, Note_on_c, 4, 50, 116
1, 55440, Note_on_c, 5, 64, 81
1, 55440, Note_on_c, 5, 76, 81
1, 55440, Note_on_c, 6, 76, 120
1, 55440, Note_on_c, 9, 35, 120
1, 55440, Note_on_c, 9, 42, 120
1, 55440, Note_on_c, 9, 59, 118
1, 55440, Note_on_c, 11, 76, 120
1, 55469, Note_off_c, 11, 76, 64
1, 55469, Note_off_c, 9, 59, 64
1, 55469, Note_off_c, 6, 76, 64
1, 55469, Note_off_c, 5, 64, 64
1, 55469, Note_off_c, 9, 42, 64
1, 55469, Note_off_c, 5, 76, 64
1, 55469, Note_off_c, 9, 35, 64
1, 55470, Note_on_c, 5, 62, 95
1, 55470, Note_on_c, 5, 74, 95
1, 55470, Note_on_c, 6, 74, 120
1, 55470, Note_on_c, 11, 74, 120
1, 55499, Note_off_c, 11, 74, 64
1, 55499, Note_off_c, 4, 45, 64
1, 55499, Note_off_c, 0, 57, 64
1, 55499, Note_off_c, 0, 54, 64
1, 55499, Note_off_c, 4, 50, 64
1, 55499, Note_off_c, 5, 62, 64
1, 55499, Note_off_c, 0, 62, 64
1, 55499, Note_off_c, 6, 74, 64
1, 55499, Note_off_c, 5, 74, 64
1, 55500, Note_on_c, 0, 57, 56
1, 55500, Note_on_c, 0, 62, 84
1, 55500, Note_on_c, 0, 66, 49
1, 55500, Control_c, 1, 11, 127
1, 55500, Control_c, 2, 11, 127
1, 55500, Note_on_c, 4, 50, 105
1, 55500, Note_on_c, 4, 54, 115
1, 55500, Note_on_c, 5, 64, 111
1, 55500, Note_on_c, 5, 76, 111
1, 55500, Note_on_c, 6, 76, 120
1, 55500, Note_on_c, 9, 46, 120
1, 55500, Note_on_c, 9, 73, 115
1, 55500, Note_on_c, 11, 76, 120
1, 55529, Note_off_c, 9, 73, 64
1, 55529, Note_off_c, 4, 50, 64
1, 55529, Note_off_c, 0, 57, 64
1, 55529, Note_off_c, 0, 66, 64
1, 55529, Note_off_c, 9, 46, 64
1, 55529, Note_off_c, 0, 62, 64
1, 55529, Note_off_c, 4, 54, 64
1, 55530, Note_on_c, 0, 57, 84
1, 55530, Note_on_c, 0, 62, 94
1, 55530, Note_on_c, 0, 66, 76
1, 55530, Note_on_c, 4, 50, 100
1, 55530, Note_on_c, 4, 54, 92
1, 55551, Pitch_bend_c, 5, 7749
1, 55553, Pitch_bend_c, 5, 6215
1, 55556, Pitch_bend_c, 5, 4197
1, 55558, Pitch_bend_c, 5, 2422
1, 55559, Note_off_c, 4, 54, 64
1, 55559, Note_off_c, 2, 62, 64
1, 55559, Note_off_c, 2, 66, 64
1, 55559, Note_off_c, 1, 38, 64
1, 55559, Note_off_c, 5, 76, 64
1, 55559, Note_off_c, 11, 76, 64
1, 55559, Note_off_c, 2, 57, 64
1, 55559, Note_off_c, 5, 64, 64
1, 55559, Note_off_c, 0, 66, 64
1, 55559, Note_off_c, 0, 57, 64
1, 55559, Note_off_c, 6, 76, 64
1, 55559, Note_off_c, 4, 50, 64
1, 55559, Note_off_c, 0, 62, 64
1, 55560, Note_on_c, 0, 52, 47
1, 55560, Note_on_c, 0, 57, 89
1, 55560, Note_on_c, 0, 61, 52
1, 55560, Control_c, 1, 11, 64
1, 55560, Note_on_c, 1, 33, 120
1, 55560, Control_c, 2, 11, 80
1, 55560, Note_on_c, 2, 57, 120
1, 55560, Note_on_c, 2, 61, 120
1, 55560, Note_on_c, 2, 64, 120
1, 55560, Note_on_c, 4, 45, 101
1, 55560, Note_on_c, 4, 52, 101
1, 55560, Note_on_c, 5, 66, 119
1, 55560, Note_on_c, 5, 78, 119
1, 55560, Note_on_c, 6, 78, 120
1, 55560, Note_on_c, 9, 35, 120
1, 55560, Note_on_c, 9, 42, 120
1, 55560, Note_on_c, 9, 59, 119
1, 55560, Note_on_c, 11, 78, 120
1, 55561, Pitch_bend_c, 5, 1211
1, 55563, Pitch_bend_c, 5, 646
1, 55566, Pitch_bend_c, 5, 565
1, 55568, Pitch_bend_c, 5, 646
1, 55571, Pitch_bend_c, 5, 1373
1, 55573, Pitch_bend_c, 5, 2260
1, 55576, Pitch_bend_c, 5, 3471
1, 55578, Pitch_bend_c, 5, 5085
1, 55581, Pitch_bend_c, 5, 6942
1, 55583, Pitch_bend_c, 5, 8071
1, 55586, Pitch_bend_c, 5, 8192
1, 55589, Note_off_c, 9, 59, 64
1, 55589, Note_off_c, 9, 42, 64
1, 55589, Note_off_c, 9, 35, 64
1, 55619, Note_off_c, 11, 78, 64
1, 55619, Note_off_c, 5, 66, 64
1, 55619, Note_off_c, 0, 61, 64
1, 55619, Note_off_c, 4, 45, 64
1, 55619, Note_off_c, 0, 52, 64
1, 55619, Note_off_c, 4, 52, 64
1, 55619, Note_off_c, 5, 78, 64
1, 55619, Note_off_c, 6, 78, 64
1, 55619, Note_off_c, 0, 57, 64
1, 55620, Note_on_c, 0, 57, 51
1, 55620, Note_on_c, 0, 61, 52
1, 55620, Note_on_c, 0, 64, 78
1, 55620, Control_c, 1, 11, 127
1, 55620, Control_c, 2, 11, 127
1, 55620, Note_on_c, 4, 49, 89
1, 55620, Note_on_c, 4, 52, 101
1, 55620, Note_on_c, 4, 57, 89
1, 55620, Note_on_c, 5, 62, 98
1, 55620, Note_on_c, 5, 74, 98
1, 55620, Note_on_c, 6, 74, 120
1, 55620, Note_on_c, 9, 46, 120
1, 55620, Note_on_c, 9, 73, 111
1, 55620, Note_on_c, 11, 74, 120
1, 55649, Note_off_c, 9, 73, 64
1, 55649, Note_off_c, 4, 52, 64
1, 55649, Note_off_c, 0, 61, 64
1, 55649, Note_off_c, 0, 57, 64
1, 55649, Note_off_c, 0, 64, 64
1, 55649, Note_off_c, 4, 49, 64
1, 55649, Note_off_c, 9, 46, 64
1, 55649, Note_off_c, 4, 57, 64
1, 55650, Note_on_c, 0, 57, 73
1, 55650, Note_on_c, 0, 61, 52
1, 55650, Note_on_c, 0, 64, 83
1, 55650, Note_on_c, 4, 49, 119
1, 55650, Note_on_c, 4, 52, 118
1, 55650, Note_on_c, 4, 57, 105
1, 55679, Note_off_c, 4, 57, 64
1, 55679, Note_off_c, 5, 62, 64
1, 55679, Note_off_c, 1, 33, 64
1, 55679, Note_off_c, 6, 74, 64
1, 55679, Note_off_c, 2, 57, 64
1, 55679, Note_off_c, 5, 74, 64
1, 55679, Note_off_c, 2, 61, 64
1, 55679, Note_off_c, 11, 74, 64
1, 55679, Note_off_c, 4, 49, 64
1, 55679, Note_off_c, 0, 64, 64
1, 55679, Note_off_c, 0, 57, 64
1, 55679, Note_off_c, 2, 64, 64
1, 55679, Note_off_c, 4, 52, 64
1, 55679, Note_off_c, 0, 61, 64
1, 55680, Note_on_c, 0, 59, 58
1, 55680, Note_on_c, 0, 62, 91
1, 55680, Control_c, 1, 11, 64
1, 55680, Note_on_c, 1, 35, 120
1, 55680, Control_c, 2, 11, 64
1, 55680, Note_on_c, 2, 59, 120
1, 55680, Note_on_c, 2, 62, 120
1, 55680, Note_on_c, 2, 66, 120
1, 55680, Note_on_c, 4, 47, 85
1, 55680, Note_on_c, 4, 54, 120
1, 55680, Note_on_c, 5, 59, 105
1, 55680, Note_on_c, 5, 71, 105
1, 55680, Note_on_c, 6, 71, 120
1, 55680, Note_on_c, 9, 35, 120
1, 55680, Note_on_c, 9, 42, 120
1, 55680, Note_on_c, 9, 59, 119
1, 55680, Note_on_c, 11, 71, 120
1, 55709, Note_off_c, 9, 59, 64
1, 55709, Note_off_c, 9, 42, 64
1, 55709, Note_off_c, 9, 35, 64
1, 55739, Note_off_c, 5, 71, 64
1, 55739, Note_off_c, 4, 47, 64
1, 55739, Note_off_c, 4, 54, 64
1, 55739, Note_off_c, 0, 59, 64
1, 55739, Note_off_c, 5, 59, 64
1, 55739, Note_off_c, 6, 71, 64
1, 55739, Note_off_c, 11, 71, 64
1, 55739, Note_off_c, 0, 62, 64
1, 55740, Note_on_c, 0, 59, 79
1, 55740, Note_on_c, 0, 62, 95
1, 55740, Note_on_c, 0, 66, 74
1, 55740, Control_c, 1, 11, 127
1, 55740, Control_c, 2, 11, 127
1, 55740, Note_on_c, 4, 50, 92
1, 55740, Note_on_c, 4, 54, 87
1, 55740, Note_on_c, 4, 62, 95
1, 55740, Note_on_c, 9, 46, 120
1, 55740, Note_on_c, 9, 73, 109
1, 55769, Note_off_c, 9, 73, 64
1, 55769, Note_off_c, 9, 46, 64
1, 55799, Note_off_c, 1, 35, 64
1, 55800, Control_c, 1, 11, 64
1, 55800, Note_on_c, 1, 35, 120
1, 55800, Control_c, 2, 11, 73
1, 55800, Note_on_c, 5, 59, 119
1, 55800, Note_on_c, 5, 71, 119
1, 55800, Note_on_c, 6, 71, 120
1, 55800, Note_on_c, 9, 35, 120
1, 55800, Note_on_c, 9, 42, 120
1, 55800, Note_on_c, 9, 59, 118
1, 55800, Note_on_c, 11, 71, 120
1, 55829, Note_off_c, 9, 59, 64
1, 55829, Note_off_c, 9, 42, 64
1, 55829, Note_off_c, 4, 50, 64
1, 55829, Note_off_c, 0, 66, 64
1, 55829, Note_off_c, 0, 62, 64
1, 55829, Note_off_c, 0, 59, 64
1, 55829, Note_off_c, 4, 62, 64
1, 55829, Note_off_c, 9, 35, 64
1, 55829, Note_off_c, 4, 54, 64
1, 55830, Note_on_c, 0, 59, 71
1, 55830, Note_on_c, 0, 62, 91
1, 55830, Note_on_c, 0, 66, 60
1, 55830, Note_on_c, 4, 54, 109
1, 55830, Note_on_c, 4, 59, 95
1, 55859, Note_off_c, 4, 59, 64
1, 55859, Note_off_c, 6, 71, 64
1, 55859, Note_off_c, 0, 62, 64
1, 55859, Note_off_c, 11, 71, 64
1, 55859, Note_off_c, 5, 71, 64
1, 55859, Note_off_c, 0, 59, 64
1, 55859, Note_off_c, 4, 54, 64
1, 55859, Note_off_c, 5, 59, 64
1, 55859, Note_off_c, 0, 66, 64
1, 55860, Note_on_c, 0, 62, 80
1, 55860, Note_on_c, 0, 66, 62
1, 55860, Note_on_c, 0, 71, 91
1, 55860, Control_c, 1, 11, 127
1, 55860, Control_c, 2, 11, 127
1, 55860, Note_on_c, 4, 50, 103
1, 55860, Note_on_c, 4, 54, 115
1, 55860, Note_on_c, 9, 46, 120
1, 55860, Note_on_c, 9, 73, 119
1, 55889, Note_off_c, 9, 73, 64
1, 55889, Note_off_c, 4, 50, 64
1, 55889, Note_off_c, 9, 46, 64
1, 55889, Note_off_c, 0, 71, 64
1, 55889, Note_off_c, 4, 54, 64
1, 55889, Note_off_c, 0, 62, 64
1, 55889, Note_off_c, 0, 66, 64
1, 55890, Note_on_c, 0, 59, 51
1, 55890, Note_on_c, 0, 62, 85
1, 55890, Note_on_c, 0, 66, 59
1, 55890, Note_on_c, 4, 47, 92
1, 55890, Note_on_c, 4, 52, 98
1, 55890, Note_on_c, 5, 57, 91
1, 55890, Note_on_c, 5, 69, 91
1, 55890, Note_on_c, 6, 69, 120
1, 55890, Note_on_c, 11, 69, 120
1, 55919, Note_off_c, 11, 69, 64
1, 55919, Note_off_c, 0, 62, 64
1, 55919, Note_off_c, 2, 66, 64
1, 55919, Note_off_c, 4, 47, 64
1, 55919, Note_off_c, 1, 35, 64
1, 55919, Note_off_c, 2, 62, 64
1, 55919, Note_off_c, 2, 59, 64
1, 55919, Note_off_c, 0, 59, 64
1, 55919, Note_off_c, 5, 69, 64
1, 55919, Note_off_c, 4, 52, 64
1, 55919, Note_off_c, 0, 66, 64
1, 55919, Note_off_c, 6, 69, 64
1, 55919, Note_off_c, 5, 57, 64
1, 55920, Note_on_c, 0, 55, 74
1, 55920, Note_on_c, 0, 59, 94
1, 55920, Note_on_c, 0, 62, 91
1, 55920, Control_c, 1, 11, 64
1, 55920, Note_on_c, 1, 31, 120
1, 55920, Control_c, 2, 11, 71
1, 55920, Note_on_c, 2, 59, 120
1, 55920, Note_on_c, 2, 62, 120
1, 55920, Note_on_c, 2, 67, 120
1, 55920, Note_on_c, 4, 43, 98
1, 55920, Note_on_c, 4, 50, 116
1, 55920, Note_on_c, 5, 59, 97
1, 55920, Note_on_c, 5, 71, 97
1, 55920, Note_on_c, 6, 71, 120
1, 55920, Note_on_c, 9, 35, 120
1, 55920, Note_on_c, 9, 42, 120
1, 55920, Note_on_c, 9, 59, 116
1, 55920, Note_on_c, 11, 71, 120
1, 55949, Note_off_c, 11, 71, 64
1, 55949, Note_off_c, 9, 59, 64
1, 55949, Note_off_c, 6, 71, 64
1, 55949, Note_off_c, 5, 59, 64
1, 55949, Note_off_c, 9, 42, 64
1, 55949, Note_off_c, 5, 71, 64
1, 55949, Note_off_c, 9, 35, 64
1, 55950, Note_on_c, 5, 62, 80
1, 55950, Note_on_c, 5, 74, 80
1, 55950, Note_on_c, 6, 74, 120
1, 55950, Note_on_c, 11, 74, 120
1, 55979, Note_off_c, 11, 74, 64
1, 55979, Note_off_c, 4, 43, 64
1, 55979, Note_off_c, 0, 59, 64
1, 55979, Note_off_c, 0, 55, 64
1, 55979, Note_off_c, 4, 50, 64
1, 55979, Note_off_c, 5, 62, 64
1, 55979, Note_off_c, 0, 62, 64
1, 55979, Note_off_c, 6, 74, 64
1, 55979, Note_off_c, 5, 74, 64
1, 55980, Note_on_c, 0, 59, 70
1, 55980, Note_on_c, 0, 62, 94
1, 55980, Note_on_c, 0, 67, 101
1, 55980, Control_c, 1, 11, 127
1, 55980, Control_c, 2, 11, 127
1, 55980, Note_on_c, 4, 50, 79
1, 55980, Note_on_c, 4, 55, 111
1, 55980, Note_on_c, 4, 59, 100
1, 55980, Note_on_c, 5, 59, 113
1, 55980, Note_on_c, 5, 71, 113
1, 55980, Note_on_c, 6, 71, 120
1, 55980, Note_on_c, 9, 46, 120
1, 55980, Note_on_c, 9, 73, 119
1, 55980, Note_on_c, 11, 71, 120
1, 56009, Note_off_c, 9, 73, 64
1, 56009, Note_off_c, 9, 46, 64
1, 56039, Note_off_c, 5, 71, 64
1, 56039, Note_off_c, 11, 71, 64
1, 56039, Note_off_c, 1, 31, 64
1, 56039, Note_off_c, 5, 59, 64
1, 56039, Note_off_c, 6, 71, 64
1, 56040, Control_c, 1, 11, 64
1, 56040, Note_on_c, 1, 31, 120
1, 56040, Control_c, 2, 11, 80
1, 56040, Note_on_c, 9, 35, 120
1, 56040, Note_on_c, 9, 42, 120
1, 56040, Note_on_c, 9, 59, 120
1, 56069, Note_off_c, 9, 59, 64
1, 56069, Note_off_c, 4, 55, 64
1, 56069, Note_off_c, 0, 67, 64
1, 56069, Note_off_c, 4, 59, 64
1, 56069, Note_off_c, 0, 62, 64
1, 56069, Note_off_c, 0, 59, 64
1, 56069, Note_off_c, 4, 50, 64
1, 56069, Note_off_c, 9, 42, 64
1, 56069, Note_off_c, 9, 35, 64
1, 56070, Note_on_c, 0, 59, 52
1, 56070, Note_on_c, 0, 62, 85
1, 56070, Note_on_c, 0, 67, 94
1, 56070, Note_on_c, 4, 50, 82
1, 56070, Note_on_c, 4, 55, 98
1, 56070, Note_on_c, 4, 59, 85
1, 56070, Note_on_c, 5, 57, 98
1, 56070, Note_on_c, 5, 69, 98
1, 56070, Note_on_c, 6, 69, 120
1, 56070, Note_on_c, 11, 69, 120
1, 56099, Note_off_c, 11, 69, 64
1, 56099, Note_off_c, 0, 59, 64
1, 56099, Note_off_c, 0, 62, 64
1, 56099, Note_off_c, 4, 59, 64
1, 56099, Note_off_c, 4, 50, 64
1, 56099, Note_off_c, 0, 67, 64
1, 56099, Note_off_c, 4, 55, 64
1, 56099, Note_off_c, 6, 69, 64
1, 56099, Note_off_c, 5, 69, 64
1, 56099, Note_off_c, 5, 57, 64
1, 56100, Note_on_c, 0, 62, 78
1, 56100, Note_on_c, 0, 67, 100
1, 56100, Note_on_c, 0, 71, 46
1, 56100, Control_c, 1, 11, 127
1, 56100, Control_c, 2, 11, 127
1, 56100, Note_on_c, 4, 43, 109
1, 56100, Note_on_c, 4, 50, 109
1, 56100, Note_on_c, 5, 59, 101
1, 56100, Note_on_c, 5, 71, 101
1, 56100, Note_on_c, 6, 71, 120
1, 56100, Note_on_c, 9, 46, 120
1, 56100, Note_on_c, 9, 73, 115
1, 56100, Note_on_c, 11, 71, 120
1, 56129, Note_off_c, 11, 71, 64
1, 56129, Note_off_c, 6, 71, 64
1, 56129, Note_off_c, 0, 62, 64
1, 56129, Note_off_c, 0, 67, 64
1, 56129, Note_off_c, 5, 59, 64
1, 56129, Note_off_c, 4, 43, 64
1, 56129, Note_off_c, 0, 71, 64
1, 56129, Note_off_c, 4, 50, 64
1, 56129, Note_off_c, 9, 73, 64
1, 56129, Note_off_c, 9, 46, 64
1, 56129, Note_off_c, 5, 71, 64
1, 56130, Note_on_c, 0, 59, 45
1, 56130, Note_on_c, 0, 62, 73
1, 56130, Note_on_c, 0, 67, 86
1, 56130, Note_on_c, 4, 43, 101
1, 56130, Note_on_c, 4, 52, 116
1, 56130, Note_on_c, 5, 57, 91
1, 56130, Note_on_c, 5, 69, 91
1, 56130, Note_on_c, 6, 69, 120
1, 56130, Note_on_c, 11, 69, 120
1, 56159, Note_off_c, 11, 69, 64
1, 56159, Note_off_c, 0, 62, 64
1, 56159, Note_off_c, 2, 62, 64
1, 56159, Note_off_c, 4, 43, 64
1, 56159, Note_off_c, 2, 59, 64
1, 56159, Note_off_c, 2, 67, 64
1, 56159, Note_off_c, 1, 31, 64
1, 56159, Note_off_c, 0, 59, 64
1, 56159, Note_off_c, 5, 69, 64
1, 56159, Note_off_c, 4, 52, 64
1, 56159, Note_off_c, 0, 67, 64
1, 56159, Note_off_c, 6, 69, 64
1, 56159, Note_off_c, 5, 57, 64
1, 56160, Note_on_c, 0, 54, 35
1, 56160, Note_on_c, 0, 57, 85
1, 56160, Note_on_c, 0, 62, 79
1, 56160, Control_c, 1, 11, 64
1, 56160, Control_c, 2, 11, 64
1, 56160, Note_on_c, 2, 57, 120
1, 56160, Note_on_c, 2, 62, 120
1, 56160, Note_on_c, 2, 66, 120
1, 56160, Note_on_c, 4, 45, 90
1, 56160, Note_on_c, 4, 50, 105
1, 56160, Note_on_c, 5, 62, 105
1, 56160, Note_on_c, 5, 74, 105
1, 56160, Note_on_c, 6, 74, 120
1, 56160, Note_on_c, 8, 50, 120
1, 56160, Note_on_c, 8, 62, 120
1, 56160, Note_on_c, 9, 42, 120
1, 56160, Note_on_c, 9, 59, 111
1, 56160, Note_on_c, 11, 74, 120
1, 56189, Note_off_c, 9, 59, 64
1, 56189, Note_off_c, 9, 42, 64
1, 56219, Note_off_c, 0, 62, 64
1, 56219, Note_off_c, 11, 74, 64
1, 56219, Note_off_c, 5, 74, 64
1, 56219, Note_off_c, 4, 45, 64
1, 56219, Note_off_c, 4, 50, 64
1, 56219, Note_off_c, 0, 54, 64
1, 56219, Note_off_c, 5, 62, 64
1, 56219, Note_off_c, 6, 74, 64
1, 56219, Note_off_c, 0, 57, 64
1, 56220, Note_on_c, 0, 57, 69
1, 56220, Note_on_c, 0, 62, 98
1, 56220, Note_on_c, 0, 66, 74
1, 56220, Control_c, 1, 11, 127
1, 56220, Control_c, 2, 11, 127
1, 56220, Note_on_c, 4, 45, 100
1, 56220, Note_on_c, 4, 50, 111
1, 56220, Note_on_c, 4, 54, 89
1, 56220, Note_on_c, 9, 46, 120
1, 56220, Note_on_c, 9, 73, 119
1, 56220, Control_c, 12, 11, 95
1, 56249, Note_off_c, 9, 73, 64
1, 56249, Note_off_c, 9, 46, 64
1, 56280, Control_c, 1, 11, 64
1, 56280, Control_c, 2, 11, 73
1, 56280, Note_on_c, 5, 62, 119
1, 56280, Note_on_c, 5, 74, 119
1, 56280, Note_on_c, 6, 74, 120
1, 56280, Note_on_c, 9, 42, 120
1, 56280, Note_on_c, 9, 59, 119
1, 56280, Note_on_c, 11, 74, 120
1, 56280, Note_on_c, 12, 72, 120
1, 56295, Control_c, 12, 74, 123
1, 56309, Note_off_c, 9, 59, 64
1, 56309, Note_off_c, 9, 42, 64
1, 56309, Note_off_c, 0, 62, 64
1, 56309, Note_off_c, 4, 45, 64
1, 56309, Note_off_c, 0, 66, 64
1, 56309, Note_off_c, 4, 50, 64
1, 56309, Note_off_c, 4, 54, 64
1, 56309, Note_off_c, 0, 57, 64
1, 56310, Note_on_c, 0, 54, 44
1, 56310, Note_on_c, 0, 57, 78
1, 56310, Note_on_c, 0, 62, 58
1, 56310, Note_on_c, 4, 45, 85
1, 56310, Note_on_c, 4, 50, 105
1, 56310, Note_on_c, 4, 54, 81
1, 56310, Control_c, 12, 74, 120
1, 56325, Control_c, 12, 74, 117
1, 56339, Note_off_c, 4, 54, 64
1, 56339, Note_off_c, 4, 50, 64
1, 56339, Note_off_c, 0, 57, 64
1, 56339, Note_off_c, 5, 74, 64
1, 56339, Note_off_c, 5, 62, 64
1, 56339, Note_off_c, 6, 74, 64
1, 56339, Note_off_c, 11, 74, 64
1, 56339, Note_off_c, 4, 45, 64
1, 56339, Note_off_c, 0, 54, 64
1, 56339, Note_off_c, 0, 62, 64
1, 56340, Note_on_c, 0, 57, 57
1, 56340, Note_on_c, 0, 62, 91
1, 56340, Note_on_c, 0, 66, 77
1, 56340, Control_c, 1, 11, 127
1, 56340, Control_c, 2, 11, 127
1, 56340, Note_on_c, 4, 50, 109
1, 56340, Note_on_c, 4, 54, 89
1, 56340, Note_on_c, 4, 57, 109
1, 56340, Note_on_c, 9, 46, 120
1, 56340, Note_on_c, 9, 73, 119
1, 56340, Control_c, 12, 74, 114
1, 56355, Control_c, 12, 74, 111
1, 56369, Note_off_c, 9, 73, 64
1, 56369, Note_off_c, 4, 50, 64
1, 56369, Note_off_c, 0, 57, 64
1, 56369, Note_off_c, 0, 66, 64
1, 56369, Note_off_c, 0, 62, 64
1, 56369, Note_off_c, 9, 46, 64
1, 56369, Note_off_c, 4, 54, 64
1, 56369, Note_off_c, 4, 57, 64
1, 56370, Note_on_c, 0, 54, 35
1, 56370, Note_on_c, 0, 57, 79
1, 56370, Note_on_c, 0, 62, 56
1, 56370, Note_on_c, 4, 50, 111
1, 56370, Note_on_c, 4, 54, 100
1, 56370, Note_on_c, 4, 57, 100
1, 56370, Note_on_c, 5, 62, 103
1, 56370, Note_on_c, 5, 74, 103
1, 56370, Note_on_c, 6, 74, 120
1, 56370, Note_on_c, 11, 74, 120
1, 56370, Control_c, 12, 74, 107
1, 56385, Control_c, 12, 74, 104
1, 56399, Note_off_c, 11, 74, 64
1, 56399, Note_off_c, 6, 74, 64
1, 56399, Note_off_c, 4, 57, 64
1, 56399, Note_off_c, 4, 50, 64
1, 56399, Note_off_c, 0, 54, 64
1, 56399, Note_off_c, 0, 62, 64
1, 56399, Note_off_c, 0, 57, 64
1, 56399, Note_off_c, 5, 74, 64
1, 56399, Note_off_c, 4, 54, 64
1, 56399, Note_off_c, 5, 62, 64
1, 56400, Note_on_c, 0, 54, 49
1, 56400, Note_on_c, 0, 57, 85
1, 56400, Note_on_c, 0, 62, 75
1, 56400, Control_c, 1, 11, 64
1, 56400, Control_c, 2, 11, 71
1, 56400, Note_on_c, 4, 45, 105
1, 56400, Note_on_c, 4, 50, 116
1, 56400, Note_on_c, 5, 64, 95
1, 56400, Note_on_c, 5, 76, 95
1, 56400, Note_on_c, 6, 76, 120
1, 56400, Note_on_c, 9, 42, 120
1, 56400, Note_on_c, 9, 59, 116
1, 56400, Note_on_c, 11, 76, 120
1, 56400, Control_c, 12, 74, 101
1, 56415, Control_c, 12, 74, 98
1, 56429, Note_off_c, 11, 76, 64
1, 56429, Note_off_c, 9, 59, 64
1, 56429, Note_off_c, 9, 42, 64
1, 56429, Note_off_c, 5, 64, 64
1, 56429, Note_off_c, 6, 76, 64
1, 56429, Note_off_c, 5, 76, 64
1, 56430, Note_on_c, 5, 62, 86
1, 56430, Note_on_c, 5, 74, 86
1, 56430, Note_on_c, 6, 74, 120
1, 56430, Note_on_c, 11, 74, 120
1, 56430, Control_c, 12, 74, 95
1, 56445, Control_c, 12, 74, 92
1, 56459, Note_off_c, 11, 74, 64
1, 56459, Note_off_c, 5, 62, 64
1, 56459, Note_off_c, 4, 45, 64
1, 56459, Note_off_c, 4, 50, 64
1, 56459, Note_off_c, 0, 62, 64
1, 56459, Note_off_c, 0, 57, 64
1, 56459, Note_off_c, 6, 74, 64
1, 56459, Note_off_c, 0, 54, 64
1, 56459, Note_off_c, 5, 74, 64
1, 56460, Note_on_c, 0, 57, 56
1, 56460, Note_on_c, 0, 62, 84
1, 56460, Note_on_c, 0, 66, 49
1, 56460, Control_c, 1, 11, 127
1, 56460, Control_c, 2, 11, 127
1, 56460, Note_on_c, 4, 50, 105
1, 56460, Note_on_c, 4, 54, 115
1, 56460, Note_on_c, 5, 64, 98
1, 56460, Note_on_c, 5, 76, 98
1, 56460, Note_on_c, 6, 76, 120
1, 56460, Note_on_c, 9, 46, 120
1, 56460, Note_on_c, 9, 73, 119
1, 56460, Note_on_c, 11, 76, 120
1, 56460, Control_c, 12, 74, 88
1, 56475, Control_c, 12, 74, 85
1, 56489, Note_off_c, 9, 73, 64
1, 56489, Note_off_c, 9, 46, 64
1, 56489, Note_off_c, 4, 50, 64
1, 56489, Note_off_c, 0, 57, 64
1, 56489, Note_off_c, 0, 66, 64
1, 56489, Note_off_c, 0, 62, 64
1, 56489, Note_off_c, 4, 54, 64
1, 56490, Note_on_c, 0, 57, 84
1, 56490, Note_on_c, 0, 62, 94
1, 56490, Note_on_c, 0, 66, 76
1, 56490, Note_on_c, 4, 50, 100
1, 56490, Note_on_c, 4, 54, 92
1, 56490, Control_c, 12, 74, 82
1, 56505, Control_c, 12, 74, 79
1, 56510, Pitch_bend_c, 5, 8071
1, 56515, Pitch_bend_c, 5, 6296
1, 56518, Pitch_bend_c, 5, 4197
1, 56519, Note_off_c, 4, 54, 64
1, 56519, Note_off_c, 0, 62, 64
1, 56519, Note_off_c, 6, 76, 64
1, 56519, Note_off_c, 5, 64, 64
1, 56519, Note_off_c, 5, 76, 64
1, 56519, Note_off_c, 2, 57, 64
1, 56519, Note_off_c, 11, 76, 64
1, 56519, Note_off_c, 2, 66, 64
1, 56519, Note_off_c, 2, 62, 64
1, 56519, Note_off_c, 0, 66, 64
1, 56519, Note_off_c, 0, 57, 64
1, 56519, Note_off_c, 4, 50, 64
1, 56520, Note_on_c, 0, 52, 47
1, 56520, Note_on_c, 0, 57, 89
1, 56520, Note_on_c, 0, 61, 52
1, 56520, Control_c, 1, 11, 64
1, 56520, Control_c, 2, 11, 80
1, 56520, Note_on_c, 2, 57, 120
1, 56520, Note_on_c, 2, 62, 120
1, 56520, Note_on_c, 2, 66, 120
1, 56520, Note_on_c, 4, 45, 101
1, 56520, Note_on_c, 4, 52, 101
1, 56520, Note_on_c, 5, 66, 119
1, 56520, Note_on_c, 5, 78, 119
1, 56520, Pitch_bend_c, 5, 1776
1, 56520, Note_on_c, 6, 78, 120
1, 56520, Note_on_c, 9, 42, 120
1, 56520, Note_on_c, 9, 59, 120
1, 56520, Note_on_c, 11, 78, 120
1, 56520, Control_c, 12, 74, 76
1, 56523, Pitch_bend_c, 5, 0
1, 56535, Control_c, 12, 74, 73
1, 56540, Pitch_bend_c, 5, 646
1, 56543, Pitch_bend_c, 5, 2422
1, 56545, Pitch_bend_c, 5, 4520
1, 56548, Pitch_bend_c, 5, 6942
1, 56549, Note_off_c, 9, 59, 64
1, 56549, Note_off_c, 9, 42, 64
1, 56550, Pitch_bend_c, 5, 8192
1, 56550, Control_c, 12, 74, 69
1, 56565, Control_c, 12, 74, 66
1, 56579, Note_off_c, 11, 78, 64
1, 56579, Note_off_c, 5, 66, 64
1, 56579, Note_off_c, 4, 45, 64
1, 56579, Note_off_c, 0, 57, 64
1, 56579, Note_off_c, 0, 61, 64
1, 56579, Note_off_c, 0, 52, 64
1, 56579, Note_off_c, 6, 78, 64
1, 56579, Note_off_c, 4, 52, 64
1, 56579, Note_off_c, 5, 78, 64
1, 56580, Note_on_c, 0, 57, 51
1, 56580, Note_on_c, 0, 61, 52
1, 56580, Note_on_c, 0, 64, 78
1, 56580, Control_c, 1, 11, 127
1, 56580, Control_c, 2, 11, 127
1, 56580, Note_on_c, 4, 49, 89
1, 56580, Note_on_c, 4, 52, 101
1, 56580, Note_on_c, 4, 57, 89
1, 56580, Note_on_c, 5, 62, 111
1, 56580, Note_on_c, 5, 74, 111
1, 56580, Note_on_c, 6, 74, 120
1, 56580, Note_on_c, 9, 46, 120
1, 56580, Note_on_c, 9, 73, 115
1, 56580, Note_on_c, 11, 74, 120
1, 56580, Control_c, 12, 74, 63
1, 56595, Control_c, 12, 74, 60
1, 56609, Note_off_c, 9, 73, 64
1, 56609, Note_off_c, 9, 46, 64
1, 56609, Note_off_c, 4, 57, 64
1, 56609, Note_off_c, 4, 49, 64
1, 56609, Note_off_c, 0, 57, 64
1, 56609, Note_off_c, 0, 64, 64
1, 56609, Note_off_c, 0, 61, 64
1, 56609, Note_off_c, 4, 52, 64
1, 56610, Note_on_c, 0, 57, 73
1, 56610, Note_on_c, 0, 61, 52
1, 56610, Note_on_c, 0, 64, 83
1, 56610, Note_on_c, 4, 49, 119
1, 56610, Note_on_c, 4, 52, 118
1, 56610, Note_on_c, 4, 57, 105
1, 56610, Control_c, 12, 74, 57
1, 56639, Note_off_c, 4, 57, 64
1, 56639, Note_off_c, 2, 57, 64
1, 56639, Note_off_c, 0, 61, 64
1, 56639, Note_off_c, 6, 74, 64
1, 56639, Note_off_c, 5, 62, 64
1, 56639, Note_off_c, 4, 52, 64
1, 56639, Note_off_c, 8, 50, 64
1, 56639, Note_off_c, 8, 62, 64
1, 56639, Note_off_c, 11, 74, 64
1, 56639, Note_off_c, 5, 74, 64
1, 56639, Note_off_c, 0, 64, 64
1, 56639, Note_off_c, 0, 57, 64
1, 56639, Note_off_c, 2, 62, 64
1, 56639, Note_off_c, 2, 66, 64
1, 56639, Note_off_c, 4, 49, 64
1, 56640, Note_off_c, 12, 72, 64
1, 56640, Note_on_c, 0, 59, 58
1, 56640, Note_on_c, 0, 62, 91
1, 56640, Control_c, 1, 11, 64
1, 56640, Note_on_c, 1, 35, 120
1, 56640, Control_c, 2, 11, 64
1, 56640, Note_on_c, 2, 59, 120
1, 56640, Note_on_c, 2, 62, 120
1, 56640, Note_on_c, 2, 66, 120
1, 56640, Note_on_c, 4, 47, 85
1, 56640, Note_on_c, 4, 54, 120
1, 56640, Note_on_c, 5, 59, 120
1, 56640, Note_on_c, 5, 71, 120
1, 56640, Note_on_c, 6, 71, 120
1, 56640, Note_on_c, 9, 35, 120
1, 56640, Note_on_c, 9, 42, 120
1, 56640, Note_on_c, 9, 49, 111
1, 56640, Note_on_c, 9, 59, 120
1, 56640, Note_on_c, 11, 71, 120
1, 56669, Note_off_c, 9, 59, 64
1, 56669, Note_off_c, 9, 42, 64
1, 56669, Note_off_c, 9, 35, 64
1, 56699, Note_off_c, 11, 71, 64
1, 56699, Note_off_c, 5, 71, 64
1, 56699, Note_off_c, 4, 47, 64
1, 56699, Note_off_c, 4, 54, 64
1, 56699, Note_off_c, 0, 59, 64
1, 56699, Note_off_c, 5, 59, 64
1, 56699, Note_off_c, 6, 71, 64
1, 56699, Note_off_c, 0, 62, 64
1, 56700, Note_on_c, 0, 59, 79
1, 56700, Note_on_c, 0, 62, 95
1, 56700, Note_on_c, 0, 66, 74
1, 56700, Control_c, 1, 11, 127
1, 56700, Control_c, 2, 11, 127
1, 56700, Note_on_c, 4, 50, 92
1, 56700, Note_on_c, 4, 54, 87
1, 56700, Note_on_c, 4, 62, 95
1, 56700, Note_on_c, 9, 46, 120
1, 56700, Note_on_c, 9, 73, 119
1, 56729, Note_off_c, 9, 73, 64
1, 56729, Note_off_c, 9, 46, 64
1, 56759, Note_off_c, 1, 35, 64
1, 56760, Control_c, 1, 11, 64
1, 56760, Note_on_c, 1, 35, 120
1, 56760, Control_c, 2, 11, 73
1, 56760, Note_on_c, 5, 59, 120
1, 56760, Note_on_c, 5, 71, 120
1, 56760, Note_on_c, 6, 71, 120
1, 56760, Note_on_c, 9, 35, 120
1, 56760, Note_on_c, 9, 42, 120
1, 56760, Note_on_c, 9, 59, 116
1, 56760, Note_on_c, 11, 71, 120
1, 56789, Note_off_c, 9, 59, 64
1, 56789, Note_off_c, 9, 42, 64
1, 56789, Note_off_c, 9, 35, 64
1, 56789, Note_off_c, 4, 62, 64
1, 56789, Note_off_c, 0, 59, 64
1, 56789, Note_off_c, 0, 66, 64
1, 56789, Note_off_c, 4, 54, 64
1, 56789, Note_off_c, 4, 50, 64
1, 56789, Note_off_c, 0, 62, 64
1, 56790, Note_on_c, 0, 59, 71
1, 56790, Note_on_c, 0, 62, 91
1, 56790, Note_on_c, 0, 66, 60
1, 56790, Note_on_c, 4, 54, 109
1, 56790, Note_on_c, 4, 59, 95
1, 56819, Note_off_c, 4, 59, 64
1, 56819, Note_off_c, 0, 59, 64
1, 56819, Note_off_c, 5, 71, 64
1, 56819, Note_off_c, 5, 59, 64
1, 56819, Note_off_c, 6, 71, 64
1, 56819, Note_off_c, 11, 71, 64
1, 56819, Note_off_c, 4, 54, 64
1, 56819, Note_off_c, 0, 62, 64
1, 56819, Note_off_c, 0, 66, 64
1, 56820, Note_on_c, 0, 62, 80
1, 56820, Note_on_c, 0, 66, 62
1, 56820, Note_on_c, 0, 71, 91
1, 56820, Control_c, 1, 11, 127
1, 56820, Control_c, 2, 11, 127
1, 56820, Note_on_c, 4, 50, 103
1, 56820, Note_on_c, 4, 54, 115
1, 56820, Note_on_c, 9, 46, 119
1, 56820, Note_on_c, 9, 73, 119
1, 56849, Note_off_c, 9, 73, 64
1, 56849, Note_off_c, 4, 54, 64
1, 56849, Note_off_c, 0, 71, 64
1, 56849, Note_off_c, 0, 66, 64
1, 56849, Note_off_c, 4, 50, 64
1, 56849, Note_off_c, 9, 46, 64
1, 56849, Note_off_c, 0, 62, 64
1, 56850, Note_on_c, 0, 59, 51
1, 56850, Note_on_c, 0, 62, 85
1, 56850, Note_on_c, 0, 66, 59
1, 56850, Note_on_c, 4, 47, 92
1, 56850, Note_on_c, 4, 52, 98
1, 56850, Note_on_c, 5, 57, 98
1, 56850, Note_on_c, 5, 69, 98
1, 56850, Note_on_c, 6, 69, 120
1, 56850, Note_on_c, 11, 69, 120
1, 56879, Note_off_c, 11, 69, 64
1, 56879, Note_off_c, 2, 62, 64
1, 56879, Note_off_c, 0, 59, 64
1, 56879, Note_off_c, 2, 66, 64
1, 56879, Note_off_c, 0, 66, 64
1, 56879, Note_off_c, 1, 35, 64
1, 56879, Note_off_c, 9, 49, 64
1, 56879, Note_off_c, 2, 59, 64
1, 56879, Note_off_c, 5, 69, 64
1, 56879, Note_off_c, 5, 57, 64
1, 56879, Note_off_c, 4, 47, 64
1, 56879, Note_off_c, 0, 62, 64
1, 56879, Note_off_c, 6, 69, 64
1, 56879, Note_off_c, 4, 52, 64
1, 56880, Note_on_c, 0, 55, 74
1, 56880, Note_on_c, 0, 59, 94
1, 56880, Note_on_c, 0, 62, 91
1, 56880, Control_c, 1, 11, 64
1, 56880, Note_on_c, 1, 31, 120
1, 56880, Control_c, 2, 11, 71
1, 56880, Note_on_c, 2, 59, 120
1, 56880, Note_on_c, 2, 62, 120
1, 56880, Note_on_c, 2, 67, 120
1, 56880, Note_on_c, 4, 43, 98
1, 56880, Note_on_c, 4, 50, 116
1, 56880, Note_on_c, 5, 59, 98
1, 56880, Note_on_c, 5, 71, 98
1, 56880, Note_on_c, 6, 71, 120
1, 56880, Note_on_c, 9, 35, 120
1, 56880, Note_on_c, 9, 42, 120
1, 56880, Note_on_c, 9, 59, 118
1, 56880, Note_on_c, 11, 71, 120
1, 56909, Note_off_c, 11, 71, 64
1, 56909, Note_off_c, 9, 59, 64
1, 56909, Note_off_c, 6, 71, 64
1, 56909, Note_off_c, 5, 59, 64
1, 56909, Note_off_c, 9, 42, 64
1, 56909, Note_off_c, 5, 71, 64
1, 56909, Note_off_c, 9, 35, 64
1, 56910, Note_on_c, 5, 62, 54
1, 56910, Note_on_c, 5, 74, 54
1, 56910, Note_on_c, 6, 74, 120
1, 56910, Note_on_c, 11, 74, 120
1, 56939, Note_off_c, 11, 74, 64
1, 56939, Note_off_c, 4, 43, 64
1, 56939, Note_off_c, 0, 59, 64
1, 56939, Note_off_c, 0, 55, 64
1, 56939, Note_off_c, 4, 50, 64
1, 56939, Note_off_c, 5, 62, 64
1, 56939, Note_off_c, 0, 62, 64
1, 56939, Note_off_c, 6, 74, 64
1, 56939, Note_off_c, 5, 74, 64
1, 56940, Note_on_c, 0, 59, 70
1, 56940, Note_on_c, 0, 62, 94
1, 56940, Note_on_c, 0, 67, 101
1, 56940, Control_c, 1, 11, 127
1, 56940, Control_c, 2, 11, 127
1, 56940, Note_on_c, 4, 50, 79
1, 56940, Note_on_c, 4, 55, 111
1, 56940, Note_on_c, 4, 59, 100
1, 56940, Note_on_c, 5, 59, 116
1, 56940, Note_on_c, 5, 71, 116
1, 56940, Note_on_c, 6, 71, 120
1, 56940, Note_on_c, 9, 46, 120
1, 56940, Note_on_c, 9, 73, 109
1, 56940, Note_on_c, 11, 71, 120
1, 56969, Note_off_c, 9, 73, 64
1, 56969, Note_off_c, 9, 46, 64
1, 56999, Note_off_c, 5, 71, 64
1, 56999, Note_off_c, 11, 71, 64
1, 56999, Note_off_c, 1, 31, 64
1, 56999, Note_off_c, 5, 59, 64
1, 56999, Note_off_c, 6, 71, 64
1, 57000, Control_c, 1, 11, 64
1, 57000, Note_on_c, 1, 31, 120
1, 57000, Control_c, 2, 11, 80
1, 57000, Note_on_c, 9, 35, 120
1, 57000, Note_on_c, 9, 42, 120
1, 57000, Note_on_c, 9, 59, 116
1, 57029, Note_off_c, 9, 59, 64
1, 57029, Note_off_c, 4, 55, 64
1, 57029, Note_off_c, 0, 67, 64
1, 57029, Note_off_c, 4, 59, 64
1, 57029, Note_off_c, 0, 62, 64
1, 57029, Note_off_c, 0, 59, 64
1, 57029, Note_off_c, 4, 50, 64
1, 57029, Note_off_c, 9, 42, 64
1, 57029, Note_off_c, 9, 35, 64
1, 57030, Note_on_c, 0, 59, 52
1, 57030, Note_on_c, 0, 62, 85
1, 57030, Note_on_c, 0, 67, 94
1, 57030, Note_on_c, 4, 50, 82
1, 57030, Note_on_c, 4, 55, 98
1, 57030, Note_on_c, 4, 59, 85
1, 57030, Note_on_c, 5, 57, 83
1, 57030, Note_on_c, 5, 69, 83
1, 57030, Note_on_c, 6, 69, 120
1, 57030, Note_on_c, 11, 69, 120
1, 57059, Note_off_c, 11, 69, 64
1, 57059, Note_off_c, 0, 59, 64
1, 57059, Note_off_c, 0, 62, 64
1, 57059, Note_off_c, 4, 59, 64
1, 57059, Note_off_c, 4, 50, 64
1, 57059, Note_off_c, 0, 67, 64
1, 57059, Note_off_c, 4, 55, 64
1, 57059, Note_off_c, 6, 69, 64
1, 57059, Note_off_c, 5, 69, 64
1, 57059, Note_off_c, 5, 57, 64
1, 57060, Note_on_c, 0, 62, 78
1, 57060, Note_on_c, 0, 67, 100
1, 57060, Note_on_c, 0, 71, 46
1, 57060, Control_c, 1, 11, 127
1, 57060, Control_c, 2, 11, 127
1, 57060, Note_on_c, 4, 43, 109
1, 57060, Note_on_c, 4, 50, 109
1, 57060, Note_on_c, 5, 59, 98
1, 57060, Note_on_c, 5, 71, 98
1, 57060, Note_on_c, 6, 71, 120
1, 57060, Note_on_c, 9, 46, 120
1, 57060, Note_on_c, 9, 73, 115
1, 57060, Note_on_c, 11, 71, 120
1, 57089, Note_off_c, 11, 71, 64
1, 57089, Note_off_c, 6, 71, 64
1, 57089, Note_off_c, 0, 62, 64
1, 57089, Note_off_c, 0, 67, 64
1, 57089, Note_off_c, 5, 59, 64
1, 57089, Note_off_c, 4, 43, 64
1, 57089, Note_off_c, 0, 71, 64
1, 57089, Note_off_c, 4, 50, 64
1, 57089, Note_off_c, 9, 73, 64
1, 57089, Note_off_c, 9, 46, 64
1, 57089, Note_off_c, 5, 71, 64
1, 57090, Note_on_c, 0, 59, 45
1, 57090, Note_on_c, 0, 62, 73
1, 57090, Note_on_c, 0, 67, 86
1, 57090, Note_on_c, 4, 43, 101
1, 57090, Note_on_c, 4, 52, 116
1, 57090, Note_on_c, 5, 57, 94
1, 57090, Note_on_c, 5, 69, 94
1, 57090, Note_on_c, 6, 69, 120
1, 57090, Note_on_c, 11, 69, 120
1, 57119, Note_off_c, 11, 69, 64
1, 57119, Note_off_c, 0, 62, 64
1, 57119, Note_off_c, 2, 62, 64
1, 57119, Note_off_c, 4, 43, 64
1, 57119, Note_off_c, 2, 59, 64
1, 57119, Note_off_c, 2, 67, 64
1, 57119, Note_off_c, 1, 31, 64
1, 57119, Note_off_c, 0, 59, 64
1, 57119, Note_off_c, 5, 69, 64
1, 57119, Note_off_c, 4, 52, 64
1, 57119, Note_off_c, 0, 67, 64
1, 57119, Note_off_c, 6, 69, 64
1, 57119, Note_off_c, 5, 57, 64
1, 57120, Note_on_c, 0, 54, 35
1, 57120, Note_on_c, 0, 57, 85
1, 57120, Note_on_c, 0, 62, 79
1, 57120, Control_c, 1, 11, 64
1, 57120, Note_on_c, 1, 38, 120
1, 57120, Control_c, 2, 11, 64
1, 57120, Note_on_c, 2, 57, 120
1, 57120, Note_on_c, 2, 62, 120
1, 57120, Note_on_c, 2, 66, 120
1, 57120, Note_on_c, 4, 45, 90
1, 57120, Note_on_c, 4, 50, 105
1, 57120, Note_on_c, 5, 62, 120
1, 57120, Note_on_c, 5, 74, 120
1, 57120, Note_on_c, 6, 74, 120
1, 57120, Note_on_c, 9, 35, 120
1, 57120, Note_on_c, 9, 42, 120
1, 57120, Note_on_c, 9, 59, 116
1, 57120, Note_on_c, 11, 74, 120
1, 57149, Note_off_c, 9, 59, 64
1, 57149, Note_off_c, 9, 42, 64
1, 57149, Note_off_c, 9, 35, 64
1, 57179, Note_off_c, 11, 74, 64
1, 57179, Note_off_c, 5, 62, 64
1, 57179, Note_off_c, 0, 62, 64
1, 57179, Note_off_c, 4, 45, 64
1, 57179, Note_off_c, 0, 54, 64
1, 57179, Note_off_c, 4, 50, 64
1, 57179, Note_off_c, 5, 74, 64
1, 57179, Note_off_c, 6, 74, 64
1, 57179, Note_off_c, 0, 57, 64
1, 57180, Note_on_c, 0, 57, 69
1, 57180, Note_on_c, 0, 62, 98
1, 57180, Note_on_c, 0, 66, 74
1, 57180, Control_c, 1, 11, 127
1, 57180, Control_c, 2, 11, 127
1, 57180, Note_on_c, 4, 45, 100
1, 57180, Note_on_c, 4, 50, 111
1, 57180, Note_on_c, 4, 54, 89
1, 57180, Note_on_c, 9, 46, 120
1, 57180, Note_on_c, 9, 73, 109
1, 57209, Note_off_c, 9, 73, 64
1, 57209, Note_off_c, 9, 46, 64
1, 57239, Note_off_c, 1, 38, 64
1, 57240, Control_c, 1, 11, 64
1, 57240, Note_on_c, 1, 38, 120
1, 57240, Control_c, 2, 11, 73
1, 57240, Note_on_c, 5, 62, 120
1, 57240, Note_on_c, 5, 74, 120
1, 57240, Note_on_c, 6, 74, 120
1, 57240, Note_on_c, 9, 35, 120
1, 57240, Note_on_c, 9, 42, 120
1, 57240, Note_on_c, 9, 59, 116
1, 57240, Note_on_c, 11, 74, 120
1, 57269, Note_off_c, 9, 59, 64
1, 57269, Note_off_c, 9, 42, 64
1, 57269, Note_off_c, 4, 45, 64
1, 57269, Note_off_c, 0, 66, 64
1, 57269, Note_off_c, 0, 62, 64
1, 57269, Note_off_c, 0, 57, 64
1, 57269, Note_off_c, 4, 54, 64
1, 57269, Note_off_c, 9, 35, 64
1, 57269, Note_off_c, 4, 50, 64
1, 57270, Note_on_c, 0, 54, 44
1, 57270, Note_on_c, 0, 57, 78
1, 57270, Note_on_c, 0, 62, 58
1, 57270, Note_on_c, 4, 45, 85
1, 57270, Note_on_c, 4, 50, 105
1, 57270, Note_on_c, 4, 54, 81
1, 57299, Note_off_c, 4, 54, 64
1, 57299, Note_off_c, 5, 62, 64
1, 57299, Note_off_c, 6, 74, 64
1, 57299, Note_off_c, 0, 57, 64
1, 57299, Note_off_c, 11, 74, 64
1, 57299, Note_off_c, 5, 74, 64
1, 57299, Note_off_c, 0, 54, 64
1, 57299, Note_off_c, 4, 50, 64
1, 57299, Note_off_c, 4, 45, 64
1, 57299, Note_off_c, 0, 62, 64
1, 57300, Note_on_c, 0, 57, 57
1, 57300, Note_on_c, 0, 62, 91
1, 57300, Note_on_c, 0, 66, 77
1, 57300, Control_c, 1, 11, 127
1, 57300, Control_c, 2, 11, 127
1, 57300, Note_on_c, 4, 50, 109
1, 57300, Note_on_c, 4, 54, 89
1, 57300, Note_on_c, 4, 57, 109
1, 57300, Note_on_c, 9, 46, 120
1, 57300, Note_on_c, 9, 73, 119
1, 57329, Note_off_c, 9, 73, 64
1, 57329, Note_off_c, 4, 57, 64
1, 57329, Note_off_c, 4, 50, 64
1, 57329, Note_off_c, 0, 66, 64
1, 57329, Note_off_c, 4, 54, 64
1, 57329, Note_off_c, 9, 46, 64
1, 57329, Note_off_c, 0, 57, 64
1, 57329, Note_off_c, 0, 62, 64
1, 57330, Note_on_c, 0, 54, 35
1, 57330, Note_on_c, 0, 57, 79
1, 57330, Note_on_c, 0, 62, 56
1, 57330, Note_on_c, 4, 50, 111
1, 57330, Note_on_c, 4, 54, 100
1, 57330, Note_on_c, 4, 57, 100
1, 57330, Note_on_c, 5, 62, 89
1, 57330, Note_on_c, 5, 74, 89
1, 57330, Note_on_c, 6, 74, 120
1, 57330, Note_on_c, 11, 74, 120
1, 57359, Note_off_c, 11, 74, 64
1, 57359, Note_off_c, 0, 54, 64
1, 57359, Note_off_c, 0, 57, 64
1, 57359, Note_off_c, 4, 57, 64
1, 57359, Note_off_c, 4, 50, 64
1, 57359, Note_off_c, 0, 62, 64
1, 57359, Note_off_c, 1, 38, 64
1, 57359, Note_off_c, 4, 54, 64
1, 57359, Note_off_c, 5, 74, 64
1, 57359, Note_off_c, 5, 62, 64
1, 57359, Note_off_c, 6, 74, 64
1, 57360, Note_on_c, 0, 54, 49
1, 57360, Note_on_c, 0, 57, 85
1, 57360, Note_on_c, 0, 62, 75
1, 57360, Control_c, 1, 11, 64
1, 57360, Note_on_c, 1, 38, 120
1, 57360, Control_c, 2, 11, 71
1, 57360, Note_on_c, 4, 45, 105
1, 57360, Note_on_c, 4, 50, 116
1, 57360, Note_on_c, 5, 64, 81
1, 57360, Note_on_c, 5, 76, 81
1, 57360, Note_on_c, 6, 76, 120
1, 57360, Note_on_c, 9, 35, 120
1, 57360, Note_on_c, 9, 42, 120
1, 57360, Note_on_c, 9, 59, 118
1, 57360, Note_on_c, 11, 76, 120
1, 57389, Note_off_c, 11, 76, 64
1, 57389, Note_off_c, 9, 59, 64
1, 57389, Note_off_c, 6, 76, 64
1, 57389, Note_off_c, 5, 64, 64
1, 57389, Note_off_c, 9, 42, 64
1, 57389, Note_off_c, 5, 76, 64
1, 57389, Note_off_c, 9, 35, 64
1, 57390, Note_on_c, 5, 62, 95
1, 57390, Note_on_c, 5, 74, 95
1, 57390, Note_on_c, 6, 74, 120
1, 57390, Note_on_c, 11, 74, 120
1, 57419, Note_off_c, 11, 74, 64
1, 57419, Note_off_c, 4, 45, 64
1, 57419, Note_off_c, 0, 57, 64
1, 57419, Note_off_c, 0, 54, 64
1, 57419, Note_off_c, 4, 50, 64
1, 57419, Note_off_c, 5, 62, 64
1, 57419, Note_off_c, 0, 62, 64
1, 57419, Note_off_c, 6, 74, 64
1, 57419, Note_off_c, 5, 74, 64
1, 57420, Note_on_c, 0, 57, 56
1, 57420, Note_on_c, 0, 62, 84
1, 57420, Note_on_c, 0, 66, 49
1, 57420, Control_c, 1, 11, 127
1, 57420, Control_c, 2, 11, 127
1, 57420, Note_on_c, 4, 50, 105
1, 57420, Note_on_c, 4, 54, 115
1, 57420, Note_on_c, 5, 64, 111
1, 57420, Note_on_c, 5, 76, 111
1, 57420, Note_on_c, 6, 76, 120
1, 57420, Note_on_c, 9, 46, 120
1, 57420, Note_on_c, 9, 73, 115
1, 57420, Note_on_c, 11, 76, 120
1, 57449, Note_off_c, 9, 73, 64
1, 57449, Note_off_c, 4, 50, 64
1, 57449, Note_off_c, 0, 57, 64
1, 57449, Note_off_c, 0, 66, 64
1, 57449, Note_off_c, 9, 46, 64
1, 57449, Note_off_c, 0, 62, 64
1, 57449, Note_off_c, 4, 54, 64
1, 57450, Note_on_c, 0, 57, 84
1, 57450, Note_on_c, 0, 62, 94
1, 57450, Note_on_c, 0, 66, 76
1, 57450, Note_on_c, 4, 50, 100
1, 57450, Note_on_c, 4, 54, 92
1, 57471, Pitch_bend_c, 5, 7749
1, 57473, Pitch_bend_c, 5, 6215
1, 57476, Pitch_bend_c, 5, 4197
1, 57478, Pitch_bend_c, 5, 2422
1, 57479, Note_off_c, 4, 54, 64
1, 57479, Note_off_c, 2, 62, 64
1, 57479, Note_off_c, 2, 66, 64
1, 57479, Note_off_c, 1, 38, 64
1, 57479, Note_off_c, 5, 76, 64
1, 57479, Note_off_c, 11, 76, 64
1, 57479, Note_off_c, 2, 57, 64
1, 57479, Note_off_c, 5, 64, 64
1, 57479, Note_off_c, 0, 66, 64
1, 57479, Note_off_c, 0, 57, 64
1, 57479, Note_off_c, 6, 76, 64
1, 57479, Note_off_c, 4, 50, 64
1, 57479, Note_off_c, 0, 62, 64
1, 57480, Note_on_c, 0, 52, 47
1, 57480, Note_on_c, 0, 57, 89
1, 57480, Note_on_c, 0, 61, 52
1, 57480, Control_c, 1, 11, 64
1, 57480, Note_on_c, 1, 33, 120
1, 57480, Control_c, 2, 11, 80
1, 57480, Note_on_c, 2, 57, 120
1, 57480, Note_on_c, 2, 61, 120
1, 57480, Note_on_c, 2, 64, 120
1, 57480, Note_on_c, 4, 45, 101
1, 57480, Note_on_c, 4, 52, 101
1, 57480, Note_on_c, 5, 66, 119
1, 57480, Note_on_c, 5, 78, 119
1, 57480, Note_on_c, 6, 78, 120
1, 57480, Note_on_c, 9, 35, 120
1, 57480, Note_on_c, 9, 42, 120
1, 57480, Note_on_c, 9, 59, 119
1, 57480, Note_on_c, 11, 78, 120
1, 57481, Pitch_bend_c, 5, 1211
1, 57483, Pitch_bend_c, 5, 646
1, 57486, Pitch_bend_c, 5, 565
1, 57488, Pitch_bend_c, 5, 646
1, 57491, Pitch_bend_c, 5, 1373
1, 57493, Pitch_bend_c, 5, 2260
1, 57496, Pitch_bend_c, 5, 3471
1, 57498, Pitch_bend_c, 5, 5085
1, 57501, Pitch_bend_c, 5, 6942
1, 57503, Pitch_bend_c, 5, 8071
1, 57506, Pitch_bend_c, 5, 8192
1, 57509, Note_off_c, 9, 59, 64
1, 57509, Note_off_c, 9, 42, 64
1, 57509, Note_off_c, 9, 35, 64
1, 57539, Note_off_c, 11, 78, 64
1, 57539, Note_off_c, 5, 66, 64
1, 57539, Note_off_c, 0, 61, 64
1, 57539, Note_off_c, 4, 45, 64
1, 57539, Note_off_c, 0, 52, 64
1, 57539, Note_off_c, 4, 52, 64
1, 57539, Note_off_c, 5, 78, 64
1, 57539, Note_off_c, 6, 78, 64
1, 57539, Note_off_c, 0, 57, 64
1, 57540, Note_on_c, 0, 57, 51
1, 57540, Note_on_c, 0, 61, 52
1, 57540, Note_on_c, 0, 64, 78
1, 57540, Control_c, 1, 11, 127
1, 57540, Control_c, 2, 11, 127
1, 57540, Note_on_c, 4, 49, 89
1, 57540, Note_on_c, 4, 52, 101
1, 57540, Note_on_c, 4, 57, 89
1, 57540, Note_on_c, 5, 62, 98
1, 57540, Note_on_c, 5, 74, 98
1, 57540, Note_on_c, 6, 74, 120
1, 57540, Note_on_c, 9, 46, 120
1, 57540, Note_on_c, 9, 73, 111
1, 57540, Note_on_c, 11, 74, 120
1, 57569, Note_off_c, 9, 73, 64
1, 57569, Note_off_c, 4, 52, 64
1, 57569, Note_off_c, 0, 61, 64
1, 57569, Note_off_c, 0, 57, 64
1, 57569, Note_off_c, 0, 64, 64
1, 57569, Note_off_c, 4, 49, 64
1, 57569, Note_off_c, 9, 46, 64
1, 57569, Note_off_c, 4, 57, 64
1, 57570, Note_on_c, 0, 57, 73
1, 57570, Note_on_c, 0, 61, 52
1, 57570, Note_on_c, 0, 64, 83
1, 57570, Note_on_c, 4, 49, 119
1, 57570, Note_on_c, 4, 52, 118
1, 57570, Note_on_c, 4, 57, 105
1, 57599, Note_off_c, 4, 57, 64
1, 57599, Note_off_c, 5, 62, 64
1, 57599, Note_off_c, 1, 33, 64
1, 57599, Note_off_c, 6, 74, 64
1, 57599, Note_off_c, 2, 57, 64
1, 57599, Note_off_c, 5, 74, 64
1, 57599, Note_off_c, 2, 61, 64
1, 57599, Note_off_c, 11, 74, 64
1, 57599, Note_off_c, 4, 49, 64
1, 57599, Note_off_c, 0, 64, 64
1, 57599, Note_off_c, 0, 57, 64
1, 57599, Note_off_c, 2, 64, 64
1, 57599, Note_off_c, 4, 52, 64
1, 57599, Note_off_c, 0, 61, 64
1, 57600, Note_on_c, 0, 59, 58
1, 57600, Note_on_c, 0, 62, 91
1, 57600, Control_c, 1, 11, 64
1, 57600, Note_on_c, 1, 35, 120
1, 57600, Control_c, 2, 11, 64
1, 57600, Note_on_c, 2, 59, 120
1, 57600, Note_on_c, 2, 62, 120
1, 57600, Note_on_c, 2, 66, 120
1, 57600, Note_on_c, 4, 47, 85
1, 57600, Note_on_c, 4, 54, 120
1, 57600, Note_on_c, 5, 59, 105
1, 57600, Note_on_c, 5, 71, 105
1, 57600, Note_on_c, 6, 71, 120
1, 57600, Note_on_c, 9, 35, 120
1, 57600, Note_on_c, 9, 42, 120
1, 57600, Note_on_c, 9, 59, 119
1, 57600, Note_on_c, 11, 71, 120
1, 57629, Note_off_c, 9, 59, 64
1, 57629, Note_off_c, 9, 42, 64
1, 57629, Note_off_c, 9, 35, 64
1, 57659, Note_off_c, 5, 71, 64
1, 57659, Note_off_c, 4, 47, 64
1, 57659, Note_off_c, 4, 54, 64
1, 57659, Note_off_c, 0, 59, 64
1, 57659, Note_off_c, 5, 59, 64
1, 57659, Note_off_c, 6, 71, 64
1, 57659, Note_off_c, 11, 71, 64
1, 57659, Note_off_c, 0, 62, 64
1, 57660, Note_on_c, 0, 59, 79
1, 57660, Note_on_c, 0, 62, 95
1, 57660, Note_on_c, 0, 66, 74
1, 57660, Control_c, 1, 11, 127
1, 57660, Control_c, 2, 11, 127
1, 57660, Note_on_c, 4, 50, 92
1, 57660, Note_on_c, 4, 54, 87
1, 57660, Note_on_c, 4, 62, 95
1, 57660, Note_on_c, 9, 46, 120
1, 57660, Note_on_c, 9, 73, 109
1, 57689, Note_off_c, 9, 73, 64
1, 57689, Note_off_c, 9, 46, 64
1, 57719, Note_off_c, 1, 35, 64
1, 57720, Control_c, 1, 11, 64
1, 57720, Note_on_c, 1, 35, 120
1, 57720, Control_c, 2, 11, 73
1, 57720, Note_on_c, 5, 59, 119
1, 57720, Note_on_c, 5, 71, 119
1, 57720, Note_on_c, 6, 71, 120
1, 57720, Note_on_c, 9, 35, 120
1, 57720, Note_on_c, 9, 42, 120
1, 57720, Note_on_c, 9, 59, 118
1, 57720, Note_on_c, 11, 71, 120
1, 57749, Note_off_c, 9, 59, 64
1, 57749, Note_off_c, 9, 42, 64
1, 57749, Note_off_c, 4, 50, 64
1, 57749, Note_off_c, 0, 66, 64
1, 57749, Note_off_c, 0, 62, 64
1, 57749, Note_off_c, 0, 59, 64
1, 57749, Note_off_c, 4, 62, 64
1, 57749, Note_off_c, 9, 35, 64
1, 57749, Note_off_c, 4, 54, 64
1, 57750, Note_on_c, 0, 59, 71
1, 57750, Note_on_c, 0, 62, 91
1, 57750, Note_on_c, 0, 66, 60
1, 57750, Note_on_c, 4, 54, 109
1, 57750, Note_on_c, 4, 59, 95
1, 57779, Note_off_c, 4, 59, 64
1, 57779, Note_off_c, 6, 71, 64
1, 57779, Note_off_c, 0, 62, 64
1, 57779, Note_off_c, 11, 71, 64
1, 57779, Note_off_c, 5, 71, 64
1, 57779, Note_off_c, 0, 59, 64
1, 57779, Note_off_c, 4, 54, 64
1, 57779, Note_off_c, 5, 59, 64
1, 57779, Note_off_c, 0, 66, 64
1, 57780, Note_on_c, 0, 62, 80
1, 57780, Note_on_c, 0, 66, 62
1, 57780, Note_on_c, 0, 71, 91
1, 57780, Control_c, 1, 11, 127
1, 57780, Control_c, 2, 11, 127
1, 57780, Note_on_c, 4, 50, 103
1, 57780, Note_on_c, 4, 54, 115
1, 57780, Note_on_c, 9, 46, 120
1, 57780, Note_on_c, 9, 73, 119
1, 57809, Note_off_c, 9, 73, 64
1, 57809, Note_off_c, 4, 50, 64
1, 57809, Note_off_c, 9, 46, 64
1, 57809, Note_off_c, 0, 71, 64
1, 57809, Note_off_c, 4, 54, 64
1, 57809, Note_off_c, 0, 62, 64
1, 57809, Note_off_c, 0, 66, 64
1, 57810, Note_on_c, 0, 59, 51
1, 57810, Note_on_c, 0, 62, 85
1, 57810, Note_on_c, 0, 66, 59
1, 57810, Note_on_c, 4, 47, 92
1, 57810, Note_on_c, 4, 52, 98
1, 57810, Note_on_c, 5, 57, 91
1, 57810, Note_on_c, 5, 69, 91
1, 57810, Note_on_c, 6, 69, 120
1, 57810, Note_on_c, 11, 69, 120
1, 57839, Note_off_c, 11, 69, 64
1, 57839, Note_off_c, 0, 62, 64
1, 57839, Note_off_c, 2, 66, 64
1, 57839, Note_off_c, 4, 47, 64
1, 57839, Note_off_c, 1, 35, 64
1, 57839, Note_off_c, 2, 62, 64
1, 57839, Note_off_c, 2, 59, 64
1, 57839, Note_off_c, 0, 59, 64
1, 57839, Note_off_c, 5, 69, 64
1, 57839, Note_off_c, 4, 52, 64
1, 57839, Note_off_c, 0, 66, 64
1, 57839, Note_off_c, 6, 69, 64
1, 57839, Note_off_c, 5, 57, 64
1, 57840, Note_on_c, 0, 55, 74
1, 57840, Note_on_c, 0, 59, 94
1, 57840, Note_on_c, 0, 62, 91
1, 57840, Control_c, 1, 11, 64
1, 57840, Note_on_c, 1, 31, 120
1, 57840, Control_c, 2, 11, 71
1, 57840, Note_on_c, 2, 59, 120
1, 57840, Note_on_c, 2, 62, 120
1, 57840, Note_on_c, 2, 67, 120
1, 57840, Note_on_c, 4, 43, 98
1, 57840, Note_on_c, 4, 50, 116
1, 57840, Note_on_c, 5, 59, 97
1, 57840, Note_on_c, 5, 71, 97
1, 57840, Note_on_c, 6, 71, 120
1, 57840, Note_on_c, 9, 35, 120
1, 57840, Note_on_c, 9, 42, 120
1, 57840, Note_on_c, 9, 59, 116
1, 57840, Note_on_c, 11, 71, 120
1, 57869, Note_off_c, 11, 71, 64
1, 57869, Note_off_c, 9, 59, 64
1, 57869, Note_off_c, 6, 71, 64
1, 57869, Note_off_c, 5, 59, 64
1, 57869, Note_off_c, 9, 42, 64
1, 57869, Note_off_c, 5, 71, 64
1, 57869, Note_off_c, 9, 35, 64
1, 57870, Note_on_c, 5, 62, 80
1, 57870, Note_on_c, 5, 74, 80
1, 57870, Note_on_c, 6, 74, 120
1, 57870, Note_on_c, 11, 74, 120
1, 57899, Note_off_c, 11, 74, 64
1, 57899, Note_off_c, 4, 43, 64
1, 57899, Note_off_c, 0, 59, 64
1, 57899, Note_off_c, 0, 55, 64
1, 57899, Note_off_c, 4, 50, 64
1, 57899, Note_off_c, 5, 62, 64
1, 57899, Note_off_c, 0, 62, 64
1, 57899, Note_off_c, 6, 74, 64
1, 57899, Note_off_c, 5, 74, 64
1, 57900, Note_on_c, 0, 59, 70
1, 57900, Note_on_c, 0, 62, 94
1, 57900, Note_on_c, 0, 67, 101
1, 57900, Control_c, 1, 11, 127
1, 57900, Control_c, 2, 11, 127
1, 57900, Note_on_c, 4, 50, 79
1, 57900, Note_on_c, 4, 55, 111
1, 57900, Note_on_c, 4, 59, 100
1, 57900, Note_on_c, 5, 59, 113
1, 57900, Note_on_c, 5, 71, 113
1, 57900, Note_on_c, 6, 71, 120
1, 57900, Note_on_c, 9, 46, 120
1, 57900, Note_on_c, 9, 73, 119
1, 57900, Note_on_c, 11, 71, 120
1, 57929, Note_off_c, 9, 73, 64
1, 57929, Note_off_c, 9, 46, 64
1, 57959, Note_off_c, 5, 71, 64
1, 57959, Note_off_c, 11, 71, 64
1, 57959, Note_off_c, 1, 31, 64
1, 57959, Note_off_c, 5, 59, 64
1, 57959, Note_off_c, 6, 71, 64
1, 57960, Control_c, 1, 11, 64
1, 57960, Note_on_c, 1, 31, 120
1, 57960, Control_c, 2, 11, 80
1, 57960, Note_on_c, 9, 35, 120
1, 57960, Note_on_c, 9, 42, 120
1, 57960, Note_on_c, 9, 59, 120
1, 57989, Note_off_c, 9, 59, 64
1, 57989, Note_off_c, 4, 55, 64
1, 57989, Note_off_c, 0, 67, 64
1, 57989, Note_off_c, 4, 59, 64
1, 57989, Note_off_c, 0, 62, 64
1, 57989, Note_off_c, 0, 59, 64
1, 57989, Note_off_c, 4, 50, 64
1, 57989, Note_off_c, 9, 42, 64
1, 57989, Note_off_c, 9, 35, 64
1, 57990, Note_on_c, 0, 59, 52
1, 57990, Note_on_c, 0, 62, 85
1, 57990, Note_on_c, 0, 67, 94
1, 57990, Note_on_c, 4, 50, 82
1, 57990, Note_on_c, 4, 55, 98
1, 57990, Note_on_c, 4, 59, 85
1, 57990, Note_on_c, 5, 57, 98
1, 57990, Note_on_c, 5, 69, 98
1, 57990, Note_on_c, 6, 69, 120
1, 57990, Note_on_c, 11, 69, 120
1, 58019, Note_off_c, 11, 69, 64
1, 58019, Note_off_c, 0, 59, 64
1, 58019, Note_off_c, 0, 62, 64
1, 58019, Note_off_c, 4, 59, 64
1, 58019, Note_off_c, 4, 50, 64
1, 58019, Note_off_c, 0, 67, 64
1, 58019, Note_off_c, 4, 55, 64
1, 58019, Note_off_c, 6, 69, 64
1, 58019, Note_off_c, 5, 69, 64
1, 58019, Note_off_c, 5, 57, 64
1, 58020, Note_on_c, 0, 62, 78
1, 58020, Note_on_c, 0, 67, 100
1, 58020, Note_on_c, 0, 71, 46
1, 58020, Control_c, 1, 11, 127
1, 58020, Control_c, 2, 11, 127
1, 58020, Note_on_c, 4, 43, 109
1, 58020, Note_on_c, 4, 50, 109
1, 58020, Note_on_c, 5, 59, 101
1, 58020, Note_on_c, 5, 71, 101
1, 58020, Note_on_c, 6, 71, 120
1, 58020, Note_on_c, 9, 46, 120
1, 58020, Note_on_c, 9, 73, 115
1, 58020, Note_on_c, 11, 71, 120
1, 58049, Note_off_c, 11, 71, 64
1, 58049, Note_off_c, 6, 71, 64
1, 58049, Note_off_c, 0, 62, 64
1, 58049, Note_off_c, 0, 67, 64
1, 58049, Note_off_c, 5, 59, 64
1, 58049, Note_off_c, 4, 43, 64
1, 58049, Note_off_c, 0, 71, 64
1, 58049, Note_off_c, 4, 50, 64
1, 58049, Note_off_c, 9, 73, 64
1, 58049, Note_off_c, 9, 46, 64
1, 58049, Note_off_c, 5, 71, 64
1, 58050, Note_on_c, 0, 59, 45
1, 58050, Note_on_c, 0, 62, 73
1, 58050, Note_on_c, 0, 67, 86
1, 58050, Note_on_c, 4, 43, 101
1, 58050, Note_on_c, 4, 52, 116
1, 58050, Note_on_c, 5, 57, 91
1, 58050, Note_on_c, 5, 69, 91
1, 58050, Note_on_c, 6, 69, 120
1, 58050, Note_on_c, 11, 69, 120
1, 58079, Note_off_c, 11, 69, 64
1, 58079, Note_off_c, 0, 62, 64
1, 58079, Note_off_c, 2, 62, 64
1, 58079, Note_off_c, 4, 43, 64
1, 58079, Note_off_c, 2, 59, 64
1, 58079, Note_off_c, 2, 67, 64
1, 58079, Note_off_c, 1, 31, 64
1, 58079, Note_off_c, 0, 59, 64
1, 58079, Note_off_c, 5, 69, 64
1, 58079, Note_off_c, 4, 52, 64
1, 58079, Note_off_c, 0, 67, 64
1, 58079, Note_off_c, 6, 69, 64
1, 58079, Note_off_c, 5, 57, 64
1, 58080, Note_on_c, 0, 54, 35
1, 58080, Note_on_c, 0, 57, 85
1, 58080, Note_on_c, 0, 62, 79
1, 58080, Control_c, 1, 11, 64
1, 58080, Note_on_c, 1, 38, 120
1, 58080, Control_c, 2, 11, 64
1, 58080, Note_on_c, 2, 57, 120
1, 58080, Note_on_c, 2, 62, 120
1, 58080, Note_on_c, 2, 66, 120
1, 58080, Note_on_c, 4, 45, 90
1, 58080, Note_on_c, 4, 50, 105
1, 58080, Note_on_c, 5, 62, 105
1, 58080, Note_on_c, 5, 74, 105
1, 58080, Note_on_c, 6, 74, 120
1, 58080, Note_on_c, 9, 35, 120
1, 58080, Note_on_c, 9, 42, 120
1, 58080, Note_on_c, 9, 59, 111
1, 58080, Note_on_c, 11, 74, 120
1, 58109, Note_off_c, 9, 59, 64
1, 58109, Note_off_c, 9, 42, 64
1, 58109, Note_off_c, 9, 35, 64
1, 58139, Note_off_c, 11, 74, 64
1, 58139, Note_off_c, 5, 62, 64
1, 58139, Note_off_c, 0, 62, 64
1, 58139, Note_off_c, 4, 45, 64
1, 58139, Note_off_c, 0, 54, 64
1, 58139, Note_off_c, 4, 50, 64
1, 58139, Note_off_c, 5, 74, 64
1, 58139, Note_off_c, 6, 74, 64
1, 58139, Note_off_c, 0, 57, 64
1, 58140, Note_on_c, 0, 57, 69
1, 58140, Note_on_c, 0, 62, 98
1, 58140, Note_on_c, 0, 66, 74
1, 58140, Control_c, 1, 11, 127
1, 58140, Control_c, 2, 11, 127
1, 58140, Note_on_c, 4, 45, 100
1, 58140, Note_on_c, 4, 50, 111
1, 58140, Note_on_c, 4, 54, 89
1, 58140, Note_on_c, 9, 46, 120
1, 58140, Note_on_c, 9, 73, 119
1, 58169, Note_off_c, 9, 73, 64
1, 58169, Note_off_c, 9, 46, 64
1, 58199, Note_off_c, 1, 38, 64
1, 58200, Control_c, 1, 11, 64
1, 58200, Note_on_c, 1, 38, 120
1, 58200, Control_c, 2, 11, 73
1, 58200, Note_on_c, 5, 62, 119
1, 58200, Note_on_c, 5, 74, 119
1, 58200, Note_on_c, 6, 74, 120
1, 58200, Note_on_c, 9, 35, 120
1, 58200, Note_on_c, 9, 42, 120
1, 58200, Note_on_c, 9, 59, 119
1, 58200, Note_on_c, 11, 74, 120
1, 58229, Note_off_c, 9, 59, 64
1, 58229, Note_off_c, 9, 42, 64
1, 58229, Note_off_c, 4, 45, 64
1, 58229, Note_off_c, 0, 66, 64
1, 58229, Note_off_c, 0, 62, 64
1, 58229, Note_off_c, 0, 57, 64
1, 58229, Note_off_c, 4, 54, 64
1, 58229, Note_off_c, 9, 35, 64
1, 58229, Note_off_c, 4, 50, 64
1, 58230, Note_on_c, 0, 54, 44
1, 58230, Note_on_c, 0, 57, 78
1, 58230, Note_on_c, 0, 62, 58
1, 58230, Note_on_c, 4, 45, 85
1, 58230, Note_on_c, 4, 50, 105
1, 58230, Note_on_c, 4, 54, 81
1, 58259, Note_off_c, 4, 54, 64
1, 58259, Note_off_c, 5, 62, 64
1, 58259, Note_off_c, 6, 74, 64
1, 58259, Note_off_c, 0, 57, 64
1, 58259, Note_off_c, 11, 74, 64
1, 58259, Note_off_c, 5, 74, 64
1, 58259, Note_off_c, 0, 54, 64
1, 58259, Note_off_c, 4, 50, 64
1, 58259, Note_off_c, 4, 45, 64
1, 58259, Note_off_c, 0, 62, 64
1, 58260, Note_on_c, 0, 57, 57
1, 58260, Note_on_c, 0, 62, 91
1, 58260, Note_on_c, 0, 66, 77
1, 58260, Control_c, 1, 11, 127
1, 58260, Control_c, 2, 11, 127
1, 58260, Note_on_c, 4, 50, 109
1, 58260, Note_on_c, 4, 54, 89
1, 58260, Note_on_c, 4, 57, 109
1, 58260, Note_on_c, 9, 46, 120
1, 58260, Note_on_c, 9, 73, 119
1, 58289, Note_off_c, 9, 73, 64
1, 58289, Note_off_c, 4, 57, 64
1, 58289, Note_off_c, 4, 50, 64
1, 58289, Note_off_c, 0, 66, 64
1, 58289, Note_off_c, 4, 54, 64
1, 58289, Note_off_c, 9, 46, 64
1, 58289, Note_off_c, 0, 57, 64
1, 58289, Note_off_c, 0, 62, 64
1, 58290, Note_on_c, 0, 54, 35
1, 58290, Note_on_c, 0, 57, 79
1, 58290, Note_on_c, 0, 62, 56
1, 58290, Note_on_c, 4, 50, 111
1, 58290, Note_on_c, 4, 54, 100
1, 58290, Note_on_c, 4, 57, 100
1, 58290, Note_on_c, 5, 62, 103
1, 58290, Note_on_c, 5, 74, 103
1, 58290, Note_on_c, 6, 74, 120
1, 58290, Note_on_c, 11, 74, 120
1, 58319, Note_off_c, 11, 74, 64
1, 58319, Note_off_c, 0, 54, 64
1, 58319, Note_off_c, 0, 57, 64
1, 58319, Note_off_c, 4, 57, 64
1, 58319, Note_off_c, 4, 50, 64
1, 58319, Note_off_c, 0, 62, 64
1, 58319, Note_off_c, 1, 38, 64
1, 58319, Note_off_c, 4, 54, 64
1, 58319, Note_off_c, 5, 74, 64
1, 58319, Note_off_c, 5, 62, 64
1, 58319, Note_off_c, 6, 74, 64
1, 58320, Note_on_c, 0, 54, 49
1, 58320, Note_on_c, 0, 57, 85
1, 58320, Note_on_c, 0, 62, 75
1, 58320, Control_c, 1, 11, 64
1, 58320, Note_on_c, 1, 38, 120
1, 58320, Control_c, 2, 11, 71
1, 58320, Note_on_c, 4, 45, 105
1, 58320, Note_on_c, 4, 50, 116
1, 58320, Note_on_c, 5, 64, 95
1, 58320, Note_on_c, 5, 76, 95
1, 58320, Note_on_c, 6, 76, 120
1, 58320, Note_on_c, 9, 35, 120
1, 58320, Note_on_c, 9, 42, 120
1, 58320, Note_on_c, 9, 59, 116
1, 58320, Note_on_c, 11, 76, 120
1, 58349, Note_off_c, 11, 76, 64
1, 58349, Note_off_c, 9, 59, 64
1, 58349, Note_off_c, 6, 76, 64
1, 58349, Note_off_c, 5, 64, 64
1, 58349, Note_off_c, 9, 42, 64
1, 58349, Note_off_c, 5, 76, 64
1, 58349, Note_off_c, 9, 35, 64
1, 58350, Note_on_c, 5, 62, 86
1, 58350, Note_on_c, 5, 74, 86
1, 58350, Note_on_c, 6, 74, 120
1, 58350, Note_on_c, 11, 74, 120
1, 58379, Note_off_c, 11, 74, 64
1, 58379, Note_off_c, 4, 45, 64
1, 58379, Note_off_c, 0, 57, 64
1, 58379, Note_off_c, 0, 54, 64
1, 58379, Note_off_c, 4, 50, 64
1, 58379, Note_off_c, 5, 62, 64
1, 58379, Note_off_c, 0, 62, 64
1, 58379, Note_off_c, 6, 74, 64
1, 58379, Note_off_c, 5, 74, 64
1, 58380, Note_on_c, 0, 57, 56
1, 58380, Note_on_c, 0, 62, 84
1, 58380, Note_on_c, 0, 66, 49
1, 58380, Control_c, 1, 11, 127
1, 58380, Control_c, 2, 11, 127
1, 58380, Note_on_c, 4, 50, 105
1, 58380, Note_on_c, 4, 54, 115
1, 58380, Note_on_c, 5, 64, 98
1, 58380, Note_on_c, 5, 76, 98
1, 58380, Note_on_c, 6, 76, 120
1, 58380, Note_on_c, 9, 46, 120
1, 58380, Note_on_c, 9, 73, 119
1, 58380, Note_on_c, 11, 76, 120
1, 58409, Note_off_c, 9, 73, 64
1, 58409, Note_off_c, 4, 50, 64
1, 58409, Note_off_c, 0, 57, 64
1, 58409, Note_off_c, 0, 66, 64
1, 58409, Note_off_c, 9, 46, 64
1, 58409, Note_off_c, 0, 62, 64
1, 58409, Note_off_c, 4, 54, 64
1, 58410, Note_on_c, 0, 57, 84
1, 58410, Note_on_c, 0, 62, 94
1, 58410, Note_on_c, 0, 66, 76
1, 58410, Note_on_c, 4, 50, 100
1, 58410, Note_on_c, 4, 54, 92
1, 58430, Pitch_bend_c, 5, 8071
1, 58435, Pitch_bend_c, 5, 6296
1, 58438, Pitch_bend_c, 5, 4197
1, 58439, Note_off_c, 4, 54, 64
1, 58439, Note_off_c, 2, 62, 64
1, 58439, Note_off_c, 2, 66, 64
1, 58439, Note_off_c, 1, 38, 64
1, 58439, Note_off_c, 5, 76, 64
1, 58439, Note_off_c, 11, 76, 64
1, 58439, Note_off_c, 2, 57, 64
1, 58439, Note_off_c, 5, 64, 64
1, 58439, Note_off_c, 0, 66, 64
1, 58439, Note_off_c, 0, 57, 64
1, 58439, Note_off_c, 6, 76, 64
1, 58439, Note_off_c, 4, 50, 64
1, 58439, Note_off_c, 0, 62, 64
1, 58440, Note_on_c, 0, 52, 47
1, 58440, Note_on_c, 0, 57, 89
1, 58440, Note_on_c, 0, 61, 52
1, 58440, Control_c, 1, 11, 64
1, 58440, Note_on_c, 1, 30, 120
1, 58440, Control_c, 2, 11, 80
1, 58440, Note_on_c, 2, 57, 120
1, 58440, Note_on_c, 2, 61, 120
1, 58440, Note_on_c, 2, 66, 120
1, 58440, Note_on_c, 4, 45, 101
1, 58440, Note_on_c, 4, 52, 101
1, 58440, Note_on_c, 5, 66, 119
1, 58440, Note_on_c, 5, 78, 119
1, 58440, Pitch_bend_c, 5, 1776
1, 58440, Note_on_c, 6, 78, 120
1, 58440, Note_on_c, 9, 35, 120
1, 58440, Note_on_c, 9, 42, 120
1, 58440, Note_on_c, 9, 59, 120
1, 58440, Note_on_c, 11, 78, 120
1, 58443, Pitch_bend_c, 5, 0
1, 58460, Pitch_bend_c, 5, 646
1, 58463, Pitch_bend_c, 5, 2422
1, 58465, Pitch_bend_c, 5, 4520
1, 58468, Pitch_bend_c, 5, 6942
1, 58469, Note_off_c, 9, 59, 64
1, 58469, Note_off_c, 9, 42, 64
1, 58469, Note_off_c, 9, 35, 64
1, 58470, Pitch_bend_c, 5, 8192
1, 58499, Note_off_c, 11, 78, 64
1, 58499, Note_off_c, 5, 66, 64
1, 58499, Note_off_c, 0, 61, 64
1, 58499, Note_off_c, 4, 45, 64
1, 58499, Note_off_c, 0, 52, 64
1, 58499, Note_off_c, 4, 52, 64
1, 58499, Note_off_c, 5, 78, 64
1, 58499, Note_off_c, 6, 78, 64
1, 58499, Note_off_c, 0, 57, 64
1, 58500, Note_on_c, 0, 57, 51
1, 58500, Note_on_c, 0, 61, 52
1, 58500, Note_on_c, 0, 64, 78
1, 58500, Control_c, 1, 11, 127
1, 58500, Control_c, 2, 11, 127
1, 58500, Note_on_c, 4, 49, 89
1, 58500, Note_on_c, 4, 52, 101
1, 58500, Note_on_c, 4, 57, 89
1, 58500, Note_on_c, 5, 62, 111
1, 58500, Note_on_c, 5, 74, 111
1, 58500, Note_on_c, 6, 74, 120
1, 58500, Note_on_c, 9, 46, 120
1, 58500, Note_on_c, 9, 73, 115
1, 58500, Note_on_c, 11, 74, 120
1, 58529, Note_off_c, 9, 73, 64
1, 58529, Note_off_c, 4, 52, 64
1, 58529, Note_off_c, 0, 61, 64
1, 58529, Note_off_c, 0, 57, 64
1, 58529, Note_off_c, 0, 64, 64
1, 58529, Note_off_c, 4, 49, 64
1, 58529, Note_off_c, 9, 46, 64
1, 58529, Note_off_c, 4, 57, 64
1, 58530, Note_on_c, 0, 57, 73
1, 58530, Note_on_c, 0, 61, 52
1, 58530, Note_on_c, 0, 64, 83
1, 58530, Note_on_c, 4, 49, 119
1, 58530, Note_on_c, 4, 52, 118
1, 58530, Note_on_c, 4, 57, 105
1, 58559, Note_off_c, 4, 57, 64
1, 58559, Note_off_c, 5, 62, 64
1, 58559, Note_off_c, 1, 30, 64
1, 58559, Note_off_c, 6, 74, 64
1, 58559, Note_off_c, 2, 57, 64
1, 58559, Note_off_c, 5, 74, 64
1, 58559, Note_off_c, 2, 61, 64
1, 58559, Note_off_c, 11, 74, 64
1, 58559, Note_off_c, 4, 49, 64
1, 58559, Note_off_c, 0, 64, 64
1, 58559, Note_off_c, 0, 57, 64
1, 58559, Note_off_c, 2, 66, 64
1, 58559, Note_off_c, 4, 52, 64
1, 58559, Note_off_c, 0, 61, 64
1, 58560, Note_on_c, 0, 59, 58
1, 58560, Note_on_c, 0, 62, 91
1, 58560, Control_c, 1, 11, 64
1, 58560, Note_on_c, 1, 35, 120
1, 58560, Control_c, 2, 11, 64
1, 58560, Note_on_c, 2, 59, 120
1, 58560, Note_on_c, 2, 62, 120
1, 58560, Note_on_c, 2, 66, 120
1, 58560, Note_on_c, 4, 47, 85
1, 58560, Note_on_c, 4, 54, 120
1, 58560, Note_on_c, 5, 59, 120
1, 58560, Note_on_c, 5, 71, 120
1, 58560, Note_on_c, 6, 71, 120
1, 58560, Note_on_c, 9, 35, 120
1, 58560, Note_on_c, 9, 42, 120
1, 58560, Note_on_c, 9, 59, 120
1, 58560, Note_on_c, 11, 71, 120
1, 58589, Note_off_c, 9, 59, 64
1, 58589, Note_off_c, 9, 42, 64
1, 58589, Note_off_c, 9, 35, 64
1, 58619, Note_off_c, 5, 71, 64
1, 58619, Note_off_c, 4, 47, 64
1, 58619, Note_off_c, 4, 54, 64
1, 58619, Note_off_c, 0, 59, 64
1, 58619, Note_off_c, 5, 59, 64
1, 58619, Note_off_c, 6, 71, 64
1, 58619, Note_off_c, 11, 71, 64
1, 58619, Note_off_c, 0, 62, 64
1, 58620, Note_on_c, 0, 59, 79
1, 58620, Note_on_c, 0, 62, 95
1, 58620, Note_on_c, 0, 66, 74
1, 58620, Control_c, 1, 11, 127
1, 58620, Control_c, 2, 11, 127
1, 58620, Note_on_c, 4, 50, 92
1, 58620, Note_on_c, 4, 54, 87
1, 58620, Note_on_c, 4, 62, 95
1, 58620, Note_on_c, 9, 46, 120
1, 58620, Note_on_c, 9, 73, 119
1, 58649, Note_off_c, 9, 73, 64
1, 58649, Note_off_c, 9, 46, 64
1, 58679, Note_off_c, 1, 35, 64
1, 58680, Control_c, 1, 11, 64
1, 58680, Note_on_c, 1, 35, 120
1, 58680, Control_c, 2, 11, 73
1, 58680, Note_on_c, 5, 59, 120
1, 58680, Note_on_c, 5, 71, 120
1, 58680, Note_on_c, 6, 71, 120
1, 58680, Note_on_c, 9, 35, 120
1, 58680, Note_on_c, 9, 42, 120
1, 58680, Note_on_c, 9, 59, 116
1, 58680, Note_on_c, 11, 71, 120
1, 58709, Note_off_c, 9, 59, 64
1, 58709, Note_off_c, 9, 42, 64
1, 58709, Note_off_c, 4, 50, 64
1, 58709, Note_off_c, 0, 66, 64
1, 58709, Note_off_c, 0, 62, 64
1, 58709, Note_off_c, 0, 59, 64
1, 58709, Note_off_c, 4, 62, 64
1, 58709, Note_off_c, 9, 35, 64
1, 58709, Note_off_c, 4, 54, 64
1, 58710, Note_on_c, 0, 59, 71
1, 58710, Note_on_c, 0, 62, 91
1, 58710, Note_on_c, 0, 66, 60
1, 58710, Note_on_c, 4, 54, 109
1, 58710, Note_on_c, 4, 59, 95
1, 58739, Note_off_c, 4, 59, 64
1, 58739, Note_off_c, 6, 71, 64
1, 58739, Note_off_c, 0, 62, 64
1, 58739, Note_off_c, 11, 71, 64
1, 58739, Note_off_c, 5, 71, 64
1, 58739, Note_off_c, 0, 59, 64
1, 58739, Note_off_c, 4, 54, 64
1, 58739, Note_off_c, 5, 59, 64
1, 58739, Note_off_c, 0, 66, 64
1, 58740, Note_on_c, 0, 62, 80
1, 58740, Note_on_c, 0, 66, 62
1, 58740, Note_on_c, 0, 71, 91
1, 58740, Control_c, 1, 11, 127
1, 58740, Control_c, 2, 11, 127
1, 58740, Note_on_c, 4, 50, 103
1, 58740, Note_on_c, 4, 54, 115
1, 58740, Note_on_c, 9, 46, 119
1, 58740, Note_on_c, 9, 73, 119
1, 58769, Note_off_c, 9, 73, 64
1, 58769, Note_off_c, 4, 50, 64
1, 58769, Note_off_c, 9, 46, 64
1, 58769, Note_off_c, 0, 71, 64
1, 58769, Note_off_c, 4, 54, 64
1, 58769, Note_off_c, 0, 62, 64
1, 58769, Note_off_c, 0, 66, 64
1, 58770, Note_on_c, 0, 59, 51
1, 58770, Note_on_c, 0, 62, 85
1, 58770, Note_on_c, 0, 66, 59
1, 58770, Note_on_c, 4, 47, 92
1, 58770, Note_on_c, 4, 52, 98
1, 58770, Note_on_c, 5, 57, 98
1, 58770, Note_on_c, 5, 69, 98
1, 58770, Note_on_c, 6, 69, 120
1, 58770, Note_on_c, 11, 69, 120
1, 58799, Note_off_c, 11, 69, 64
1, 58799, Note_off_c, 0, 62, 64
1, 58799, Note_off_c, 2, 66, 64
1, 58799, Note_off_c, 4, 47, 64
1, 58799, Note_off_c, 1, 35, 64
1, 58799, Note_off_c, 2, 62, 64
1, 58799, Note_off_c, 2, 59, 64
1, 58799, Note_off_c, 0, 59, 64
1, 58799, Note_off_c, 5, 69, 64
1, 58799, Note_off_c, 4, 52, 64
1, 58799, Note_off_c, 0, 66, 64
1, 58799, Note_off_c, 6, 69, 64
1, 58799, Note_off_c, 5, 57, 64
1, 58800, Note_on_c, 0, 55, 74
1, 58800, Note_on_c, 0, 59, 94
1, 58800, Note_on_c, 0, 62, 91
1, 58800, Control_c, 1, 11, 64
1, 58800, Note_on_c, 1, 31, 120
1, 58800, Control_c, 2, 11, 71
1, 58800, Note_on_c, 2, 59, 120
1, 58800, Note_on_c, 2, 62, 120
1, 58800, Note_on_c, 2, 67, 120
1, 58800, Note_on_c, 4, 43, 98
1, 58800, Note_on_c, 4, 50, 116
1, 58800, Note_on_c, 5, 59, 98
1, 58800, Note_on_c, 5, 71, 98
1, 58800, Note_on_c, 6, 71, 120
1, 58800, Note_on_c, 9, 35, 120
1, 58800, Note_on_c, 9, 42, 120
1, 58800, Note_on_c, 9, 59, 118
1, 58800, Note_on_c, 11, 71, 120
1, 58829, Note_off_c, 11, 71, 64
1, 58829, Note_off_c, 9, 59, 64
1, 58829, Note_off_c, 6, 71, 64
1, 58829, Note_off_c, 5, 59, 64
1, 58829, Note_off_c, 9, 42, 64
1, 58829, Note_off_c, 5, 71, 64
1, 58829, Note_off_c, 9, 35, 64
1, 58830, Note_on_c, 5, 62, 54
1, 58830, Note_on_c, 5, 74, 54
1, 58830, Note_on_c, 6, 74, 120
1, 58830, Note_on_c, 11, 74, 120
1, 58859, Note_off_c, 11, 74, 64
1, 58859, Note_off_c, 4, 43, 64
1, 58859, Note_off_c, 0, 59, 64
1, 58859, Note_off_c, 0, 55, 64
1, 58859, Note_off_c, 4, 50, 64
1, 58859, Note_off_c, 5, 62, 64
1, 58859, Note_off_c, 0, 62, 64
1, 58859, Note_off_c, 6, 74, 64
1, 58859, Note_off_c, 5, 74, 64
1, 58860, Note_on_c, 0, 59, 70
1, 58860, Note_on_c, 0, 62, 94
1, 58860, Note_on_c, 0, 67, 101
1, 58860, Control_c, 1, 11, 127
1, 58860, Control_c, 2, 11, 127
1, 58860, Note_on_c, 4, 50, 79
1, 58860, Note_on_c, 4, 55, 111
1, 58860, Note_on_c, 4, 59, 100
1, 58860, Note_on_c, 5, 59, 116
1, 58860, Note_on_c, 5, 71, 116
1, 58860, Note_on_c, 6, 71, 120
1, 58860, Note_on_c, 9, 46, 120
1, 58860, Note_on_c, 9, 73, 109
1, 58860, Note_on_c, 11, 71, 120
1, 58889, Note_off_c, 9, 73, 64
1, 58889, Note_off_c, 9, 46, 64
1, 58919, Note_off_c, 5, 71, 64
1, 58919, Note_off_c, 11, 71, 64
1, 58919, Note_off_c, 1, 31, 64
1, 58919, Note_off_c, 5, 59, 64
1, 58919, Note_off_c, 6, 71, 64
1, 58920, Control_c, 1, 11, 64
1, 58920, Note_on_c, 1, 31, 120
1, 58920, Control_c, 2, 11, 80
1, 58920, Note_on_c, 9, 35, 120
1, 58920, Note_on_c, 9, 42, 120
1, 58920, Note_on_c, 9, 59, 116
1, 58949, Note_off_c, 9, 59, 64
1, 58949, Note_off_c, 4, 55, 64
1, 58949, Note_off_c, 0, 67, 64
1, 58949, Note_off_c, 4, 59, 64
1, 58949, Note_off_c, 0, 62, 64
1, 58949, Note_off_c, 0, 59, 64
1, 58949, Note_off_c, 4, 50, 64
1, 58949, Note_off_c, 9, 42, 64
1, 58949, Note_off_c, 9, 35, 64
1, 58950, Note_on_c, 0, 59, 52
1, 58950, Note_on_c, 0, 62, 85
1, 58950, Note_on_c, 0, 67, 94
1, 58950, Note_on_c, 4, 50, 82
1, 58950, Note_on_c, 4, 55, 98
1, 58950, Note_on_c, 4, 59, 85
1, 58950, Note_on_c, 5, 57, 83
1, 58950, Note_on_c, 5, 69, 83
1, 58950, Note_on_c, 6, 69, 120
1, 58950, Note_on_c, 11, 69, 120
1, 58979, Note_off_c, 11, 69, 64
1, 58979, Note_off_c, 0, 59, 64
1, 58979, Note_off_c, 0, 62, 64
1, 58979, Note_off_c, 4, 59, 64
1, 58979, Note_off_c, 4, 50, 64
1, 58979, Note_off_c, 0, 67, 64
1, 58979, Note_off_c, 4, 55, 64
1, 58979, Note_off_c, 6, 69, 64
1, 58979, Note_off_c, 5, 69, 64
1, 58979, Note_off_c, 5, 57, 64
1, 58980, Note_on_c, 0, 62, 78
1, 58980, Note_on_c, 0, 67, 100
1, 58980, Note_on_c, 0, 71, 46
1, 58980, Control_c, 1, 11, 127
1, 58980, Control_c, 2, 11, 127
1, 58980, Note_on_c, 4, 43, 109
1, 58980, Note_on_c, 4, 50, 109
1, 58980, Note_on_c, 5, 59, 98
1, 58980, Note_on_c, 5, 71, 98
1, 58980, Note_on_c, 6, 71, 120
1, 58980, Note_on_c, 9, 46, 120
1, 58980, Note_on_c, 9, 73, 115
1, 58980, Note_on_c, 11, 71, 120
1, 59009, Note_off_c, 11, 71, 64
1, 59009, Note_off_c, 6, 71, 64
1, 59009, Note_off_c, 0, 62, 64
1, 59009, Note_off_c, 0, 67, 64
1, 59009, Note_off_c, 5, 59, 64
1, 59009, Note_off_c, 4, 43, 64
1, 59009, Note_off_c, 0, 71, 64
1, 59009, Note_off_c, 4, 50, 64
1, 59009, Note_off_c, 9, 73, 64
1, 59009, Note_off_c, 9, 46, 64
1, 59009, Note_off_c, 5, 71, 64
1, 59010, Note_on_c, 0, 59, 45
1, 59010, Note_on_c, 0, 62, 73
1, 59010, Note_on_c, 0, 67, 86
1, 59010, Note_on_c, 4, 43, 101
1, 59010, Note_on_c, 4, 52, 116
1, 59010, Note_on_c, 5, 57, 94
1, 59010, Note_on_c, 5, 69, 94
1, 59010, Note_on_c, 6, 69, 120
1, 59010, Note_on_c, 11, 69, 120
1, 59039, Note_off_c, 11, 69, 64
1, 59039, Note_off_c, 0, 62, 64
1, 59039, Note_off_c, 2, 62, 64
1, 59039, Note_off_c, 4, 43, 64
1, 59039, Note_off_c, 2, 59, 64
1, 59039, Note_off_c, 2, 67, 64
1, 59039, Note_off_c, 1, 31, 64
1, 59039, Note_off_c, 0, 59, 64
1, 59039, Note_off_c, 5, 69, 64
1, 59039, Note_off_c, 4, 52, 64
1, 59039, Note_off_c, 0, 67, 64
1, 59039, Note_off_c, 6, 69, 64
1, 59039, Note_off_c, 5, 57, 64
1, 59040, Note_on_c, 0, 54, 35
1, 59040, Note_on_c, 0, 57, 85
1, 59040, Note_on_c, 0, 62, 79
1, 59040, Control_c, 1, 11, 64
1, 59040, Note_on_c, 1, 38, 120
1, 59040, Control_c, 2, 11, 64
1, 59040, Note_on_c, 2, 57, 120
1, 59040, Note_on_c, 2, 62, 120
1, 59040, Note_on_c, 2, 66, 120
1, 59040, Note_on_c, 4, 45, 90
1, 59040, Note_on_c, 4, 50, 105
1, 59040, Note_on_c, 5, 62, 120
1, 59040, Note_on_c, 5, 74, 120
1, 59040, Note_on_c, 6, 74, 120
1, 59040, Note_on_c, 9, 35, 120
1, 59040, Note_on_c, 9, 42, 120
1, 59040, Note_on_c, 9, 59, 116
1, 59040, Note_on_c, 11, 74, 120
1, 59069, Note_off_c, 9, 59, 64
1, 59069, Note_off_c, 9, 42, 64
1, 59069, Note_off_c, 9, 35, 64
1, 59099, Note_off_c, 11, 74, 64
1, 59099, Note_off_c, 5, 62, 64
1, 59099, Note_off_c, 0, 62, 64
1, 59099, Note_off_c, 4, 45, 64
1, 59099, Note_off_c, 0, 54, 64
1, 59099, Note_off_c, 4, 50, 64
1, 59099, Note_off_c, 5, 74, 64
1, 59099, Note_off_c, 6, 74, 64
1, 59099, Note_off_c, 0, 57, 64
1, 59100, Note_on_c, 0, 57, 69
1, 59100, Note_on_c, 0, 62, 98
1, 59100, Note_on_c, 0, 66, 74
1, 59100, Control_c, 1, 11, 127
1, 59100, Control_c, 2, 11, 127
1, 59100, Note_on_c, 4, 45, 100
1, 59100, Note_on_c, 4, 50, 111
1, 59100, Note_on_c, 4, 54, 89
1, 59100, Note_on_c, 9, 46, 120
1, 59100, Note_on_c, 9, 73, 109
1, 59129, Note_off_c, 9, 73, 64
1, 59129, Note_off_c, 9, 46, 64
1, 59159, Note_off_c, 1, 38, 64
1, 59160, Control_c, 1, 11, 64
1, 59160, Note_on_c, 1, 38, 120
1, 59160, Control_c, 2, 11, 73
1, 59160, Note_on_c, 5, 62, 120
1, 59160, Note_on_c, 5, 74, 120
1, 59160, Note_on_c, 6, 74, 120
1, 59160, Note_on_c, 9, 35, 120
1, 59160, Note_on_c, 9, 42, 120
1, 59160, Note_on_c, 9, 59, 116
1, 59160, Note_on_c, 11, 74, 120
1, 59189, Note_off_c, 9, 59, 64
1, 59189, Note_off_c, 9, 42, 64
1, 59189, Note_off_c, 4, 45, 64
1, 59189, Note_off_c, 0, 66, 64
1, 59189, Note_off_c, 0, 62, 64
1, 59189, Note_off_c, 0, 57, 64
1, 59189, Note_off_c, 4, 54, 64
1, 59189, Note_off_c, 9, 35, 64
1, 59189, Note_off_c, 4, 50, 64
1, 59190, Note_on_c, 0, 54, 44
1, 59190, Note_on_c, 0, 57, 78
1, 59190, Note_on_c, 0, 62, 58
1, 59190, Note_on_c, 4, 45, 85
1, 59190, Note_on_c, 4, 50, 105
1, 59190, Note_on_c, 4, 54, 81
1, 59219, Note_off_c, 4, 54, 64
1, 59219, Note_off_c, 5, 62, 64
1, 59219, Note_off_c, 6, 74, 64
1, 59219, Note_off_c, 0, 57, 64
1, 59219, Note_off_c, 11, 74, 64
1, 59219, Note_off_c, 5, 74, 64
1, 59219, Note_off_c, 0, 54, 64
1, 59219, Note_off_c, 4, 50, 64
1, 59219, Note_off_c, 4, 45, 64
1, 59219, Note_off_c, 0, 62, 64
1, 59220, Note_on_c, 0, 57, 57
1, 59220, Note_on_c, 0, 62, 91
1, 59220, Note_on_c, 0, 66, 77
1, 59220, Control_c, 1, 11, 127
1, 59220, Control_c, 2, 11, 127
1, 59220, Note_on_c, 4, 50, 109
1, 59220, Note_on_c, 4, 54, 89
1, 59220, Note_on_c, 4, 57, 109
1, 59220, Note_on_c, 9, 46, 120
1, 59220, Note_on_c, 9, 73, 119
1, 59249, Note_off_c, 9, 73, 64
1, 59249, Note_off_c, 4, 57, 64
1, 59249, Note_off_c, 4, 50, 64
1, 59249, Note_off_c, 0, 66, 64
1, 59249, Note_off_c, 4, 54, 64
1, 59249, Note_off_c, 9, 46, 64
1, 59249, Note_off_c, 0, 57, 64
1, 59249, Note_off_c, 0, 62, 64
1, 59250, Note_on_c, 0, 54, 35
1, 59250, Note_on_c, 0, 57, 79
1, 59250, Note_on_c, 0, 62, 56
1, 59250, Note_on_c, 4, 50, 111
1, 59250, Note_on_c, 4, 54, 100
1, 59250, Note_on_c, 4, 57, 100
1, 59250, Note_on_c, 5, 62, 89
1, 59250, Note_on_c, 5, 74, 89
1, 59250, Note_on_c, 6, 74, 120
1, 59250, Note_on_c, 11, 74, 120
1, 59279, Note_off_c, 11, 74, 64
1, 59279, Note_off_c, 0, 54, 64
1, 59279, Note_off_c, 0, 57, 64
1, 59279, Note_off_c, 4, 57, 64
1, 59279, Note_off_c, 4, 50, 64
1, 59279, Note_off_c, 0, 62, 64
1, 59279, Note_off_c, 1, 38, 64
1, 59279, Note_off_c, 4, 54, 64
1, 59279, Note_off_c, 5, 74, 64
1, 59279, Note_off_c, 5, 62, 64
1, 59279, Note_off_c, 6, 74, 64
1, 59280, Note_on_c, 0, 54, 49
1, 59280, Note_on_c, 0, 57, 85
1, 59280, Note_on_c, 0, 62, 75
1, 59280, Control_c, 1, 11, 64
1, 59280, Note_on_c, 1, 38, 120
1, 59280, Control_c, 2, 11, 71
1, 59280, Note_on_c, 4, 45, 105
1, 59280, Note_on_c, 4, 50, 116
1, 59280, Note_on_c, 5, 64, 81
1, 59280, Note_on_c, 5, 76, 81
1, 59280, Note_on_c, 6, 76, 120
1, 59280, Note_on_c, 9, 35, 120
1, 59280, Note_on_c, 9, 42, 120
1, 59280, Note_on_c, 9, 59, 118
1, 59280, Note_on_c, 11, 76, 120
1, 59309, Note_off_c, 11, 76, 64
1, 59309, Note_off_c, 9, 59, 64
1, 59309, Note_off_c, 6, 76, 64
1, 59309, Note_off_c, 5, 64, 64
1, 59309, Note_off_c, 9, 42, 64
1, 59309, Note_off_c, 5, 76, 64
1, 59309, Note_off_c, 9, 35, 64
1, 59310, Note_on_c, 5, 62, 95
1, 59310, Note_on_c, 5, 74, 95
1, 59310, Note_on_c, 6, 74, 120
1, 59310, Note_on_c, 11, 74, 120
1, 59339, Note_off_c, 11, 74, 64
1, 59339, Note_off_c, 4, 45, 64
1, 59339, Note_off_c, 0, 57, 64
1, 59339, Note_off_c, 0, 54, 64
1, 59339, Note_off_c, 4, 50, 64
1, 59339, Note_off_c, 5, 62, 64
1, 59339, Note_off_c, 0, 62, 64
1, 59339, Note_off_c, 6, 74, 64
1, 59339, Note_off_c, 5, 74, 64
1, 59340, Note_on_c, 0, 57, 56
1, 59340, Note_on_c, 0, 62, 84
1, 59340, Note_on_c, 0, 66, 49
1, 59340, Control_c, 1, 11, 127
1, 59340, Control_c, 2, 11, 127
1, 59340, Note_on_c, 4, 50, 105
1, 59340, Note_on_c, 4, 54, 115
1, 59340, Note_on_c, 5, 64, 111
1, 59340, Note_on_c, 5, 76, 111
1, 59340, Note_on_c, 6, 76, 120
1, 59340, Note_on_c, 9, 46, 120
1, 59340, Note_on_c, 9, 73, 115
1, 59340, Note_on_c, 11, 76, 120
1, 59369, Note_off_c, 9, 73, 64
1, 59369, Note_off_c, 4, 50, 64
1, 59369, Note_off_c, 0, 57, 64
1, 59369, Note_off_c, 0, 66, 64
1, 59369, Note_off_c, 9, 46, 64
1, 59369, Note_off_c, 0, 62, 64
1, 59369, Note_off_c, 4, 54, 64
1, 59370, Note_on_c, 0, 57, 84
1, 59370, Note_on_c, 0, 62, 94
1, 59370, Note_on_c, 0, 66, 76
1, 59370, Note_on_c, 4, 50, 100
1, 59370, Note_on_c, 4, 54, 92
1, 59391, Pitch_bend_c, 5, 7749
1, 59393, Pitch_bend_c, 5, 6215
1, 59396, Pitch_bend_c, 5, 4197
1, 59398, Pitch_bend_c, 5, 2422
1, 59399, Note_off_c, 4, 54, 64
1, 59399, Note_off_c, 2, 62, 64
1, 59399, Note_off_c, 2, 66, 64
1, 59399, Note_off_c, 1, 38, 64
1, 59399, Note_off_c, 5, 76, 64
1, 59399, Note_off_c, 11, 76, 64
1, 59399, Note_off_c, 2, 57, 64
1, 59399, Note_off_c, 5, 64, 64
1, 59399, Note_off_c, 0, 66, 64
1, 59399, Note_off_c, 0, 57, 64
1, 59399, Note_off_c, 6, 76, 64
1, 59399, Note_off_c, 4, 50, 64
1, 59399, Note_off_c, 0, 62, 64
1, 59400, Note_on_c, 0, 52, 47
1, 59400, Note_on_c, 0, 57, 89
1, 59400, Note_on_c, 0, 61, 52
1, 59400, Control_c, 1, 11, 64
1, 59400, Note_on_c, 1, 33, 120
1, 59400, Control_c, 2, 11, 80
1, 59400, Note_on_c, 2, 57, 120
1, 59400, Note_on_c, 2, 61, 120
1, 59400, Note_on_c, 2, 64, 120
1, 59400, Note_on_c, 4, 45, 101
1, 59400, Note_on_c, 4, 52, 101
1, 59400, Note_on_c, 5, 66, 119
1, 59400, Note_on_c, 5, 78, 119
1, 59400, Note_on_c, 6, 78, 120
1, 59400, Note_on_c, 9, 35, 120
1, 59400, Note_on_c, 9, 42, 120
1, 59400, Note_on_c, 9, 59, 119
1, 59400, Note_on_c, 11, 78, 120
1, 59401, Pitch_bend_c, 5, 1211
1, 59403, Pitch_bend_c, 5, 646
1, 59406, Pitch_bend_c, 5, 565
1, 59408, Pitch_bend_c, 5, 646
1, 59411, Pitch_bend_c, 5, 1373
1, 59413, Pitch_bend_c, 5, 2260
1, 59416, Pitch_bend_c, 5, 3471
1, 59418, Pitch_bend_c, 5, 5085
1, 59421, Pitch_bend_c, 5, 6942
1, 59423, Pitch_bend_c, 5, 8071
1, 59426, Pitch_bend_c, 5, 8192
1, 59429, Note_off_c, 9, 59, 64
1, 59429, Note_off_c, 9, 42, 64
1, 59429, Note_off_c, 9, 35, 64
1, 59459, Note_off_c, 11, 78, 64
1, 59459, Note_off_c, 5, 66, 64
1, 59459, Note_off_c, 0, 61, 64
1, 59459, Note_off_c, 4, 45, 64
1, 59459, Note_off_c, 0, 52, 64
1, 59459, Note_off_c, 4, 52, 64
1, 59459, Note_off_c, 5, 78, 64
1, 59459, Note_off_c, 6, 78, 64
1, 59459, Note_off_c, 0, 57, 64
1, 59460, Note_on_c, 0, 57, 51
1, 59460, Note_on_c, 0, 61, 52
1, 59460, Note_on_c, 0, 64, 78
1, 59460, Control_c, 1, 11, 127
1, 59460, Control_c, 2, 11, 127
1, 59460, Note_on_c, 4, 49, 89
1, 59460, Note_on_c, 4, 52, 101
1, 59460, Note_on_c, 4, 57, 89
1, 59460, Note_on_c, 5, 62, 98
1, 59460, Note_on_c, 5, 74, 98
1, 59460, Note_on_c, 6, 74, 120
1, 59460, Note_on_c, 9, 46, 120
1, 59460, Note_on_c, 9, 73, 111
1, 59460, Note_on_c, 11, 74, 120
1, 59489, Note_off_c, 9, 73, 64
1, 59489, Note_off_c, 4, 52, 64
1, 59489, Note_off_c, 0, 61, 64
1, 59489, Note_off_c, 0, 57, 64
1, 59489, Note_off_c, 0, 64, 64
1, 59489, Note_off_c, 4, 49, 64
1, 59489, Note_off_c, 9, 46, 64
1, 59489, Note_off_c, 4, 57, 64
1, 59490, Note_on_c, 0, 57, 73
1, 59490, Note_on_c, 0, 61, 52
1, 59490, Note_on_c, 0, 64, 83
1, 59490, Note_on_c, 4, 49, 119
1, 59490, Note_on_c, 4, 52, 118
1, 59490, Note_on_c, 4, 57, 105
1, 59519, Note_off_c, 4, 57, 64
1, 59519, Note_off_c, 5, 62, 64
1, 59519, Note_off_c, 1, 33, 64
1, 59519, Note_off_c, 6, 74, 64
1, 59519, Note_off_c, 2, 57, 64
1, 59519, Note_off_c, 5, 74, 64
1, 59519, Note_off_c, 2, 61, 64
1, 59519, Note_off_c, 11, 74, 64
1, 59519, Note_off_c, 4, 49, 64
1, 59519, Note_off_c, 0, 64, 64
1, 59519, Note_off_c, 0, 57, 64
1, 59519, Note_off_c, 2, 64, 64
1, 59519, Note_off_c, 4, 52, 64
1, 59519, Note_off_c, 0, 61, 64
1, 59520, Note_on_c, 0, 59, 58
1, 59520, Note_on_c, 0, 62, 91
1, 59520, Control_c, 2, 11, 64
1, 59520, Note_on_c, 2, 59, 120
1, 59520, Note_on_c, 2, 62, 120
1, 59520, Note_on_c, 2, 66, 120
1, 59520, Note_on_c, 4, 47, 85
1, 59520, Note_on_c, 4, 54, 120
1, 59520, Note_on_c, 5, 59, 105
1, 59520, Note_on_c, 5, 71, 105
1, 59520, Note_on_c, 6, 71, 120
1, 59520, Note_on_c, 9, 42, 120
1, 59520, Note_on_c, 9, 59, 119
1, 59520, Note_on_c, 11, 71, 120
1, 59549, Note_off_c, 9, 59, 64
1, 59549, Note_off_c, 9, 42, 64
1, 59579, Note_off_c, 6, 71, 64
1, 59579, Note_off_c, 5, 59, 64
1, 59579, Note_off_c, 4, 54, 64
1, 59579, Note_off_c, 0, 59, 64
1, 59579, Note_off_c, 5, 71, 64
1, 59579, Note_off_c, 0, 62, 64
1, 59579, Note_off_c, 11, 71, 64
1, 59579, Note_off_c, 4, 47, 64
1, 59580, Note_on_c, 0, 59, 79
1, 59580, Note_on_c, 0, 62, 95
1, 59580, Note_on_c, 0, 66, 74
1, 59580, Control_c, 2, 11, 127
1, 59580, Note_on_c, 4, 50, 92
1, 59580, Note_on_c, 4, 54, 87
1, 59580, Note_on_c, 4, 62, 95
1, 59580, Note_on_c, 9, 46, 120
1, 59580, Note_on_c, 9, 73, 109
1, 59609, Note_off_c, 9, 73, 64
1, 59609, Note_off_c, 9, 46, 64
1, 59640, Control_c, 2, 11, 73
1, 59640, Note_on_c, 5, 59, 119
1, 59640, Note_on_c, 5, 71, 119
1, 59640, Note_on_c, 6, 71, 120
1, 59640, Note_on_c, 9, 42, 120
1, 59640, Note_on_c, 9, 59, 118
1, 59640, Note_on_c, 11, 71, 120
1, 59669, Note_off_c, 9, 59, 64
1, 59669, Note_off_c, 4, 50, 64
1, 59669, Note_off_c, 0, 62, 64
1, 59669, Note_off_c, 0, 59, 64
1, 59669, Note_off_c, 4, 62, 64
1, 59669, Note_off_c, 9, 42, 64
1, 59669, Note_off_c, 0, 66, 64
1, 59669, Note_off_c, 4, 54, 64
1, 59670, Note_on_c, 0, 59, 71
1, 59670, Note_on_c, 0, 62, 91
1, 59670, Note_on_c, 0, 66, 60
1, 59670, Note_on_c, 4, 54, 109
1, 59670, Note_on_c, 4, 59, 95
1, 59699, Note_off_c, 4, 59, 64
1, 59699, Note_off_c, 0, 66, 64
1, 59699, Note_off_c, 0, 59, 64
1, 59699, Note_off_c, 11, 71, 64
1, 59699, Note_off_c, 6, 71, 64
1, 59699, Note_off_c, 0, 62, 64
1, 59699, Note_off_c, 5, 59, 64
1, 59699, Note_off_c, 5, 71, 64
1, 59699, Note_off_c, 4, 54, 64
1, 59700, Note_on_c, 0, 62, 80
1, 59700, Note_on_c, 0, 66, 62
1, 59700, Note_on_c, 0, 71, 91
1, 59700, Control_c, 2, 11, 127
1, 59700, Note_on_c, 4, 50, 103
1, 59700, Note_on_c, 4, 54, 115
1, 59700, Note_on_c, 9, 46, 120
1, 59700, Note_on_c, 9, 73, 119
1, 59729, Note_off_c, 9, 73, 64
1, 59729, Note_off_c, 9, 46, 64
1, 59729, Note_off_c, 4, 50, 64
1, 59729, Note_off_c, 0, 62, 64
1, 59729, Note_off_c, 0, 66, 64
1, 59729, Note_off_c, 4, 54, 64
1, 59729, Note_off_c, 0, 71, 64
1, 59730, Note_on_c, 0, 59, 51
1, 59730, Note_on_c, 0, 62, 85
1, 59730, Note_on_c, 0, 66, 59
1, 59730, Note_on_c, 4, 47, 92
1, 59730, Note_on_c, 4, 52, 98
1, 59730, Note_on_c, 5, 57, 91
1, 59730, Note_on_c, 5, 69, 91
1, 59730, Note_on_c, 6, 69, 120
1, 59730, Note_on_c, 11, 69, 120
1, 59759, Note_off_c, 11, 69, 64
1, 59759, Note_off_c, 2, 59, 64
1, 59759, Note_off_c, 4, 52, 64
1, 59759, Note_off_c, 2, 62, 64
1, 59759, Note_off_c, 0, 59, 64
1, 59759, Note_off_c, 2, 66, 64
1, 59759, Note_off_c, 0, 62, 64
1, 59759, Note_off_c, 0, 66, 64
1, 59759, Note_off_c, 5, 57, 64
1, 59759, Note_off_c, 4, 47, 64
1, 59759, Note_off_c, 6, 69, 64
1, 59759, Note_off_c, 5, 69, 64
1, 59760, Note_on_c, 0, 55, 74
1, 59760, Note_on_c, 0, 59, 94
1, 59760, Note_on_c, 0, 62, 91
1, 59760, Control_c, 2, 11, 71
1, 59760, Note_on_c, 2, 59, 120
1, 59760, Note_on_c, 2, 62, 120
1, 59760, Note_on_c, 2, 67, 120
1, 59760, Note_on_c, 4, 43, 98
1, 59760, Note_on_c, 4, 50, 116
1, 59760, Note_on_c, 5, 59, 97
1, 59760, Note_on_c, 5, 71, 97
1, 59760, Note_on_c, 6, 71, 120
1, 59760, Note_on_c, 9, 42, 120
1, 59760, Note_on_c, 9, 59, 116
1, 59760, Note_on_c, 11, 71, 120
1, 59789, Note_off_c, 11, 71, 64
1, 59789, Note_off_c, 5, 71, 64
1, 59789, Note_off_c, 5, 59, 64
1, 59789, Note_off_c, 9, 59, 64
1, 59789, Note_off_c, 6, 71, 64
1, 59789, Note_off_c, 9, 42, 64
1, 59790, Note_on_c, 5, 62, 80
1, 59790, Note_on_c, 5, 74, 80
1, 59790, Note_on_c, 6, 74, 120
1, 59790, Note_on_c, 11, 74, 120
1, 59819, Note_off_c, 11, 74, 64
1, 59819, Note_off_c, 5, 74, 64
1, 59819, Note_off_c, 0, 55, 64
1, 59819, Note_off_c, 0, 59, 64
1, 59819, Note_off_c, 0, 62, 64
1, 59819, Note_off_c, 4, 43, 64
1, 59819, Note_off_c, 5, 62, 64
1, 59819, Note_off_c, 4, 50, 64
1, 59819, Note_off_c, 6, 74, 64
1, 59820, Note_on_c, 0, 59, 70
1, 59820, Note_on_c, 0, 62, 94
1, 59820, Note_on_c, 0, 67, 101
1, 59820, Control_c, 2, 11, 127
1, 59820, Note_on_c, 4, 50, 79
1, 59820, Note_on_c, 4, 55, 111
1, 59820, Note_on_c, 4, 59, 100
1, 59820, Note_on_c, 5, 59, 113
1, 59820, Note_on_c, 5, 71, 113
1, 59820, Note_on_c, 6, 71, 120
1, 59820, Note_on_c, 9, 46, 120
1, 59820, Note_on_c, 9, 73, 119
1, 59820, Note_on_c, 11, 71, 120
1, 59849, Note_off_c, 9, 73, 64
1, 59849, Note_off_c, 9, 46, 64
1, 59879, Note_off_c, 5, 59, 64
1, 59879, Note_off_c, 6, 71, 64
1, 59879, Note_off_c, 5, 71, 64
1, 59879, Note_off_c, 11, 71, 64
1, 59880, Control_c, 2, 11, 80
1, 59880, Note_on_c, 9, 42, 120
1, 59880, Note_on_c, 9, 59, 120
1, 59909, Note_off_c, 9, 59, 64
1, 59909, Note_off_c, 4, 50, 64
1, 59909, Note_off_c, 4, 59, 64
1, 59909, Note_off_c, 9, 42, 64
1, 59909, Note_off_c, 0, 59, 64
1, 59909, Note_off_c, 0, 62, 64
1, 59909, Note_off_c, 0, 67, 64
1, 59909, Note_off_c, 4, 55, 64
1, 59910, Note_on_c, 0, 59, 52
1, 59910, Note_on_c, 0, 62, 85
1, 59910, Note_on_c, 0, 67, 94
1, 59910, Note_on_c, 4, 50, 82
1, 59910, Note_on_c, 4, 55, 98
1, 59910, Note_on_c, 4, 59, 85
1, 59910, Note_on_c, 5, 57, 98
1, 59910, Note_on_c, 5, 69, 98
1, 59910, Note_on_c, 6, 69, 120
1, 59910, Note_on_c, 11, 69, 120
1, 59939, Note_off_c, 11, 69, 64
1, 59939, Note_off_c, 0, 67, 64
1, 59939, Note_off_c, 5, 57, 64
1, 59939, Note_off_c, 4, 55, 64
1, 59939, Note_off_c, 4, 50, 64
1, 59939, Note_off_c, 0, 59, 64
1, 59939, Note_off_c, 4, 59, 64
1, 59939, Note_off_c, 0, 62, 64
1, 59939, Note_off_c, 5, 69, 64
1, 59939, Note_off_c, 6, 69, 64
1, 59940, Note_on_c, 0, 62, 78
1, 59940, Note_on_c, 0, 67, 100
1, 59940, Note_on_c, 0, 71, 46
1, 59940, Control_c, 2, 11, 127
1, 59940, Note_on_c, 4, 43, 109
1, 59940, Note_on_c, 4, 50, 109
1, 59940, Note_on_c, 5, 59, 101
1, 59940, Note_on_c, 5, 71, 101
1, 59940, Note_on_c, 6, 71, 120
1, 59940, Note_on_c, 9, 46, 120
1, 59940, Note_on_c, 9, 73, 115
1, 59940, Note_on_c, 11, 71, 120
1, 59969, Note_off_c, 11, 71, 64
1, 59969, Note_off_c, 0, 67, 64
1, 59969, Note_off_c, 0, 71, 64
1, 59969, Note_off_c, 5, 71, 64
1, 59969, Note_off_c, 4, 50, 64
1, 59969, Note_off_c, 4, 43, 64
1, 59969, Note_off_c, 0, 62, 64
1, 59969, Note_off_c, 5, 59, 64
1, 59969, Note_off_c, 9, 46, 64
1, 59969, Note_off_c, 6, 71, 64
1, 59969, Note_off_c, 9, 73, 64
1, 59970, Note_on_c, 0, 59, 45
1, 59970, Note_on_c, 0, 62, 73
1, 59970, Note_on_c, 0, 67, 86
1, 59970, Note_on_c, 4, 43, 101
1, 59970, Note_on_c, 4, 52, 116
1, 59970, Note_on_c, 5, 57, 91
1, 59970, Note_on_c, 5, 69, 91
1, 59970, Note_on_c, 6, 69, 120
1, 59970, Note_on_c, 11, 69, 120
1, 59999, Note_off_c, 11, 69, 64
1, 59999, Note_off_c, 2, 62, 64
1, 59999, Note_off_c, 4, 52, 64
1, 59999, Note_off_c, 2, 67, 64
1, 59999, Note_off_c, 0, 59, 64
1, 59999, Note_off_c, 2, 59, 64
1, 59999, Note_off_c, 0, 62, 64
1, 59999, Note_off_c, 0, 67, 64
1, 59999, Note_off_c, 5, 57, 64
1, 59999, Note_off_c, 4, 43, 64
1, 59999, Note_off_c, 6, 69, 64
1, 59999, Note_off_c, 5, 69, 64
1, 60000, Note_on_c, 0, 54, 35
1, 60000, Note_on_c, 0, 57, 85
1, 60000, Note_on_c, 0, 62, 79
1, 60000, Control_c, 2, 74, 65
1, 60000, Control_c, 2, 11, 64
1, 60000, Note_on_c, 2, 57, 120
1, 60000, Note_on_c, 2, 62, 120
1, 60000, Note_on_c, 2, 66, 120
1, 60000, Note_on_c, 4, 45, 90
1, 60000, Note_on_c, 4, 50, 105
1, 60000, Note_on_c, 5, 62, 105
1, 60000, Note_on_c, 5, 74, 105
1, 60000, Note_on_c, 6, 74, 120
1, 60000, Note_on_c, 8, 50, 120
1, 60000, Note_on_c, 8, 62, 120
1, 60000, Note_on_c, 9, 42, 120
1, 60000, Note_on_c, 9, 59, 111
1, 60000, Note_on_c, 11, 74, 120
1, 60029, Note_off_c, 9, 59, 64
1, 60029, Note_off_c, 9, 42, 64
1, 60030, Control_c, 2, 74, 70
1, 60045, Control_c, 2, 74, 74
1, 60059, Note_off_c, 0, 62, 64
1, 60059, Note_off_c, 11, 74, 64
1, 60059, Note_off_c, 5, 74, 64
1, 60059, Note_off_c, 4, 45, 64
1, 60059, Note_off_c, 4, 50, 64
1, 60059, Note_off_c, 0, 54, 64
1, 60059, Note_off_c, 5, 62, 64
1, 60059, Note_off_c, 6, 74, 64
1, 60059, Note_off_c, 0, 57, 64
1, 60060, Note_on_c, 0, 57, 69
1, 60060, Note_on_c, 0, 62, 98
1, 60060, Note_on_c, 0, 66, 74
1, 60060, Control_c, 2, 74, 78
1, 60060, Control_c, 2, 11, 127
1, 60060, Note_on_c, 4, 45, 100
1, 60060, Note_on_c, 4, 50, 111
1, 60060, Note_on_c, 4, 54, 89
1, 60060, Note_on_c, 9, 46, 120
1, 60060, Note_on_c, 9, 73, 119
1, 60060, Control_c, 12, 11, 95
1, 60075, Control_c, 2, 74, 83
1, 60089, Note_off_c, 9, 73, 64
1, 60089, Note_off_c, 9, 46, 64
1, 60090, Control_c, 2, 74, 87
1, 60105, Control_c, 2, 74, 91
1, 60120, Control_c, 2, 74, 96
1, 60120, Control_c, 2, 11, 73
1, 60120, Note_on_c, 5, 62, 119
1, 60120, Note_on_c, 5, 74, 119
1, 60120, Note_on_c, 6, 74, 120
1, 60120, Note_on_c, 9, 42, 120
1, 60120, Note_on_c, 9, 59, 119
1, 60120, Note_on_c, 11, 74, 120
1, 60120, Control_c, 12, 74, 127
1, 60120, Note_on_c, 12, 72, 120
1, 60135, Control_c, 2, 74, 100
1, 60135, Control_c, 12, 11, 90
1, 60135, Control_c, 12, 74, 123
1, 60149, Note_off_c, 9, 59, 64
1, 60149, Note_off_c, 9, 42, 64
1, 60149, Note_off_c, 0, 62, 64
1, 60149, Note_off_c, 4, 45, 64
1, 60149, Note_off_c, 0, 66, 64
1, 60149, Note_off_c, 4, 50, 64
1, 60149, Note_off_c, 4, 54, 64
1, 60149, Note_off_c, 0, 57, 64
1, 60150, Note_on_c, 0, 54, 44
1, 60150, Note_on_c, 0, 57, 78
1, 60150, Note_on_c, 0, 62, 58
1, 60150, Control_c, 2, 74, 105
1, 60150, Note_on_c, 4, 45, 85
1, 60150, Note_on_c, 4, 50, 105
1, 60150, Note_on_c, 4, 54, 81
1, 60150, Control_c, 12, 74, 120
1, 60150, Control_c, 12, 11, 86
1, 60165, Control_c, 2, 74, 109
1, 60165, Control_c, 12, 74, 117
1, 60165, Control_c, 12, 11, 82
1, 60179, Note_off_c, 4, 54, 64
1, 60179, Note_off_c, 4, 50, 64
1, 60179, Note_off_c, 0, 57, 64
1, 60179, Note_off_c, 5, 74, 64
1, 60179, Note_off_c, 5, 62, 64
1, 60179, Note_off_c, 6, 74, 64
1, 60179, Note_off_c, 11, 74, 64
1, 60179, Note_off_c, 4, 45, 64
1, 60179, Note_off_c, 0, 54, 64
1, 60179, Note_off_c, 0, 62, 64
1, 60180, Note_on_c, 0, 57, 57
1, 60180, Note_on_c, 0, 62, 91
1, 60180, Note_on_c, 0, 66, 77
1, 60180, Control_c, 2, 74, 113
1, 60180, Control_c, 2, 11, 127
1, 60180, Note_on_c, 4, 50, 109
1, 60180, Note_on_c, 4, 54, 89
1, 60180, Note_on_c, 4, 57, 109
1, 60180, Note_on_c, 9, 46, 120
1, 60180, Note_on_c, 9, 73, 119
1, 60180, Control_c, 12, 11, 78
1, 60180, Control_c, 12, 74, 114
1, 60195, Control_c, 2, 74, 118
1, 60195, Control_c, 12, 11, 74
1, 60195, Control_c, 12, 74, 111
1, 60209, Note_off_c, 9, 73, 64
1, 60209, Note_off_c, 4, 50, 64
1, 60209, Note_off_c, 0, 57, 64
1, 60209, Note_off_c, 0, 66, 64
1, 60209, Note_off_c, 0, 62, 64
1, 60209, Note_off_c, 9, 46, 64
1, 60209, Note_off_c, 4, 54, 64
1, 60209, Note_off_c, 4, 57, 64
1, 60210, Note_on_c, 0, 54, 35
1, 60210, Note_on_c, 0, 57, 79
1, 60210, Note_on_c, 0, 62, 56
1, 60210, Control_c, 2, 74, 122
1, 60210, Note_on_c, 4, 50, 111
1, 60210, Note_on_c, 4, 54, 100
1, 60210, Note_on_c, 4, 57, 100
1, 60210, Note_on_c, 5, 62, 103
1, 60210, Note_on_c, 5, 74, 103
1, 60210, Note_on_c, 6, 50, 120
1, 60210, Note_on_c, 6, 74, 120
1, 60210, Note_on_c, 11, 50, 120
1, 60210, Note_on_c, 11, 74, 120
1, 60210, Control_c, 12, 74, 107
1, 60210, Control_c, 12, 11, 70
1, 60225, Control_c, 2, 74, 127
1, 60225, Control_c, 12, 74, 104
1, 60225, Control_c, 12, 11, 66
1, 60239, Note_off_c, 11, 74, 64
1, 60239, Note_off_c, 11, 50, 64
1, 60239, Note_off_c, 6, 74, 64
1, 60239, Note_off_c, 4, 50, 64
1, 60239, Note_off_c, 4, 57, 64
1, 60239, Note_off_c, 0, 54, 64
1, 60239, Note_off_c, 6, 50, 64
1, 60239, Note_off_c, 0, 62, 64
1, 60239, Note_off_c, 0, 57, 64
1, 60239, Note_off_c, 5, 74, 64
1, 60239, Note_off_c, 4, 54, 64
1, 60239, Note_off_c, 5, 62, 64
1, 60240, Note_on_c, 0, 54, 49
1, 60240, Note_on_c, 0, 57, 85
1, 60240, Note_on_c, 0, 62, 75
1, 60240, Control_c, 2, 11, 71
1, 60240, Note_on_c, 4, 45, 105
1, 60240, Note_on_c, 4, 50, 116
1, 60240, Note_on_c, 5, 64, 95
1, 60240, Note_on_c, 5, 76, 95
1, 60240, Note_on_c, 6, 52, 120
1, 60240, Note_on_c, 6, 76, 120
1, 60240, Note_on_c, 9, 42, 120
1, 60240, Note_on_c, 9, 59, 116
1, 60240, Note_on_c, 11, 52, 120
1, 60240, Note_on_c, 11, 76, 120
1, 60240, Control_c, 12, 11, 61
1, 60240, Control_c, 12, 74, 101
1, 60255, Control_c, 12, 74, 98
1, 60255, Control_c, 12, 11, 57
1, 60269, Note_off_c, 11, 76, 64
1, 60269, Note_off_c, 6, 76, 64
1, 60269, Note_off_c, 11, 52, 64
1, 60269, Note_off_c, 9, 59, 64
1, 60269, Note_off_c, 9, 42, 64
1, 60269, Note_off_c, 5, 64, 64
1, 60269, Note_off_c, 6, 52, 64
1, 60269, Note_off_c, 5, 76, 64
1, 60270, Note_on_c, 5, 62, 86
1, 60270, Note_on_c, 5, 74, 86
1, 60270, Note_on_c, 6, 50, 120
1, 60270, Note_on_c, 6, 74, 120
1, 60270, Note_on_c, 11, 50, 120
1, 60270, Note_on_c, 11, 74, 120
1, 60270, Control_c, 12, 74, 95
1, 60270, Control_c, 12, 11, 53
1, 60285, Control_c, 12, 11, 49
1, 60285, Control_c, 12, 74, 92
1, 60299, Note_off_c, 11, 74, 64
1, 60299, Note_off_c, 11, 50, 64
1, 60299, Note_off_c, 6, 74, 64
1, 60299, Note_off_c, 5, 62, 64
1, 60299, Note_off_c, 4, 45, 64
1, 60299, Note_off_c, 4, 50, 64
1, 60299, Note_off_c, 0, 62, 64
1, 60299, Note_off_c, 0, 57, 64
1, 60299, Note_off_c, 6, 50, 64
1, 60299, Note_off_c, 0, 54, 64
1, 60299, Note_off_c, 5, 74, 64
1, 60300, Note_on_c, 0, 57, 56
1, 60300, Note_on_c, 0, 62, 84
1, 60300, Note_on_c, 0, 66, 49
1, 60300, Control_c, 2, 11, 127
1, 60300, Note_on_c, 4, 50, 105
1, 60300, Note_on_c, 4, 54, 115
1, 60300, Note_on_c, 5, 64, 98
1, 60300, Note_on_c, 5, 76, 98
1, 60300, Note_on_c, 6, 52, 120
1, 60300, Note_on_c, 6, 76, 120
1, 60300, Note_on_c, 9, 46, 120
1, 60300, Note_on_c, 9, 73, 119
1, 60300, Note_on_c, 11, 52, 120
1, 60300, Note_on_c, 11, 76, 120
1, 60300, Control_c, 12, 74, 88
1, 60300, Control_c, 12, 11, 45
1, 60315, Control_c, 2, 74, 121
1, 60315, Control_c, 12, 74, 85
1, 60315, Control_c, 12, 11, 41
1, 60329, Note_off_c, 9, 73, 64
1, 60329, Note_off_c, 9, 46, 64
1, 60329, Note_off_c, 4, 54, 64
1, 60329, Note_off_c, 4, 50, 64
1, 60329, Note_off_c, 0, 57, 64
1, 60329, Note_off_c, 0, 66, 64
1, 60329, Note_off_c, 0, 62, 64
1, 60330, Note_on_c, 0, 57, 84
1, 60330, Note_on_c, 0, 62, 94
1, 60330, Note_on_c, 0, 66, 76
1, 60330, Control_c, 2, 74, 116
1, 60330, Note_on_c, 4, 50, 100
1, 60330, Note_on_c, 4, 54, 92
1, 60330, Control_c, 12, 74, 82
1, 60330, Control_c, 12, 11, 37
1, 60345, Control_c, 2, 74, 111
1, 60345, Control_c, 12, 11, 33
1, 60345, Control_c, 12, 74, 79
1, 60350, Pitch_bend_c, 5, 8071
1, 60355, Pitch_bend_c, 5, 6296
1, 60358, Pitch_bend_c, 5, 4197
1, 60359, Note_off_c, 4, 54, 64
1, 60359, Note_off_c, 11, 52, 64
1, 60359, Note_off_c, 2, 66, 64
1, 60359, Note_off_c, 2, 62, 64
1, 60359, Note_off_c, 6, 52, 64
1, 60359, Note_off_c, 5, 64, 64
1, 60359, Note_off_c, 4, 50, 64
1, 60359, Note_off_c, 0, 66, 64
1, 60359, Note_off_c, 2, 57, 64
1, 60359, Note_off_c, 11, 76, 64
1, 60359, Note_off_c, 5, 76, 64
1, 60359, Note_off_c, 0, 57, 64
1, 60359, Note_off_c, 6, 76, 64
1, 60359, Note_off_c, 0, 62, 64
1, 60360, Note_on_c, 0, 52, 47
1, 60360, Note_on_c, 0, 57, 89
1, 60360, Note_on_c, 0, 61, 52
1, 60360, Control_c, 2, 74, 106
1, 60360, Control_c, 2, 11, 80
1, 60360, Note_on_c, 2, 57, 120
1, 60360, Note_on_c, 2, 62, 120
1, 60360, Note_on_c, 2, 66, 120
1, 60360, Note_on_c, 4, 45, 101
1, 60360, Note_on_c, 4, 52, 101
1, 60360, Note_on_c, 5, 66, 119
1, 60360, Note_on_c, 5, 78, 119
1, 60360, Pitch_bend_c, 5, 1776
1, 60360, Note_on_c, 6, 54, 120
1, 60360, Note_on_c, 6, 78, 120
1, 60360, Note_on_c, 9, 42, 120
1, 60360, Note_on_c, 9, 59, 120
1, 60360, Note_on_c, 11, 54, 120
1, 60360, Note_on_c, 11, 78, 120
1, 60360, Control_c, 12, 74, 76
1, 60360, Control_c, 12, 11, 28
1, 60363, Pitch_bend_c, 5, 0
1, 60375, Control_c, 2, 74, 100
1, 60375, Control_c, 12, 11, 24
1, 60375, Control_c, 12, 74, 73
1, 60380, Pitch_bend_c, 5, 646
1, 60383, Pitch_bend_c, 5, 2422
1, 60385, Pitch_bend_c, 5, 4520
1, 60388, Pitch_bend_c, 5, 6942
1, 60389, Note_off_c, 9, 59, 64
1, 60389, Note_off_c, 9, 42, 64
1, 60390, Control_c, 2, 74, 95
1, 60390, Pitch_bend_c, 5, 8192
1, 60390, Control_c, 12, 74, 69
1, 60390, Control_c, 12, 11, 20
1, 60405, Control_c, 2, 74, 90
1, 60405, Control_c, 12, 11, 16
1, 60405, Control_c, 12, 74, 66
1, 60419, Note_off_c, 6, 78, 64
1, 60419, Note_off_c, 11, 78, 64
1, 60419, Note_off_c, 4, 45, 64
1, 60419, Note_off_c, 5, 66, 64
1, 60419, Note_off_c, 11, 54, 64
1, 60419, Note_off_c, 0, 57, 64
1, 60419, Note_off_c, 0, 61, 64
1, 60419, Note_off_c, 0, 52, 64
1, 60419, Note_off_c, 6, 54, 64
1, 60419, Note_off_c, 4, 52, 64
1, 60419, Note_off_c, 5, 78, 64
1, 60420, Note_on_c, 0, 57, 51
1, 60420, Note_on_c, 0, 61, 52
1, 60420, Note_on_c, 0, 64, 78
1, 60420, Control_c, 2, 74, 85
1, 60420, Control_c, 2, 11, 127
1, 60420, Note_on_c, 4, 49, 89
1, 60420, Note_on_c, 4, 52, 101
1, 60420, Note_on_c, 4, 57, 89
1, 60420, Note_on_c, 5, 62, 111
1, 60420, Note_on_c, 5, 74, 111
1, 60420, Note_on_c, 6, 50, 120
1, 60420, Note_on_c, 6, 74, 120
1, 60420, Note_on_c, 9, 46, 120
1, 60420, Note_on_c, 9, 73, 115
1, 60420, Note_on_c, 11, 50, 120
1, 60420, Note_on_c, 11, 74, 120
1, 60420, Control_c, 12, 74, 63
1, 60420, Control_c, 12, 11, 12
1, 60435, Control_c, 2, 74, 79
1, 60435, Control_c, 12, 74, 60
1, 60435, Control_c, 12, 11, 8
1, 60449, Note_off_c, 9, 73, 64
1, 60449, Note_off_c, 9, 46, 64
1, 60449, Note_off_c, 4, 57, 64
1, 60449, Note_off_c, 0, 57, 64
1, 60449, Note_off_c, 4, 49, 64
1, 60449, Note_off_c, 0, 64, 64
1, 60449, Note_off_c, 0, 61, 64
1, 60449, Note_off_c, 4, 52, 64
1, 60450, Note_on_c, 0, 57, 73
1, 60450, Note_on_c, 0, 61, 52
1, 60450, Note_on_c, 0, 64, 83
1, 60450, Control_c, 2, 74, 74
1, 60450, Note_on_c, 4, 49, 119
1, 60450, Note_on_c, 4, 52, 118
1, 60450, Note_on_c, 4, 57, 105
1, 60450, Control_c, 12, 74, 57
1, 60450, Control_c, 12, 11, 4
1, 60465, Control_c, 2, 74, 69
1, 60465, Control_c, 12, 11, 0
1, 60479, Note_off_c, 4, 57, 64
1, 60479, Note_off_c, 11, 50, 64
1, 60479, Note_off_c, 2, 57, 64
1, 60479, Note_off_c, 8, 62, 64
1, 60479, Note_off_c, 2, 66, 64
1, 60479, Note_off_c, 6, 50, 64
1, 60479, Note_off_c, 5, 62, 64
1, 60479, Note_off_c, 4, 52, 64
1, 60479, Note_off_c, 6, 74, 64
1, 60479, Note_off_c, 11, 74, 64
1, 60479, Note_off_c, 0, 64, 64
1, 60479, Note_off_c, 4, 49, 64
1, 60479, Note_off_c, 0, 57, 64
1, 60479, Note_off_c, 8, 50, 64
1, 60479, Note_off_c, 2, 62, 64
1, 60479, Note_off_c, 5, 74, 64
1, 60479, Note_off_c, 0, 61, 64
1, 60480, Note_off_c, 12, 72, 64
1, 60480, Note_on_c, 0, 59, 111
1, 60480, Note_on_c, 0, 62, 109
1, 60480, Note_on_c, 0, 66, 72
1, 60480, Note_on_c, 2, 59, 120
1, 60480, Note_on_c, 2, 62, 120
1, 60480, Note_on_c, 2, 66, 120
1, 60480, Note_on_c, 4, 47, 94
1, 60480, Note_on_c, 4, 54, 87
1, 60480, Note_on_c, 4, 59, 105
1, 60480, Note_on_c, 6, 47, 120
1, 60480, Note_on_c, 6, 71, 120
1, 60480, Note_on_c, 11, 47, 120
1, 60480, Note_on_c, 11, 59, 120
1, 60509, Note_off_c, 0, 66, 64
1, 60509, Note_off_c, 0, 59, 64
1, 60509, Note_off_c, 0, 62, 64
1, 60539, Note_off_c, 4, 59, 64
1, 60539, Note_off_c, 2, 59, 64
1, 60539, Note_off_c, 4, 54, 64
1, 60539, Note_off_c, 2, 62, 64
1, 60539, Note_off_c, 4, 47, 64
1, 60539, Note_off_c, 2, 66, 64
1, 60569, Note_off_c, 6, 71, 64
1, 60569, Note_off_c, 6, 47, 64
1, 60569, Note_off_c, 11, 47, 64
1, 60569, Note_off_c, 11, 59, 64
1, 60960, System_exclusive, 5, 126, 127, 9, 1, 247
1, 60960, System_exclusive, 10, 65, 16, 66, 18, 64, 0, 127, 0, 65, 247
1, 60960, End_track
0, 0, End_of_file
