M48
;DRILL file {KiCad 4.0.1-3.201512221402+6198~38~ubuntu14.04.1-stable} date Sat 30 Apr 2016 11:46:48 AM PDT
;FORMAT={-:-/ absolute / inch / decimal}
FMAT,2
INCH,TZ
T1C0.013
T2C0.039
T3C0.039
T4C0.040
T5C0.060
T6C0.080
T7C0.124
T8C0.125
%
G90
G05
M72
T1
X4.46Y-3.57
X5.29Y-3.515
X5.55Y-4.1
X5.57Y-4.32
X5.7Y-2.95
T2
X4.9638Y-4.07
X4.9638Y-4.2275
X5.2Y-4.07
X5.2Y-4.2275
T3
X3.64Y-4.34
X3.74Y-4.34
X4.075Y-2.9575
X4.075Y-3.2575
X4.0787Y-3.4047
X4.0787Y-3.7047
X4.16Y-4.32
X4.26Y-4.32
X4.365Y-3.99
X4.365Y-4.1725
X4.665Y-3.99
X4.665Y-4.1725
T4
X3.66Y-2.68
X3.76Y-2.68
X4.19Y-2.65
X4.29Y-2.65
X4.39Y-2.65
X4.49Y-2.65
X4.55Y-4.55
X4.59Y-2.65
X4.65Y-4.55
X4.69Y-2.65
X4.75Y-4.55
X4.79Y-2.65
X4.85Y-4.55
X4.89Y-2.65
X4.95Y-4.55
X4.99Y-2.65
X5.01Y-3.185
X5.01Y-3.285
X5.01Y-3.385
X5.01Y-3.485
X5.01Y-3.585
X5.01Y-3.685
X5.01Y-3.785
X5.05Y-4.55
X5.09Y-2.65
X5.15Y-4.55
X5.25Y-2.65
X5.25Y-4.55
X5.35Y-2.65
X5.45Y-2.65
X5.45Y-4.55
X5.55Y-2.65
X5.55Y-4.55
X5.65Y-2.65
X5.65Y-4.55
X5.75Y-2.65
X5.75Y-4.55
X5.85Y-2.65
X5.85Y-4.55
X5.95Y-2.65
X5.95Y-4.55
T5
X3.9134Y-3.05
X3.9134Y-3.25
X3.9134Y-3.45
T6
X3.6Y-4.05
X3.785Y-4.05
X3.97Y-4.05
T7
X4.375Y-3.75
X4.885Y-3.08
T8
X4.Y-4.55
X4.05Y-2.65
X6.05Y-3.25
X6.05Y-4.35
T0
M30
