G04 #@! TF.FileFunction,Legend,Top*
%FSLAX46Y46*%
G04 Gerber Fmt 4.6, Leading zero omitted, Abs format (unit mm)*
G04 Created by KiCad (PCBNEW 4.0.1-3.201512221402+6198~38~ubuntu14.04.1-stable) date Tue 08 Mar 2016 09:46:03 PM PST*
%MOMM*%
G01*
G04 APERTURE LIST*
%ADD10C,0.100000*%
%ADD11C,1.270000*%
%ADD12C,0.300000*%
%ADD13C,0.152400*%
%ADD14C,0.150000*%
%ADD15C,0.254000*%
G04 APERTURE END LIST*
D10*
D11*
X151036860Y-103471140D02*
G75*
G03X151036860Y-103471140I-5494860J0D01*
G01*
X142146860Y-91025140D02*
G75*
G03X142146860Y-91025140I-5494860J0D01*
G01*
X150943720Y-79248000D02*
G75*
G03X150943720Y-79248000I-5494860J0D01*
G01*
D12*
X89344572Y-68179143D02*
X90487429Y-68179143D01*
X97628572Y-68307143D02*
X98771429Y-68307143D01*
X98200000Y-68878571D02*
X98200000Y-67735714D01*
X101349024Y-98997619D02*
X100079024Y-98997619D01*
X100079024Y-98513810D01*
X100139500Y-98392857D01*
X100199976Y-98332381D01*
X100320929Y-98271905D01*
X100502357Y-98271905D01*
X100623310Y-98332381D01*
X100683786Y-98392857D01*
X100744262Y-98513810D01*
X100744262Y-98997619D01*
X101349024Y-97122857D02*
X101349024Y-97727619D01*
X100079024Y-97727619D01*
X100986167Y-96760000D02*
X100986167Y-96155238D01*
X101349024Y-96880953D02*
X100079024Y-96457619D01*
X101349024Y-96034286D01*
X100744262Y-95369048D02*
X101349024Y-95369048D01*
X100079024Y-95792382D02*
X100744262Y-95369048D01*
X100079024Y-94945715D01*
X100683786Y-94099049D02*
X100744262Y-93917620D01*
X100804738Y-93857144D01*
X100925690Y-93796668D01*
X101107119Y-93796668D01*
X101228071Y-93857144D01*
X101288548Y-93917620D01*
X101349024Y-94038573D01*
X101349024Y-94522382D01*
X100079024Y-94522382D01*
X100079024Y-94099049D01*
X100139500Y-93978096D01*
X100199976Y-93917620D01*
X100320929Y-93857144D01*
X100441881Y-93857144D01*
X100562833Y-93917620D01*
X100623310Y-93978096D01*
X100683786Y-94099049D01*
X100683786Y-94522382D01*
X100986167Y-93312858D02*
X100986167Y-92708096D01*
X101349024Y-93433811D02*
X100079024Y-93010477D01*
X101349024Y-92587144D01*
X101228071Y-91438097D02*
X101288548Y-91498573D01*
X101349024Y-91680002D01*
X101349024Y-91800954D01*
X101288548Y-91982382D01*
X101167595Y-92103335D01*
X101046643Y-92163811D01*
X100804738Y-92224287D01*
X100623310Y-92224287D01*
X100381405Y-92163811D01*
X100260452Y-92103335D01*
X100139500Y-91982382D01*
X100079024Y-91800954D01*
X100079024Y-91680002D01*
X100139500Y-91498573D01*
X100199976Y-91438097D01*
X101349024Y-90893811D02*
X100079024Y-90893811D01*
X101349024Y-90168097D02*
X100623310Y-90712382D01*
X100079024Y-90168097D02*
X100804738Y-90893811D01*
X97034048Y-98881595D02*
X97094524Y-98700167D01*
X97094524Y-98397786D01*
X97034048Y-98276833D01*
X96973571Y-98216357D01*
X96852619Y-98155881D01*
X96731667Y-98155881D01*
X96610714Y-98216357D01*
X96550238Y-98276833D01*
X96489762Y-98397786D01*
X96429286Y-98639690D01*
X96368810Y-98760643D01*
X96308333Y-98821119D01*
X96187381Y-98881595D01*
X96066429Y-98881595D01*
X95945476Y-98821119D01*
X95885000Y-98760643D01*
X95824524Y-98639690D01*
X95824524Y-98337310D01*
X95885000Y-98155881D01*
X95824524Y-97793024D02*
X95824524Y-97067309D01*
X97094524Y-97430166D02*
X95824524Y-97430166D01*
X95824524Y-96402071D02*
X95824524Y-96160167D01*
X95885000Y-96039214D01*
X96005952Y-95918262D01*
X96247857Y-95857786D01*
X96671190Y-95857786D01*
X96913095Y-95918262D01*
X97034048Y-96039214D01*
X97094524Y-96160167D01*
X97094524Y-96402071D01*
X97034048Y-96523024D01*
X96913095Y-96643976D01*
X96671190Y-96704452D01*
X96247857Y-96704452D01*
X96005952Y-96643976D01*
X95885000Y-96523024D01*
X95824524Y-96402071D01*
X97094524Y-95313500D02*
X95824524Y-95313500D01*
X95824524Y-94829691D01*
X95885000Y-94708738D01*
X95945476Y-94648262D01*
X96066429Y-94587786D01*
X96247857Y-94587786D01*
X96368810Y-94648262D01*
X96429286Y-94708738D01*
X96489762Y-94829691D01*
X96489762Y-95313500D01*
X92395524Y-98158905D02*
X91790762Y-98582238D01*
X92395524Y-98884619D02*
X91125524Y-98884619D01*
X91125524Y-98400810D01*
X91186000Y-98279857D01*
X91246476Y-98219381D01*
X91367429Y-98158905D01*
X91548857Y-98158905D01*
X91669810Y-98219381D01*
X91730286Y-98279857D01*
X91790762Y-98400810D01*
X91790762Y-98884619D01*
X91730286Y-97614619D02*
X91730286Y-97191286D01*
X92395524Y-97009857D02*
X92395524Y-97614619D01*
X91125524Y-97614619D01*
X91125524Y-97009857D01*
X92274571Y-95739857D02*
X92335048Y-95800333D01*
X92395524Y-95981762D01*
X92395524Y-96102714D01*
X92335048Y-96284142D01*
X92214095Y-96405095D01*
X92093143Y-96465571D01*
X91851238Y-96526047D01*
X91669810Y-96526047D01*
X91427905Y-96465571D01*
X91306952Y-96405095D01*
X91186000Y-96284142D01*
X91125524Y-96102714D01*
X91125524Y-95981762D01*
X91186000Y-95800333D01*
X91246476Y-95739857D01*
X91125524Y-94953666D02*
X91125524Y-94711762D01*
X91186000Y-94590809D01*
X91306952Y-94469857D01*
X91548857Y-94409381D01*
X91972190Y-94409381D01*
X92214095Y-94469857D01*
X92335048Y-94590809D01*
X92395524Y-94711762D01*
X92395524Y-94953666D01*
X92335048Y-95074619D01*
X92214095Y-95195571D01*
X91972190Y-95256047D01*
X91548857Y-95256047D01*
X91306952Y-95195571D01*
X91186000Y-95074619D01*
X91125524Y-94953666D01*
X92395524Y-93139381D02*
X91790762Y-93562714D01*
X92395524Y-93865095D02*
X91125524Y-93865095D01*
X91125524Y-93381286D01*
X91186000Y-93260333D01*
X91246476Y-93199857D01*
X91367429Y-93139381D01*
X91548857Y-93139381D01*
X91669810Y-93199857D01*
X91730286Y-93260333D01*
X91790762Y-93381286D01*
X91790762Y-93865095D01*
X92395524Y-92595095D02*
X91125524Y-92595095D01*
X91125524Y-92292714D01*
X91186000Y-92111286D01*
X91306952Y-91990333D01*
X91427905Y-91929857D01*
X91669810Y-91869381D01*
X91851238Y-91869381D01*
X92093143Y-91929857D01*
X92214095Y-91990333D01*
X92335048Y-92111286D01*
X92395524Y-92292714D01*
X92395524Y-92595095D01*
D13*
X107124500Y-74866500D02*
X127063500Y-74866500D01*
X127063500Y-96964500D02*
X127063500Y-74866500D01*
X107124500Y-96964500D02*
X107124500Y-74866500D01*
X107124500Y-96964500D02*
X127063500Y-96964500D01*
D14*
X127063500Y-81309500D02*
X124579500Y-81309500D01*
X124249500Y-80189500D02*
X124249500Y-78639500D01*
X124274500Y-78614500D02*
X127063500Y-78614500D01*
X112141000Y-100076000D02*
X117221000Y-100076000D01*
X117221000Y-100076000D02*
X117221000Y-102616000D01*
X117221000Y-102616000D02*
X112141000Y-102616000D01*
X112141000Y-102616000D02*
X112141000Y-100076000D01*
X112141000Y-104711500D02*
X117221000Y-104711500D01*
X117221000Y-104711500D02*
X117221000Y-107251500D01*
X117221000Y-107251500D02*
X112141000Y-107251500D01*
X112141000Y-107251500D02*
X112141000Y-104711500D01*
X102235000Y-81470500D02*
X102235000Y-76390500D01*
X102235000Y-76390500D02*
X104775000Y-76390500D01*
X104775000Y-76390500D02*
X104775000Y-81470500D01*
X104775000Y-81470500D02*
X102235000Y-81470500D01*
X104870000Y-87750000D02*
X104870000Y-92830000D01*
X104870000Y-92830000D02*
X102330000Y-92830000D01*
X102330000Y-92830000D02*
X102330000Y-87750000D01*
X102330000Y-87750000D02*
X104870000Y-87750000D01*
X91241112Y-111760904D02*
G75*
G03X91226000Y-108736000I2484888J1524904D01*
G01*
X91226000Y-111736000D02*
X91226000Y-108736000D01*
X96243936Y-110236000D02*
G75*
G03X96243936Y-110236000I-2517936J0D01*
G01*
X98861112Y-111252904D02*
G75*
G03X98846000Y-108228000I2484888J1524904D01*
G01*
X98846000Y-111228000D02*
X98846000Y-108228000D01*
X103863936Y-109728000D02*
G75*
G03X103863936Y-109728000I-2517936J0D01*
G01*
X94234000Y-69342000D02*
X91694000Y-69342000D01*
X97054000Y-69622000D02*
X95504000Y-69622000D01*
X94234000Y-69342000D02*
X94234000Y-66802000D01*
X95504000Y-66522000D02*
X97054000Y-66522000D01*
X97054000Y-66522000D02*
X97054000Y-69622000D01*
X94234000Y-66802000D02*
X91694000Y-66802000D01*
X91694000Y-66802000D02*
X91694000Y-69342000D01*
X124780000Y-101870000D02*
X124780000Y-101970000D01*
X124680000Y-101820000D02*
X125030000Y-101820000D01*
X125030000Y-101820000D02*
G75*
G03X124680000Y-102170000I700000J-1050000D01*
G01*
X124680000Y-101820000D02*
X124680000Y-102170000D01*
X130144214Y-104870000D02*
G75*
G03X130144214Y-104870000I-1414214J0D01*
G01*
X126730000Y-107870000D02*
X130730000Y-107870000D01*
X126730000Y-101870000D02*
X130730000Y-101870000D01*
X125730000Y-105620000D02*
X125730000Y-104120000D01*
X131730000Y-104120000D02*
X131730000Y-105620000D01*
D10*
X125730000Y-104870000D02*
X125730000Y-104870000D01*
X130730000Y-107870000D02*
X126730000Y-107870000D01*
X130730000Y-101870000D02*
X126730000Y-101870000D01*
X131730000Y-104870000D02*
X131730000Y-104870000D01*
X130144214Y-104870000D02*
G75*
G03X130144214Y-104870000I-1414214J0D01*
G01*
D14*
X97850000Y-77720000D02*
X97850000Y-76170000D01*
X97850000Y-76170000D02*
X100950000Y-76170000D01*
X100950000Y-76170000D02*
X100950000Y-77720000D01*
X100670000Y-78990000D02*
X100670000Y-89150000D01*
X100670000Y-89150000D02*
X98130000Y-89150000D01*
X98130000Y-89150000D02*
X98130000Y-78990000D01*
X100670000Y-78990000D02*
X98130000Y-78990000D01*
X91440000Y-104420000D02*
X89890000Y-104420000D01*
X89890000Y-104420000D02*
X89890000Y-101320000D01*
X89890000Y-101320000D02*
X91440000Y-101320000D01*
X92710000Y-101600000D02*
X102362000Y-101600000D01*
X102362000Y-101600000D02*
X102362000Y-104140000D01*
X102362000Y-104140000D02*
X92710000Y-104140000D01*
X118435381Y-113410762D02*
X117435381Y-113410762D01*
X117435381Y-112744096D02*
X117435381Y-112553619D01*
X117483000Y-112458381D01*
X117578238Y-112363143D01*
X117768714Y-112315524D01*
X118102048Y-112315524D01*
X118292524Y-112363143D01*
X118387762Y-112458381D01*
X118435381Y-112553619D01*
X118435381Y-112744096D01*
X118387762Y-112839334D01*
X118292524Y-112934572D01*
X118102048Y-112982191D01*
X117768714Y-112982191D01*
X117578238Y-112934572D01*
X117483000Y-112839334D01*
X117435381Y-112744096D01*
X118435381Y-111315524D02*
X117959190Y-111648858D01*
X118435381Y-111886953D02*
X117435381Y-111886953D01*
X117435381Y-111506000D01*
X117483000Y-111410762D01*
X117530619Y-111363143D01*
X117625857Y-111315524D01*
X117768714Y-111315524D01*
X117863952Y-111363143D01*
X117911571Y-111410762D01*
X117959190Y-111506000D01*
X117959190Y-111886953D01*
X117911571Y-110886953D02*
X117911571Y-110553619D01*
X118435381Y-110410762D02*
X118435381Y-110886953D01*
X117435381Y-110886953D01*
X117435381Y-110410762D01*
X117911571Y-109648857D02*
X117911571Y-109982191D01*
X118435381Y-109982191D02*
X117435381Y-109982191D01*
X117435381Y-109506000D01*
X115875381Y-113434714D02*
X114875381Y-113434714D01*
X115875381Y-112863285D01*
X114875381Y-112863285D01*
X115780143Y-111815666D02*
X115827762Y-111863285D01*
X115875381Y-112006142D01*
X115875381Y-112101380D01*
X115827762Y-112244238D01*
X115732524Y-112339476D01*
X115637286Y-112387095D01*
X115446810Y-112434714D01*
X115303952Y-112434714D01*
X115113476Y-112387095D01*
X115018238Y-112339476D01*
X114923000Y-112244238D01*
X114875381Y-112101380D01*
X114875381Y-112006142D01*
X114923000Y-111863285D01*
X114970619Y-111815666D01*
X120975381Y-112942619D02*
X120499190Y-113275953D01*
X120975381Y-113514048D02*
X119975381Y-113514048D01*
X119975381Y-113133095D01*
X120023000Y-113037857D01*
X120070619Y-112990238D01*
X120165857Y-112942619D01*
X120308714Y-112942619D01*
X120403952Y-112990238D01*
X120451571Y-113037857D01*
X120499190Y-113133095D01*
X120499190Y-113514048D01*
X120927762Y-112561667D02*
X120975381Y-112418810D01*
X120975381Y-112180714D01*
X120927762Y-112085476D01*
X120880143Y-112037857D01*
X120784905Y-111990238D01*
X120689667Y-111990238D01*
X120594429Y-112037857D01*
X120546810Y-112085476D01*
X120499190Y-112180714D01*
X120451571Y-112371191D01*
X120403952Y-112466429D01*
X120356333Y-112514048D01*
X120261095Y-112561667D01*
X120165857Y-112561667D01*
X120070619Y-112514048D01*
X120023000Y-112466429D01*
X119975381Y-112371191D01*
X119975381Y-112133095D01*
X120023000Y-111990238D01*
X119975381Y-111704524D02*
X119975381Y-111133095D01*
X120975381Y-111418810D02*
X119975381Y-111418810D01*
X122642381Y-113490190D02*
X122642381Y-112871142D01*
X123023333Y-113204476D01*
X123023333Y-113061618D01*
X123070952Y-112966380D01*
X123118571Y-112918761D01*
X123213810Y-112871142D01*
X123451905Y-112871142D01*
X123547143Y-112918761D01*
X123594762Y-112966380D01*
X123642381Y-113061618D01*
X123642381Y-113347333D01*
X123594762Y-113442571D01*
X123547143Y-113490190D01*
X123547143Y-112442571D02*
X123594762Y-112394952D01*
X123642381Y-112442571D01*
X123594762Y-112490190D01*
X123547143Y-112442571D01*
X123642381Y-112442571D01*
X122642381Y-112061619D02*
X122642381Y-111442571D01*
X123023333Y-111775905D01*
X123023333Y-111633047D01*
X123070952Y-111537809D01*
X123118571Y-111490190D01*
X123213810Y-111442571D01*
X123451905Y-111442571D01*
X123547143Y-111490190D01*
X123594762Y-111537809D01*
X123642381Y-111633047D01*
X123642381Y-111918762D01*
X123594762Y-112014000D01*
X123547143Y-112061619D01*
X122642381Y-111156857D02*
X123642381Y-110823524D01*
X122642381Y-110490190D01*
X125035381Y-112839476D02*
X125035381Y-113315667D01*
X125511571Y-113363286D01*
X125463952Y-113315667D01*
X125416333Y-113220429D01*
X125416333Y-112982333D01*
X125463952Y-112887095D01*
X125511571Y-112839476D01*
X125606810Y-112791857D01*
X125844905Y-112791857D01*
X125940143Y-112839476D01*
X125987762Y-112887095D01*
X126035381Y-112982333D01*
X126035381Y-113220429D01*
X125987762Y-113315667D01*
X125940143Y-113363286D01*
X125035381Y-112506143D02*
X126035381Y-112172810D01*
X125035381Y-111839476D01*
X127623000Y-112902904D02*
X127575381Y-112998142D01*
X127575381Y-113140999D01*
X127623000Y-113283857D01*
X127718238Y-113379095D01*
X127813476Y-113426714D01*
X128003952Y-113474333D01*
X128146810Y-113474333D01*
X128337286Y-113426714D01*
X128432524Y-113379095D01*
X128527762Y-113283857D01*
X128575381Y-113140999D01*
X128575381Y-113045761D01*
X128527762Y-112902904D01*
X128480143Y-112855285D01*
X128146810Y-112855285D01*
X128146810Y-113045761D01*
X128575381Y-112426714D02*
X127575381Y-112426714D01*
X128575381Y-111855285D01*
X127575381Y-111855285D01*
X128575381Y-111379095D02*
X127575381Y-111379095D01*
X127575381Y-111141000D01*
X127623000Y-110998142D01*
X127718238Y-110902904D01*
X127813476Y-110855285D01*
X128003952Y-110807666D01*
X128146810Y-110807666D01*
X128337286Y-110855285D01*
X128432524Y-110902904D01*
X128527762Y-110998142D01*
X128575381Y-111141000D01*
X128575381Y-111379095D01*
X130198000Y-112902904D02*
X130150381Y-112998142D01*
X130150381Y-113140999D01*
X130198000Y-113283857D01*
X130293238Y-113379095D01*
X130388476Y-113426714D01*
X130578952Y-113474333D01*
X130721810Y-113474333D01*
X130912286Y-113426714D01*
X131007524Y-113379095D01*
X131102762Y-113283857D01*
X131150381Y-113140999D01*
X131150381Y-113045761D01*
X131102762Y-112902904D01*
X131055143Y-112855285D01*
X130721810Y-112855285D01*
X130721810Y-113045761D01*
X131150381Y-112426714D02*
X130150381Y-112426714D01*
X131150381Y-111855285D01*
X130150381Y-111855285D01*
X131150381Y-111379095D02*
X130150381Y-111379095D01*
X130150381Y-111141000D01*
X130198000Y-110998142D01*
X130293238Y-110902904D01*
X130388476Y-110855285D01*
X130578952Y-110807666D01*
X130721810Y-110807666D01*
X130912286Y-110855285D01*
X131007524Y-110902904D01*
X131102762Y-110998142D01*
X131150381Y-111141000D01*
X131150381Y-111379095D01*
X132825381Y-113311238D02*
X133825381Y-112977905D01*
X132825381Y-112644571D01*
X133825381Y-112311238D02*
X132825381Y-112311238D01*
X133825381Y-111835048D02*
X132825381Y-111835048D01*
X133825381Y-111263619D01*
X132825381Y-111263619D01*
X151319667Y-113438286D02*
X151319667Y-112962095D01*
X151605381Y-113533524D02*
X150605381Y-113200191D01*
X151605381Y-112866857D01*
X150605381Y-112057333D02*
X150605381Y-112533524D01*
X151081571Y-112581143D01*
X151033952Y-112533524D01*
X150986333Y-112438286D01*
X150986333Y-112200190D01*
X151033952Y-112104952D01*
X151081571Y-112057333D01*
X151176810Y-112009714D01*
X151414905Y-112009714D01*
X151510143Y-112057333D01*
X151557762Y-112104952D01*
X151605381Y-112200190D01*
X151605381Y-112438286D01*
X151557762Y-112533524D01*
X151510143Y-112581143D01*
X148644667Y-113363286D02*
X148644667Y-112887095D01*
X148930381Y-113458524D02*
X147930381Y-113125191D01*
X148930381Y-112791857D01*
X148263714Y-112029952D02*
X148930381Y-112029952D01*
X147882762Y-112268048D02*
X148597048Y-112506143D01*
X148597048Y-111887095D01*
X146069667Y-113363286D02*
X146069667Y-112887095D01*
X146355381Y-113458524D02*
X145355381Y-113125191D01*
X146355381Y-112791857D01*
X145355381Y-112553762D02*
X145355381Y-111934714D01*
X145736333Y-112268048D01*
X145736333Y-112125190D01*
X145783952Y-112029952D01*
X145831571Y-111982333D01*
X145926810Y-111934714D01*
X146164905Y-111934714D01*
X146260143Y-111982333D01*
X146307762Y-112029952D01*
X146355381Y-112125190D01*
X146355381Y-112410905D01*
X146307762Y-112506143D01*
X146260143Y-112553762D01*
X143529667Y-113363286D02*
X143529667Y-112887095D01*
X143815381Y-113458524D02*
X142815381Y-113125191D01*
X143815381Y-112791857D01*
X142910619Y-112506143D02*
X142863000Y-112458524D01*
X142815381Y-112363286D01*
X142815381Y-112125190D01*
X142863000Y-112029952D01*
X142910619Y-111982333D01*
X143005857Y-111934714D01*
X143101095Y-111934714D01*
X143243952Y-111982333D01*
X143815381Y-112553762D01*
X143815381Y-111934714D01*
X141116667Y-113363286D02*
X141116667Y-112887095D01*
X141402381Y-113458524D02*
X140402381Y-113125191D01*
X141402381Y-112791857D01*
X141402381Y-111934714D02*
X141402381Y-112506143D01*
X141402381Y-112220429D02*
X140402381Y-112220429D01*
X140545238Y-112315667D01*
X140640476Y-112410905D01*
X140688095Y-112506143D01*
X138596667Y-113363286D02*
X138596667Y-112887095D01*
X138882381Y-113458524D02*
X137882381Y-113125191D01*
X138882381Y-112791857D01*
X137882381Y-112268048D02*
X137882381Y-112172809D01*
X137930000Y-112077571D01*
X137977619Y-112029952D01*
X138072857Y-111982333D01*
X138263333Y-111934714D01*
X138501429Y-111934714D01*
X138691905Y-111982333D01*
X138787143Y-112029952D01*
X138834762Y-112077571D01*
X138882381Y-112172809D01*
X138882381Y-112268048D01*
X138834762Y-112363286D01*
X138787143Y-112410905D01*
X138691905Y-112458524D01*
X138501429Y-112506143D01*
X138263333Y-112506143D01*
X138072857Y-112458524D01*
X137977619Y-112410905D01*
X137930000Y-112363286D01*
X137882381Y-112268048D01*
X106937762Y-71929476D02*
X106985381Y-71786619D01*
X106985381Y-71548523D01*
X106937762Y-71453285D01*
X106890143Y-71405666D01*
X106794905Y-71358047D01*
X106699667Y-71358047D01*
X106604429Y-71405666D01*
X106556810Y-71453285D01*
X106509190Y-71548523D01*
X106461571Y-71739000D01*
X106413952Y-71834238D01*
X106366333Y-71881857D01*
X106271095Y-71929476D01*
X106175857Y-71929476D01*
X106080619Y-71881857D01*
X106033000Y-71834238D01*
X105985381Y-71739000D01*
X105985381Y-71500904D01*
X106033000Y-71358047D01*
X106890143Y-70358047D02*
X106937762Y-70405666D01*
X106985381Y-70548523D01*
X106985381Y-70643761D01*
X106937762Y-70786619D01*
X106842524Y-70881857D01*
X106747286Y-70929476D01*
X106556810Y-70977095D01*
X106413952Y-70977095D01*
X106223476Y-70929476D01*
X106128238Y-70881857D01*
X106033000Y-70786619D01*
X105985381Y-70643761D01*
X105985381Y-70548523D01*
X106033000Y-70405666D01*
X106080619Y-70358047D01*
X106985381Y-69453285D02*
X106985381Y-69929476D01*
X105985381Y-69929476D01*
X109350762Y-71953286D02*
X109398381Y-71810429D01*
X109398381Y-71572333D01*
X109350762Y-71477095D01*
X109303143Y-71429476D01*
X109207905Y-71381857D01*
X109112667Y-71381857D01*
X109017429Y-71429476D01*
X108969810Y-71477095D01*
X108922190Y-71572333D01*
X108874571Y-71762810D01*
X108826952Y-71858048D01*
X108779333Y-71905667D01*
X108684095Y-71953286D01*
X108588857Y-71953286D01*
X108493619Y-71905667D01*
X108446000Y-71858048D01*
X108398381Y-71762810D01*
X108398381Y-71524714D01*
X108446000Y-71381857D01*
X109398381Y-70953286D02*
X108398381Y-70953286D01*
X108398381Y-70715191D01*
X108446000Y-70572333D01*
X108541238Y-70477095D01*
X108636476Y-70429476D01*
X108826952Y-70381857D01*
X108969810Y-70381857D01*
X109160286Y-70429476D01*
X109255524Y-70477095D01*
X109350762Y-70572333D01*
X109398381Y-70715191D01*
X109398381Y-70953286D01*
X109112667Y-70000905D02*
X109112667Y-69524714D01*
X109398381Y-70096143D02*
X108398381Y-69762810D01*
X109398381Y-69429476D01*
X111652667Y-71929476D02*
X111652667Y-71453285D01*
X111938381Y-72024714D02*
X110938381Y-71691381D01*
X111938381Y-71358047D01*
X111938381Y-70453285D02*
X111462190Y-70786619D01*
X111938381Y-71024714D02*
X110938381Y-71024714D01*
X110938381Y-70643761D01*
X110986000Y-70548523D01*
X111033619Y-70500904D01*
X111128857Y-70453285D01*
X111271714Y-70453285D01*
X111366952Y-70500904D01*
X111414571Y-70548523D01*
X111462190Y-70643761D01*
X111462190Y-71024714D01*
X111414571Y-70024714D02*
X111414571Y-69691380D01*
X111938381Y-69548523D02*
X111938381Y-70024714D01*
X110938381Y-70024714D01*
X110938381Y-69548523D01*
X113526000Y-71500904D02*
X113478381Y-71596142D01*
X113478381Y-71738999D01*
X113526000Y-71881857D01*
X113621238Y-71977095D01*
X113716476Y-72024714D01*
X113906952Y-72072333D01*
X114049810Y-72072333D01*
X114240286Y-72024714D01*
X114335524Y-71977095D01*
X114430762Y-71881857D01*
X114478381Y-71738999D01*
X114478381Y-71643761D01*
X114430762Y-71500904D01*
X114383143Y-71453285D01*
X114049810Y-71453285D01*
X114049810Y-71643761D01*
X114478381Y-71024714D02*
X113478381Y-71024714D01*
X114478381Y-70453285D01*
X113478381Y-70453285D01*
X114478381Y-69977095D02*
X113478381Y-69977095D01*
X113478381Y-69739000D01*
X113526000Y-69596142D01*
X113621238Y-69500904D01*
X113716476Y-69453285D01*
X113906952Y-69405666D01*
X114049810Y-69405666D01*
X114240286Y-69453285D01*
X114335524Y-69500904D01*
X114430762Y-69596142D01*
X114478381Y-69739000D01*
X114478381Y-69977095D01*
X117145381Y-71953286D02*
X116145381Y-71953286D01*
X116145381Y-71715191D01*
X116193000Y-71572333D01*
X116288238Y-71477095D01*
X116383476Y-71429476D01*
X116573952Y-71381857D01*
X116716810Y-71381857D01*
X116907286Y-71429476D01*
X117002524Y-71477095D01*
X117097762Y-71572333D01*
X117145381Y-71715191D01*
X117145381Y-71953286D01*
X117145381Y-70429476D02*
X117145381Y-71000905D01*
X117145381Y-70715191D02*
X116145381Y-70715191D01*
X116288238Y-70810429D01*
X116383476Y-70905667D01*
X116431095Y-71000905D01*
X116145381Y-70096143D02*
X116145381Y-69477095D01*
X116526333Y-69810429D01*
X116526333Y-69667571D01*
X116573952Y-69572333D01*
X116621571Y-69524714D01*
X116716810Y-69477095D01*
X116954905Y-69477095D01*
X117050143Y-69524714D01*
X117097762Y-69572333D01*
X117145381Y-69667571D01*
X117145381Y-69953286D01*
X117097762Y-70048524D01*
X117050143Y-70096143D01*
X119685381Y-71953286D02*
X118685381Y-71953286D01*
X118685381Y-71715191D01*
X118733000Y-71572333D01*
X118828238Y-71477095D01*
X118923476Y-71429476D01*
X119113952Y-71381857D01*
X119256810Y-71381857D01*
X119447286Y-71429476D01*
X119542524Y-71477095D01*
X119637762Y-71572333D01*
X119685381Y-71715191D01*
X119685381Y-71953286D01*
X119685381Y-70429476D02*
X119685381Y-71000905D01*
X119685381Y-70715191D02*
X118685381Y-70715191D01*
X118828238Y-70810429D01*
X118923476Y-70905667D01*
X118971095Y-71000905D01*
X118780619Y-70048524D02*
X118733000Y-70000905D01*
X118685381Y-69905667D01*
X118685381Y-69667571D01*
X118733000Y-69572333D01*
X118780619Y-69524714D01*
X118875857Y-69477095D01*
X118971095Y-69477095D01*
X119113952Y-69524714D01*
X119685381Y-70096143D01*
X119685381Y-69477095D01*
X122225381Y-71953286D02*
X121225381Y-71953286D01*
X121225381Y-71715191D01*
X121273000Y-71572333D01*
X121368238Y-71477095D01*
X121463476Y-71429476D01*
X121653952Y-71381857D01*
X121796810Y-71381857D01*
X121987286Y-71429476D01*
X122082524Y-71477095D01*
X122177762Y-71572333D01*
X122225381Y-71715191D01*
X122225381Y-71953286D01*
X122225381Y-70429476D02*
X122225381Y-71000905D01*
X122225381Y-70715191D02*
X121225381Y-70715191D01*
X121368238Y-70810429D01*
X121463476Y-70905667D01*
X121511095Y-71000905D01*
X122225381Y-69477095D02*
X122225381Y-70048524D01*
X122225381Y-69762810D02*
X121225381Y-69762810D01*
X121368238Y-69858048D01*
X121463476Y-69953286D01*
X121511095Y-70048524D01*
X124638381Y-71953286D02*
X123638381Y-71953286D01*
X123638381Y-71715191D01*
X123686000Y-71572333D01*
X123781238Y-71477095D01*
X123876476Y-71429476D01*
X124066952Y-71381857D01*
X124209810Y-71381857D01*
X124400286Y-71429476D01*
X124495524Y-71477095D01*
X124590762Y-71572333D01*
X124638381Y-71715191D01*
X124638381Y-71953286D01*
X124638381Y-70429476D02*
X124638381Y-71000905D01*
X124638381Y-70715191D02*
X123638381Y-70715191D01*
X123781238Y-70810429D01*
X123876476Y-70905667D01*
X123924095Y-71000905D01*
X123638381Y-69810429D02*
X123638381Y-69715190D01*
X123686000Y-69619952D01*
X123733619Y-69572333D01*
X123828857Y-69524714D01*
X124019333Y-69477095D01*
X124257429Y-69477095D01*
X124447905Y-69524714D01*
X124543143Y-69572333D01*
X124590762Y-69619952D01*
X124638381Y-69715190D01*
X124638381Y-69810429D01*
X124590762Y-69905667D01*
X124543143Y-69953286D01*
X124447905Y-70000905D01*
X124257429Y-70048524D01*
X124019333Y-70048524D01*
X123828857Y-70000905D01*
X123733619Y-69953286D01*
X123686000Y-69905667D01*
X123638381Y-69810429D01*
X127305381Y-71096095D02*
X126305381Y-71096095D01*
X126305381Y-70858000D01*
X126353000Y-70715142D01*
X126448238Y-70619904D01*
X126543476Y-70572285D01*
X126733952Y-70524666D01*
X126876810Y-70524666D01*
X127067286Y-70572285D01*
X127162524Y-70619904D01*
X127257762Y-70715142D01*
X127305381Y-70858000D01*
X127305381Y-71096095D01*
X127305381Y-70048476D02*
X127305381Y-69858000D01*
X127257762Y-69762761D01*
X127210143Y-69715142D01*
X127067286Y-69619904D01*
X126876810Y-69572285D01*
X126495857Y-69572285D01*
X126400619Y-69619904D01*
X126353000Y-69667523D01*
X126305381Y-69762761D01*
X126305381Y-69953238D01*
X126353000Y-70048476D01*
X126400619Y-70096095D01*
X126495857Y-70143714D01*
X126733952Y-70143714D01*
X126829190Y-70096095D01*
X126876810Y-70048476D01*
X126924429Y-69953238D01*
X126924429Y-69762761D01*
X126876810Y-69667523D01*
X126829190Y-69619904D01*
X126733952Y-69572285D01*
X129845381Y-71096095D02*
X128845381Y-71096095D01*
X128845381Y-70858000D01*
X128893000Y-70715142D01*
X128988238Y-70619904D01*
X129083476Y-70572285D01*
X129273952Y-70524666D01*
X129416810Y-70524666D01*
X129607286Y-70572285D01*
X129702524Y-70619904D01*
X129797762Y-70715142D01*
X129845381Y-70858000D01*
X129845381Y-71096095D01*
X129273952Y-69953238D02*
X129226333Y-70048476D01*
X129178714Y-70096095D01*
X129083476Y-70143714D01*
X129035857Y-70143714D01*
X128940619Y-70096095D01*
X128893000Y-70048476D01*
X128845381Y-69953238D01*
X128845381Y-69762761D01*
X128893000Y-69667523D01*
X128940619Y-69619904D01*
X129035857Y-69572285D01*
X129083476Y-69572285D01*
X129178714Y-69619904D01*
X129226333Y-69667523D01*
X129273952Y-69762761D01*
X129273952Y-69953238D01*
X129321571Y-70048476D01*
X129369190Y-70096095D01*
X129464429Y-70143714D01*
X129654905Y-70143714D01*
X129750143Y-70096095D01*
X129797762Y-70048476D01*
X129845381Y-69953238D01*
X129845381Y-69762761D01*
X129797762Y-69667523D01*
X129750143Y-69619904D01*
X129654905Y-69572285D01*
X129464429Y-69572285D01*
X129369190Y-69619904D01*
X129321571Y-69667523D01*
X129273952Y-69762761D01*
X133909381Y-71223095D02*
X132909381Y-71223095D01*
X132909381Y-70985000D01*
X132957000Y-70842142D01*
X133052238Y-70746904D01*
X133147476Y-70699285D01*
X133337952Y-70651666D01*
X133480810Y-70651666D01*
X133671286Y-70699285D01*
X133766524Y-70746904D01*
X133861762Y-70842142D01*
X133909381Y-70985000D01*
X133909381Y-71223095D01*
X132909381Y-70318333D02*
X132909381Y-69651666D01*
X133909381Y-70080238D01*
X136322381Y-71223095D02*
X135322381Y-71223095D01*
X135322381Y-70985000D01*
X135370000Y-70842142D01*
X135465238Y-70746904D01*
X135560476Y-70699285D01*
X135750952Y-70651666D01*
X135893810Y-70651666D01*
X136084286Y-70699285D01*
X136179524Y-70746904D01*
X136274762Y-70842142D01*
X136322381Y-70985000D01*
X136322381Y-71223095D01*
X135322381Y-69794523D02*
X135322381Y-69985000D01*
X135370000Y-70080238D01*
X135417619Y-70127857D01*
X135560476Y-70223095D01*
X135750952Y-70270714D01*
X136131905Y-70270714D01*
X136227143Y-70223095D01*
X136274762Y-70175476D01*
X136322381Y-70080238D01*
X136322381Y-69889761D01*
X136274762Y-69794523D01*
X136227143Y-69746904D01*
X136131905Y-69699285D01*
X135893810Y-69699285D01*
X135798571Y-69746904D01*
X135750952Y-69794523D01*
X135703333Y-69889761D01*
X135703333Y-70080238D01*
X135750952Y-70175476D01*
X135798571Y-70223095D01*
X135893810Y-70270714D01*
X138862381Y-71223095D02*
X137862381Y-71223095D01*
X137862381Y-70985000D01*
X137910000Y-70842142D01*
X138005238Y-70746904D01*
X138100476Y-70699285D01*
X138290952Y-70651666D01*
X138433810Y-70651666D01*
X138624286Y-70699285D01*
X138719524Y-70746904D01*
X138814762Y-70842142D01*
X138862381Y-70985000D01*
X138862381Y-71223095D01*
X137862381Y-69746904D02*
X137862381Y-70223095D01*
X138338571Y-70270714D01*
X138290952Y-70223095D01*
X138243333Y-70127857D01*
X138243333Y-69889761D01*
X138290952Y-69794523D01*
X138338571Y-69746904D01*
X138433810Y-69699285D01*
X138671905Y-69699285D01*
X138767143Y-69746904D01*
X138814762Y-69794523D01*
X138862381Y-69889761D01*
X138862381Y-70127857D01*
X138814762Y-70223095D01*
X138767143Y-70270714D01*
X141529381Y-71223095D02*
X140529381Y-71223095D01*
X140529381Y-70985000D01*
X140577000Y-70842142D01*
X140672238Y-70746904D01*
X140767476Y-70699285D01*
X140957952Y-70651666D01*
X141100810Y-70651666D01*
X141291286Y-70699285D01*
X141386524Y-70746904D01*
X141481762Y-70842142D01*
X141529381Y-70985000D01*
X141529381Y-71223095D01*
X140862714Y-69794523D02*
X141529381Y-69794523D01*
X140481762Y-70032619D02*
X141196048Y-70270714D01*
X141196048Y-69651666D01*
X143942381Y-71223095D02*
X142942381Y-71223095D01*
X142942381Y-70985000D01*
X142990000Y-70842142D01*
X143085238Y-70746904D01*
X143180476Y-70699285D01*
X143370952Y-70651666D01*
X143513810Y-70651666D01*
X143704286Y-70699285D01*
X143799524Y-70746904D01*
X143894762Y-70842142D01*
X143942381Y-70985000D01*
X143942381Y-71223095D01*
X142942381Y-70318333D02*
X142942381Y-69699285D01*
X143323333Y-70032619D01*
X143323333Y-69889761D01*
X143370952Y-69794523D01*
X143418571Y-69746904D01*
X143513810Y-69699285D01*
X143751905Y-69699285D01*
X143847143Y-69746904D01*
X143894762Y-69794523D01*
X143942381Y-69889761D01*
X143942381Y-70175476D01*
X143894762Y-70270714D01*
X143847143Y-70318333D01*
X146482381Y-71223095D02*
X145482381Y-71223095D01*
X145482381Y-70985000D01*
X145530000Y-70842142D01*
X145625238Y-70746904D01*
X145720476Y-70699285D01*
X145910952Y-70651666D01*
X146053810Y-70651666D01*
X146244286Y-70699285D01*
X146339524Y-70746904D01*
X146434762Y-70842142D01*
X146482381Y-70985000D01*
X146482381Y-71223095D01*
X145577619Y-70270714D02*
X145530000Y-70223095D01*
X145482381Y-70127857D01*
X145482381Y-69889761D01*
X145530000Y-69794523D01*
X145577619Y-69746904D01*
X145672857Y-69699285D01*
X145768095Y-69699285D01*
X145910952Y-69746904D01*
X146482381Y-70318333D01*
X146482381Y-69699285D01*
X149057381Y-71223095D02*
X148057381Y-71223095D01*
X148057381Y-70985000D01*
X148105000Y-70842142D01*
X148200238Y-70746904D01*
X148295476Y-70699285D01*
X148485952Y-70651666D01*
X148628810Y-70651666D01*
X148819286Y-70699285D01*
X148914524Y-70746904D01*
X149009762Y-70842142D01*
X149057381Y-70985000D01*
X149057381Y-71223095D01*
X149057381Y-69699285D02*
X149057381Y-70270714D01*
X149057381Y-69985000D02*
X148057381Y-69985000D01*
X148200238Y-70080238D01*
X148295476Y-70175476D01*
X148343095Y-70270714D01*
X151732381Y-71298095D02*
X150732381Y-71298095D01*
X150732381Y-71060000D01*
X150780000Y-70917142D01*
X150875238Y-70821904D01*
X150970476Y-70774285D01*
X151160952Y-70726666D01*
X151303810Y-70726666D01*
X151494286Y-70774285D01*
X151589524Y-70821904D01*
X151684762Y-70917142D01*
X151732381Y-71060000D01*
X151732381Y-71298095D01*
X150732381Y-70107619D02*
X150732381Y-70012380D01*
X150780000Y-69917142D01*
X150827619Y-69869523D01*
X150922857Y-69821904D01*
X151113333Y-69774285D01*
X151351429Y-69774285D01*
X151541905Y-69821904D01*
X151637143Y-69869523D01*
X151684762Y-69917142D01*
X151732381Y-70012380D01*
X151732381Y-70107619D01*
X151684762Y-70202857D01*
X151637143Y-70250476D01*
X151541905Y-70298095D01*
X151351429Y-70345714D01*
X151113333Y-70345714D01*
X150922857Y-70298095D01*
X150827619Y-70250476D01*
X150780000Y-70202857D01*
X150732381Y-70107619D01*
X108910381Y-91137428D02*
X108910381Y-91613619D01*
X107910381Y-91613619D01*
X107910381Y-90946952D02*
X108910381Y-90613619D01*
X107910381Y-90280285D01*
X108529429Y-89946952D02*
X108529429Y-89185047D01*
X108386571Y-88708857D02*
X108386571Y-88375523D01*
X108910381Y-88232666D02*
X108910381Y-88708857D01*
X107910381Y-88708857D01*
X107910381Y-88232666D01*
X107910381Y-87899333D02*
X107910381Y-87232666D01*
X108910381Y-87899333D01*
X108910381Y-87232666D01*
X108910381Y-86327904D02*
X108910381Y-86899333D01*
X108910381Y-86613619D02*
X107910381Y-86613619D01*
X108053238Y-86708857D01*
X108148476Y-86804095D01*
X108196095Y-86899333D01*
X108910381Y-84565999D02*
X108434190Y-84899333D01*
X108910381Y-85137428D02*
X107910381Y-85137428D01*
X107910381Y-84756475D01*
X107958000Y-84661237D01*
X108005619Y-84613618D01*
X108100857Y-84565999D01*
X108243714Y-84565999D01*
X108338952Y-84613618D01*
X108386571Y-84661237D01*
X108434190Y-84756475D01*
X108434190Y-85137428D01*
X108624667Y-84185047D02*
X108624667Y-83708856D01*
X108910381Y-84280285D02*
X107910381Y-83946952D01*
X108910381Y-83613618D01*
X108910381Y-83280285D02*
X107910381Y-83280285D01*
X108910381Y-82708856D01*
X107910381Y-82708856D01*
X107958000Y-81708856D02*
X107910381Y-81804094D01*
X107910381Y-81946951D01*
X107958000Y-82089809D01*
X108053238Y-82185047D01*
X108148476Y-82232666D01*
X108338952Y-82280285D01*
X108481810Y-82280285D01*
X108672286Y-82232666D01*
X108767524Y-82185047D01*
X108862762Y-82089809D01*
X108910381Y-81946951D01*
X108910381Y-81851713D01*
X108862762Y-81708856D01*
X108815143Y-81661237D01*
X108481810Y-81661237D01*
X108481810Y-81851713D01*
X108386571Y-81232666D02*
X108386571Y-80899332D01*
X108910381Y-80756475D02*
X108910381Y-81232666D01*
X107910381Y-81232666D01*
X107910381Y-80756475D01*
X108386571Y-79994570D02*
X108386571Y-80327904D01*
X108910381Y-80327904D02*
X107910381Y-80327904D01*
X107910381Y-79851713D01*
X108910381Y-79470761D02*
X107910381Y-79470761D01*
X108910381Y-78994571D02*
X107910381Y-78994571D01*
X108910381Y-78423142D01*
X107910381Y-78423142D01*
X108910381Y-77946952D02*
X107910381Y-77946952D01*
X107910381Y-77708857D01*
X107958000Y-77565999D01*
X108053238Y-77470761D01*
X108148476Y-77423142D01*
X108338952Y-77375523D01*
X108481810Y-77375523D01*
X108672286Y-77423142D01*
X108767524Y-77470761D01*
X108862762Y-77565999D01*
X108910381Y-77708857D01*
X108910381Y-77946952D01*
X108386571Y-76946952D02*
X108386571Y-76613618D01*
X108910381Y-76470761D02*
X108910381Y-76946952D01*
X107910381Y-76946952D01*
X107910381Y-76470761D01*
X108910381Y-75470761D02*
X108434190Y-75804095D01*
X108910381Y-76042190D02*
X107910381Y-76042190D01*
X107910381Y-75661237D01*
X107958000Y-75565999D01*
X108005619Y-75518380D01*
X108100857Y-75470761D01*
X108243714Y-75470761D01*
X108338952Y-75518380D01*
X108386571Y-75565999D01*
X108434190Y-75661237D01*
X108434190Y-76042190D01*
X114641334Y-101734881D02*
X114308000Y-101258690D01*
X114069905Y-101734881D02*
X114069905Y-100734881D01*
X114450858Y-100734881D01*
X114546096Y-100782500D01*
X114593715Y-100830119D01*
X114641334Y-100925357D01*
X114641334Y-101068214D01*
X114593715Y-101163452D01*
X114546096Y-101211071D01*
X114450858Y-101258690D01*
X114069905Y-101258690D01*
X115593715Y-101734881D02*
X115022286Y-101734881D01*
X115308000Y-101734881D02*
X115308000Y-100734881D01*
X115212762Y-100877738D01*
X115117524Y-100972976D01*
X115022286Y-101020595D01*
X114577834Y-106497381D02*
X114244500Y-106021190D01*
X114006405Y-106497381D02*
X114006405Y-105497381D01*
X114387358Y-105497381D01*
X114482596Y-105545000D01*
X114530215Y-105592619D01*
X114577834Y-105687857D01*
X114577834Y-105830714D01*
X114530215Y-105925952D01*
X114482596Y-105973571D01*
X114387358Y-106021190D01*
X114006405Y-106021190D01*
X114958786Y-105592619D02*
X115006405Y-105545000D01*
X115101643Y-105497381D01*
X115339739Y-105497381D01*
X115434977Y-105545000D01*
X115482596Y-105592619D01*
X115530215Y-105687857D01*
X115530215Y-105783095D01*
X115482596Y-105925952D01*
X114911167Y-106497381D01*
X115530215Y-106497381D01*
X104084381Y-78906666D02*
X103608190Y-79240000D01*
X104084381Y-79478095D02*
X103084381Y-79478095D01*
X103084381Y-79097142D01*
X103132000Y-79001904D01*
X103179619Y-78954285D01*
X103274857Y-78906666D01*
X103417714Y-78906666D01*
X103512952Y-78954285D01*
X103560571Y-79001904D01*
X103608190Y-79097142D01*
X103608190Y-79478095D01*
X103084381Y-78573333D02*
X103084381Y-77954285D01*
X103465333Y-78287619D01*
X103465333Y-78144761D01*
X103512952Y-78049523D01*
X103560571Y-78001904D01*
X103655810Y-77954285D01*
X103893905Y-77954285D01*
X103989143Y-78001904D01*
X104036762Y-78049523D01*
X104084381Y-78144761D01*
X104084381Y-78430476D01*
X104036762Y-78525714D01*
X103989143Y-78573333D01*
X104179381Y-90774166D02*
X103703190Y-91107500D01*
X104179381Y-91345595D02*
X103179381Y-91345595D01*
X103179381Y-90964642D01*
X103227000Y-90869404D01*
X103274619Y-90821785D01*
X103369857Y-90774166D01*
X103512714Y-90774166D01*
X103607952Y-90821785D01*
X103655571Y-90869404D01*
X103703190Y-90964642D01*
X103703190Y-91345595D01*
X103512714Y-89917023D02*
X104179381Y-89917023D01*
X103131762Y-90155119D02*
X103846048Y-90393214D01*
X103846048Y-89774166D01*
D15*
X146219333Y-104490761D02*
X146219333Y-103281238D01*
X146945048Y-104732666D02*
X144405048Y-103886000D01*
X146945048Y-103039333D01*
X145106571Y-79139142D02*
X145106571Y-79985809D01*
X146437048Y-79985809D02*
X143897048Y-79985809D01*
X143897048Y-78776285D01*
X137559143Y-90653810D02*
X137680095Y-90774762D01*
X137801048Y-91137619D01*
X137801048Y-91379524D01*
X137680095Y-91742381D01*
X137438190Y-91984286D01*
X137196286Y-92105238D01*
X136712476Y-92226190D01*
X136349619Y-92226190D01*
X135865810Y-92105238D01*
X135623905Y-91984286D01*
X135382000Y-91742381D01*
X135261048Y-91379524D01*
X135261048Y-91137619D01*
X135382000Y-90774762D01*
X135502952Y-90653810D01*
X92909571Y-115890524D02*
X92486238Y-115285762D01*
X92183857Y-115890524D02*
X92183857Y-114620524D01*
X92667666Y-114620524D01*
X92788619Y-114681000D01*
X92849095Y-114741476D01*
X92909571Y-114862429D01*
X92909571Y-115043857D01*
X92849095Y-115164810D01*
X92788619Y-115225286D01*
X92667666Y-115285762D01*
X92183857Y-115285762D01*
X93453857Y-115225286D02*
X93877190Y-115225286D01*
X94058619Y-115890524D02*
X93453857Y-115890524D01*
X93453857Y-114620524D01*
X94058619Y-114620524D01*
X95328619Y-115769571D02*
X95268143Y-115830048D01*
X95086714Y-115890524D01*
X94965762Y-115890524D01*
X94784334Y-115830048D01*
X94663381Y-115709095D01*
X94602905Y-115588143D01*
X94542429Y-115346238D01*
X94542429Y-115164810D01*
X94602905Y-114922905D01*
X94663381Y-114801952D01*
X94784334Y-114681000D01*
X94965762Y-114620524D01*
X95086714Y-114620524D01*
X95268143Y-114681000D01*
X95328619Y-114741476D01*
X106431976Y-116622977D02*
X105034976Y-116622977D01*
X105034976Y-116090786D01*
X105101500Y-115957739D01*
X105168024Y-115891215D01*
X105301071Y-115824691D01*
X105500643Y-115824691D01*
X105633690Y-115891215D01*
X105700214Y-115957739D01*
X105766738Y-116090786D01*
X105766738Y-116622977D01*
X106431976Y-114560739D02*
X106431976Y-115225977D01*
X105034976Y-115225977D01*
X106032833Y-114161596D02*
X106032833Y-113496358D01*
X106431976Y-114294643D02*
X105034976Y-113828977D01*
X106431976Y-113363310D01*
X105766738Y-112631548D02*
X106431976Y-112631548D01*
X105034976Y-113097214D02*
X105766738Y-112631548D01*
X105034976Y-112165881D01*
X105700214Y-111234547D02*
X105766738Y-111034976D01*
X105833262Y-110968452D01*
X105966310Y-110901928D01*
X106165881Y-110901928D01*
X106298929Y-110968452D01*
X106365452Y-111034976D01*
X106431976Y-111168023D01*
X106431976Y-111700214D01*
X105034976Y-111700214D01*
X105034976Y-111234547D01*
X105101500Y-111101500D01*
X105168024Y-111034976D01*
X105301071Y-110968452D01*
X105434119Y-110968452D01*
X105567167Y-111034976D01*
X105633690Y-111101500D01*
X105700214Y-111234547D01*
X105700214Y-111700214D01*
X106032833Y-110369738D02*
X106032833Y-109704500D01*
X106431976Y-110502785D02*
X105034976Y-110037119D01*
X106431976Y-109571452D01*
X106298929Y-108307499D02*
X106365452Y-108374023D01*
X106431976Y-108573594D01*
X106431976Y-108706642D01*
X106365452Y-108906214D01*
X106232405Y-109039261D01*
X106099357Y-109105785D01*
X105833262Y-109172309D01*
X105633690Y-109172309D01*
X105367595Y-109105785D01*
X105234548Y-109039261D01*
X105101500Y-108906214D01*
X105034976Y-108706642D01*
X105034976Y-108573594D01*
X105101500Y-108374023D01*
X105168024Y-108307499D01*
X106431976Y-107708785D02*
X105034976Y-107708785D01*
X106431976Y-106910499D02*
X105633690Y-107509214D01*
X105034976Y-106910499D02*
X105833262Y-107708785D01*
D14*
X91368952Y-71524762D02*
X91511809Y-71572381D01*
X91749905Y-71572381D01*
X91845143Y-71524762D01*
X91892762Y-71477143D01*
X91940381Y-71381905D01*
X91940381Y-71286667D01*
X91892762Y-71191429D01*
X91845143Y-71143810D01*
X91749905Y-71096190D01*
X91559428Y-71048571D01*
X91464190Y-71000952D01*
X91416571Y-70953333D01*
X91368952Y-70858095D01*
X91368952Y-70762857D01*
X91416571Y-70667619D01*
X91464190Y-70620000D01*
X91559428Y-70572381D01*
X91797524Y-70572381D01*
X91940381Y-70620000D01*
X92368952Y-71572381D02*
X92368952Y-70572381D01*
X92749905Y-70572381D01*
X92845143Y-70620000D01*
X92892762Y-70667619D01*
X92940381Y-70762857D01*
X92940381Y-70905714D01*
X92892762Y-71000952D01*
X92845143Y-71048571D01*
X92749905Y-71096190D01*
X92368952Y-71096190D01*
X93368952Y-71048571D02*
X93702286Y-71048571D01*
X93845143Y-71572381D02*
X93368952Y-71572381D01*
X93368952Y-70572381D01*
X93845143Y-70572381D01*
X94226095Y-71286667D02*
X94702286Y-71286667D01*
X94130857Y-71572381D02*
X94464190Y-70572381D01*
X94797524Y-71572381D01*
X95130857Y-71572381D02*
X95130857Y-70572381D01*
X95702286Y-71572381D02*
X95273714Y-71000952D01*
X95702286Y-70572381D02*
X95130857Y-71143810D01*
X96130857Y-71048571D02*
X96464191Y-71048571D01*
X96607048Y-71572381D02*
X96130857Y-71572381D01*
X96130857Y-70572381D01*
X96607048Y-70572381D01*
X97607048Y-71572381D02*
X97273714Y-71096190D01*
X97035619Y-71572381D02*
X97035619Y-70572381D01*
X97416572Y-70572381D01*
X97511810Y-70620000D01*
X97559429Y-70667619D01*
X97607048Y-70762857D01*
X97607048Y-70905714D01*
X97559429Y-71000952D01*
X97511810Y-71048571D01*
X97416572Y-71096190D01*
X97035619Y-71096190D01*
D15*
X126955476Y-100674524D02*
X126532143Y-100069762D01*
X126229762Y-100674524D02*
X126229762Y-99404524D01*
X126713571Y-99404524D01*
X126834524Y-99465000D01*
X126895000Y-99525476D01*
X126955476Y-99646429D01*
X126955476Y-99827857D01*
X126895000Y-99948810D01*
X126834524Y-100009286D01*
X126713571Y-100069762D01*
X126229762Y-100069762D01*
X127499762Y-100009286D02*
X127923095Y-100009286D01*
X128104524Y-100674524D02*
X127499762Y-100674524D01*
X127499762Y-99404524D01*
X128104524Y-99404524D01*
X128588334Y-100614048D02*
X128769762Y-100674524D01*
X129072143Y-100674524D01*
X129193096Y-100614048D01*
X129253572Y-100553571D01*
X129314048Y-100432619D01*
X129314048Y-100311667D01*
X129253572Y-100190714D01*
X129193096Y-100130238D01*
X129072143Y-100069762D01*
X128830239Y-100009286D01*
X128709286Y-99948810D01*
X128648810Y-99888333D01*
X128588334Y-99767381D01*
X128588334Y-99646429D01*
X128648810Y-99525476D01*
X128709286Y-99465000D01*
X128830239Y-99404524D01*
X129132619Y-99404524D01*
X129314048Y-99465000D01*
X129858334Y-100009286D02*
X130281667Y-100009286D01*
X130463096Y-100674524D02*
X129858334Y-100674524D01*
X129858334Y-99404524D01*
X130463096Y-99404524D01*
X130825953Y-99404524D02*
X131551668Y-99404524D01*
X131188811Y-100674524D02*
X131188811Y-99404524D01*
X96004524Y-89468095D02*
X97274524Y-89044761D01*
X96004524Y-88621428D01*
X96004524Y-87956190D02*
X96004524Y-87714286D01*
X96065000Y-87593333D01*
X96185952Y-87472381D01*
X96427857Y-87411905D01*
X96851190Y-87411905D01*
X97093095Y-87472381D01*
X97214048Y-87593333D01*
X97274524Y-87714286D01*
X97274524Y-87956190D01*
X97214048Y-88077143D01*
X97093095Y-88198095D01*
X96851190Y-88258571D01*
X96427857Y-88258571D01*
X96185952Y-88198095D01*
X96065000Y-88077143D01*
X96004524Y-87956190D01*
X97274524Y-86262857D02*
X97274524Y-86867619D01*
X96004524Y-86867619D01*
X96004524Y-85839524D02*
X97032619Y-85839524D01*
X97153571Y-85779048D01*
X97214048Y-85718572D01*
X97274524Y-85597619D01*
X97274524Y-85355715D01*
X97214048Y-85234762D01*
X97153571Y-85174286D01*
X97032619Y-85113810D01*
X96004524Y-85113810D01*
X97274524Y-84509048D02*
X96004524Y-84509048D01*
X96911667Y-84085715D01*
X96004524Y-83662381D01*
X97274524Y-83662381D01*
X96609286Y-83057619D02*
X96609286Y-82634286D01*
X97274524Y-82452857D02*
X97274524Y-83057619D01*
X96004524Y-83057619D01*
X96004524Y-82452857D01*
M02*
