G04 #@! TF.FileFunction,Soldermask,Bot*
%FSLAX46Y46*%
G04 Gerber Fmt 4.6, Leading zero omitted, Abs format (unit mm)*
G04 Created by KiCad (PCBNEW 4.0.1-3.201512221402+6198~38~ubuntu14.04.1-stable) date Sat 30 Apr 2016 11:46:46 AM PDT*
%MOMM*%
G01*
G04 APERTURE LIST*
%ADD10C,0.100000*%
%ADD11C,2.100000*%
%ADD12R,2.432000X2.127200*%
%ADD13O,2.432000X2.127200*%
%ADD14R,2.300000X2.400000*%
%ADD15C,2.300000*%
%ADD16C,2.398980*%
%ADD17C,2.432000*%
%ADD18C,2.940000*%
%ADD19R,2.432000X2.432000*%
%ADD20O,2.432000X2.432000*%
%ADD21O,1.924000X2.940000*%
%ADD22C,3.575000*%
G04 APERTURE END LIST*
D10*
D11*
X132080000Y-107378000D03*
X126080000Y-107378000D03*
X132080000Y-103378000D03*
X126080000Y-103378000D03*
D12*
X127254000Y-80899000D03*
D13*
X127254000Y-83439000D03*
X127254000Y-85979000D03*
X127254000Y-88519000D03*
X127254000Y-91059000D03*
X127254000Y-93599000D03*
X127254000Y-96139000D03*
D14*
X92456000Y-110236000D03*
D15*
X94996000Y-110236000D03*
D14*
X105664000Y-109728000D03*
D15*
X108204000Y-109728000D03*
D16*
X110871000Y-101346000D03*
X118491000Y-101346000D03*
X110871000Y-105981500D03*
X118491000Y-105981500D03*
X103505000Y-82740500D03*
X103505000Y-75120500D03*
X103600000Y-86480000D03*
X103600000Y-94100000D03*
D17*
X99400000Y-77470000D03*
X99400000Y-82550000D03*
X99400000Y-87630000D03*
D18*
X100838000Y-102870000D03*
X96139000Y-102870000D03*
X91440000Y-102870000D03*
D19*
X95504000Y-68072000D03*
D20*
X92964000Y-68072000D03*
D21*
X151130000Y-115570000D03*
X148590000Y-115570000D03*
X146050000Y-115570000D03*
X138430000Y-115570000D03*
X140970000Y-115570000D03*
X143510000Y-115570000D03*
X133350000Y-115570000D03*
X130810000Y-115570000D03*
X128270000Y-115570000D03*
X123190000Y-115570000D03*
X120650000Y-115570000D03*
X151130000Y-67310000D03*
X148590000Y-67310000D03*
X146050000Y-67310000D03*
X143510000Y-67310000D03*
X140970000Y-67310000D03*
X138430000Y-67310000D03*
X135890000Y-67310000D03*
X133350000Y-67310000D03*
X129286000Y-67310000D03*
X126746000Y-67310000D03*
X124206000Y-67310000D03*
X121666000Y-67310000D03*
X119126000Y-67310000D03*
X116586000Y-67310000D03*
X114046000Y-67310000D03*
X111506000Y-67310000D03*
X125730000Y-115570000D03*
D22*
X153670000Y-110490000D03*
X153670000Y-82550000D03*
X102870000Y-67310000D03*
X101600000Y-115570000D03*
D21*
X108966000Y-67310000D03*
X106426000Y-67310000D03*
X118110000Y-115570000D03*
X115570000Y-115570000D03*
M02*
