G04 #@! TF.FileFunction,Copper,L1,Top,Signal*
%FSLAX46Y46*%
G04 Gerber Fmt 4.6, Leading zero omitted, Abs format (unit mm)*
G04 Created by KiCad (PCBNEW 4.0.1-3.201512221402+6198~38~ubuntu14.04.1-stable) date Tue 08 Mar 2016 09:46:03 PM PST*
%MOMM*%
G01*
G04 APERTURE LIST*
%ADD10C,0.100000*%
%ADD11C,0.685800*%
%ADD12O,1.524000X2.540000*%
%ADD13R,2.032000X1.727200*%
%ADD14O,2.032000X1.727200*%
%ADD15C,1.998980*%
%ADD16C,10.160000*%
%ADD17R,1.900000X2.000000*%
%ADD18C,1.900000*%
%ADD19R,2.032000X2.032000*%
%ADD20O,2.032000X2.032000*%
%ADD21C,1.700000*%
%ADD22C,2.032000*%
%ADD23C,2.540000*%
%ADD24C,0.508000*%
%ADD25C,0.762000*%
%ADD26C,0.330200*%
%ADD27C,0.254000*%
G04 APERTURE END LIST*
D10*
D11*
X99400000Y-67900000D03*
X112100000Y-80300000D03*
X149500000Y-71900000D03*
X128500000Y-75700000D03*
X134400000Y-82000000D03*
X146200000Y-91900000D03*
X154200000Y-91900000D03*
X154200000Y-104900000D03*
X135300000Y-105700000D03*
X135800000Y-115700000D03*
X90700000Y-115800000D03*
X108600000Y-116200000D03*
X114400000Y-103600000D03*
X113900000Y-95700000D03*
X121200000Y-84400000D03*
X111700000Y-84800000D03*
X112400000Y-76500000D03*
X94900000Y-96100000D03*
X91100000Y-72800000D03*
X91100000Y-78700000D03*
D12*
X151130000Y-115570000D03*
X148590000Y-115570000D03*
X146050000Y-115570000D03*
X138430000Y-115570000D03*
X140970000Y-115570000D03*
X143510000Y-115570000D03*
X133350000Y-115570000D03*
X130810000Y-115570000D03*
X128270000Y-115570000D03*
X123190000Y-115570000D03*
X120650000Y-115570000D03*
X151130000Y-67310000D03*
X148590000Y-67310000D03*
X146050000Y-67310000D03*
X143510000Y-67310000D03*
X140970000Y-67310000D03*
X138430000Y-67310000D03*
X135890000Y-67310000D03*
X133350000Y-67310000D03*
X129286000Y-67310000D03*
X126746000Y-67310000D03*
X124206000Y-67310000D03*
X121666000Y-67310000D03*
X119126000Y-67310000D03*
X116586000Y-67310000D03*
X114046000Y-67310000D03*
X111506000Y-67310000D03*
X125730000Y-115570000D03*
X108966000Y-67310000D03*
X106426000Y-67310000D03*
X118110000Y-115570000D03*
X115570000Y-115570000D03*
D13*
X125793500Y-80073500D03*
D14*
X125793500Y-82613500D03*
X125793500Y-85153500D03*
X125793500Y-87693500D03*
X125793500Y-90233500D03*
X125793500Y-92773500D03*
X125793500Y-95313500D03*
D15*
X110871000Y-101346000D03*
X118491000Y-101346000D03*
X110871000Y-105981500D03*
X118491000Y-105981500D03*
X103505000Y-82740500D03*
X103505000Y-75120500D03*
X103600000Y-86480000D03*
X103600000Y-94100000D03*
D16*
X145796000Y-103632000D03*
X145288000Y-79248000D03*
X136652000Y-90932000D03*
D17*
X92456000Y-110236000D03*
D18*
X94996000Y-110236000D03*
D17*
X100076000Y-109728000D03*
D18*
X102616000Y-109728000D03*
D19*
X95504000Y-68072000D03*
D20*
X92964000Y-68072000D03*
D21*
X131730000Y-106870000D03*
X125730000Y-106870000D03*
X131730000Y-102870000D03*
X125730000Y-102870000D03*
D22*
X99400000Y-77720000D03*
X99400000Y-82800000D03*
X99400000Y-87880000D03*
D11*
X91100000Y-87300000D03*
D23*
X91440000Y-102870000D03*
X96139000Y-102870000D03*
X100838000Y-102870000D03*
D11*
X113284000Y-90678000D03*
X141478000Y-109728000D03*
X140970000Y-104140000D03*
X144780000Y-74930000D03*
X133350000Y-87630000D03*
D24*
X96139000Y-102870000D02*
X96139000Y-101346000D01*
X96139000Y-101346000D02*
X99285000Y-98200000D01*
X99285000Y-98200000D02*
X104400000Y-98200000D01*
X104400000Y-98200000D02*
X106000000Y-96600000D01*
X106000000Y-96600000D02*
X106000000Y-93009000D01*
X106000000Y-93009000D02*
X108331000Y-90678000D01*
X108331000Y-90678000D02*
X112268000Y-90678000D01*
X112268000Y-90678000D02*
X113284000Y-90678000D01*
X125793500Y-92773500D02*
X125539500Y-92773500D01*
D25*
X113284000Y-90678000D02*
X121666000Y-90678000D01*
X123761500Y-92773500D02*
X125793500Y-92773500D01*
X121666000Y-90678000D02*
X123761500Y-92773500D01*
D24*
X125539500Y-92773500D02*
X125476000Y-92710000D01*
X92456000Y-110236000D02*
X92456000Y-108204000D01*
X105664000Y-101346000D02*
X110871000Y-101346000D01*
X99822000Y-107188000D02*
X105664000Y-101346000D01*
X93472000Y-107188000D02*
X99822000Y-107188000D01*
X92456000Y-108204000D02*
X93472000Y-107188000D01*
X149860000Y-112522000D02*
X97282000Y-112522000D01*
X97282000Y-112522000D02*
X94996000Y-110236000D01*
X151130000Y-115570000D02*
X151130000Y-113792000D01*
X151130000Y-113792000D02*
X149860000Y-112522000D01*
X100076000Y-109728000D02*
X103886000Y-105918000D01*
X103886000Y-105918000D02*
X110807500Y-105918000D01*
X110807500Y-105918000D02*
X110871000Y-105981500D01*
X102616000Y-109728000D02*
X141478000Y-109728000D01*
X95504000Y-68072000D02*
X95504000Y-78904000D01*
X95504000Y-78904000D02*
X99400000Y-82800000D01*
D26*
X140970000Y-104140000D02*
X141224000Y-103886000D01*
X141224000Y-103886000D02*
X145605500Y-103886000D01*
X144780000Y-74930000D02*
X145288000Y-75438000D01*
X145288000Y-75438000D02*
X145288000Y-78930500D01*
X133350000Y-87630000D02*
X135572500Y-89852500D01*
X135572500Y-89852500D02*
X135572500Y-91313000D01*
D24*
X125793500Y-82613500D02*
X129476500Y-82613500D01*
X146050000Y-71120000D02*
X144780000Y-72390000D01*
X144780000Y-72390000D02*
X139700000Y-72390000D01*
X139700000Y-72390000D02*
X135890000Y-76200000D01*
X146050000Y-71120000D02*
X146050000Y-67310000D01*
X129476500Y-82613500D02*
X135890000Y-76200000D01*
X99400000Y-71000000D02*
X99400000Y-77720000D01*
X100296000Y-70104000D02*
X99400000Y-71000000D01*
X142748000Y-70104000D02*
X100296000Y-70104000D01*
X143510000Y-69342000D02*
X143510000Y-67310000D01*
X142748000Y-70104000D02*
X143510000Y-69342000D01*
D27*
G36*
X150132336Y-114051572D02*
X149860000Y-114459150D01*
X149577828Y-114036851D01*
X149124609Y-113734019D01*
X148590000Y-113627679D01*
X148055391Y-113734019D01*
X147602172Y-114036851D01*
X147320000Y-114459150D01*
X147037828Y-114036851D01*
X146584609Y-113734019D01*
X146050000Y-113627679D01*
X145515391Y-113734019D01*
X145062172Y-114036851D01*
X144780000Y-114459150D01*
X144497828Y-114036851D01*
X144044609Y-113734019D01*
X143510000Y-113627679D01*
X142975391Y-113734019D01*
X142522172Y-114036851D01*
X142240000Y-114459150D01*
X141957828Y-114036851D01*
X141504609Y-113734019D01*
X140970000Y-113627679D01*
X140435391Y-113734019D01*
X139982172Y-114036851D01*
X139700000Y-114459150D01*
X139417828Y-114036851D01*
X138964609Y-113734019D01*
X138430000Y-113627679D01*
X137895391Y-113734019D01*
X137442172Y-114036851D01*
X137139340Y-114490070D01*
X137033000Y-115024679D01*
X137033000Y-116115321D01*
X137139340Y-116649930D01*
X137442172Y-117103149D01*
X137886440Y-117400000D01*
X133893560Y-117400000D01*
X134337828Y-117103149D01*
X134640660Y-116649930D01*
X134695200Y-116375734D01*
X135303871Y-116375734D01*
X135321463Y-116574715D01*
X135692628Y-116691260D01*
X136080139Y-116656894D01*
X136278537Y-116574715D01*
X136296129Y-116375734D01*
X135800000Y-115879605D01*
X135303871Y-116375734D01*
X134695200Y-116375734D01*
X134747000Y-116115321D01*
X134747000Y-115592628D01*
X134808740Y-115592628D01*
X134843106Y-115980139D01*
X134925285Y-116178537D01*
X135124266Y-116196129D01*
X135620395Y-115700000D01*
X135979605Y-115700000D01*
X136475734Y-116196129D01*
X136674715Y-116178537D01*
X136791260Y-115807372D01*
X136756894Y-115419861D01*
X136674715Y-115221463D01*
X136475734Y-115203871D01*
X135979605Y-115700000D01*
X135620395Y-115700000D01*
X135124266Y-115203871D01*
X134925285Y-115221463D01*
X134808740Y-115592628D01*
X134747000Y-115592628D01*
X134747000Y-115024679D01*
X134746918Y-115024266D01*
X135303871Y-115024266D01*
X135800000Y-115520395D01*
X136296129Y-115024266D01*
X136278537Y-114825285D01*
X135907372Y-114708740D01*
X135519861Y-114743106D01*
X135321463Y-114825285D01*
X135303871Y-115024266D01*
X134746918Y-115024266D01*
X134640660Y-114490070D01*
X134337828Y-114036851D01*
X133884609Y-113734019D01*
X133350000Y-113627679D01*
X132815391Y-113734019D01*
X132362172Y-114036851D01*
X132070670Y-114473113D01*
X132052059Y-114410059D01*
X131708026Y-113984370D01*
X131227277Y-113722740D01*
X131153070Y-113707780D01*
X130937000Y-113830280D01*
X130937000Y-115443000D01*
X130957000Y-115443000D01*
X130957000Y-115697000D01*
X130937000Y-115697000D01*
X130937000Y-115717000D01*
X130683000Y-115717000D01*
X130683000Y-115697000D01*
X128397000Y-115697000D01*
X128397000Y-115717000D01*
X128143000Y-115717000D01*
X128143000Y-115697000D01*
X128123000Y-115697000D01*
X128123000Y-115443000D01*
X128143000Y-115443000D01*
X128143000Y-113830280D01*
X128397000Y-113830280D01*
X128397000Y-115443000D01*
X130683000Y-115443000D01*
X130683000Y-113830280D01*
X130466930Y-113707780D01*
X130392723Y-113722740D01*
X129911974Y-113984370D01*
X129567941Y-114410059D01*
X129540000Y-114504723D01*
X129512059Y-114410059D01*
X129168026Y-113984370D01*
X128687277Y-113722740D01*
X128613070Y-113707780D01*
X128397000Y-113830280D01*
X128143000Y-113830280D01*
X127926930Y-113707780D01*
X127852723Y-113722740D01*
X127371974Y-113984370D01*
X127027941Y-114410059D01*
X127009330Y-114473113D01*
X126717828Y-114036851D01*
X126264609Y-113734019D01*
X125730000Y-113627679D01*
X125195391Y-113734019D01*
X124742172Y-114036851D01*
X124460000Y-114459150D01*
X124177828Y-114036851D01*
X123724609Y-113734019D01*
X123190000Y-113627679D01*
X122655391Y-113734019D01*
X122202172Y-114036851D01*
X121920000Y-114459150D01*
X121637828Y-114036851D01*
X121184609Y-113734019D01*
X120650000Y-113627679D01*
X120115391Y-113734019D01*
X119662172Y-114036851D01*
X119380000Y-114459150D01*
X119097828Y-114036851D01*
X118644609Y-113734019D01*
X118110000Y-113627679D01*
X117575391Y-113734019D01*
X117122172Y-114036851D01*
X116840000Y-114459150D01*
X116557828Y-114036851D01*
X116104609Y-113734019D01*
X115570000Y-113627679D01*
X115035391Y-113734019D01*
X114582172Y-114036851D01*
X114279340Y-114490070D01*
X114173000Y-115024679D01*
X114173000Y-116115321D01*
X114279340Y-116649930D01*
X114582172Y-117103149D01*
X115026440Y-117400000D01*
X102912639Y-117400000D01*
X103437821Y-116875734D01*
X108103871Y-116875734D01*
X108121463Y-117074715D01*
X108492628Y-117191260D01*
X108880139Y-117156894D01*
X109078537Y-117074715D01*
X109096129Y-116875734D01*
X108600000Y-116379605D01*
X108103871Y-116875734D01*
X103437821Y-116875734D01*
X103483045Y-116830589D01*
X103789472Y-116092628D01*
X107608740Y-116092628D01*
X107643106Y-116480139D01*
X107725285Y-116678537D01*
X107924266Y-116696129D01*
X108420395Y-116200000D01*
X108779605Y-116200000D01*
X109275734Y-116696129D01*
X109474715Y-116678537D01*
X109591260Y-116307372D01*
X109556894Y-115919861D01*
X109474715Y-115721463D01*
X109275734Y-115703871D01*
X108779605Y-116200000D01*
X108420395Y-116200000D01*
X107924266Y-115703871D01*
X107725285Y-115721463D01*
X107608740Y-116092628D01*
X103789472Y-116092628D01*
X103822113Y-116014022D01*
X103822540Y-115524266D01*
X108103871Y-115524266D01*
X108600000Y-116020395D01*
X109096129Y-115524266D01*
X109078537Y-115325285D01*
X108707372Y-115208740D01*
X108319861Y-115243106D01*
X108121463Y-115325285D01*
X108103871Y-115524266D01*
X103822540Y-115524266D01*
X103822885Y-115129857D01*
X103485242Y-114312700D01*
X102860589Y-113686955D01*
X102196015Y-113411000D01*
X149491764Y-113411000D01*
X150132336Y-114051572D01*
X150132336Y-114051572D01*
G37*
X150132336Y-114051572D02*
X149860000Y-114459150D01*
X149577828Y-114036851D01*
X149124609Y-113734019D01*
X148590000Y-113627679D01*
X148055391Y-113734019D01*
X147602172Y-114036851D01*
X147320000Y-114459150D01*
X147037828Y-114036851D01*
X146584609Y-113734019D01*
X146050000Y-113627679D01*
X145515391Y-113734019D01*
X145062172Y-114036851D01*
X144780000Y-114459150D01*
X144497828Y-114036851D01*
X144044609Y-113734019D01*
X143510000Y-113627679D01*
X142975391Y-113734019D01*
X142522172Y-114036851D01*
X142240000Y-114459150D01*
X141957828Y-114036851D01*
X141504609Y-113734019D01*
X140970000Y-113627679D01*
X140435391Y-113734019D01*
X139982172Y-114036851D01*
X139700000Y-114459150D01*
X139417828Y-114036851D01*
X138964609Y-113734019D01*
X138430000Y-113627679D01*
X137895391Y-113734019D01*
X137442172Y-114036851D01*
X137139340Y-114490070D01*
X137033000Y-115024679D01*
X137033000Y-116115321D01*
X137139340Y-116649930D01*
X137442172Y-117103149D01*
X137886440Y-117400000D01*
X133893560Y-117400000D01*
X134337828Y-117103149D01*
X134640660Y-116649930D01*
X134695200Y-116375734D01*
X135303871Y-116375734D01*
X135321463Y-116574715D01*
X135692628Y-116691260D01*
X136080139Y-116656894D01*
X136278537Y-116574715D01*
X136296129Y-116375734D01*
X135800000Y-115879605D01*
X135303871Y-116375734D01*
X134695200Y-116375734D01*
X134747000Y-116115321D01*
X134747000Y-115592628D01*
X134808740Y-115592628D01*
X134843106Y-115980139D01*
X134925285Y-116178537D01*
X135124266Y-116196129D01*
X135620395Y-115700000D01*
X135979605Y-115700000D01*
X136475734Y-116196129D01*
X136674715Y-116178537D01*
X136791260Y-115807372D01*
X136756894Y-115419861D01*
X136674715Y-115221463D01*
X136475734Y-115203871D01*
X135979605Y-115700000D01*
X135620395Y-115700000D01*
X135124266Y-115203871D01*
X134925285Y-115221463D01*
X134808740Y-115592628D01*
X134747000Y-115592628D01*
X134747000Y-115024679D01*
X134746918Y-115024266D01*
X135303871Y-115024266D01*
X135800000Y-115520395D01*
X136296129Y-115024266D01*
X136278537Y-114825285D01*
X135907372Y-114708740D01*
X135519861Y-114743106D01*
X135321463Y-114825285D01*
X135303871Y-115024266D01*
X134746918Y-115024266D01*
X134640660Y-114490070D01*
X134337828Y-114036851D01*
X133884609Y-113734019D01*
X133350000Y-113627679D01*
X132815391Y-113734019D01*
X132362172Y-114036851D01*
X132070670Y-114473113D01*
X132052059Y-114410059D01*
X131708026Y-113984370D01*
X131227277Y-113722740D01*
X131153070Y-113707780D01*
X130937000Y-113830280D01*
X130937000Y-115443000D01*
X130957000Y-115443000D01*
X130957000Y-115697000D01*
X130937000Y-115697000D01*
X130937000Y-115717000D01*
X130683000Y-115717000D01*
X130683000Y-115697000D01*
X128397000Y-115697000D01*
X128397000Y-115717000D01*
X128143000Y-115717000D01*
X128143000Y-115697000D01*
X128123000Y-115697000D01*
X128123000Y-115443000D01*
X128143000Y-115443000D01*
X128143000Y-113830280D01*
X128397000Y-113830280D01*
X128397000Y-115443000D01*
X130683000Y-115443000D01*
X130683000Y-113830280D01*
X130466930Y-113707780D01*
X130392723Y-113722740D01*
X129911974Y-113984370D01*
X129567941Y-114410059D01*
X129540000Y-114504723D01*
X129512059Y-114410059D01*
X129168026Y-113984370D01*
X128687277Y-113722740D01*
X128613070Y-113707780D01*
X128397000Y-113830280D01*
X128143000Y-113830280D01*
X127926930Y-113707780D01*
X127852723Y-113722740D01*
X127371974Y-113984370D01*
X127027941Y-114410059D01*
X127009330Y-114473113D01*
X126717828Y-114036851D01*
X126264609Y-113734019D01*
X125730000Y-113627679D01*
X125195391Y-113734019D01*
X124742172Y-114036851D01*
X124460000Y-114459150D01*
X124177828Y-114036851D01*
X123724609Y-113734019D01*
X123190000Y-113627679D01*
X122655391Y-113734019D01*
X122202172Y-114036851D01*
X121920000Y-114459150D01*
X121637828Y-114036851D01*
X121184609Y-113734019D01*
X120650000Y-113627679D01*
X120115391Y-113734019D01*
X119662172Y-114036851D01*
X119380000Y-114459150D01*
X119097828Y-114036851D01*
X118644609Y-113734019D01*
X118110000Y-113627679D01*
X117575391Y-113734019D01*
X117122172Y-114036851D01*
X116840000Y-114459150D01*
X116557828Y-114036851D01*
X116104609Y-113734019D01*
X115570000Y-113627679D01*
X115035391Y-113734019D01*
X114582172Y-114036851D01*
X114279340Y-114490070D01*
X114173000Y-115024679D01*
X114173000Y-116115321D01*
X114279340Y-116649930D01*
X114582172Y-117103149D01*
X115026440Y-117400000D01*
X102912639Y-117400000D01*
X103437821Y-116875734D01*
X108103871Y-116875734D01*
X108121463Y-117074715D01*
X108492628Y-117191260D01*
X108880139Y-117156894D01*
X109078537Y-117074715D01*
X109096129Y-116875734D01*
X108600000Y-116379605D01*
X108103871Y-116875734D01*
X103437821Y-116875734D01*
X103483045Y-116830589D01*
X103789472Y-116092628D01*
X107608740Y-116092628D01*
X107643106Y-116480139D01*
X107725285Y-116678537D01*
X107924266Y-116696129D01*
X108420395Y-116200000D01*
X108779605Y-116200000D01*
X109275734Y-116696129D01*
X109474715Y-116678537D01*
X109591260Y-116307372D01*
X109556894Y-115919861D01*
X109474715Y-115721463D01*
X109275734Y-115703871D01*
X108779605Y-116200000D01*
X108420395Y-116200000D01*
X107924266Y-115703871D01*
X107725285Y-115721463D01*
X107608740Y-116092628D01*
X103789472Y-116092628D01*
X103822113Y-116014022D01*
X103822540Y-115524266D01*
X108103871Y-115524266D01*
X108600000Y-116020395D01*
X109096129Y-115524266D01*
X109078537Y-115325285D01*
X108707372Y-115208740D01*
X108319861Y-115243106D01*
X108121463Y-115325285D01*
X108103871Y-115524266D01*
X103822540Y-115524266D01*
X103822885Y-115129857D01*
X103485242Y-114312700D01*
X102860589Y-113686955D01*
X102196015Y-113411000D01*
X149491764Y-113411000D01*
X150132336Y-114051572D01*
G36*
X100986955Y-66049411D02*
X100647887Y-66865978D01*
X100647115Y-67750143D01*
X100984758Y-68567300D01*
X101609411Y-69193045D01*
X101662285Y-69215000D01*
X100296000Y-69215000D01*
X99955794Y-69282671D01*
X99667382Y-69475382D01*
X98771382Y-70371382D01*
X98578671Y-70659794D01*
X98511000Y-71000000D01*
X98511000Y-76300942D01*
X98466005Y-76319534D01*
X98001166Y-76783563D01*
X97749287Y-77390155D01*
X97748714Y-78046963D01*
X97999534Y-78653995D01*
X98463563Y-79118834D01*
X99070155Y-79370713D01*
X99726963Y-79371286D01*
X100333995Y-79120466D01*
X100798834Y-78656437D01*
X101050713Y-78049845D01*
X101051286Y-77393037D01*
X100961499Y-77175734D01*
X111903871Y-77175734D01*
X111921463Y-77374715D01*
X112292628Y-77491260D01*
X112680139Y-77456894D01*
X112878537Y-77374715D01*
X112896129Y-77175734D01*
X112400000Y-76679605D01*
X111903871Y-77175734D01*
X100961499Y-77175734D01*
X100800466Y-76786005D01*
X100336437Y-76321166D01*
X100289000Y-76301468D01*
X100289000Y-76272663D01*
X102532443Y-76272663D01*
X102631042Y-76539465D01*
X103240582Y-76765901D01*
X103890377Y-76741841D01*
X104378958Y-76539465D01*
X104433222Y-76392628D01*
X111408740Y-76392628D01*
X111443106Y-76780139D01*
X111525285Y-76978537D01*
X111724266Y-76996129D01*
X112220395Y-76500000D01*
X112579605Y-76500000D01*
X113075734Y-76996129D01*
X113274715Y-76978537D01*
X113391260Y-76607372D01*
X113356894Y-76219861D01*
X113274715Y-76021463D01*
X113075734Y-76003871D01*
X112579605Y-76500000D01*
X112220395Y-76500000D01*
X111724266Y-76003871D01*
X111525285Y-76021463D01*
X111408740Y-76392628D01*
X104433222Y-76392628D01*
X104477557Y-76272663D01*
X103505000Y-75300105D01*
X102532443Y-76272663D01*
X100289000Y-76272663D01*
X100289000Y-74856082D01*
X101859599Y-74856082D01*
X101883659Y-75505877D01*
X102086035Y-75994458D01*
X102352837Y-76093057D01*
X103325395Y-75120500D01*
X103684605Y-75120500D01*
X104657163Y-76093057D01*
X104923965Y-75994458D01*
X104987189Y-75824266D01*
X111903871Y-75824266D01*
X112400000Y-76320395D01*
X112896129Y-75824266D01*
X112878537Y-75625285D01*
X112507372Y-75508740D01*
X112119861Y-75543106D01*
X111921463Y-75625285D01*
X111903871Y-75824266D01*
X104987189Y-75824266D01*
X105150401Y-75384918D01*
X105137048Y-75024266D01*
X128003871Y-75024266D01*
X128500000Y-75520395D01*
X128996129Y-75024266D01*
X128978537Y-74825285D01*
X128607372Y-74708740D01*
X128219861Y-74743106D01*
X128021463Y-74825285D01*
X128003871Y-75024266D01*
X105137048Y-75024266D01*
X105126341Y-74735123D01*
X104923965Y-74246542D01*
X104657163Y-74147943D01*
X103684605Y-75120500D01*
X103325395Y-75120500D01*
X102352837Y-74147943D01*
X102086035Y-74246542D01*
X101859599Y-74856082D01*
X100289000Y-74856082D01*
X100289000Y-73968337D01*
X102532443Y-73968337D01*
X103505000Y-74940895D01*
X104477557Y-73968337D01*
X104378958Y-73701535D01*
X103769418Y-73475099D01*
X103119623Y-73499159D01*
X102631042Y-73701535D01*
X102532443Y-73968337D01*
X100289000Y-73968337D01*
X100289000Y-71368236D01*
X100664236Y-70993000D01*
X142748000Y-70993000D01*
X143088206Y-70925329D01*
X143376618Y-70732618D01*
X144138618Y-69970618D01*
X144331329Y-69682206D01*
X144399000Y-69342000D01*
X144399000Y-68909184D01*
X144497828Y-68843149D01*
X144780000Y-68420850D01*
X145062172Y-68843149D01*
X145161000Y-68909184D01*
X145161000Y-70751764D01*
X144411764Y-71501000D01*
X139700000Y-71501000D01*
X139359795Y-71568670D01*
X139071382Y-71761382D01*
X129108264Y-81724500D01*
X127151953Y-81724500D01*
X127037915Y-81553830D01*
X127023587Y-81544257D01*
X127044817Y-81540262D01*
X127260941Y-81401190D01*
X127405931Y-81188990D01*
X127456940Y-80937100D01*
X127456940Y-79209900D01*
X127412662Y-78974583D01*
X127273590Y-78758459D01*
X127061390Y-78613469D01*
X126809500Y-78562460D01*
X124777500Y-78562460D01*
X124542183Y-78606738D01*
X124502160Y-78632492D01*
X124827916Y-77847985D01*
X124828683Y-76968872D01*
X124583604Y-76375734D01*
X128003871Y-76375734D01*
X128021463Y-76574715D01*
X128392628Y-76691260D01*
X128780139Y-76656894D01*
X128978537Y-76574715D01*
X128996129Y-76375734D01*
X128500000Y-75879605D01*
X128003871Y-76375734D01*
X124583604Y-76375734D01*
X124492970Y-76156384D01*
X123930198Y-75592628D01*
X127508740Y-75592628D01*
X127543106Y-75980139D01*
X127625285Y-76178537D01*
X127824266Y-76196129D01*
X128320395Y-75700000D01*
X128679605Y-75700000D01*
X129175734Y-76196129D01*
X129374715Y-76178537D01*
X129491260Y-75807372D01*
X129456894Y-75419861D01*
X129374715Y-75221463D01*
X129175734Y-75203871D01*
X128679605Y-75700000D01*
X128320395Y-75700000D01*
X127824266Y-75203871D01*
X127625285Y-75221463D01*
X127508740Y-75592628D01*
X123930198Y-75592628D01*
X123871886Y-75534215D01*
X123059985Y-75197084D01*
X122180872Y-75196317D01*
X121368384Y-75532030D01*
X120746215Y-76153114D01*
X120409084Y-76965015D01*
X120408317Y-77844128D01*
X120744030Y-78656616D01*
X121365114Y-79278785D01*
X122177015Y-79615916D01*
X123056128Y-79616683D01*
X123868616Y-79280970D01*
X124178264Y-78971862D01*
X124130060Y-79209900D01*
X124130060Y-80937100D01*
X124174338Y-81172417D01*
X124313410Y-81388541D01*
X124525610Y-81533531D01*
X124566939Y-81541900D01*
X124549085Y-81553830D01*
X124224229Y-82040011D01*
X124110155Y-82613500D01*
X124224229Y-83186989D01*
X124549085Y-83673170D01*
X124863866Y-83883500D01*
X124549085Y-84093830D01*
X124224229Y-84580011D01*
X124110155Y-85153500D01*
X124224229Y-85726989D01*
X124549085Y-86213170D01*
X124863866Y-86423500D01*
X124549085Y-86633830D01*
X124224229Y-87120011D01*
X124110155Y-87693500D01*
X124224229Y-88266989D01*
X124549085Y-88753170D01*
X124863866Y-88963500D01*
X124549085Y-89173830D01*
X124224229Y-89660011D01*
X124110155Y-90233500D01*
X124224229Y-90806989D01*
X124549085Y-91293170D01*
X124863866Y-91503500D01*
X124549085Y-91713830D01*
X124519906Y-91757500D01*
X124182341Y-91757500D01*
X122384420Y-89959580D01*
X122054807Y-89739338D01*
X121990300Y-89726507D01*
X121666000Y-89662000D01*
X113284000Y-89662000D01*
X113093294Y-89699934D01*
X113090337Y-89699931D01*
X113087580Y-89701070D01*
X112895194Y-89739338D01*
X112820870Y-89789000D01*
X108331000Y-89789000D01*
X107990794Y-89856671D01*
X107836780Y-89959580D01*
X107702382Y-90049382D01*
X105371382Y-92380382D01*
X105178671Y-92668794D01*
X105111000Y-93009000D01*
X105111000Y-93448235D01*
X105018965Y-93226042D01*
X104752163Y-93127443D01*
X103779605Y-94100000D01*
X104752163Y-95072557D01*
X105018965Y-94973958D01*
X105111000Y-94726210D01*
X105111000Y-96231764D01*
X104031764Y-97311000D01*
X99285000Y-97311000D01*
X98944794Y-97378671D01*
X98656382Y-97571382D01*
X95510382Y-100717382D01*
X95317671Y-101005794D01*
X95286818Y-101160902D01*
X95061314Y-101254078D01*
X94524961Y-101789495D01*
X94234332Y-102489410D01*
X94233670Y-103247265D01*
X94523078Y-103947686D01*
X95058495Y-104484039D01*
X95758410Y-104774668D01*
X96516265Y-104775330D01*
X97216686Y-104485922D01*
X97753039Y-103950505D01*
X98043668Y-103250590D01*
X98044330Y-102492735D01*
X97754922Y-101792314D01*
X97352774Y-101389462D01*
X99653236Y-99089000D01*
X104400000Y-99089000D01*
X104740206Y-99021329D01*
X105028618Y-98828618D01*
X106628618Y-97228618D01*
X106821329Y-96940206D01*
X106889000Y-96600000D01*
X106889000Y-94862128D01*
X107454317Y-94862128D01*
X107790030Y-95674616D01*
X108411114Y-96296785D01*
X109223015Y-96633916D01*
X110102128Y-96634683D01*
X110728832Y-96375734D01*
X113403871Y-96375734D01*
X113421463Y-96574715D01*
X113792628Y-96691260D01*
X114180139Y-96656894D01*
X114378537Y-96574715D01*
X114396129Y-96375734D01*
X113900000Y-95879605D01*
X113403871Y-96375734D01*
X110728832Y-96375734D01*
X110914616Y-96298970D01*
X111536785Y-95677886D01*
X111572187Y-95592628D01*
X112908740Y-95592628D01*
X112943106Y-95980139D01*
X113025285Y-96178537D01*
X113224266Y-96196129D01*
X113720395Y-95700000D01*
X114079605Y-95700000D01*
X114575734Y-96196129D01*
X114774715Y-96178537D01*
X114891260Y-95807372D01*
X114879302Y-95672526D01*
X124186142Y-95672526D01*
X124188791Y-95688291D01*
X124442768Y-96215536D01*
X124879180Y-96605454D01*
X125431587Y-96798684D01*
X125666500Y-96654424D01*
X125666500Y-95440500D01*
X125920500Y-95440500D01*
X125920500Y-96654424D01*
X126155413Y-96798684D01*
X126707820Y-96605454D01*
X127144232Y-96215536D01*
X127398209Y-95688291D01*
X127400858Y-95672526D01*
X127279717Y-95440500D01*
X125920500Y-95440500D01*
X125666500Y-95440500D01*
X124307283Y-95440500D01*
X124186142Y-95672526D01*
X114879302Y-95672526D01*
X114856894Y-95419861D01*
X114774715Y-95221463D01*
X114575734Y-95203871D01*
X114079605Y-95700000D01*
X113720395Y-95700000D01*
X113224266Y-95203871D01*
X113025285Y-95221463D01*
X112908740Y-95592628D01*
X111572187Y-95592628D01*
X111808191Y-95024266D01*
X113403871Y-95024266D01*
X113900000Y-95520395D01*
X114396129Y-95024266D01*
X114378537Y-94825285D01*
X114007372Y-94708740D01*
X113619861Y-94743106D01*
X113421463Y-94825285D01*
X113403871Y-95024266D01*
X111808191Y-95024266D01*
X111873916Y-94865985D01*
X111874683Y-93986872D01*
X111538970Y-93174384D01*
X110917886Y-92552215D01*
X110105985Y-92215084D01*
X109226872Y-92214317D01*
X108414384Y-92550030D01*
X107792215Y-93171114D01*
X107455084Y-93983015D01*
X107454317Y-94862128D01*
X106889000Y-94862128D01*
X106889000Y-93377236D01*
X108699236Y-91567000D01*
X112820870Y-91567000D01*
X112895194Y-91616662D01*
X113085896Y-91654595D01*
X113088630Y-91655730D01*
X113091616Y-91655733D01*
X113284000Y-91694000D01*
X121245160Y-91694000D01*
X123043080Y-93491921D01*
X123372693Y-93712162D01*
X123761500Y-93789500D01*
X124519906Y-93789500D01*
X124549085Y-93833170D01*
X124858569Y-94039961D01*
X124442768Y-94411464D01*
X124188791Y-94938709D01*
X124186142Y-94954474D01*
X124307283Y-95186500D01*
X125666500Y-95186500D01*
X125666500Y-95166500D01*
X125920500Y-95166500D01*
X125920500Y-95186500D01*
X127279717Y-95186500D01*
X127400858Y-94954474D01*
X127398209Y-94938709D01*
X127144232Y-94411464D01*
X126728431Y-94039961D01*
X127037915Y-93833170D01*
X127362771Y-93346989D01*
X127476845Y-92773500D01*
X127362771Y-92200011D01*
X127271755Y-92063796D01*
X130936011Y-92063796D01*
X131804234Y-94165058D01*
X133410486Y-95774116D01*
X135510229Y-96646005D01*
X137783796Y-96647989D01*
X139885058Y-95779766D01*
X141494116Y-94173514D01*
X142157571Y-92575734D01*
X145703871Y-92575734D01*
X145721463Y-92774715D01*
X146092628Y-92891260D01*
X146480139Y-92856894D01*
X146678537Y-92774715D01*
X146696129Y-92575734D01*
X153703871Y-92575734D01*
X153721463Y-92774715D01*
X154092628Y-92891260D01*
X154480139Y-92856894D01*
X154678537Y-92774715D01*
X154696129Y-92575734D01*
X154200000Y-92079605D01*
X153703871Y-92575734D01*
X146696129Y-92575734D01*
X146200000Y-92079605D01*
X145703871Y-92575734D01*
X142157571Y-92575734D01*
X142366005Y-92073771D01*
X142366250Y-91792628D01*
X145208740Y-91792628D01*
X145243106Y-92180139D01*
X145325285Y-92378537D01*
X145524266Y-92396129D01*
X146020395Y-91900000D01*
X146379605Y-91900000D01*
X146875734Y-92396129D01*
X147074715Y-92378537D01*
X147191260Y-92007372D01*
X147172216Y-91792628D01*
X153208740Y-91792628D01*
X153243106Y-92180139D01*
X153325285Y-92378537D01*
X153524266Y-92396129D01*
X154020395Y-91900000D01*
X154379605Y-91900000D01*
X154875734Y-92396129D01*
X155074715Y-92378537D01*
X155191260Y-92007372D01*
X155156894Y-91619861D01*
X155074715Y-91421463D01*
X154875734Y-91403871D01*
X154379605Y-91900000D01*
X154020395Y-91900000D01*
X153524266Y-91403871D01*
X153325285Y-91421463D01*
X153208740Y-91792628D01*
X147172216Y-91792628D01*
X147156894Y-91619861D01*
X147074715Y-91421463D01*
X146875734Y-91403871D01*
X146379605Y-91900000D01*
X146020395Y-91900000D01*
X145524266Y-91403871D01*
X145325285Y-91421463D01*
X145208740Y-91792628D01*
X142366250Y-91792628D01*
X142366746Y-91224266D01*
X145703871Y-91224266D01*
X146200000Y-91720395D01*
X146696129Y-91224266D01*
X153703871Y-91224266D01*
X154200000Y-91720395D01*
X154696129Y-91224266D01*
X154678537Y-91025285D01*
X154307372Y-90908740D01*
X153919861Y-90943106D01*
X153721463Y-91025285D01*
X153703871Y-91224266D01*
X146696129Y-91224266D01*
X146678537Y-91025285D01*
X146307372Y-90908740D01*
X145919861Y-90943106D01*
X145721463Y-91025285D01*
X145703871Y-91224266D01*
X142366746Y-91224266D01*
X142367989Y-89800204D01*
X141499766Y-87698942D01*
X139893514Y-86089884D01*
X137793771Y-85217995D01*
X135520204Y-85216011D01*
X133418942Y-86084234D01*
X131809884Y-87690486D01*
X130937995Y-89790229D01*
X130936011Y-92063796D01*
X127271755Y-92063796D01*
X127037915Y-91713830D01*
X126723134Y-91503500D01*
X127037915Y-91293170D01*
X127362771Y-90806989D01*
X127476845Y-90233500D01*
X127362771Y-89660011D01*
X127037915Y-89173830D01*
X126723134Y-88963500D01*
X127037915Y-88753170D01*
X127362771Y-88266989D01*
X127476845Y-87693500D01*
X127362771Y-87120011D01*
X127037915Y-86633830D01*
X126723134Y-86423500D01*
X127037915Y-86213170D01*
X127362771Y-85726989D01*
X127476845Y-85153500D01*
X127362771Y-84580011D01*
X127037915Y-84093830D01*
X126723134Y-83883500D01*
X127037915Y-83673170D01*
X127151953Y-83502500D01*
X129476500Y-83502500D01*
X129816706Y-83434829D01*
X130105118Y-83242118D01*
X130671502Y-82675734D01*
X133903871Y-82675734D01*
X133921463Y-82874715D01*
X134292628Y-82991260D01*
X134680139Y-82956894D01*
X134878537Y-82874715D01*
X134896129Y-82675734D01*
X134400000Y-82179605D01*
X133903871Y-82675734D01*
X130671502Y-82675734D01*
X131454608Y-81892628D01*
X133408740Y-81892628D01*
X133443106Y-82280139D01*
X133525285Y-82478537D01*
X133724266Y-82496129D01*
X134220395Y-82000000D01*
X134579605Y-82000000D01*
X135075734Y-82496129D01*
X135274715Y-82478537D01*
X135391260Y-82107372D01*
X135356894Y-81719861D01*
X135274715Y-81521463D01*
X135075734Y-81503871D01*
X134579605Y-82000000D01*
X134220395Y-82000000D01*
X133724266Y-81503871D01*
X133525285Y-81521463D01*
X133408740Y-81892628D01*
X131454608Y-81892628D01*
X132022970Y-81324266D01*
X133903871Y-81324266D01*
X134400000Y-81820395D01*
X134896129Y-81324266D01*
X134878537Y-81125285D01*
X134507372Y-81008740D01*
X134119861Y-81043106D01*
X133921463Y-81125285D01*
X133903871Y-81324266D01*
X132022970Y-81324266D01*
X132967440Y-80379796D01*
X139572011Y-80379796D01*
X140440234Y-82481058D01*
X142046486Y-84090116D01*
X144146229Y-84962005D01*
X146419796Y-84963989D01*
X148521058Y-84095766D01*
X149628612Y-82990143D01*
X151447115Y-82990143D01*
X151784758Y-83807300D01*
X152409411Y-84433045D01*
X153225978Y-84772113D01*
X154110143Y-84772885D01*
X154927300Y-84435242D01*
X155553045Y-83810589D01*
X155892113Y-82994022D01*
X155892885Y-82109857D01*
X155555242Y-81292700D01*
X154930589Y-80666955D01*
X154114022Y-80327887D01*
X153229857Y-80327115D01*
X152412700Y-80664758D01*
X151786955Y-81289411D01*
X151447887Y-82105978D01*
X151447115Y-82990143D01*
X149628612Y-82990143D01*
X150130116Y-82489514D01*
X151002005Y-80389771D01*
X151003989Y-78116204D01*
X150135766Y-76014942D01*
X148529514Y-74405884D01*
X146429771Y-73533995D01*
X144156204Y-73532011D01*
X142054942Y-74400234D01*
X140445884Y-76006486D01*
X139573995Y-78106229D01*
X139572011Y-80379796D01*
X132967440Y-80379796D01*
X140068236Y-73279000D01*
X144780000Y-73279000D01*
X145120206Y-73211329D01*
X145408618Y-73018618D01*
X145851502Y-72575734D01*
X149003871Y-72575734D01*
X149021463Y-72774715D01*
X149392628Y-72891260D01*
X149780139Y-72856894D01*
X149978537Y-72774715D01*
X149996129Y-72575734D01*
X149500000Y-72079605D01*
X149003871Y-72575734D01*
X145851502Y-72575734D01*
X146634608Y-71792628D01*
X148508740Y-71792628D01*
X148543106Y-72180139D01*
X148625285Y-72378537D01*
X148824266Y-72396129D01*
X149320395Y-71900000D01*
X149679605Y-71900000D01*
X150175734Y-72396129D01*
X150374715Y-72378537D01*
X150491260Y-72007372D01*
X150456894Y-71619861D01*
X150374715Y-71421463D01*
X150175734Y-71403871D01*
X149679605Y-71900000D01*
X149320395Y-71900000D01*
X148824266Y-71403871D01*
X148625285Y-71421463D01*
X148508740Y-71792628D01*
X146634608Y-71792628D01*
X146678618Y-71748618D01*
X146697476Y-71720395D01*
X146871329Y-71460206D01*
X146918260Y-71224266D01*
X149003871Y-71224266D01*
X149500000Y-71720395D01*
X149996129Y-71224266D01*
X149978537Y-71025285D01*
X149607372Y-70908740D01*
X149219861Y-70943106D01*
X149021463Y-71025285D01*
X149003871Y-71224266D01*
X146918260Y-71224266D01*
X146939000Y-71120000D01*
X146939000Y-68909184D01*
X147037828Y-68843149D01*
X147320000Y-68420850D01*
X147602172Y-68843149D01*
X148055391Y-69145981D01*
X148590000Y-69252321D01*
X149124609Y-69145981D01*
X149577828Y-68843149D01*
X149860000Y-68420850D01*
X150142172Y-68843149D01*
X150595391Y-69145981D01*
X151130000Y-69252321D01*
X151664609Y-69145981D01*
X152117828Y-68843149D01*
X152420660Y-68389930D01*
X152527000Y-67855321D01*
X152527000Y-66764679D01*
X152420660Y-66230070D01*
X152117828Y-65776851D01*
X151673560Y-65480000D01*
X152105908Y-65480000D01*
X152960000Y-66334092D01*
X152960000Y-77470000D01*
X153014046Y-77741705D01*
X153167954Y-77972046D01*
X158040000Y-82844092D01*
X158040000Y-110195908D01*
X153167954Y-115067954D01*
X153014046Y-115298295D01*
X152960000Y-115570000D01*
X152960000Y-117400000D01*
X151673560Y-117400000D01*
X152117828Y-117103149D01*
X152420660Y-116649930D01*
X152527000Y-116115321D01*
X152527000Y-115024679D01*
X152420660Y-114490070D01*
X152117828Y-114036851D01*
X152019000Y-113970816D01*
X152019000Y-113792000D01*
X151951329Y-113451794D01*
X151758618Y-113163382D01*
X150488618Y-111893382D01*
X150407472Y-111839162D01*
X150200206Y-111700671D01*
X149860000Y-111633000D01*
X97650236Y-111633000D01*
X96577547Y-110560311D01*
X96580724Y-110552659D01*
X96581275Y-109922107D01*
X96340481Y-109339343D01*
X95895003Y-108893086D01*
X95497432Y-108728000D01*
X98478560Y-108728000D01*
X98478560Y-110728000D01*
X98522838Y-110963317D01*
X98661910Y-111179441D01*
X98874110Y-111324431D01*
X99126000Y-111375440D01*
X101026000Y-111375440D01*
X101261317Y-111331162D01*
X101477441Y-111192090D01*
X101622431Y-110979890D01*
X101623055Y-110976808D01*
X101716997Y-111070914D01*
X102299341Y-111312724D01*
X102929893Y-111313275D01*
X103512657Y-111072481D01*
X103655243Y-110930143D01*
X151447115Y-110930143D01*
X151784758Y-111747300D01*
X152409411Y-112373045D01*
X153225978Y-112712113D01*
X154110143Y-112712885D01*
X154927300Y-112375242D01*
X155553045Y-111750589D01*
X155892113Y-110934022D01*
X155892885Y-110049857D01*
X155555242Y-109232700D01*
X154930589Y-108606955D01*
X154114022Y-108267887D01*
X153229857Y-108267115D01*
X152412700Y-108604758D01*
X151786955Y-109229411D01*
X151447887Y-110045978D01*
X151447115Y-110930143D01*
X103655243Y-110930143D01*
X103958914Y-110627003D01*
X103963068Y-110617000D01*
X141068945Y-110617000D01*
X141282630Y-110705730D01*
X141671663Y-110706069D01*
X142031212Y-110557507D01*
X142306540Y-110282659D01*
X142455730Y-109923370D01*
X142456069Y-109534337D01*
X142307507Y-109174788D01*
X142032659Y-108899460D01*
X141673370Y-108750270D01*
X141284337Y-108749931D01*
X141068773Y-108839000D01*
X103963645Y-108839000D01*
X103960481Y-108831343D01*
X103515003Y-108385086D01*
X102932659Y-108143276D01*
X102917973Y-108143263D01*
X103147278Y-107913958D01*
X124865647Y-107913958D01*
X124945920Y-108165259D01*
X125501279Y-108366718D01*
X126091458Y-108340315D01*
X126514080Y-108165259D01*
X126594353Y-107913958D01*
X125730000Y-107049605D01*
X124865647Y-107913958D01*
X103147278Y-107913958D01*
X104254236Y-106807000D01*
X109443568Y-106807000D01*
X109484538Y-106906155D01*
X109943927Y-107366346D01*
X110544453Y-107615706D01*
X111194694Y-107616274D01*
X111795655Y-107367962D01*
X112030363Y-107133663D01*
X117518443Y-107133663D01*
X117617042Y-107400465D01*
X118226582Y-107626901D01*
X118876377Y-107602841D01*
X119364958Y-107400465D01*
X119463557Y-107133663D01*
X118491000Y-106161105D01*
X117518443Y-107133663D01*
X112030363Y-107133663D01*
X112255846Y-106908573D01*
X112505206Y-106308047D01*
X112505722Y-105717082D01*
X116845599Y-105717082D01*
X116869659Y-106366877D01*
X117072035Y-106855458D01*
X117338837Y-106954057D01*
X118311395Y-105981500D01*
X118670605Y-105981500D01*
X119643163Y-106954057D01*
X119909965Y-106855458D01*
X119989529Y-106641279D01*
X124233282Y-106641279D01*
X124259685Y-107231458D01*
X124434741Y-107654080D01*
X124686042Y-107734353D01*
X125550395Y-106870000D01*
X125909605Y-106870000D01*
X126773958Y-107734353D01*
X127025259Y-107654080D01*
X127203005Y-107164089D01*
X130244743Y-107164089D01*
X130470344Y-107710086D01*
X130887717Y-108128188D01*
X131433319Y-108354742D01*
X132024089Y-108355257D01*
X132570086Y-108129656D01*
X132988188Y-107712283D01*
X133214742Y-107166681D01*
X133215257Y-106575911D01*
X133132546Y-106375734D01*
X134803871Y-106375734D01*
X134821463Y-106574715D01*
X135192628Y-106691260D01*
X135580139Y-106656894D01*
X135778537Y-106574715D01*
X135796129Y-106375734D01*
X135300000Y-105879605D01*
X134803871Y-106375734D01*
X133132546Y-106375734D01*
X132989656Y-106029914D01*
X132572283Y-105611812D01*
X132526083Y-105592628D01*
X134308740Y-105592628D01*
X134343106Y-105980139D01*
X134425285Y-106178537D01*
X134624266Y-106196129D01*
X135120395Y-105700000D01*
X135479605Y-105700000D01*
X135975734Y-106196129D01*
X136174715Y-106178537D01*
X136291260Y-105807372D01*
X136256894Y-105419861D01*
X136174715Y-105221463D01*
X135975734Y-105203871D01*
X135479605Y-105700000D01*
X135120395Y-105700000D01*
X134624266Y-105203871D01*
X134425285Y-105221463D01*
X134308740Y-105592628D01*
X132526083Y-105592628D01*
X132026681Y-105385258D01*
X131435911Y-105384743D01*
X130889914Y-105610344D01*
X130471812Y-106027717D01*
X130245258Y-106573319D01*
X130244743Y-107164089D01*
X127203005Y-107164089D01*
X127226718Y-107098721D01*
X127200315Y-106508542D01*
X127025259Y-106085920D01*
X126773958Y-106005647D01*
X125909605Y-106870000D01*
X125550395Y-106870000D01*
X124686042Y-106005647D01*
X124434741Y-106085920D01*
X124233282Y-106641279D01*
X119989529Y-106641279D01*
X120136401Y-106245918D01*
X120120855Y-105826042D01*
X124865647Y-105826042D01*
X125730000Y-106690395D01*
X126594353Y-105826042D01*
X126514080Y-105574741D01*
X125958721Y-105373282D01*
X125368542Y-105399685D01*
X124945920Y-105574741D01*
X124865647Y-105826042D01*
X120120855Y-105826042D01*
X120112341Y-105596123D01*
X119909965Y-105107542D01*
X119684626Y-105024266D01*
X134803871Y-105024266D01*
X135300000Y-105520395D01*
X135796129Y-105024266D01*
X135778537Y-104825285D01*
X135407372Y-104708740D01*
X135019861Y-104743106D01*
X134821463Y-104825285D01*
X134803871Y-105024266D01*
X119684626Y-105024266D01*
X119643163Y-105008943D01*
X118670605Y-105981500D01*
X118311395Y-105981500D01*
X117338837Y-105008943D01*
X117072035Y-105107542D01*
X116845599Y-105717082D01*
X112505722Y-105717082D01*
X112505774Y-105657806D01*
X112257462Y-105056845D01*
X112030351Y-104829337D01*
X117518443Y-104829337D01*
X118491000Y-105801895D01*
X119463557Y-104829337D01*
X119364958Y-104562535D01*
X118755418Y-104336099D01*
X118105623Y-104360159D01*
X117617042Y-104562535D01*
X117518443Y-104829337D01*
X112030351Y-104829337D01*
X111798073Y-104596654D01*
X111197547Y-104347294D01*
X110547306Y-104346726D01*
X109946345Y-104595038D01*
X109511625Y-105029000D01*
X103886000Y-105029000D01*
X103545795Y-105096670D01*
X103257382Y-105289382D01*
X100466204Y-108080560D01*
X99126000Y-108080560D01*
X98890683Y-108124838D01*
X98674559Y-108263910D01*
X98529569Y-108476110D01*
X98478560Y-108728000D01*
X95497432Y-108728000D01*
X95312659Y-108651276D01*
X94682107Y-108650725D01*
X94099343Y-108891519D01*
X94001663Y-108989029D01*
X93870090Y-108784559D01*
X93657890Y-108639569D01*
X93406000Y-108588560D01*
X93345000Y-108588560D01*
X93345000Y-108572236D01*
X93840236Y-108077000D01*
X99822000Y-108077000D01*
X100162206Y-108009329D01*
X100450618Y-107816618D01*
X103991502Y-104275734D01*
X113903871Y-104275734D01*
X113921463Y-104474715D01*
X114292628Y-104591260D01*
X114680139Y-104556894D01*
X114878537Y-104474715D01*
X114896129Y-104275734D01*
X114400000Y-103779605D01*
X113903871Y-104275734D01*
X103991502Y-104275734D01*
X104774608Y-103492628D01*
X113408740Y-103492628D01*
X113443106Y-103880139D01*
X113525285Y-104078537D01*
X113724266Y-104096129D01*
X114220395Y-103600000D01*
X114579605Y-103600000D01*
X115075734Y-104096129D01*
X115274715Y-104078537D01*
X115391260Y-103707372D01*
X115356894Y-103319861D01*
X115292372Y-103164089D01*
X124244743Y-103164089D01*
X124470344Y-103710086D01*
X124887717Y-104128188D01*
X125433319Y-104354742D01*
X126024089Y-104355257D01*
X126570086Y-104129656D01*
X126988188Y-103712283D01*
X127214742Y-103166681D01*
X127214744Y-103164089D01*
X130244743Y-103164089D01*
X130470344Y-103710086D01*
X130887717Y-104128188D01*
X131433319Y-104354742D01*
X132024089Y-104355257D01*
X132076350Y-104333663D01*
X139991931Y-104333663D01*
X140080200Y-104547291D01*
X140080011Y-104763796D01*
X140948234Y-106865058D01*
X142554486Y-108474116D01*
X144654229Y-109346005D01*
X146927796Y-109347989D01*
X149029058Y-108479766D01*
X150638116Y-106873514D01*
X151177000Y-105575734D01*
X153703871Y-105575734D01*
X153721463Y-105774715D01*
X154092628Y-105891260D01*
X154480139Y-105856894D01*
X154678537Y-105774715D01*
X154696129Y-105575734D01*
X154200000Y-105079605D01*
X153703871Y-105575734D01*
X151177000Y-105575734D01*
X151502174Y-104792628D01*
X153208740Y-104792628D01*
X153243106Y-105180139D01*
X153325285Y-105378537D01*
X153524266Y-105396129D01*
X154020395Y-104900000D01*
X154379605Y-104900000D01*
X154875734Y-105396129D01*
X155074715Y-105378537D01*
X155191260Y-105007372D01*
X155156894Y-104619861D01*
X155074715Y-104421463D01*
X154875734Y-104403871D01*
X154379605Y-104900000D01*
X154020395Y-104900000D01*
X153524266Y-104403871D01*
X153325285Y-104421463D01*
X153208740Y-104792628D01*
X151502174Y-104792628D01*
X151510005Y-104773771D01*
X151510484Y-104224266D01*
X153703871Y-104224266D01*
X154200000Y-104720395D01*
X154696129Y-104224266D01*
X154678537Y-104025285D01*
X154307372Y-103908740D01*
X153919861Y-103943106D01*
X153721463Y-104025285D01*
X153703871Y-104224266D01*
X151510484Y-104224266D01*
X151511989Y-102500204D01*
X150643766Y-100398942D01*
X149037514Y-98789884D01*
X146937771Y-97917995D01*
X144664204Y-97916011D01*
X142562942Y-98784234D01*
X140953884Y-100390486D01*
X140081995Y-102490229D01*
X140080912Y-103731156D01*
X139992270Y-103944630D01*
X139991931Y-104333663D01*
X132076350Y-104333663D01*
X132570086Y-104129656D01*
X132988188Y-103712283D01*
X133214742Y-103166681D01*
X133215257Y-102575911D01*
X132989656Y-102029914D01*
X132572283Y-101611812D01*
X132026681Y-101385258D01*
X131435911Y-101384743D01*
X130889914Y-101610344D01*
X130471812Y-102027717D01*
X130245258Y-102573319D01*
X130244743Y-103164089D01*
X127214744Y-103164089D01*
X127215257Y-102575911D01*
X126989656Y-102029914D01*
X126572283Y-101611812D01*
X126026681Y-101385258D01*
X125435911Y-101384743D01*
X124889914Y-101610344D01*
X124471812Y-102027717D01*
X124245258Y-102573319D01*
X124244743Y-103164089D01*
X115292372Y-103164089D01*
X115274715Y-103121463D01*
X115075734Y-103103871D01*
X114579605Y-103600000D01*
X114220395Y-103600000D01*
X113724266Y-103103871D01*
X113525285Y-103121463D01*
X113408740Y-103492628D01*
X104774608Y-103492628D01*
X106032236Y-102235000D01*
X109469806Y-102235000D01*
X109484538Y-102270655D01*
X109943927Y-102730846D01*
X110544453Y-102980206D01*
X111194694Y-102980774D01*
X111331453Y-102924266D01*
X113903871Y-102924266D01*
X114400000Y-103420395D01*
X114896129Y-102924266D01*
X114878537Y-102725285D01*
X114507372Y-102608740D01*
X114119861Y-102643106D01*
X113921463Y-102725285D01*
X113903871Y-102924266D01*
X111331453Y-102924266D01*
X111795655Y-102732462D01*
X112030363Y-102498163D01*
X117518443Y-102498163D01*
X117617042Y-102764965D01*
X118226582Y-102991401D01*
X118876377Y-102967341D01*
X119364958Y-102764965D01*
X119463557Y-102498163D01*
X118491000Y-101525605D01*
X117518443Y-102498163D01*
X112030363Y-102498163D01*
X112255846Y-102273073D01*
X112505206Y-101672547D01*
X112505722Y-101081582D01*
X116845599Y-101081582D01*
X116869659Y-101731377D01*
X117072035Y-102219958D01*
X117338837Y-102318557D01*
X118311395Y-101346000D01*
X118670605Y-101346000D01*
X119643163Y-102318557D01*
X119909965Y-102219958D01*
X120136401Y-101610418D01*
X120112341Y-100960623D01*
X119909965Y-100472042D01*
X119643163Y-100373443D01*
X118670605Y-101346000D01*
X118311395Y-101346000D01*
X117338837Y-100373443D01*
X117072035Y-100472042D01*
X116845599Y-101081582D01*
X112505722Y-101081582D01*
X112505774Y-101022306D01*
X112257462Y-100421345D01*
X112030351Y-100193837D01*
X117518443Y-100193837D01*
X118491000Y-101166395D01*
X119463557Y-100193837D01*
X119364958Y-99927035D01*
X118755418Y-99700599D01*
X118105623Y-99724659D01*
X117617042Y-99927035D01*
X117518443Y-100193837D01*
X112030351Y-100193837D01*
X111798073Y-99961154D01*
X111197547Y-99711794D01*
X110547306Y-99711226D01*
X109946345Y-99959538D01*
X109486154Y-100418927D01*
X109470345Y-100457000D01*
X105664000Y-100457000D01*
X105323795Y-100524670D01*
X105035382Y-100717382D01*
X102742878Y-103009886D01*
X102743330Y-102492735D01*
X102453922Y-101792314D01*
X101918505Y-101255961D01*
X101218590Y-100965332D01*
X100460735Y-100964670D01*
X99760314Y-101254078D01*
X99223961Y-101789495D01*
X98933332Y-102489410D01*
X98932670Y-103247265D01*
X99222078Y-103947686D01*
X99757495Y-104484039D01*
X100457410Y-104774668D01*
X100977642Y-104775122D01*
X99453764Y-106299000D01*
X93472000Y-106299000D01*
X93131794Y-106366671D01*
X92862485Y-106546618D01*
X92843382Y-106559382D01*
X91827382Y-107575382D01*
X91634671Y-107863794D01*
X91567000Y-108204000D01*
X91567000Y-108588560D01*
X91506000Y-108588560D01*
X91270683Y-108632838D01*
X91054559Y-108771910D01*
X90909569Y-108984110D01*
X90858560Y-109236000D01*
X90858560Y-111236000D01*
X90902838Y-111471317D01*
X91041910Y-111687441D01*
X91254110Y-111832431D01*
X91506000Y-111883440D01*
X93406000Y-111883440D01*
X93641317Y-111839162D01*
X93857441Y-111700090D01*
X94002431Y-111487890D01*
X94003055Y-111484808D01*
X94096997Y-111578914D01*
X94679341Y-111820724D01*
X95309893Y-111821275D01*
X95319903Y-111817139D01*
X96653382Y-113150618D01*
X96941794Y-113343329D01*
X97282000Y-113411000D01*
X101005244Y-113411000D01*
X100342700Y-113684758D01*
X99716955Y-114309411D01*
X99377887Y-115125978D01*
X99377115Y-116010143D01*
X99714758Y-116827300D01*
X100286459Y-117400000D01*
X88340000Y-117400000D01*
X88340000Y-116475734D01*
X90203871Y-116475734D01*
X90221463Y-116674715D01*
X90592628Y-116791260D01*
X90980139Y-116756894D01*
X91178537Y-116674715D01*
X91196129Y-116475734D01*
X90700000Y-115979605D01*
X90203871Y-116475734D01*
X88340000Y-116475734D01*
X88340000Y-115692628D01*
X89708740Y-115692628D01*
X89743106Y-116080139D01*
X89825285Y-116278537D01*
X90024266Y-116296129D01*
X90520395Y-115800000D01*
X90879605Y-115800000D01*
X91375734Y-116296129D01*
X91574715Y-116278537D01*
X91691260Y-115907372D01*
X91656894Y-115519861D01*
X91574715Y-115321463D01*
X91375734Y-115303871D01*
X90879605Y-115800000D01*
X90520395Y-115800000D01*
X90024266Y-115303871D01*
X89825285Y-115321463D01*
X89708740Y-115692628D01*
X88340000Y-115692628D01*
X88340000Y-115124266D01*
X90203871Y-115124266D01*
X90700000Y-115620395D01*
X91196129Y-115124266D01*
X91178537Y-114925285D01*
X90807372Y-114808740D01*
X90419861Y-114843106D01*
X90221463Y-114925285D01*
X90203871Y-115124266D01*
X88340000Y-115124266D01*
X88340000Y-103247265D01*
X89534670Y-103247265D01*
X89824078Y-103947686D01*
X90359495Y-104484039D01*
X91059410Y-104774668D01*
X91817265Y-104775330D01*
X92517686Y-104485922D01*
X93054039Y-103950505D01*
X93344668Y-103250590D01*
X93345330Y-102492735D01*
X93055922Y-101792314D01*
X92520505Y-101255961D01*
X91820590Y-100965332D01*
X91062735Y-100964670D01*
X90362314Y-101254078D01*
X89825961Y-101789495D01*
X89535332Y-102489410D01*
X89534670Y-103247265D01*
X88340000Y-103247265D01*
X88340000Y-96775734D01*
X94403871Y-96775734D01*
X94421463Y-96974715D01*
X94792628Y-97091260D01*
X95180139Y-97056894D01*
X95378537Y-96974715D01*
X95396129Y-96775734D01*
X94900000Y-96279605D01*
X94403871Y-96775734D01*
X88340000Y-96775734D01*
X88340000Y-95992628D01*
X93908740Y-95992628D01*
X93943106Y-96380139D01*
X94025285Y-96578537D01*
X94224266Y-96596129D01*
X94720395Y-96100000D01*
X95079605Y-96100000D01*
X95575734Y-96596129D01*
X95774715Y-96578537D01*
X95891260Y-96207372D01*
X95856894Y-95819861D01*
X95774715Y-95621463D01*
X95575734Y-95603871D01*
X95079605Y-96100000D01*
X94720395Y-96100000D01*
X94224266Y-95603871D01*
X94025285Y-95621463D01*
X93908740Y-95992628D01*
X88340000Y-95992628D01*
X88340000Y-95424266D01*
X94403871Y-95424266D01*
X94900000Y-95920395D01*
X95396129Y-95424266D01*
X95380914Y-95252163D01*
X102627443Y-95252163D01*
X102726042Y-95518965D01*
X103335582Y-95745401D01*
X103985377Y-95721341D01*
X104473958Y-95518965D01*
X104572557Y-95252163D01*
X103600000Y-94279605D01*
X102627443Y-95252163D01*
X95380914Y-95252163D01*
X95378537Y-95225285D01*
X95007372Y-95108740D01*
X94619861Y-95143106D01*
X94421463Y-95225285D01*
X94403871Y-95424266D01*
X88340000Y-95424266D01*
X88340000Y-93835582D01*
X101954599Y-93835582D01*
X101978659Y-94485377D01*
X102181035Y-94973958D01*
X102447837Y-95072557D01*
X103420395Y-94100000D01*
X102447837Y-93127443D01*
X102181035Y-93226042D01*
X101954599Y-93835582D01*
X88340000Y-93835582D01*
X88340000Y-92947837D01*
X102627443Y-92947837D01*
X103600000Y-93920395D01*
X104572557Y-92947837D01*
X104473958Y-92681035D01*
X103864418Y-92454599D01*
X103214623Y-92478659D01*
X102726042Y-92681035D01*
X102627443Y-92947837D01*
X88340000Y-92947837D01*
X88340000Y-89044107D01*
X98415498Y-89044107D01*
X98516120Y-89312622D01*
X99131642Y-89541816D01*
X99788019Y-89518014D01*
X100283880Y-89312622D01*
X100384502Y-89044107D01*
X99400000Y-88059605D01*
X98415498Y-89044107D01*
X88340000Y-89044107D01*
X88340000Y-87975734D01*
X90603871Y-87975734D01*
X90621463Y-88174715D01*
X90992628Y-88291260D01*
X91380139Y-88256894D01*
X91578537Y-88174715D01*
X91596129Y-87975734D01*
X91100000Y-87479605D01*
X90603871Y-87975734D01*
X88340000Y-87975734D01*
X88340000Y-87192628D01*
X90108740Y-87192628D01*
X90143106Y-87580139D01*
X90225285Y-87778537D01*
X90424266Y-87796129D01*
X90920395Y-87300000D01*
X91279605Y-87300000D01*
X91775734Y-87796129D01*
X91974715Y-87778537D01*
X92027119Y-87611642D01*
X97738184Y-87611642D01*
X97761986Y-88268019D01*
X97967378Y-88763880D01*
X98235893Y-88864502D01*
X99220395Y-87880000D01*
X99579605Y-87880000D01*
X100564107Y-88864502D01*
X100832622Y-88763880D01*
X101061816Y-88148358D01*
X101038014Y-87491981D01*
X100832622Y-86996120D01*
X100564107Y-86895498D01*
X99579605Y-87880000D01*
X99220395Y-87880000D01*
X98235893Y-86895498D01*
X97967378Y-86996120D01*
X97738184Y-87611642D01*
X92027119Y-87611642D01*
X92091260Y-87407372D01*
X92056894Y-87019861D01*
X91974715Y-86821463D01*
X91775734Y-86803871D01*
X91279605Y-87300000D01*
X90920395Y-87300000D01*
X90424266Y-86803871D01*
X90225285Y-86821463D01*
X90108740Y-87192628D01*
X88340000Y-87192628D01*
X88340000Y-86624266D01*
X90603871Y-86624266D01*
X91100000Y-87120395D01*
X91504502Y-86715893D01*
X98415498Y-86715893D01*
X99400000Y-87700395D01*
X100296701Y-86803694D01*
X101965226Y-86803694D01*
X102213538Y-87404655D01*
X102672927Y-87864846D01*
X103273453Y-88114206D01*
X103923694Y-88114774D01*
X104524655Y-87866462D01*
X104984846Y-87407073D01*
X105234206Y-86806547D01*
X105234774Y-86156306D01*
X104986462Y-85555345D01*
X104906990Y-85475734D01*
X111203871Y-85475734D01*
X111221463Y-85674715D01*
X111592628Y-85791260D01*
X111980139Y-85756894D01*
X112178537Y-85674715D01*
X112196129Y-85475734D01*
X111700000Y-84979605D01*
X111203871Y-85475734D01*
X104906990Y-85475734D01*
X104527073Y-85095154D01*
X103926547Y-84845794D01*
X103276306Y-84845226D01*
X102675345Y-85093538D01*
X102215154Y-85552927D01*
X101965794Y-86153453D01*
X101965226Y-86803694D01*
X100296701Y-86803694D01*
X100384502Y-86715893D01*
X100283880Y-86447378D01*
X99668358Y-86218184D01*
X99011981Y-86241986D01*
X98516120Y-86447378D01*
X98415498Y-86715893D01*
X91504502Y-86715893D01*
X91596129Y-86624266D01*
X91578537Y-86425285D01*
X91207372Y-86308740D01*
X90819861Y-86343106D01*
X90621463Y-86425285D01*
X90603871Y-86624266D01*
X88340000Y-86624266D01*
X88340000Y-84692628D01*
X110708740Y-84692628D01*
X110743106Y-85080139D01*
X110825285Y-85278537D01*
X111024266Y-85296129D01*
X111520395Y-84800000D01*
X111879605Y-84800000D01*
X112375734Y-85296129D01*
X112574715Y-85278537D01*
X112638394Y-85075734D01*
X120703871Y-85075734D01*
X120721463Y-85274715D01*
X121092628Y-85391260D01*
X121480139Y-85356894D01*
X121678537Y-85274715D01*
X121696129Y-85075734D01*
X121200000Y-84579605D01*
X120703871Y-85075734D01*
X112638394Y-85075734D01*
X112691260Y-84907372D01*
X112656894Y-84519861D01*
X112574715Y-84321463D01*
X112375734Y-84303871D01*
X111879605Y-84800000D01*
X111520395Y-84800000D01*
X111024266Y-84303871D01*
X110825285Y-84321463D01*
X110708740Y-84692628D01*
X88340000Y-84692628D01*
X88340000Y-79375734D01*
X90603871Y-79375734D01*
X90621463Y-79574715D01*
X90992628Y-79691260D01*
X91380139Y-79656894D01*
X91578537Y-79574715D01*
X91596129Y-79375734D01*
X91100000Y-78879605D01*
X90603871Y-79375734D01*
X88340000Y-79375734D01*
X88340000Y-78592628D01*
X90108740Y-78592628D01*
X90143106Y-78980139D01*
X90225285Y-79178537D01*
X90424266Y-79196129D01*
X90920395Y-78700000D01*
X91279605Y-78700000D01*
X91775734Y-79196129D01*
X91974715Y-79178537D01*
X92091260Y-78807372D01*
X92056894Y-78419861D01*
X91974715Y-78221463D01*
X91775734Y-78203871D01*
X91279605Y-78700000D01*
X90920395Y-78700000D01*
X90424266Y-78203871D01*
X90225285Y-78221463D01*
X90108740Y-78592628D01*
X88340000Y-78592628D01*
X88340000Y-78024266D01*
X90603871Y-78024266D01*
X91100000Y-78520395D01*
X91596129Y-78024266D01*
X91578537Y-77825285D01*
X91207372Y-77708740D01*
X90819861Y-77743106D01*
X90621463Y-77825285D01*
X90603871Y-78024266D01*
X88340000Y-78024266D01*
X88340000Y-73475734D01*
X90603871Y-73475734D01*
X90621463Y-73674715D01*
X90992628Y-73791260D01*
X91380139Y-73756894D01*
X91578537Y-73674715D01*
X91596129Y-73475734D01*
X91100000Y-72979605D01*
X90603871Y-73475734D01*
X88340000Y-73475734D01*
X88340000Y-72692628D01*
X90108740Y-72692628D01*
X90143106Y-73080139D01*
X90225285Y-73278537D01*
X90424266Y-73296129D01*
X90920395Y-72800000D01*
X91279605Y-72800000D01*
X91775734Y-73296129D01*
X91974715Y-73278537D01*
X92091260Y-72907372D01*
X92056894Y-72519861D01*
X91974715Y-72321463D01*
X91775734Y-72303871D01*
X91279605Y-72800000D01*
X90920395Y-72800000D01*
X90424266Y-72303871D01*
X90225285Y-72321463D01*
X90108740Y-72692628D01*
X88340000Y-72692628D01*
X88340000Y-72124266D01*
X90603871Y-72124266D01*
X91100000Y-72620395D01*
X91596129Y-72124266D01*
X91578537Y-71925285D01*
X91207372Y-71808740D01*
X90819861Y-71843106D01*
X90621463Y-71925285D01*
X90603871Y-72124266D01*
X88340000Y-72124266D01*
X88340000Y-68454946D01*
X91358017Y-68454946D01*
X91626812Y-69040379D01*
X92099182Y-69478385D01*
X92581056Y-69677975D01*
X92837000Y-69558836D01*
X92837000Y-68199000D01*
X91476633Y-68199000D01*
X91358017Y-68454946D01*
X88340000Y-68454946D01*
X88340000Y-67689054D01*
X91358017Y-67689054D01*
X91476633Y-67945000D01*
X92837000Y-67945000D01*
X92837000Y-66585164D01*
X93091000Y-66585164D01*
X93091000Y-67945000D01*
X93111000Y-67945000D01*
X93111000Y-68199000D01*
X93091000Y-68199000D01*
X93091000Y-69558836D01*
X93346944Y-69677975D01*
X93828818Y-69478385D01*
X93926398Y-69387903D01*
X94023910Y-69539441D01*
X94236110Y-69684431D01*
X94488000Y-69735440D01*
X94615000Y-69735440D01*
X94615000Y-78904000D01*
X94682671Y-79244206D01*
X94851086Y-79496256D01*
X94875382Y-79532618D01*
X97767957Y-82425193D01*
X97749287Y-82470155D01*
X97748714Y-83126963D01*
X97999534Y-83733995D01*
X98463563Y-84198834D01*
X99070155Y-84450713D01*
X99726963Y-84451286D01*
X100333995Y-84200466D01*
X100798834Y-83736437D01*
X101050713Y-83129845D01*
X101050770Y-83064194D01*
X101870226Y-83064194D01*
X102118538Y-83665155D01*
X102577927Y-84125346D01*
X103178453Y-84374706D01*
X103828694Y-84375274D01*
X104429655Y-84126962D01*
X104432355Y-84124266D01*
X111203871Y-84124266D01*
X111700000Y-84620395D01*
X112027767Y-84292628D01*
X120208740Y-84292628D01*
X120243106Y-84680139D01*
X120325285Y-84878537D01*
X120524266Y-84896129D01*
X121020395Y-84400000D01*
X121379605Y-84400000D01*
X121875734Y-84896129D01*
X122074715Y-84878537D01*
X122191260Y-84507372D01*
X122156894Y-84119861D01*
X122074715Y-83921463D01*
X121875734Y-83903871D01*
X121379605Y-84400000D01*
X121020395Y-84400000D01*
X120524266Y-83903871D01*
X120325285Y-83921463D01*
X120208740Y-84292628D01*
X112027767Y-84292628D01*
X112196129Y-84124266D01*
X112178537Y-83925285D01*
X111807372Y-83808740D01*
X111419861Y-83843106D01*
X111221463Y-83925285D01*
X111203871Y-84124266D01*
X104432355Y-84124266D01*
X104833053Y-83724266D01*
X120703871Y-83724266D01*
X121200000Y-84220395D01*
X121696129Y-83724266D01*
X121678537Y-83525285D01*
X121307372Y-83408740D01*
X120919861Y-83443106D01*
X120721463Y-83525285D01*
X120703871Y-83724266D01*
X104833053Y-83724266D01*
X104889846Y-83667573D01*
X105139206Y-83067047D01*
X105139774Y-82416806D01*
X104891462Y-81815845D01*
X104432073Y-81355654D01*
X103831547Y-81106294D01*
X103181306Y-81105726D01*
X102580345Y-81354038D01*
X102120154Y-81813427D01*
X101870794Y-82413953D01*
X101870226Y-83064194D01*
X101050770Y-83064194D01*
X101051286Y-82473037D01*
X100800466Y-81866005D01*
X100336437Y-81401166D01*
X99729845Y-81149287D01*
X99073037Y-81148714D01*
X99025565Y-81168329D01*
X98832970Y-80975734D01*
X111603871Y-80975734D01*
X111621463Y-81174715D01*
X111992628Y-81291260D01*
X112380139Y-81256894D01*
X112578537Y-81174715D01*
X112596129Y-80975734D01*
X112100000Y-80479605D01*
X111603871Y-80975734D01*
X98832970Y-80975734D01*
X98049864Y-80192628D01*
X111108740Y-80192628D01*
X111143106Y-80580139D01*
X111225285Y-80778537D01*
X111424266Y-80796129D01*
X111920395Y-80300000D01*
X112279605Y-80300000D01*
X112775734Y-80796129D01*
X112974715Y-80778537D01*
X113091260Y-80407372D01*
X113056894Y-80019861D01*
X112974715Y-79821463D01*
X112775734Y-79803871D01*
X112279605Y-80300000D01*
X111920395Y-80300000D01*
X111424266Y-79803871D01*
X111225285Y-79821463D01*
X111108740Y-80192628D01*
X98049864Y-80192628D01*
X97481502Y-79624266D01*
X111603871Y-79624266D01*
X112100000Y-80120395D01*
X112596129Y-79624266D01*
X112578537Y-79425285D01*
X112207372Y-79308740D01*
X111819861Y-79343106D01*
X111621463Y-79425285D01*
X111603871Y-79624266D01*
X97481502Y-79624266D01*
X96393000Y-78535764D01*
X96393000Y-69735440D01*
X96520000Y-69735440D01*
X96755317Y-69691162D01*
X96971441Y-69552090D01*
X97116431Y-69339890D01*
X97167440Y-69088000D01*
X97167440Y-68575734D01*
X98903871Y-68575734D01*
X98921463Y-68774715D01*
X99292628Y-68891260D01*
X99680139Y-68856894D01*
X99878537Y-68774715D01*
X99896129Y-68575734D01*
X99400000Y-68079605D01*
X98903871Y-68575734D01*
X97167440Y-68575734D01*
X97167440Y-67792628D01*
X98408740Y-67792628D01*
X98443106Y-68180139D01*
X98525285Y-68378537D01*
X98724266Y-68396129D01*
X99220395Y-67900000D01*
X99579605Y-67900000D01*
X100075734Y-68396129D01*
X100274715Y-68378537D01*
X100391260Y-68007372D01*
X100356894Y-67619861D01*
X100274715Y-67421463D01*
X100075734Y-67403871D01*
X99579605Y-67900000D01*
X99220395Y-67900000D01*
X98724266Y-67403871D01*
X98525285Y-67421463D01*
X98408740Y-67792628D01*
X97167440Y-67792628D01*
X97167440Y-67224266D01*
X98903871Y-67224266D01*
X99400000Y-67720395D01*
X99896129Y-67224266D01*
X99878537Y-67025285D01*
X99507372Y-66908740D01*
X99119861Y-66943106D01*
X98921463Y-67025285D01*
X98903871Y-67224266D01*
X97167440Y-67224266D01*
X97167440Y-67056000D01*
X97123162Y-66820683D01*
X96984090Y-66604559D01*
X96771890Y-66459569D01*
X96520000Y-66408560D01*
X94488000Y-66408560D01*
X94252683Y-66452838D01*
X94036559Y-66591910D01*
X93925160Y-66754948D01*
X93828818Y-66665615D01*
X93346944Y-66466025D01*
X93091000Y-66585164D01*
X92837000Y-66585164D01*
X92581056Y-66466025D01*
X92099182Y-66665615D01*
X91626812Y-67103621D01*
X91358017Y-67689054D01*
X88340000Y-67689054D01*
X88340000Y-65480000D01*
X101557361Y-65480000D01*
X100986955Y-66049411D01*
X100986955Y-66049411D01*
G37*
X100986955Y-66049411D02*
X100647887Y-66865978D01*
X100647115Y-67750143D01*
X100984758Y-68567300D01*
X101609411Y-69193045D01*
X101662285Y-69215000D01*
X100296000Y-69215000D01*
X99955794Y-69282671D01*
X99667382Y-69475382D01*
X98771382Y-70371382D01*
X98578671Y-70659794D01*
X98511000Y-71000000D01*
X98511000Y-76300942D01*
X98466005Y-76319534D01*
X98001166Y-76783563D01*
X97749287Y-77390155D01*
X97748714Y-78046963D01*
X97999534Y-78653995D01*
X98463563Y-79118834D01*
X99070155Y-79370713D01*
X99726963Y-79371286D01*
X100333995Y-79120466D01*
X100798834Y-78656437D01*
X101050713Y-78049845D01*
X101051286Y-77393037D01*
X100961499Y-77175734D01*
X111903871Y-77175734D01*
X111921463Y-77374715D01*
X112292628Y-77491260D01*
X112680139Y-77456894D01*
X112878537Y-77374715D01*
X112896129Y-77175734D01*
X112400000Y-76679605D01*
X111903871Y-77175734D01*
X100961499Y-77175734D01*
X100800466Y-76786005D01*
X100336437Y-76321166D01*
X100289000Y-76301468D01*
X100289000Y-76272663D01*
X102532443Y-76272663D01*
X102631042Y-76539465D01*
X103240582Y-76765901D01*
X103890377Y-76741841D01*
X104378958Y-76539465D01*
X104433222Y-76392628D01*
X111408740Y-76392628D01*
X111443106Y-76780139D01*
X111525285Y-76978537D01*
X111724266Y-76996129D01*
X112220395Y-76500000D01*
X112579605Y-76500000D01*
X113075734Y-76996129D01*
X113274715Y-76978537D01*
X113391260Y-76607372D01*
X113356894Y-76219861D01*
X113274715Y-76021463D01*
X113075734Y-76003871D01*
X112579605Y-76500000D01*
X112220395Y-76500000D01*
X111724266Y-76003871D01*
X111525285Y-76021463D01*
X111408740Y-76392628D01*
X104433222Y-76392628D01*
X104477557Y-76272663D01*
X103505000Y-75300105D01*
X102532443Y-76272663D01*
X100289000Y-76272663D01*
X100289000Y-74856082D01*
X101859599Y-74856082D01*
X101883659Y-75505877D01*
X102086035Y-75994458D01*
X102352837Y-76093057D01*
X103325395Y-75120500D01*
X103684605Y-75120500D01*
X104657163Y-76093057D01*
X104923965Y-75994458D01*
X104987189Y-75824266D01*
X111903871Y-75824266D01*
X112400000Y-76320395D01*
X112896129Y-75824266D01*
X112878537Y-75625285D01*
X112507372Y-75508740D01*
X112119861Y-75543106D01*
X111921463Y-75625285D01*
X111903871Y-75824266D01*
X104987189Y-75824266D01*
X105150401Y-75384918D01*
X105137048Y-75024266D01*
X128003871Y-75024266D01*
X128500000Y-75520395D01*
X128996129Y-75024266D01*
X128978537Y-74825285D01*
X128607372Y-74708740D01*
X128219861Y-74743106D01*
X128021463Y-74825285D01*
X128003871Y-75024266D01*
X105137048Y-75024266D01*
X105126341Y-74735123D01*
X104923965Y-74246542D01*
X104657163Y-74147943D01*
X103684605Y-75120500D01*
X103325395Y-75120500D01*
X102352837Y-74147943D01*
X102086035Y-74246542D01*
X101859599Y-74856082D01*
X100289000Y-74856082D01*
X100289000Y-73968337D01*
X102532443Y-73968337D01*
X103505000Y-74940895D01*
X104477557Y-73968337D01*
X104378958Y-73701535D01*
X103769418Y-73475099D01*
X103119623Y-73499159D01*
X102631042Y-73701535D01*
X102532443Y-73968337D01*
X100289000Y-73968337D01*
X100289000Y-71368236D01*
X100664236Y-70993000D01*
X142748000Y-70993000D01*
X143088206Y-70925329D01*
X143376618Y-70732618D01*
X144138618Y-69970618D01*
X144331329Y-69682206D01*
X144399000Y-69342000D01*
X144399000Y-68909184D01*
X144497828Y-68843149D01*
X144780000Y-68420850D01*
X145062172Y-68843149D01*
X145161000Y-68909184D01*
X145161000Y-70751764D01*
X144411764Y-71501000D01*
X139700000Y-71501000D01*
X139359795Y-71568670D01*
X139071382Y-71761382D01*
X129108264Y-81724500D01*
X127151953Y-81724500D01*
X127037915Y-81553830D01*
X127023587Y-81544257D01*
X127044817Y-81540262D01*
X127260941Y-81401190D01*
X127405931Y-81188990D01*
X127456940Y-80937100D01*
X127456940Y-79209900D01*
X127412662Y-78974583D01*
X127273590Y-78758459D01*
X127061390Y-78613469D01*
X126809500Y-78562460D01*
X124777500Y-78562460D01*
X124542183Y-78606738D01*
X124502160Y-78632492D01*
X124827916Y-77847985D01*
X124828683Y-76968872D01*
X124583604Y-76375734D01*
X128003871Y-76375734D01*
X128021463Y-76574715D01*
X128392628Y-76691260D01*
X128780139Y-76656894D01*
X128978537Y-76574715D01*
X128996129Y-76375734D01*
X128500000Y-75879605D01*
X128003871Y-76375734D01*
X124583604Y-76375734D01*
X124492970Y-76156384D01*
X123930198Y-75592628D01*
X127508740Y-75592628D01*
X127543106Y-75980139D01*
X127625285Y-76178537D01*
X127824266Y-76196129D01*
X128320395Y-75700000D01*
X128679605Y-75700000D01*
X129175734Y-76196129D01*
X129374715Y-76178537D01*
X129491260Y-75807372D01*
X129456894Y-75419861D01*
X129374715Y-75221463D01*
X129175734Y-75203871D01*
X128679605Y-75700000D01*
X128320395Y-75700000D01*
X127824266Y-75203871D01*
X127625285Y-75221463D01*
X127508740Y-75592628D01*
X123930198Y-75592628D01*
X123871886Y-75534215D01*
X123059985Y-75197084D01*
X122180872Y-75196317D01*
X121368384Y-75532030D01*
X120746215Y-76153114D01*
X120409084Y-76965015D01*
X120408317Y-77844128D01*
X120744030Y-78656616D01*
X121365114Y-79278785D01*
X122177015Y-79615916D01*
X123056128Y-79616683D01*
X123868616Y-79280970D01*
X124178264Y-78971862D01*
X124130060Y-79209900D01*
X124130060Y-80937100D01*
X124174338Y-81172417D01*
X124313410Y-81388541D01*
X124525610Y-81533531D01*
X124566939Y-81541900D01*
X124549085Y-81553830D01*
X124224229Y-82040011D01*
X124110155Y-82613500D01*
X124224229Y-83186989D01*
X124549085Y-83673170D01*
X124863866Y-83883500D01*
X124549085Y-84093830D01*
X124224229Y-84580011D01*
X124110155Y-85153500D01*
X124224229Y-85726989D01*
X124549085Y-86213170D01*
X124863866Y-86423500D01*
X124549085Y-86633830D01*
X124224229Y-87120011D01*
X124110155Y-87693500D01*
X124224229Y-88266989D01*
X124549085Y-88753170D01*
X124863866Y-88963500D01*
X124549085Y-89173830D01*
X124224229Y-89660011D01*
X124110155Y-90233500D01*
X124224229Y-90806989D01*
X124549085Y-91293170D01*
X124863866Y-91503500D01*
X124549085Y-91713830D01*
X124519906Y-91757500D01*
X124182341Y-91757500D01*
X122384420Y-89959580D01*
X122054807Y-89739338D01*
X121990300Y-89726507D01*
X121666000Y-89662000D01*
X113284000Y-89662000D01*
X113093294Y-89699934D01*
X113090337Y-89699931D01*
X113087580Y-89701070D01*
X112895194Y-89739338D01*
X112820870Y-89789000D01*
X108331000Y-89789000D01*
X107990794Y-89856671D01*
X107836780Y-89959580D01*
X107702382Y-90049382D01*
X105371382Y-92380382D01*
X105178671Y-92668794D01*
X105111000Y-93009000D01*
X105111000Y-93448235D01*
X105018965Y-93226042D01*
X104752163Y-93127443D01*
X103779605Y-94100000D01*
X104752163Y-95072557D01*
X105018965Y-94973958D01*
X105111000Y-94726210D01*
X105111000Y-96231764D01*
X104031764Y-97311000D01*
X99285000Y-97311000D01*
X98944794Y-97378671D01*
X98656382Y-97571382D01*
X95510382Y-100717382D01*
X95317671Y-101005794D01*
X95286818Y-101160902D01*
X95061314Y-101254078D01*
X94524961Y-101789495D01*
X94234332Y-102489410D01*
X94233670Y-103247265D01*
X94523078Y-103947686D01*
X95058495Y-104484039D01*
X95758410Y-104774668D01*
X96516265Y-104775330D01*
X97216686Y-104485922D01*
X97753039Y-103950505D01*
X98043668Y-103250590D01*
X98044330Y-102492735D01*
X97754922Y-101792314D01*
X97352774Y-101389462D01*
X99653236Y-99089000D01*
X104400000Y-99089000D01*
X104740206Y-99021329D01*
X105028618Y-98828618D01*
X106628618Y-97228618D01*
X106821329Y-96940206D01*
X106889000Y-96600000D01*
X106889000Y-94862128D01*
X107454317Y-94862128D01*
X107790030Y-95674616D01*
X108411114Y-96296785D01*
X109223015Y-96633916D01*
X110102128Y-96634683D01*
X110728832Y-96375734D01*
X113403871Y-96375734D01*
X113421463Y-96574715D01*
X113792628Y-96691260D01*
X114180139Y-96656894D01*
X114378537Y-96574715D01*
X114396129Y-96375734D01*
X113900000Y-95879605D01*
X113403871Y-96375734D01*
X110728832Y-96375734D01*
X110914616Y-96298970D01*
X111536785Y-95677886D01*
X111572187Y-95592628D01*
X112908740Y-95592628D01*
X112943106Y-95980139D01*
X113025285Y-96178537D01*
X113224266Y-96196129D01*
X113720395Y-95700000D01*
X114079605Y-95700000D01*
X114575734Y-96196129D01*
X114774715Y-96178537D01*
X114891260Y-95807372D01*
X114879302Y-95672526D01*
X124186142Y-95672526D01*
X124188791Y-95688291D01*
X124442768Y-96215536D01*
X124879180Y-96605454D01*
X125431587Y-96798684D01*
X125666500Y-96654424D01*
X125666500Y-95440500D01*
X125920500Y-95440500D01*
X125920500Y-96654424D01*
X126155413Y-96798684D01*
X126707820Y-96605454D01*
X127144232Y-96215536D01*
X127398209Y-95688291D01*
X127400858Y-95672526D01*
X127279717Y-95440500D01*
X125920500Y-95440500D01*
X125666500Y-95440500D01*
X124307283Y-95440500D01*
X124186142Y-95672526D01*
X114879302Y-95672526D01*
X114856894Y-95419861D01*
X114774715Y-95221463D01*
X114575734Y-95203871D01*
X114079605Y-95700000D01*
X113720395Y-95700000D01*
X113224266Y-95203871D01*
X113025285Y-95221463D01*
X112908740Y-95592628D01*
X111572187Y-95592628D01*
X111808191Y-95024266D01*
X113403871Y-95024266D01*
X113900000Y-95520395D01*
X114396129Y-95024266D01*
X114378537Y-94825285D01*
X114007372Y-94708740D01*
X113619861Y-94743106D01*
X113421463Y-94825285D01*
X113403871Y-95024266D01*
X111808191Y-95024266D01*
X111873916Y-94865985D01*
X111874683Y-93986872D01*
X111538970Y-93174384D01*
X110917886Y-92552215D01*
X110105985Y-92215084D01*
X109226872Y-92214317D01*
X108414384Y-92550030D01*
X107792215Y-93171114D01*
X107455084Y-93983015D01*
X107454317Y-94862128D01*
X106889000Y-94862128D01*
X106889000Y-93377236D01*
X108699236Y-91567000D01*
X112820870Y-91567000D01*
X112895194Y-91616662D01*
X113085896Y-91654595D01*
X113088630Y-91655730D01*
X113091616Y-91655733D01*
X113284000Y-91694000D01*
X121245160Y-91694000D01*
X123043080Y-93491921D01*
X123372693Y-93712162D01*
X123761500Y-93789500D01*
X124519906Y-93789500D01*
X124549085Y-93833170D01*
X124858569Y-94039961D01*
X124442768Y-94411464D01*
X124188791Y-94938709D01*
X124186142Y-94954474D01*
X124307283Y-95186500D01*
X125666500Y-95186500D01*
X125666500Y-95166500D01*
X125920500Y-95166500D01*
X125920500Y-95186500D01*
X127279717Y-95186500D01*
X127400858Y-94954474D01*
X127398209Y-94938709D01*
X127144232Y-94411464D01*
X126728431Y-94039961D01*
X127037915Y-93833170D01*
X127362771Y-93346989D01*
X127476845Y-92773500D01*
X127362771Y-92200011D01*
X127271755Y-92063796D01*
X130936011Y-92063796D01*
X131804234Y-94165058D01*
X133410486Y-95774116D01*
X135510229Y-96646005D01*
X137783796Y-96647989D01*
X139885058Y-95779766D01*
X141494116Y-94173514D01*
X142157571Y-92575734D01*
X145703871Y-92575734D01*
X145721463Y-92774715D01*
X146092628Y-92891260D01*
X146480139Y-92856894D01*
X146678537Y-92774715D01*
X146696129Y-92575734D01*
X153703871Y-92575734D01*
X153721463Y-92774715D01*
X154092628Y-92891260D01*
X154480139Y-92856894D01*
X154678537Y-92774715D01*
X154696129Y-92575734D01*
X154200000Y-92079605D01*
X153703871Y-92575734D01*
X146696129Y-92575734D01*
X146200000Y-92079605D01*
X145703871Y-92575734D01*
X142157571Y-92575734D01*
X142366005Y-92073771D01*
X142366250Y-91792628D01*
X145208740Y-91792628D01*
X145243106Y-92180139D01*
X145325285Y-92378537D01*
X145524266Y-92396129D01*
X146020395Y-91900000D01*
X146379605Y-91900000D01*
X146875734Y-92396129D01*
X147074715Y-92378537D01*
X147191260Y-92007372D01*
X147172216Y-91792628D01*
X153208740Y-91792628D01*
X153243106Y-92180139D01*
X153325285Y-92378537D01*
X153524266Y-92396129D01*
X154020395Y-91900000D01*
X154379605Y-91900000D01*
X154875734Y-92396129D01*
X155074715Y-92378537D01*
X155191260Y-92007372D01*
X155156894Y-91619861D01*
X155074715Y-91421463D01*
X154875734Y-91403871D01*
X154379605Y-91900000D01*
X154020395Y-91900000D01*
X153524266Y-91403871D01*
X153325285Y-91421463D01*
X153208740Y-91792628D01*
X147172216Y-91792628D01*
X147156894Y-91619861D01*
X147074715Y-91421463D01*
X146875734Y-91403871D01*
X146379605Y-91900000D01*
X146020395Y-91900000D01*
X145524266Y-91403871D01*
X145325285Y-91421463D01*
X145208740Y-91792628D01*
X142366250Y-91792628D01*
X142366746Y-91224266D01*
X145703871Y-91224266D01*
X146200000Y-91720395D01*
X146696129Y-91224266D01*
X153703871Y-91224266D01*
X154200000Y-91720395D01*
X154696129Y-91224266D01*
X154678537Y-91025285D01*
X154307372Y-90908740D01*
X153919861Y-90943106D01*
X153721463Y-91025285D01*
X153703871Y-91224266D01*
X146696129Y-91224266D01*
X146678537Y-91025285D01*
X146307372Y-90908740D01*
X145919861Y-90943106D01*
X145721463Y-91025285D01*
X145703871Y-91224266D01*
X142366746Y-91224266D01*
X142367989Y-89800204D01*
X141499766Y-87698942D01*
X139893514Y-86089884D01*
X137793771Y-85217995D01*
X135520204Y-85216011D01*
X133418942Y-86084234D01*
X131809884Y-87690486D01*
X130937995Y-89790229D01*
X130936011Y-92063796D01*
X127271755Y-92063796D01*
X127037915Y-91713830D01*
X126723134Y-91503500D01*
X127037915Y-91293170D01*
X127362771Y-90806989D01*
X127476845Y-90233500D01*
X127362771Y-89660011D01*
X127037915Y-89173830D01*
X126723134Y-88963500D01*
X127037915Y-88753170D01*
X127362771Y-88266989D01*
X127476845Y-87693500D01*
X127362771Y-87120011D01*
X127037915Y-86633830D01*
X126723134Y-86423500D01*
X127037915Y-86213170D01*
X127362771Y-85726989D01*
X127476845Y-85153500D01*
X127362771Y-84580011D01*
X127037915Y-84093830D01*
X126723134Y-83883500D01*
X127037915Y-83673170D01*
X127151953Y-83502500D01*
X129476500Y-83502500D01*
X129816706Y-83434829D01*
X130105118Y-83242118D01*
X130671502Y-82675734D01*
X133903871Y-82675734D01*
X133921463Y-82874715D01*
X134292628Y-82991260D01*
X134680139Y-82956894D01*
X134878537Y-82874715D01*
X134896129Y-82675734D01*
X134400000Y-82179605D01*
X133903871Y-82675734D01*
X130671502Y-82675734D01*
X131454608Y-81892628D01*
X133408740Y-81892628D01*
X133443106Y-82280139D01*
X133525285Y-82478537D01*
X133724266Y-82496129D01*
X134220395Y-82000000D01*
X134579605Y-82000000D01*
X135075734Y-82496129D01*
X135274715Y-82478537D01*
X135391260Y-82107372D01*
X135356894Y-81719861D01*
X135274715Y-81521463D01*
X135075734Y-81503871D01*
X134579605Y-82000000D01*
X134220395Y-82000000D01*
X133724266Y-81503871D01*
X133525285Y-81521463D01*
X133408740Y-81892628D01*
X131454608Y-81892628D01*
X132022970Y-81324266D01*
X133903871Y-81324266D01*
X134400000Y-81820395D01*
X134896129Y-81324266D01*
X134878537Y-81125285D01*
X134507372Y-81008740D01*
X134119861Y-81043106D01*
X133921463Y-81125285D01*
X133903871Y-81324266D01*
X132022970Y-81324266D01*
X132967440Y-80379796D01*
X139572011Y-80379796D01*
X140440234Y-82481058D01*
X142046486Y-84090116D01*
X144146229Y-84962005D01*
X146419796Y-84963989D01*
X148521058Y-84095766D01*
X149628612Y-82990143D01*
X151447115Y-82990143D01*
X151784758Y-83807300D01*
X152409411Y-84433045D01*
X153225978Y-84772113D01*
X154110143Y-84772885D01*
X154927300Y-84435242D01*
X155553045Y-83810589D01*
X155892113Y-82994022D01*
X155892885Y-82109857D01*
X155555242Y-81292700D01*
X154930589Y-80666955D01*
X154114022Y-80327887D01*
X153229857Y-80327115D01*
X152412700Y-80664758D01*
X151786955Y-81289411D01*
X151447887Y-82105978D01*
X151447115Y-82990143D01*
X149628612Y-82990143D01*
X150130116Y-82489514D01*
X151002005Y-80389771D01*
X151003989Y-78116204D01*
X150135766Y-76014942D01*
X148529514Y-74405884D01*
X146429771Y-73533995D01*
X144156204Y-73532011D01*
X142054942Y-74400234D01*
X140445884Y-76006486D01*
X139573995Y-78106229D01*
X139572011Y-80379796D01*
X132967440Y-80379796D01*
X140068236Y-73279000D01*
X144780000Y-73279000D01*
X145120206Y-73211329D01*
X145408618Y-73018618D01*
X145851502Y-72575734D01*
X149003871Y-72575734D01*
X149021463Y-72774715D01*
X149392628Y-72891260D01*
X149780139Y-72856894D01*
X149978537Y-72774715D01*
X149996129Y-72575734D01*
X149500000Y-72079605D01*
X149003871Y-72575734D01*
X145851502Y-72575734D01*
X146634608Y-71792628D01*
X148508740Y-71792628D01*
X148543106Y-72180139D01*
X148625285Y-72378537D01*
X148824266Y-72396129D01*
X149320395Y-71900000D01*
X149679605Y-71900000D01*
X150175734Y-72396129D01*
X150374715Y-72378537D01*
X150491260Y-72007372D01*
X150456894Y-71619861D01*
X150374715Y-71421463D01*
X150175734Y-71403871D01*
X149679605Y-71900000D01*
X149320395Y-71900000D01*
X148824266Y-71403871D01*
X148625285Y-71421463D01*
X148508740Y-71792628D01*
X146634608Y-71792628D01*
X146678618Y-71748618D01*
X146697476Y-71720395D01*
X146871329Y-71460206D01*
X146918260Y-71224266D01*
X149003871Y-71224266D01*
X149500000Y-71720395D01*
X149996129Y-71224266D01*
X149978537Y-71025285D01*
X149607372Y-70908740D01*
X149219861Y-70943106D01*
X149021463Y-71025285D01*
X149003871Y-71224266D01*
X146918260Y-71224266D01*
X146939000Y-71120000D01*
X146939000Y-68909184D01*
X147037828Y-68843149D01*
X147320000Y-68420850D01*
X147602172Y-68843149D01*
X148055391Y-69145981D01*
X148590000Y-69252321D01*
X149124609Y-69145981D01*
X149577828Y-68843149D01*
X149860000Y-68420850D01*
X150142172Y-68843149D01*
X150595391Y-69145981D01*
X151130000Y-69252321D01*
X151664609Y-69145981D01*
X152117828Y-68843149D01*
X152420660Y-68389930D01*
X152527000Y-67855321D01*
X152527000Y-66764679D01*
X152420660Y-66230070D01*
X152117828Y-65776851D01*
X151673560Y-65480000D01*
X152105908Y-65480000D01*
X152960000Y-66334092D01*
X152960000Y-77470000D01*
X153014046Y-77741705D01*
X153167954Y-77972046D01*
X158040000Y-82844092D01*
X158040000Y-110195908D01*
X153167954Y-115067954D01*
X153014046Y-115298295D01*
X152960000Y-115570000D01*
X152960000Y-117400000D01*
X151673560Y-117400000D01*
X152117828Y-117103149D01*
X152420660Y-116649930D01*
X152527000Y-116115321D01*
X152527000Y-115024679D01*
X152420660Y-114490070D01*
X152117828Y-114036851D01*
X152019000Y-113970816D01*
X152019000Y-113792000D01*
X151951329Y-113451794D01*
X151758618Y-113163382D01*
X150488618Y-111893382D01*
X150407472Y-111839162D01*
X150200206Y-111700671D01*
X149860000Y-111633000D01*
X97650236Y-111633000D01*
X96577547Y-110560311D01*
X96580724Y-110552659D01*
X96581275Y-109922107D01*
X96340481Y-109339343D01*
X95895003Y-108893086D01*
X95497432Y-108728000D01*
X98478560Y-108728000D01*
X98478560Y-110728000D01*
X98522838Y-110963317D01*
X98661910Y-111179441D01*
X98874110Y-111324431D01*
X99126000Y-111375440D01*
X101026000Y-111375440D01*
X101261317Y-111331162D01*
X101477441Y-111192090D01*
X101622431Y-110979890D01*
X101623055Y-110976808D01*
X101716997Y-111070914D01*
X102299341Y-111312724D01*
X102929893Y-111313275D01*
X103512657Y-111072481D01*
X103655243Y-110930143D01*
X151447115Y-110930143D01*
X151784758Y-111747300D01*
X152409411Y-112373045D01*
X153225978Y-112712113D01*
X154110143Y-112712885D01*
X154927300Y-112375242D01*
X155553045Y-111750589D01*
X155892113Y-110934022D01*
X155892885Y-110049857D01*
X155555242Y-109232700D01*
X154930589Y-108606955D01*
X154114022Y-108267887D01*
X153229857Y-108267115D01*
X152412700Y-108604758D01*
X151786955Y-109229411D01*
X151447887Y-110045978D01*
X151447115Y-110930143D01*
X103655243Y-110930143D01*
X103958914Y-110627003D01*
X103963068Y-110617000D01*
X141068945Y-110617000D01*
X141282630Y-110705730D01*
X141671663Y-110706069D01*
X142031212Y-110557507D01*
X142306540Y-110282659D01*
X142455730Y-109923370D01*
X142456069Y-109534337D01*
X142307507Y-109174788D01*
X142032659Y-108899460D01*
X141673370Y-108750270D01*
X141284337Y-108749931D01*
X141068773Y-108839000D01*
X103963645Y-108839000D01*
X103960481Y-108831343D01*
X103515003Y-108385086D01*
X102932659Y-108143276D01*
X102917973Y-108143263D01*
X103147278Y-107913958D01*
X124865647Y-107913958D01*
X124945920Y-108165259D01*
X125501279Y-108366718D01*
X126091458Y-108340315D01*
X126514080Y-108165259D01*
X126594353Y-107913958D01*
X125730000Y-107049605D01*
X124865647Y-107913958D01*
X103147278Y-107913958D01*
X104254236Y-106807000D01*
X109443568Y-106807000D01*
X109484538Y-106906155D01*
X109943927Y-107366346D01*
X110544453Y-107615706D01*
X111194694Y-107616274D01*
X111795655Y-107367962D01*
X112030363Y-107133663D01*
X117518443Y-107133663D01*
X117617042Y-107400465D01*
X118226582Y-107626901D01*
X118876377Y-107602841D01*
X119364958Y-107400465D01*
X119463557Y-107133663D01*
X118491000Y-106161105D01*
X117518443Y-107133663D01*
X112030363Y-107133663D01*
X112255846Y-106908573D01*
X112505206Y-106308047D01*
X112505722Y-105717082D01*
X116845599Y-105717082D01*
X116869659Y-106366877D01*
X117072035Y-106855458D01*
X117338837Y-106954057D01*
X118311395Y-105981500D01*
X118670605Y-105981500D01*
X119643163Y-106954057D01*
X119909965Y-106855458D01*
X119989529Y-106641279D01*
X124233282Y-106641279D01*
X124259685Y-107231458D01*
X124434741Y-107654080D01*
X124686042Y-107734353D01*
X125550395Y-106870000D01*
X125909605Y-106870000D01*
X126773958Y-107734353D01*
X127025259Y-107654080D01*
X127203005Y-107164089D01*
X130244743Y-107164089D01*
X130470344Y-107710086D01*
X130887717Y-108128188D01*
X131433319Y-108354742D01*
X132024089Y-108355257D01*
X132570086Y-108129656D01*
X132988188Y-107712283D01*
X133214742Y-107166681D01*
X133215257Y-106575911D01*
X133132546Y-106375734D01*
X134803871Y-106375734D01*
X134821463Y-106574715D01*
X135192628Y-106691260D01*
X135580139Y-106656894D01*
X135778537Y-106574715D01*
X135796129Y-106375734D01*
X135300000Y-105879605D01*
X134803871Y-106375734D01*
X133132546Y-106375734D01*
X132989656Y-106029914D01*
X132572283Y-105611812D01*
X132526083Y-105592628D01*
X134308740Y-105592628D01*
X134343106Y-105980139D01*
X134425285Y-106178537D01*
X134624266Y-106196129D01*
X135120395Y-105700000D01*
X135479605Y-105700000D01*
X135975734Y-106196129D01*
X136174715Y-106178537D01*
X136291260Y-105807372D01*
X136256894Y-105419861D01*
X136174715Y-105221463D01*
X135975734Y-105203871D01*
X135479605Y-105700000D01*
X135120395Y-105700000D01*
X134624266Y-105203871D01*
X134425285Y-105221463D01*
X134308740Y-105592628D01*
X132526083Y-105592628D01*
X132026681Y-105385258D01*
X131435911Y-105384743D01*
X130889914Y-105610344D01*
X130471812Y-106027717D01*
X130245258Y-106573319D01*
X130244743Y-107164089D01*
X127203005Y-107164089D01*
X127226718Y-107098721D01*
X127200315Y-106508542D01*
X127025259Y-106085920D01*
X126773958Y-106005647D01*
X125909605Y-106870000D01*
X125550395Y-106870000D01*
X124686042Y-106005647D01*
X124434741Y-106085920D01*
X124233282Y-106641279D01*
X119989529Y-106641279D01*
X120136401Y-106245918D01*
X120120855Y-105826042D01*
X124865647Y-105826042D01*
X125730000Y-106690395D01*
X126594353Y-105826042D01*
X126514080Y-105574741D01*
X125958721Y-105373282D01*
X125368542Y-105399685D01*
X124945920Y-105574741D01*
X124865647Y-105826042D01*
X120120855Y-105826042D01*
X120112341Y-105596123D01*
X119909965Y-105107542D01*
X119684626Y-105024266D01*
X134803871Y-105024266D01*
X135300000Y-105520395D01*
X135796129Y-105024266D01*
X135778537Y-104825285D01*
X135407372Y-104708740D01*
X135019861Y-104743106D01*
X134821463Y-104825285D01*
X134803871Y-105024266D01*
X119684626Y-105024266D01*
X119643163Y-105008943D01*
X118670605Y-105981500D01*
X118311395Y-105981500D01*
X117338837Y-105008943D01*
X117072035Y-105107542D01*
X116845599Y-105717082D01*
X112505722Y-105717082D01*
X112505774Y-105657806D01*
X112257462Y-105056845D01*
X112030351Y-104829337D01*
X117518443Y-104829337D01*
X118491000Y-105801895D01*
X119463557Y-104829337D01*
X119364958Y-104562535D01*
X118755418Y-104336099D01*
X118105623Y-104360159D01*
X117617042Y-104562535D01*
X117518443Y-104829337D01*
X112030351Y-104829337D01*
X111798073Y-104596654D01*
X111197547Y-104347294D01*
X110547306Y-104346726D01*
X109946345Y-104595038D01*
X109511625Y-105029000D01*
X103886000Y-105029000D01*
X103545795Y-105096670D01*
X103257382Y-105289382D01*
X100466204Y-108080560D01*
X99126000Y-108080560D01*
X98890683Y-108124838D01*
X98674559Y-108263910D01*
X98529569Y-108476110D01*
X98478560Y-108728000D01*
X95497432Y-108728000D01*
X95312659Y-108651276D01*
X94682107Y-108650725D01*
X94099343Y-108891519D01*
X94001663Y-108989029D01*
X93870090Y-108784559D01*
X93657890Y-108639569D01*
X93406000Y-108588560D01*
X93345000Y-108588560D01*
X93345000Y-108572236D01*
X93840236Y-108077000D01*
X99822000Y-108077000D01*
X100162206Y-108009329D01*
X100450618Y-107816618D01*
X103991502Y-104275734D01*
X113903871Y-104275734D01*
X113921463Y-104474715D01*
X114292628Y-104591260D01*
X114680139Y-104556894D01*
X114878537Y-104474715D01*
X114896129Y-104275734D01*
X114400000Y-103779605D01*
X113903871Y-104275734D01*
X103991502Y-104275734D01*
X104774608Y-103492628D01*
X113408740Y-103492628D01*
X113443106Y-103880139D01*
X113525285Y-104078537D01*
X113724266Y-104096129D01*
X114220395Y-103600000D01*
X114579605Y-103600000D01*
X115075734Y-104096129D01*
X115274715Y-104078537D01*
X115391260Y-103707372D01*
X115356894Y-103319861D01*
X115292372Y-103164089D01*
X124244743Y-103164089D01*
X124470344Y-103710086D01*
X124887717Y-104128188D01*
X125433319Y-104354742D01*
X126024089Y-104355257D01*
X126570086Y-104129656D01*
X126988188Y-103712283D01*
X127214742Y-103166681D01*
X127214744Y-103164089D01*
X130244743Y-103164089D01*
X130470344Y-103710086D01*
X130887717Y-104128188D01*
X131433319Y-104354742D01*
X132024089Y-104355257D01*
X132076350Y-104333663D01*
X139991931Y-104333663D01*
X140080200Y-104547291D01*
X140080011Y-104763796D01*
X140948234Y-106865058D01*
X142554486Y-108474116D01*
X144654229Y-109346005D01*
X146927796Y-109347989D01*
X149029058Y-108479766D01*
X150638116Y-106873514D01*
X151177000Y-105575734D01*
X153703871Y-105575734D01*
X153721463Y-105774715D01*
X154092628Y-105891260D01*
X154480139Y-105856894D01*
X154678537Y-105774715D01*
X154696129Y-105575734D01*
X154200000Y-105079605D01*
X153703871Y-105575734D01*
X151177000Y-105575734D01*
X151502174Y-104792628D01*
X153208740Y-104792628D01*
X153243106Y-105180139D01*
X153325285Y-105378537D01*
X153524266Y-105396129D01*
X154020395Y-104900000D01*
X154379605Y-104900000D01*
X154875734Y-105396129D01*
X155074715Y-105378537D01*
X155191260Y-105007372D01*
X155156894Y-104619861D01*
X155074715Y-104421463D01*
X154875734Y-104403871D01*
X154379605Y-104900000D01*
X154020395Y-104900000D01*
X153524266Y-104403871D01*
X153325285Y-104421463D01*
X153208740Y-104792628D01*
X151502174Y-104792628D01*
X151510005Y-104773771D01*
X151510484Y-104224266D01*
X153703871Y-104224266D01*
X154200000Y-104720395D01*
X154696129Y-104224266D01*
X154678537Y-104025285D01*
X154307372Y-103908740D01*
X153919861Y-103943106D01*
X153721463Y-104025285D01*
X153703871Y-104224266D01*
X151510484Y-104224266D01*
X151511989Y-102500204D01*
X150643766Y-100398942D01*
X149037514Y-98789884D01*
X146937771Y-97917995D01*
X144664204Y-97916011D01*
X142562942Y-98784234D01*
X140953884Y-100390486D01*
X140081995Y-102490229D01*
X140080912Y-103731156D01*
X139992270Y-103944630D01*
X139991931Y-104333663D01*
X132076350Y-104333663D01*
X132570086Y-104129656D01*
X132988188Y-103712283D01*
X133214742Y-103166681D01*
X133215257Y-102575911D01*
X132989656Y-102029914D01*
X132572283Y-101611812D01*
X132026681Y-101385258D01*
X131435911Y-101384743D01*
X130889914Y-101610344D01*
X130471812Y-102027717D01*
X130245258Y-102573319D01*
X130244743Y-103164089D01*
X127214744Y-103164089D01*
X127215257Y-102575911D01*
X126989656Y-102029914D01*
X126572283Y-101611812D01*
X126026681Y-101385258D01*
X125435911Y-101384743D01*
X124889914Y-101610344D01*
X124471812Y-102027717D01*
X124245258Y-102573319D01*
X124244743Y-103164089D01*
X115292372Y-103164089D01*
X115274715Y-103121463D01*
X115075734Y-103103871D01*
X114579605Y-103600000D01*
X114220395Y-103600000D01*
X113724266Y-103103871D01*
X113525285Y-103121463D01*
X113408740Y-103492628D01*
X104774608Y-103492628D01*
X106032236Y-102235000D01*
X109469806Y-102235000D01*
X109484538Y-102270655D01*
X109943927Y-102730846D01*
X110544453Y-102980206D01*
X111194694Y-102980774D01*
X111331453Y-102924266D01*
X113903871Y-102924266D01*
X114400000Y-103420395D01*
X114896129Y-102924266D01*
X114878537Y-102725285D01*
X114507372Y-102608740D01*
X114119861Y-102643106D01*
X113921463Y-102725285D01*
X113903871Y-102924266D01*
X111331453Y-102924266D01*
X111795655Y-102732462D01*
X112030363Y-102498163D01*
X117518443Y-102498163D01*
X117617042Y-102764965D01*
X118226582Y-102991401D01*
X118876377Y-102967341D01*
X119364958Y-102764965D01*
X119463557Y-102498163D01*
X118491000Y-101525605D01*
X117518443Y-102498163D01*
X112030363Y-102498163D01*
X112255846Y-102273073D01*
X112505206Y-101672547D01*
X112505722Y-101081582D01*
X116845599Y-101081582D01*
X116869659Y-101731377D01*
X117072035Y-102219958D01*
X117338837Y-102318557D01*
X118311395Y-101346000D01*
X118670605Y-101346000D01*
X119643163Y-102318557D01*
X119909965Y-102219958D01*
X120136401Y-101610418D01*
X120112341Y-100960623D01*
X119909965Y-100472042D01*
X119643163Y-100373443D01*
X118670605Y-101346000D01*
X118311395Y-101346000D01*
X117338837Y-100373443D01*
X117072035Y-100472042D01*
X116845599Y-101081582D01*
X112505722Y-101081582D01*
X112505774Y-101022306D01*
X112257462Y-100421345D01*
X112030351Y-100193837D01*
X117518443Y-100193837D01*
X118491000Y-101166395D01*
X119463557Y-100193837D01*
X119364958Y-99927035D01*
X118755418Y-99700599D01*
X118105623Y-99724659D01*
X117617042Y-99927035D01*
X117518443Y-100193837D01*
X112030351Y-100193837D01*
X111798073Y-99961154D01*
X111197547Y-99711794D01*
X110547306Y-99711226D01*
X109946345Y-99959538D01*
X109486154Y-100418927D01*
X109470345Y-100457000D01*
X105664000Y-100457000D01*
X105323795Y-100524670D01*
X105035382Y-100717382D01*
X102742878Y-103009886D01*
X102743330Y-102492735D01*
X102453922Y-101792314D01*
X101918505Y-101255961D01*
X101218590Y-100965332D01*
X100460735Y-100964670D01*
X99760314Y-101254078D01*
X99223961Y-101789495D01*
X98933332Y-102489410D01*
X98932670Y-103247265D01*
X99222078Y-103947686D01*
X99757495Y-104484039D01*
X100457410Y-104774668D01*
X100977642Y-104775122D01*
X99453764Y-106299000D01*
X93472000Y-106299000D01*
X93131794Y-106366671D01*
X92862485Y-106546618D01*
X92843382Y-106559382D01*
X91827382Y-107575382D01*
X91634671Y-107863794D01*
X91567000Y-108204000D01*
X91567000Y-108588560D01*
X91506000Y-108588560D01*
X91270683Y-108632838D01*
X91054559Y-108771910D01*
X90909569Y-108984110D01*
X90858560Y-109236000D01*
X90858560Y-111236000D01*
X90902838Y-111471317D01*
X91041910Y-111687441D01*
X91254110Y-111832431D01*
X91506000Y-111883440D01*
X93406000Y-111883440D01*
X93641317Y-111839162D01*
X93857441Y-111700090D01*
X94002431Y-111487890D01*
X94003055Y-111484808D01*
X94096997Y-111578914D01*
X94679341Y-111820724D01*
X95309893Y-111821275D01*
X95319903Y-111817139D01*
X96653382Y-113150618D01*
X96941794Y-113343329D01*
X97282000Y-113411000D01*
X101005244Y-113411000D01*
X100342700Y-113684758D01*
X99716955Y-114309411D01*
X99377887Y-115125978D01*
X99377115Y-116010143D01*
X99714758Y-116827300D01*
X100286459Y-117400000D01*
X88340000Y-117400000D01*
X88340000Y-116475734D01*
X90203871Y-116475734D01*
X90221463Y-116674715D01*
X90592628Y-116791260D01*
X90980139Y-116756894D01*
X91178537Y-116674715D01*
X91196129Y-116475734D01*
X90700000Y-115979605D01*
X90203871Y-116475734D01*
X88340000Y-116475734D01*
X88340000Y-115692628D01*
X89708740Y-115692628D01*
X89743106Y-116080139D01*
X89825285Y-116278537D01*
X90024266Y-116296129D01*
X90520395Y-115800000D01*
X90879605Y-115800000D01*
X91375734Y-116296129D01*
X91574715Y-116278537D01*
X91691260Y-115907372D01*
X91656894Y-115519861D01*
X91574715Y-115321463D01*
X91375734Y-115303871D01*
X90879605Y-115800000D01*
X90520395Y-115800000D01*
X90024266Y-115303871D01*
X89825285Y-115321463D01*
X89708740Y-115692628D01*
X88340000Y-115692628D01*
X88340000Y-115124266D01*
X90203871Y-115124266D01*
X90700000Y-115620395D01*
X91196129Y-115124266D01*
X91178537Y-114925285D01*
X90807372Y-114808740D01*
X90419861Y-114843106D01*
X90221463Y-114925285D01*
X90203871Y-115124266D01*
X88340000Y-115124266D01*
X88340000Y-103247265D01*
X89534670Y-103247265D01*
X89824078Y-103947686D01*
X90359495Y-104484039D01*
X91059410Y-104774668D01*
X91817265Y-104775330D01*
X92517686Y-104485922D01*
X93054039Y-103950505D01*
X93344668Y-103250590D01*
X93345330Y-102492735D01*
X93055922Y-101792314D01*
X92520505Y-101255961D01*
X91820590Y-100965332D01*
X91062735Y-100964670D01*
X90362314Y-101254078D01*
X89825961Y-101789495D01*
X89535332Y-102489410D01*
X89534670Y-103247265D01*
X88340000Y-103247265D01*
X88340000Y-96775734D01*
X94403871Y-96775734D01*
X94421463Y-96974715D01*
X94792628Y-97091260D01*
X95180139Y-97056894D01*
X95378537Y-96974715D01*
X95396129Y-96775734D01*
X94900000Y-96279605D01*
X94403871Y-96775734D01*
X88340000Y-96775734D01*
X88340000Y-95992628D01*
X93908740Y-95992628D01*
X93943106Y-96380139D01*
X94025285Y-96578537D01*
X94224266Y-96596129D01*
X94720395Y-96100000D01*
X95079605Y-96100000D01*
X95575734Y-96596129D01*
X95774715Y-96578537D01*
X95891260Y-96207372D01*
X95856894Y-95819861D01*
X95774715Y-95621463D01*
X95575734Y-95603871D01*
X95079605Y-96100000D01*
X94720395Y-96100000D01*
X94224266Y-95603871D01*
X94025285Y-95621463D01*
X93908740Y-95992628D01*
X88340000Y-95992628D01*
X88340000Y-95424266D01*
X94403871Y-95424266D01*
X94900000Y-95920395D01*
X95396129Y-95424266D01*
X95380914Y-95252163D01*
X102627443Y-95252163D01*
X102726042Y-95518965D01*
X103335582Y-95745401D01*
X103985377Y-95721341D01*
X104473958Y-95518965D01*
X104572557Y-95252163D01*
X103600000Y-94279605D01*
X102627443Y-95252163D01*
X95380914Y-95252163D01*
X95378537Y-95225285D01*
X95007372Y-95108740D01*
X94619861Y-95143106D01*
X94421463Y-95225285D01*
X94403871Y-95424266D01*
X88340000Y-95424266D01*
X88340000Y-93835582D01*
X101954599Y-93835582D01*
X101978659Y-94485377D01*
X102181035Y-94973958D01*
X102447837Y-95072557D01*
X103420395Y-94100000D01*
X102447837Y-93127443D01*
X102181035Y-93226042D01*
X101954599Y-93835582D01*
X88340000Y-93835582D01*
X88340000Y-92947837D01*
X102627443Y-92947837D01*
X103600000Y-93920395D01*
X104572557Y-92947837D01*
X104473958Y-92681035D01*
X103864418Y-92454599D01*
X103214623Y-92478659D01*
X102726042Y-92681035D01*
X102627443Y-92947837D01*
X88340000Y-92947837D01*
X88340000Y-89044107D01*
X98415498Y-89044107D01*
X98516120Y-89312622D01*
X99131642Y-89541816D01*
X99788019Y-89518014D01*
X100283880Y-89312622D01*
X100384502Y-89044107D01*
X99400000Y-88059605D01*
X98415498Y-89044107D01*
X88340000Y-89044107D01*
X88340000Y-87975734D01*
X90603871Y-87975734D01*
X90621463Y-88174715D01*
X90992628Y-88291260D01*
X91380139Y-88256894D01*
X91578537Y-88174715D01*
X91596129Y-87975734D01*
X91100000Y-87479605D01*
X90603871Y-87975734D01*
X88340000Y-87975734D01*
X88340000Y-87192628D01*
X90108740Y-87192628D01*
X90143106Y-87580139D01*
X90225285Y-87778537D01*
X90424266Y-87796129D01*
X90920395Y-87300000D01*
X91279605Y-87300000D01*
X91775734Y-87796129D01*
X91974715Y-87778537D01*
X92027119Y-87611642D01*
X97738184Y-87611642D01*
X97761986Y-88268019D01*
X97967378Y-88763880D01*
X98235893Y-88864502D01*
X99220395Y-87880000D01*
X99579605Y-87880000D01*
X100564107Y-88864502D01*
X100832622Y-88763880D01*
X101061816Y-88148358D01*
X101038014Y-87491981D01*
X100832622Y-86996120D01*
X100564107Y-86895498D01*
X99579605Y-87880000D01*
X99220395Y-87880000D01*
X98235893Y-86895498D01*
X97967378Y-86996120D01*
X97738184Y-87611642D01*
X92027119Y-87611642D01*
X92091260Y-87407372D01*
X92056894Y-87019861D01*
X91974715Y-86821463D01*
X91775734Y-86803871D01*
X91279605Y-87300000D01*
X90920395Y-87300000D01*
X90424266Y-86803871D01*
X90225285Y-86821463D01*
X90108740Y-87192628D01*
X88340000Y-87192628D01*
X88340000Y-86624266D01*
X90603871Y-86624266D01*
X91100000Y-87120395D01*
X91504502Y-86715893D01*
X98415498Y-86715893D01*
X99400000Y-87700395D01*
X100296701Y-86803694D01*
X101965226Y-86803694D01*
X102213538Y-87404655D01*
X102672927Y-87864846D01*
X103273453Y-88114206D01*
X103923694Y-88114774D01*
X104524655Y-87866462D01*
X104984846Y-87407073D01*
X105234206Y-86806547D01*
X105234774Y-86156306D01*
X104986462Y-85555345D01*
X104906990Y-85475734D01*
X111203871Y-85475734D01*
X111221463Y-85674715D01*
X111592628Y-85791260D01*
X111980139Y-85756894D01*
X112178537Y-85674715D01*
X112196129Y-85475734D01*
X111700000Y-84979605D01*
X111203871Y-85475734D01*
X104906990Y-85475734D01*
X104527073Y-85095154D01*
X103926547Y-84845794D01*
X103276306Y-84845226D01*
X102675345Y-85093538D01*
X102215154Y-85552927D01*
X101965794Y-86153453D01*
X101965226Y-86803694D01*
X100296701Y-86803694D01*
X100384502Y-86715893D01*
X100283880Y-86447378D01*
X99668358Y-86218184D01*
X99011981Y-86241986D01*
X98516120Y-86447378D01*
X98415498Y-86715893D01*
X91504502Y-86715893D01*
X91596129Y-86624266D01*
X91578537Y-86425285D01*
X91207372Y-86308740D01*
X90819861Y-86343106D01*
X90621463Y-86425285D01*
X90603871Y-86624266D01*
X88340000Y-86624266D01*
X88340000Y-84692628D01*
X110708740Y-84692628D01*
X110743106Y-85080139D01*
X110825285Y-85278537D01*
X111024266Y-85296129D01*
X111520395Y-84800000D01*
X111879605Y-84800000D01*
X112375734Y-85296129D01*
X112574715Y-85278537D01*
X112638394Y-85075734D01*
X120703871Y-85075734D01*
X120721463Y-85274715D01*
X121092628Y-85391260D01*
X121480139Y-85356894D01*
X121678537Y-85274715D01*
X121696129Y-85075734D01*
X121200000Y-84579605D01*
X120703871Y-85075734D01*
X112638394Y-85075734D01*
X112691260Y-84907372D01*
X112656894Y-84519861D01*
X112574715Y-84321463D01*
X112375734Y-84303871D01*
X111879605Y-84800000D01*
X111520395Y-84800000D01*
X111024266Y-84303871D01*
X110825285Y-84321463D01*
X110708740Y-84692628D01*
X88340000Y-84692628D01*
X88340000Y-79375734D01*
X90603871Y-79375734D01*
X90621463Y-79574715D01*
X90992628Y-79691260D01*
X91380139Y-79656894D01*
X91578537Y-79574715D01*
X91596129Y-79375734D01*
X91100000Y-78879605D01*
X90603871Y-79375734D01*
X88340000Y-79375734D01*
X88340000Y-78592628D01*
X90108740Y-78592628D01*
X90143106Y-78980139D01*
X90225285Y-79178537D01*
X90424266Y-79196129D01*
X90920395Y-78700000D01*
X91279605Y-78700000D01*
X91775734Y-79196129D01*
X91974715Y-79178537D01*
X92091260Y-78807372D01*
X92056894Y-78419861D01*
X91974715Y-78221463D01*
X91775734Y-78203871D01*
X91279605Y-78700000D01*
X90920395Y-78700000D01*
X90424266Y-78203871D01*
X90225285Y-78221463D01*
X90108740Y-78592628D01*
X88340000Y-78592628D01*
X88340000Y-78024266D01*
X90603871Y-78024266D01*
X91100000Y-78520395D01*
X91596129Y-78024266D01*
X91578537Y-77825285D01*
X91207372Y-77708740D01*
X90819861Y-77743106D01*
X90621463Y-77825285D01*
X90603871Y-78024266D01*
X88340000Y-78024266D01*
X88340000Y-73475734D01*
X90603871Y-73475734D01*
X90621463Y-73674715D01*
X90992628Y-73791260D01*
X91380139Y-73756894D01*
X91578537Y-73674715D01*
X91596129Y-73475734D01*
X91100000Y-72979605D01*
X90603871Y-73475734D01*
X88340000Y-73475734D01*
X88340000Y-72692628D01*
X90108740Y-72692628D01*
X90143106Y-73080139D01*
X90225285Y-73278537D01*
X90424266Y-73296129D01*
X90920395Y-72800000D01*
X91279605Y-72800000D01*
X91775734Y-73296129D01*
X91974715Y-73278537D01*
X92091260Y-72907372D01*
X92056894Y-72519861D01*
X91974715Y-72321463D01*
X91775734Y-72303871D01*
X91279605Y-72800000D01*
X90920395Y-72800000D01*
X90424266Y-72303871D01*
X90225285Y-72321463D01*
X90108740Y-72692628D01*
X88340000Y-72692628D01*
X88340000Y-72124266D01*
X90603871Y-72124266D01*
X91100000Y-72620395D01*
X91596129Y-72124266D01*
X91578537Y-71925285D01*
X91207372Y-71808740D01*
X90819861Y-71843106D01*
X90621463Y-71925285D01*
X90603871Y-72124266D01*
X88340000Y-72124266D01*
X88340000Y-68454946D01*
X91358017Y-68454946D01*
X91626812Y-69040379D01*
X92099182Y-69478385D01*
X92581056Y-69677975D01*
X92837000Y-69558836D01*
X92837000Y-68199000D01*
X91476633Y-68199000D01*
X91358017Y-68454946D01*
X88340000Y-68454946D01*
X88340000Y-67689054D01*
X91358017Y-67689054D01*
X91476633Y-67945000D01*
X92837000Y-67945000D01*
X92837000Y-66585164D01*
X93091000Y-66585164D01*
X93091000Y-67945000D01*
X93111000Y-67945000D01*
X93111000Y-68199000D01*
X93091000Y-68199000D01*
X93091000Y-69558836D01*
X93346944Y-69677975D01*
X93828818Y-69478385D01*
X93926398Y-69387903D01*
X94023910Y-69539441D01*
X94236110Y-69684431D01*
X94488000Y-69735440D01*
X94615000Y-69735440D01*
X94615000Y-78904000D01*
X94682671Y-79244206D01*
X94851086Y-79496256D01*
X94875382Y-79532618D01*
X97767957Y-82425193D01*
X97749287Y-82470155D01*
X97748714Y-83126963D01*
X97999534Y-83733995D01*
X98463563Y-84198834D01*
X99070155Y-84450713D01*
X99726963Y-84451286D01*
X100333995Y-84200466D01*
X100798834Y-83736437D01*
X101050713Y-83129845D01*
X101050770Y-83064194D01*
X101870226Y-83064194D01*
X102118538Y-83665155D01*
X102577927Y-84125346D01*
X103178453Y-84374706D01*
X103828694Y-84375274D01*
X104429655Y-84126962D01*
X104432355Y-84124266D01*
X111203871Y-84124266D01*
X111700000Y-84620395D01*
X112027767Y-84292628D01*
X120208740Y-84292628D01*
X120243106Y-84680139D01*
X120325285Y-84878537D01*
X120524266Y-84896129D01*
X121020395Y-84400000D01*
X121379605Y-84400000D01*
X121875734Y-84896129D01*
X122074715Y-84878537D01*
X122191260Y-84507372D01*
X122156894Y-84119861D01*
X122074715Y-83921463D01*
X121875734Y-83903871D01*
X121379605Y-84400000D01*
X121020395Y-84400000D01*
X120524266Y-83903871D01*
X120325285Y-83921463D01*
X120208740Y-84292628D01*
X112027767Y-84292628D01*
X112196129Y-84124266D01*
X112178537Y-83925285D01*
X111807372Y-83808740D01*
X111419861Y-83843106D01*
X111221463Y-83925285D01*
X111203871Y-84124266D01*
X104432355Y-84124266D01*
X104833053Y-83724266D01*
X120703871Y-83724266D01*
X121200000Y-84220395D01*
X121696129Y-83724266D01*
X121678537Y-83525285D01*
X121307372Y-83408740D01*
X120919861Y-83443106D01*
X120721463Y-83525285D01*
X120703871Y-83724266D01*
X104833053Y-83724266D01*
X104889846Y-83667573D01*
X105139206Y-83067047D01*
X105139774Y-82416806D01*
X104891462Y-81815845D01*
X104432073Y-81355654D01*
X103831547Y-81106294D01*
X103181306Y-81105726D01*
X102580345Y-81354038D01*
X102120154Y-81813427D01*
X101870794Y-82413953D01*
X101870226Y-83064194D01*
X101050770Y-83064194D01*
X101051286Y-82473037D01*
X100800466Y-81866005D01*
X100336437Y-81401166D01*
X99729845Y-81149287D01*
X99073037Y-81148714D01*
X99025565Y-81168329D01*
X98832970Y-80975734D01*
X111603871Y-80975734D01*
X111621463Y-81174715D01*
X111992628Y-81291260D01*
X112380139Y-81256894D01*
X112578537Y-81174715D01*
X112596129Y-80975734D01*
X112100000Y-80479605D01*
X111603871Y-80975734D01*
X98832970Y-80975734D01*
X98049864Y-80192628D01*
X111108740Y-80192628D01*
X111143106Y-80580139D01*
X111225285Y-80778537D01*
X111424266Y-80796129D01*
X111920395Y-80300000D01*
X112279605Y-80300000D01*
X112775734Y-80796129D01*
X112974715Y-80778537D01*
X113091260Y-80407372D01*
X113056894Y-80019861D01*
X112974715Y-79821463D01*
X112775734Y-79803871D01*
X112279605Y-80300000D01*
X111920395Y-80300000D01*
X111424266Y-79803871D01*
X111225285Y-79821463D01*
X111108740Y-80192628D01*
X98049864Y-80192628D01*
X97481502Y-79624266D01*
X111603871Y-79624266D01*
X112100000Y-80120395D01*
X112596129Y-79624266D01*
X112578537Y-79425285D01*
X112207372Y-79308740D01*
X111819861Y-79343106D01*
X111621463Y-79425285D01*
X111603871Y-79624266D01*
X97481502Y-79624266D01*
X96393000Y-78535764D01*
X96393000Y-69735440D01*
X96520000Y-69735440D01*
X96755317Y-69691162D01*
X96971441Y-69552090D01*
X97116431Y-69339890D01*
X97167440Y-69088000D01*
X97167440Y-68575734D01*
X98903871Y-68575734D01*
X98921463Y-68774715D01*
X99292628Y-68891260D01*
X99680139Y-68856894D01*
X99878537Y-68774715D01*
X99896129Y-68575734D01*
X99400000Y-68079605D01*
X98903871Y-68575734D01*
X97167440Y-68575734D01*
X97167440Y-67792628D01*
X98408740Y-67792628D01*
X98443106Y-68180139D01*
X98525285Y-68378537D01*
X98724266Y-68396129D01*
X99220395Y-67900000D01*
X99579605Y-67900000D01*
X100075734Y-68396129D01*
X100274715Y-68378537D01*
X100391260Y-68007372D01*
X100356894Y-67619861D01*
X100274715Y-67421463D01*
X100075734Y-67403871D01*
X99579605Y-67900000D01*
X99220395Y-67900000D01*
X98724266Y-67403871D01*
X98525285Y-67421463D01*
X98408740Y-67792628D01*
X97167440Y-67792628D01*
X97167440Y-67224266D01*
X98903871Y-67224266D01*
X99400000Y-67720395D01*
X99896129Y-67224266D01*
X99878537Y-67025285D01*
X99507372Y-66908740D01*
X99119861Y-66943106D01*
X98921463Y-67025285D01*
X98903871Y-67224266D01*
X97167440Y-67224266D01*
X97167440Y-67056000D01*
X97123162Y-66820683D01*
X96984090Y-66604559D01*
X96771890Y-66459569D01*
X96520000Y-66408560D01*
X94488000Y-66408560D01*
X94252683Y-66452838D01*
X94036559Y-66591910D01*
X93925160Y-66754948D01*
X93828818Y-66665615D01*
X93346944Y-66466025D01*
X93091000Y-66585164D01*
X92837000Y-66585164D01*
X92581056Y-66466025D01*
X92099182Y-66665615D01*
X91626812Y-67103621D01*
X91358017Y-67689054D01*
X88340000Y-67689054D01*
X88340000Y-65480000D01*
X101557361Y-65480000D01*
X100986955Y-66049411D01*
G36*
X114173000Y-67183000D02*
X114193000Y-67183000D01*
X114193000Y-67437000D01*
X114173000Y-67437000D01*
X114173000Y-69049720D01*
X114389070Y-69172220D01*
X114463277Y-69157260D01*
X114944026Y-68895630D01*
X115288059Y-68469941D01*
X115306670Y-68406887D01*
X115598172Y-68843149D01*
X116051391Y-69145981D01*
X116398374Y-69215000D01*
X111693626Y-69215000D01*
X112040609Y-69145981D01*
X112493828Y-68843149D01*
X112785330Y-68406887D01*
X112803941Y-68469941D01*
X113147974Y-68895630D01*
X113628723Y-69157260D01*
X113702930Y-69172220D01*
X113919000Y-69049720D01*
X113919000Y-67437000D01*
X113899000Y-67437000D01*
X113899000Y-67183000D01*
X113919000Y-67183000D01*
X113919000Y-67163000D01*
X114173000Y-67163000D01*
X114173000Y-67183000D01*
X114173000Y-67183000D01*
G37*
X114173000Y-67183000D02*
X114193000Y-67183000D01*
X114193000Y-67437000D01*
X114173000Y-67437000D01*
X114173000Y-69049720D01*
X114389070Y-69172220D01*
X114463277Y-69157260D01*
X114944026Y-68895630D01*
X115288059Y-68469941D01*
X115306670Y-68406887D01*
X115598172Y-68843149D01*
X116051391Y-69145981D01*
X116398374Y-69215000D01*
X111693626Y-69215000D01*
X112040609Y-69145981D01*
X112493828Y-68843149D01*
X112785330Y-68406887D01*
X112803941Y-68469941D01*
X113147974Y-68895630D01*
X113628723Y-69157260D01*
X113702930Y-69172220D01*
X113919000Y-69049720D01*
X113919000Y-67437000D01*
X113899000Y-67437000D01*
X113899000Y-67183000D01*
X113919000Y-67183000D01*
X113919000Y-67163000D01*
X114173000Y-67163000D01*
X114173000Y-67183000D01*
M02*
