G04 #@! TF.FileFunction,Copper,L1,Top,Signal*
%FSLAX46Y46*%
G04 Gerber Fmt 4.6, Leading zero omitted, Abs format (unit mm)*
G04 Created by KiCad (PCBNEW 4.0.1-3.201512221402+6198~38~ubuntu14.04.1-stable) date Sat 30 Apr 2016 11:46:46 AM PDT*
%MOMM*%
G01*
G04 APERTURE LIST*
%ADD10C,0.100000*%
%ADD11C,1.700000*%
%ADD12C,10.160000*%
%ADD13R,2.032000X1.727200*%
%ADD14O,2.032000X1.727200*%
%ADD15R,1.900000X2.000000*%
%ADD16C,1.900000*%
%ADD17C,1.998980*%
%ADD18C,2.032000*%
%ADD19C,2.540000*%
%ADD20R,2.032000X2.032000*%
%ADD21O,2.032000X2.032000*%
%ADD22O,1.524000X2.540000*%
%ADD23C,0.685800*%
%ADD24C,0.508000*%
%ADD25C,0.330200*%
%ADD26C,0.254000*%
G04 APERTURE END LIST*
D10*
D11*
X132080000Y-107378000D03*
X126080000Y-107378000D03*
X132080000Y-103378000D03*
X126080000Y-103378000D03*
D12*
X145605500Y-103886000D03*
X145288000Y-78930500D03*
X138684000Y-91186000D03*
D13*
X127254000Y-80899000D03*
D14*
X127254000Y-83439000D03*
X127254000Y-85979000D03*
X127254000Y-88519000D03*
X127254000Y-91059000D03*
X127254000Y-93599000D03*
X127254000Y-96139000D03*
D15*
X92456000Y-110236000D03*
D16*
X94996000Y-110236000D03*
D15*
X105664000Y-109728000D03*
D16*
X108204000Y-109728000D03*
D17*
X110871000Y-101346000D03*
X118491000Y-101346000D03*
X110871000Y-105981500D03*
X118491000Y-105981500D03*
X103505000Y-82740500D03*
X103505000Y-75120500D03*
X103600000Y-86480000D03*
X103600000Y-94100000D03*
D18*
X99400000Y-77470000D03*
X99400000Y-82550000D03*
X99400000Y-87630000D03*
D19*
X100838000Y-102870000D03*
X96139000Y-102870000D03*
X91440000Y-102870000D03*
D20*
X95504000Y-68072000D03*
D21*
X92964000Y-68072000D03*
D22*
X151130000Y-115570000D03*
X148590000Y-115570000D03*
X146050000Y-115570000D03*
X138430000Y-115570000D03*
X140970000Y-115570000D03*
X143510000Y-115570000D03*
X133350000Y-115570000D03*
X130810000Y-115570000D03*
X128270000Y-115570000D03*
X123190000Y-115570000D03*
X120650000Y-115570000D03*
X151130000Y-67310000D03*
X148590000Y-67310000D03*
X146050000Y-67310000D03*
X143510000Y-67310000D03*
X140970000Y-67310000D03*
X138430000Y-67310000D03*
X135890000Y-67310000D03*
X133350000Y-67310000D03*
X129286000Y-67310000D03*
X126746000Y-67310000D03*
X124206000Y-67310000D03*
X121666000Y-67310000D03*
X119126000Y-67310000D03*
X116586000Y-67310000D03*
X114046000Y-67310000D03*
X111506000Y-67310000D03*
X125730000Y-115570000D03*
X108966000Y-67310000D03*
X106426000Y-67310000D03*
X118110000Y-115570000D03*
X115570000Y-115570000D03*
D23*
X113284000Y-90678000D03*
X141478000Y-109728000D03*
X140970000Y-104140000D03*
X144780000Y-74930000D03*
X134366000Y-89281000D03*
D24*
X127254000Y-83439000D02*
X120523000Y-83439000D01*
X120523000Y-83439000D02*
X113284000Y-90678000D01*
X96139000Y-102870000D02*
X96139000Y-101346000D01*
X96139000Y-101346000D02*
X99285000Y-98200000D01*
X99285000Y-98200000D02*
X104400000Y-98200000D01*
X104400000Y-98200000D02*
X106000000Y-96600000D01*
X106000000Y-96600000D02*
X106000000Y-93009000D01*
X106000000Y-93009000D02*
X108331000Y-90678000D01*
X108331000Y-90678000D02*
X112268000Y-90678000D01*
X112268000Y-90678000D02*
X113284000Y-90678000D01*
X92456000Y-110236000D02*
X92456000Y-108204000D01*
X105664000Y-101346000D02*
X110871000Y-101346000D01*
X99822000Y-107188000D02*
X105664000Y-101346000D01*
X93472000Y-107188000D02*
X99822000Y-107188000D01*
X92456000Y-108204000D02*
X93472000Y-107188000D01*
X110871000Y-105981500D02*
X107902500Y-105981500D01*
X107902500Y-105981500D02*
X105664000Y-108220000D01*
X105664000Y-108220000D02*
X105664000Y-109728000D01*
X110807500Y-105918000D02*
X110871000Y-105981500D01*
X141478000Y-109728000D02*
X108204000Y-109728000D01*
X95504000Y-68072000D02*
X95504000Y-78654000D01*
X95504000Y-78654000D02*
X99400000Y-82550000D01*
D25*
X140970000Y-104140000D02*
X141224000Y-103886000D01*
X141224000Y-103886000D02*
X145605500Y-103886000D01*
X144780000Y-74930000D02*
X145288000Y-75438000D01*
X145288000Y-75438000D02*
X145288000Y-78930500D01*
X138684000Y-91186000D02*
X136398000Y-91186000D01*
X136398000Y-91186000D02*
X134112000Y-88900000D01*
D24*
X127254000Y-93599000D02*
X128778000Y-93599000D01*
X128778000Y-93599000D02*
X129476500Y-92900500D01*
X129476500Y-92900500D02*
X129476500Y-82613500D01*
X129476500Y-82613500D02*
X139700000Y-72390000D01*
X139700000Y-72390000D02*
X144780000Y-72390000D01*
X144780000Y-72390000D02*
X146050000Y-71120000D01*
X146050000Y-71120000D02*
X146050000Y-67310000D01*
X99400000Y-71000000D02*
X99400000Y-77720000D01*
X100296000Y-70104000D02*
X99400000Y-71000000D01*
X142748000Y-70104000D02*
X100296000Y-70104000D01*
X143510000Y-69342000D02*
X143510000Y-67310000D01*
X142748000Y-70104000D02*
X143510000Y-69342000D01*
X149860000Y-112522000D02*
X97282000Y-112522000D01*
X97282000Y-112522000D02*
X94996000Y-110236000D01*
X151130000Y-115570000D02*
X151130000Y-113792000D01*
X151130000Y-113792000D02*
X149860000Y-112522000D01*
D26*
G36*
X150132336Y-114051572D02*
X149860000Y-114459150D01*
X149577828Y-114036851D01*
X149124609Y-113734019D01*
X148590000Y-113627679D01*
X148055391Y-113734019D01*
X147602172Y-114036851D01*
X147320000Y-114459150D01*
X147037828Y-114036851D01*
X146584609Y-113734019D01*
X146050000Y-113627679D01*
X145515391Y-113734019D01*
X145062172Y-114036851D01*
X144780000Y-114459150D01*
X144497828Y-114036851D01*
X144044609Y-113734019D01*
X143510000Y-113627679D01*
X142975391Y-113734019D01*
X142522172Y-114036851D01*
X142240000Y-114459150D01*
X141957828Y-114036851D01*
X141504609Y-113734019D01*
X140970000Y-113627679D01*
X140435391Y-113734019D01*
X139982172Y-114036851D01*
X139700000Y-114459150D01*
X139417828Y-114036851D01*
X138964609Y-113734019D01*
X138430000Y-113627679D01*
X137895391Y-113734019D01*
X137442172Y-114036851D01*
X137139340Y-114490070D01*
X137033000Y-115024679D01*
X137033000Y-116115321D01*
X137139340Y-116649930D01*
X137442172Y-117103149D01*
X137886440Y-117400000D01*
X133893560Y-117400000D01*
X134337828Y-117103149D01*
X134640660Y-116649930D01*
X134747000Y-116115321D01*
X134747000Y-115024679D01*
X134640660Y-114490070D01*
X134337828Y-114036851D01*
X133884609Y-113734019D01*
X133350000Y-113627679D01*
X132815391Y-113734019D01*
X132362172Y-114036851D01*
X132070670Y-114473113D01*
X132052059Y-114410059D01*
X131708026Y-113984370D01*
X131227277Y-113722740D01*
X131153070Y-113707780D01*
X130937000Y-113830280D01*
X130937000Y-115443000D01*
X130957000Y-115443000D01*
X130957000Y-115697000D01*
X130937000Y-115697000D01*
X130937000Y-115717000D01*
X130683000Y-115717000D01*
X130683000Y-115697000D01*
X128397000Y-115697000D01*
X128397000Y-115717000D01*
X128143000Y-115717000D01*
X128143000Y-115697000D01*
X128123000Y-115697000D01*
X128123000Y-115443000D01*
X128143000Y-115443000D01*
X128143000Y-113830280D01*
X128397000Y-113830280D01*
X128397000Y-115443000D01*
X130683000Y-115443000D01*
X130683000Y-113830280D01*
X130466930Y-113707780D01*
X130392723Y-113722740D01*
X129911974Y-113984370D01*
X129567941Y-114410059D01*
X129540000Y-114504723D01*
X129512059Y-114410059D01*
X129168026Y-113984370D01*
X128687277Y-113722740D01*
X128613070Y-113707780D01*
X128397000Y-113830280D01*
X128143000Y-113830280D01*
X127926930Y-113707780D01*
X127852723Y-113722740D01*
X127371974Y-113984370D01*
X127027941Y-114410059D01*
X127009330Y-114473113D01*
X126717828Y-114036851D01*
X126264609Y-113734019D01*
X125730000Y-113627679D01*
X125195391Y-113734019D01*
X124742172Y-114036851D01*
X124460000Y-114459150D01*
X124177828Y-114036851D01*
X123724609Y-113734019D01*
X123190000Y-113627679D01*
X122655391Y-113734019D01*
X122202172Y-114036851D01*
X121920000Y-114459150D01*
X121637828Y-114036851D01*
X121184609Y-113734019D01*
X120650000Y-113627679D01*
X120115391Y-113734019D01*
X119662172Y-114036851D01*
X119380000Y-114459150D01*
X119097828Y-114036851D01*
X118644609Y-113734019D01*
X118110000Y-113627679D01*
X117575391Y-113734019D01*
X117122172Y-114036851D01*
X116840000Y-114459150D01*
X116557828Y-114036851D01*
X116104609Y-113734019D01*
X115570000Y-113627679D01*
X115035391Y-113734019D01*
X114582172Y-114036851D01*
X114279340Y-114490070D01*
X114173000Y-115024679D01*
X114173000Y-116115321D01*
X114279340Y-116649930D01*
X114582172Y-117103149D01*
X115026440Y-117400000D01*
X102912639Y-117400000D01*
X103483045Y-116830589D01*
X103822113Y-116014022D01*
X103822885Y-115129857D01*
X103485242Y-114312700D01*
X102860589Y-113686955D01*
X102196015Y-113411000D01*
X149491764Y-113411000D01*
X150132336Y-114051572D01*
X150132336Y-114051572D01*
G37*
X150132336Y-114051572D02*
X149860000Y-114459150D01*
X149577828Y-114036851D01*
X149124609Y-113734019D01*
X148590000Y-113627679D01*
X148055391Y-113734019D01*
X147602172Y-114036851D01*
X147320000Y-114459150D01*
X147037828Y-114036851D01*
X146584609Y-113734019D01*
X146050000Y-113627679D01*
X145515391Y-113734019D01*
X145062172Y-114036851D01*
X144780000Y-114459150D01*
X144497828Y-114036851D01*
X144044609Y-113734019D01*
X143510000Y-113627679D01*
X142975391Y-113734019D01*
X142522172Y-114036851D01*
X142240000Y-114459150D01*
X141957828Y-114036851D01*
X141504609Y-113734019D01*
X140970000Y-113627679D01*
X140435391Y-113734019D01*
X139982172Y-114036851D01*
X139700000Y-114459150D01*
X139417828Y-114036851D01*
X138964609Y-113734019D01*
X138430000Y-113627679D01*
X137895391Y-113734019D01*
X137442172Y-114036851D01*
X137139340Y-114490070D01*
X137033000Y-115024679D01*
X137033000Y-116115321D01*
X137139340Y-116649930D01*
X137442172Y-117103149D01*
X137886440Y-117400000D01*
X133893560Y-117400000D01*
X134337828Y-117103149D01*
X134640660Y-116649930D01*
X134747000Y-116115321D01*
X134747000Y-115024679D01*
X134640660Y-114490070D01*
X134337828Y-114036851D01*
X133884609Y-113734019D01*
X133350000Y-113627679D01*
X132815391Y-113734019D01*
X132362172Y-114036851D01*
X132070670Y-114473113D01*
X132052059Y-114410059D01*
X131708026Y-113984370D01*
X131227277Y-113722740D01*
X131153070Y-113707780D01*
X130937000Y-113830280D01*
X130937000Y-115443000D01*
X130957000Y-115443000D01*
X130957000Y-115697000D01*
X130937000Y-115697000D01*
X130937000Y-115717000D01*
X130683000Y-115717000D01*
X130683000Y-115697000D01*
X128397000Y-115697000D01*
X128397000Y-115717000D01*
X128143000Y-115717000D01*
X128143000Y-115697000D01*
X128123000Y-115697000D01*
X128123000Y-115443000D01*
X128143000Y-115443000D01*
X128143000Y-113830280D01*
X128397000Y-113830280D01*
X128397000Y-115443000D01*
X130683000Y-115443000D01*
X130683000Y-113830280D01*
X130466930Y-113707780D01*
X130392723Y-113722740D01*
X129911974Y-113984370D01*
X129567941Y-114410059D01*
X129540000Y-114504723D01*
X129512059Y-114410059D01*
X129168026Y-113984370D01*
X128687277Y-113722740D01*
X128613070Y-113707780D01*
X128397000Y-113830280D01*
X128143000Y-113830280D01*
X127926930Y-113707780D01*
X127852723Y-113722740D01*
X127371974Y-113984370D01*
X127027941Y-114410059D01*
X127009330Y-114473113D01*
X126717828Y-114036851D01*
X126264609Y-113734019D01*
X125730000Y-113627679D01*
X125195391Y-113734019D01*
X124742172Y-114036851D01*
X124460000Y-114459150D01*
X124177828Y-114036851D01*
X123724609Y-113734019D01*
X123190000Y-113627679D01*
X122655391Y-113734019D01*
X122202172Y-114036851D01*
X121920000Y-114459150D01*
X121637828Y-114036851D01*
X121184609Y-113734019D01*
X120650000Y-113627679D01*
X120115391Y-113734019D01*
X119662172Y-114036851D01*
X119380000Y-114459150D01*
X119097828Y-114036851D01*
X118644609Y-113734019D01*
X118110000Y-113627679D01*
X117575391Y-113734019D01*
X117122172Y-114036851D01*
X116840000Y-114459150D01*
X116557828Y-114036851D01*
X116104609Y-113734019D01*
X115570000Y-113627679D01*
X115035391Y-113734019D01*
X114582172Y-114036851D01*
X114279340Y-114490070D01*
X114173000Y-115024679D01*
X114173000Y-116115321D01*
X114279340Y-116649930D01*
X114582172Y-117103149D01*
X115026440Y-117400000D01*
X102912639Y-117400000D01*
X103483045Y-116830589D01*
X103822113Y-116014022D01*
X103822885Y-115129857D01*
X103485242Y-114312700D01*
X102860589Y-113686955D01*
X102196015Y-113411000D01*
X149491764Y-113411000D01*
X150132336Y-114051572D01*
G36*
X100986955Y-66049411D02*
X100647887Y-66865978D01*
X100647115Y-67750143D01*
X100984758Y-68567300D01*
X101609411Y-69193045D01*
X101662285Y-69215000D01*
X100296000Y-69215000D01*
X99955794Y-69282671D01*
X99667382Y-69475382D01*
X98771382Y-70371382D01*
X98578671Y-70659794D01*
X98511000Y-71000000D01*
X98511000Y-76050942D01*
X98466005Y-76069534D01*
X98001166Y-76533563D01*
X97749287Y-77140155D01*
X97748714Y-77796963D01*
X97999534Y-78403995D01*
X98463563Y-78868834D01*
X99070155Y-79120713D01*
X99726963Y-79121286D01*
X100333995Y-78870466D01*
X100535183Y-78669628D01*
X121868817Y-78669628D01*
X122204530Y-79482116D01*
X122825614Y-80104285D01*
X123637515Y-80441416D01*
X124516628Y-80442183D01*
X125329116Y-80106470D01*
X125656693Y-79779465D01*
X125603000Y-79909090D01*
X125603000Y-80613250D01*
X125761750Y-80772000D01*
X127127000Y-80772000D01*
X127127000Y-79559150D01*
X127381000Y-79559150D01*
X127381000Y-80772000D01*
X128746250Y-80772000D01*
X128905000Y-80613250D01*
X128905000Y-79909090D01*
X128808327Y-79675701D01*
X128629698Y-79497073D01*
X128396309Y-79400400D01*
X127539750Y-79400400D01*
X127381000Y-79559150D01*
X127127000Y-79559150D01*
X126968250Y-79400400D01*
X126111691Y-79400400D01*
X125960584Y-79462990D01*
X126288416Y-78673485D01*
X126289183Y-77794372D01*
X125953470Y-76981884D01*
X125332386Y-76359715D01*
X124520485Y-76022584D01*
X123641372Y-76021817D01*
X122828884Y-76357530D01*
X122206715Y-76978614D01*
X121869584Y-77790515D01*
X121868817Y-78669628D01*
X100535183Y-78669628D01*
X100798834Y-78406437D01*
X101050713Y-77799845D01*
X101051286Y-77143037D01*
X100800466Y-76536005D01*
X100537583Y-76272663D01*
X102532443Y-76272663D01*
X102631042Y-76539465D01*
X103240582Y-76765901D01*
X103890377Y-76741841D01*
X104378958Y-76539465D01*
X104477557Y-76272663D01*
X103505000Y-75300105D01*
X102532443Y-76272663D01*
X100537583Y-76272663D01*
X100336437Y-76071166D01*
X100289000Y-76051468D01*
X100289000Y-74856082D01*
X101859599Y-74856082D01*
X101883659Y-75505877D01*
X102086035Y-75994458D01*
X102352837Y-76093057D01*
X103325395Y-75120500D01*
X103684605Y-75120500D01*
X104657163Y-76093057D01*
X104923965Y-75994458D01*
X105150401Y-75384918D01*
X105126341Y-74735123D01*
X104923965Y-74246542D01*
X104657163Y-74147943D01*
X103684605Y-75120500D01*
X103325395Y-75120500D01*
X102352837Y-74147943D01*
X102086035Y-74246542D01*
X101859599Y-74856082D01*
X100289000Y-74856082D01*
X100289000Y-73968337D01*
X102532443Y-73968337D01*
X103505000Y-74940895D01*
X104477557Y-73968337D01*
X104378958Y-73701535D01*
X103769418Y-73475099D01*
X103119623Y-73499159D01*
X102631042Y-73701535D01*
X102532443Y-73968337D01*
X100289000Y-73968337D01*
X100289000Y-71368236D01*
X100664236Y-70993000D01*
X142748000Y-70993000D01*
X143088206Y-70925329D01*
X143376618Y-70732618D01*
X144138618Y-69970618D01*
X144331329Y-69682206D01*
X144399000Y-69342000D01*
X144399000Y-68909184D01*
X144497828Y-68843149D01*
X144780000Y-68420850D01*
X145062172Y-68843149D01*
X145161000Y-68909184D01*
X145161000Y-70751764D01*
X144411764Y-71501000D01*
X139700000Y-71501000D01*
X139359794Y-71568671D01*
X139071382Y-71761382D01*
X128877526Y-81955238D01*
X128905000Y-81888910D01*
X128905000Y-81184750D01*
X128746250Y-81026000D01*
X127381000Y-81026000D01*
X127381000Y-81046000D01*
X127127000Y-81046000D01*
X127127000Y-81026000D01*
X125761750Y-81026000D01*
X125603000Y-81184750D01*
X125603000Y-81888910D01*
X125699673Y-82122299D01*
X125878302Y-82300927D01*
X126031780Y-82364500D01*
X126009585Y-82379330D01*
X125895547Y-82550000D01*
X120523000Y-82550000D01*
X120182794Y-82617671D01*
X119894382Y-82810382D01*
X112944627Y-89760137D01*
X112874773Y-89789000D01*
X108331000Y-89789000D01*
X107990794Y-89856671D01*
X107920671Y-89903526D01*
X107702382Y-90049382D01*
X105371382Y-92380382D01*
X105178671Y-92668794D01*
X105111000Y-93009000D01*
X105111000Y-93448235D01*
X105018965Y-93226042D01*
X104752163Y-93127443D01*
X103779605Y-94100000D01*
X104752163Y-95072557D01*
X105018965Y-94973958D01*
X105111000Y-94726210D01*
X105111000Y-96231764D01*
X104031764Y-97311000D01*
X99285000Y-97311000D01*
X98944794Y-97378671D01*
X98656382Y-97571382D01*
X95510382Y-100717382D01*
X95317671Y-101005794D01*
X95286818Y-101160902D01*
X95061314Y-101254078D01*
X94524961Y-101789495D01*
X94234332Y-102489410D01*
X94233670Y-103247265D01*
X94523078Y-103947686D01*
X95058495Y-104484039D01*
X95758410Y-104774668D01*
X96516265Y-104775330D01*
X97216686Y-104485922D01*
X97753039Y-103950505D01*
X98043668Y-103250590D01*
X98044330Y-102492735D01*
X97754922Y-101792314D01*
X97352774Y-101389462D01*
X99653236Y-99089000D01*
X104400000Y-99089000D01*
X104740206Y-99021329D01*
X105028618Y-98828618D01*
X106628618Y-97228618D01*
X106648629Y-97198670D01*
X106821329Y-96940206D01*
X106889000Y-96600000D01*
X106889000Y-95687628D01*
X108914817Y-95687628D01*
X109250530Y-96500116D01*
X109871614Y-97122285D01*
X110683515Y-97459416D01*
X111562628Y-97460183D01*
X112375116Y-97124470D01*
X112997285Y-96503386D01*
X113334416Y-95691485D01*
X113335183Y-94812372D01*
X112999470Y-93999884D01*
X112378386Y-93377715D01*
X111566485Y-93040584D01*
X110687372Y-93039817D01*
X109874884Y-93375530D01*
X109252715Y-93996614D01*
X108915584Y-94808515D01*
X108914817Y-95687628D01*
X106889000Y-95687628D01*
X106889000Y-93377236D01*
X108699236Y-91567000D01*
X112874945Y-91567000D01*
X113088630Y-91655730D01*
X113477663Y-91656069D01*
X113837212Y-91507507D01*
X114112540Y-91232659D01*
X114201986Y-91017250D01*
X120891236Y-84328000D01*
X125895547Y-84328000D01*
X126009585Y-84498670D01*
X126324366Y-84709000D01*
X126009585Y-84919330D01*
X125684729Y-85405511D01*
X125570655Y-85979000D01*
X125684729Y-86552489D01*
X126009585Y-87038670D01*
X126324366Y-87249000D01*
X126009585Y-87459330D01*
X125684729Y-87945511D01*
X125570655Y-88519000D01*
X125684729Y-89092489D01*
X126009585Y-89578670D01*
X126324366Y-89789000D01*
X126009585Y-89999330D01*
X125684729Y-90485511D01*
X125570655Y-91059000D01*
X125684729Y-91632489D01*
X126009585Y-92118670D01*
X126324366Y-92329000D01*
X126009585Y-92539330D01*
X125684729Y-93025511D01*
X125570655Y-93599000D01*
X125684729Y-94172489D01*
X126009585Y-94658670D01*
X126324366Y-94869000D01*
X126009585Y-95079330D01*
X125684729Y-95565511D01*
X125570655Y-96139000D01*
X125684729Y-96712489D01*
X126009585Y-97198670D01*
X126495766Y-97523526D01*
X127069255Y-97637600D01*
X127438745Y-97637600D01*
X128012234Y-97523526D01*
X128498415Y-97198670D01*
X128823271Y-96712489D01*
X128937345Y-96139000D01*
X128823271Y-95565511D01*
X128498415Y-95079330D01*
X128183634Y-94869000D01*
X128498415Y-94658670D01*
X128612453Y-94488000D01*
X128778000Y-94488000D01*
X129118206Y-94420329D01*
X129406618Y-94227618D01*
X130105118Y-93529118D01*
X130285742Y-93258795D01*
X130297829Y-93240706D01*
X130365500Y-92900500D01*
X130365500Y-92317796D01*
X132968011Y-92317796D01*
X133836234Y-94419058D01*
X135442486Y-96028116D01*
X137542229Y-96900005D01*
X139815796Y-96901989D01*
X141917058Y-96033766D01*
X143526116Y-94427514D01*
X144398005Y-92327771D01*
X144399989Y-90054204D01*
X143531766Y-87952942D01*
X141925514Y-86343884D01*
X139825771Y-85471995D01*
X137552204Y-85470011D01*
X135450942Y-86338234D01*
X133841884Y-87944486D01*
X133731420Y-88210513D01*
X133546244Y-88334244D01*
X133372804Y-88593815D01*
X133311900Y-88900000D01*
X133355048Y-89116918D01*
X132969995Y-90044229D01*
X132968011Y-92317796D01*
X130365500Y-92317796D01*
X130365500Y-82981736D01*
X140068236Y-73279000D01*
X144000129Y-73279000D01*
X142054942Y-74082734D01*
X140445884Y-75688986D01*
X139573995Y-77788729D01*
X139572011Y-80062296D01*
X140440234Y-82163558D01*
X142046486Y-83772616D01*
X144146229Y-84644505D01*
X146419796Y-84646489D01*
X148521058Y-83778266D01*
X149310557Y-82990143D01*
X151447115Y-82990143D01*
X151784758Y-83807300D01*
X152409411Y-84433045D01*
X153225978Y-84772113D01*
X154110143Y-84772885D01*
X154927300Y-84435242D01*
X155553045Y-83810589D01*
X155892113Y-82994022D01*
X155892885Y-82109857D01*
X155555242Y-81292700D01*
X154930589Y-80666955D01*
X154114022Y-80327887D01*
X153229857Y-80327115D01*
X152412700Y-80664758D01*
X151786955Y-81289411D01*
X151447887Y-82105978D01*
X151447115Y-82990143D01*
X149310557Y-82990143D01*
X150130116Y-82172014D01*
X151002005Y-80072271D01*
X151003989Y-77798704D01*
X150135766Y-75697442D01*
X148529514Y-74088384D01*
X146429771Y-73216495D01*
X145100068Y-73215335D01*
X145120206Y-73211329D01*
X145408618Y-73018618D01*
X146678618Y-71748618D01*
X146871329Y-71460206D01*
X146939000Y-71120000D01*
X146939000Y-68909184D01*
X147037828Y-68843149D01*
X147320000Y-68420850D01*
X147602172Y-68843149D01*
X148055391Y-69145981D01*
X148590000Y-69252321D01*
X149124609Y-69145981D01*
X149577828Y-68843149D01*
X149860000Y-68420850D01*
X150142172Y-68843149D01*
X150595391Y-69145981D01*
X151130000Y-69252321D01*
X151664609Y-69145981D01*
X152117828Y-68843149D01*
X152420660Y-68389930D01*
X152527000Y-67855321D01*
X152527000Y-66764679D01*
X152420660Y-66230070D01*
X152117828Y-65776851D01*
X151673560Y-65480000D01*
X152105908Y-65480000D01*
X152960000Y-66334092D01*
X152960000Y-77470000D01*
X153014046Y-77741705D01*
X153167954Y-77972046D01*
X158040000Y-82844092D01*
X158040000Y-110195908D01*
X153167954Y-115067954D01*
X153014046Y-115298295D01*
X152960000Y-115570000D01*
X152960000Y-117400000D01*
X151673560Y-117400000D01*
X152117828Y-117103149D01*
X152420660Y-116649930D01*
X152527000Y-116115321D01*
X152527000Y-115024679D01*
X152420660Y-114490070D01*
X152117828Y-114036851D01*
X152019000Y-113970816D01*
X152019000Y-113792000D01*
X151951329Y-113451794D01*
X151758618Y-113163382D01*
X150488618Y-111893382D01*
X150407472Y-111839162D01*
X150200206Y-111700671D01*
X149860000Y-111633000D01*
X97650236Y-111633000D01*
X96577547Y-110560311D01*
X96580724Y-110552659D01*
X96581275Y-109922107D01*
X96340481Y-109339343D01*
X95895003Y-108893086D01*
X95497432Y-108728000D01*
X104066560Y-108728000D01*
X104066560Y-110728000D01*
X104110838Y-110963317D01*
X104249910Y-111179441D01*
X104462110Y-111324431D01*
X104714000Y-111375440D01*
X106614000Y-111375440D01*
X106849317Y-111331162D01*
X107065441Y-111192090D01*
X107210431Y-110979890D01*
X107211055Y-110976808D01*
X107304997Y-111070914D01*
X107887341Y-111312724D01*
X108517893Y-111313275D01*
X109100657Y-111072481D01*
X109243243Y-110930143D01*
X151447115Y-110930143D01*
X151784758Y-111747300D01*
X152409411Y-112373045D01*
X153225978Y-112712113D01*
X154110143Y-112712885D01*
X154927300Y-112375242D01*
X155553045Y-111750589D01*
X155892113Y-110934022D01*
X155892885Y-110049857D01*
X155555242Y-109232700D01*
X154930589Y-108606955D01*
X154114022Y-108267887D01*
X153229857Y-108267115D01*
X152412700Y-108604758D01*
X151786955Y-109229411D01*
X151447887Y-110045978D01*
X151447115Y-110930143D01*
X109243243Y-110930143D01*
X109546914Y-110627003D01*
X109551068Y-110617000D01*
X141068945Y-110617000D01*
X141282630Y-110705730D01*
X141671663Y-110706069D01*
X142031212Y-110557507D01*
X142306540Y-110282659D01*
X142455730Y-109923370D01*
X142456069Y-109534337D01*
X142307507Y-109174788D01*
X142032659Y-108899460D01*
X141673370Y-108750270D01*
X141284337Y-108749931D01*
X141068773Y-108839000D01*
X132432796Y-108839000D01*
X132920086Y-108637656D01*
X133338188Y-108220283D01*
X133564742Y-107674681D01*
X133565257Y-107083911D01*
X133339656Y-106537914D01*
X132922283Y-106119812D01*
X132376681Y-105893258D01*
X131785911Y-105892743D01*
X131239914Y-106118344D01*
X130821812Y-106535717D01*
X130595258Y-107081319D01*
X130594743Y-107672089D01*
X130820344Y-108218086D01*
X131237717Y-108636188D01*
X131726142Y-108839000D01*
X126463946Y-108839000D01*
X126864080Y-108673259D01*
X126944353Y-108421958D01*
X126080000Y-107557605D01*
X125215647Y-108421958D01*
X125295920Y-108673259D01*
X125752816Y-108839000D01*
X109551645Y-108839000D01*
X109548481Y-108831343D01*
X109103003Y-108385086D01*
X108520659Y-108143276D01*
X107890107Y-108142725D01*
X107307343Y-108383519D01*
X107209663Y-108481029D01*
X107078090Y-108276559D01*
X106951305Y-108189931D01*
X108270736Y-106870500D01*
X109469806Y-106870500D01*
X109484538Y-106906155D01*
X109943927Y-107366346D01*
X110544453Y-107615706D01*
X111194694Y-107616274D01*
X111795655Y-107367962D01*
X112030363Y-107133663D01*
X117518443Y-107133663D01*
X117617042Y-107400465D01*
X118226582Y-107626901D01*
X118876377Y-107602841D01*
X119364958Y-107400465D01*
X119457785Y-107149279D01*
X124583282Y-107149279D01*
X124609685Y-107739458D01*
X124784741Y-108162080D01*
X125036042Y-108242353D01*
X125900395Y-107378000D01*
X126259605Y-107378000D01*
X127123958Y-108242353D01*
X127375259Y-108162080D01*
X127576718Y-107606721D01*
X127550315Y-107016542D01*
X127375259Y-106593920D01*
X127123958Y-106513647D01*
X126259605Y-107378000D01*
X125900395Y-107378000D01*
X125036042Y-106513647D01*
X124784741Y-106593920D01*
X124583282Y-107149279D01*
X119457785Y-107149279D01*
X119463557Y-107133663D01*
X118491000Y-106161105D01*
X117518443Y-107133663D01*
X112030363Y-107133663D01*
X112255846Y-106908573D01*
X112505206Y-106308047D01*
X112505722Y-105717082D01*
X116845599Y-105717082D01*
X116869659Y-106366877D01*
X117072035Y-106855458D01*
X117338837Y-106954057D01*
X118311395Y-105981500D01*
X118670605Y-105981500D01*
X119643163Y-106954057D01*
X119909965Y-106855458D01*
X120103664Y-106334042D01*
X125215647Y-106334042D01*
X126080000Y-107198395D01*
X126944353Y-106334042D01*
X126864080Y-106082741D01*
X126308721Y-105881282D01*
X125718542Y-105907685D01*
X125295920Y-106082741D01*
X125215647Y-106334042D01*
X120103664Y-106334042D01*
X120136401Y-106245918D01*
X120112341Y-105596123D01*
X119909965Y-105107542D01*
X119667119Y-105017796D01*
X139889511Y-105017796D01*
X140757734Y-107119058D01*
X142363986Y-108728116D01*
X144463729Y-109600005D01*
X146737296Y-109601989D01*
X148838558Y-108733766D01*
X150447616Y-107127514D01*
X151319505Y-105027771D01*
X151321489Y-102754204D01*
X150453266Y-100652942D01*
X148847014Y-99043884D01*
X146747271Y-98171995D01*
X144473704Y-98170011D01*
X142372442Y-99038234D01*
X140763384Y-100644486D01*
X139891495Y-102744229D01*
X139889511Y-105017796D01*
X119667119Y-105017796D01*
X119643163Y-105008943D01*
X118670605Y-105981500D01*
X118311395Y-105981500D01*
X117338837Y-105008943D01*
X117072035Y-105107542D01*
X116845599Y-105717082D01*
X112505722Y-105717082D01*
X112505774Y-105657806D01*
X112257462Y-105056845D01*
X112030351Y-104829337D01*
X117518443Y-104829337D01*
X118491000Y-105801895D01*
X119463557Y-104829337D01*
X119364958Y-104562535D01*
X118755418Y-104336099D01*
X118105623Y-104360159D01*
X117617042Y-104562535D01*
X117518443Y-104829337D01*
X112030351Y-104829337D01*
X111798073Y-104596654D01*
X111197547Y-104347294D01*
X110547306Y-104346726D01*
X109946345Y-104595038D01*
X109486154Y-105054427D01*
X109470345Y-105092500D01*
X107902500Y-105092500D01*
X107562294Y-105160171D01*
X107273882Y-105352882D01*
X105035382Y-107591382D01*
X104842671Y-107879794D01*
X104802736Y-108080560D01*
X104714000Y-108080560D01*
X104478683Y-108124838D01*
X104262559Y-108263910D01*
X104117569Y-108476110D01*
X104066560Y-108728000D01*
X95497432Y-108728000D01*
X95312659Y-108651276D01*
X94682107Y-108650725D01*
X94099343Y-108891519D01*
X94001663Y-108989029D01*
X93870090Y-108784559D01*
X93657890Y-108639569D01*
X93406000Y-108588560D01*
X93345000Y-108588560D01*
X93345000Y-108572236D01*
X93840236Y-108077000D01*
X99822000Y-108077000D01*
X100162206Y-108009329D01*
X100450618Y-107816618D01*
X104595147Y-103672089D01*
X124594743Y-103672089D01*
X124820344Y-104218086D01*
X125237717Y-104636188D01*
X125783319Y-104862742D01*
X126374089Y-104863257D01*
X126920086Y-104637656D01*
X127338188Y-104220283D01*
X127564742Y-103674681D01*
X127564744Y-103672089D01*
X130594743Y-103672089D01*
X130820344Y-104218086D01*
X131237717Y-104636188D01*
X131783319Y-104862742D01*
X132374089Y-104863257D01*
X132920086Y-104637656D01*
X133338188Y-104220283D01*
X133564742Y-103674681D01*
X133565257Y-103083911D01*
X133339656Y-102537914D01*
X132922283Y-102119812D01*
X132376681Y-101893258D01*
X131785911Y-101892743D01*
X131239914Y-102118344D01*
X130821812Y-102535717D01*
X130595258Y-103081319D01*
X130594743Y-103672089D01*
X127564744Y-103672089D01*
X127565257Y-103083911D01*
X127339656Y-102537914D01*
X126922283Y-102119812D01*
X126376681Y-101893258D01*
X125785911Y-101892743D01*
X125239914Y-102118344D01*
X124821812Y-102535717D01*
X124595258Y-103081319D01*
X124594743Y-103672089D01*
X104595147Y-103672089D01*
X106032236Y-102235000D01*
X109469806Y-102235000D01*
X109484538Y-102270655D01*
X109943927Y-102730846D01*
X110544453Y-102980206D01*
X111194694Y-102980774D01*
X111795655Y-102732462D01*
X112030363Y-102498163D01*
X117518443Y-102498163D01*
X117617042Y-102764965D01*
X118226582Y-102991401D01*
X118876377Y-102967341D01*
X119364958Y-102764965D01*
X119463557Y-102498163D01*
X118491000Y-101525605D01*
X117518443Y-102498163D01*
X112030363Y-102498163D01*
X112255846Y-102273073D01*
X112505206Y-101672547D01*
X112505722Y-101081582D01*
X116845599Y-101081582D01*
X116869659Y-101731377D01*
X117072035Y-102219958D01*
X117338837Y-102318557D01*
X118311395Y-101346000D01*
X118670605Y-101346000D01*
X119643163Y-102318557D01*
X119909965Y-102219958D01*
X120136401Y-101610418D01*
X120112341Y-100960623D01*
X119909965Y-100472042D01*
X119643163Y-100373443D01*
X118670605Y-101346000D01*
X118311395Y-101346000D01*
X117338837Y-100373443D01*
X117072035Y-100472042D01*
X116845599Y-101081582D01*
X112505722Y-101081582D01*
X112505774Y-101022306D01*
X112257462Y-100421345D01*
X112030351Y-100193837D01*
X117518443Y-100193837D01*
X118491000Y-101166395D01*
X119463557Y-100193837D01*
X119364958Y-99927035D01*
X118755418Y-99700599D01*
X118105623Y-99724659D01*
X117617042Y-99927035D01*
X117518443Y-100193837D01*
X112030351Y-100193837D01*
X111798073Y-99961154D01*
X111197547Y-99711794D01*
X110547306Y-99711226D01*
X109946345Y-99959538D01*
X109486154Y-100418927D01*
X109470345Y-100457000D01*
X105664000Y-100457000D01*
X105323795Y-100524670D01*
X105035382Y-100717382D01*
X102742878Y-103009886D01*
X102743330Y-102492735D01*
X102453922Y-101792314D01*
X101918505Y-101255961D01*
X101218590Y-100965332D01*
X100460735Y-100964670D01*
X99760314Y-101254078D01*
X99223961Y-101789495D01*
X98933332Y-102489410D01*
X98932670Y-103247265D01*
X99222078Y-103947686D01*
X99757495Y-104484039D01*
X100457410Y-104774668D01*
X100977642Y-104775122D01*
X99453764Y-106299000D01*
X93472000Y-106299000D01*
X93131794Y-106366671D01*
X92911829Y-106513647D01*
X92843382Y-106559382D01*
X91827382Y-107575382D01*
X91634671Y-107863794D01*
X91567000Y-108204000D01*
X91567000Y-108588560D01*
X91506000Y-108588560D01*
X91270683Y-108632838D01*
X91054559Y-108771910D01*
X90909569Y-108984110D01*
X90858560Y-109236000D01*
X90858560Y-111236000D01*
X90902838Y-111471317D01*
X91041910Y-111687441D01*
X91254110Y-111832431D01*
X91506000Y-111883440D01*
X93406000Y-111883440D01*
X93641317Y-111839162D01*
X93857441Y-111700090D01*
X94002431Y-111487890D01*
X94003055Y-111484808D01*
X94096997Y-111578914D01*
X94679341Y-111820724D01*
X95309893Y-111821275D01*
X95319903Y-111817139D01*
X96653382Y-113150618D01*
X96941794Y-113343329D01*
X97282000Y-113411000D01*
X101005244Y-113411000D01*
X100342700Y-113684758D01*
X99716955Y-114309411D01*
X99377887Y-115125978D01*
X99377115Y-116010143D01*
X99714758Y-116827300D01*
X100286459Y-117400000D01*
X88340000Y-117400000D01*
X88340000Y-103247265D01*
X89534670Y-103247265D01*
X89824078Y-103947686D01*
X90359495Y-104484039D01*
X91059410Y-104774668D01*
X91817265Y-104775330D01*
X92517686Y-104485922D01*
X93054039Y-103950505D01*
X93344668Y-103250590D01*
X93345330Y-102492735D01*
X93055922Y-101792314D01*
X92520505Y-101255961D01*
X91820590Y-100965332D01*
X91062735Y-100964670D01*
X90362314Y-101254078D01*
X89825961Y-101789495D01*
X89535332Y-102489410D01*
X89534670Y-103247265D01*
X88340000Y-103247265D01*
X88340000Y-95252163D01*
X102627443Y-95252163D01*
X102726042Y-95518965D01*
X103335582Y-95745401D01*
X103985377Y-95721341D01*
X104473958Y-95518965D01*
X104572557Y-95252163D01*
X103600000Y-94279605D01*
X102627443Y-95252163D01*
X88340000Y-95252163D01*
X88340000Y-93835582D01*
X101954599Y-93835582D01*
X101978659Y-94485377D01*
X102181035Y-94973958D01*
X102447837Y-95072557D01*
X103420395Y-94100000D01*
X102447837Y-93127443D01*
X102181035Y-93226042D01*
X101954599Y-93835582D01*
X88340000Y-93835582D01*
X88340000Y-92947837D01*
X102627443Y-92947837D01*
X103600000Y-93920395D01*
X104572557Y-92947837D01*
X104473958Y-92681035D01*
X103864418Y-92454599D01*
X103214623Y-92478659D01*
X102726042Y-92681035D01*
X102627443Y-92947837D01*
X88340000Y-92947837D01*
X88340000Y-88794107D01*
X98415498Y-88794107D01*
X98516120Y-89062622D01*
X99131642Y-89291816D01*
X99788019Y-89268014D01*
X100283880Y-89062622D01*
X100384502Y-88794107D01*
X99400000Y-87809605D01*
X98415498Y-88794107D01*
X88340000Y-88794107D01*
X88340000Y-87361642D01*
X97738184Y-87361642D01*
X97761986Y-88018019D01*
X97967378Y-88513880D01*
X98235893Y-88614502D01*
X99220395Y-87630000D01*
X99579605Y-87630000D01*
X100564107Y-88614502D01*
X100832622Y-88513880D01*
X101061816Y-87898358D01*
X101038014Y-87241981D01*
X100856470Y-86803694D01*
X101965226Y-86803694D01*
X102213538Y-87404655D01*
X102672927Y-87864846D01*
X103273453Y-88114206D01*
X103923694Y-88114774D01*
X104524655Y-87866462D01*
X104984846Y-87407073D01*
X105234206Y-86806547D01*
X105234774Y-86156306D01*
X104986462Y-85555345D01*
X104527073Y-85095154D01*
X103926547Y-84845794D01*
X103276306Y-84845226D01*
X102675345Y-85093538D01*
X102215154Y-85552927D01*
X101965794Y-86153453D01*
X101965226Y-86803694D01*
X100856470Y-86803694D01*
X100832622Y-86746120D01*
X100564107Y-86645498D01*
X99579605Y-87630000D01*
X99220395Y-87630000D01*
X98235893Y-86645498D01*
X97967378Y-86746120D01*
X97738184Y-87361642D01*
X88340000Y-87361642D01*
X88340000Y-86465893D01*
X98415498Y-86465893D01*
X99400000Y-87450395D01*
X100384502Y-86465893D01*
X100283880Y-86197378D01*
X99668358Y-85968184D01*
X99011981Y-85991986D01*
X98516120Y-86197378D01*
X98415498Y-86465893D01*
X88340000Y-86465893D01*
X88340000Y-68454946D01*
X91358017Y-68454946D01*
X91626812Y-69040379D01*
X92099182Y-69478385D01*
X92581056Y-69677975D01*
X92837000Y-69558836D01*
X92837000Y-68199000D01*
X91476633Y-68199000D01*
X91358017Y-68454946D01*
X88340000Y-68454946D01*
X88340000Y-67689054D01*
X91358017Y-67689054D01*
X91476633Y-67945000D01*
X92837000Y-67945000D01*
X92837000Y-66585164D01*
X93091000Y-66585164D01*
X93091000Y-67945000D01*
X93111000Y-67945000D01*
X93111000Y-68199000D01*
X93091000Y-68199000D01*
X93091000Y-69558836D01*
X93346944Y-69677975D01*
X93828818Y-69478385D01*
X93926398Y-69387903D01*
X94023910Y-69539441D01*
X94236110Y-69684431D01*
X94488000Y-69735440D01*
X94615000Y-69735440D01*
X94615000Y-78654000D01*
X94682671Y-78994206D01*
X94844691Y-79236685D01*
X94875382Y-79282618D01*
X97767957Y-82175193D01*
X97749287Y-82220155D01*
X97748714Y-82876963D01*
X97999534Y-83483995D01*
X98463563Y-83948834D01*
X99070155Y-84200713D01*
X99726963Y-84201286D01*
X100333995Y-83950466D01*
X100798834Y-83486437D01*
X100974164Y-83064194D01*
X101870226Y-83064194D01*
X102118538Y-83665155D01*
X102577927Y-84125346D01*
X103178453Y-84374706D01*
X103828694Y-84375274D01*
X104429655Y-84126962D01*
X104889846Y-83667573D01*
X105139206Y-83067047D01*
X105139774Y-82416806D01*
X104891462Y-81815845D01*
X104432073Y-81355654D01*
X103831547Y-81106294D01*
X103181306Y-81105726D01*
X102580345Y-81354038D01*
X102120154Y-81813427D01*
X101870794Y-82413953D01*
X101870226Y-83064194D01*
X100974164Y-83064194D01*
X101050713Y-82879845D01*
X101051286Y-82223037D01*
X100800466Y-81616005D01*
X100336437Y-81151166D01*
X99729845Y-80899287D01*
X99073037Y-80898714D01*
X99025565Y-80918329D01*
X96393000Y-78285764D01*
X96393000Y-69735440D01*
X96520000Y-69735440D01*
X96755317Y-69691162D01*
X96971441Y-69552090D01*
X97116431Y-69339890D01*
X97167440Y-69088000D01*
X97167440Y-67056000D01*
X97123162Y-66820683D01*
X96984090Y-66604559D01*
X96771890Y-66459569D01*
X96520000Y-66408560D01*
X94488000Y-66408560D01*
X94252683Y-66452838D01*
X94036559Y-66591910D01*
X93925160Y-66754948D01*
X93828818Y-66665615D01*
X93346944Y-66466025D01*
X93091000Y-66585164D01*
X92837000Y-66585164D01*
X92581056Y-66466025D01*
X92099182Y-66665615D01*
X91626812Y-67103621D01*
X91358017Y-67689054D01*
X88340000Y-67689054D01*
X88340000Y-65480000D01*
X101557361Y-65480000D01*
X100986955Y-66049411D01*
X100986955Y-66049411D01*
G37*
X100986955Y-66049411D02*
X100647887Y-66865978D01*
X100647115Y-67750143D01*
X100984758Y-68567300D01*
X101609411Y-69193045D01*
X101662285Y-69215000D01*
X100296000Y-69215000D01*
X99955794Y-69282671D01*
X99667382Y-69475382D01*
X98771382Y-70371382D01*
X98578671Y-70659794D01*
X98511000Y-71000000D01*
X98511000Y-76050942D01*
X98466005Y-76069534D01*
X98001166Y-76533563D01*
X97749287Y-77140155D01*
X97748714Y-77796963D01*
X97999534Y-78403995D01*
X98463563Y-78868834D01*
X99070155Y-79120713D01*
X99726963Y-79121286D01*
X100333995Y-78870466D01*
X100535183Y-78669628D01*
X121868817Y-78669628D01*
X122204530Y-79482116D01*
X122825614Y-80104285D01*
X123637515Y-80441416D01*
X124516628Y-80442183D01*
X125329116Y-80106470D01*
X125656693Y-79779465D01*
X125603000Y-79909090D01*
X125603000Y-80613250D01*
X125761750Y-80772000D01*
X127127000Y-80772000D01*
X127127000Y-79559150D01*
X127381000Y-79559150D01*
X127381000Y-80772000D01*
X128746250Y-80772000D01*
X128905000Y-80613250D01*
X128905000Y-79909090D01*
X128808327Y-79675701D01*
X128629698Y-79497073D01*
X128396309Y-79400400D01*
X127539750Y-79400400D01*
X127381000Y-79559150D01*
X127127000Y-79559150D01*
X126968250Y-79400400D01*
X126111691Y-79400400D01*
X125960584Y-79462990D01*
X126288416Y-78673485D01*
X126289183Y-77794372D01*
X125953470Y-76981884D01*
X125332386Y-76359715D01*
X124520485Y-76022584D01*
X123641372Y-76021817D01*
X122828884Y-76357530D01*
X122206715Y-76978614D01*
X121869584Y-77790515D01*
X121868817Y-78669628D01*
X100535183Y-78669628D01*
X100798834Y-78406437D01*
X101050713Y-77799845D01*
X101051286Y-77143037D01*
X100800466Y-76536005D01*
X100537583Y-76272663D01*
X102532443Y-76272663D01*
X102631042Y-76539465D01*
X103240582Y-76765901D01*
X103890377Y-76741841D01*
X104378958Y-76539465D01*
X104477557Y-76272663D01*
X103505000Y-75300105D01*
X102532443Y-76272663D01*
X100537583Y-76272663D01*
X100336437Y-76071166D01*
X100289000Y-76051468D01*
X100289000Y-74856082D01*
X101859599Y-74856082D01*
X101883659Y-75505877D01*
X102086035Y-75994458D01*
X102352837Y-76093057D01*
X103325395Y-75120500D01*
X103684605Y-75120500D01*
X104657163Y-76093057D01*
X104923965Y-75994458D01*
X105150401Y-75384918D01*
X105126341Y-74735123D01*
X104923965Y-74246542D01*
X104657163Y-74147943D01*
X103684605Y-75120500D01*
X103325395Y-75120500D01*
X102352837Y-74147943D01*
X102086035Y-74246542D01*
X101859599Y-74856082D01*
X100289000Y-74856082D01*
X100289000Y-73968337D01*
X102532443Y-73968337D01*
X103505000Y-74940895D01*
X104477557Y-73968337D01*
X104378958Y-73701535D01*
X103769418Y-73475099D01*
X103119623Y-73499159D01*
X102631042Y-73701535D01*
X102532443Y-73968337D01*
X100289000Y-73968337D01*
X100289000Y-71368236D01*
X100664236Y-70993000D01*
X142748000Y-70993000D01*
X143088206Y-70925329D01*
X143376618Y-70732618D01*
X144138618Y-69970618D01*
X144331329Y-69682206D01*
X144399000Y-69342000D01*
X144399000Y-68909184D01*
X144497828Y-68843149D01*
X144780000Y-68420850D01*
X145062172Y-68843149D01*
X145161000Y-68909184D01*
X145161000Y-70751764D01*
X144411764Y-71501000D01*
X139700000Y-71501000D01*
X139359794Y-71568671D01*
X139071382Y-71761382D01*
X128877526Y-81955238D01*
X128905000Y-81888910D01*
X128905000Y-81184750D01*
X128746250Y-81026000D01*
X127381000Y-81026000D01*
X127381000Y-81046000D01*
X127127000Y-81046000D01*
X127127000Y-81026000D01*
X125761750Y-81026000D01*
X125603000Y-81184750D01*
X125603000Y-81888910D01*
X125699673Y-82122299D01*
X125878302Y-82300927D01*
X126031780Y-82364500D01*
X126009585Y-82379330D01*
X125895547Y-82550000D01*
X120523000Y-82550000D01*
X120182794Y-82617671D01*
X119894382Y-82810382D01*
X112944627Y-89760137D01*
X112874773Y-89789000D01*
X108331000Y-89789000D01*
X107990794Y-89856671D01*
X107920671Y-89903526D01*
X107702382Y-90049382D01*
X105371382Y-92380382D01*
X105178671Y-92668794D01*
X105111000Y-93009000D01*
X105111000Y-93448235D01*
X105018965Y-93226042D01*
X104752163Y-93127443D01*
X103779605Y-94100000D01*
X104752163Y-95072557D01*
X105018965Y-94973958D01*
X105111000Y-94726210D01*
X105111000Y-96231764D01*
X104031764Y-97311000D01*
X99285000Y-97311000D01*
X98944794Y-97378671D01*
X98656382Y-97571382D01*
X95510382Y-100717382D01*
X95317671Y-101005794D01*
X95286818Y-101160902D01*
X95061314Y-101254078D01*
X94524961Y-101789495D01*
X94234332Y-102489410D01*
X94233670Y-103247265D01*
X94523078Y-103947686D01*
X95058495Y-104484039D01*
X95758410Y-104774668D01*
X96516265Y-104775330D01*
X97216686Y-104485922D01*
X97753039Y-103950505D01*
X98043668Y-103250590D01*
X98044330Y-102492735D01*
X97754922Y-101792314D01*
X97352774Y-101389462D01*
X99653236Y-99089000D01*
X104400000Y-99089000D01*
X104740206Y-99021329D01*
X105028618Y-98828618D01*
X106628618Y-97228618D01*
X106648629Y-97198670D01*
X106821329Y-96940206D01*
X106889000Y-96600000D01*
X106889000Y-95687628D01*
X108914817Y-95687628D01*
X109250530Y-96500116D01*
X109871614Y-97122285D01*
X110683515Y-97459416D01*
X111562628Y-97460183D01*
X112375116Y-97124470D01*
X112997285Y-96503386D01*
X113334416Y-95691485D01*
X113335183Y-94812372D01*
X112999470Y-93999884D01*
X112378386Y-93377715D01*
X111566485Y-93040584D01*
X110687372Y-93039817D01*
X109874884Y-93375530D01*
X109252715Y-93996614D01*
X108915584Y-94808515D01*
X108914817Y-95687628D01*
X106889000Y-95687628D01*
X106889000Y-93377236D01*
X108699236Y-91567000D01*
X112874945Y-91567000D01*
X113088630Y-91655730D01*
X113477663Y-91656069D01*
X113837212Y-91507507D01*
X114112540Y-91232659D01*
X114201986Y-91017250D01*
X120891236Y-84328000D01*
X125895547Y-84328000D01*
X126009585Y-84498670D01*
X126324366Y-84709000D01*
X126009585Y-84919330D01*
X125684729Y-85405511D01*
X125570655Y-85979000D01*
X125684729Y-86552489D01*
X126009585Y-87038670D01*
X126324366Y-87249000D01*
X126009585Y-87459330D01*
X125684729Y-87945511D01*
X125570655Y-88519000D01*
X125684729Y-89092489D01*
X126009585Y-89578670D01*
X126324366Y-89789000D01*
X126009585Y-89999330D01*
X125684729Y-90485511D01*
X125570655Y-91059000D01*
X125684729Y-91632489D01*
X126009585Y-92118670D01*
X126324366Y-92329000D01*
X126009585Y-92539330D01*
X125684729Y-93025511D01*
X125570655Y-93599000D01*
X125684729Y-94172489D01*
X126009585Y-94658670D01*
X126324366Y-94869000D01*
X126009585Y-95079330D01*
X125684729Y-95565511D01*
X125570655Y-96139000D01*
X125684729Y-96712489D01*
X126009585Y-97198670D01*
X126495766Y-97523526D01*
X127069255Y-97637600D01*
X127438745Y-97637600D01*
X128012234Y-97523526D01*
X128498415Y-97198670D01*
X128823271Y-96712489D01*
X128937345Y-96139000D01*
X128823271Y-95565511D01*
X128498415Y-95079330D01*
X128183634Y-94869000D01*
X128498415Y-94658670D01*
X128612453Y-94488000D01*
X128778000Y-94488000D01*
X129118206Y-94420329D01*
X129406618Y-94227618D01*
X130105118Y-93529118D01*
X130285742Y-93258795D01*
X130297829Y-93240706D01*
X130365500Y-92900500D01*
X130365500Y-92317796D01*
X132968011Y-92317796D01*
X133836234Y-94419058D01*
X135442486Y-96028116D01*
X137542229Y-96900005D01*
X139815796Y-96901989D01*
X141917058Y-96033766D01*
X143526116Y-94427514D01*
X144398005Y-92327771D01*
X144399989Y-90054204D01*
X143531766Y-87952942D01*
X141925514Y-86343884D01*
X139825771Y-85471995D01*
X137552204Y-85470011D01*
X135450942Y-86338234D01*
X133841884Y-87944486D01*
X133731420Y-88210513D01*
X133546244Y-88334244D01*
X133372804Y-88593815D01*
X133311900Y-88900000D01*
X133355048Y-89116918D01*
X132969995Y-90044229D01*
X132968011Y-92317796D01*
X130365500Y-92317796D01*
X130365500Y-82981736D01*
X140068236Y-73279000D01*
X144000129Y-73279000D01*
X142054942Y-74082734D01*
X140445884Y-75688986D01*
X139573995Y-77788729D01*
X139572011Y-80062296D01*
X140440234Y-82163558D01*
X142046486Y-83772616D01*
X144146229Y-84644505D01*
X146419796Y-84646489D01*
X148521058Y-83778266D01*
X149310557Y-82990143D01*
X151447115Y-82990143D01*
X151784758Y-83807300D01*
X152409411Y-84433045D01*
X153225978Y-84772113D01*
X154110143Y-84772885D01*
X154927300Y-84435242D01*
X155553045Y-83810589D01*
X155892113Y-82994022D01*
X155892885Y-82109857D01*
X155555242Y-81292700D01*
X154930589Y-80666955D01*
X154114022Y-80327887D01*
X153229857Y-80327115D01*
X152412700Y-80664758D01*
X151786955Y-81289411D01*
X151447887Y-82105978D01*
X151447115Y-82990143D01*
X149310557Y-82990143D01*
X150130116Y-82172014D01*
X151002005Y-80072271D01*
X151003989Y-77798704D01*
X150135766Y-75697442D01*
X148529514Y-74088384D01*
X146429771Y-73216495D01*
X145100068Y-73215335D01*
X145120206Y-73211329D01*
X145408618Y-73018618D01*
X146678618Y-71748618D01*
X146871329Y-71460206D01*
X146939000Y-71120000D01*
X146939000Y-68909184D01*
X147037828Y-68843149D01*
X147320000Y-68420850D01*
X147602172Y-68843149D01*
X148055391Y-69145981D01*
X148590000Y-69252321D01*
X149124609Y-69145981D01*
X149577828Y-68843149D01*
X149860000Y-68420850D01*
X150142172Y-68843149D01*
X150595391Y-69145981D01*
X151130000Y-69252321D01*
X151664609Y-69145981D01*
X152117828Y-68843149D01*
X152420660Y-68389930D01*
X152527000Y-67855321D01*
X152527000Y-66764679D01*
X152420660Y-66230070D01*
X152117828Y-65776851D01*
X151673560Y-65480000D01*
X152105908Y-65480000D01*
X152960000Y-66334092D01*
X152960000Y-77470000D01*
X153014046Y-77741705D01*
X153167954Y-77972046D01*
X158040000Y-82844092D01*
X158040000Y-110195908D01*
X153167954Y-115067954D01*
X153014046Y-115298295D01*
X152960000Y-115570000D01*
X152960000Y-117400000D01*
X151673560Y-117400000D01*
X152117828Y-117103149D01*
X152420660Y-116649930D01*
X152527000Y-116115321D01*
X152527000Y-115024679D01*
X152420660Y-114490070D01*
X152117828Y-114036851D01*
X152019000Y-113970816D01*
X152019000Y-113792000D01*
X151951329Y-113451794D01*
X151758618Y-113163382D01*
X150488618Y-111893382D01*
X150407472Y-111839162D01*
X150200206Y-111700671D01*
X149860000Y-111633000D01*
X97650236Y-111633000D01*
X96577547Y-110560311D01*
X96580724Y-110552659D01*
X96581275Y-109922107D01*
X96340481Y-109339343D01*
X95895003Y-108893086D01*
X95497432Y-108728000D01*
X104066560Y-108728000D01*
X104066560Y-110728000D01*
X104110838Y-110963317D01*
X104249910Y-111179441D01*
X104462110Y-111324431D01*
X104714000Y-111375440D01*
X106614000Y-111375440D01*
X106849317Y-111331162D01*
X107065441Y-111192090D01*
X107210431Y-110979890D01*
X107211055Y-110976808D01*
X107304997Y-111070914D01*
X107887341Y-111312724D01*
X108517893Y-111313275D01*
X109100657Y-111072481D01*
X109243243Y-110930143D01*
X151447115Y-110930143D01*
X151784758Y-111747300D01*
X152409411Y-112373045D01*
X153225978Y-112712113D01*
X154110143Y-112712885D01*
X154927300Y-112375242D01*
X155553045Y-111750589D01*
X155892113Y-110934022D01*
X155892885Y-110049857D01*
X155555242Y-109232700D01*
X154930589Y-108606955D01*
X154114022Y-108267887D01*
X153229857Y-108267115D01*
X152412700Y-108604758D01*
X151786955Y-109229411D01*
X151447887Y-110045978D01*
X151447115Y-110930143D01*
X109243243Y-110930143D01*
X109546914Y-110627003D01*
X109551068Y-110617000D01*
X141068945Y-110617000D01*
X141282630Y-110705730D01*
X141671663Y-110706069D01*
X142031212Y-110557507D01*
X142306540Y-110282659D01*
X142455730Y-109923370D01*
X142456069Y-109534337D01*
X142307507Y-109174788D01*
X142032659Y-108899460D01*
X141673370Y-108750270D01*
X141284337Y-108749931D01*
X141068773Y-108839000D01*
X132432796Y-108839000D01*
X132920086Y-108637656D01*
X133338188Y-108220283D01*
X133564742Y-107674681D01*
X133565257Y-107083911D01*
X133339656Y-106537914D01*
X132922283Y-106119812D01*
X132376681Y-105893258D01*
X131785911Y-105892743D01*
X131239914Y-106118344D01*
X130821812Y-106535717D01*
X130595258Y-107081319D01*
X130594743Y-107672089D01*
X130820344Y-108218086D01*
X131237717Y-108636188D01*
X131726142Y-108839000D01*
X126463946Y-108839000D01*
X126864080Y-108673259D01*
X126944353Y-108421958D01*
X126080000Y-107557605D01*
X125215647Y-108421958D01*
X125295920Y-108673259D01*
X125752816Y-108839000D01*
X109551645Y-108839000D01*
X109548481Y-108831343D01*
X109103003Y-108385086D01*
X108520659Y-108143276D01*
X107890107Y-108142725D01*
X107307343Y-108383519D01*
X107209663Y-108481029D01*
X107078090Y-108276559D01*
X106951305Y-108189931D01*
X108270736Y-106870500D01*
X109469806Y-106870500D01*
X109484538Y-106906155D01*
X109943927Y-107366346D01*
X110544453Y-107615706D01*
X111194694Y-107616274D01*
X111795655Y-107367962D01*
X112030363Y-107133663D01*
X117518443Y-107133663D01*
X117617042Y-107400465D01*
X118226582Y-107626901D01*
X118876377Y-107602841D01*
X119364958Y-107400465D01*
X119457785Y-107149279D01*
X124583282Y-107149279D01*
X124609685Y-107739458D01*
X124784741Y-108162080D01*
X125036042Y-108242353D01*
X125900395Y-107378000D01*
X126259605Y-107378000D01*
X127123958Y-108242353D01*
X127375259Y-108162080D01*
X127576718Y-107606721D01*
X127550315Y-107016542D01*
X127375259Y-106593920D01*
X127123958Y-106513647D01*
X126259605Y-107378000D01*
X125900395Y-107378000D01*
X125036042Y-106513647D01*
X124784741Y-106593920D01*
X124583282Y-107149279D01*
X119457785Y-107149279D01*
X119463557Y-107133663D01*
X118491000Y-106161105D01*
X117518443Y-107133663D01*
X112030363Y-107133663D01*
X112255846Y-106908573D01*
X112505206Y-106308047D01*
X112505722Y-105717082D01*
X116845599Y-105717082D01*
X116869659Y-106366877D01*
X117072035Y-106855458D01*
X117338837Y-106954057D01*
X118311395Y-105981500D01*
X118670605Y-105981500D01*
X119643163Y-106954057D01*
X119909965Y-106855458D01*
X120103664Y-106334042D01*
X125215647Y-106334042D01*
X126080000Y-107198395D01*
X126944353Y-106334042D01*
X126864080Y-106082741D01*
X126308721Y-105881282D01*
X125718542Y-105907685D01*
X125295920Y-106082741D01*
X125215647Y-106334042D01*
X120103664Y-106334042D01*
X120136401Y-106245918D01*
X120112341Y-105596123D01*
X119909965Y-105107542D01*
X119667119Y-105017796D01*
X139889511Y-105017796D01*
X140757734Y-107119058D01*
X142363986Y-108728116D01*
X144463729Y-109600005D01*
X146737296Y-109601989D01*
X148838558Y-108733766D01*
X150447616Y-107127514D01*
X151319505Y-105027771D01*
X151321489Y-102754204D01*
X150453266Y-100652942D01*
X148847014Y-99043884D01*
X146747271Y-98171995D01*
X144473704Y-98170011D01*
X142372442Y-99038234D01*
X140763384Y-100644486D01*
X139891495Y-102744229D01*
X139889511Y-105017796D01*
X119667119Y-105017796D01*
X119643163Y-105008943D01*
X118670605Y-105981500D01*
X118311395Y-105981500D01*
X117338837Y-105008943D01*
X117072035Y-105107542D01*
X116845599Y-105717082D01*
X112505722Y-105717082D01*
X112505774Y-105657806D01*
X112257462Y-105056845D01*
X112030351Y-104829337D01*
X117518443Y-104829337D01*
X118491000Y-105801895D01*
X119463557Y-104829337D01*
X119364958Y-104562535D01*
X118755418Y-104336099D01*
X118105623Y-104360159D01*
X117617042Y-104562535D01*
X117518443Y-104829337D01*
X112030351Y-104829337D01*
X111798073Y-104596654D01*
X111197547Y-104347294D01*
X110547306Y-104346726D01*
X109946345Y-104595038D01*
X109486154Y-105054427D01*
X109470345Y-105092500D01*
X107902500Y-105092500D01*
X107562294Y-105160171D01*
X107273882Y-105352882D01*
X105035382Y-107591382D01*
X104842671Y-107879794D01*
X104802736Y-108080560D01*
X104714000Y-108080560D01*
X104478683Y-108124838D01*
X104262559Y-108263910D01*
X104117569Y-108476110D01*
X104066560Y-108728000D01*
X95497432Y-108728000D01*
X95312659Y-108651276D01*
X94682107Y-108650725D01*
X94099343Y-108891519D01*
X94001663Y-108989029D01*
X93870090Y-108784559D01*
X93657890Y-108639569D01*
X93406000Y-108588560D01*
X93345000Y-108588560D01*
X93345000Y-108572236D01*
X93840236Y-108077000D01*
X99822000Y-108077000D01*
X100162206Y-108009329D01*
X100450618Y-107816618D01*
X104595147Y-103672089D01*
X124594743Y-103672089D01*
X124820344Y-104218086D01*
X125237717Y-104636188D01*
X125783319Y-104862742D01*
X126374089Y-104863257D01*
X126920086Y-104637656D01*
X127338188Y-104220283D01*
X127564742Y-103674681D01*
X127564744Y-103672089D01*
X130594743Y-103672089D01*
X130820344Y-104218086D01*
X131237717Y-104636188D01*
X131783319Y-104862742D01*
X132374089Y-104863257D01*
X132920086Y-104637656D01*
X133338188Y-104220283D01*
X133564742Y-103674681D01*
X133565257Y-103083911D01*
X133339656Y-102537914D01*
X132922283Y-102119812D01*
X132376681Y-101893258D01*
X131785911Y-101892743D01*
X131239914Y-102118344D01*
X130821812Y-102535717D01*
X130595258Y-103081319D01*
X130594743Y-103672089D01*
X127564744Y-103672089D01*
X127565257Y-103083911D01*
X127339656Y-102537914D01*
X126922283Y-102119812D01*
X126376681Y-101893258D01*
X125785911Y-101892743D01*
X125239914Y-102118344D01*
X124821812Y-102535717D01*
X124595258Y-103081319D01*
X124594743Y-103672089D01*
X104595147Y-103672089D01*
X106032236Y-102235000D01*
X109469806Y-102235000D01*
X109484538Y-102270655D01*
X109943927Y-102730846D01*
X110544453Y-102980206D01*
X111194694Y-102980774D01*
X111795655Y-102732462D01*
X112030363Y-102498163D01*
X117518443Y-102498163D01*
X117617042Y-102764965D01*
X118226582Y-102991401D01*
X118876377Y-102967341D01*
X119364958Y-102764965D01*
X119463557Y-102498163D01*
X118491000Y-101525605D01*
X117518443Y-102498163D01*
X112030363Y-102498163D01*
X112255846Y-102273073D01*
X112505206Y-101672547D01*
X112505722Y-101081582D01*
X116845599Y-101081582D01*
X116869659Y-101731377D01*
X117072035Y-102219958D01*
X117338837Y-102318557D01*
X118311395Y-101346000D01*
X118670605Y-101346000D01*
X119643163Y-102318557D01*
X119909965Y-102219958D01*
X120136401Y-101610418D01*
X120112341Y-100960623D01*
X119909965Y-100472042D01*
X119643163Y-100373443D01*
X118670605Y-101346000D01*
X118311395Y-101346000D01*
X117338837Y-100373443D01*
X117072035Y-100472042D01*
X116845599Y-101081582D01*
X112505722Y-101081582D01*
X112505774Y-101022306D01*
X112257462Y-100421345D01*
X112030351Y-100193837D01*
X117518443Y-100193837D01*
X118491000Y-101166395D01*
X119463557Y-100193837D01*
X119364958Y-99927035D01*
X118755418Y-99700599D01*
X118105623Y-99724659D01*
X117617042Y-99927035D01*
X117518443Y-100193837D01*
X112030351Y-100193837D01*
X111798073Y-99961154D01*
X111197547Y-99711794D01*
X110547306Y-99711226D01*
X109946345Y-99959538D01*
X109486154Y-100418927D01*
X109470345Y-100457000D01*
X105664000Y-100457000D01*
X105323795Y-100524670D01*
X105035382Y-100717382D01*
X102742878Y-103009886D01*
X102743330Y-102492735D01*
X102453922Y-101792314D01*
X101918505Y-101255961D01*
X101218590Y-100965332D01*
X100460735Y-100964670D01*
X99760314Y-101254078D01*
X99223961Y-101789495D01*
X98933332Y-102489410D01*
X98932670Y-103247265D01*
X99222078Y-103947686D01*
X99757495Y-104484039D01*
X100457410Y-104774668D01*
X100977642Y-104775122D01*
X99453764Y-106299000D01*
X93472000Y-106299000D01*
X93131794Y-106366671D01*
X92911829Y-106513647D01*
X92843382Y-106559382D01*
X91827382Y-107575382D01*
X91634671Y-107863794D01*
X91567000Y-108204000D01*
X91567000Y-108588560D01*
X91506000Y-108588560D01*
X91270683Y-108632838D01*
X91054559Y-108771910D01*
X90909569Y-108984110D01*
X90858560Y-109236000D01*
X90858560Y-111236000D01*
X90902838Y-111471317D01*
X91041910Y-111687441D01*
X91254110Y-111832431D01*
X91506000Y-111883440D01*
X93406000Y-111883440D01*
X93641317Y-111839162D01*
X93857441Y-111700090D01*
X94002431Y-111487890D01*
X94003055Y-111484808D01*
X94096997Y-111578914D01*
X94679341Y-111820724D01*
X95309893Y-111821275D01*
X95319903Y-111817139D01*
X96653382Y-113150618D01*
X96941794Y-113343329D01*
X97282000Y-113411000D01*
X101005244Y-113411000D01*
X100342700Y-113684758D01*
X99716955Y-114309411D01*
X99377887Y-115125978D01*
X99377115Y-116010143D01*
X99714758Y-116827300D01*
X100286459Y-117400000D01*
X88340000Y-117400000D01*
X88340000Y-103247265D01*
X89534670Y-103247265D01*
X89824078Y-103947686D01*
X90359495Y-104484039D01*
X91059410Y-104774668D01*
X91817265Y-104775330D01*
X92517686Y-104485922D01*
X93054039Y-103950505D01*
X93344668Y-103250590D01*
X93345330Y-102492735D01*
X93055922Y-101792314D01*
X92520505Y-101255961D01*
X91820590Y-100965332D01*
X91062735Y-100964670D01*
X90362314Y-101254078D01*
X89825961Y-101789495D01*
X89535332Y-102489410D01*
X89534670Y-103247265D01*
X88340000Y-103247265D01*
X88340000Y-95252163D01*
X102627443Y-95252163D01*
X102726042Y-95518965D01*
X103335582Y-95745401D01*
X103985377Y-95721341D01*
X104473958Y-95518965D01*
X104572557Y-95252163D01*
X103600000Y-94279605D01*
X102627443Y-95252163D01*
X88340000Y-95252163D01*
X88340000Y-93835582D01*
X101954599Y-93835582D01*
X101978659Y-94485377D01*
X102181035Y-94973958D01*
X102447837Y-95072557D01*
X103420395Y-94100000D01*
X102447837Y-93127443D01*
X102181035Y-93226042D01*
X101954599Y-93835582D01*
X88340000Y-93835582D01*
X88340000Y-92947837D01*
X102627443Y-92947837D01*
X103600000Y-93920395D01*
X104572557Y-92947837D01*
X104473958Y-92681035D01*
X103864418Y-92454599D01*
X103214623Y-92478659D01*
X102726042Y-92681035D01*
X102627443Y-92947837D01*
X88340000Y-92947837D01*
X88340000Y-88794107D01*
X98415498Y-88794107D01*
X98516120Y-89062622D01*
X99131642Y-89291816D01*
X99788019Y-89268014D01*
X100283880Y-89062622D01*
X100384502Y-88794107D01*
X99400000Y-87809605D01*
X98415498Y-88794107D01*
X88340000Y-88794107D01*
X88340000Y-87361642D01*
X97738184Y-87361642D01*
X97761986Y-88018019D01*
X97967378Y-88513880D01*
X98235893Y-88614502D01*
X99220395Y-87630000D01*
X99579605Y-87630000D01*
X100564107Y-88614502D01*
X100832622Y-88513880D01*
X101061816Y-87898358D01*
X101038014Y-87241981D01*
X100856470Y-86803694D01*
X101965226Y-86803694D01*
X102213538Y-87404655D01*
X102672927Y-87864846D01*
X103273453Y-88114206D01*
X103923694Y-88114774D01*
X104524655Y-87866462D01*
X104984846Y-87407073D01*
X105234206Y-86806547D01*
X105234774Y-86156306D01*
X104986462Y-85555345D01*
X104527073Y-85095154D01*
X103926547Y-84845794D01*
X103276306Y-84845226D01*
X102675345Y-85093538D01*
X102215154Y-85552927D01*
X101965794Y-86153453D01*
X101965226Y-86803694D01*
X100856470Y-86803694D01*
X100832622Y-86746120D01*
X100564107Y-86645498D01*
X99579605Y-87630000D01*
X99220395Y-87630000D01*
X98235893Y-86645498D01*
X97967378Y-86746120D01*
X97738184Y-87361642D01*
X88340000Y-87361642D01*
X88340000Y-86465893D01*
X98415498Y-86465893D01*
X99400000Y-87450395D01*
X100384502Y-86465893D01*
X100283880Y-86197378D01*
X99668358Y-85968184D01*
X99011981Y-85991986D01*
X98516120Y-86197378D01*
X98415498Y-86465893D01*
X88340000Y-86465893D01*
X88340000Y-68454946D01*
X91358017Y-68454946D01*
X91626812Y-69040379D01*
X92099182Y-69478385D01*
X92581056Y-69677975D01*
X92837000Y-69558836D01*
X92837000Y-68199000D01*
X91476633Y-68199000D01*
X91358017Y-68454946D01*
X88340000Y-68454946D01*
X88340000Y-67689054D01*
X91358017Y-67689054D01*
X91476633Y-67945000D01*
X92837000Y-67945000D01*
X92837000Y-66585164D01*
X93091000Y-66585164D01*
X93091000Y-67945000D01*
X93111000Y-67945000D01*
X93111000Y-68199000D01*
X93091000Y-68199000D01*
X93091000Y-69558836D01*
X93346944Y-69677975D01*
X93828818Y-69478385D01*
X93926398Y-69387903D01*
X94023910Y-69539441D01*
X94236110Y-69684431D01*
X94488000Y-69735440D01*
X94615000Y-69735440D01*
X94615000Y-78654000D01*
X94682671Y-78994206D01*
X94844691Y-79236685D01*
X94875382Y-79282618D01*
X97767957Y-82175193D01*
X97749287Y-82220155D01*
X97748714Y-82876963D01*
X97999534Y-83483995D01*
X98463563Y-83948834D01*
X99070155Y-84200713D01*
X99726963Y-84201286D01*
X100333995Y-83950466D01*
X100798834Y-83486437D01*
X100974164Y-83064194D01*
X101870226Y-83064194D01*
X102118538Y-83665155D01*
X102577927Y-84125346D01*
X103178453Y-84374706D01*
X103828694Y-84375274D01*
X104429655Y-84126962D01*
X104889846Y-83667573D01*
X105139206Y-83067047D01*
X105139774Y-82416806D01*
X104891462Y-81815845D01*
X104432073Y-81355654D01*
X103831547Y-81106294D01*
X103181306Y-81105726D01*
X102580345Y-81354038D01*
X102120154Y-81813427D01*
X101870794Y-82413953D01*
X101870226Y-83064194D01*
X100974164Y-83064194D01*
X101050713Y-82879845D01*
X101051286Y-82223037D01*
X100800466Y-81616005D01*
X100336437Y-81151166D01*
X99729845Y-80899287D01*
X99073037Y-80898714D01*
X99025565Y-80918329D01*
X96393000Y-78285764D01*
X96393000Y-69735440D01*
X96520000Y-69735440D01*
X96755317Y-69691162D01*
X96971441Y-69552090D01*
X97116431Y-69339890D01*
X97167440Y-69088000D01*
X97167440Y-67056000D01*
X97123162Y-66820683D01*
X96984090Y-66604559D01*
X96771890Y-66459569D01*
X96520000Y-66408560D01*
X94488000Y-66408560D01*
X94252683Y-66452838D01*
X94036559Y-66591910D01*
X93925160Y-66754948D01*
X93828818Y-66665615D01*
X93346944Y-66466025D01*
X93091000Y-66585164D01*
X92837000Y-66585164D01*
X92581056Y-66466025D01*
X92099182Y-66665615D01*
X91626812Y-67103621D01*
X91358017Y-67689054D01*
X88340000Y-67689054D01*
X88340000Y-65480000D01*
X101557361Y-65480000D01*
X100986955Y-66049411D01*
G36*
X114173000Y-67183000D02*
X114193000Y-67183000D01*
X114193000Y-67437000D01*
X114173000Y-67437000D01*
X114173000Y-69049720D01*
X114389070Y-69172220D01*
X114463277Y-69157260D01*
X114944026Y-68895630D01*
X115288059Y-68469941D01*
X115306670Y-68406887D01*
X115598172Y-68843149D01*
X116051391Y-69145981D01*
X116398374Y-69215000D01*
X111693626Y-69215000D01*
X112040609Y-69145981D01*
X112493828Y-68843149D01*
X112785330Y-68406887D01*
X112803941Y-68469941D01*
X113147974Y-68895630D01*
X113628723Y-69157260D01*
X113702930Y-69172220D01*
X113919000Y-69049720D01*
X113919000Y-67437000D01*
X113899000Y-67437000D01*
X113899000Y-67183000D01*
X113919000Y-67183000D01*
X113919000Y-67163000D01*
X114173000Y-67163000D01*
X114173000Y-67183000D01*
X114173000Y-67183000D01*
G37*
X114173000Y-67183000D02*
X114193000Y-67183000D01*
X114193000Y-67437000D01*
X114173000Y-67437000D01*
X114173000Y-69049720D01*
X114389070Y-69172220D01*
X114463277Y-69157260D01*
X114944026Y-68895630D01*
X115288059Y-68469941D01*
X115306670Y-68406887D01*
X115598172Y-68843149D01*
X116051391Y-69145981D01*
X116398374Y-69215000D01*
X111693626Y-69215000D01*
X112040609Y-69145981D01*
X112493828Y-68843149D01*
X112785330Y-68406887D01*
X112803941Y-68469941D01*
X113147974Y-68895630D01*
X113628723Y-69157260D01*
X113702930Y-69172220D01*
X113919000Y-69049720D01*
X113919000Y-67437000D01*
X113899000Y-67437000D01*
X113899000Y-67183000D01*
X113919000Y-67183000D01*
X113919000Y-67163000D01*
X114173000Y-67163000D01*
X114173000Y-67183000D01*
M02*
