G04 #@! TF.FileFunction,Copper,L2,Bot,Signal*
%FSLAX46Y46*%
G04 Gerber Fmt 4.6, Leading zero omitted, Abs format (unit mm)*
G04 Created by KiCad (PCBNEW 4.0.1-3.201512221402+6198~38~ubuntu14.04.1-stable) date Sat 30 Apr 2016 11:46:46 AM PDT*
%MOMM*%
G01*
G04 APERTURE LIST*
%ADD10C,0.100000*%
%ADD11C,1.700000*%
%ADD12R,2.032000X1.727200*%
%ADD13O,2.032000X1.727200*%
%ADD14R,1.900000X2.000000*%
%ADD15C,1.900000*%
%ADD16C,1.998980*%
%ADD17C,2.032000*%
%ADD18C,2.540000*%
%ADD19R,2.032000X2.032000*%
%ADD20O,2.032000X2.032000*%
%ADD21O,1.524000X2.540000*%
%ADD22C,0.685800*%
%ADD23C,0.508000*%
%ADD24C,0.330200*%
%ADD25C,0.254000*%
G04 APERTURE END LIST*
D10*
D11*
X132080000Y-107378000D03*
X126080000Y-107378000D03*
X132080000Y-103378000D03*
X126080000Y-103378000D03*
D12*
X127254000Y-80899000D03*
D13*
X127254000Y-83439000D03*
X127254000Y-85979000D03*
X127254000Y-88519000D03*
X127254000Y-91059000D03*
X127254000Y-93599000D03*
X127254000Y-96139000D03*
D14*
X92456000Y-110236000D03*
D15*
X94996000Y-110236000D03*
D14*
X105664000Y-109728000D03*
D15*
X108204000Y-109728000D03*
D16*
X110871000Y-101346000D03*
X118491000Y-101346000D03*
X110871000Y-105981500D03*
X118491000Y-105981500D03*
X103505000Y-82740500D03*
X103505000Y-75120500D03*
X103600000Y-86480000D03*
X103600000Y-94100000D03*
D17*
X99400000Y-77470000D03*
X99400000Y-82550000D03*
X99400000Y-87630000D03*
D18*
X100838000Y-102870000D03*
X96139000Y-102870000D03*
X91440000Y-102870000D03*
D19*
X95504000Y-68072000D03*
D20*
X92964000Y-68072000D03*
D21*
X151130000Y-115570000D03*
X148590000Y-115570000D03*
X146050000Y-115570000D03*
X138430000Y-115570000D03*
X140970000Y-115570000D03*
X143510000Y-115570000D03*
X133350000Y-115570000D03*
X130810000Y-115570000D03*
X128270000Y-115570000D03*
X123190000Y-115570000D03*
X120650000Y-115570000D03*
X151130000Y-67310000D03*
X148590000Y-67310000D03*
X146050000Y-67310000D03*
X143510000Y-67310000D03*
X140970000Y-67310000D03*
X138430000Y-67310000D03*
X135890000Y-67310000D03*
X133350000Y-67310000D03*
X129286000Y-67310000D03*
X126746000Y-67310000D03*
X124206000Y-67310000D03*
X121666000Y-67310000D03*
X119126000Y-67310000D03*
X116586000Y-67310000D03*
X114046000Y-67310000D03*
X111506000Y-67310000D03*
X125730000Y-115570000D03*
X108966000Y-67310000D03*
X106426000Y-67310000D03*
X118110000Y-115570000D03*
X115570000Y-115570000D03*
D22*
X113284000Y-90678000D03*
X141478000Y-109728000D03*
X140970000Y-104140000D03*
X144780000Y-74930000D03*
X134366000Y-89281000D03*
D23*
X125730000Y-115570000D02*
X125730000Y-111760000D01*
X125730000Y-111760000D02*
X128270000Y-109220000D01*
X128270000Y-109220000D02*
X128270000Y-102108000D01*
X128270000Y-102108000D02*
X126746000Y-100584000D01*
X126746000Y-100584000D02*
X123190000Y-100584000D01*
X123190000Y-100584000D02*
X113284000Y-90678000D01*
D24*
X144907000Y-111379000D02*
X143129000Y-111379000D01*
X143129000Y-111379000D02*
X141478000Y-109728000D01*
X148590000Y-115570000D02*
X148590000Y-115062000D01*
X148590000Y-115062000D02*
X144907000Y-111379000D01*
D23*
X120650000Y-115570000D02*
X120650000Y-107696000D01*
X124877919Y-103378000D02*
X120650000Y-107605919D01*
X120650000Y-107605919D02*
X120650000Y-107696000D01*
X126080000Y-103378000D02*
X124877919Y-103378000D01*
X103600000Y-86480000D02*
X103600000Y-89100000D01*
X103600000Y-89100000D02*
X100838000Y-91862000D01*
X100838000Y-91862000D02*
X100838000Y-102870000D01*
X108458000Y-75692000D02*
X108458000Y-81400000D01*
X108458000Y-81400000D02*
X108458000Y-81788000D01*
X103600000Y-86480000D02*
X105013492Y-86480000D01*
X105013492Y-86480000D02*
X108458000Y-83035492D01*
X108458000Y-83035492D02*
X108458000Y-81400000D01*
X129286000Y-67310000D02*
X129286000Y-68834000D01*
X111506000Y-72644000D02*
X108458000Y-75692000D01*
X125476000Y-72644000D02*
X111506000Y-72644000D01*
X129286000Y-68834000D02*
X125476000Y-72644000D01*
X95504000Y-85090000D02*
X91694000Y-88900000D01*
X91440000Y-102870000D02*
X91440000Y-89154000D01*
X91440000Y-89154000D02*
X91694000Y-88900000D01*
X96774000Y-85090000D02*
X95504000Y-85090000D01*
X101155500Y-85090000D02*
X96774000Y-85090000D01*
X103505000Y-82740500D02*
X101155500Y-85090000D01*
X124460000Y-71120000D02*
X110490000Y-71120000D01*
X126746000Y-68834000D02*
X124460000Y-71120000D01*
X126746000Y-67310000D02*
X126746000Y-68834000D01*
X106680000Y-79565500D02*
X103505000Y-82740500D01*
X106680000Y-74930000D02*
X106680000Y-79565500D01*
X110490000Y-71120000D02*
X106680000Y-74930000D01*
D24*
X133350000Y-67310000D02*
X132257800Y-67310000D01*
X123190000Y-93853000D02*
X123190000Y-96520000D01*
X132257800Y-67310000D02*
X125907800Y-73660000D01*
X125907800Y-73660000D02*
X119380000Y-73660000D01*
X119380000Y-73660000D02*
X116840000Y-76200000D01*
X116840000Y-76200000D02*
X116840000Y-87503000D01*
X116840000Y-87503000D02*
X123190000Y-93853000D01*
X123190000Y-96520000D02*
X125349000Y-98679000D01*
X125349000Y-98679000D02*
X135509000Y-98679000D01*
X135509000Y-98679000D02*
X140627101Y-103797101D01*
X140627101Y-103797101D02*
X140970000Y-104140000D01*
X138430000Y-67310000D02*
X138430000Y-68580000D01*
X138430000Y-68580000D02*
X139700000Y-69850000D01*
X139700000Y-69850000D02*
X143510000Y-69850000D01*
X143510000Y-69850000D02*
X144780000Y-71120000D01*
X144780000Y-71120000D02*
X144780000Y-74930000D01*
X130810000Y-85725000D02*
X134366000Y-89281000D01*
X130810000Y-85090000D02*
X130810000Y-85725000D01*
X130810000Y-85090000D02*
X130810000Y-76200000D01*
X130810000Y-76200000D02*
X135890000Y-71120000D01*
X135890000Y-71120000D02*
X135890000Y-67310000D01*
D25*
G36*
X100986955Y-66049411D02*
X100647887Y-66865978D01*
X100647115Y-67750143D01*
X100984758Y-68567300D01*
X101609411Y-69193045D01*
X102425978Y-69532113D01*
X103310143Y-69532885D01*
X104127300Y-69195242D01*
X104753045Y-68570589D01*
X105035818Y-67889596D01*
X105135340Y-68389930D01*
X105438172Y-68843149D01*
X105891391Y-69145981D01*
X106426000Y-69252321D01*
X106960609Y-69145981D01*
X107413828Y-68843149D01*
X107696000Y-68420850D01*
X107978172Y-68843149D01*
X108431391Y-69145981D01*
X108966000Y-69252321D01*
X109500609Y-69145981D01*
X109953828Y-68843149D01*
X110236000Y-68420850D01*
X110518172Y-68843149D01*
X110971391Y-69145981D01*
X111506000Y-69252321D01*
X112040609Y-69145981D01*
X112493828Y-68843149D01*
X112785330Y-68406887D01*
X112803941Y-68469941D01*
X113147974Y-68895630D01*
X113628723Y-69157260D01*
X113702930Y-69172220D01*
X113919000Y-69049720D01*
X113919000Y-67437000D01*
X113899000Y-67437000D01*
X113899000Y-67183000D01*
X113919000Y-67183000D01*
X113919000Y-67163000D01*
X114173000Y-67163000D01*
X114173000Y-67183000D01*
X114193000Y-67183000D01*
X114193000Y-67437000D01*
X114173000Y-67437000D01*
X114173000Y-69049720D01*
X114389070Y-69172220D01*
X114463277Y-69157260D01*
X114944026Y-68895630D01*
X115288059Y-68469941D01*
X115306670Y-68406887D01*
X115598172Y-68843149D01*
X116051391Y-69145981D01*
X116586000Y-69252321D01*
X117120609Y-69145981D01*
X117573828Y-68843149D01*
X117856000Y-68420850D01*
X118138172Y-68843149D01*
X118591391Y-69145981D01*
X119126000Y-69252321D01*
X119660609Y-69145981D01*
X120113828Y-68843149D01*
X120396000Y-68420850D01*
X120678172Y-68843149D01*
X121131391Y-69145981D01*
X121666000Y-69252321D01*
X122200609Y-69145981D01*
X122653828Y-68843149D01*
X122936000Y-68420850D01*
X123218172Y-68843149D01*
X123671391Y-69145981D01*
X124206000Y-69252321D01*
X124740609Y-69145981D01*
X125193828Y-68843149D01*
X125476000Y-68420850D01*
X125646598Y-68676166D01*
X124091764Y-70231000D01*
X110490000Y-70231000D01*
X110149795Y-70298670D01*
X109861382Y-70491382D01*
X106051382Y-74301382D01*
X105858671Y-74589794D01*
X105791000Y-74930000D01*
X105791000Y-79197264D01*
X103867176Y-81121088D01*
X103831547Y-81106294D01*
X103181306Y-81105726D01*
X102580345Y-81354038D01*
X102120154Y-81813427D01*
X101870794Y-82413953D01*
X101870226Y-83064194D01*
X101885969Y-83102295D01*
X100787264Y-84201000D01*
X99727655Y-84201000D01*
X100333995Y-83950466D01*
X100798834Y-83486437D01*
X101050713Y-82879845D01*
X101051286Y-82223037D01*
X100800466Y-81616005D01*
X100336437Y-81151166D01*
X99729845Y-80899287D01*
X99073037Y-80898714D01*
X98466005Y-81149534D01*
X98001166Y-81613563D01*
X97749287Y-82220155D01*
X97748714Y-82876963D01*
X97999534Y-83483995D01*
X98463563Y-83948834D01*
X99070155Y-84200713D01*
X99399132Y-84201000D01*
X95504000Y-84201000D01*
X95163795Y-84268670D01*
X94875382Y-84461382D01*
X90811382Y-88525382D01*
X90618671Y-88813794D01*
X90551000Y-89154000D01*
X90551000Y-101176115D01*
X90362314Y-101254078D01*
X89825961Y-101789495D01*
X89535332Y-102489410D01*
X89534670Y-103247265D01*
X89824078Y-103947686D01*
X90359495Y-104484039D01*
X91059410Y-104774668D01*
X91817265Y-104775330D01*
X92517686Y-104485922D01*
X93054039Y-103950505D01*
X93344668Y-103250590D01*
X93344670Y-103247265D01*
X94233670Y-103247265D01*
X94523078Y-103947686D01*
X95058495Y-104484039D01*
X95758410Y-104774668D01*
X96516265Y-104775330D01*
X97216686Y-104485922D01*
X97753039Y-103950505D01*
X98043668Y-103250590D01*
X98044330Y-102492735D01*
X97754922Y-101792314D01*
X97219505Y-101255961D01*
X96519590Y-100965332D01*
X95761735Y-100964670D01*
X95061314Y-101254078D01*
X94524961Y-101789495D01*
X94234332Y-102489410D01*
X94233670Y-103247265D01*
X93344670Y-103247265D01*
X93345330Y-102492735D01*
X93055922Y-101792314D01*
X92520505Y-101255961D01*
X92329000Y-101176441D01*
X92329000Y-89522236D01*
X93057129Y-88794107D01*
X98415498Y-88794107D01*
X98516120Y-89062622D01*
X99131642Y-89291816D01*
X99788019Y-89268014D01*
X100283880Y-89062622D01*
X100384502Y-88794107D01*
X99400000Y-87809605D01*
X98415498Y-88794107D01*
X93057129Y-88794107D01*
X94489594Y-87361642D01*
X97738184Y-87361642D01*
X97761986Y-88018019D01*
X97967378Y-88513880D01*
X98235893Y-88614502D01*
X99220395Y-87630000D01*
X99579605Y-87630000D01*
X100564107Y-88614502D01*
X100832622Y-88513880D01*
X101061816Y-87898358D01*
X101038014Y-87241981D01*
X100832622Y-86746120D01*
X100564107Y-86645498D01*
X99579605Y-87630000D01*
X99220395Y-87630000D01*
X98235893Y-86645498D01*
X97967378Y-86746120D01*
X97738184Y-87361642D01*
X94489594Y-87361642D01*
X95872236Y-85979000D01*
X99370090Y-85979000D01*
X99011981Y-85991986D01*
X98516120Y-86197378D01*
X98415498Y-86465893D01*
X99400000Y-87450395D01*
X100384502Y-86465893D01*
X100283880Y-86197378D01*
X99697405Y-85979000D01*
X101155500Y-85979000D01*
X101495706Y-85911329D01*
X101784118Y-85718618D01*
X103142824Y-84359912D01*
X103178453Y-84374706D01*
X103828694Y-84375274D01*
X104429655Y-84126962D01*
X104889846Y-83667573D01*
X105139206Y-83067047D01*
X105139774Y-82416806D01*
X105124031Y-82378705D01*
X107308618Y-80194118D01*
X107501329Y-79905706D01*
X107569000Y-79565500D01*
X107569000Y-82667256D01*
X104833820Y-85402436D01*
X104527073Y-85095154D01*
X103926547Y-84845794D01*
X103276306Y-84845226D01*
X102675345Y-85093538D01*
X102215154Y-85552927D01*
X101965794Y-86153453D01*
X101965226Y-86803694D01*
X102213538Y-87404655D01*
X102672927Y-87864846D01*
X102711000Y-87880655D01*
X102711000Y-88731764D01*
X100209382Y-91233382D01*
X100016671Y-91521794D01*
X99949000Y-91862000D01*
X99949000Y-101176115D01*
X99760314Y-101254078D01*
X99223961Y-101789495D01*
X98933332Y-102489410D01*
X98932670Y-103247265D01*
X99222078Y-103947686D01*
X99757495Y-104484039D01*
X100457410Y-104774668D01*
X101215265Y-104775330D01*
X101915686Y-104485922D01*
X102452039Y-103950505D01*
X102742668Y-103250590D01*
X102743330Y-102492735D01*
X102453922Y-101792314D01*
X102331516Y-101669694D01*
X109236226Y-101669694D01*
X109484538Y-102270655D01*
X109943927Y-102730846D01*
X110544453Y-102980206D01*
X111194694Y-102980774D01*
X111795655Y-102732462D01*
X112030363Y-102498163D01*
X117518443Y-102498163D01*
X117617042Y-102764965D01*
X118226582Y-102991401D01*
X118876377Y-102967341D01*
X119364958Y-102764965D01*
X119463557Y-102498163D01*
X118491000Y-101525605D01*
X117518443Y-102498163D01*
X112030363Y-102498163D01*
X112255846Y-102273073D01*
X112505206Y-101672547D01*
X112505722Y-101081582D01*
X116845599Y-101081582D01*
X116869659Y-101731377D01*
X117072035Y-102219958D01*
X117338837Y-102318557D01*
X118311395Y-101346000D01*
X118670605Y-101346000D01*
X119643163Y-102318557D01*
X119909965Y-102219958D01*
X120136401Y-101610418D01*
X120112341Y-100960623D01*
X119909965Y-100472042D01*
X119643163Y-100373443D01*
X118670605Y-101346000D01*
X118311395Y-101346000D01*
X117338837Y-100373443D01*
X117072035Y-100472042D01*
X116845599Y-101081582D01*
X112505722Y-101081582D01*
X112505774Y-101022306D01*
X112257462Y-100421345D01*
X112030351Y-100193837D01*
X117518443Y-100193837D01*
X118491000Y-101166395D01*
X119463557Y-100193837D01*
X119364958Y-99927035D01*
X118755418Y-99700599D01*
X118105623Y-99724659D01*
X117617042Y-99927035D01*
X117518443Y-100193837D01*
X112030351Y-100193837D01*
X111798073Y-99961154D01*
X111197547Y-99711794D01*
X110547306Y-99711226D01*
X109946345Y-99959538D01*
X109486154Y-100418927D01*
X109236794Y-101019453D01*
X109236226Y-101669694D01*
X102331516Y-101669694D01*
X101918505Y-101255961D01*
X101727000Y-101176441D01*
X101727000Y-95252163D01*
X102627443Y-95252163D01*
X102726042Y-95518965D01*
X103335582Y-95745401D01*
X103985377Y-95721341D01*
X104066767Y-95687628D01*
X108914817Y-95687628D01*
X109250530Y-96500116D01*
X109871614Y-97122285D01*
X110683515Y-97459416D01*
X111562628Y-97460183D01*
X112375116Y-97124470D01*
X112997285Y-96503386D01*
X113334416Y-95691485D01*
X113335183Y-94812372D01*
X112999470Y-93999884D01*
X112378386Y-93377715D01*
X111566485Y-93040584D01*
X110687372Y-93039817D01*
X109874884Y-93375530D01*
X109252715Y-93996614D01*
X108915584Y-94808515D01*
X108914817Y-95687628D01*
X104066767Y-95687628D01*
X104473958Y-95518965D01*
X104572557Y-95252163D01*
X103600000Y-94279605D01*
X102627443Y-95252163D01*
X101727000Y-95252163D01*
X101727000Y-93835582D01*
X101954599Y-93835582D01*
X101978659Y-94485377D01*
X102181035Y-94973958D01*
X102447837Y-95072557D01*
X103420395Y-94100000D01*
X103779605Y-94100000D01*
X104752163Y-95072557D01*
X105018965Y-94973958D01*
X105245401Y-94364418D01*
X105221341Y-93714623D01*
X105018965Y-93226042D01*
X104752163Y-93127443D01*
X103779605Y-94100000D01*
X103420395Y-94100000D01*
X102447837Y-93127443D01*
X102181035Y-93226042D01*
X101954599Y-93835582D01*
X101727000Y-93835582D01*
X101727000Y-92947837D01*
X102627443Y-92947837D01*
X103600000Y-93920395D01*
X104572557Y-92947837D01*
X104473958Y-92681035D01*
X103864418Y-92454599D01*
X103214623Y-92478659D01*
X102726042Y-92681035D01*
X102627443Y-92947837D01*
X101727000Y-92947837D01*
X101727000Y-92230236D01*
X104228618Y-89728618D01*
X104233488Y-89721329D01*
X104421329Y-89440206D01*
X104489000Y-89100000D01*
X104489000Y-87881194D01*
X104524655Y-87866462D01*
X104984846Y-87407073D01*
X105000655Y-87369000D01*
X105013492Y-87369000D01*
X105353698Y-87301329D01*
X105642110Y-87108618D01*
X109086618Y-83664110D01*
X109206967Y-83483995D01*
X109279329Y-83375698D01*
X109347000Y-83035492D01*
X109347000Y-76060236D01*
X111874236Y-73533000D01*
X118375488Y-73533000D01*
X116274244Y-75634244D01*
X116100804Y-75893815D01*
X116039900Y-76200000D01*
X116039900Y-87503000D01*
X116100804Y-87809185D01*
X116274244Y-88068756D01*
X122389900Y-94184412D01*
X122389900Y-96520000D01*
X122450804Y-96826185D01*
X122624244Y-97085756D01*
X124783244Y-99244756D01*
X125042815Y-99418196D01*
X125349000Y-99479100D01*
X135177588Y-99479100D01*
X139991966Y-104293478D01*
X139991931Y-104333663D01*
X140140493Y-104693212D01*
X140415341Y-104968540D01*
X140774630Y-105117730D01*
X141163663Y-105118069D01*
X141523212Y-104969507D01*
X141798540Y-104694659D01*
X141947730Y-104335370D01*
X141948069Y-103946337D01*
X141799507Y-103586788D01*
X141524659Y-103311460D01*
X141165370Y-103162270D01*
X141123746Y-103162234D01*
X136074756Y-98113244D01*
X135815185Y-97939804D01*
X135509000Y-97878900D01*
X125680412Y-97878900D01*
X123990100Y-96188588D01*
X123990100Y-93853000D01*
X123929196Y-93546815D01*
X123755756Y-93287244D01*
X117640100Y-87171588D01*
X117640100Y-83439000D01*
X125570655Y-83439000D01*
X125684729Y-84012489D01*
X126009585Y-84498670D01*
X126324366Y-84709000D01*
X126009585Y-84919330D01*
X125684729Y-85405511D01*
X125570655Y-85979000D01*
X125684729Y-86552489D01*
X126009585Y-87038670D01*
X126324366Y-87249000D01*
X126009585Y-87459330D01*
X125684729Y-87945511D01*
X125570655Y-88519000D01*
X125684729Y-89092489D01*
X126009585Y-89578670D01*
X126324366Y-89789000D01*
X126009585Y-89999330D01*
X125684729Y-90485511D01*
X125570655Y-91059000D01*
X125684729Y-91632489D01*
X126009585Y-92118670D01*
X126324366Y-92329000D01*
X126009585Y-92539330D01*
X125684729Y-93025511D01*
X125570655Y-93599000D01*
X125684729Y-94172489D01*
X126009585Y-94658670D01*
X126324366Y-94869000D01*
X126009585Y-95079330D01*
X125684729Y-95565511D01*
X125570655Y-96139000D01*
X125684729Y-96712489D01*
X126009585Y-97198670D01*
X126495766Y-97523526D01*
X127069255Y-97637600D01*
X127438745Y-97637600D01*
X128012234Y-97523526D01*
X128498415Y-97198670D01*
X128823271Y-96712489D01*
X128937345Y-96139000D01*
X128823271Y-95565511D01*
X128498415Y-95079330D01*
X128183634Y-94869000D01*
X128498415Y-94658670D01*
X128823271Y-94172489D01*
X128937345Y-93599000D01*
X128823271Y-93025511D01*
X128498415Y-92539330D01*
X128183634Y-92329000D01*
X128498415Y-92118670D01*
X128823271Y-91632489D01*
X128937345Y-91059000D01*
X128823271Y-90485511D01*
X128498415Y-89999330D01*
X128183634Y-89789000D01*
X128498415Y-89578670D01*
X128823271Y-89092489D01*
X128937345Y-88519000D01*
X128823271Y-87945511D01*
X128498415Y-87459330D01*
X128183634Y-87249000D01*
X128498415Y-87038670D01*
X128823271Y-86552489D01*
X128937345Y-85979000D01*
X128823271Y-85405511D01*
X128498415Y-84919330D01*
X128183634Y-84709000D01*
X128498415Y-84498670D01*
X128823271Y-84012489D01*
X128937345Y-83439000D01*
X128823271Y-82865511D01*
X128498415Y-82379330D01*
X128476220Y-82364500D01*
X128629698Y-82300927D01*
X128808327Y-82122299D01*
X128905000Y-81888910D01*
X128905000Y-81184750D01*
X128746250Y-81026000D01*
X127381000Y-81026000D01*
X127381000Y-81046000D01*
X127127000Y-81046000D01*
X127127000Y-81026000D01*
X125761750Y-81026000D01*
X125603000Y-81184750D01*
X125603000Y-81888910D01*
X125699673Y-82122299D01*
X125878302Y-82300927D01*
X126031780Y-82364500D01*
X126009585Y-82379330D01*
X125684729Y-82865511D01*
X125570655Y-83439000D01*
X117640100Y-83439000D01*
X117640100Y-78669628D01*
X121868817Y-78669628D01*
X122204530Y-79482116D01*
X122825614Y-80104285D01*
X123637515Y-80441416D01*
X124516628Y-80442183D01*
X125329116Y-80106470D01*
X125656693Y-79779465D01*
X125603000Y-79909090D01*
X125603000Y-80613250D01*
X125761750Y-80772000D01*
X127127000Y-80772000D01*
X127127000Y-79559150D01*
X127381000Y-79559150D01*
X127381000Y-80772000D01*
X128746250Y-80772000D01*
X128905000Y-80613250D01*
X128905000Y-79909090D01*
X128808327Y-79675701D01*
X128629698Y-79497073D01*
X128396309Y-79400400D01*
X127539750Y-79400400D01*
X127381000Y-79559150D01*
X127127000Y-79559150D01*
X126968250Y-79400400D01*
X126111691Y-79400400D01*
X125960584Y-79462990D01*
X126288416Y-78673485D01*
X126289183Y-77794372D01*
X125953470Y-76981884D01*
X125332386Y-76359715D01*
X124520485Y-76022584D01*
X123641372Y-76021817D01*
X122828884Y-76357530D01*
X122206715Y-76978614D01*
X121869584Y-77790515D01*
X121868817Y-78669628D01*
X117640100Y-78669628D01*
X117640100Y-76531412D01*
X119711412Y-74460100D01*
X125907800Y-74460100D01*
X126213985Y-74399196D01*
X126473556Y-74225756D01*
X132159493Y-68539819D01*
X132362172Y-68843149D01*
X132815391Y-69145981D01*
X133350000Y-69252321D01*
X133884609Y-69145981D01*
X134337828Y-68843149D01*
X134620000Y-68420850D01*
X134902172Y-68843149D01*
X135089900Y-68968585D01*
X135089900Y-70788588D01*
X130244244Y-75634244D01*
X130070804Y-75893815D01*
X130009900Y-76200000D01*
X130009900Y-85725000D01*
X130070804Y-86031185D01*
X130244244Y-86290756D01*
X133387966Y-89434478D01*
X133387931Y-89474663D01*
X133536493Y-89834212D01*
X133811341Y-90109540D01*
X134170630Y-90258730D01*
X134559663Y-90259069D01*
X134919212Y-90110507D01*
X135194540Y-89835659D01*
X135343730Y-89476370D01*
X135344069Y-89087337D01*
X135195507Y-88727788D01*
X134920659Y-88452460D01*
X134561370Y-88303270D01*
X134519746Y-88303234D01*
X131610100Y-85393588D01*
X131610100Y-82990143D01*
X151447115Y-82990143D01*
X151784758Y-83807300D01*
X152409411Y-84433045D01*
X153225978Y-84772113D01*
X154110143Y-84772885D01*
X154927300Y-84435242D01*
X155553045Y-83810589D01*
X155892113Y-82994022D01*
X155892885Y-82109857D01*
X155555242Y-81292700D01*
X154930589Y-80666955D01*
X154114022Y-80327887D01*
X153229857Y-80327115D01*
X152412700Y-80664758D01*
X151786955Y-81289411D01*
X151447887Y-82105978D01*
X151447115Y-82990143D01*
X131610100Y-82990143D01*
X131610100Y-76531412D01*
X136455756Y-71685756D01*
X136629196Y-71426185D01*
X136690100Y-71120000D01*
X136690100Y-68968585D01*
X136877828Y-68843149D01*
X137160000Y-68420850D01*
X137442172Y-68843149D01*
X137839393Y-69108565D01*
X137864244Y-69145756D01*
X139134244Y-70415756D01*
X139393815Y-70589196D01*
X139700000Y-70650100D01*
X143178588Y-70650100D01*
X143979900Y-71451412D01*
X143979900Y-74346951D01*
X143951460Y-74375341D01*
X143802270Y-74734630D01*
X143801931Y-75123663D01*
X143950493Y-75483212D01*
X144225341Y-75758540D01*
X144584630Y-75907730D01*
X144973663Y-75908069D01*
X145333212Y-75759507D01*
X145608540Y-75484659D01*
X145757730Y-75125370D01*
X145758069Y-74736337D01*
X145609507Y-74376788D01*
X145580100Y-74347330D01*
X145580100Y-71120000D01*
X145519196Y-70813815D01*
X145345756Y-70554244D01*
X144075756Y-69284244D01*
X143909155Y-69172924D01*
X144044609Y-69145981D01*
X144497828Y-68843149D01*
X144780000Y-68420850D01*
X145062172Y-68843149D01*
X145515391Y-69145981D01*
X146050000Y-69252321D01*
X146584609Y-69145981D01*
X147037828Y-68843149D01*
X147320000Y-68420850D01*
X147602172Y-68843149D01*
X148055391Y-69145981D01*
X148590000Y-69252321D01*
X149124609Y-69145981D01*
X149577828Y-68843149D01*
X149860000Y-68420850D01*
X150142172Y-68843149D01*
X150595391Y-69145981D01*
X151130000Y-69252321D01*
X151664609Y-69145981D01*
X152117828Y-68843149D01*
X152420660Y-68389930D01*
X152527000Y-67855321D01*
X152527000Y-66764679D01*
X152420660Y-66230070D01*
X152117828Y-65776851D01*
X151673560Y-65480000D01*
X152105908Y-65480000D01*
X152960000Y-66334092D01*
X152960000Y-77470000D01*
X153014046Y-77741705D01*
X153167954Y-77972046D01*
X158040000Y-82844092D01*
X158040000Y-110195908D01*
X153167954Y-115067954D01*
X153014046Y-115298295D01*
X152960000Y-115570000D01*
X152960000Y-117400000D01*
X151673560Y-117400000D01*
X152117828Y-117103149D01*
X152420660Y-116649930D01*
X152527000Y-116115321D01*
X152527000Y-115024679D01*
X152420660Y-114490070D01*
X152117828Y-114036851D01*
X151664609Y-113734019D01*
X151130000Y-113627679D01*
X150595391Y-113734019D01*
X150142172Y-114036851D01*
X149860000Y-114459150D01*
X149577828Y-114036851D01*
X149124609Y-113734019D01*
X148590000Y-113627679D01*
X148337430Y-113677918D01*
X145589655Y-110930143D01*
X151447115Y-110930143D01*
X151784758Y-111747300D01*
X152409411Y-112373045D01*
X153225978Y-112712113D01*
X154110143Y-112712885D01*
X154927300Y-112375242D01*
X155553045Y-111750589D01*
X155892113Y-110934022D01*
X155892885Y-110049857D01*
X155555242Y-109232700D01*
X154930589Y-108606955D01*
X154114022Y-108267887D01*
X153229857Y-108267115D01*
X152412700Y-108604758D01*
X151786955Y-109229411D01*
X151447887Y-110045978D01*
X151447115Y-110930143D01*
X145589655Y-110930143D01*
X145472756Y-110813244D01*
X145213185Y-110639804D01*
X144907000Y-110578900D01*
X143460412Y-110578900D01*
X142456034Y-109574522D01*
X142456069Y-109534337D01*
X142307507Y-109174788D01*
X142032659Y-108899460D01*
X141673370Y-108750270D01*
X141284337Y-108749931D01*
X140924788Y-108898493D01*
X140649460Y-109173341D01*
X140500270Y-109532630D01*
X140499931Y-109921663D01*
X140648493Y-110281212D01*
X140923341Y-110556540D01*
X141282630Y-110705730D01*
X141324254Y-110705766D01*
X142563244Y-111944756D01*
X142822815Y-112118196D01*
X143129000Y-112179100D01*
X144575588Y-112179100D01*
X146028453Y-113631965D01*
X145515391Y-113734019D01*
X145062172Y-114036851D01*
X144780000Y-114459150D01*
X144497828Y-114036851D01*
X144044609Y-113734019D01*
X143510000Y-113627679D01*
X142975391Y-113734019D01*
X142522172Y-114036851D01*
X142240000Y-114459150D01*
X141957828Y-114036851D01*
X141504609Y-113734019D01*
X140970000Y-113627679D01*
X140435391Y-113734019D01*
X139982172Y-114036851D01*
X139700000Y-114459150D01*
X139417828Y-114036851D01*
X138964609Y-113734019D01*
X138430000Y-113627679D01*
X137895391Y-113734019D01*
X137442172Y-114036851D01*
X137139340Y-114490070D01*
X137033000Y-115024679D01*
X137033000Y-116115321D01*
X137139340Y-116649930D01*
X137442172Y-117103149D01*
X137886440Y-117400000D01*
X133893560Y-117400000D01*
X134337828Y-117103149D01*
X134640660Y-116649930D01*
X134747000Y-116115321D01*
X134747000Y-115024679D01*
X134640660Y-114490070D01*
X134337828Y-114036851D01*
X133884609Y-113734019D01*
X133350000Y-113627679D01*
X132815391Y-113734019D01*
X132362172Y-114036851D01*
X132070670Y-114473113D01*
X132052059Y-114410059D01*
X131708026Y-113984370D01*
X131227277Y-113722740D01*
X131153070Y-113707780D01*
X130937000Y-113830280D01*
X130937000Y-115443000D01*
X130957000Y-115443000D01*
X130957000Y-115697000D01*
X130937000Y-115697000D01*
X130937000Y-115717000D01*
X130683000Y-115717000D01*
X130683000Y-115697000D01*
X128397000Y-115697000D01*
X128397000Y-115717000D01*
X128143000Y-115717000D01*
X128143000Y-115697000D01*
X128123000Y-115697000D01*
X128123000Y-115443000D01*
X128143000Y-115443000D01*
X128143000Y-113830280D01*
X128397000Y-113830280D01*
X128397000Y-115443000D01*
X130683000Y-115443000D01*
X130683000Y-113830280D01*
X130466930Y-113707780D01*
X130392723Y-113722740D01*
X129911974Y-113984370D01*
X129567941Y-114410059D01*
X129540000Y-114504723D01*
X129512059Y-114410059D01*
X129168026Y-113984370D01*
X128687277Y-113722740D01*
X128613070Y-113707780D01*
X128397000Y-113830280D01*
X128143000Y-113830280D01*
X127926930Y-113707780D01*
X127852723Y-113722740D01*
X127371974Y-113984370D01*
X127027941Y-114410059D01*
X127009330Y-114473113D01*
X126717828Y-114036851D01*
X126619000Y-113970816D01*
X126619000Y-112128236D01*
X128898618Y-109848618D01*
X129091329Y-109560206D01*
X129159000Y-109220000D01*
X129159000Y-107672089D01*
X130594743Y-107672089D01*
X130820344Y-108218086D01*
X131237717Y-108636188D01*
X131783319Y-108862742D01*
X132374089Y-108863257D01*
X132920086Y-108637656D01*
X133338188Y-108220283D01*
X133564742Y-107674681D01*
X133565257Y-107083911D01*
X133339656Y-106537914D01*
X132922283Y-106119812D01*
X132376681Y-105893258D01*
X131785911Y-105892743D01*
X131239914Y-106118344D01*
X130821812Y-106535717D01*
X130595258Y-107081319D01*
X130594743Y-107672089D01*
X129159000Y-107672089D01*
X129159000Y-103672089D01*
X130594743Y-103672089D01*
X130820344Y-104218086D01*
X131237717Y-104636188D01*
X131783319Y-104862742D01*
X132374089Y-104863257D01*
X132920086Y-104637656D01*
X133338188Y-104220283D01*
X133564742Y-103674681D01*
X133565257Y-103083911D01*
X133339656Y-102537914D01*
X132922283Y-102119812D01*
X132376681Y-101893258D01*
X131785911Y-101892743D01*
X131239914Y-102118344D01*
X130821812Y-102535717D01*
X130595258Y-103081319D01*
X130594743Y-103672089D01*
X129159000Y-103672089D01*
X129159000Y-102108000D01*
X129091329Y-101767794D01*
X128898618Y-101479382D01*
X127374618Y-99955382D01*
X127332194Y-99927035D01*
X127086206Y-99762671D01*
X126746000Y-99695000D01*
X123558236Y-99695000D01*
X114201863Y-90338627D01*
X114113507Y-90124788D01*
X113838659Y-89849460D01*
X113479370Y-89700270D01*
X113090337Y-89699931D01*
X112730788Y-89848493D01*
X112455460Y-90123341D01*
X112306270Y-90482630D01*
X112305931Y-90871663D01*
X112454493Y-91231212D01*
X112729341Y-91506540D01*
X112944750Y-91595986D01*
X122561382Y-101212618D01*
X122849795Y-101405330D01*
X123190000Y-101473000D01*
X126377764Y-101473000D01*
X127381000Y-102476236D01*
X127381000Y-102637974D01*
X127339656Y-102537914D01*
X126922283Y-102119812D01*
X126376681Y-101893258D01*
X125785911Y-101892743D01*
X125239914Y-102118344D01*
X124866294Y-102491312D01*
X124537713Y-102556671D01*
X124249301Y-102749382D01*
X120021382Y-106977301D01*
X119828671Y-107265713D01*
X119761000Y-107605919D01*
X119761000Y-113970816D01*
X119662172Y-114036851D01*
X119380000Y-114459150D01*
X119097828Y-114036851D01*
X118644609Y-113734019D01*
X118110000Y-113627679D01*
X117575391Y-113734019D01*
X117122172Y-114036851D01*
X116840000Y-114459150D01*
X116557828Y-114036851D01*
X116104609Y-113734019D01*
X115570000Y-113627679D01*
X115035391Y-113734019D01*
X114582172Y-114036851D01*
X114279340Y-114490070D01*
X114173000Y-115024679D01*
X114173000Y-116115321D01*
X114279340Y-116649930D01*
X114582172Y-117103149D01*
X115026440Y-117400000D01*
X102912639Y-117400000D01*
X103483045Y-116830589D01*
X103822113Y-116014022D01*
X103822885Y-115129857D01*
X103485242Y-114312700D01*
X102860589Y-113686955D01*
X102044022Y-113347887D01*
X101159857Y-113347115D01*
X100342700Y-113684758D01*
X99716955Y-114309411D01*
X99377887Y-115125978D01*
X99377115Y-116010143D01*
X99714758Y-116827300D01*
X100286459Y-117400000D01*
X88340000Y-117400000D01*
X88340000Y-109236000D01*
X90858560Y-109236000D01*
X90858560Y-111236000D01*
X90902838Y-111471317D01*
X91041910Y-111687441D01*
X91254110Y-111832431D01*
X91506000Y-111883440D01*
X93406000Y-111883440D01*
X93641317Y-111839162D01*
X93857441Y-111700090D01*
X94002431Y-111487890D01*
X94003055Y-111484808D01*
X94096997Y-111578914D01*
X94679341Y-111820724D01*
X95309893Y-111821275D01*
X95892657Y-111580481D01*
X96338914Y-111135003D01*
X96580724Y-110552659D01*
X96581275Y-109922107D01*
X96340481Y-109339343D01*
X95895003Y-108893086D01*
X95497432Y-108728000D01*
X104066560Y-108728000D01*
X104066560Y-110728000D01*
X104110838Y-110963317D01*
X104249910Y-111179441D01*
X104462110Y-111324431D01*
X104714000Y-111375440D01*
X106614000Y-111375440D01*
X106849317Y-111331162D01*
X107065441Y-111192090D01*
X107210431Y-110979890D01*
X107211055Y-110976808D01*
X107304997Y-111070914D01*
X107887341Y-111312724D01*
X108517893Y-111313275D01*
X109100657Y-111072481D01*
X109546914Y-110627003D01*
X109788724Y-110044659D01*
X109789275Y-109414107D01*
X109548481Y-108831343D01*
X109103003Y-108385086D01*
X108520659Y-108143276D01*
X107890107Y-108142725D01*
X107307343Y-108383519D01*
X107209663Y-108481029D01*
X107078090Y-108276559D01*
X106865890Y-108131569D01*
X106614000Y-108080560D01*
X104714000Y-108080560D01*
X104478683Y-108124838D01*
X104262559Y-108263910D01*
X104117569Y-108476110D01*
X104066560Y-108728000D01*
X95497432Y-108728000D01*
X95312659Y-108651276D01*
X94682107Y-108650725D01*
X94099343Y-108891519D01*
X94001663Y-108989029D01*
X93870090Y-108784559D01*
X93657890Y-108639569D01*
X93406000Y-108588560D01*
X91506000Y-108588560D01*
X91270683Y-108632838D01*
X91054559Y-108771910D01*
X90909569Y-108984110D01*
X90858560Y-109236000D01*
X88340000Y-109236000D01*
X88340000Y-106305194D01*
X109236226Y-106305194D01*
X109484538Y-106906155D01*
X109943927Y-107366346D01*
X110544453Y-107615706D01*
X111194694Y-107616274D01*
X111795655Y-107367962D01*
X112030363Y-107133663D01*
X117518443Y-107133663D01*
X117617042Y-107400465D01*
X118226582Y-107626901D01*
X118876377Y-107602841D01*
X119364958Y-107400465D01*
X119463557Y-107133663D01*
X118491000Y-106161105D01*
X117518443Y-107133663D01*
X112030363Y-107133663D01*
X112255846Y-106908573D01*
X112505206Y-106308047D01*
X112505722Y-105717082D01*
X116845599Y-105717082D01*
X116869659Y-106366877D01*
X117072035Y-106855458D01*
X117338837Y-106954057D01*
X118311395Y-105981500D01*
X118670605Y-105981500D01*
X119643163Y-106954057D01*
X119909965Y-106855458D01*
X120136401Y-106245918D01*
X120112341Y-105596123D01*
X119909965Y-105107542D01*
X119643163Y-105008943D01*
X118670605Y-105981500D01*
X118311395Y-105981500D01*
X117338837Y-105008943D01*
X117072035Y-105107542D01*
X116845599Y-105717082D01*
X112505722Y-105717082D01*
X112505774Y-105657806D01*
X112257462Y-105056845D01*
X112030351Y-104829337D01*
X117518443Y-104829337D01*
X118491000Y-105801895D01*
X119463557Y-104829337D01*
X119364958Y-104562535D01*
X118755418Y-104336099D01*
X118105623Y-104360159D01*
X117617042Y-104562535D01*
X117518443Y-104829337D01*
X112030351Y-104829337D01*
X111798073Y-104596654D01*
X111197547Y-104347294D01*
X110547306Y-104346726D01*
X109946345Y-104595038D01*
X109486154Y-105054427D01*
X109236794Y-105654953D01*
X109236226Y-106305194D01*
X88340000Y-106305194D01*
X88340000Y-77796963D01*
X97748714Y-77796963D01*
X97999534Y-78403995D01*
X98463563Y-78868834D01*
X99070155Y-79120713D01*
X99726963Y-79121286D01*
X100333995Y-78870466D01*
X100798834Y-78406437D01*
X101050713Y-77799845D01*
X101051286Y-77143037D01*
X100800466Y-76536005D01*
X100537583Y-76272663D01*
X102532443Y-76272663D01*
X102631042Y-76539465D01*
X103240582Y-76765901D01*
X103890377Y-76741841D01*
X104378958Y-76539465D01*
X104477557Y-76272663D01*
X103505000Y-75300105D01*
X102532443Y-76272663D01*
X100537583Y-76272663D01*
X100336437Y-76071166D01*
X99729845Y-75819287D01*
X99073037Y-75818714D01*
X98466005Y-76069534D01*
X98001166Y-76533563D01*
X97749287Y-77140155D01*
X97748714Y-77796963D01*
X88340000Y-77796963D01*
X88340000Y-74856082D01*
X101859599Y-74856082D01*
X101883659Y-75505877D01*
X102086035Y-75994458D01*
X102352837Y-76093057D01*
X103325395Y-75120500D01*
X103684605Y-75120500D01*
X104657163Y-76093057D01*
X104923965Y-75994458D01*
X105150401Y-75384918D01*
X105126341Y-74735123D01*
X104923965Y-74246542D01*
X104657163Y-74147943D01*
X103684605Y-75120500D01*
X103325395Y-75120500D01*
X102352837Y-74147943D01*
X102086035Y-74246542D01*
X101859599Y-74856082D01*
X88340000Y-74856082D01*
X88340000Y-73968337D01*
X102532443Y-73968337D01*
X103505000Y-74940895D01*
X104477557Y-73968337D01*
X104378958Y-73701535D01*
X103769418Y-73475099D01*
X103119623Y-73499159D01*
X102631042Y-73701535D01*
X102532443Y-73968337D01*
X88340000Y-73968337D01*
X88340000Y-68454946D01*
X91358017Y-68454946D01*
X91626812Y-69040379D01*
X92099182Y-69478385D01*
X92581056Y-69677975D01*
X92837000Y-69558836D01*
X92837000Y-68199000D01*
X91476633Y-68199000D01*
X91358017Y-68454946D01*
X88340000Y-68454946D01*
X88340000Y-67689054D01*
X91358017Y-67689054D01*
X91476633Y-67945000D01*
X92837000Y-67945000D01*
X92837000Y-66585164D01*
X93091000Y-66585164D01*
X93091000Y-67945000D01*
X93111000Y-67945000D01*
X93111000Y-68199000D01*
X93091000Y-68199000D01*
X93091000Y-69558836D01*
X93346944Y-69677975D01*
X93828818Y-69478385D01*
X93926398Y-69387903D01*
X94023910Y-69539441D01*
X94236110Y-69684431D01*
X94488000Y-69735440D01*
X96520000Y-69735440D01*
X96755317Y-69691162D01*
X96971441Y-69552090D01*
X97116431Y-69339890D01*
X97167440Y-69088000D01*
X97167440Y-67056000D01*
X97123162Y-66820683D01*
X96984090Y-66604559D01*
X96771890Y-66459569D01*
X96520000Y-66408560D01*
X94488000Y-66408560D01*
X94252683Y-66452838D01*
X94036559Y-66591910D01*
X93925160Y-66754948D01*
X93828818Y-66665615D01*
X93346944Y-66466025D01*
X93091000Y-66585164D01*
X92837000Y-66585164D01*
X92581056Y-66466025D01*
X92099182Y-66665615D01*
X91626812Y-67103621D01*
X91358017Y-67689054D01*
X88340000Y-67689054D01*
X88340000Y-65480000D01*
X101557361Y-65480000D01*
X100986955Y-66049411D01*
X100986955Y-66049411D01*
G37*
X100986955Y-66049411D02*
X100647887Y-66865978D01*
X100647115Y-67750143D01*
X100984758Y-68567300D01*
X101609411Y-69193045D01*
X102425978Y-69532113D01*
X103310143Y-69532885D01*
X104127300Y-69195242D01*
X104753045Y-68570589D01*
X105035818Y-67889596D01*
X105135340Y-68389930D01*
X105438172Y-68843149D01*
X105891391Y-69145981D01*
X106426000Y-69252321D01*
X106960609Y-69145981D01*
X107413828Y-68843149D01*
X107696000Y-68420850D01*
X107978172Y-68843149D01*
X108431391Y-69145981D01*
X108966000Y-69252321D01*
X109500609Y-69145981D01*
X109953828Y-68843149D01*
X110236000Y-68420850D01*
X110518172Y-68843149D01*
X110971391Y-69145981D01*
X111506000Y-69252321D01*
X112040609Y-69145981D01*
X112493828Y-68843149D01*
X112785330Y-68406887D01*
X112803941Y-68469941D01*
X113147974Y-68895630D01*
X113628723Y-69157260D01*
X113702930Y-69172220D01*
X113919000Y-69049720D01*
X113919000Y-67437000D01*
X113899000Y-67437000D01*
X113899000Y-67183000D01*
X113919000Y-67183000D01*
X113919000Y-67163000D01*
X114173000Y-67163000D01*
X114173000Y-67183000D01*
X114193000Y-67183000D01*
X114193000Y-67437000D01*
X114173000Y-67437000D01*
X114173000Y-69049720D01*
X114389070Y-69172220D01*
X114463277Y-69157260D01*
X114944026Y-68895630D01*
X115288059Y-68469941D01*
X115306670Y-68406887D01*
X115598172Y-68843149D01*
X116051391Y-69145981D01*
X116586000Y-69252321D01*
X117120609Y-69145981D01*
X117573828Y-68843149D01*
X117856000Y-68420850D01*
X118138172Y-68843149D01*
X118591391Y-69145981D01*
X119126000Y-69252321D01*
X119660609Y-69145981D01*
X120113828Y-68843149D01*
X120396000Y-68420850D01*
X120678172Y-68843149D01*
X121131391Y-69145981D01*
X121666000Y-69252321D01*
X122200609Y-69145981D01*
X122653828Y-68843149D01*
X122936000Y-68420850D01*
X123218172Y-68843149D01*
X123671391Y-69145981D01*
X124206000Y-69252321D01*
X124740609Y-69145981D01*
X125193828Y-68843149D01*
X125476000Y-68420850D01*
X125646598Y-68676166D01*
X124091764Y-70231000D01*
X110490000Y-70231000D01*
X110149795Y-70298670D01*
X109861382Y-70491382D01*
X106051382Y-74301382D01*
X105858671Y-74589794D01*
X105791000Y-74930000D01*
X105791000Y-79197264D01*
X103867176Y-81121088D01*
X103831547Y-81106294D01*
X103181306Y-81105726D01*
X102580345Y-81354038D01*
X102120154Y-81813427D01*
X101870794Y-82413953D01*
X101870226Y-83064194D01*
X101885969Y-83102295D01*
X100787264Y-84201000D01*
X99727655Y-84201000D01*
X100333995Y-83950466D01*
X100798834Y-83486437D01*
X101050713Y-82879845D01*
X101051286Y-82223037D01*
X100800466Y-81616005D01*
X100336437Y-81151166D01*
X99729845Y-80899287D01*
X99073037Y-80898714D01*
X98466005Y-81149534D01*
X98001166Y-81613563D01*
X97749287Y-82220155D01*
X97748714Y-82876963D01*
X97999534Y-83483995D01*
X98463563Y-83948834D01*
X99070155Y-84200713D01*
X99399132Y-84201000D01*
X95504000Y-84201000D01*
X95163795Y-84268670D01*
X94875382Y-84461382D01*
X90811382Y-88525382D01*
X90618671Y-88813794D01*
X90551000Y-89154000D01*
X90551000Y-101176115D01*
X90362314Y-101254078D01*
X89825961Y-101789495D01*
X89535332Y-102489410D01*
X89534670Y-103247265D01*
X89824078Y-103947686D01*
X90359495Y-104484039D01*
X91059410Y-104774668D01*
X91817265Y-104775330D01*
X92517686Y-104485922D01*
X93054039Y-103950505D01*
X93344668Y-103250590D01*
X93344670Y-103247265D01*
X94233670Y-103247265D01*
X94523078Y-103947686D01*
X95058495Y-104484039D01*
X95758410Y-104774668D01*
X96516265Y-104775330D01*
X97216686Y-104485922D01*
X97753039Y-103950505D01*
X98043668Y-103250590D01*
X98044330Y-102492735D01*
X97754922Y-101792314D01*
X97219505Y-101255961D01*
X96519590Y-100965332D01*
X95761735Y-100964670D01*
X95061314Y-101254078D01*
X94524961Y-101789495D01*
X94234332Y-102489410D01*
X94233670Y-103247265D01*
X93344670Y-103247265D01*
X93345330Y-102492735D01*
X93055922Y-101792314D01*
X92520505Y-101255961D01*
X92329000Y-101176441D01*
X92329000Y-89522236D01*
X93057129Y-88794107D01*
X98415498Y-88794107D01*
X98516120Y-89062622D01*
X99131642Y-89291816D01*
X99788019Y-89268014D01*
X100283880Y-89062622D01*
X100384502Y-88794107D01*
X99400000Y-87809605D01*
X98415498Y-88794107D01*
X93057129Y-88794107D01*
X94489594Y-87361642D01*
X97738184Y-87361642D01*
X97761986Y-88018019D01*
X97967378Y-88513880D01*
X98235893Y-88614502D01*
X99220395Y-87630000D01*
X99579605Y-87630000D01*
X100564107Y-88614502D01*
X100832622Y-88513880D01*
X101061816Y-87898358D01*
X101038014Y-87241981D01*
X100832622Y-86746120D01*
X100564107Y-86645498D01*
X99579605Y-87630000D01*
X99220395Y-87630000D01*
X98235893Y-86645498D01*
X97967378Y-86746120D01*
X97738184Y-87361642D01*
X94489594Y-87361642D01*
X95872236Y-85979000D01*
X99370090Y-85979000D01*
X99011981Y-85991986D01*
X98516120Y-86197378D01*
X98415498Y-86465893D01*
X99400000Y-87450395D01*
X100384502Y-86465893D01*
X100283880Y-86197378D01*
X99697405Y-85979000D01*
X101155500Y-85979000D01*
X101495706Y-85911329D01*
X101784118Y-85718618D01*
X103142824Y-84359912D01*
X103178453Y-84374706D01*
X103828694Y-84375274D01*
X104429655Y-84126962D01*
X104889846Y-83667573D01*
X105139206Y-83067047D01*
X105139774Y-82416806D01*
X105124031Y-82378705D01*
X107308618Y-80194118D01*
X107501329Y-79905706D01*
X107569000Y-79565500D01*
X107569000Y-82667256D01*
X104833820Y-85402436D01*
X104527073Y-85095154D01*
X103926547Y-84845794D01*
X103276306Y-84845226D01*
X102675345Y-85093538D01*
X102215154Y-85552927D01*
X101965794Y-86153453D01*
X101965226Y-86803694D01*
X102213538Y-87404655D01*
X102672927Y-87864846D01*
X102711000Y-87880655D01*
X102711000Y-88731764D01*
X100209382Y-91233382D01*
X100016671Y-91521794D01*
X99949000Y-91862000D01*
X99949000Y-101176115D01*
X99760314Y-101254078D01*
X99223961Y-101789495D01*
X98933332Y-102489410D01*
X98932670Y-103247265D01*
X99222078Y-103947686D01*
X99757495Y-104484039D01*
X100457410Y-104774668D01*
X101215265Y-104775330D01*
X101915686Y-104485922D01*
X102452039Y-103950505D01*
X102742668Y-103250590D01*
X102743330Y-102492735D01*
X102453922Y-101792314D01*
X102331516Y-101669694D01*
X109236226Y-101669694D01*
X109484538Y-102270655D01*
X109943927Y-102730846D01*
X110544453Y-102980206D01*
X111194694Y-102980774D01*
X111795655Y-102732462D01*
X112030363Y-102498163D01*
X117518443Y-102498163D01*
X117617042Y-102764965D01*
X118226582Y-102991401D01*
X118876377Y-102967341D01*
X119364958Y-102764965D01*
X119463557Y-102498163D01*
X118491000Y-101525605D01*
X117518443Y-102498163D01*
X112030363Y-102498163D01*
X112255846Y-102273073D01*
X112505206Y-101672547D01*
X112505722Y-101081582D01*
X116845599Y-101081582D01*
X116869659Y-101731377D01*
X117072035Y-102219958D01*
X117338837Y-102318557D01*
X118311395Y-101346000D01*
X118670605Y-101346000D01*
X119643163Y-102318557D01*
X119909965Y-102219958D01*
X120136401Y-101610418D01*
X120112341Y-100960623D01*
X119909965Y-100472042D01*
X119643163Y-100373443D01*
X118670605Y-101346000D01*
X118311395Y-101346000D01*
X117338837Y-100373443D01*
X117072035Y-100472042D01*
X116845599Y-101081582D01*
X112505722Y-101081582D01*
X112505774Y-101022306D01*
X112257462Y-100421345D01*
X112030351Y-100193837D01*
X117518443Y-100193837D01*
X118491000Y-101166395D01*
X119463557Y-100193837D01*
X119364958Y-99927035D01*
X118755418Y-99700599D01*
X118105623Y-99724659D01*
X117617042Y-99927035D01*
X117518443Y-100193837D01*
X112030351Y-100193837D01*
X111798073Y-99961154D01*
X111197547Y-99711794D01*
X110547306Y-99711226D01*
X109946345Y-99959538D01*
X109486154Y-100418927D01*
X109236794Y-101019453D01*
X109236226Y-101669694D01*
X102331516Y-101669694D01*
X101918505Y-101255961D01*
X101727000Y-101176441D01*
X101727000Y-95252163D01*
X102627443Y-95252163D01*
X102726042Y-95518965D01*
X103335582Y-95745401D01*
X103985377Y-95721341D01*
X104066767Y-95687628D01*
X108914817Y-95687628D01*
X109250530Y-96500116D01*
X109871614Y-97122285D01*
X110683515Y-97459416D01*
X111562628Y-97460183D01*
X112375116Y-97124470D01*
X112997285Y-96503386D01*
X113334416Y-95691485D01*
X113335183Y-94812372D01*
X112999470Y-93999884D01*
X112378386Y-93377715D01*
X111566485Y-93040584D01*
X110687372Y-93039817D01*
X109874884Y-93375530D01*
X109252715Y-93996614D01*
X108915584Y-94808515D01*
X108914817Y-95687628D01*
X104066767Y-95687628D01*
X104473958Y-95518965D01*
X104572557Y-95252163D01*
X103600000Y-94279605D01*
X102627443Y-95252163D01*
X101727000Y-95252163D01*
X101727000Y-93835582D01*
X101954599Y-93835582D01*
X101978659Y-94485377D01*
X102181035Y-94973958D01*
X102447837Y-95072557D01*
X103420395Y-94100000D01*
X103779605Y-94100000D01*
X104752163Y-95072557D01*
X105018965Y-94973958D01*
X105245401Y-94364418D01*
X105221341Y-93714623D01*
X105018965Y-93226042D01*
X104752163Y-93127443D01*
X103779605Y-94100000D01*
X103420395Y-94100000D01*
X102447837Y-93127443D01*
X102181035Y-93226042D01*
X101954599Y-93835582D01*
X101727000Y-93835582D01*
X101727000Y-92947837D01*
X102627443Y-92947837D01*
X103600000Y-93920395D01*
X104572557Y-92947837D01*
X104473958Y-92681035D01*
X103864418Y-92454599D01*
X103214623Y-92478659D01*
X102726042Y-92681035D01*
X102627443Y-92947837D01*
X101727000Y-92947837D01*
X101727000Y-92230236D01*
X104228618Y-89728618D01*
X104233488Y-89721329D01*
X104421329Y-89440206D01*
X104489000Y-89100000D01*
X104489000Y-87881194D01*
X104524655Y-87866462D01*
X104984846Y-87407073D01*
X105000655Y-87369000D01*
X105013492Y-87369000D01*
X105353698Y-87301329D01*
X105642110Y-87108618D01*
X109086618Y-83664110D01*
X109206967Y-83483995D01*
X109279329Y-83375698D01*
X109347000Y-83035492D01*
X109347000Y-76060236D01*
X111874236Y-73533000D01*
X118375488Y-73533000D01*
X116274244Y-75634244D01*
X116100804Y-75893815D01*
X116039900Y-76200000D01*
X116039900Y-87503000D01*
X116100804Y-87809185D01*
X116274244Y-88068756D01*
X122389900Y-94184412D01*
X122389900Y-96520000D01*
X122450804Y-96826185D01*
X122624244Y-97085756D01*
X124783244Y-99244756D01*
X125042815Y-99418196D01*
X125349000Y-99479100D01*
X135177588Y-99479100D01*
X139991966Y-104293478D01*
X139991931Y-104333663D01*
X140140493Y-104693212D01*
X140415341Y-104968540D01*
X140774630Y-105117730D01*
X141163663Y-105118069D01*
X141523212Y-104969507D01*
X141798540Y-104694659D01*
X141947730Y-104335370D01*
X141948069Y-103946337D01*
X141799507Y-103586788D01*
X141524659Y-103311460D01*
X141165370Y-103162270D01*
X141123746Y-103162234D01*
X136074756Y-98113244D01*
X135815185Y-97939804D01*
X135509000Y-97878900D01*
X125680412Y-97878900D01*
X123990100Y-96188588D01*
X123990100Y-93853000D01*
X123929196Y-93546815D01*
X123755756Y-93287244D01*
X117640100Y-87171588D01*
X117640100Y-83439000D01*
X125570655Y-83439000D01*
X125684729Y-84012489D01*
X126009585Y-84498670D01*
X126324366Y-84709000D01*
X126009585Y-84919330D01*
X125684729Y-85405511D01*
X125570655Y-85979000D01*
X125684729Y-86552489D01*
X126009585Y-87038670D01*
X126324366Y-87249000D01*
X126009585Y-87459330D01*
X125684729Y-87945511D01*
X125570655Y-88519000D01*
X125684729Y-89092489D01*
X126009585Y-89578670D01*
X126324366Y-89789000D01*
X126009585Y-89999330D01*
X125684729Y-90485511D01*
X125570655Y-91059000D01*
X125684729Y-91632489D01*
X126009585Y-92118670D01*
X126324366Y-92329000D01*
X126009585Y-92539330D01*
X125684729Y-93025511D01*
X125570655Y-93599000D01*
X125684729Y-94172489D01*
X126009585Y-94658670D01*
X126324366Y-94869000D01*
X126009585Y-95079330D01*
X125684729Y-95565511D01*
X125570655Y-96139000D01*
X125684729Y-96712489D01*
X126009585Y-97198670D01*
X126495766Y-97523526D01*
X127069255Y-97637600D01*
X127438745Y-97637600D01*
X128012234Y-97523526D01*
X128498415Y-97198670D01*
X128823271Y-96712489D01*
X128937345Y-96139000D01*
X128823271Y-95565511D01*
X128498415Y-95079330D01*
X128183634Y-94869000D01*
X128498415Y-94658670D01*
X128823271Y-94172489D01*
X128937345Y-93599000D01*
X128823271Y-93025511D01*
X128498415Y-92539330D01*
X128183634Y-92329000D01*
X128498415Y-92118670D01*
X128823271Y-91632489D01*
X128937345Y-91059000D01*
X128823271Y-90485511D01*
X128498415Y-89999330D01*
X128183634Y-89789000D01*
X128498415Y-89578670D01*
X128823271Y-89092489D01*
X128937345Y-88519000D01*
X128823271Y-87945511D01*
X128498415Y-87459330D01*
X128183634Y-87249000D01*
X128498415Y-87038670D01*
X128823271Y-86552489D01*
X128937345Y-85979000D01*
X128823271Y-85405511D01*
X128498415Y-84919330D01*
X128183634Y-84709000D01*
X128498415Y-84498670D01*
X128823271Y-84012489D01*
X128937345Y-83439000D01*
X128823271Y-82865511D01*
X128498415Y-82379330D01*
X128476220Y-82364500D01*
X128629698Y-82300927D01*
X128808327Y-82122299D01*
X128905000Y-81888910D01*
X128905000Y-81184750D01*
X128746250Y-81026000D01*
X127381000Y-81026000D01*
X127381000Y-81046000D01*
X127127000Y-81046000D01*
X127127000Y-81026000D01*
X125761750Y-81026000D01*
X125603000Y-81184750D01*
X125603000Y-81888910D01*
X125699673Y-82122299D01*
X125878302Y-82300927D01*
X126031780Y-82364500D01*
X126009585Y-82379330D01*
X125684729Y-82865511D01*
X125570655Y-83439000D01*
X117640100Y-83439000D01*
X117640100Y-78669628D01*
X121868817Y-78669628D01*
X122204530Y-79482116D01*
X122825614Y-80104285D01*
X123637515Y-80441416D01*
X124516628Y-80442183D01*
X125329116Y-80106470D01*
X125656693Y-79779465D01*
X125603000Y-79909090D01*
X125603000Y-80613250D01*
X125761750Y-80772000D01*
X127127000Y-80772000D01*
X127127000Y-79559150D01*
X127381000Y-79559150D01*
X127381000Y-80772000D01*
X128746250Y-80772000D01*
X128905000Y-80613250D01*
X128905000Y-79909090D01*
X128808327Y-79675701D01*
X128629698Y-79497073D01*
X128396309Y-79400400D01*
X127539750Y-79400400D01*
X127381000Y-79559150D01*
X127127000Y-79559150D01*
X126968250Y-79400400D01*
X126111691Y-79400400D01*
X125960584Y-79462990D01*
X126288416Y-78673485D01*
X126289183Y-77794372D01*
X125953470Y-76981884D01*
X125332386Y-76359715D01*
X124520485Y-76022584D01*
X123641372Y-76021817D01*
X122828884Y-76357530D01*
X122206715Y-76978614D01*
X121869584Y-77790515D01*
X121868817Y-78669628D01*
X117640100Y-78669628D01*
X117640100Y-76531412D01*
X119711412Y-74460100D01*
X125907800Y-74460100D01*
X126213985Y-74399196D01*
X126473556Y-74225756D01*
X132159493Y-68539819D01*
X132362172Y-68843149D01*
X132815391Y-69145981D01*
X133350000Y-69252321D01*
X133884609Y-69145981D01*
X134337828Y-68843149D01*
X134620000Y-68420850D01*
X134902172Y-68843149D01*
X135089900Y-68968585D01*
X135089900Y-70788588D01*
X130244244Y-75634244D01*
X130070804Y-75893815D01*
X130009900Y-76200000D01*
X130009900Y-85725000D01*
X130070804Y-86031185D01*
X130244244Y-86290756D01*
X133387966Y-89434478D01*
X133387931Y-89474663D01*
X133536493Y-89834212D01*
X133811341Y-90109540D01*
X134170630Y-90258730D01*
X134559663Y-90259069D01*
X134919212Y-90110507D01*
X135194540Y-89835659D01*
X135343730Y-89476370D01*
X135344069Y-89087337D01*
X135195507Y-88727788D01*
X134920659Y-88452460D01*
X134561370Y-88303270D01*
X134519746Y-88303234D01*
X131610100Y-85393588D01*
X131610100Y-82990143D01*
X151447115Y-82990143D01*
X151784758Y-83807300D01*
X152409411Y-84433045D01*
X153225978Y-84772113D01*
X154110143Y-84772885D01*
X154927300Y-84435242D01*
X155553045Y-83810589D01*
X155892113Y-82994022D01*
X155892885Y-82109857D01*
X155555242Y-81292700D01*
X154930589Y-80666955D01*
X154114022Y-80327887D01*
X153229857Y-80327115D01*
X152412700Y-80664758D01*
X151786955Y-81289411D01*
X151447887Y-82105978D01*
X151447115Y-82990143D01*
X131610100Y-82990143D01*
X131610100Y-76531412D01*
X136455756Y-71685756D01*
X136629196Y-71426185D01*
X136690100Y-71120000D01*
X136690100Y-68968585D01*
X136877828Y-68843149D01*
X137160000Y-68420850D01*
X137442172Y-68843149D01*
X137839393Y-69108565D01*
X137864244Y-69145756D01*
X139134244Y-70415756D01*
X139393815Y-70589196D01*
X139700000Y-70650100D01*
X143178588Y-70650100D01*
X143979900Y-71451412D01*
X143979900Y-74346951D01*
X143951460Y-74375341D01*
X143802270Y-74734630D01*
X143801931Y-75123663D01*
X143950493Y-75483212D01*
X144225341Y-75758540D01*
X144584630Y-75907730D01*
X144973663Y-75908069D01*
X145333212Y-75759507D01*
X145608540Y-75484659D01*
X145757730Y-75125370D01*
X145758069Y-74736337D01*
X145609507Y-74376788D01*
X145580100Y-74347330D01*
X145580100Y-71120000D01*
X145519196Y-70813815D01*
X145345756Y-70554244D01*
X144075756Y-69284244D01*
X143909155Y-69172924D01*
X144044609Y-69145981D01*
X144497828Y-68843149D01*
X144780000Y-68420850D01*
X145062172Y-68843149D01*
X145515391Y-69145981D01*
X146050000Y-69252321D01*
X146584609Y-69145981D01*
X147037828Y-68843149D01*
X147320000Y-68420850D01*
X147602172Y-68843149D01*
X148055391Y-69145981D01*
X148590000Y-69252321D01*
X149124609Y-69145981D01*
X149577828Y-68843149D01*
X149860000Y-68420850D01*
X150142172Y-68843149D01*
X150595391Y-69145981D01*
X151130000Y-69252321D01*
X151664609Y-69145981D01*
X152117828Y-68843149D01*
X152420660Y-68389930D01*
X152527000Y-67855321D01*
X152527000Y-66764679D01*
X152420660Y-66230070D01*
X152117828Y-65776851D01*
X151673560Y-65480000D01*
X152105908Y-65480000D01*
X152960000Y-66334092D01*
X152960000Y-77470000D01*
X153014046Y-77741705D01*
X153167954Y-77972046D01*
X158040000Y-82844092D01*
X158040000Y-110195908D01*
X153167954Y-115067954D01*
X153014046Y-115298295D01*
X152960000Y-115570000D01*
X152960000Y-117400000D01*
X151673560Y-117400000D01*
X152117828Y-117103149D01*
X152420660Y-116649930D01*
X152527000Y-116115321D01*
X152527000Y-115024679D01*
X152420660Y-114490070D01*
X152117828Y-114036851D01*
X151664609Y-113734019D01*
X151130000Y-113627679D01*
X150595391Y-113734019D01*
X150142172Y-114036851D01*
X149860000Y-114459150D01*
X149577828Y-114036851D01*
X149124609Y-113734019D01*
X148590000Y-113627679D01*
X148337430Y-113677918D01*
X145589655Y-110930143D01*
X151447115Y-110930143D01*
X151784758Y-111747300D01*
X152409411Y-112373045D01*
X153225978Y-112712113D01*
X154110143Y-112712885D01*
X154927300Y-112375242D01*
X155553045Y-111750589D01*
X155892113Y-110934022D01*
X155892885Y-110049857D01*
X155555242Y-109232700D01*
X154930589Y-108606955D01*
X154114022Y-108267887D01*
X153229857Y-108267115D01*
X152412700Y-108604758D01*
X151786955Y-109229411D01*
X151447887Y-110045978D01*
X151447115Y-110930143D01*
X145589655Y-110930143D01*
X145472756Y-110813244D01*
X145213185Y-110639804D01*
X144907000Y-110578900D01*
X143460412Y-110578900D01*
X142456034Y-109574522D01*
X142456069Y-109534337D01*
X142307507Y-109174788D01*
X142032659Y-108899460D01*
X141673370Y-108750270D01*
X141284337Y-108749931D01*
X140924788Y-108898493D01*
X140649460Y-109173341D01*
X140500270Y-109532630D01*
X140499931Y-109921663D01*
X140648493Y-110281212D01*
X140923341Y-110556540D01*
X141282630Y-110705730D01*
X141324254Y-110705766D01*
X142563244Y-111944756D01*
X142822815Y-112118196D01*
X143129000Y-112179100D01*
X144575588Y-112179100D01*
X146028453Y-113631965D01*
X145515391Y-113734019D01*
X145062172Y-114036851D01*
X144780000Y-114459150D01*
X144497828Y-114036851D01*
X144044609Y-113734019D01*
X143510000Y-113627679D01*
X142975391Y-113734019D01*
X142522172Y-114036851D01*
X142240000Y-114459150D01*
X141957828Y-114036851D01*
X141504609Y-113734019D01*
X140970000Y-113627679D01*
X140435391Y-113734019D01*
X139982172Y-114036851D01*
X139700000Y-114459150D01*
X139417828Y-114036851D01*
X138964609Y-113734019D01*
X138430000Y-113627679D01*
X137895391Y-113734019D01*
X137442172Y-114036851D01*
X137139340Y-114490070D01*
X137033000Y-115024679D01*
X137033000Y-116115321D01*
X137139340Y-116649930D01*
X137442172Y-117103149D01*
X137886440Y-117400000D01*
X133893560Y-117400000D01*
X134337828Y-117103149D01*
X134640660Y-116649930D01*
X134747000Y-116115321D01*
X134747000Y-115024679D01*
X134640660Y-114490070D01*
X134337828Y-114036851D01*
X133884609Y-113734019D01*
X133350000Y-113627679D01*
X132815391Y-113734019D01*
X132362172Y-114036851D01*
X132070670Y-114473113D01*
X132052059Y-114410059D01*
X131708026Y-113984370D01*
X131227277Y-113722740D01*
X131153070Y-113707780D01*
X130937000Y-113830280D01*
X130937000Y-115443000D01*
X130957000Y-115443000D01*
X130957000Y-115697000D01*
X130937000Y-115697000D01*
X130937000Y-115717000D01*
X130683000Y-115717000D01*
X130683000Y-115697000D01*
X128397000Y-115697000D01*
X128397000Y-115717000D01*
X128143000Y-115717000D01*
X128143000Y-115697000D01*
X128123000Y-115697000D01*
X128123000Y-115443000D01*
X128143000Y-115443000D01*
X128143000Y-113830280D01*
X128397000Y-113830280D01*
X128397000Y-115443000D01*
X130683000Y-115443000D01*
X130683000Y-113830280D01*
X130466930Y-113707780D01*
X130392723Y-113722740D01*
X129911974Y-113984370D01*
X129567941Y-114410059D01*
X129540000Y-114504723D01*
X129512059Y-114410059D01*
X129168026Y-113984370D01*
X128687277Y-113722740D01*
X128613070Y-113707780D01*
X128397000Y-113830280D01*
X128143000Y-113830280D01*
X127926930Y-113707780D01*
X127852723Y-113722740D01*
X127371974Y-113984370D01*
X127027941Y-114410059D01*
X127009330Y-114473113D01*
X126717828Y-114036851D01*
X126619000Y-113970816D01*
X126619000Y-112128236D01*
X128898618Y-109848618D01*
X129091329Y-109560206D01*
X129159000Y-109220000D01*
X129159000Y-107672089D01*
X130594743Y-107672089D01*
X130820344Y-108218086D01*
X131237717Y-108636188D01*
X131783319Y-108862742D01*
X132374089Y-108863257D01*
X132920086Y-108637656D01*
X133338188Y-108220283D01*
X133564742Y-107674681D01*
X133565257Y-107083911D01*
X133339656Y-106537914D01*
X132922283Y-106119812D01*
X132376681Y-105893258D01*
X131785911Y-105892743D01*
X131239914Y-106118344D01*
X130821812Y-106535717D01*
X130595258Y-107081319D01*
X130594743Y-107672089D01*
X129159000Y-107672089D01*
X129159000Y-103672089D01*
X130594743Y-103672089D01*
X130820344Y-104218086D01*
X131237717Y-104636188D01*
X131783319Y-104862742D01*
X132374089Y-104863257D01*
X132920086Y-104637656D01*
X133338188Y-104220283D01*
X133564742Y-103674681D01*
X133565257Y-103083911D01*
X133339656Y-102537914D01*
X132922283Y-102119812D01*
X132376681Y-101893258D01*
X131785911Y-101892743D01*
X131239914Y-102118344D01*
X130821812Y-102535717D01*
X130595258Y-103081319D01*
X130594743Y-103672089D01*
X129159000Y-103672089D01*
X129159000Y-102108000D01*
X129091329Y-101767794D01*
X128898618Y-101479382D01*
X127374618Y-99955382D01*
X127332194Y-99927035D01*
X127086206Y-99762671D01*
X126746000Y-99695000D01*
X123558236Y-99695000D01*
X114201863Y-90338627D01*
X114113507Y-90124788D01*
X113838659Y-89849460D01*
X113479370Y-89700270D01*
X113090337Y-89699931D01*
X112730788Y-89848493D01*
X112455460Y-90123341D01*
X112306270Y-90482630D01*
X112305931Y-90871663D01*
X112454493Y-91231212D01*
X112729341Y-91506540D01*
X112944750Y-91595986D01*
X122561382Y-101212618D01*
X122849795Y-101405330D01*
X123190000Y-101473000D01*
X126377764Y-101473000D01*
X127381000Y-102476236D01*
X127381000Y-102637974D01*
X127339656Y-102537914D01*
X126922283Y-102119812D01*
X126376681Y-101893258D01*
X125785911Y-101892743D01*
X125239914Y-102118344D01*
X124866294Y-102491312D01*
X124537713Y-102556671D01*
X124249301Y-102749382D01*
X120021382Y-106977301D01*
X119828671Y-107265713D01*
X119761000Y-107605919D01*
X119761000Y-113970816D01*
X119662172Y-114036851D01*
X119380000Y-114459150D01*
X119097828Y-114036851D01*
X118644609Y-113734019D01*
X118110000Y-113627679D01*
X117575391Y-113734019D01*
X117122172Y-114036851D01*
X116840000Y-114459150D01*
X116557828Y-114036851D01*
X116104609Y-113734019D01*
X115570000Y-113627679D01*
X115035391Y-113734019D01*
X114582172Y-114036851D01*
X114279340Y-114490070D01*
X114173000Y-115024679D01*
X114173000Y-116115321D01*
X114279340Y-116649930D01*
X114582172Y-117103149D01*
X115026440Y-117400000D01*
X102912639Y-117400000D01*
X103483045Y-116830589D01*
X103822113Y-116014022D01*
X103822885Y-115129857D01*
X103485242Y-114312700D01*
X102860589Y-113686955D01*
X102044022Y-113347887D01*
X101159857Y-113347115D01*
X100342700Y-113684758D01*
X99716955Y-114309411D01*
X99377887Y-115125978D01*
X99377115Y-116010143D01*
X99714758Y-116827300D01*
X100286459Y-117400000D01*
X88340000Y-117400000D01*
X88340000Y-109236000D01*
X90858560Y-109236000D01*
X90858560Y-111236000D01*
X90902838Y-111471317D01*
X91041910Y-111687441D01*
X91254110Y-111832431D01*
X91506000Y-111883440D01*
X93406000Y-111883440D01*
X93641317Y-111839162D01*
X93857441Y-111700090D01*
X94002431Y-111487890D01*
X94003055Y-111484808D01*
X94096997Y-111578914D01*
X94679341Y-111820724D01*
X95309893Y-111821275D01*
X95892657Y-111580481D01*
X96338914Y-111135003D01*
X96580724Y-110552659D01*
X96581275Y-109922107D01*
X96340481Y-109339343D01*
X95895003Y-108893086D01*
X95497432Y-108728000D01*
X104066560Y-108728000D01*
X104066560Y-110728000D01*
X104110838Y-110963317D01*
X104249910Y-111179441D01*
X104462110Y-111324431D01*
X104714000Y-111375440D01*
X106614000Y-111375440D01*
X106849317Y-111331162D01*
X107065441Y-111192090D01*
X107210431Y-110979890D01*
X107211055Y-110976808D01*
X107304997Y-111070914D01*
X107887341Y-111312724D01*
X108517893Y-111313275D01*
X109100657Y-111072481D01*
X109546914Y-110627003D01*
X109788724Y-110044659D01*
X109789275Y-109414107D01*
X109548481Y-108831343D01*
X109103003Y-108385086D01*
X108520659Y-108143276D01*
X107890107Y-108142725D01*
X107307343Y-108383519D01*
X107209663Y-108481029D01*
X107078090Y-108276559D01*
X106865890Y-108131569D01*
X106614000Y-108080560D01*
X104714000Y-108080560D01*
X104478683Y-108124838D01*
X104262559Y-108263910D01*
X104117569Y-108476110D01*
X104066560Y-108728000D01*
X95497432Y-108728000D01*
X95312659Y-108651276D01*
X94682107Y-108650725D01*
X94099343Y-108891519D01*
X94001663Y-108989029D01*
X93870090Y-108784559D01*
X93657890Y-108639569D01*
X93406000Y-108588560D01*
X91506000Y-108588560D01*
X91270683Y-108632838D01*
X91054559Y-108771910D01*
X90909569Y-108984110D01*
X90858560Y-109236000D01*
X88340000Y-109236000D01*
X88340000Y-106305194D01*
X109236226Y-106305194D01*
X109484538Y-106906155D01*
X109943927Y-107366346D01*
X110544453Y-107615706D01*
X111194694Y-107616274D01*
X111795655Y-107367962D01*
X112030363Y-107133663D01*
X117518443Y-107133663D01*
X117617042Y-107400465D01*
X118226582Y-107626901D01*
X118876377Y-107602841D01*
X119364958Y-107400465D01*
X119463557Y-107133663D01*
X118491000Y-106161105D01*
X117518443Y-107133663D01*
X112030363Y-107133663D01*
X112255846Y-106908573D01*
X112505206Y-106308047D01*
X112505722Y-105717082D01*
X116845599Y-105717082D01*
X116869659Y-106366877D01*
X117072035Y-106855458D01*
X117338837Y-106954057D01*
X118311395Y-105981500D01*
X118670605Y-105981500D01*
X119643163Y-106954057D01*
X119909965Y-106855458D01*
X120136401Y-106245918D01*
X120112341Y-105596123D01*
X119909965Y-105107542D01*
X119643163Y-105008943D01*
X118670605Y-105981500D01*
X118311395Y-105981500D01*
X117338837Y-105008943D01*
X117072035Y-105107542D01*
X116845599Y-105717082D01*
X112505722Y-105717082D01*
X112505774Y-105657806D01*
X112257462Y-105056845D01*
X112030351Y-104829337D01*
X117518443Y-104829337D01*
X118491000Y-105801895D01*
X119463557Y-104829337D01*
X119364958Y-104562535D01*
X118755418Y-104336099D01*
X118105623Y-104360159D01*
X117617042Y-104562535D01*
X117518443Y-104829337D01*
X112030351Y-104829337D01*
X111798073Y-104596654D01*
X111197547Y-104347294D01*
X110547306Y-104346726D01*
X109946345Y-104595038D01*
X109486154Y-105054427D01*
X109236794Y-105654953D01*
X109236226Y-106305194D01*
X88340000Y-106305194D01*
X88340000Y-77796963D01*
X97748714Y-77796963D01*
X97999534Y-78403995D01*
X98463563Y-78868834D01*
X99070155Y-79120713D01*
X99726963Y-79121286D01*
X100333995Y-78870466D01*
X100798834Y-78406437D01*
X101050713Y-77799845D01*
X101051286Y-77143037D01*
X100800466Y-76536005D01*
X100537583Y-76272663D01*
X102532443Y-76272663D01*
X102631042Y-76539465D01*
X103240582Y-76765901D01*
X103890377Y-76741841D01*
X104378958Y-76539465D01*
X104477557Y-76272663D01*
X103505000Y-75300105D01*
X102532443Y-76272663D01*
X100537583Y-76272663D01*
X100336437Y-76071166D01*
X99729845Y-75819287D01*
X99073037Y-75818714D01*
X98466005Y-76069534D01*
X98001166Y-76533563D01*
X97749287Y-77140155D01*
X97748714Y-77796963D01*
X88340000Y-77796963D01*
X88340000Y-74856082D01*
X101859599Y-74856082D01*
X101883659Y-75505877D01*
X102086035Y-75994458D01*
X102352837Y-76093057D01*
X103325395Y-75120500D01*
X103684605Y-75120500D01*
X104657163Y-76093057D01*
X104923965Y-75994458D01*
X105150401Y-75384918D01*
X105126341Y-74735123D01*
X104923965Y-74246542D01*
X104657163Y-74147943D01*
X103684605Y-75120500D01*
X103325395Y-75120500D01*
X102352837Y-74147943D01*
X102086035Y-74246542D01*
X101859599Y-74856082D01*
X88340000Y-74856082D01*
X88340000Y-73968337D01*
X102532443Y-73968337D01*
X103505000Y-74940895D01*
X104477557Y-73968337D01*
X104378958Y-73701535D01*
X103769418Y-73475099D01*
X103119623Y-73499159D01*
X102631042Y-73701535D01*
X102532443Y-73968337D01*
X88340000Y-73968337D01*
X88340000Y-68454946D01*
X91358017Y-68454946D01*
X91626812Y-69040379D01*
X92099182Y-69478385D01*
X92581056Y-69677975D01*
X92837000Y-69558836D01*
X92837000Y-68199000D01*
X91476633Y-68199000D01*
X91358017Y-68454946D01*
X88340000Y-68454946D01*
X88340000Y-67689054D01*
X91358017Y-67689054D01*
X91476633Y-67945000D01*
X92837000Y-67945000D01*
X92837000Y-66585164D01*
X93091000Y-66585164D01*
X93091000Y-67945000D01*
X93111000Y-67945000D01*
X93111000Y-68199000D01*
X93091000Y-68199000D01*
X93091000Y-69558836D01*
X93346944Y-69677975D01*
X93828818Y-69478385D01*
X93926398Y-69387903D01*
X94023910Y-69539441D01*
X94236110Y-69684431D01*
X94488000Y-69735440D01*
X96520000Y-69735440D01*
X96755317Y-69691162D01*
X96971441Y-69552090D01*
X97116431Y-69339890D01*
X97167440Y-69088000D01*
X97167440Y-67056000D01*
X97123162Y-66820683D01*
X96984090Y-66604559D01*
X96771890Y-66459569D01*
X96520000Y-66408560D01*
X94488000Y-66408560D01*
X94252683Y-66452838D01*
X94036559Y-66591910D01*
X93925160Y-66754948D01*
X93828818Y-66665615D01*
X93346944Y-66466025D01*
X93091000Y-66585164D01*
X92837000Y-66585164D01*
X92581056Y-66466025D01*
X92099182Y-66665615D01*
X91626812Y-67103621D01*
X91358017Y-67689054D01*
X88340000Y-67689054D01*
X88340000Y-65480000D01*
X101557361Y-65480000D01*
X100986955Y-66049411D01*
G36*
X127381000Y-106607780D02*
X127375259Y-106593920D01*
X127123958Y-106513647D01*
X126259605Y-107378000D01*
X127123958Y-108242353D01*
X127375259Y-108162080D01*
X127381000Y-108146254D01*
X127381000Y-108851764D01*
X125101382Y-111131382D01*
X124908671Y-111419794D01*
X124841000Y-111760000D01*
X124841000Y-113970816D01*
X124742172Y-114036851D01*
X124460000Y-114459150D01*
X124177828Y-114036851D01*
X123724609Y-113734019D01*
X123190000Y-113627679D01*
X122655391Y-113734019D01*
X122202172Y-114036851D01*
X121920000Y-114459150D01*
X121637828Y-114036851D01*
X121539000Y-113970816D01*
X121539000Y-108421958D01*
X125215647Y-108421958D01*
X125295920Y-108673259D01*
X125851279Y-108874718D01*
X126441458Y-108848315D01*
X126864080Y-108673259D01*
X126944353Y-108421958D01*
X126080000Y-107557605D01*
X125215647Y-108421958D01*
X121539000Y-108421958D01*
X121539000Y-107974155D01*
X122363876Y-107149279D01*
X124583282Y-107149279D01*
X124609685Y-107739458D01*
X124784741Y-108162080D01*
X125036042Y-108242353D01*
X125900395Y-107378000D01*
X125036042Y-106513647D01*
X124784741Y-106593920D01*
X124583282Y-107149279D01*
X122363876Y-107149279D01*
X123179113Y-106334042D01*
X125215647Y-106334042D01*
X126080000Y-107198395D01*
X126944353Y-106334042D01*
X126864080Y-106082741D01*
X126308721Y-105881282D01*
X125718542Y-105907685D01*
X125295920Y-106082741D01*
X125215647Y-106334042D01*
X123179113Y-106334042D01*
X125057499Y-104455656D01*
X125237717Y-104636188D01*
X125783319Y-104862742D01*
X126374089Y-104863257D01*
X126920086Y-104637656D01*
X127338188Y-104220283D01*
X127381000Y-104117180D01*
X127381000Y-106607780D01*
X127381000Y-106607780D01*
G37*
X127381000Y-106607780D02*
X127375259Y-106593920D01*
X127123958Y-106513647D01*
X126259605Y-107378000D01*
X127123958Y-108242353D01*
X127375259Y-108162080D01*
X127381000Y-108146254D01*
X127381000Y-108851764D01*
X125101382Y-111131382D01*
X124908671Y-111419794D01*
X124841000Y-111760000D01*
X124841000Y-113970816D01*
X124742172Y-114036851D01*
X124460000Y-114459150D01*
X124177828Y-114036851D01*
X123724609Y-113734019D01*
X123190000Y-113627679D01*
X122655391Y-113734019D01*
X122202172Y-114036851D01*
X121920000Y-114459150D01*
X121637828Y-114036851D01*
X121539000Y-113970816D01*
X121539000Y-108421958D01*
X125215647Y-108421958D01*
X125295920Y-108673259D01*
X125851279Y-108874718D01*
X126441458Y-108848315D01*
X126864080Y-108673259D01*
X126944353Y-108421958D01*
X126080000Y-107557605D01*
X125215647Y-108421958D01*
X121539000Y-108421958D01*
X121539000Y-107974155D01*
X122363876Y-107149279D01*
X124583282Y-107149279D01*
X124609685Y-107739458D01*
X124784741Y-108162080D01*
X125036042Y-108242353D01*
X125900395Y-107378000D01*
X125036042Y-106513647D01*
X124784741Y-106593920D01*
X124583282Y-107149279D01*
X122363876Y-107149279D01*
X123179113Y-106334042D01*
X125215647Y-106334042D01*
X126080000Y-107198395D01*
X126944353Y-106334042D01*
X126864080Y-106082741D01*
X126308721Y-105881282D01*
X125718542Y-105907685D01*
X125295920Y-106082741D01*
X125215647Y-106334042D01*
X123179113Y-106334042D01*
X125057499Y-104455656D01*
X125237717Y-104636188D01*
X125783319Y-104862742D01*
X126374089Y-104863257D01*
X126920086Y-104637656D01*
X127338188Y-104220283D01*
X127381000Y-104117180D01*
X127381000Y-106607780D01*
M02*
