G04 #@! TF.FileFunction,Legend,Top*
%FSLAX46Y46*%
G04 Gerber Fmt 4.6, Leading zero omitted, Abs format (unit mm)*
G04 Created by KiCad (PCBNEW 4.0.1-3.201512221402+6198~38~ubuntu14.04.1-stable) date Sat 30 Apr 2016 11:46:46 AM PDT*
%MOMM*%
G01*
G04 APERTURE LIST*
%ADD10C,0.100000*%
%ADD11C,0.300000*%
%ADD12C,0.203200*%
%ADD13C,0.762000*%
%ADD14C,0.150000*%
%ADD15C,0.152400*%
%ADD16C,0.254000*%
%ADD17C,0.508000*%
%ADD18C,0.457200*%
G04 APERTURE END LIST*
D10*
D11*
X92395524Y-98158905D02*
X91790762Y-98582238D01*
X92395524Y-98884619D02*
X91125524Y-98884619D01*
X91125524Y-98400810D01*
X91186000Y-98279857D01*
X91246476Y-98219381D01*
X91367429Y-98158905D01*
X91548857Y-98158905D01*
X91669810Y-98219381D01*
X91730286Y-98279857D01*
X91790762Y-98400810D01*
X91790762Y-98884619D01*
X91730286Y-97614619D02*
X91730286Y-97191286D01*
X92395524Y-97009857D02*
X92395524Y-97614619D01*
X91125524Y-97614619D01*
X91125524Y-97009857D01*
X92274571Y-95739857D02*
X92335048Y-95800333D01*
X92395524Y-95981762D01*
X92395524Y-96102714D01*
X92335048Y-96284142D01*
X92214095Y-96405095D01*
X92093143Y-96465571D01*
X91851238Y-96526047D01*
X91669810Y-96526047D01*
X91427905Y-96465571D01*
X91306952Y-96405095D01*
X91186000Y-96284142D01*
X91125524Y-96102714D01*
X91125524Y-95981762D01*
X91186000Y-95800333D01*
X91246476Y-95739857D01*
X91125524Y-94953666D02*
X91125524Y-94711762D01*
X91186000Y-94590809D01*
X91306952Y-94469857D01*
X91548857Y-94409381D01*
X91972190Y-94409381D01*
X92214095Y-94469857D01*
X92335048Y-94590809D01*
X92395524Y-94711762D01*
X92395524Y-94953666D01*
X92335048Y-95074619D01*
X92214095Y-95195571D01*
X91972190Y-95256047D01*
X91548857Y-95256047D01*
X91306952Y-95195571D01*
X91186000Y-95074619D01*
X91125524Y-94953666D01*
X92395524Y-93139381D02*
X91790762Y-93562714D01*
X92395524Y-93865095D02*
X91125524Y-93865095D01*
X91125524Y-93381286D01*
X91186000Y-93260333D01*
X91246476Y-93199857D01*
X91367429Y-93139381D01*
X91548857Y-93139381D01*
X91669810Y-93199857D01*
X91730286Y-93260333D01*
X91790762Y-93381286D01*
X91790762Y-93865095D01*
X92395524Y-92595095D02*
X91125524Y-92595095D01*
X91125524Y-92292714D01*
X91186000Y-92111286D01*
X91306952Y-91990333D01*
X91427905Y-91929857D01*
X91669810Y-91869381D01*
X91851238Y-91869381D01*
X92093143Y-91929857D01*
X92214095Y-91990333D01*
X92335048Y-92111286D01*
X92395524Y-92292714D01*
X92395524Y-92595095D01*
D12*
X121895810Y-94185619D02*
X121895810Y-93169619D01*
X122282857Y-93169619D01*
X122379619Y-93218000D01*
X122428000Y-93266381D01*
X122476381Y-93363143D01*
X122476381Y-93508286D01*
X122428000Y-93605048D01*
X122379619Y-93653429D01*
X122282857Y-93701810D01*
X121895810Y-93701810D01*
X122815048Y-93169619D02*
X123056953Y-94185619D01*
X123250476Y-93459905D01*
X123444000Y-94185619D01*
X123685905Y-93169619D01*
X124072953Y-94185619D02*
X124072953Y-93169619D01*
X124411619Y-93895333D01*
X124750286Y-93169619D01*
X124750286Y-94185619D01*
X123879429Y-83009619D02*
X123395620Y-83009619D01*
X123347239Y-83493429D01*
X123395620Y-83445048D01*
X123492382Y-83396667D01*
X123734286Y-83396667D01*
X123831048Y-83445048D01*
X123879429Y-83493429D01*
X123927810Y-83590190D01*
X123927810Y-83832095D01*
X123879429Y-83928857D01*
X123831048Y-83977238D01*
X123734286Y-84025619D01*
X123492382Y-84025619D01*
X123395620Y-83977238D01*
X123347239Y-83928857D01*
X124218096Y-83009619D02*
X124556763Y-84025619D01*
X124895429Y-83009619D01*
X122669905Y-80772000D02*
X122573143Y-80723619D01*
X122428000Y-80723619D01*
X122282858Y-80772000D01*
X122186096Y-80868762D01*
X122137715Y-80965524D01*
X122089334Y-81159048D01*
X122089334Y-81304190D01*
X122137715Y-81497714D01*
X122186096Y-81594476D01*
X122282858Y-81691238D01*
X122428000Y-81739619D01*
X122524762Y-81739619D01*
X122669905Y-81691238D01*
X122718286Y-81642857D01*
X122718286Y-81304190D01*
X122524762Y-81304190D01*
X123153715Y-81739619D02*
X123153715Y-80723619D01*
X123734286Y-81739619D01*
X123734286Y-80723619D01*
X124218096Y-81739619D02*
X124218096Y-80723619D01*
X124460001Y-80723619D01*
X124605143Y-80772000D01*
X124701905Y-80868762D01*
X124750286Y-80965524D01*
X124798667Y-81159048D01*
X124798667Y-81304190D01*
X124750286Y-81497714D01*
X124701905Y-81594476D01*
X124605143Y-81691238D01*
X124460001Y-81739619D01*
X124218096Y-81739619D01*
D13*
X151163860Y-103886000D02*
G75*
G03X151163860Y-103886000I-5494860J0D01*
G01*
X144051860Y-91346860D02*
G75*
G03X144051860Y-91346860I-5494860J0D01*
G01*
X150749000Y-78994000D02*
G75*
G03X150749000Y-78994000I-5494860J0D01*
G01*
D11*
X89344572Y-68179143D02*
X90487429Y-68179143D01*
X97628572Y-68307143D02*
X98771429Y-68307143D01*
X98200000Y-68878571D02*
X98200000Y-67735714D01*
X101349024Y-98997619D02*
X100079024Y-98997619D01*
X100079024Y-98513810D01*
X100139500Y-98392857D01*
X100199976Y-98332381D01*
X100320929Y-98271905D01*
X100502357Y-98271905D01*
X100623310Y-98332381D01*
X100683786Y-98392857D01*
X100744262Y-98513810D01*
X100744262Y-98997619D01*
X101349024Y-97122857D02*
X101349024Y-97727619D01*
X100079024Y-97727619D01*
X100986167Y-96760000D02*
X100986167Y-96155238D01*
X101349024Y-96880953D02*
X100079024Y-96457619D01*
X101349024Y-96034286D01*
X100744262Y-95369048D02*
X101349024Y-95369048D01*
X100079024Y-95792382D02*
X100744262Y-95369048D01*
X100079024Y-94945715D01*
X100683786Y-94099049D02*
X100744262Y-93917620D01*
X100804738Y-93857144D01*
X100925690Y-93796668D01*
X101107119Y-93796668D01*
X101228071Y-93857144D01*
X101288548Y-93917620D01*
X101349024Y-94038573D01*
X101349024Y-94522382D01*
X100079024Y-94522382D01*
X100079024Y-94099049D01*
X100139500Y-93978096D01*
X100199976Y-93917620D01*
X100320929Y-93857144D01*
X100441881Y-93857144D01*
X100562833Y-93917620D01*
X100623310Y-93978096D01*
X100683786Y-94099049D01*
X100683786Y-94522382D01*
X100986167Y-93312858D02*
X100986167Y-92708096D01*
X101349024Y-93433811D02*
X100079024Y-93010477D01*
X101349024Y-92587144D01*
X101228071Y-91438097D02*
X101288548Y-91498573D01*
X101349024Y-91680002D01*
X101349024Y-91800954D01*
X101288548Y-91982382D01*
X101167595Y-92103335D01*
X101046643Y-92163811D01*
X100804738Y-92224287D01*
X100623310Y-92224287D01*
X100381405Y-92163811D01*
X100260452Y-92103335D01*
X100139500Y-91982382D01*
X100079024Y-91800954D01*
X100079024Y-91680002D01*
X100139500Y-91498573D01*
X100199976Y-91438097D01*
X101349024Y-90893811D02*
X100079024Y-90893811D01*
X101349024Y-90168097D02*
X100623310Y-90712382D01*
X100079024Y-90168097D02*
X100804738Y-90893811D01*
X97034048Y-98881595D02*
X97094524Y-98700167D01*
X97094524Y-98397786D01*
X97034048Y-98276833D01*
X96973571Y-98216357D01*
X96852619Y-98155881D01*
X96731667Y-98155881D01*
X96610714Y-98216357D01*
X96550238Y-98276833D01*
X96489762Y-98397786D01*
X96429286Y-98639690D01*
X96368810Y-98760643D01*
X96308333Y-98821119D01*
X96187381Y-98881595D01*
X96066429Y-98881595D01*
X95945476Y-98821119D01*
X95885000Y-98760643D01*
X95824524Y-98639690D01*
X95824524Y-98337310D01*
X95885000Y-98155881D01*
X95824524Y-97793024D02*
X95824524Y-97067309D01*
X97094524Y-97430166D02*
X95824524Y-97430166D01*
X95824524Y-96402071D02*
X95824524Y-96160167D01*
X95885000Y-96039214D01*
X96005952Y-95918262D01*
X96247857Y-95857786D01*
X96671190Y-95857786D01*
X96913095Y-95918262D01*
X97034048Y-96039214D01*
X97094524Y-96160167D01*
X97094524Y-96402071D01*
X97034048Y-96523024D01*
X96913095Y-96643976D01*
X96671190Y-96704452D01*
X96247857Y-96704452D01*
X96005952Y-96643976D01*
X95885000Y-96523024D01*
X95824524Y-96402071D01*
X97094524Y-95313500D02*
X95824524Y-95313500D01*
X95824524Y-94829691D01*
X95885000Y-94708738D01*
X95945476Y-94648262D01*
X96066429Y-94587786D01*
X96247857Y-94587786D01*
X96368810Y-94648262D01*
X96429286Y-94708738D01*
X96489762Y-94829691D01*
X96489762Y-95313500D01*
D14*
X125130000Y-102378000D02*
X125130000Y-102478000D01*
X125030000Y-102328000D02*
X125380000Y-102328000D01*
X125380000Y-102328000D02*
G75*
G03X125030000Y-102678000I700000J-1050000D01*
G01*
X125030000Y-102328000D02*
X125030000Y-102678000D01*
X130494214Y-105378000D02*
G75*
G03X130494214Y-105378000I-1414214J0D01*
G01*
X127080000Y-108378000D02*
X131080000Y-108378000D01*
X127080000Y-102378000D02*
X131080000Y-102378000D01*
X126080000Y-106128000D02*
X126080000Y-104628000D01*
X132080000Y-104628000D02*
X132080000Y-106128000D01*
D10*
X126080000Y-105378000D02*
X126080000Y-105378000D01*
X131080000Y-108378000D02*
X127080000Y-108378000D01*
X131080000Y-102378000D02*
X127080000Y-102378000D01*
X132080000Y-105378000D02*
X132080000Y-105378000D01*
X130494214Y-105378000D02*
G75*
G03X130494214Y-105378000I-1414214J0D01*
G01*
D15*
X108585000Y-75692000D02*
X128524000Y-75692000D01*
X128524000Y-97790000D02*
X128524000Y-75692000D01*
X108585000Y-97790000D02*
X108585000Y-75692000D01*
X108585000Y-97790000D02*
X128524000Y-97790000D01*
D14*
X128524000Y-82135000D02*
X126040000Y-82135000D01*
X125710000Y-81015000D02*
X125710000Y-79465000D01*
X125735000Y-79440000D02*
X128524000Y-79440000D01*
X91241112Y-111760904D02*
G75*
G03X91226000Y-108736000I2484888J1524904D01*
G01*
X91226000Y-111736000D02*
X91226000Y-108736000D01*
X96243936Y-110236000D02*
G75*
G03X96243936Y-110236000I-2517936J0D01*
G01*
X104449112Y-111252904D02*
G75*
G03X104434000Y-108228000I2484888J1524904D01*
G01*
X104434000Y-111228000D02*
X104434000Y-108228000D01*
X109451936Y-109728000D02*
G75*
G03X109451936Y-109728000I-2517936J0D01*
G01*
X112141000Y-100076000D02*
X117221000Y-100076000D01*
X117221000Y-100076000D02*
X117221000Y-102616000D01*
X117221000Y-102616000D02*
X112141000Y-102616000D01*
X112141000Y-102616000D02*
X112141000Y-100076000D01*
X112141000Y-104711500D02*
X117221000Y-104711500D01*
X117221000Y-104711500D02*
X117221000Y-107251500D01*
X117221000Y-107251500D02*
X112141000Y-107251500D01*
X112141000Y-107251500D02*
X112141000Y-104711500D01*
X102235000Y-81470500D02*
X102235000Y-76390500D01*
X102235000Y-76390500D02*
X104775000Y-76390500D01*
X104775000Y-76390500D02*
X104775000Y-81470500D01*
X104775000Y-81470500D02*
X102235000Y-81470500D01*
X104870000Y-87750000D02*
X104870000Y-92830000D01*
X104870000Y-92830000D02*
X102330000Y-92830000D01*
X102330000Y-92830000D02*
X102330000Y-87750000D01*
X102330000Y-87750000D02*
X104870000Y-87750000D01*
X97850000Y-77470000D02*
X97850000Y-75920000D01*
X97850000Y-75920000D02*
X100950000Y-75920000D01*
X100950000Y-75920000D02*
X100950000Y-77470000D01*
X100670000Y-78740000D02*
X100670000Y-88900000D01*
X100670000Y-88900000D02*
X98130000Y-88900000D01*
X98130000Y-88900000D02*
X98130000Y-78740000D01*
X100670000Y-78740000D02*
X98130000Y-78740000D01*
X100838000Y-101320000D02*
X102388000Y-101320000D01*
X102388000Y-101320000D02*
X102388000Y-104420000D01*
X102388000Y-104420000D02*
X100838000Y-104420000D01*
X99568000Y-104140000D02*
X89916000Y-104140000D01*
X89916000Y-104140000D02*
X89916000Y-101600000D01*
X89916000Y-101600000D02*
X99568000Y-101600000D01*
X94234000Y-69342000D02*
X91694000Y-69342000D01*
X97054000Y-69622000D02*
X95504000Y-69622000D01*
X94234000Y-69342000D02*
X94234000Y-66802000D01*
X95504000Y-66522000D02*
X97054000Y-66522000D01*
X97054000Y-66522000D02*
X97054000Y-69622000D01*
X94234000Y-66802000D02*
X91694000Y-66802000D01*
X91694000Y-66802000D02*
X91694000Y-69342000D01*
D16*
X123776619Y-106504619D02*
X123292810Y-106843285D01*
X123776619Y-107085190D02*
X122760619Y-107085190D01*
X122760619Y-106698143D01*
X122809000Y-106601381D01*
X122857381Y-106553000D01*
X122954143Y-106504619D01*
X123099286Y-106504619D01*
X123196048Y-106553000D01*
X123244429Y-106601381D01*
X123292810Y-106698143D01*
X123292810Y-107085190D01*
X123244429Y-106069190D02*
X123244429Y-105730524D01*
X123776619Y-105585381D02*
X123776619Y-106069190D01*
X122760619Y-106069190D01*
X122760619Y-105585381D01*
X123728238Y-105198333D02*
X123776619Y-105053190D01*
X123776619Y-104811286D01*
X123728238Y-104714524D01*
X123679857Y-104666143D01*
X123583095Y-104617762D01*
X123486333Y-104617762D01*
X123389571Y-104666143D01*
X123341190Y-104714524D01*
X123292810Y-104811286D01*
X123244429Y-105004809D01*
X123196048Y-105101571D01*
X123147667Y-105149952D01*
X123050905Y-105198333D01*
X122954143Y-105198333D01*
X122857381Y-105149952D01*
X122809000Y-105101571D01*
X122760619Y-105004809D01*
X122760619Y-104762905D01*
X122809000Y-104617762D01*
X123244429Y-104182333D02*
X123244429Y-103843667D01*
X123776619Y-103698524D02*
X123776619Y-104182333D01*
X122760619Y-104182333D01*
X122760619Y-103698524D01*
X122760619Y-103408238D02*
X122760619Y-102827667D01*
X123776619Y-103117952D02*
X122760619Y-103117952D01*
D17*
X146304000Y-104285143D02*
X146304000Y-102470857D01*
X147392571Y-104648000D02*
X143582571Y-103378000D01*
X147392571Y-102108000D01*
D18*
X145523857Y-78576714D02*
X145523857Y-79846714D01*
X147519571Y-79846714D02*
X143709571Y-79846714D01*
X143709571Y-78032428D01*
D17*
X139917714Y-89625714D02*
X140099143Y-89807143D01*
X140280571Y-90351429D01*
X140280571Y-90714286D01*
X140099143Y-91258571D01*
X139736286Y-91621429D01*
X139373429Y-91802857D01*
X138647714Y-91984286D01*
X138103429Y-91984286D01*
X137377714Y-91802857D01*
X137014857Y-91621429D01*
X136652000Y-91258571D01*
X136470571Y-90714286D01*
X136470571Y-90351429D01*
X136652000Y-89807143D01*
X136833429Y-89625714D01*
D14*
X110307381Y-92518523D02*
X110307381Y-92994714D01*
X109307381Y-92994714D01*
X109307381Y-92328047D02*
X110307381Y-91994714D01*
X109307381Y-91661380D01*
X109926429Y-91328047D02*
X109926429Y-90566142D01*
X109783571Y-90089952D02*
X109783571Y-89756618D01*
X110307381Y-89613761D02*
X110307381Y-90089952D01*
X109307381Y-90089952D01*
X109307381Y-89613761D01*
X109307381Y-89280428D02*
X109307381Y-88613761D01*
X110307381Y-89280428D01*
X110307381Y-88613761D01*
X110307381Y-87708999D02*
X110307381Y-88280428D01*
X110307381Y-87994714D02*
X109307381Y-87994714D01*
X109450238Y-88089952D01*
X109545476Y-88185190D01*
X109593095Y-88280428D01*
X109926429Y-87280428D02*
X109926429Y-86518523D01*
X110307381Y-85470904D02*
X109831190Y-85804238D01*
X110307381Y-86042333D02*
X109307381Y-86042333D01*
X109307381Y-85661380D01*
X109355000Y-85566142D01*
X109402619Y-85518523D01*
X109497857Y-85470904D01*
X109640714Y-85470904D01*
X109735952Y-85518523D01*
X109783571Y-85566142D01*
X109831190Y-85661380D01*
X109831190Y-86042333D01*
X110021667Y-85089952D02*
X110021667Y-84613761D01*
X110307381Y-85185190D02*
X109307381Y-84851857D01*
X110307381Y-84518523D01*
X110307381Y-84185190D02*
X109307381Y-84185190D01*
X110307381Y-83613761D01*
X109307381Y-83613761D01*
X109355000Y-82613761D02*
X109307381Y-82708999D01*
X109307381Y-82851856D01*
X109355000Y-82994714D01*
X109450238Y-83089952D01*
X109545476Y-83137571D01*
X109735952Y-83185190D01*
X109878810Y-83185190D01*
X110069286Y-83137571D01*
X110164524Y-83089952D01*
X110259762Y-82994714D01*
X110307381Y-82851856D01*
X110307381Y-82756618D01*
X110259762Y-82613761D01*
X110212143Y-82566142D01*
X109878810Y-82566142D01*
X109878810Y-82756618D01*
X109783571Y-82137571D02*
X109783571Y-81804237D01*
X110307381Y-81661380D02*
X110307381Y-82137571D01*
X109307381Y-82137571D01*
X109307381Y-81661380D01*
X109783571Y-80899475D02*
X109783571Y-81232809D01*
X110307381Y-81232809D02*
X109307381Y-81232809D01*
X109307381Y-80756618D01*
X110307381Y-80375666D02*
X109307381Y-80375666D01*
X110307381Y-79899476D02*
X109307381Y-79899476D01*
X110307381Y-79328047D01*
X109307381Y-79328047D01*
X110307381Y-78851857D02*
X109307381Y-78851857D01*
X109307381Y-78613762D01*
X109355000Y-78470904D01*
X109450238Y-78375666D01*
X109545476Y-78328047D01*
X109735952Y-78280428D01*
X109878810Y-78280428D01*
X110069286Y-78328047D01*
X110164524Y-78375666D01*
X110259762Y-78470904D01*
X110307381Y-78613762D01*
X110307381Y-78851857D01*
X109783571Y-77851857D02*
X109783571Y-77518523D01*
X110307381Y-77375666D02*
X110307381Y-77851857D01*
X109307381Y-77851857D01*
X109307381Y-77375666D01*
X110307381Y-76375666D02*
X109831190Y-76709000D01*
X110307381Y-76947095D02*
X109307381Y-76947095D01*
X109307381Y-76566142D01*
X109355000Y-76470904D01*
X109402619Y-76423285D01*
X109497857Y-76375666D01*
X109640714Y-76375666D01*
X109735952Y-76423285D01*
X109783571Y-76470904D01*
X109831190Y-76566142D01*
X109831190Y-76947095D01*
D16*
X98503619Y-110762143D02*
X98019810Y-111100809D01*
X98503619Y-111342714D02*
X97487619Y-111342714D01*
X97487619Y-110955667D01*
X97536000Y-110858905D01*
X97584381Y-110810524D01*
X97681143Y-110762143D01*
X97826286Y-110762143D01*
X97923048Y-110810524D01*
X97971429Y-110858905D01*
X98019810Y-110955667D01*
X98019810Y-111342714D01*
X97971429Y-110326714D02*
X97971429Y-109988048D01*
X98503619Y-109842905D02*
X98503619Y-110326714D01*
X97487619Y-110326714D01*
X97487619Y-109842905D01*
X98406857Y-108826905D02*
X98455238Y-108875286D01*
X98503619Y-109020429D01*
X98503619Y-109117191D01*
X98455238Y-109262333D01*
X98358476Y-109359095D01*
X98261714Y-109407476D01*
X98068190Y-109455857D01*
X97923048Y-109455857D01*
X97729524Y-109407476D01*
X97632762Y-109359095D01*
X97536000Y-109262333D01*
X97487619Y-109117191D01*
X97487619Y-109020429D01*
X97536000Y-108875286D01*
X97584381Y-108826905D01*
X111584619Y-112038190D02*
X110568619Y-112038190D01*
X110568619Y-111651143D01*
X110617000Y-111554381D01*
X110665381Y-111506000D01*
X110762143Y-111457619D01*
X110907286Y-111457619D01*
X111004048Y-111506000D01*
X111052429Y-111554381D01*
X111100810Y-111651143D01*
X111100810Y-112038190D01*
X111584619Y-110538381D02*
X111584619Y-111022190D01*
X110568619Y-111022190D01*
X111294333Y-110248095D02*
X111294333Y-109764286D01*
X111584619Y-110344857D02*
X110568619Y-110006190D01*
X111584619Y-109667524D01*
X111100810Y-109135333D02*
X111584619Y-109135333D01*
X110568619Y-109474000D02*
X111100810Y-109135333D01*
X110568619Y-108796667D01*
D14*
X114514334Y-101798381D02*
X114181000Y-101322190D01*
X113942905Y-101798381D02*
X113942905Y-100798381D01*
X114323858Y-100798381D01*
X114419096Y-100846000D01*
X114466715Y-100893619D01*
X114514334Y-100988857D01*
X114514334Y-101131714D01*
X114466715Y-101226952D01*
X114419096Y-101274571D01*
X114323858Y-101322190D01*
X113942905Y-101322190D01*
X115466715Y-101798381D02*
X114895286Y-101798381D01*
X115181000Y-101798381D02*
X115181000Y-100798381D01*
X115085762Y-100941238D01*
X114990524Y-101036476D01*
X114895286Y-101084095D01*
X114641334Y-106370381D02*
X114308000Y-105894190D01*
X114069905Y-106370381D02*
X114069905Y-105370381D01*
X114450858Y-105370381D01*
X114546096Y-105418000D01*
X114593715Y-105465619D01*
X114641334Y-105560857D01*
X114641334Y-105703714D01*
X114593715Y-105798952D01*
X114546096Y-105846571D01*
X114450858Y-105894190D01*
X114069905Y-105894190D01*
X115022286Y-105465619D02*
X115069905Y-105418000D01*
X115165143Y-105370381D01*
X115403239Y-105370381D01*
X115498477Y-105418000D01*
X115546096Y-105465619D01*
X115593715Y-105560857D01*
X115593715Y-105656095D01*
X115546096Y-105798952D01*
X114974667Y-106370381D01*
X115593715Y-106370381D01*
X103957381Y-79160666D02*
X103481190Y-79494000D01*
X103957381Y-79732095D02*
X102957381Y-79732095D01*
X102957381Y-79351142D01*
X103005000Y-79255904D01*
X103052619Y-79208285D01*
X103147857Y-79160666D01*
X103290714Y-79160666D01*
X103385952Y-79208285D01*
X103433571Y-79255904D01*
X103481190Y-79351142D01*
X103481190Y-79732095D01*
X102957381Y-78827333D02*
X102957381Y-78208285D01*
X103338333Y-78541619D01*
X103338333Y-78398761D01*
X103385952Y-78303523D01*
X103433571Y-78255904D01*
X103528810Y-78208285D01*
X103766905Y-78208285D01*
X103862143Y-78255904D01*
X103909762Y-78303523D01*
X103957381Y-78398761D01*
X103957381Y-78684476D01*
X103909762Y-78779714D01*
X103862143Y-78827333D01*
X104084381Y-90705586D02*
X103608190Y-91038920D01*
X104084381Y-91277015D02*
X103084381Y-91277015D01*
X103084381Y-90896062D01*
X103132000Y-90800824D01*
X103179619Y-90753205D01*
X103274857Y-90705586D01*
X103417714Y-90705586D01*
X103512952Y-90753205D01*
X103560571Y-90800824D01*
X103608190Y-90896062D01*
X103608190Y-91277015D01*
X103417714Y-89848443D02*
X104084381Y-89848443D01*
X103036762Y-90086539D02*
X103751048Y-90324634D01*
X103751048Y-89705586D01*
X95210381Y-86756524D02*
X96210381Y-86423191D01*
X95210381Y-86089857D01*
X95210381Y-85566048D02*
X95210381Y-85375571D01*
X95258000Y-85280333D01*
X95353238Y-85185095D01*
X95543714Y-85137476D01*
X95877048Y-85137476D01*
X96067524Y-85185095D01*
X96162762Y-85280333D01*
X96210381Y-85375571D01*
X96210381Y-85566048D01*
X96162762Y-85661286D01*
X96067524Y-85756524D01*
X95877048Y-85804143D01*
X95543714Y-85804143D01*
X95353238Y-85756524D01*
X95258000Y-85661286D01*
X95210381Y-85566048D01*
X96210381Y-84232714D02*
X96210381Y-84708905D01*
X95210381Y-84708905D01*
X95210381Y-83899381D02*
X96019905Y-83899381D01*
X96115143Y-83851762D01*
X96162762Y-83804143D01*
X96210381Y-83708905D01*
X96210381Y-83518428D01*
X96162762Y-83423190D01*
X96115143Y-83375571D01*
X96019905Y-83327952D01*
X95210381Y-83327952D01*
X96210381Y-82851762D02*
X95210381Y-82851762D01*
X95924667Y-82518428D01*
X95210381Y-82185095D01*
X96210381Y-82185095D01*
X95686571Y-81708905D02*
X95686571Y-81375571D01*
X96210381Y-81232714D02*
X96210381Y-81708905D01*
X95210381Y-81708905D01*
X95210381Y-81232714D01*
X92472095Y-71651762D02*
X92614952Y-71699381D01*
X92853048Y-71699381D01*
X92948286Y-71651762D01*
X92995905Y-71604143D01*
X93043524Y-71508905D01*
X93043524Y-71413667D01*
X92995905Y-71318429D01*
X92948286Y-71270810D01*
X92853048Y-71223190D01*
X92662571Y-71175571D01*
X92567333Y-71127952D01*
X92519714Y-71080333D01*
X92472095Y-70985095D01*
X92472095Y-70889857D01*
X92519714Y-70794619D01*
X92567333Y-70747000D01*
X92662571Y-70699381D01*
X92900667Y-70699381D01*
X93043524Y-70747000D01*
X93472095Y-71699381D02*
X93472095Y-70699381D01*
X93853048Y-70699381D01*
X93948286Y-70747000D01*
X93995905Y-70794619D01*
X94043524Y-70889857D01*
X94043524Y-71032714D01*
X93995905Y-71127952D01*
X93948286Y-71175571D01*
X93853048Y-71223190D01*
X93472095Y-71223190D01*
X94472095Y-71699381D02*
X94472095Y-70699381D01*
X95043524Y-71699381D02*
X94614952Y-71127952D01*
X95043524Y-70699381D02*
X94472095Y-71270810D01*
X95995905Y-71699381D02*
X95424476Y-71699381D01*
X95710190Y-71699381D02*
X95710190Y-70699381D01*
X95614952Y-70842238D01*
X95519714Y-70937476D01*
X95424476Y-70985095D01*
X118435381Y-113410762D02*
X117435381Y-113410762D01*
X117435381Y-112744096D02*
X117435381Y-112553619D01*
X117483000Y-112458381D01*
X117578238Y-112363143D01*
X117768714Y-112315524D01*
X118102048Y-112315524D01*
X118292524Y-112363143D01*
X118387762Y-112458381D01*
X118435381Y-112553619D01*
X118435381Y-112744096D01*
X118387762Y-112839334D01*
X118292524Y-112934572D01*
X118102048Y-112982191D01*
X117768714Y-112982191D01*
X117578238Y-112934572D01*
X117483000Y-112839334D01*
X117435381Y-112744096D01*
X118435381Y-111315524D02*
X117959190Y-111648858D01*
X118435381Y-111886953D02*
X117435381Y-111886953D01*
X117435381Y-111506000D01*
X117483000Y-111410762D01*
X117530619Y-111363143D01*
X117625857Y-111315524D01*
X117768714Y-111315524D01*
X117863952Y-111363143D01*
X117911571Y-111410762D01*
X117959190Y-111506000D01*
X117959190Y-111886953D01*
X117911571Y-110886953D02*
X117911571Y-110553619D01*
X118435381Y-110410762D02*
X118435381Y-110886953D01*
X117435381Y-110886953D01*
X117435381Y-110410762D01*
X117911571Y-109648857D02*
X117911571Y-109982191D01*
X118435381Y-109982191D02*
X117435381Y-109982191D01*
X117435381Y-109506000D01*
X115875381Y-113434714D02*
X114875381Y-113434714D01*
X115875381Y-112863285D01*
X114875381Y-112863285D01*
X115780143Y-111815666D02*
X115827762Y-111863285D01*
X115875381Y-112006142D01*
X115875381Y-112101380D01*
X115827762Y-112244238D01*
X115732524Y-112339476D01*
X115637286Y-112387095D01*
X115446810Y-112434714D01*
X115303952Y-112434714D01*
X115113476Y-112387095D01*
X115018238Y-112339476D01*
X114923000Y-112244238D01*
X114875381Y-112101380D01*
X114875381Y-112006142D01*
X114923000Y-111863285D01*
X114970619Y-111815666D01*
X120975381Y-112942619D02*
X120499190Y-113275953D01*
X120975381Y-113514048D02*
X119975381Y-113514048D01*
X119975381Y-113133095D01*
X120023000Y-113037857D01*
X120070619Y-112990238D01*
X120165857Y-112942619D01*
X120308714Y-112942619D01*
X120403952Y-112990238D01*
X120451571Y-113037857D01*
X120499190Y-113133095D01*
X120499190Y-113514048D01*
X120927762Y-112561667D02*
X120975381Y-112418810D01*
X120975381Y-112180714D01*
X120927762Y-112085476D01*
X120880143Y-112037857D01*
X120784905Y-111990238D01*
X120689667Y-111990238D01*
X120594429Y-112037857D01*
X120546810Y-112085476D01*
X120499190Y-112180714D01*
X120451571Y-112371191D01*
X120403952Y-112466429D01*
X120356333Y-112514048D01*
X120261095Y-112561667D01*
X120165857Y-112561667D01*
X120070619Y-112514048D01*
X120023000Y-112466429D01*
X119975381Y-112371191D01*
X119975381Y-112133095D01*
X120023000Y-111990238D01*
X119975381Y-111704524D02*
X119975381Y-111133095D01*
X120975381Y-111418810D02*
X119975381Y-111418810D01*
X122642381Y-113490190D02*
X122642381Y-112871142D01*
X123023333Y-113204476D01*
X123023333Y-113061618D01*
X123070952Y-112966380D01*
X123118571Y-112918761D01*
X123213810Y-112871142D01*
X123451905Y-112871142D01*
X123547143Y-112918761D01*
X123594762Y-112966380D01*
X123642381Y-113061618D01*
X123642381Y-113347333D01*
X123594762Y-113442571D01*
X123547143Y-113490190D01*
X123547143Y-112442571D02*
X123594762Y-112394952D01*
X123642381Y-112442571D01*
X123594762Y-112490190D01*
X123547143Y-112442571D01*
X123642381Y-112442571D01*
X122642381Y-112061619D02*
X122642381Y-111442571D01*
X123023333Y-111775905D01*
X123023333Y-111633047D01*
X123070952Y-111537809D01*
X123118571Y-111490190D01*
X123213810Y-111442571D01*
X123451905Y-111442571D01*
X123547143Y-111490190D01*
X123594762Y-111537809D01*
X123642381Y-111633047D01*
X123642381Y-111918762D01*
X123594762Y-112014000D01*
X123547143Y-112061619D01*
X122642381Y-111156857D02*
X123642381Y-110823524D01*
X122642381Y-110490190D01*
X125035381Y-112839476D02*
X125035381Y-113315667D01*
X125511571Y-113363286D01*
X125463952Y-113315667D01*
X125416333Y-113220429D01*
X125416333Y-112982333D01*
X125463952Y-112887095D01*
X125511571Y-112839476D01*
X125606810Y-112791857D01*
X125844905Y-112791857D01*
X125940143Y-112839476D01*
X125987762Y-112887095D01*
X126035381Y-112982333D01*
X126035381Y-113220429D01*
X125987762Y-113315667D01*
X125940143Y-113363286D01*
X125035381Y-112506143D02*
X126035381Y-112172810D01*
X125035381Y-111839476D01*
X127623000Y-112902904D02*
X127575381Y-112998142D01*
X127575381Y-113140999D01*
X127623000Y-113283857D01*
X127718238Y-113379095D01*
X127813476Y-113426714D01*
X128003952Y-113474333D01*
X128146810Y-113474333D01*
X128337286Y-113426714D01*
X128432524Y-113379095D01*
X128527762Y-113283857D01*
X128575381Y-113140999D01*
X128575381Y-113045761D01*
X128527762Y-112902904D01*
X128480143Y-112855285D01*
X128146810Y-112855285D01*
X128146810Y-113045761D01*
X128575381Y-112426714D02*
X127575381Y-112426714D01*
X128575381Y-111855285D01*
X127575381Y-111855285D01*
X128575381Y-111379095D02*
X127575381Y-111379095D01*
X127575381Y-111141000D01*
X127623000Y-110998142D01*
X127718238Y-110902904D01*
X127813476Y-110855285D01*
X128003952Y-110807666D01*
X128146810Y-110807666D01*
X128337286Y-110855285D01*
X128432524Y-110902904D01*
X128527762Y-110998142D01*
X128575381Y-111141000D01*
X128575381Y-111379095D01*
X130198000Y-112902904D02*
X130150381Y-112998142D01*
X130150381Y-113140999D01*
X130198000Y-113283857D01*
X130293238Y-113379095D01*
X130388476Y-113426714D01*
X130578952Y-113474333D01*
X130721810Y-113474333D01*
X130912286Y-113426714D01*
X131007524Y-113379095D01*
X131102762Y-113283857D01*
X131150381Y-113140999D01*
X131150381Y-113045761D01*
X131102762Y-112902904D01*
X131055143Y-112855285D01*
X130721810Y-112855285D01*
X130721810Y-113045761D01*
X131150381Y-112426714D02*
X130150381Y-112426714D01*
X131150381Y-111855285D01*
X130150381Y-111855285D01*
X131150381Y-111379095D02*
X130150381Y-111379095D01*
X130150381Y-111141000D01*
X130198000Y-110998142D01*
X130293238Y-110902904D01*
X130388476Y-110855285D01*
X130578952Y-110807666D01*
X130721810Y-110807666D01*
X130912286Y-110855285D01*
X131007524Y-110902904D01*
X131102762Y-110998142D01*
X131150381Y-111141000D01*
X131150381Y-111379095D01*
X132825381Y-113311238D02*
X133825381Y-112977905D01*
X132825381Y-112644571D01*
X133825381Y-112311238D02*
X132825381Y-112311238D01*
X133825381Y-111835048D02*
X132825381Y-111835048D01*
X133825381Y-111263619D01*
X132825381Y-111263619D01*
X151319667Y-113438286D02*
X151319667Y-112962095D01*
X151605381Y-113533524D02*
X150605381Y-113200191D01*
X151605381Y-112866857D01*
X150605381Y-112057333D02*
X150605381Y-112533524D01*
X151081571Y-112581143D01*
X151033952Y-112533524D01*
X150986333Y-112438286D01*
X150986333Y-112200190D01*
X151033952Y-112104952D01*
X151081571Y-112057333D01*
X151176810Y-112009714D01*
X151414905Y-112009714D01*
X151510143Y-112057333D01*
X151557762Y-112104952D01*
X151605381Y-112200190D01*
X151605381Y-112438286D01*
X151557762Y-112533524D01*
X151510143Y-112581143D01*
X148644667Y-113363286D02*
X148644667Y-112887095D01*
X148930381Y-113458524D02*
X147930381Y-113125191D01*
X148930381Y-112791857D01*
X148263714Y-112029952D02*
X148930381Y-112029952D01*
X147882762Y-112268048D02*
X148597048Y-112506143D01*
X148597048Y-111887095D01*
X146069667Y-113363286D02*
X146069667Y-112887095D01*
X146355381Y-113458524D02*
X145355381Y-113125191D01*
X146355381Y-112791857D01*
X145355381Y-112553762D02*
X145355381Y-111934714D01*
X145736333Y-112268048D01*
X145736333Y-112125190D01*
X145783952Y-112029952D01*
X145831571Y-111982333D01*
X145926810Y-111934714D01*
X146164905Y-111934714D01*
X146260143Y-111982333D01*
X146307762Y-112029952D01*
X146355381Y-112125190D01*
X146355381Y-112410905D01*
X146307762Y-112506143D01*
X146260143Y-112553762D01*
X143529667Y-113363286D02*
X143529667Y-112887095D01*
X143815381Y-113458524D02*
X142815381Y-113125191D01*
X143815381Y-112791857D01*
X142910619Y-112506143D02*
X142863000Y-112458524D01*
X142815381Y-112363286D01*
X142815381Y-112125190D01*
X142863000Y-112029952D01*
X142910619Y-111982333D01*
X143005857Y-111934714D01*
X143101095Y-111934714D01*
X143243952Y-111982333D01*
X143815381Y-112553762D01*
X143815381Y-111934714D01*
X141116667Y-113363286D02*
X141116667Y-112887095D01*
X141402381Y-113458524D02*
X140402381Y-113125191D01*
X141402381Y-112791857D01*
X141402381Y-111934714D02*
X141402381Y-112506143D01*
X141402381Y-112220429D02*
X140402381Y-112220429D01*
X140545238Y-112315667D01*
X140640476Y-112410905D01*
X140688095Y-112506143D01*
X138596667Y-113363286D02*
X138596667Y-112887095D01*
X138882381Y-113458524D02*
X137882381Y-113125191D01*
X138882381Y-112791857D01*
X137882381Y-112268048D02*
X137882381Y-112172809D01*
X137930000Y-112077571D01*
X137977619Y-112029952D01*
X138072857Y-111982333D01*
X138263333Y-111934714D01*
X138501429Y-111934714D01*
X138691905Y-111982333D01*
X138787143Y-112029952D01*
X138834762Y-112077571D01*
X138882381Y-112172809D01*
X138882381Y-112268048D01*
X138834762Y-112363286D01*
X138787143Y-112410905D01*
X138691905Y-112458524D01*
X138501429Y-112506143D01*
X138263333Y-112506143D01*
X138072857Y-112458524D01*
X137977619Y-112410905D01*
X137930000Y-112363286D01*
X137882381Y-112268048D01*
X106937762Y-71929476D02*
X106985381Y-71786619D01*
X106985381Y-71548523D01*
X106937762Y-71453285D01*
X106890143Y-71405666D01*
X106794905Y-71358047D01*
X106699667Y-71358047D01*
X106604429Y-71405666D01*
X106556810Y-71453285D01*
X106509190Y-71548523D01*
X106461571Y-71739000D01*
X106413952Y-71834238D01*
X106366333Y-71881857D01*
X106271095Y-71929476D01*
X106175857Y-71929476D01*
X106080619Y-71881857D01*
X106033000Y-71834238D01*
X105985381Y-71739000D01*
X105985381Y-71500904D01*
X106033000Y-71358047D01*
X106890143Y-70358047D02*
X106937762Y-70405666D01*
X106985381Y-70548523D01*
X106985381Y-70643761D01*
X106937762Y-70786619D01*
X106842524Y-70881857D01*
X106747286Y-70929476D01*
X106556810Y-70977095D01*
X106413952Y-70977095D01*
X106223476Y-70929476D01*
X106128238Y-70881857D01*
X106033000Y-70786619D01*
X105985381Y-70643761D01*
X105985381Y-70548523D01*
X106033000Y-70405666D01*
X106080619Y-70358047D01*
X106985381Y-69453285D02*
X106985381Y-69929476D01*
X105985381Y-69929476D01*
X109350762Y-71953286D02*
X109398381Y-71810429D01*
X109398381Y-71572333D01*
X109350762Y-71477095D01*
X109303143Y-71429476D01*
X109207905Y-71381857D01*
X109112667Y-71381857D01*
X109017429Y-71429476D01*
X108969810Y-71477095D01*
X108922190Y-71572333D01*
X108874571Y-71762810D01*
X108826952Y-71858048D01*
X108779333Y-71905667D01*
X108684095Y-71953286D01*
X108588857Y-71953286D01*
X108493619Y-71905667D01*
X108446000Y-71858048D01*
X108398381Y-71762810D01*
X108398381Y-71524714D01*
X108446000Y-71381857D01*
X109398381Y-70953286D02*
X108398381Y-70953286D01*
X108398381Y-70715191D01*
X108446000Y-70572333D01*
X108541238Y-70477095D01*
X108636476Y-70429476D01*
X108826952Y-70381857D01*
X108969810Y-70381857D01*
X109160286Y-70429476D01*
X109255524Y-70477095D01*
X109350762Y-70572333D01*
X109398381Y-70715191D01*
X109398381Y-70953286D01*
X109112667Y-70000905D02*
X109112667Y-69524714D01*
X109398381Y-70096143D02*
X108398381Y-69762810D01*
X109398381Y-69429476D01*
X111652667Y-71929476D02*
X111652667Y-71453285D01*
X111938381Y-72024714D02*
X110938381Y-71691381D01*
X111938381Y-71358047D01*
X111938381Y-70453285D02*
X111462190Y-70786619D01*
X111938381Y-71024714D02*
X110938381Y-71024714D01*
X110938381Y-70643761D01*
X110986000Y-70548523D01*
X111033619Y-70500904D01*
X111128857Y-70453285D01*
X111271714Y-70453285D01*
X111366952Y-70500904D01*
X111414571Y-70548523D01*
X111462190Y-70643761D01*
X111462190Y-71024714D01*
X111414571Y-70024714D02*
X111414571Y-69691380D01*
X111938381Y-69548523D02*
X111938381Y-70024714D01*
X110938381Y-70024714D01*
X110938381Y-69548523D01*
X113526000Y-71500904D02*
X113478381Y-71596142D01*
X113478381Y-71738999D01*
X113526000Y-71881857D01*
X113621238Y-71977095D01*
X113716476Y-72024714D01*
X113906952Y-72072333D01*
X114049810Y-72072333D01*
X114240286Y-72024714D01*
X114335524Y-71977095D01*
X114430762Y-71881857D01*
X114478381Y-71738999D01*
X114478381Y-71643761D01*
X114430762Y-71500904D01*
X114383143Y-71453285D01*
X114049810Y-71453285D01*
X114049810Y-71643761D01*
X114478381Y-71024714D02*
X113478381Y-71024714D01*
X114478381Y-70453285D01*
X113478381Y-70453285D01*
X114478381Y-69977095D02*
X113478381Y-69977095D01*
X113478381Y-69739000D01*
X113526000Y-69596142D01*
X113621238Y-69500904D01*
X113716476Y-69453285D01*
X113906952Y-69405666D01*
X114049810Y-69405666D01*
X114240286Y-69453285D01*
X114335524Y-69500904D01*
X114430762Y-69596142D01*
X114478381Y-69739000D01*
X114478381Y-69977095D01*
X117145381Y-71953286D02*
X116145381Y-71953286D01*
X116145381Y-71715191D01*
X116193000Y-71572333D01*
X116288238Y-71477095D01*
X116383476Y-71429476D01*
X116573952Y-71381857D01*
X116716810Y-71381857D01*
X116907286Y-71429476D01*
X117002524Y-71477095D01*
X117097762Y-71572333D01*
X117145381Y-71715191D01*
X117145381Y-71953286D01*
X117145381Y-70429476D02*
X117145381Y-71000905D01*
X117145381Y-70715191D02*
X116145381Y-70715191D01*
X116288238Y-70810429D01*
X116383476Y-70905667D01*
X116431095Y-71000905D01*
X116145381Y-70096143D02*
X116145381Y-69477095D01*
X116526333Y-69810429D01*
X116526333Y-69667571D01*
X116573952Y-69572333D01*
X116621571Y-69524714D01*
X116716810Y-69477095D01*
X116954905Y-69477095D01*
X117050143Y-69524714D01*
X117097762Y-69572333D01*
X117145381Y-69667571D01*
X117145381Y-69953286D01*
X117097762Y-70048524D01*
X117050143Y-70096143D01*
X119685381Y-71953286D02*
X118685381Y-71953286D01*
X118685381Y-71715191D01*
X118733000Y-71572333D01*
X118828238Y-71477095D01*
X118923476Y-71429476D01*
X119113952Y-71381857D01*
X119256810Y-71381857D01*
X119447286Y-71429476D01*
X119542524Y-71477095D01*
X119637762Y-71572333D01*
X119685381Y-71715191D01*
X119685381Y-71953286D01*
X119685381Y-70429476D02*
X119685381Y-71000905D01*
X119685381Y-70715191D02*
X118685381Y-70715191D01*
X118828238Y-70810429D01*
X118923476Y-70905667D01*
X118971095Y-71000905D01*
X118780619Y-70048524D02*
X118733000Y-70000905D01*
X118685381Y-69905667D01*
X118685381Y-69667571D01*
X118733000Y-69572333D01*
X118780619Y-69524714D01*
X118875857Y-69477095D01*
X118971095Y-69477095D01*
X119113952Y-69524714D01*
X119685381Y-70096143D01*
X119685381Y-69477095D01*
X122225381Y-71953286D02*
X121225381Y-71953286D01*
X121225381Y-71715191D01*
X121273000Y-71572333D01*
X121368238Y-71477095D01*
X121463476Y-71429476D01*
X121653952Y-71381857D01*
X121796810Y-71381857D01*
X121987286Y-71429476D01*
X122082524Y-71477095D01*
X122177762Y-71572333D01*
X122225381Y-71715191D01*
X122225381Y-71953286D01*
X122225381Y-70429476D02*
X122225381Y-71000905D01*
X122225381Y-70715191D02*
X121225381Y-70715191D01*
X121368238Y-70810429D01*
X121463476Y-70905667D01*
X121511095Y-71000905D01*
X122225381Y-69477095D02*
X122225381Y-70048524D01*
X122225381Y-69762810D02*
X121225381Y-69762810D01*
X121368238Y-69858048D01*
X121463476Y-69953286D01*
X121511095Y-70048524D01*
X124638381Y-71953286D02*
X123638381Y-71953286D01*
X123638381Y-71715191D01*
X123686000Y-71572333D01*
X123781238Y-71477095D01*
X123876476Y-71429476D01*
X124066952Y-71381857D01*
X124209810Y-71381857D01*
X124400286Y-71429476D01*
X124495524Y-71477095D01*
X124590762Y-71572333D01*
X124638381Y-71715191D01*
X124638381Y-71953286D01*
X124638381Y-70429476D02*
X124638381Y-71000905D01*
X124638381Y-70715191D02*
X123638381Y-70715191D01*
X123781238Y-70810429D01*
X123876476Y-70905667D01*
X123924095Y-71000905D01*
X123638381Y-69810429D02*
X123638381Y-69715190D01*
X123686000Y-69619952D01*
X123733619Y-69572333D01*
X123828857Y-69524714D01*
X124019333Y-69477095D01*
X124257429Y-69477095D01*
X124447905Y-69524714D01*
X124543143Y-69572333D01*
X124590762Y-69619952D01*
X124638381Y-69715190D01*
X124638381Y-69810429D01*
X124590762Y-69905667D01*
X124543143Y-69953286D01*
X124447905Y-70000905D01*
X124257429Y-70048524D01*
X124019333Y-70048524D01*
X123828857Y-70000905D01*
X123733619Y-69953286D01*
X123686000Y-69905667D01*
X123638381Y-69810429D01*
X127305381Y-71096095D02*
X126305381Y-71096095D01*
X126305381Y-70858000D01*
X126353000Y-70715142D01*
X126448238Y-70619904D01*
X126543476Y-70572285D01*
X126733952Y-70524666D01*
X126876810Y-70524666D01*
X127067286Y-70572285D01*
X127162524Y-70619904D01*
X127257762Y-70715142D01*
X127305381Y-70858000D01*
X127305381Y-71096095D01*
X127305381Y-70048476D02*
X127305381Y-69858000D01*
X127257762Y-69762761D01*
X127210143Y-69715142D01*
X127067286Y-69619904D01*
X126876810Y-69572285D01*
X126495857Y-69572285D01*
X126400619Y-69619904D01*
X126353000Y-69667523D01*
X126305381Y-69762761D01*
X126305381Y-69953238D01*
X126353000Y-70048476D01*
X126400619Y-70096095D01*
X126495857Y-70143714D01*
X126733952Y-70143714D01*
X126829190Y-70096095D01*
X126876810Y-70048476D01*
X126924429Y-69953238D01*
X126924429Y-69762761D01*
X126876810Y-69667523D01*
X126829190Y-69619904D01*
X126733952Y-69572285D01*
X129845381Y-71096095D02*
X128845381Y-71096095D01*
X128845381Y-70858000D01*
X128893000Y-70715142D01*
X128988238Y-70619904D01*
X129083476Y-70572285D01*
X129273952Y-70524666D01*
X129416810Y-70524666D01*
X129607286Y-70572285D01*
X129702524Y-70619904D01*
X129797762Y-70715142D01*
X129845381Y-70858000D01*
X129845381Y-71096095D01*
X129273952Y-69953238D02*
X129226333Y-70048476D01*
X129178714Y-70096095D01*
X129083476Y-70143714D01*
X129035857Y-70143714D01*
X128940619Y-70096095D01*
X128893000Y-70048476D01*
X128845381Y-69953238D01*
X128845381Y-69762761D01*
X128893000Y-69667523D01*
X128940619Y-69619904D01*
X129035857Y-69572285D01*
X129083476Y-69572285D01*
X129178714Y-69619904D01*
X129226333Y-69667523D01*
X129273952Y-69762761D01*
X129273952Y-69953238D01*
X129321571Y-70048476D01*
X129369190Y-70096095D01*
X129464429Y-70143714D01*
X129654905Y-70143714D01*
X129750143Y-70096095D01*
X129797762Y-70048476D01*
X129845381Y-69953238D01*
X129845381Y-69762761D01*
X129797762Y-69667523D01*
X129750143Y-69619904D01*
X129654905Y-69572285D01*
X129464429Y-69572285D01*
X129369190Y-69619904D01*
X129321571Y-69667523D01*
X129273952Y-69762761D01*
X133909381Y-71223095D02*
X132909381Y-71223095D01*
X132909381Y-70985000D01*
X132957000Y-70842142D01*
X133052238Y-70746904D01*
X133147476Y-70699285D01*
X133337952Y-70651666D01*
X133480810Y-70651666D01*
X133671286Y-70699285D01*
X133766524Y-70746904D01*
X133861762Y-70842142D01*
X133909381Y-70985000D01*
X133909381Y-71223095D01*
X132909381Y-70318333D02*
X132909381Y-69651666D01*
X133909381Y-70080238D01*
X136322381Y-71223095D02*
X135322381Y-71223095D01*
X135322381Y-70985000D01*
X135370000Y-70842142D01*
X135465238Y-70746904D01*
X135560476Y-70699285D01*
X135750952Y-70651666D01*
X135893810Y-70651666D01*
X136084286Y-70699285D01*
X136179524Y-70746904D01*
X136274762Y-70842142D01*
X136322381Y-70985000D01*
X136322381Y-71223095D01*
X135322381Y-69794523D02*
X135322381Y-69985000D01*
X135370000Y-70080238D01*
X135417619Y-70127857D01*
X135560476Y-70223095D01*
X135750952Y-70270714D01*
X136131905Y-70270714D01*
X136227143Y-70223095D01*
X136274762Y-70175476D01*
X136322381Y-70080238D01*
X136322381Y-69889761D01*
X136274762Y-69794523D01*
X136227143Y-69746904D01*
X136131905Y-69699285D01*
X135893810Y-69699285D01*
X135798571Y-69746904D01*
X135750952Y-69794523D01*
X135703333Y-69889761D01*
X135703333Y-70080238D01*
X135750952Y-70175476D01*
X135798571Y-70223095D01*
X135893810Y-70270714D01*
X138862381Y-71223095D02*
X137862381Y-71223095D01*
X137862381Y-70985000D01*
X137910000Y-70842142D01*
X138005238Y-70746904D01*
X138100476Y-70699285D01*
X138290952Y-70651666D01*
X138433810Y-70651666D01*
X138624286Y-70699285D01*
X138719524Y-70746904D01*
X138814762Y-70842142D01*
X138862381Y-70985000D01*
X138862381Y-71223095D01*
X137862381Y-69746904D02*
X137862381Y-70223095D01*
X138338571Y-70270714D01*
X138290952Y-70223095D01*
X138243333Y-70127857D01*
X138243333Y-69889761D01*
X138290952Y-69794523D01*
X138338571Y-69746904D01*
X138433810Y-69699285D01*
X138671905Y-69699285D01*
X138767143Y-69746904D01*
X138814762Y-69794523D01*
X138862381Y-69889761D01*
X138862381Y-70127857D01*
X138814762Y-70223095D01*
X138767143Y-70270714D01*
X141529381Y-71223095D02*
X140529381Y-71223095D01*
X140529381Y-70985000D01*
X140577000Y-70842142D01*
X140672238Y-70746904D01*
X140767476Y-70699285D01*
X140957952Y-70651666D01*
X141100810Y-70651666D01*
X141291286Y-70699285D01*
X141386524Y-70746904D01*
X141481762Y-70842142D01*
X141529381Y-70985000D01*
X141529381Y-71223095D01*
X140862714Y-69794523D02*
X141529381Y-69794523D01*
X140481762Y-70032619D02*
X141196048Y-70270714D01*
X141196048Y-69651666D01*
X143942381Y-71223095D02*
X142942381Y-71223095D01*
X142942381Y-70985000D01*
X142990000Y-70842142D01*
X143085238Y-70746904D01*
X143180476Y-70699285D01*
X143370952Y-70651666D01*
X143513810Y-70651666D01*
X143704286Y-70699285D01*
X143799524Y-70746904D01*
X143894762Y-70842142D01*
X143942381Y-70985000D01*
X143942381Y-71223095D01*
X142942381Y-70318333D02*
X142942381Y-69699285D01*
X143323333Y-70032619D01*
X143323333Y-69889761D01*
X143370952Y-69794523D01*
X143418571Y-69746904D01*
X143513810Y-69699285D01*
X143751905Y-69699285D01*
X143847143Y-69746904D01*
X143894762Y-69794523D01*
X143942381Y-69889761D01*
X143942381Y-70175476D01*
X143894762Y-70270714D01*
X143847143Y-70318333D01*
X146482381Y-71223095D02*
X145482381Y-71223095D01*
X145482381Y-70985000D01*
X145530000Y-70842142D01*
X145625238Y-70746904D01*
X145720476Y-70699285D01*
X145910952Y-70651666D01*
X146053810Y-70651666D01*
X146244286Y-70699285D01*
X146339524Y-70746904D01*
X146434762Y-70842142D01*
X146482381Y-70985000D01*
X146482381Y-71223095D01*
X145577619Y-70270714D02*
X145530000Y-70223095D01*
X145482381Y-70127857D01*
X145482381Y-69889761D01*
X145530000Y-69794523D01*
X145577619Y-69746904D01*
X145672857Y-69699285D01*
X145768095Y-69699285D01*
X145910952Y-69746904D01*
X146482381Y-70318333D01*
X146482381Y-69699285D01*
X149057381Y-71223095D02*
X148057381Y-71223095D01*
X148057381Y-70985000D01*
X148105000Y-70842142D01*
X148200238Y-70746904D01*
X148295476Y-70699285D01*
X148485952Y-70651666D01*
X148628810Y-70651666D01*
X148819286Y-70699285D01*
X148914524Y-70746904D01*
X149009762Y-70842142D01*
X149057381Y-70985000D01*
X149057381Y-71223095D01*
X149057381Y-69699285D02*
X149057381Y-70270714D01*
X149057381Y-69985000D02*
X148057381Y-69985000D01*
X148200238Y-70080238D01*
X148295476Y-70175476D01*
X148343095Y-70270714D01*
X151732381Y-71298095D02*
X150732381Y-71298095D01*
X150732381Y-71060000D01*
X150780000Y-70917142D01*
X150875238Y-70821904D01*
X150970476Y-70774285D01*
X151160952Y-70726666D01*
X151303810Y-70726666D01*
X151494286Y-70774285D01*
X151589524Y-70821904D01*
X151684762Y-70917142D01*
X151732381Y-71060000D01*
X151732381Y-71298095D01*
X150732381Y-70107619D02*
X150732381Y-70012380D01*
X150780000Y-69917142D01*
X150827619Y-69869523D01*
X150922857Y-69821904D01*
X151113333Y-69774285D01*
X151351429Y-69774285D01*
X151541905Y-69821904D01*
X151637143Y-69869523D01*
X151684762Y-69917142D01*
X151732381Y-70012380D01*
X151732381Y-70107619D01*
X151684762Y-70202857D01*
X151637143Y-70250476D01*
X151541905Y-70298095D01*
X151351429Y-70345714D01*
X151113333Y-70345714D01*
X150922857Y-70298095D01*
X150827619Y-70250476D01*
X150780000Y-70202857D01*
X150732381Y-70107619D01*
M02*
